<?xml version="1.0" standalone="no"?>
<!DOCTYPE svg PUBLIC "-//W3C//DTD SVG 20010904//EN"
 "http://www.w3.org/TR/2001/REC-SVG-20010904/DTD/svg10.dtd">
<svg version="1.0" xmlns="http://www.w3.org/2000/svg"
 width="992.576867pt" height="465.939344pt" viewBox="0 0 992.576867 465.939344"
 preserveAspectRatio="xMidYMid meet">
<metadata>
Created by potrace 1.12, written by Peter Selinger 2001-2015
</metadata>
<g transform="translate(-69.309631,638.219808) scale(0.100000,-0.100000)"
fill="#000000" stroke="none">
<path d="M8250 6365 c-52 -21 -178 -79 -500 -230 -74 -35 -256 -119 -405 -188
-265 -122 -396 -186 -384 -187 4 0 60 25 125 56 66 31 202 94 304 141 102 47
334 154 517 240 183 85 337 151 344 148 8 -6 7 -10 -2 -17 -10 -7 -8 -8 6 -4
11 3 35 -3 53 -15 28 -16 32 -22 22 -34 -7 -8 -18 -15 -25 -15 -7 0 -18 -7
-25 -15 -16 -19 0 -19 26 0 10 8 22 15 27 15 4 0 8 -35 8 -77 1 -43 3 -70 6
-60 7 28 23 20 23 -13 0 -35 -39 -60 -94 -60 -31 0 -33 -2 -28 -22 5 -19 7
-20 10 -5 2 10 13 17 28 17 14 0 38 7 55 16 17 8 39 12 52 8 22 -6 22 -6 2 11
-13 11 -16 18 -8 21 9 4 6 15 -8 41 -20 36 -38 133 -25 133 4 0 33 -17 64 -39
31 -21 86 -56 122 -78 36 -22 160 -100 275 -173 116 -73 267 -168 337 -212 70
-43 134 -86 143 -94 11 -12 15 -38 15 -110 l0 -95 -125 -59 c-70 -33 -132 -57
-140 -53 -24 9 -96 -28 -106 -54 -11 -28 -54 -46 -92 -39 -38 8 -107 -27 -107
-54 0 -25 -63 -53 -101 -45 -36 8 -109 -28 -109 -54 0 -26 -226 -137 -245
-121 -19 16 -94 -17 -105 -46 -12 -30 -85 -68 -119 -61 -38 8 -111 -27 -111
-52 0 -15 -26 -32 -115 -75 -63 -30 -115 -57 -115 -60 0 -3 15 2 34 10 l34 17
353 -220 c195 -121 431 -266 524 -323 94 -57 176 -109 184 -116 11 -10 2 -18
-55 -48 -38 -19 -65 -35 -61 -36 4 0 34 13 66 30 60 30 71 30 71 0 0 -12 -29
-30 -89 -59 -49 -22 -92 -41 -95 -41 -2 0 -6 12 -8 27 -3 24 -29 44 -198 150
-107 67 -199 124 -205 126 -6 2 -4 10 4 20 9 12 10 21 4 30 -6 6 -16 29 -22
49 -12 35 -29 47 -274 194 -144 86 -266 162 -272 169 -30 36 -145 9 -145 -34
0 -26 -57 -52 -120 -55 -49 -2 -100 -29 -100 -53 0 -18 -206 -117 -227 -109
-24 9 -104 -31 -110 -55 -7 -27 -80 -61 -103 -49 -24 13 -97 -25 -104 -53 -7
-26 -108 -74 -145 -69 -35 5 -100 -27 -107 -52 -6 -25 -74 -57 -96 -45 -19 10
-98 -26 -98 -45 0 -25 -50 -51 -101 -52 -51 -1 -98 -25 -106 -54 -6 -23 -252
-141 -280 -134 -26 7 -103 -31 -103 -51 0 -21 -72 -55 -112 -53 -42 1 -95 -25
-103 -53 -9 -28 -247 -141 -280 -133 -31 8 -96 -21 -102 -46 -7 -27 -76 -62
-107 -54 -29 7 -102 -28 -110 -54 -8 -25 -84 -60 -121 -55 -35 4 -95 -28 -95
-52 0 -8 -22 -26 -48 -39 l-48 -24 -72 51 c-39 29 -72 56 -72 60 0 6 763 387
776 387 5 0 777 377 1259 615 573 283 925 455 954 466 13 5 22 12 19 14 -6 6
-221 -97 -873 -420 -264 -130 -525 -259 -580 -285 -55 -26 -252 -122 -439
-214 -186 -91 -340 -166 -343 -166 -2 0 -250 -121 -551 -268 -301 -148 -645
-315 -764 -372 l-218 -102 -177 125 c-98 69 -268 189 -378 267 -343 241 -509
365 -506 375 2 6 127 69 280 140 152 72 285 136 296 143 26 15 13 15 -20 0
-22 -10 -29 -8 -50 12 -27 26 -26 55 3 78 24 19 54 15 96 -15 l39 -26 -22 -19
c-13 -10 -21 -18 -18 -18 3 0 120 54 259 121 139 67 345 164 458 216 113 53
340 160 505 238 165 78 453 213 640 300 187 86 423 197 525 245 102 48 307
144 455 213 297 138 779 366 810 385 61 35 -28 -5 -332 -149 -186 -89 -378
-179 -426 -201 l-88 -39 -42 19 c-23 11 -62 22 -87 24 -25 3 -37 3 -27 1 20
-5 20 -8 7 -34 -6 -11 -8 -25 -3 -32 5 -8 9 -4 13 12 6 26 35 50 46 39 3 -4
-3 -19 -13 -35 -11 -15 -22 -35 -25 -43 -5 -15 -183 -102 -618 -303 -350 -162
-1047 -489 -1882 -884 l-116 -55 -49 33 c-26 18 -57 34 -69 34 -11 1 -45 16
-76 33 -106 61 -311 133 -372 131 -12 0 22 -11 74 -24 126 -31 316 -114 336
-146 16 -26 -36 -18 -114 20 -84 39 -190 76 -198 69 -2 -3 29 -15 69 -27 39
-13 102 -39 140 -57 58 -30 67 -38 67 -61 0 -15 10 -38 23 -51 12 -14 18 -27
12 -29 -5 -2 -147 -68 -315 -147 l-305 -142 0 -170 -1 -169 3 158 c3 119 7
158 16 155 11 -3 718 -503 960 -679 59 -44 158 -121 220 -172 62 -52 312 -252
557 -447 245 -194 457 -364 473 -378 26 -25 27 -28 27 -143 0 -65 -4 -120 -8
-123 -4 -2 -62 30 -128 73 -190 123 -1698 1066 -1992 1246 -71 43 -111 86
-113 118 -1 16 -3 17 -6 5 -6 -23 22 -75 50 -92 47 -30 1124 -700 1327 -826
118 -74 356 -223 529 -333 173 -110 322 -202 331 -204 10 -3 388 180 871 420
1195 595 2239 1112 2884 1429 1591 783 2012 990 2033 1004 20 13 22 21 20 107
l-2 92 -3 -92 -4 -93 -39 -20 c-22 -11 -42 -20 -45 -20 -3 0 -5 53 -5 118 0
116 0 119 25 132 14 7 23 15 21 17 -2 3 -13 -1 -24 -8 -16 -10 -24 -9 -48 8
-477 332 -1134 806 -1185 854 -20 19 -237 160 -483 314 -246 154 -460 292
-475 306 -16 14 -42 31 -60 38 -17 8 -31 17 -31 22 0 14 47 21 68 10 112 -60
1151 -721 1327 -844 655 -459 940 -659 944 -663 2 -2 -2 -10 -9 -19 -11 -13
-10 -14 3 -9 11 4 17 -2 20 -23 3 -25 4 -24 6 8 1 45 5 42 -244 214 -110 76
-358 250 -551 386 -247 175 -519 353 -925 606 -316 198 -578 361 -584 365 -5
3 -35 -5 -65 -17z m1167 -793 c43 -32 245 -177 448 -322 204 -145 431 -307
505 -360 l135 -96 3 -83 c2 -46 -1 -81 -5 -79 -53 22 -132 75 -128 85 6 18 2
17 -56 -12 -52 -27 -74 -25 -66 6 4 15 -21 33 -127 95 -354 209 -945 565 -951
574 -9 14 133 83 159 76 30 -8 1080 -622 1084 -635 2 -5 -14 -19 -35 -30 -21
-11 -33 -20 -28 -20 6 0 21 6 35 14 35 20 38 19 43 -12 3 -21 4 -18 5 12 2 51
70 7 -693 450 -225 131 -411 239 -413 241 -2 1 -6 36 -9 78 -4 53 -2 76 5 76
6 0 46 -26 89 -58z m-124 -280 c78 -49 315 -191 527 -316 212 -126 393 -237
403 -248 9 -11 17 -31 17 -45 0 -20 4 -24 18 -18 94 41 92 41 160 0 34 -20 62
-40 62 -44 0 -3 -190 -99 -422 -213 -233 -114 -740 -363 -1128 -554 -388 -190
-831 -408 -985 -484 -154 -75 -730 -361 -1279 -634 -550 -273 -1001 -494
-1004 -491 -2 2 -8 30 -12 62 l-7 58 -2 -70 -1 -70 -345 -173 c-190 -94 -347
-172 -349 -172 -2 0 -6 35 -9 78 -2 42 -8 86 -11 97 -6 18 28 37 340 190 190
94 355 171 365 173 14 3 19 -3 20 -20 0 -13 3 -18 5 -12 3 7 147 83 320 170
174 87 311 160 305 162 -15 5 -14 49 2 55 7 4 6 6 -5 6 -13 1 -394 236 -418
258 -3 3 3 10 13 17 16 13 16 16 -6 67 l-24 53 -259 162 c-142 89 -260 167
-262 173 -2 6 13 18 33 27 37 15 39 15 84 -14 35 -22 556 -356 994 -636 26
-16 22 -23 -30 -50 -27 -14 -44 -25 -40 -26 4 0 25 9 47 20 49 25 52 25 48 -2
-2 -17 -24 -34 -83 -65 -143 -76 -70 -45 119 49 180 90 185 93 179 119 -5 26
0 30 73 68 44 22 76 40 71 41 -4 0 -38 -15 -75 -34 l-67 -33 -207 131 c-123
78 -206 136 -203 143 2 7 -7 36 -20 66 -24 52 -26 54 -272 207 -137 84 -257
159 -267 166 -18 12 -16 14 17 30 33 16 38 16 54 2 10 -9 115 -78 233 -153
118 -76 253 -163 300 -194 72 -48 89 -55 110 -48 22 8 51 -7 220 -114 107 -67
199 -126 204 -130 5 -5 4 -15 -4 -24 -11 -13 -10 -14 4 -9 12 5 16 0 16 -18 0
-20 -13 -30 -81 -63 -44 -22 -83 -44 -86 -49 -4 -5 -2 -7 3 -4 5 3 189 95 409
203 220 109 394 200 388 202 -17 6 -17 40 -1 49 9 6 7 10 -8 14 -40 10 -423
255 -419 267 7 22 -42 115 -72 135 -15 10 -133 82 -260 159 -128 77 -233 142
-233 144 0 2 9 9 20 15 17 9 34 1 107 -48 49 -33 162 -105 253 -162 91 -56
193 -122 228 -146 l62 -44 36 17 c31 15 37 15 58 3 12 -8 107 -67 209 -130
102 -63 186 -118 187 -122 0 -4 -35 -26 -77 -47 -43 -22 -75 -40 -70 -41 4 0
39 16 77 35 38 19 72 35 75 35 4 0 5 -10 3 -22 -2 -17 -24 -34 -83 -65 -154
-81 -62 -42 143 61 114 57 234 116 267 130 32 15 67 34 77 43 10 9 18 13 18 9
0 -4 50 19 110 50 73 38 106 60 98 65 -7 5 -13 17 -13 28 0 20 -131 106 -630
416 -283 175 -425 268 -425 276 0 6 23 21 52 34 l51 24 41 -28 c42 -29 556
-349 590 -368 15 -8 28 -7 50 4 31 14 32 14 236 -111 113 -69 206 -130 208
-134 1 -4 -29 -23 -68 -42 -38 -18 -68 -35 -66 -38 2 -2 31 10 65 27 71 36 81
38 81 11 0 -15 -20 -30 -77 -60 -168 -88 -36 -26 361 169 229 112 414 206 412
208 -2 3 -18 -3 -35 -11 -40 -21 -51 -20 -51 4 0 12 13 27 38 39 20 11 33 20
29 21 -4 0 -21 -7 -38 -16 -30 -15 -31 -14 -132 48 -56 35 -150 93 -209 128
-60 36 -103 69 -99 73 10 10 -22 92 -47 119 -8 10 -96 66 -196 124 -215 127
-330 195 -335 200 -2 2 12 10 30 19 l34 16 80 -51 c341 -219 571 -356 586
-349 23 12 433 -237 425 -258 -3 -8 -1 -11 4 -8 10 6 14 -6 11 -37 -2 -12 3
-16 12 -12 10 4 12 14 8 37 -6 29 -24 43 -166 130 -88 53 -182 111 -210 128
l-49 31 22 17 23 17 -26 55 c-23 51 -32 60 -112 107 -349 205 -436 258 -436
267 -1 6 11 14 26 19 28 10 9 21 737 -422 113 -69 240 -146 282 -171 43 -25
78 -49 78 -53 0 -4 -36 -26 -80 -48 -44 -22 -80 -42 -80 -45 0 -3 36 13 80 35
44 22 82 40 85 40 3 0 5 -10 5 -23 0 -19 -14 -30 -80 -62 -44 -21 -78 -40 -76
-42 2 -2 87 38 189 88 134 67 183 97 179 107 -4 12 -7 11 -14 -2 -12 -21 -165
-99 -178 -91 -22 13 -7 36 38 59 26 14 43 25 39 26 -4 0 -25 -9 -46 -19 l-38
-20 -305 187 c-169 103 -410 250 -537 327 -127 77 -231 143 -231 146 0 3 26
18 58 33 l57 27 324 -200 c320 -197 325 -199 353 -185 33 17 16 25 275 -130
138 -83 180 -113 172 -122 -15 -19 11 -12 41 10 22 16 23 17 4 12 -19 -6 -141
62 -411 230 -12 8 -20 20 -18 27 2 6 -8 37 -23 67 -29 59 8 34 -507 339 l-50
29 28 13 c22 10 30 10 44 -3 10 -9 131 -85 268 -170 138 -85 273 -169 300
-187 45 -28 53 -30 81 -19 29 11 39 6 237 -113 114 -68 207 -127 207 -131 0
-4 -30 -23 -67 -42 -38 -19 -64 -35 -60 -36 4 0 34 14 67 30 33 17 62 30 65
30 3 0 5 -11 5 -25 0 -14 3 -25 8 -24 4 0 52 23 107 52 93 48 100 54 100 82 0
17 -4 32 -10 35 -16 8 -409 243 -415 248 -3 2 2 9 11 15 14 9 13 16 -12 67
-30 63 8 36 -388 270 l-174 103 34 18 c19 10 35 18 37 19 1 0 66 -40 145 -88z
m-3228 68 c6 -10 -69 -53 -78 -43 -3 3 1 16 10 29 15 24 56 33 68 14z m2935
-140 c30 -20 170 -107 311 -193 220 -135 261 -156 286 -151 28 6 124 -46 396
-212 46 -28 66 -61 52 -84 -7 -12 -161 -90 -177 -90 -4 0 -8 9 -8 20 0 14 18
29 68 54 37 19 63 35 59 36 -4 0 -33 -13 -65 -29 l-57 -28 -180 108 c-99 60
-196 119 -215 130 -30 18 -32 22 -17 31 14 7 15 13 7 23 -6 8 -21 33 -33 56
-24 47 -10 37 -345 233 -192 112 -202 120 -180 132 12 7 27 10 33 6 5 -3 35
-22 65 -42z m-1017 -459 c40 -27 498 -314 564 -353 28 -17 37 -18 65 -8 32 12
38 9 233 -109 109 -67 203 -125 208 -130 10 -10 -140 -91 -168 -91 -25 0
-1075 644 -1075 659 0 6 107 58 123 60 5 1 27 -12 50 -28z m2527 -181 c0 -16
-6 -34 -12 -40 -14 -12 -710 -358 -1253 -622 -558 -272 -2491 -1228 -3548
-1755 -411 -205 -749 -373 -752 -373 -3 0 -5 17 -5 38 l0 37 848 422 c912 454
2537 1258 3617 1789 368 181 762 375 875 431 113 56 211 102 218 102 7 1 12
-11 12 -29z m-2919 1 c13 -10 154 -100 312 -200 263 -166 291 -182 316 -173
25 9 47 -2 226 -114 109 -67 202 -127 206 -131 5 -5 -31 -29 -80 -52 l-89 -44
-203 126 c-112 69 -204 131 -205 139 -1 7 -11 37 -24 66 l-23 53 -270 161
c-260 154 -269 161 -246 174 33 18 52 17 80 -5z m-138 -303 c133 -83 303 -190
377 -236 74 -47 201 -126 281 -176 80 -50 147 -95 148 -101 2 -5 7 -20 12 -33
8 -20 1 -26 -82 -67 -49 -25 -94 -43 -99 -40 -24 15 -5 37 58 69 37 19 63 35
59 36 -4 0 -33 -13 -65 -29 l-57 -29 -202 127 c-112 69 -203 130 -203 134 0 5
13 14 28 19 l29 11 -30 62 -30 62 -264 159 c-228 138 -261 161 -246 172 9 6
23 12 30 12 8 0 123 -68 256 -152z m-319 -35 c403 -262 491 -316 510 -319 15
-1 379 -221 414 -249 2 -1 5 -18 8 -36 6 -34 6 -34 -80 -76 -48 -24 -91 -43
-96 -43 -13 0 -13 33 0 46 7 7 7 11 -2 11 -7 0 -78 41 -158 91 -80 50 -172
107 -204 128 l-60 36 28 15 c30 16 29 27 -6 96 -21 43 -22 43 -331 229 -206
124 -217 132 -195 145 13 7 26 12 30 13 4 0 68 -39 142 -87z m-209 -104 c289
-192 497 -320 513 -317 18 3 422 -239 422 -253 0 -5 -40 -29 -88 -53 l-88 -44
-211 131 c-116 72 -209 135 -207 139 3 5 -6 32 -20 61 -24 51 -29 55 -233 182
-302 187 -313 194 -313 200 0 7 82 44 90 42 3 -1 64 -41 135 -88z m2142 -33
c-6 -15 -155 -96 -177 -96 -5 0 -10 9 -10 20 0 15 22 31 88 64 83 42 112 46
99 12z m-2672 -130 c66 -44 511 -327 553 -352 27 -15 36 -16 52 -6 11 6 27 12
36 12 26 0 424 -254 419 -267 -2 -7 0 -13 6 -13 6 0 9 -10 7 -22 -2 -17 -23
-34 -83 -65 -92 -48 -105 -50 -105 -23 0 15 20 30 80 60 100 50 106 62 8 15
-40 -19 -79 -35 -88 -34 -26 1 -415 253 -415 269 0 8 -12 38 -27 66 -25 48
-39 59 -180 146 -84 52 -197 121 -251 153 -106 63 -117 73 -96 86 22 14 31 11
84 -25z m2273 -59 c2 -12 -22 -29 -86 -61 -49 -25 -92 -42 -96 -39 -20 20 0
42 77 80 86 44 100 47 105 20z m-2495 -31 c18 -13 151 -99 297 -191 146 -92
272 -174 282 -182 14 -13 20 -12 48 2 17 9 37 15 44 13 20 -5 415 -252 416
-260 0 -4 -21 -19 -47 -32 -27 -14 -44 -25 -40 -26 4 0 26 9 48 20 36 19 40
19 46 4 4 -11 -1 -22 -13 -32 -32 -24 -164 -85 -171 -78 -4 3 -7 16 -8 29 -1
22 -125 103 -862 564 -112 70 -203 130 -203 134 0 6 106 57 123 58 5 1 23 -10
40 -23z m42 -184 c121 -76 355 -223 520 -326 165 -104 306 -193 313 -200 9 -9
-7 -21 -77 -55 -56 -28 -95 -42 -106 -37 -10 3 -104 61 -210 129 -174 110
-191 124 -178 138 12 15 11 23 -13 72 -27 55 -27 55 -286 214 -142 87 -258
161 -258 165 0 8 50 37 65 38 6 0 109 -62 230 -138z m-3402 -89 c483 -348 907
-645 931 -651 11 -2 32 -15 46 -27 31 -28 627 -498 899 -709 111 -88 212 -173
222 -190 16 -26 19 -51 19 -143 l0 -111 -43 -21 c-24 -12 -46 -21 -50 -21 -4
0 -7 56 -7 125 l0 125 40 16 c23 9 38 19 36 22 -3 3 -24 -3 -46 -13 -27 -12
-44 -15 -52 -8 -171 132 -968 768 -1088 867 -80 67 -258 197 -575 421 -320
226 -516 367 -549 396 -6 5 35 37 52 39 2 0 76 -53 165 -117z m2922 -124 c105
-69 245 -160 313 -204 121 -77 124 -78 158 -66 41 15 25 22 276 -137 93 -59
168 -110 168 -114 0 -13 -162 -90 -179 -85 -18 4 -1041 654 -1060 672 -5 5
122 66 129 62 3 -1 91 -59 195 -128z m2135 38 c0 -18 -16 -30 -86 -65 -84 -42
-104 -45 -104 -17 0 12 159 103 183 104 4 1 7 -9 7 -22z m-2690 -105 c11 -10
153 -105 316 -211 259 -169 299 -192 318 -183 20 9 50 -7 229 -121 124 -79
205 -137 202 -144 -2 -7 0 -13 5 -13 6 0 10 -9 10 -20 0 -15 -22 -31 -90 -65
-49 -25 -92 -45 -95 -45 -3 0 -5 11 -5 24 0 16 7 27 21 31 11 4 18 9 16 12 -3
3 -13 1 -23 -5 -24 -14 -443 256 -422 272 11 9 8 21 -17 70 l-30 59 -255 159
c-140 87 -256 162 -258 166 -2 7 16 17 56 31 2 1 12 -7 22 -17z m84 -302 c300
-197 310 -203 339 -192 29 11 37 7 181 -87 83 -54 177 -115 209 -135 32 -20
55 -41 52 -46 -3 -5 -1 -11 5 -15 26 -16 4 -38 -80 -80 -49 -25 -94 -45 -100
-45 -5 0 -10 9 -10 20 0 15 22 31 88 64 48 25 84 45 79 45 -4 1 -42 -17 -85
-38 l-78 -39 -204 132 c-113 73 -204 138 -203 143 1 6 -10 34 -26 64 -31 61
-48 74 -368 271 -100 62 -182 116 -183 119 0 10 44 28 60 25 8 -2 154 -94 324
-206z m-694 123 c47 -37 200 -153 340 -257 375 -279 710 -537 710 -547 0 -12
-712 -360 -726 -355 -27 10 -1107 861 -1112 876 -2 5 14 18 35 30 42 24 655
319 663 320 3 0 44 -30 90 -67z m478 -237 c166 -108 308 -196 315 -196 6 1 23
7 37 14 18 11 30 11 45 3 15 -7 373 -238 393 -252 2 -2 5 -18 8 -36 l6 -34
-89 -44 -89 -43 -28 23 c-91 76 -106 99 -26 40 l35 -27 90 48 c110 58 106 64
-5 8 l-80 -40 -152 98 c-180 115 -847 607 -848 624 0 4 12 14 28 22 22 12 30
12 42 1 8 -7 151 -101 318 -209z m2015 124 c5 -18 -8 -27 -85 -66 -71 -36 -93
-43 -99 -32 -5 7 -9 16 -9 20 0 7 166 96 181 97 4 1 9 -8 12 -19z m-403 -203
c0 -18 -16 -30 -85 -65 -47 -23 -90 -42 -95 -42 -6 0 -10 9 -10 20 0 15 22 31
88 64 48 25 90 45 95 45 4 1 7 -9 7 -22z"/>
<path d="M10170 4630 c-30 -16 -51 -29 -47 -30 10 0 107 49 107 55 0 7 1 7
-60 -25z"/>
<path d="M9763 4435 c-40 -18 -73 -36 -73 -39 0 -6 132 53 145 65 14 14 5 11
-72 -26z"/>
<path d="M7970 3615 c-36 -19 -62 -34 -59 -35 10 0 139 60 139 65 0 10 -16 4
-80 -30z"/>
<path d="M6170 2720 c-30 -16 -51 -29 -47 -30 10 0 107 49 107 55 0 7 1 7 -60
-25z"/>
<path d="M4527 3065 c-4 -8 -2 -17 3 -20 6 -4 10 -1 10 4 0 6 7 11 16 11 8 0
12 5 9 10 -9 15 -32 12 -38 -5z"/>
<path d="M4480 3040 c0 -5 7 -10 15 -10 8 0 15 5 15 10 0 6 -7 10 -15 10 -8 0
-15 -4 -15 -10z"/>
<path d="M4450 3026 c0 -9 7 -16 16 -16 9 0 14 5 12 12 -6 18 -28 21 -28 4z"/>
<path d="M4578 2989 c-32 -16 -58 -33 -57 -37 0 -6 431 -358 479 -391 18 -12
27 -11 73 14 29 15 56 31 60 35 14 13 -78 179 -140 254 -51 61 -159 146 -186
146 -6 0 16 -17 49 -38 85 -55 172 -155 222 -254 23 -46 42 -89 42 -95 0 -11
-77 -53 -98 -53 -6 0 -28 33 -48 72 -47 95 -93 156 -162 218 -53 47 -141 91
-180 89 -9 0 5 -7 32 -15 85 -27 146 -74 229 -178 41 -53 105 -170 89 -165 -6
2 -101 78 -212 169 -111 91 -206 168 -212 171 -19 12 -2 35 47 61 68 37 44 34
-27 -3z"/>
<path d="M4243 2925 c-3 -9 -3 -19 1 -22 3 -4 6 -1 6 5 0 7 9 12 21 12 11 0
17 5 14 10 -9 15 -35 12 -42 -5z"/>
<path d="M4193 2903 c-13 -2 -23 -9 -23 -14 0 -6 -6 -7 -12 -3 -8 5 -7 1 2
-10 8 -11 16 -14 18 -7 2 6 10 11 18 11 8 0 14 5 14 11 0 5 5 7 10 4 6 -3 10
-1 10 4 0 6 -3 10 -7 10 -5 -1 -18 -4 -30 -6z"/>
<path d="M4288 2849 c-32 -16 -58 -33 -58 -38 0 -9 22 -28 292 -249 109 -89
203 -162 208 -162 6 0 37 13 69 30 l59 29 -48 91 c-60 113 -120 191 -185 243
-52 42 -119 77 -145 76 -8 0 2 -7 22 -14 109 -40 237 -174 303 -317 14 -29 25
-59 25 -65 0 -7 -22 -24 -50 -38 l-49 -25 -47 90 c-58 113 -158 223 -242 268
-33 18 -66 32 -73 32 -8 0 9 -11 36 -24 74 -34 145 -95 202 -172 53 -72 98
-153 90 -161 -3 -2 -85 61 -183 140 -245 199 -257 209 -249 228 9 25 74 52
140 59 l60 7 -60 1 c-48 1 -71 -5 -117 -29z"/>
<path d="M5170 2555 c-7 -9 -10 -18 -6 -22 3 -3 6 -1 6 6 0 7 4 10 9 7 5 -3
11 1 15 9 7 19 -8 19 -24 0z"/>
<path d="M5110 2528 c0 -14 15 -16 27 -3 10 11 9 13 -7 12 -11 -1 -20 -5 -20
-9z"/>
<path d="M4840 2390 c0 -5 7 -10 15 -10 8 0 15 5 15 10 0 6 -7 10 -15 10 -8 0
-15 -4 -15 -10z"/>
<path d="M4812 2379 c2 -7 10 -15 17 -17 8 -3 12 1 9 9 -2 7 -10 15 -17 17 -8
3 -12 -1 -9 -9z"/>
<path d="M8197 6303 c-2 -5 -7 -19 -10 -34 -5 -19 -20 -31 -62 -48 -30 -13
-58 -27 -61 -33 -3 -5 11 -1 32 10 22 11 49 23 62 26 20 7 22 4 22 -33 0 -27
-4 -41 -13 -41 -8 0 -13 -13 -13 -35 0 -19 4 -35 8 -35 4 0 8 15 8 33 1 30 1
31 15 13 14 -18 15 -13 15 57 l0 77 25 -12 c23 -10 25 -16 25 -84 0 -47 -4
-74 -12 -76 -7 -3 -6 -7 5 -11 15 -6 17 3 17 82 l0 89 -31 12 c-22 10 -29 18
-26 32 5 18 2 24 -6 11z"/>
<path d="M7962 6181 c20 -4 43 -13 51 -19 11 -10 17 -9 25 1 8 9 7 13 -6 14
-9 1 -37 4 -62 7 -40 5 -41 4 -8 -3z"/>
<path d="M7890 6160 c-11 -11 -20 -28 -21 -37 0 -12 -21 -28 -60 -47 -32 -16
-57 -31 -55 -33 2 -3 27 7 55 21 28 14 53 26 56 26 3 0 5 -16 5 -35 0 -24 -6
-37 -20 -45 -12 -6 -18 -16 -13 -23 5 -8 8 -8 11 1 6 20 20 14 34 -15 7 -14
20 -28 28 -30 10 -3 9 -1 -2 7 -15 9 -18 26 -18 90 0 78 0 79 23 71 20 -8 22
-14 22 -90 0 -44 3 -81 8 -81 4 0 7 38 7 86 l0 85 -30 10 c-35 13 -36 16 -13
41 22 24 8 23 -17 -2z"/>
<path d="M8000 6121 l-35 -16 -3 -88 c-1 -48 1 -87 5 -87 4 0 6 37 5 83 -4 81
-3 83 23 95 14 7 28 12 30 12 12 0 3 -128 -10 -154 -16 -30 -16 -30 5 -11 11
10 20 27 20 38 0 16 3 17 15 7 12 -10 15 -10 15 4 0 9 -7 16 -15 16 -10 0 -15
15 -17 59 l-3 59 -35 -17z"/>
<path d="M8175 6069 c-3 -4 6 -11 20 -15 34 -9 40 -2 9 13 -13 6 -26 7 -29 2z"/>
<path d="M8502 6063 c-16 -14 -22 -34 -26 -95 -3 -46 -1 -78 5 -78 5 0 9 24 9
53 0 30 2 56 5 59 3 3 21 0 40 -6 l35 -11 0 -72 c0 -66 -2 -72 -22 -76 -13 -2
-5 -5 17 -5 22 0 34 2 28 5 -9 3 -13 29 -13 79 0 68 2 75 23 83 12 5 25 7 30
4 15 -9 8 -131 -9 -147 -8 -9 -11 -16 -5 -16 21 0 31 40 31 119 0 68 -3 84
-20 101 -26 26 -99 27 -128 3z m116 -9 c28 -19 16 -39 -29 -49 -35 -8 -89 11
-89 31 0 33 79 45 118 18z"/>
<path d="M7591 6031 c-8 -5 -22 -24 -30 -42 -12 -23 -36 -43 -86 -71 -38 -21
-77 -38 -86 -38 -12 0 -15 -7 -12 -24 4 -20 -1 -26 -31 -36 -36 -11 -36 -12
-34 -63 l2 -52 3 48 c4 41 8 49 30 58 14 5 28 7 32 4 3 -4 6 -36 6 -71 0 -74
-18 -98 -66 -90 -14 2 -33 0 -40 -5 -22 -14 55 -11 86 3 16 7 28 23 32 40 5
26 23 40 23 18 0 -5 5 -10 12 -10 6 0 25 -10 42 -23 40 -30 56 -39 56 -33 0 3
-21 19 -47 37 -73 49 -80 60 -86 125 l-6 60 75 37 c41 20 78 37 82 37 12 0 6
-59 -8 -76 -7 -8 -10 -17 -6 -21 3 -3 6 -1 6 5 0 7 5 12 10 12 6 0 10 -8 10
-18 0 -19 18 -42 33 -42 5 0 1 7 -7 16 -12 11 -16 35 -16 85 0 75 4 79 51 52
27 -16 29 -21 29 -84 0 -62 -2 -68 -22 -72 -13 -2 -5 -5 17 -5 22 0 34 2 28 5
-15 6 -18 163 -4 163 5 0 16 3 25 6 14 5 16 -4 16 -68 0 -45 -5 -79 -12 -87
-11 -11 -10 -12 0 -6 7 4 18 19 23 33 8 21 12 23 19 12 5 -8 13 -11 17 -6 4 4
0 13 -10 20 -12 10 -19 34 -23 89 -6 65 -10 76 -28 81 -35 10 -42 6 -16 -7 36
-18 37 -43 3 -52 -15 -3 -31 -12 -35 -18 -5 -8 -11 -8 -15 -2 -5 6 -20 16 -35
24 -30 15 -28 33 5 49 12 6 18 11 12 11 -5 0 -16 -3 -24 -8z"/>
<path d="M8060 5966 c0 -27 -50 -56 -97 -56 -46 0 -98 21 -106 42 -2 7 -8 10
-11 6 -11 -10 27 -44 58 -52 15 -4 26 -13 26 -24 1 -16 1 -16 11 1 5 9 21 17
35 17 14 0 39 7 55 16 17 8 38 13 46 9 14 -5 14 -3 2 11 -11 14 -11 18 -1 21
6 3 10 9 6 14 -8 14 -24 11 -24 -5z"/>
<path d="M8205 5931 c-36 -15 -45 -36 -50 -111 -2 -46 -9 -78 -19 -89 -9 -10
-16 -21 -16 -25 0 -5 9 2 20 15 16 20 19 21 20 7 0 -10 10 -22 23 -28 20 -10
20 -10 5 3 -14 11 -18 30 -18 86 0 70 1 72 23 65 12 -3 23 -10 25 -15 2 -4 10
-5 18 -2 11 4 14 -9 14 -72 0 -64 -3 -76 -15 -72 -8 4 -17 2 -20 -3 -4 -6 11
-10 33 -10 41 0 72 23 72 53 0 9 3 18 8 21 13 8 -2 144 -19 161 -19 19 -77 28
-104 16z m78 -12 c47 -25 44 -43 -9 -58 -26 -7 -44 -6 -69 5 -40 16 -38 37 3
53 37 13 50 13 75 0z m27 -132 c0 -72 -10 -97 -37 -97 -10 0 -13 20 -13 75 0
60 3 76 18 84 30 18 32 13 32 -62z"/>
<path d="M8668 5876 c5 -39 -18 -60 -78 -71 -38 -7 -120 18 -120 37 0 5 -4 6
-10 3 -17 -11 -11 -25 10 -25 11 0 23 -6 26 -14 3 -8 13 -12 24 -9 10 3 20 0
24 -5 6 -10 81 8 109 25 7 4 21 7 32 6 11 -2 14 0 8 3 -7 3 -13 12 -13 19 0 7
6 16 13 18 10 4 10 6 0 6 -7 1 -13 10 -13 21 0 11 -4 20 -8 20 -4 0 -6 -15 -4
-34z"/>
<path d="M7239 5845 c-12 -19 -25 -33 -30 -30 -15 10 -49 -14 -42 -31 4 -12 0
-14 -23 -8 -27 6 -28 5 -13 -10 14 -15 19 -15 52 -1 48 20 47 20 47 -15 0 -18
-6 -33 -15 -36 -8 -4 -15 -16 -14 -28 0 -21 0 -21 9 2 12 29 30 28 30 -2 0
-14 3 -27 8 -29 4 -3 5 26 4 65 -4 84 2 106 23 88 9 -7 18 -10 21 -7 10 10 -6
27 -27 27 -21 0 -25 20 -7 38 7 7 9 12 5 12 -4 0 -17 -16 -28 -35z"/>
<path d="M7528 5820 c-6 -18 24 -48 57 -56 14 -3 30 -14 35 -23 5 -9 10 -11
10 -5 0 7 15 15 33 18 17 3 45 13 60 21 15 8 35 12 45 9 12 -4 14 -3 4 3 -7 6
-12 14 -11 19 4 24 -3 24 -21 1 -24 -30 -80 -51 -112 -42 -55 15 -80 30 -87
49 -6 14 -9 16 -13 6z"/>
<path d="M7293 5745 c0 -22 2 -30 4 -17 2 12 2 30 0 40 -3 9 -5 -1 -4 -23z"/>
<path d="M7850 5760 c-15 -15 -20 -35 -22 -82 -2 -95 1 -111 24 -130 26 -22
96 -24 126 -2 20 14 22 23 22 109 0 89 -1 95 -25 111 -13 9 -30 14 -37 11 -9
-4 -8 -6 3 -6 9 -1 24 -10 35 -22 16 -17 16 -22 4 -29 -10 -7 -11 -10 -2 -10
18 0 16 -120 -3 -147 -13 -18 -24 -21 -66 -19 -61 3 -69 12 -69 89 0 52 3 60
21 64 21 6 21 7 4 19 -22 16 -14 41 17 54 18 7 19 9 6 9 -10 1 -27 -8 -38 -19z"/>
<path d="M8344 5755 c-4 -8 -4 -24 -1 -34 5 -20 -23 -53 -53 -64 -13 -5 -13
-6 1 -6 8 -1 24 5 34 13 10 7 28 11 39 9 20 -4 20 -4 2 8 -18 11 -18 13 -2 24
14 11 14 14 2 18 -9 4 -12 14 -9 26 6 24 -5 29 -13 6z"/>
<path d="M6945 5727 c-22 -18 -27 -32 -29 -79 -1 -31 -8 -64 -15 -72 -12 -14
-11 -16 3 -10 11 4 16 1 16 -13 0 -20 29 -53 46 -53 4 0 -2 7 -14 16 -19 13
-22 24 -22 90 0 57 3 74 13 70 6 -3 20 -9 30 -12 16 -6 18 -17 15 -90 -3 -81
-2 -84 19 -84 43 0 73 21 73 52 0 15 5 28 10 28 6 0 10 -5 10 -11 0 -5 5 -7
12 -3 8 5 6 11 -7 20 -13 10 -19 32 -23 84 -2 38 -9 70 -13 70 -5 0 -8 -10 -6
-22 1 -16 -5 -23 -23 -28 -24 -6 -25 -10 -31 -95 l-5 -90 -2 85 -2 86 -35 13
c-19 7 -35 16 -35 20 0 14 29 33 63 41 30 7 30 8 5 9 -15 1 -39 -9 -53 -22z
m125 -132 c0 -63 -3 -76 -19 -85 -11 -5 -22 -10 -25 -10 -3 0 -6 36 -6 79 0
78 4 88 38 90 8 1 12 -20 12 -74z"/>
<path d="M8775 5689 c-113 -50 -123 -60 -103 -91 14 -20 158 -107 158 -95 0 3
-34 24 -75 46 -58 32 -74 46 -72 61 4 27 5 27 98 71 l83 38 68 -36 c66 -34 76
-48 68 -88 -1 -5 4 -5 10 1 23 23 4 49 -65 91 -38 24 -72 43 -75 43 -3 0 -45
-19 -95 -41z"/>
<path d="M7900 5633 l5 -68 4 60 5 60 6 -65 6 -65 4 73 c5 67 4 72 -15 72 -19
0 -20 -5 -15 -67z"/>
<path d="M7415 5673 c6 -23 -20 -43 -76 -57 -29 -6 -109 17 -120 36 -4 6 -12
7 -19 3 -8 -5 1 -14 26 -26 22 -10 45 -18 52 -19 6 0 12 -8 12 -17 0 -11 3
-14 8 -8 4 6 27 17 52 24 24 7 55 21 67 31 20 16 21 19 7 36 -14 18 -15 18 -9
-3z"/>
<path d="M8175 5658 c3 -8 26 -14 53 -15 l47 -2 -50 14 c-27 8 -51 14 -52 15
-1 0 0 -6 2 -12z"/>
<path d="M9230 5635 c-25 -13 -40 -24 -35 -24 6 0 30 11 55 24 25 13 41 24 35
24 -5 0 -30 -11 -55 -24z"/>
<path d="M6800 5600 c-41 -21 -72 -39 -67 -40 10 0 147 69 147 75 0 7 3 8 -80
-35z"/>
<path d="M7545 5630 c4 -6 -5 -20 -20 -32 -26 -20 -26 -24 -24 -107 3 -80 5
-87 28 -103 14 -10 42 -17 61 -17 23 1 27 3 13 6 -21 4 -23 10 -23 77 0 69 1
73 28 84 l27 12 -29 -6 c-35 -6 -86 13 -86 33 0 8 13 20 30 26 28 12 29 13 8
26 -12 7 -17 8 -13 1z m9 -96 c13 -5 16 -22 16 -80 0 -41 -3 -74 -6 -74 -3 0
-14 5 -25 10 -16 9 -19 22 -19 80 0 69 3 76 34 64z"/>
<path d="M7626 5606 l30 -14 3 -95 c2 -83 0 -97 -16 -106 -10 -6 -13 -11 -7
-11 17 0 34 23 34 47 0 13 5 23 10 23 18 0 11 -59 -10 -80 -11 -11 -16 -20
-11 -20 5 0 14 7 22 16 7 9 21 13 33 10 21 -5 21 -5 1 10 -17 13 -18 16 -5 25
11 8 12 12 3 16 -7 2 -13 14 -13 25 0 14 -5 18 -15 14 -12 -4 -15 3 -15 29 0
19 3 35 7 35 4 0 66 -40 137 -88 72 -49 138 -92 146 -97 38 -21 -8 12 -141
103 -101 69 -145 105 -147 120 -4 24 -38 52 -62 52 -8 -1 -1 -7 16 -14z"/>
<path d="M8020 5600 c-1 -8 -2 -24 -1 -36 3 -30 -29 -53 -87 -61 -42 -7 -50
-11 -42 -23 6 -10 13 -11 18 -5 8 11 84 36 118 38 18 2 19 5 10 20 -8 14 -8
20 4 27 9 6 10 10 3 10 -6 0 -14 10 -16 23 -2 12 -5 15 -7 7z"/>
<path d="M8720 5596 c0 -2 25 -19 55 -36 44 -25 58 -29 75 -20 11 6 20 13 20
16 0 2 -9 0 -20 -6 -17 -9 -31 -5 -75 20 -30 17 -55 29 -55 26z"/>
<path d="M8582 5580 c53 -16 140 -72 134 -86 -3 -8 -1 -14 4 -14 26 0 4 -19
-50 -45 -33 -16 -58 -30 -56 -32 2 -3 31 10 65 26 77 39 81 63 18 102 -64 41
-104 59 -124 58 -11 0 -8 -4 9 -9z"/>
<path d="M8920 5555 c-36 -19 -61 -34 -57 -35 10 0 127 59 127 65 0 7 2 8 -70
-30z"/>
<path d="M6680 5559 c23 -9 39 -26 40 -40 0 -4 -17 -14 -37 -22 -32 -14 -12
-13 25 0 9 4 12 -14 12 -71 0 -64 -3 -77 -19 -86 -29 -15 -30 -15 -34 48 l-3
57 -2 -57 c-3 -89 -22 -69 -24 25 l-2 82 -3 -77 c-3 -59 -7 -78 -18 -78 -8 0
-19 8 -24 18 -6 9 -11 12 -11 5 0 -19 42 -43 76 -43 18 0 42 8 54 18 21 17 23
27 22 93 -2 100 -9 126 -35 133 -34 9 -45 6 -17 -5z"/>
<path d="M6891 5550 c-2 -3 -4 -17 -5 -31 -1 -23 5 -29 46 -45 27 -10 48 -24
48 -30 0 -6 19 -23 43 -38 l42 -27 -33 28 c-34 30 -40 43 -19 43 7 0 30 9 52
20 22 11 48 20 60 21 11 0 14 3 8 6 -7 2 -13 12 -13 21 0 13 -3 12 -15 -5 -47
-67 -197 -57 -208 14 -2 16 -5 26 -6 23z"/>
<path d="M7130 5542 c0 -5 15 -16 33 -25 17 -9 42 -24 55 -33 12 -9 22 -14 22
-11 0 6 -97 77 -105 77 -3 0 -5 -4 -5 -8z"/>
<path d="M6570 5513 c0 -14 -8 -24 -22 -29 -31 -9 -201 -93 -213 -105 -5 -6
16 1 48 15 31 14 57 21 57 16 0 -6 8 -10 18 -9 10 0 12 3 5 6 -20 8 -15 23 7
23 11 0 20 4 20 9 0 5 15 15 33 22 17 7 35 14 40 17 4 2 7 -12 7 -32 0 -20 -4
-36 -10 -36 -5 0 -10 -6 -10 -14 0 -8 -7 -21 -15 -29 -13 -13 -13 -16 1 -21 9
-4 14 -13 10 -21 -3 -10 1 -15 12 -15 10 0 23 -5 30 -12 18 -18 105 -15 136 6
16 10 36 15 49 11 20 -6 21 -5 4 8 -9 8 -15 21 -11 30 3 8 0 18 -6 22 -6 4
-11 1 -9 -6 3 -29 -2 -39 -31 -54 -71 -37 -183 -1 -166 53 4 12 12 20 17 17 5
-4 9 18 9 49 0 49 2 55 23 59 21 3 21 4 2 12 -11 5 -23 13 -27 19 -5 6 -8 2
-8 -11z"/>
<path d="M8592 5328 c-226 -111 -410 -203 -408 -205 3 -3 825 393 835 403 17
16 -62 -20 -427 -198z"/>
<path d="M8387 5503 c-21 -20 -2 -45 68 -87 83 -50 89 -52 125 -31 30 17 21
20 -14 4 -21 -10 -33 -7 -89 24 -64 37 -113 79 -73 64 17 -7 17 -5 5 10 -7 10
-14 19 -15 21 0 1 -4 -1 -7 -5z"/>
<path d="M8650 5460 c-19 -11 -30 -19 -25 -19 6 0 26 8 45 19 19 11 31 19 25
19 -5 0 -26 -8 -45 -19z"/>
<path d="M7250 5467 c0 -3 23 -20 51 -38 l51 -32 -37 -15 c-30 -12 -44 -13
-69 -4 l-31 12 25 -20 c33 -26 16 -25 -26 1 -48 29 -42 17 6 -15 31 -20 40
-33 40 -55 0 -30 25 -55 105 -100 39 -23 40 -23 15 -1 -17 15 -19 20 -7 16 33
-11 16 3 -43 35 -51 27 -60 36 -60 59 0 30 20 51 67 69 29 12 36 10 82 -16 28
-15 51 -30 51 -33 -1 -3 -23 -15 -50 -28 l-50 -23 -47 31 c-29 20 -41 25 -30
12 10 -11 45 -34 77 -51 33 -18 62 -36 65 -41 8 -13 -6 -61 -16 -54 -5 3 -9 3
-9 0 0 -3 9 -10 20 -16 15 -8 27 -7 48 4 25 13 31 13 45 0 9 -8 12 -9 7 -2
-15 18 -12 24 16 37 23 10 26 16 21 46 -3 19 -3 35 1 35 4 0 27 -16 51 -35 44
-36 57 -42 47 -26 -13 20 -106 80 -106 68 0 -6 -8 -2 -18 11 -10 13 -42 36
-72 51 -76 39 -167 89 -196 108 -13 8 -24 13 -24 10z m254 -153 c25 -10 19
-20 -23 -38 -67 -31 -105 -6 -40 26 39 20 42 20 63 12z m56 -76 c0 -11 -20
-29 -52 -47 -29 -17 -54 -29 -56 -27 -2 2 -5 22 -6 44 -3 40 -2 41 43 61 42
19 47 19 59 4 6 -9 12 -25 12 -35z"/>
<path d="M8205 5459 c-10 -15 3 -25 16 -12 7 7 7 13 1 17 -6 3 -14 1 -17 -5z"/>
<path d="M8205 5420 c-101 -48 -92 -52 12 -4 75 34 79 35 111 20 17 -9 32 -14
32 -11 0 6 -57 35 -67 34 -4 0 -44 -18 -88 -39z"/>
<path d="M5683 5423 c26 -2 67 -2 90 0 23 2 2 3 -48 3 -49 0 -68 -1 -42 -3z"/>
<path d="M5446 5404 c-44 -8 -82 -17 -85 -21 -3 -3 12 -2 34 2 22 4 81 13 130
20 60 9 75 13 45 13 -25 0 -81 -6 -124 -14z"/>
<path d="M5848 5413 c12 -2 30 -2 40 0 9 3 -1 5 -23 4 -22 0 -30 -2 -17 -4z"/>
<path d="M8370 5416 c0 -2 16 -13 36 -25 21 -13 32 -26 28 -33 -4 -7 -3 -8 4
-4 7 4 12 1 12 -6 0 -8 -36 -31 -80 -53 -44 -21 -78 -40 -76 -43 9 -8 166 79
166 92 0 8 -7 22 -16 31 -17 16 -74 49 -74 41z"/>
<path d="M7470 5391 c0 -11 19 -26 44 -35 15 -5 13 0 -8 19 -29 27 -36 30 -36
16z"/>
<path d="M5605 5373 c-281 -33 -431 -78 -890 -268 -240 -100 -437 -167 -565
-194 -52 -11 -83 -20 -68 -20 36 -1 231 50 343 89 50 18 200 77 335 133 500
205 756 268 1035 254 70 -4 85 -3 50 3 -50 8 -184 10 -240 3z"/>
<path d="M8100 5366 c0 -8 7 -17 16 -20 13 -5 14 -4 6 7 -7 8 -9 17 -5 20 3 4
1 7 -5 7 -7 0 -12 -6 -12 -14z"/>
<path d="M5210 5345 c-120 -37 -257 -89 -494 -186 -254 -105 -415 -161 -560
-194 -55 -13 -92 -24 -81 -24 33 -1 213 45 325 84 58 20 215 82 350 137 135
55 317 125 405 154 159 53 198 74 55 29z"/>
<path d="M6149 5357 c-9 -7 -19 -24 -23 -40 -5 -22 -24 -36 -104 -76 -68 -34
-103 -47 -113 -40 -31 19 -101 5 -121 -25 -4 -6 -8 -21 -8 -32 0 -27 -68 -57
-105 -48 -16 4 -25 2 -25 -6 0 -6 5 -8 10 -5 6 3 10 -4 10 -17 0 -13 3 -18 8
-12 7 11 85 54 97 54 3 0 5 -19 5 -42 0 -32 3 -39 10 -28 5 8 10 34 10 58 l0
42 26 -16 c21 -15 31 -15 58 -6 18 7 35 12 39 12 12 0 8 -135 -5 -148 -13 -13
-75 -16 -102 -6 -9 3 -16 12 -16 19 0 22 -13 24 -40 8 l-25 -14 24 5 c16 3 29
-2 40 -16 31 -37 141 -20 141 22 0 28 13 32 27 8 l12 -23 1 22 c0 12 -7 26
-15 30 -9 6 -16 32 -20 80 l-6 72 91 46 90 45 0 -58 c0 -36 6 -66 16 -80 15
-22 44 -30 44 -12 0 5 -6 7 -14 4 -8 -3 -17 0 -21 7 -8 12 -9 138 -2 146 3 2
17 1 32 -3 26 -7 26 -7 23 -90 -2 -46 1 -84 5 -84 4 0 23 7 42 14 24 10 35 21
35 36 0 11 7 23 16 27 13 5 13 7 2 14 -15 10 -15 10 -17 87 -1 53 -4 60 -26
70 -33 15 -86 15 -106 -1z m102 -7 c30 -17 22 -38 -18 -50 -63 -19 -116 13
-81 48 15 15 72 16 99 2z m19 -129 c0 -63 -3 -80 -16 -85 -39 -15 -44 -8 -44
67 0 65 2 73 23 83 12 7 25 12 30 13 4 0 7 -35 7 -78z m-359 -31 c33 -18 23
-46 -21 -59 -34 -10 -43 -10 -56 4 -8 8 -20 15 -25 15 -16 0 -10 29 9 39 22
13 68 14 93 1z"/>
<path d="M7585 5340 c-27 -7 -28 -8 -5 -8 14 0 34 3 45 8 25 11 2 11 -40 0z"/>
<path d="M8100 5332 c0 -5 19 -19 43 -32 49 -27 47 -22 -6 14 -20 14 -37 22
-37 18z"/>
<path d="M8330 5310 c-30 -16 -50 -29 -45 -29 6 0 35 13 65 29 30 16 51 29 45
29 -5 0 -35 -13 -65 -29z"/>
<path d="M8020 5313 c8 -3 27 -12 43 -20 15 -7 27 -11 27 -9 0 8 -58 36 -72
35 -9 0 -8 -2 2 -6z"/>
<path d="M7940 5285 c-25 -13 -40 -24 -35 -24 6 0 30 11 55 24 25 13 41 24 35
24 -5 0 -30 -11 -55 -24z"/>
<path d="M8205 5295 c11 -9 29 -21 40 -26 l20 -10 -20 16 c-11 9 -29 21 -40
26 l-20 10 20 -16z"/>
<path d="M6945 5271 c-54 -24 -72 -46 -54 -67 13 -16 62 -44 76 -44 4 0 -10
11 -32 23 -22 12 -40 29 -40 37 0 18 92 63 117 57 10 -3 16 -1 12 4 -8 14 -35
10 -79 -10z"/>
<path d="M8190 5276 c0 -3 14 -12 30 -21 17 -9 30 -13 30 -11 0 3 -13 12 -30
21 -16 9 -30 13 -30 11z"/>
<path d="M7050 5258 c6 -7 6 -16 -1 -25 -8 -9 -8 -13 -1 -13 20 0 25 22 8 36
-9 8 -12 9 -6 2z"/>
<path d="M7847 5244 c-46 -25 -32 -51 56 -102 l78 -46 100 49 c54 27 99 54 99
60 0 6 -6 20 -14 31 -14 19 -14 19 -13 -1 1 -11 6 -23 11 -27 5 -3 -33 -27
-85 -53 l-94 -48 -63 34 c-64 34 -106 69 -83 69 7 0 10 4 6 10 -3 5 7 16 22
24 15 8 24 15 18 15 -5 0 -23 -7 -38 -15z"/>
<path d="M6565 5210 c-44 -21 -77 -39 -73 -39 3 -1 35 12 70 29 78 37 93 37
149 2 62 -40 78 -47 49 -23 -14 11 -45 31 -70 45 l-45 25 -80 -39z"/>
<path d="M6940 5201 c31 -25 28 -25 65 -1 34 22 23 27 -14 6 -21 -12 -29 -12
-50 1 l-26 15 25 -21z"/>
<path d="M6423 5103 c-123 -59 -221 -108 -219 -110 2 -2 98 41 213 96 116 56
218 101 228 101 16 0 209 -114 280 -165 44 -32 59 -40 51 -27 -6 11 -195 132
-286 185 l-45 26 -222 -106z"/>
<path d="M7025 5189 c-16 -10 -27 -19 -24 -19 11 0 79 30 79 35 0 10 -26 3
-55 -16z"/>
<path d="M7865 5200 c3 -5 30 -23 60 -40 l54 -31 38 20 c21 11 34 20 30 21 -4
0 -22 -7 -38 -16 -30 -15 -32 -14 -90 20 -33 20 -57 32 -54 26z"/>
<path d="M7081 5180 c-57 -21 -67 -27 -59 -35 3 -3 31 7 63 21 50 23 61 25 79
14 19 -12 20 -12 7 3 -17 21 -23 21 -90 -3z"/>
<path d="M7780 5160 c30 -17 65 -36 78 -42 30 -15 28 -23 -8 -38 -17 -7 -33
-17 -36 -22 -3 -5 12 0 35 11 41 21 53 17 29 -8 -11 -11 -10 -13 2 -9 8 3 15
15 15 29 0 18 -15 33 -70 66 -38 24 -76 43 -85 43 -8 0 10 -14 40 -30z"/>
<path d="M7300 5176 c0 -8 221 -158 226 -154 2 3 -48 39 -111 81 -63 43 -115
75 -115 73z"/>
<path d="M7666 5159 c-21 -11 -47 -22 -57 -24 -10 -2 -33 -18 -51 -35 -38 -36
-41 -33 74 -101 l66 -40 81 41 c45 22 81 42 81 45 0 3 -31 -11 -70 -30 -38
-19 -77 -35 -87 -35 -19 0 -148 74 -159 92 -5 7 -2 9 9 5 10 -4 14 -2 11 6 -3
8 29 29 78 54 46 23 79 42 73 42 -5 0 -27 -9 -49 -20z"/>
<path d="M6345 5106 c-71 -36 -127 -65 -124 -65 9 -1 259 119 259 124 0 8 2 8
-135 -59z"/>
<path d="M6805 5145 c11 -9 29 -21 40 -26 l20 -10 -20 16 c-11 9 -29 21 -40
26 l-20 10 20 -16z"/>
<path d="M6089 5129 c-11 -7 -9 -10 9 -15 12 -4 22 -10 22 -15 0 -5 11 -9 25
-9 14 0 28 -7 31 -15 4 -9 11 -12 18 -7 6 4 37 16 69 27 35 11 57 24 57 33 0
13 -2 13 -17 0 -49 -43 -144 -47 -182 -9 -12 12 -23 16 -32 10z"/>
<path d="M7133 5128 c-13 -6 -23 -17 -23 -25 0 -18 -19 -16 -60 7 l-35 21 30
-26 c37 -31 67 -31 125 1 25 14 34 22 20 18 -14 -3 -29 -10 -34 -15 -13 -11
-26 -12 -26 -1 0 5 10 14 23 20 12 6 18 11 12 11 -5 0 -20 -5 -32 -11z"/>
<path d="M6870 5106 c0 -2 26 -21 58 -40 31 -20 68 -44 81 -54 l24 -19 -97
-46 c-96 -46 -134 -73 -53 -38 126 55 157 71 157 81 0 11 -56 53 -128 96 -23
14 -42 23 -42 20z"/>
<path d="M7227 5102 c-3 -4 9 -7 26 -7 29 0 32 -3 31 -28 -1 -26 0 -27 14 -13
14 14 14 17 -3 36 -18 20 -59 27 -68 12z"/>
<path d="M7825 4954 c-170 -85 -303 -152 -295 -150 22 6 581 277 605 293 52
35 -25 0 -310 -143z"/>
<path d="M7164 5076 c-14 -11 -16 -18 -8 -26 8 -8 14 -9 18 -1 4 6 1 11 -6 11
-10 0 -9 3 2 9 8 6 18 7 24 4 5 -3 6 -1 2 5 -9 15 -8 15 -32 -2z"/>
<path d="M5625 5050 c-11 -5 -45 -7 -75 -5 -43 2 -47 1 -16 -4 49 -8 70 -36
42 -57 -11 -8 -27 -14 -35 -14 -14 0 -16 -12 -13 -79 4 -79 4 -80 -19 -79 -13
1 -32 8 -41 16 -10 8 -18 10 -18 5 0 -6 16 -18 36 -28 32 -15 40 -15 72 -3 34
13 38 18 45 63 4 28 5 76 3 107 l-5 58 32 8 c17 4 27 11 22 14 -6 3 -19 2 -30
-2z m-35 -154 c0 -73 -6 -86 -41 -86 -14 0 -11 147 4 153 33 14 37 7 37 -67z"/>
<path d="M3083 5043 c9 -2 25 -2 35 0 9 3 1 5 -18 5 -19 0 -27 -2 -17 -5z"/>
<path d="M7245 5041 c3 -5 -4 -13 -16 -16 -11 -4 -18 -9 -16 -12 3 -2 17 2 32
10 23 12 25 15 11 20 -9 4 -14 3 -11 -2z"/>
<path d="M3165 5030 c17 -4 39 -8 50 -8 16 0 15 2 -5 8 -14 4 -36 8 -50 8 -22
0 -22 -1 5 -8z"/>
<path d="M5456 5024 c-9 -8 -16 -23 -16 -33 0 -9 -5 -22 -12 -29 -9 -9 -9 -12
0 -12 16 0 15 -36 -2 -93 -12 -41 -12 -47 3 -61 10 -9 32 -21 49 -27 18 -6 32
-18 32 -27 0 -14 1 -14 13 0 6 9 29 21 50 28 21 7 36 14 34 16 -2 3 -16 0 -31
-6 -60 -23 -146 5 -146 47 0 13 4 23 9 23 12 0 21 42 22 110 1 30 6 61 12 68
14 17 1 15 -17 -4z"/>
<path d="M2959 4991 c-22 -21 -39 -45 -39 -52 0 -8 9 1 20 19 11 18 34 41 52
52 18 11 27 20 19 20 -7 0 -31 -17 -52 -39z"/>
<path d="M6025 4956 c-82 -41 -147 -75 -144 -75 3 -1 75 33 160 73 85 41 150
75 144 75 -5 1 -77 -33 -160 -73z"/>
<path d="M7664 5015 c24 -19 44 -19 76 0 30 17 21 20 -15 3 -19 -8 -32 -8 -52
1 -26 10 -27 10 -9 -4z"/>
<path d="M3133 4983 c9 -2 25 -2 35 0 9 3 1 5 -18 5 -19 0 -27 -2 -17 -5z"/>
<path d="M3415 4974 c28 -7 59 -13 70 -13 11 0 -5 7 -35 14 -72 18 -100 17
-35 -1z"/>
<path d="M6025 4915 c-82 -40 -145 -73 -140 -74 6 0 78 33 160 74 83 40 146
73 140 73 -5 0 -77 -33 -160 -73z"/>
<path d="M5492 4960 c14 -22 24 -19 15 5 -4 8 -11 15 -17 15 -6 0 -6 -7 2 -20z"/>
<path d="M5758 4968 c-3 -7 6 -18 20 -25 30 -16 55 -17 27 -1 -11 6 -25 17
-31 25 -10 11 -13 11 -16 1z"/>
<path d="M5949 4958 c-15 -11 -47 -23 -72 -25 -36 -4 -43 -8 -34 -18 7 -7 14
-10 17 -6 3 4 31 14 62 24 56 17 76 31 61 40 -5 3 -20 -4 -34 -15z"/>
<path d="M3335 4940 c39 -11 88 -21 110 -24 22 -3 -3 6 -55 19 -52 13 -102 24
-110 24 -8 -1 17 -9 55 -19z"/>
<path d="M5368 4934 c-39 -21 -35 -28 5 -8 37 19 44 24 31 24 -5 -1 -21 -8
-36 -16z"/>
<path d="M3623 4933 c9 -2 25 -2 35 0 9 3 1 5 -18 5 -19 0 -27 -2 -17 -5z"/>
<path d="M3830 4930 l-155 -6 145 -1 c80 -1 165 2 190 6 53 10 56 10 -180 1z"/>
<path d="M6946 4917 c-30 -22 -16 -52 25 -55 48 -4 71 21 43 46 -10 9 -13 11
-7 3 18 -20 -2 -41 -38 -41 -39 0 -40 34 -1 48 15 6 20 11 11 11 -8 1 -23 -5
-33 -12z"/>
<path d="M3515 4900 c17 -4 44 -8 60 -8 25 0 24 2 -10 9 -51 10 -92 10 -50 -1z"/>
<path d="M5280 4890 c-26 -14 -48 -18 -85 -15 -41 4 -44 3 -15 -3 47 -11 60
-19 60 -42 0 -12 -12 -22 -34 -30 -60 -19 -127 31 -78 59 9 6 12 11 7 11 -17
0 -35 -22 -35 -42 0 -12 -27 -31 -90 -63 -49 -25 -90 -47 -90 -50 0 -3 36 13
80 35 44 22 82 40 85 40 3 0 5 -21 5 -46 0 -27 -4 -43 -10 -39 -5 3 -10 1 -10
-4 0 -6 6 -11 14 -11 8 0 17 -11 20 -25 5 -18 17 -27 46 -35 54 -15 90 -4 104
31 14 39 26 36 26 -5 0 -22 6 -36 16 -40 26 -10 30 -6 9 10 -16 12 -17 16 -6
23 10 6 10 10 1 16 -6 4 -9 13 -6 20 2 7 -4 15 -15 18 -16 4 -19 14 -19 64 0
32 -3 68 -6 80 -4 16 0 23 18 28 26 9 67 35 53 35 -6 -1 -26 -9 -45 -20z
m-139 -100 c16 -9 19 -22 19 -80 0 -71 -10 -86 -38 -58 -12 12 -18 148 -6 148
3 0 14 -5 25 -10z m108 -72 c1 -35 -4 -53 -19 -68 -23 -23 -40 -26 -40 -7 0 8
-4 7 -10 -3 -7 -10 -9 10 -8 65 l1 80 7 -65 7 -65 1 63 c2 55 5 64 25 71 27
11 35 -5 36 -71z"/>
<path d="M7110 4895 c-14 -8 -20 -14 -15 -14 6 0 21 6 35 14 14 8 21 14 15 14
-5 0 -21 -6 -35 -14z"/>
<path d="M7228 4869 c42 -27 62 -45 58 -55 -3 -8 -1 -14 4 -14 28 0 1 -20 -80
-60 -80 -39 -92 -42 -117 -32 -26 11 -27 11 -9 -3 28 -22 37 -20 136 30 116
58 119 75 25 134 -35 23 -68 41 -72 41 -5 0 20 -19 55 -41z"/>
<path d="M5502 4870 c0 -19 2 -27 5 -17 2 9 2 25 0 35 -3 9 -5 1 -5 -18z"/>
<path d="M3623 4883 c9 -2 25 -2 35 0 9 3 1 5 -18 5 -19 0 -27 -2 -17 -5z"/>
<path d="M3998 4883 c12 -2 30 -2 40 0 9 3 -1 5 -23 4 -22 0 -30 -2 -17 -4z"/>
<path d="M6502 4738 c-172 -83 -311 -153 -309 -155 2 -2 102 44 223 102 301
144 421 204 409 204 -5 0 -151 -68 -323 -151z"/>
<path d="M3752 4873 c37 -2 100 -2 140 0 40 1 10 3 -67 3 -77 0 -110 -1 -73
-3z"/>
<path d="M7025 4856 c-27 -12 -56 -30 -64 -40 -12 -15 -12 -19 4 -34 18 -16
18 -16 6 0 -18 24 -7 37 55 64 30 13 54 26 54 29 0 6 3 8 -55 -19z"/>
<path d="M5702 4802 c-87 -44 -132 -72 -130 -81 4 -18 363 -251 386 -250 17 0
213 98 199 98 -4 1 -48 -19 -97 -44 -49 -25 -96 -45 -103 -45 -22 0 -342 211
-341 225 1 7 -6 11 -17 8 -11 -3 -19 0 -19 6 0 6 62 42 138 80 75 39 133 70
127 70 -5 0 -70 -30 -143 -67z"/>
<path d="M5626 4828 c-9 -34 -8 -38 11 -38 13 0 14 3 5 12 -7 7 -8 17 -1 30 6
10 6 18 1 18 -6 0 -12 -10 -16 -22z"/>
<path d="M5770 4795 c-47 -24 -80 -44 -75 -44 6 0 48 20 95 44 47 24 81 44 75
44 -5 0 -48 -20 -95 -44z"/>
<path d="M5270 4816 c0 -7 691 -448 696 -444 2 3 -105 74 -239 158 -133 85
-288 185 -344 222 -97 64 -113 74 -113 64z"/>
<path d="M6670 4785 c-26 -31 9 -62 55 -51 31 8 43 33 25 49 -10 10 -12 8 -7
-6 8 -21 -32 -43 -58 -33 -26 10 -13 40 20 47 29 6 29 7 4 8 -15 0 -32 -6 -39
-14z"/>
<path d="M6881 4786 c10 -9 69 -36 69 -32 0 6 -55 36 -66 36 -4 0 -5 -2 -3 -4z"/>
<path d="M6772 4737 c-71 -36 -82 -45 -80 -65 2 -14 17 -31 38 -44 l35 -20
-25 21 c-14 11 -28 21 -32 21 -5 0 -8 7 -8 15 0 10 22 1 69 -30 38 -25 75 -45
83 -45 15 1 147 69 135 70 -4 0 -34 -13 -67 -30 -33 -16 -64 -30 -70 -30 -14
0 -140 80 -140 89 0 3 37 25 83 48 45 23 78 42 72 42 -5 0 -47 -19 -93 -42z"/>
<path d="M7005 4755 c11 -9 29 -21 40 -26 l20 -10 -20 16 c-11 9 -29 21 -40
26 l-20 10 20 -16z"/>
<path d="M7021 4704 c10 -10 19 -28 22 -39 4 -16 5 -16 6 5 1 16 -7 30 -21 39
-22 13 -22 13 -7 -5z"/>
<path d="M4793 4700 c-12 -5 -25 -19 -29 -32 -4 -17 -32 -35 -111 -73 -87 -41
-114 -49 -150 -47 -39 4 -47 0 -77 -31 -18 -19 -64 -51 -101 -70 -56 -28 -64
-35 -47 -39 14 -4 20 -2 15 5 -4 6 1 8 15 5 14 -4 19 -2 16 7 -4 10 59 45 81
45 3 0 5 -20 5 -45 0 -25 -4 -45 -10 -45 -5 0 -10 -7 -10 -15 0 -9 6 -12 15
-9 11 5 15 -1 15 -19 0 -14 7 -28 16 -31 24 -9 31 -7 13 4 -21 12 -32 71 -24
121 7 41 16 48 37 25 11 -11 19 -11 52 0 21 8 43 14 48 14 5 0 8 -33 6 -72 -3
-66 -5 -74 -28 -85 l-25 -12 -6 67 -5 67 -2 -67 c-2 -66 -16 -92 -25 -45 -3
18 -5 17 -6 -7 -1 -28 0 -28 35 -23 42 7 74 32 74 59 0 10 5 18 10 18 6 0 10
-14 10 -32 0 -17 3 -28 7 -24 14 13 9 46 -9 63 -13 12 -18 31 -18 74 0 32 -4
61 -10 64 -21 13 -7 26 68 64 121 60 122 60 122 10 0 -28 -6 -46 -17 -55 -17
-13 -17 -13 0 -14 9 0 17 -6 17 -13 0 -18 29 -43 58 -50 21 -5 22 -3 22 79 l0
85 -35 15 c-41 17 -43 27 -13 48 27 19 58 20 93 4 33 -15 32 -34 -5 -53 -37
-19 -39 -28 -4 -15 14 6 27 10 30 10 2 0 4 -33 4 -74 0 -66 -2 -75 -20 -81
-11 -3 -24 -3 -30 0 -5 3 -10 0 -10 -8 0 -11 7 -13 23 -10 34 9 47 23 47 50 0
19 4 24 15 19 14 -5 14 -4 0 16 -9 14 -15 44 -15 80 0 31 -5 60 -10 63 -6 4
-8 9 -6 13 6 11 -86 12 -111 2z m18 -80 c16 -9 19 -22 19 -80 0 -72 -5 -79
-41 -60 -16 9 -19 22 -19 80 0 72 5 79 41 60z m-277 -86 c9 -4 21 -15 27 -25
8 -16 4 -21 -27 -34 -64 -26 -140 15 -91 50 22 16 63 20 91 9z"/>
<path d="M5069 4665 c-18 -17 7 -46 52 -62 27 -10 49 -22 49 -27 0 -4 6 -4 13
2 6 5 27 13 44 17 18 3 36 11 40 17 4 8 0 9 -13 4 -68 -28 -169 -7 -176 36 -2
11 -6 17 -9 13z"/>
<path d="M4960 4656 c0 -2 105 -71 233 -152 200 -127 334 -212 424 -271 13 -8
23 -13 23 -10 0 6 -122 87 -410 269 -280 177 -270 171 -270 164z"/>
<path d="M6400 4645 c-19 -23 6 -47 43 -43 34 3 58 31 41 48 -8 8 -10 4 -10
-12 1 -18 -5 -24 -28 -26 -32 -4 -51 15 -34 35 6 7 8 13 5 13 -2 0 -10 -7 -17
-15z"/>
<path d="M6540 4620 c-41 -21 -72 -39 -67 -40 4 0 39 16 78 35 l70 36 70 -37
c70 -37 96 -64 83 -87 -5 -9 -3 -9 7 1 10 9 11 17 3 30 -11 18 -142 102 -159
101 -5 0 -44 -18 -85 -39z"/>
<path d="M6950 4610 c-87 -45 -100 -47 -149 -19 l-36 21 25 -21 c45 -38 66
-37 152 5 44 21 82 42 85 46 6 11 6 11 -77 -32z"/>
<path d="M4853 4555 c0 -22 2 -30 4 -17 2 12 2 30 0 40 -3 9 -5 -1 -4 -23z"/>
<path d="M5462 4549 c-45 -21 -86 -47 -89 -56 -8 -20 51 -73 81 -73 12 0 3 9
-25 23 -24 13 -44 30 -44 38 0 8 38 34 84 58 83 43 84 43 117 27 19 -8 34 -19
34 -24 0 -5 -22 -19 -50 -32 -27 -13 -48 -25 -46 -27 7 -7 106 47 106 56 0 13
-55 51 -72 50 -7 0 -50 -18 -96 -40z"/>
<path d="M6429 4564 c-16 -20 -5 -39 41 -65 34 -20 17 -3 -25 25 -11 8 -17 17
-13 21 4 4 16 2 25 -6 17 -13 17 -12 0 8 -14 16 -15 22 -5 26 7 3 8 6 2 6 -6
1 -17 -6 -25 -15z"/>
<path d="M5480 4525 c-16 -9 -19 -14 -9 -15 8 0 24 7 35 15 24 18 7 19 -26 0z"/>
<path d="M6203 4529 c24 -14 21 -27 -8 -41 -19 -8 -28 -8 -40 2 -10 8 -15 9
-15 1 0 -16 45 -24 69 -11 12 6 21 16 21 23 0 16 -20 37 -34 37 -6 0 -3 -5 7
-11z"/>
<path d="M6700 4525 c-14 -8 -20 -14 -15 -14 6 0 21 6 35 14 14 8 21 14 15 14
-5 0 -21 -6 -35 -14z"/>
<path d="M6340 4519 c-13 -9 -12 -10 3 -5 19 6 52 -8 120 -51 32 -20 36 -27
26 -39 -10 -12 -9 -13 5 -8 9 3 16 1 16 -5 0 -16 -180 -103 -201 -98 -11 3
-17 1 -13 -4 3 -5 12 -9 20 -9 24 0 194 90 201 106 8 21 -22 50 -93 90 -69 39
-64 37 -84 23z"/>
<path d="M5575 4484 c-33 -18 -56 -34 -52 -34 13 0 105 49 112 60 8 12 11 14
-60 -26z"/>
<path d="M6674 4478 l-82 -39 -41 20 c-23 12 -41 19 -41 16 0 -2 18 -14 41
-26 l41 -20 84 40 c46 22 84 43 84 46 0 6 8 10 -86 -37z"/>
<path d="M4730 4510 c-7 -19 -7 -60 0 -60 5 0 17 -3 27 -7 17 -6 17 -5 2 13
-10 10 -19 28 -22 39 -2 11 -6 18 -7 15z"/>
<path d="M4943 4479 c-12 -32 -46 -49 -98 -49 -28 0 -33 -3 -28 -17 4 -11 8
-12 11 -5 2 7 16 12 30 12 15 0 40 7 57 16 17 8 40 13 55 9 l25 -6 -23 18
c-16 14 -20 21 -11 30 6 6 7 13 2 16 -5 3 -14 -7 -20 -24z"/>
<path d="M6223 4467 c-65 -32 -73 -41 -49 -50 9 -4 13 -1 10 6 -3 8 21 25 58
44 35 18 59 32 53 32 -5 0 -38 -14 -72 -32z"/>
<path d="M5694 4475 c-21 -16 -8 -20 15 -6 20 13 74 -16 67 -35 -3 -8 1 -14 9
-14 23 0 18 16 -16 44 -35 30 -48 32 -75 11z"/>
<path d="M5424 4466 c24 -19 34 -19 66 -1 30 17 21 20 -13 4 -18 -8 -31 -8
-48 1 -23 11 -23 10 -5 -4z"/>
<path d="M5631 4446 c-23 -13 -22 -13 15 -11 50 3 52 3 34 15 -19 12 -20 12
-49 -4z"/>
<path d="M5020 4417 c0 -7 23 -26 50 -42 34 -20 50 -36 50 -50 0 -34 27 -62
100 -106 58 -34 76 -40 103 -35 29 5 43 -1 107 -45 43 -29 76 -46 78 -40 5 15
156 91 180 91 28 0 143 -72 138 -87 -3 -7 -1 -13 4 -13 18 0 10 -19 -11 -25
-11 -4 -18 -9 -16 -12 10 -10 47 18 47 36 0 22 -17 37 -96 85 l-62 37 -94 -44
-94 -44 -35 25 -34 24 30 -26 c43 -37 19 -32 -43 9 -52 36 -67 53 -35 41 10
-4 14 -4 10 0 -4 4 0 15 9 25 9 10 14 29 11 46 -4 27 -4 27 -6 -5 -1 -29 -6
-35 -47 -52 -25 -11 -50 -20 -55 -20 -5 0 -10 19 -11 43 -1 36 -2 38 -5 10 -2
-18 -6 -33 -8 -33 -2 0 -20 9 -39 21 -20 12 -36 17 -36 13 0 -4 -7 1 -15 12
-8 10 -15 15 -15 11 0 -19 -50 53 -50 72 0 20 5 18 60 -20 33 -24 62 -40 65
-37 3 3 -22 22 -55 42 -33 21 -60 41 -60 46 0 4 20 16 45 26 45 17 45 17 87
-10 l43 -27 -30 26 c-50 44 -57 45 -110 22 -28 -11 -53 -26 -57 -32 -9 -12
-84 29 -80 44 1 6 -2 11 -8 11 -5 0 -10 -6 -10 -13z"/>
<path d="M5547 4403 c-13 -13 -7 -23 26 -38 l32 -16 -28 21 c-15 12 -25 26
-21 31 6 10 0 12 -9 2z"/>
<path d="M5760 4390 c-19 -11 -31 -19 -27 -20 11 0 67 29 67 35 0 7 -1 7 -40
-15z"/>
<path d="M6165 4391 c22 -20 115 -76 115 -68 0 2 -25 20 -55 38 -30 18 -55 37
-55 41 0 4 -5 8 -12 8 -7 0 -4 -8 7 -19z"/>
<path d="M6376 4369 c-33 -17 -65 -28 -75 -24 -13 5 -14 4 -3 -7 10 -10 26 -5
85 24 39 20 68 37 62 37 -5 0 -36 -14 -69 -30z"/>
<path d="M4113 4380 c-12 -5 -28 -18 -35 -30 -7 -11 -19 -20 -26 -20 -11 0
-169 -75 -181 -86 -6 -6 1 -11 29 -19 24 -7 24 -7 5 9 -23 18 -5 22 26 6 13
-7 19 -7 19 0 0 5 -4 10 -10 10 -21 0 -9 16 22 28 25 9 35 9 46 -1 13 -10 14
-8 8 9 -5 17 -2 23 16 28 32 8 38 8 38 -4 0 -5 -7 -10 -15 -10 -8 0 -15 -4
-15 -10 0 -5 7 -7 15 -4 12 5 15 -2 15 -28 0 -19 -5 -39 -12 -46 -8 -8 -8 -12
-1 -12 6 0 14 -11 17 -24 3 -13 14 -27 23 -30 15 -6 16 -5 6 5 -8 8 -13 41
-13 87 0 71 1 73 23 66 12 -4 25 -12 29 -18 5 -8 8 -7 8 2 0 7 -14 18 -31 24
-23 8 -29 16 -27 32 4 29 64 44 103 25 42 -20 41 -36 -1 -54 -20 -8 -35 -18
-31 -21 3 -3 14 -1 25 5 37 20 42 13 42 -52 0 -72 -14 -98 -53 -102 -27 -3
-27 -3 -29 63 l-2 67 -5 -70 c-5 -63 -4 -70 12 -73 35 -7 78 19 84 49 8 40 23
36 23 -6 0 -30 -5 -37 -37 -54 -21 -11 -31 -20 -23 -21 9 0 25 7 37 15 12 8
27 13 35 12 7 -2 10 -2 6 0 -12 7 -9 31 5 36 10 4 10 6 0 6 -7 1 -13 10 -13
21 0 11 -7 23 -15 26 -11 5 -15 22 -15 68 0 33 -4 66 -8 72 -20 30 -75 41
-119 24z"/>
<path d="M4705 4370 c7 -11 65 -43 65 -36 0 2 -16 13 -36 25 -19 12 -32 16
-29 11z"/>
<path d="M5530 4365 c0 -7 80 -58 84 -54 2 2 -16 16 -40 31 -24 15 -44 25 -44
23z"/>
<path d="M5285 4330 c-52 -24 -44 -24 30 0 34 11 49 19 35 19 -14 0 -43 -9
-65 -19z"/>
<path d="M4817 4329 c-9 -5 -22 -7 -29 -3 -7 5 -8 3 -3 -6 9 -14 8 -112 -1
-143 -3 -9 -9 -15 -14 -12 -4 3 -10 -8 -13 -23 -3 -15 -1 -30 5 -33 6 -4 7
-12 4 -18 -4 -6 -1 -11 8 -11 8 0 19 -8 25 -17 8 -15 12 -16 22 -5 10 9 10 12
1 12 -19 0 -52 38 -52 60 0 11 5 20 10 20 6 0 10 -6 10 -14 0 -40 104 -62 145
-32 17 12 20 27 20 95 0 45 4 81 8 81 5 0 88 -50 185 -111 97 -61 168 -102
157 -91 -11 10 -92 63 -180 117 -88 55 -173 109 -188 122 -31 25 -88 30 -120
12z m104 -9 c28 -16 23 -40 -11 -51 -16 -6 -30 -15 -30 -20 0 -5 14 -3 30 6
l30 16 0 -74 c0 -72 -10 -97 -37 -97 -9 0 -14 17 -15 53 l-1 52 -7 -55 c-6
-53 -7 -52 -8 28 -1 45 -5 82 -9 82 -5 0 -7 -36 -5 -80 4 -85 -3 -96 -40 -63
-13 12 -18 31 -18 75 0 51 3 60 23 68 17 7 18 9 5 9 -21 1 -24 31 -6 49 15 15
72 16 99 2z"/>
<path d="M5376 4323 c-4 -10 -2 -14 8 -10 8 3 17 1 20 -6 2 -7 5 -5 5 4 1 22
-26 32 -33 12z"/>
<path d="M4388 4313 c-5 -18 0 -25 27 -37 18 -9 41 -16 50 -16 12 0 15 -6 10
-22 l-6 -23 17 23 c9 12 25 22 36 22 23 0 91 30 84 37 -2 3 -15 -1 -27 -8 -45
-24 -89 -28 -134 -12 -31 10 -45 21 -47 36 l-3 22 -7 -22z"/>
<path d="M2518 4313 c29 -2 74 -2 100 0 26 2 2 3 -53 3 -55 0 -76 -1 -47 -3z"/>
<path d="M2315 4294 c-58 -13 -59 -13 -10 -7 28 3 75 9 105 13 55 7 55 7 10 8
-25 0 -72 -6 -105 -14z"/>
<path d="M2688 4303 c12 -2 32 -2 45 0 12 2 2 4 -23 4 -25 0 -35 -2 -22 -4z"/>
<path d="M5945 4302 c78 -21 98 -59 48 -86 -16 -8 -24 -15 -20 -16 5 0 17 5
29 11 34 18 32 1 -3 -20 -19 -12 -29 -21 -23 -21 22 0 64 42 64 64 0 32 -41
66 -86 71 -34 4 -35 4 -9 -3z"/>
<path d="M5865 4280 c-26 -29 -27 -65 -2 -87 l22 -18 -20 24 c-19 24 -20 24
-1 17 19 -6 19 -6 4 11 -20 21 -8 49 25 63 15 6 17 9 6 9 -9 1 -24 -8 -34 -19z"/>
<path d="M2195 4270 c-25 -11 1 -11 35 0 20 6 21 8 5 8 -11 0 -29 -3 -40 -8z"/>
<path d="M1962 4199 c-101 -33 -182 -62 -180 -64 2 -2 91 25 198 60 107 35
188 64 180 64 -8 0 -97 -27 -198 -60z"/>
<path d="M2370 4251 c-19 -4 44 -5 140 -3 96 2 180 5 185 7 19 6 -290 2 -325
-4z"/>
<path d="M2770 4235 c36 -8 72 -14 80 -13 27 1 -84 26 -115 26 -16 0 -1 -6 35
-13z"/>
<path d="M2235 4225 c-5 -2 -47 -14 -93 -26 -46 -12 -81 -23 -79 -25 2 -2 53
9 113 25 60 16 100 29 89 29 -11 0 -24 -1 -30 -3z"/>
<path d="M3752 4214 c-12 -8 -22 -23 -23 -32 0 -12 -41 -37 -130 -80 -89 -42
-128 -66 -123 -74 6 -9 9 -9 12 0 3 11 211 122 227 122 9 0 5 -86 -4 -95 -24
-25 -11 -95 18 -95 14 1 14 2 -1 11 -19 11 -25 69 -8 69 6 0 10 -9 10 -19 0
-26 37 -51 75 -51 l30 0 -3 77 c-3 65 -1 79 14 90 30 22 34 15 34 -62 0 -60
-3 -76 -17 -84 -10 -6 -13 -11 -7 -11 15 0 34 22 34 41 0 10 5 21 11 24 7 5 9
-6 7 -31 -3 -33 -8 -41 -38 -56 -19 -9 -29 -17 -22 -18 7 0 26 7 43 15 16 9
35 13 42 8 7 -4 5 2 -3 12 -12 14 -12 19 -2 23 10 3 10 7 1 18 -7 8 -9 17 -6
21 4 3 0 11 -8 17 -10 7 -17 35 -21 76 -4 48 -11 70 -26 83 -25 21 -86 22
-116 1z m114 -15 c19 -21 18 -21 -5 -40 -26 -21 -69 -20 -99 2 -9 8 -19 15
-21 16 -2 2 4 12 14 23 25 28 86 27 111 -1z m-106 -124 c0 -43 -4 -75 -10 -75
-6 0 -10 32 -10 75 0 43 4 75 10 75 6 0 10 -32 10 -75z m38 -18 c2 -64 0 -77
-13 -77 -12 0 -15 15 -15 81 0 60 3 80 13 77 8 -3 13 -31 15 -81z m19 -39 c-2
-24 -4 -7 -4 37 0 44 2 63 4 43 2 -21 2 -57 0 -80z"/>
<path d="M4476 4158 c-23 -19 -28 -34 -33 -88 -4 -40 -12 -69 -21 -76 -11 -8
-12 -13 -4 -18 7 -4 12 -2 12 4 0 6 5 8 10 5 6 -3 10 -15 10 -26 0 -12 10 -23
26 -29 32 -12 105 -13 86 -1 -8 4 -25 7 -40 5 -51 -5 -62 10 -62 86 0 63 2 70
19 70 11 0 23 -4 26 -10 7 -12 32 -9 62 8 12 7 24 12 27 12 10 0 6 -146 -4
-158 -5 -7 -2 -5 8 3 26 24 23 178 -4 206 -33 32 -85 35 -118 7z m113 -13 c15
-15 14 -18 -8 -36 -27 -22 -45 -24 -90 -8 -37 13 -40 32 -8 54 26 19 83 14
106 -10z"/>
<path d="M4975 4144 c9 -46 -19 -74 -82 -82 -42 -6 -48 -9 -37 -20 8 -7 14 -8
14 -2 0 5 10 10 23 10 12 0 35 7 52 16 16 8 39 13 50 10 19 -5 19 -5 1 9 -13
10 -16 18 -9 27 7 9 5 21 -4 38 l-14 25 6 -31z"/>
<path d="M1868 4112 c-75 -25 -135 -48 -133 -50 4 -5 285 88 285 94 0 7 -12 4
-152 -44z"/>
<path d="M4060 4120 c12 -12 24 -19 28 -17 4 3 17 1 29 -4 16 -6 21 -13 16
-26 -5 -16 -5 -17 8 -2 8 9 21 19 29 22 9 3 5 6 -10 6 -14 1 -45 10 -69 21
-54 25 -56 25 -31 0z"/>
<path d="M1695 4110 c-13 -5 -14 -9 -5 -9 8 0 24 4 35 9 13 5 14 9 5 9 -8 0
-24 -4 -35 -9z"/>
<path d="M5770 4075 c-14 -8 -20 -14 -15 -14 6 0 21 6 35 14 14 8 21 14 15 14
-5 0 -21 -6 -35 -14z"/>
<path d="M5490 4073 c0 -9 85 -63 132 -84 21 -9 34 -9 58 1 39 16 34 23 -6 8
-25 -9 -37 -7 -74 12 -25 12 -60 33 -77 47 -18 13 -33 20 -33 16z"/>
<path d="M5295 4022 c-124 -65 -124 -71 -2 -148 50 -31 62 -35 80 -25 22 11
22 11 -1 5 -29 -7 -173 83 -153 96 7 4 12 11 10 16 -2 9 157 94 176 94 6 0 39
-18 73 -40 54 -34 62 -43 52 -56 -11 -12 -10 -13 5 -7 15 5 17 3 12 -11 -4
-10 -3 -15 3 -11 17 10 11 33 -12 55 -30 28 -121 80 -139 80 -8 -1 -54 -22
-104 -48z"/>
<path d="M1420 4044 l-65 -13 56 5 c32 3 70 9 85 14 44 13 -1 10 -76 -6z"/>
<path d="M1675 4050 c-13 -5 -14 -9 -5 -9 8 0 24 4 35 9 13 5 14 9 5 9 -8 0
-24 -4 -35 -9z"/>
<path d="M5085 3985 c-71 -35 -127 -64 -123 -65 11 0 251 111 263 121 20 19
-15 5 -140 -56z"/>
<path d="M1535 4015 c-49 -13 -84 -23 -76 -24 18 -1 191 39 191 45 0 7 -20 3
-115 -21z"/>
<path d="M5614 4026 c11 -9 27 -16 35 -15 14 0 14 1 1 6 -8 3 -24 10 -35 15
-20 9 -20 9 -1 -6z"/>
<path d="M863 4023 c32 -2 81 -2 110 0 29 2 3 3 -58 3 -60 0 -84 -1 -52 -3z"/>
<path d="M1283 4023 c15 -2 37 -2 50 0 12 2 0 4 -28 4 -27 0 -38 -2 -22 -4z"/>
<path d="M738 4000 c-20 -11 -40 -25 -44 -32 -4 -6 8 -2 27 10 19 11 46 26 60
31 13 5 17 10 9 10 -8 0 -32 -9 -52 -19z"/>
<path d="M1093 4013 c26 -2 67 -2 90 0 23 2 2 3 -48 3 -49 0 -68 -1 -42 -3z"/>
<path d="M3500 4016 c0 -2 35 -29 78 -58 89 -63 102 -71 102 -65 0 3 -40 33
-90 66 -49 34 -90 60 -90 57z"/>
<path d="M4116 3987 c-19 -19 -23 -35 -25 -87 -1 -35 -7 -71 -14 -80 -7 -8
-12 -22 -11 -30 1 -8 2 -22 3 -30 1 -10 20 -21 49 -29 26 -8 53 -21 60 -29 11
-14 12 -14 12 1 0 10 8 17 19 17 10 0 36 8 57 18 35 15 39 21 37 52 -1 19 -8
39 -16 45 -8 6 -16 36 -20 75 -6 70 -28 101 -71 99 -15 0 -11 -4 14 -12 49
-17 51 -43 4 -63 -34 -14 -41 -14 -71 0 -40 19 -41 28 -7 55 15 12 21 21 15
21 -7 0 -22 -10 -35 -23z m50 -73 c23 -6 24 -10 24 -80 0 -61 -3 -72 -15 -68
-8 4 -15 1 -15 -5 0 -30 86 -2 102 34 15 34 28 32 28 -5 0 -25 -6 -32 -36 -45
-47 -19 -107 -19 -144 0 -23 12 -30 22 -30 45 0 35 17 40 23 8 2 -13 5 12 6
56 1 67 3 77 17 72 9 -3 27 -9 40 -12z m88 -6 c8 -32 7 -101 -2 -114 -4 -6
-17 -16 -29 -23 -23 -12 -23 -11 -23 68 0 81 1 82 41 90 4 0 9 -9 13 -21z"/>
<path d="M1393 3983 c9 -2 25 -2 35 0 9 3 1 5 -18 5 -19 0 -27 -2 -17 -5z"/>
<path d="M3308 3973 c-35 -37 -48 -45 -48 -29 0 10 -6 13 -15 10 -11 -5 -12
-10 -4 -26 7 -14 8 -23 1 -30 -12 -12 -35 -1 -27 12 3 4 -2 11 -11 14 -10 4
-13 2 -8 -6 5 -8 2 -9 -9 -5 -11 4 -17 1 -17 -8 0 -8 14 -17 35 -21 35 -6 35
-7 35 -58 0 -46 -3 -54 -35 -79 -94 -75 -45 -194 95 -226 51 -12 132 -13 170
-2 14 4 -14 7 -65 7 -103 -1 -151 13 -201 56 -29 26 -34 36 -34 74 0 34 6 51
25 69 38 39 60 31 30 -9 -23 -31 -18 -69 13 -98 30 -29 64 -48 83 -48 7 0 -7
10 -31 23 -44 21 -82 69 -67 83 4 4 16 -5 28 -20 31 -40 71 -56 138 -56 91 0
161 36 161 84 0 18 2 19 11 6 9 -12 10 -11 6 5 -3 11 -8 28 -12 38 -11 27 11
20 39 -14 43 -51 28 -117 -36 -158 -18 -11 -28 -21 -21 -21 7 0 30 17 53 38
33 32 40 46 40 77 0 31 -8 45 -45 83 -42 42 -45 48 -45 99 0 30 -5 63 -10 74
-18 32 -83 59 -149 60 -33 1 -58 6 -55 10 9 15 0 10 -18 -8z m181 -41 c37 -27
39 -64 4 -88 -41 -27 -162 -26 -200 3 -48 35 -40 71 22 100 41 19 140 10 174
-15z m-179 -204 c0 -103 -6 -114 -42 -81 -15 13 -18 32 -18 115 l0 99 30 -18
30 -17 0 -98z m222 45 c3 -87 -6 -128 -29 -137 -9 -4 -17 -5 -19 -4 -1 2 -4
46 -5 97 -2 81 1 96 16 108 11 7 22 13 26 13 5 0 9 -35 11 -77z m-64 -61 l-3
-97 -72 -3 -73 -3 0 99 c0 54 2 101 4 103 2 2 36 2 75 1 l72 -4 -3 -96z"/>
<path d="M4635 3969 c19 -78 -153 -107 -201 -34 -9 14 -21 25 -26 25 -6 0 -5
-7 2 -15 7 -9 10 -18 7 -22 -9 -8 40 -33 64 -33 10 0 20 -4 23 -9 7 -10 78 4
110 21 11 7 26 11 31 10 14 -3 11 56 -4 71 -10 9 -11 6 -6 -14z"/>
<path d="M863 3973 c26 -2 67 -2 90 0 23 2 2 3 -48 3 -49 0 -68 -1 -42 -3z"/>
<path d="M1150 3970 l-145 -6 135 -1 c74 -1 158 2 185 7 46 7 47 7 10 7 -22
-1 -105 -4 -185 -7z"/>
<path d="M5255 3935 c11 -9 29 -21 40 -26 l20 -10 -20 16 c-11 9 -29 21 -40
26 l-20 10 20 -16z"/>
<path d="M5070 3914 c-17 -10 -18 -13 -5 -8 48 16 66 15 114 -11 71 -39 89
-60 72 -87 -10 -17 -10 -19 1 -16 21 7 21 38 1 60 -25 28 -114 78 -138 78 -11
-1 -31 -8 -45 -16z"/>
<path d="M5460 3895 c-36 -19 -61 -34 -57 -35 10 0 127 59 127 65 0 7 2 8 -70
-30z"/>
<path d="M4818 3856 c-128 -62 -177 -91 -102 -60 60 25 234 114 234 119 0 6
14 13 -132 -59z"/>
<path d="M5410 3905 c-14 -8 -20 -14 -15 -14 6 0 21 6 35 14 14 8 21 14 15 14
-5 0 -21 -6 -35 -14z"/>
<path d="M3136 3885 c4 -8 10 -15 14 -15 5 0 16 -3 25 -7 16 -5 15 -4 -1 15
-21 25 -46 29 -38 7z"/>
<path d="M3896 3893 c-4 -5 -13 -8 -18 -8 -6 0 -13 -6 -15 -12 -5 -15 13 -17
22 -3 4 6 11 8 16 5 5 -4 9 1 9 9 0 18 -3 20 -14 9z"/>
<path d="M3107 3875 c4 -13 0 -15 -21 -9 -33 8 -34 -9 -1 -30 28 -19 35 -10 8
10 -15 11 -12 12 20 4 43 -9 48 1 12 24 -22 14 -24 14 -18 1z"/>
<path d="M3690 3885 c0 -3 54 -41 120 -85 66 -44 120 -78 120 -75 0 2 -42 33
-92 67 -118 80 -148 99 -148 93z"/>
<path d="M3020 3841 c0 -15 28 -33 40 -26 8 5 8 11 -1 21 -13 15 -39 19 -39 5z"/>
<path d="M4914 3835 c-4 -8 -4 -22 0 -30 9 -24 128 -95 156 -94 l25 2 -24 4
c-27 5 -131 69 -143 86 -4 6 -2 19 3 29 7 12 6 18 -1 18 -6 0 -13 -7 -16 -15z"/>
<path d="M2957 3815 c-10 -7 -15 -19 -11 -29 7 -17 -11 -23 -21 -6 -3 6 -15
10 -26 10 -10 0 -19 -4 -19 -10 0 -5 7 -10 15 -10 8 0 15 -4 15 -9 0 -5 9 -11
20 -14 12 -3 20 0 20 7 0 7 16 18 35 25 41 14 44 24 12 38 -17 8 -28 7 -40 -2z"/>
<path d="M4768 3769 c-21 -11 -38 -22 -38 -24 0 -3 18 4 40 15 21 11 45 20 52
20 26 0 139 -74 134 -87 -3 -7 -1 -13 4 -13 28 0 1 -20 -80 -60 -49 -24 -88
-46 -86 -48 8 -7 184 87 189 101 7 18 -21 44 -89 86 -59 36 -75 37 -126 10z"/>
<path d="M5160 3755 c-36 -19 -61 -34 -57 -35 10 0 127 59 127 65 0 7 2 8 -70
-30z"/>
<path d="M4588 3746 c-56 -33 -59 -41 -5 -15 26 13 47 27 47 31 0 10 3 11 -42
-16z"/>
<path d="M2810 3750 c-12 -7 -12 -12 4 -29 24 -26 44 -26 76 -1 26 20 9 29
-20 10 -11 -7 -19 -4 -30 10 -11 14 -19 17 -30 10z"/>
<path d="M4647 3714 c-15 -8 -25 -20 -21 -25 4 -6 10 -5 17 4 7 8 21 19 32 25
11 6 16 11 10 11 -5 0 -23 -7 -38 -15z"/>
<path d="M3940 3715 c0 -6 258 -177 355 -234 102 -61 52 -24 -125 91 -214 139
-230 149 -230 143z"/>
<path d="M4880 3650 c-30 -16 -51 -29 -47 -30 10 0 107 49 107 55 0 7 1 7 -60
-25z"/>
<path d="M3560 3652 c0 -40 -60 -72 -154 -82 -64 -7 -66 -7 -21 -9 65 -1 117
14 153 44 29 25 48 65 31 65 -5 0 -9 -8 -9 -18z"/>
<path d="M4408 3654 c-39 -21 -35 -28 5 -8 37 19 44 24 31 24 -5 -1 -21 -8
-36 -16z"/>
<path d="M4621 3661 c3 -7 25 -24 49 -38 25 -13 37 -18 26 -11 -10 7 -32 24
-49 38 -17 13 -28 18 -26 11z"/>
<path d="M4423 3604 c-124 -60 -124 -71 3 -148 l62 -38 38 21 c22 11 35 20 31
21 -4 0 -22 -7 -38 -16 -30 -15 -33 -14 -83 16 -74 45 -102 68 -94 76 4 4 25
-4 45 -18 82 -54 93 -60 93 -55 0 2 -29 24 -65 47 -37 24 -62 46 -58 50 12 10
171 80 182 80 12 0 130 -70 137 -81 3 -5 1 -9 -3 -9 -5 0 -18 -7 -29 -16 -18
-14 -18 -15 4 -4 13 7 26 9 30 6 7 -8 7 -8 -58 -45 -67 -38 -59 -41 13 -5 58
30 67 39 60 63 -5 21 -133 101 -159 100 -10 0 -61 -21 -111 -45z"/>
<path d="M3885 3565 c-14 -13 -25 -30 -24 -37 1 -24 14 -43 29 -44 8 -1 24 -5
35 -9 11 -3 8 1 -7 10 -55 32 -54 72 2 94 18 7 20 10 7 10 -10 1 -29 -10 -42
-24z"/>
<path d="M4535 3580 c-4 -6 1 -7 12 -4 16 5 16 4 -1 -10 -11 -9 -17 -18 -14
-21 8 -9 39 25 33 36 -8 12 -22 12 -30 -1z"/>
<path d="M3957 3543 c-11 -10 -8 -20 7 -26 10 -4 14 0 13 14 -1 20 -9 24 -20
12z"/>
<path d="M4538 3484 c-39 -21 -35 -28 5 -8 37 19 44 24 31 24 -5 -1 -21 -8
-36 -16z"/>
<path d="M4069 3478 c-7 -23 -5 -38 3 -36 14 5 20 38 7 38 -5 0 -9 -1 -10 -2z"/>
<path d="M4133 3434 c-128 -61 -139 -90 -53 -134 l37 -19 101 49 c108 52 118
64 80 100 -55 52 -65 52 -165 4z m142 2 l30 -25 -95 -44 c-89 -42 -96 -44
-120 -30 l-25 15 24 -20 24 -19 55 24 c30 13 72 33 93 43 43 22 49 24 49 11 0
-10 -172 -91 -196 -91 -21 0 -84 38 -84 52 0 6 8 7 18 3 14 -5 15 -4 4 7 -10
10 3 20 70 55 46 23 92 42 103 42 11 1 34 -10 50 -23z"/>
<path d="M4160 3400 c-20 -12 -10 -19 14 -10 11 3 15 9 10 13 -6 3 -16 2 -24
-3z"/>
<path d="M4015 3440 c3 -6 -1 -7 -9 -4 -11 4 -16 0 -16 -10 0 -19 2 -19 35 -4
18 8 22 14 13 20 -18 11 -30 10 -23 -2z"/>
<path d="M4390 3421 c14 -11 30 -21 35 -21 11 0 -7 14 -40 31 -13 7 -12 3 5
-10z"/>
<path d="M3518 3422 c-25 -5 -22 -22 3 -22 11 0 17 -4 14 -10 -9 -14 -1 -13
39 6 33 16 36 16 70 -5 20 -13 36 -24 36 -27 0 -2 -17 -12 -37 -23 -21 -11
-34 -20 -30 -21 4 0 21 7 37 15 17 9 30 11 30 5 0 -10 -114 -71 -157 -84 -23
-7 -103 35 -103 55 0 5 5 7 10 4 6 -3 10 1 10 9 0 8 9 17 19 21 13 4 17 12 14
25 -6 24 -16 25 -33 5 -9 -11 -9 -15 -1 -15 7 0 9 -4 6 -10 -9 -15 -23 -12
-27 5 -2 11 -7 12 -18 4 -11 -8 -12 -12 -2 -16 6 -2 12 -15 12 -27 0 -22 69
-76 97 -76 7 0 54 20 103 45 62 31 90 51 90 63 0 22 -79 75 -102 67 -10 -3
-27 -8 -37 -11 -12 -4 -20 -1 -23 8 -1 7 -11 12 -20 10z"/>
<path d="M3950 3410 c0 -5 7 -10 15 -10 8 0 15 5 15 10 0 6 -7 10 -15 10 -8 0
-15 -4 -15 -10z"/>
<path d="M3450 3305 c0 -7 61 -37 66 -33 2 3 -12 12 -31 21 -19 9 -35 15 -35
12z"/>
<path d="M3860 3297 c0 -3 16 -15 35 -27 19 -12 35 -25 35 -29 0 -4 -40 -27
-90 -51 -49 -24 -88 -46 -86 -48 2 -2 41 15 86 38 45 23 87 39 93 37 20 -7
-173 -99 -193 -92 -10 3 -30 15 -44 26 -37 29 -23 47 73 93 44 22 79 41 77 44
-2 2 -45 -17 -95 -42 -108 -55 -115 -71 -45 -112 l46 -27 99 49 c106 52 123
74 77 103 -13 8 -33 21 -45 29 -13 8 -23 12 -23 9z"/>
<path d="M3821 3236 c-17 -10 -20 -15 -11 -21 8 -5 18 -2 25 8 7 9 15 14 18
10 4 -3 7 -1 7 5 0 15 -9 15 -39 -2z"/>
</g>
</svg>
