<?xml version="1.0" standalone="no"?>
<!DOCTYPE svg PUBLIC "-//W3C//DTD SVG 20010904//EN"
 "http://www.w3.org/TR/2001/REC-SVG-20010904/DTD/svg10.dtd">
<svg version="1.0" xmlns="http://www.w3.org/2000/svg"
 width="1034.934805pt" height="715.967610pt" viewBox="0 0 1034.934805 715.967610"
 preserveAspectRatio="xMidYMid meet">
<metadata>
Created by potrace 1.12, written by Peter Selinger 2001-2015
</metadata>
<g transform="translate(-125.888599,769.880478) scale(0.100000,-0.100000)"
fill="#000000" stroke="none">
<path d="M10749 7677 c-19 -12 -38 -36 -44 -52 -5 -17 -22 -42 -37 -57 -30
-29 -38 -81 -17 -120 12 -23 67 -48 105 -48 30 0 113 -75 98 -89 -12 -11 -325
-91 -334 -86 -14 9 -20 70 -10 104 5 19 20 45 32 58 16 17 23 36 23 64 0 54
-38 91 -97 95 -24 1 -56 9 -73 18 -16 9 -39 16 -50 16 -34 0 -84 -37 -91 -67
-4 -15 -19 -41 -35 -58 -33 -36 -44 -72 -30 -107 13 -35 46 -56 106 -67 38 -7
58 -18 83 -46 19 -20 32 -39 29 -41 -2 -3 -80 -25 -172 -50 -132 -35 -170 -42
-177 -32 -17 25 -2 106 25 142 37 48 36 98 -2 137 -21 20 -39 29 -62 29 -18 0
-52 9 -76 21 -37 18 -48 19 -78 9 -38 -13 -75 -52 -75 -81 0 -10 -9 -23 -20
-29 -30 -16 -52 -66 -45 -100 9 -41 56 -77 110 -86 47 -7 88 -32 105 -64 9
-16 2 -21 -55 -40 -78 -26 -109 -49 -136 -102 -23 -45 -23 -88 2 -217 13 -72
13 -74 -9 -91 -12 -11 -219 -119 -460 -241 -240 -122 -536 -272 -657 -334
-121 -62 -472 -241 -780 -398 -849 -431 -1794 -916 -2037 -1043 -119 -63 -228
-114 -242 -114 -67 0 -145 65 -165 137 -47 167 51 319 322 505 123 85 179 139
199 195 15 41 38 49 78 28 17 -9 35 -13 40 -10 13 8 13 115 -1 154 -13 36 -28
39 -53 12 -32 -35 -55 -33 -72 7 -25 60 -59 97 -121 129 -141 74 -335 70 -573
-13 -263 -91 -467 -233 -710 -495 -236 -253 -365 -380 -438 -430 -136 -94
-284 -151 -467 -178 -89 -13 -218 -19 -630 -31 -439 -13 -607 -37 -839 -117
-213 -74 -385 -179 -526 -323 -321 -326 -428 -779 -296 -1262 46 -169 136
-402 246 -636 40 -86 60 -141 58 -159 -3 -26 -6 -28 -46 -25 -53 4 -61 -12
-37 -74 18 -47 60 -104 76 -104 5 0 19 16 30 35 37 62 48 51 158 -150 338
-620 572 -901 878 -1054 268 -134 592 -148 900 -40 208 73 355 171 544 359
206 206 330 372 583 782 164 266 242 354 371 414 95 45 162 61 334 79 435 47
624 104 814 246 168 127 269 321 254 490 -10 119 -82 218 -173 237 -53 12 -74
8 -194 -31 -85 -28 -108 -31 -215 -32 -115 0 -123 1 -188 32 -129 61 -227 190
-227 299 0 97 1 98 213 221 105 61 227 130 270 153 42 23 77 45 77 49 0 8 173
153 285 238 44 34 145 100 225 148 164 99 1217 718 1385 815 179 103 1216 708
1540 900 508 299 572 330 687 330 93 0 198 -38 267 -96 40 -33 56 -29 158 38
54 36 141 115 283 259 113 114 214 212 225 217 15 8 41 3 105 -19 99 -33 118
-35 190 -13 104 31 199 158 217 290 13 96 -57 234 -151 299 -100 69 -223 83
-388 44 -105 -25 -108 -23 -108 59 0 38 5 57 19 71 43 43 51 83 26 131 -15 30
-74 57 -101 46 -8 -3 -29 3 -47 14 -42 26 -66 25 -108 -3z m107 -11 c11 -8 34
-14 50 -14 47 1 73 -11 90 -44 19 -36 13 -66 -22 -108 -20 -24 -26 -42 -27
-81 l-1 -51 -22 45 c-26 50 -50 65 -72 43 -15 -15 -11 -45 15 -112 3 -7 -13 4
-35 26 -26 27 -49 40 -66 40 -100 0 -151 89 -86 150 17 15 30 36 30 45 0 9 13
30 29 46 33 33 82 39 117 15z m-452 -121 c11 -8 38 -15 60 -15 81 0 110 -69
60 -141 -14 -21 -28 -57 -31 -80 l-6 -42 -19 37 c-23 44 -44 55 -66 32 -16
-16 -12 -50 13 -110 5 -11 -7 -3 -26 18 -27 29 -46 40 -84 47 -70 13 -99 37
-103 85 -2 33 2 44 28 69 16 16 30 37 30 47 0 11 11 30 25 43 28 29 88 34 119
10z m516 -154 l29 -59 -30 -11 c-22 -8 -31 -7 -34 2 -2 7 -10 34 -19 61 -20
63 -20 66 4 66 14 0 28 -17 50 -59z m-974 34 c10 -8 36 -15 57 -15 29 0 46 -7
68 -29 37 -37 38 -79 3 -120 -15 -19 -28 -49 -32 -78 l-7 -47 -19 41 c-21 47
-38 58 -67 43 -24 -13 -24 -14 1 -86 l21 -59 -31 37 c-29 35 -52 46 -132 63
-69 14 -91 95 -39 144 17 16 33 40 37 55 14 56 94 86 140 51z m1444 -96 c76
-35 121 -77 158 -146 77 -146 33 -306 -102 -369 -66 -31 -125 -30 -201 1 -78
32 -115 32 -157 -2 -18 -15 -123 -115 -233 -224 -131 -128 -227 -214 -278
-247 l-78 -51 -51 38 c-64 49 -132 71 -219 71 -72 0 -166 -25 -226 -60 -28
-16 -33 -17 -33 -4 0 8 4 13 8 10 4 -2 100 49 212 115 198 115 206 119 250
113 41 -5 49 -3 78 24 21 20 32 39 32 59 0 24 8 32 53 56 28 15 135 79 236
142 102 63 193 115 202 115 66 0 101 88 64 160 -18 34 -49 45 -108 37 -74 -10
-106 -75 -73 -148 6 -13 -20 -32 -129 -94 -81 -46 -132 -81 -129 -87 4 -7 2
-8 -5 -4 -6 4 -44 -10 -85 -32 -64 -34 -80 -39 -119 -35 -39 5 -49 2 -71 -20
-14 -14 -26 -34 -26 -44 0 -13 -40 -39 -133 -90 -72 -40 -172 -98 -221 -128
l-89 -55 -24 26 c-17 18 -21 30 -14 37 14 14 44 -11 37 -30 -5 -11 0 -13 17
-7 49 15 72 55 45 82 -6 6 -10 13 -7 16 19 18 546 286 562 286 12 0 39 5 59
10 31 9 39 18 53 55 20 51 14 88 -17 123 -25 26 -93 30 -124 7 -10 -8 -15 -15
-11 -15 4 0 3 -9 -3 -21 -15 -27 -4 -74 25 -105 21 -23 28 -25 52 -16 24 9 25
11 6 11 -12 1 -29 4 -38 7 -17 7 -50 63 -41 71 3 3 10 -6 17 -20 14 -30 49
-50 89 -50 38 0 24 -21 -26 -37 -31 -10 -37 -10 -48 6 -7 9 -18 14 -24 10 -12
-7 -42 42 -42 69 0 9 7 29 15 45 9 17 12 30 7 30 -13 0 -32 -47 -32 -79 0 -15
7 -36 15 -47 8 -10 15 -22 15 -26 0 -4 -37 -26 -82 -49 -46 -23 -164 -86 -264
-140 -99 -54 -187 -99 -195 -99 -8 0 -31 -11 -49 -25 l-35 -25 -17 22 c-10 13
-18 26 -18 29 0 10 234 118 278 128 61 13 89 35 103 80 14 48 1 90 -39 121
-61 48 -172 -8 -172 -87 0 -10 9 -34 19 -54 l19 -35 -115 -58 c-63 -31 -118
-55 -121 -52 -3 3 1 25 9 48 17 54 16 95 -7 192 -16 69 -16 81 -3 104 8 15 30
35 50 45 34 16 397 114 1029 276 259 67 281 71 370 69 78 -3 105 -8 150 -29z
m-921 -56 c17 -31 30 -58 28 -59 -1 -1 -15 -4 -31 -6 -28 -3 -31 0 -48 56 -14
46 -15 61 -6 67 17 11 23 5 57 -58z m-455 -118 c16 -31 27 -57 25 -59 -2 -3
-16 -7 -30 -11 -23 -6 -26 -2 -42 48 -21 67 -21 77 1 77 11 0 28 -20 46 -55z
m1042 -11 c-8 -21 -49 -73 -58 -73 -16 -2 -7 50 12 69 24 24 55 27 46 4z
m-107 -33 c-14 -40 11 -100 43 -103 44 -3 73 4 91 19 24 23 22 -2 -3 -27 -12
-12 -33 -20 -55 -20 -28 0 -67 -19 -168 -83 -203 -128 -307 -188 -318 -182
-24 15 1 36 134 107 78 42 141 81 140 87 -2 6 7 15 20 21 21 11 21 10 3 -4
-25 -20 -14 -20 24 -1 31 16 42 32 15 21 -22 -8 -18 2 6 15 15 8 19 8 15 0
-10 -16 -1 -14 45 9 l40 21 -30 28 c-34 32 -39 65 -15 99 21 30 25 28 13 -7z
m23 -15 c-3 -25 2 -40 17 -55 12 -12 18 -21 14 -21 -30 1 -55 53 -42 88 12 31
16 27 11 -12z m128 6 c0 -35 -30 -65 -60 -60 -20 3 -20 5 12 46 38 49 48 52
48 14z m-480 -94 c20 -22 29 -75 10 -63 -16 10 -52 85 -41 85 6 0 19 -10 31
-22z m-54 -20 c9 -18 23 -40 31 -50 18 -20 2 -32 -28 -23 -24 8 -49 59 -42 86
8 28 20 23 39 -13z m-766 -245 c0 -17 -5 -44 -12 -60 -11 -27 -12 -27 -18 27
-4 30 -11 81 -15 112 -4 31 -4 69 0 85 7 24 10 18 26 -52 10 -44 19 -94 19
-112z m380 127 c12 -22 13 -50 3 -50 -10 0 -53 66 -53 80 0 16 37 -6 50 -30z
m-70 -20 c33 -51 34 -73 3 -54 -32 20 -55 61 -48 83 3 11 8 21 10 21 1 0 17
-23 35 -50z m-78 -5 c-3 -30 1 -54 12 -70 15 -23 15 -25 1 -25 -21 0 -48 65
-39 93 5 18 23 47 28 47 1 0 0 -20 -2 -45z m462 5 c-9 -9 -210 -118 -501 -272
-73 -38 -133 -66 -133 -60 0 5 19 17 43 28 40 17 435 225 542 285 54 30 64 34
49 19z m-394 -77 c24 -12 24 -13 3 -13 -25 0 -63 44 -63 74 0 16 4 13 18 -14
9 -19 28 -40 42 -47z m1128 33 c104 -44 117 -44 257 8 12 5 7 -4 -15 -23 -35
-31 -113 -61 -158 -61 -13 0 -58 12 -100 26 -83 29 -116 31 -141 11 -14 -11
-15 -10 -1 7 18 23 70 56 88 56 7 0 38 -11 70 -24z m-1060 -50 c-15 -13 -46
-27 -70 -31 -41 -7 -429 -199 -985 -489 -142 -73 -395 -204 -563 -291 -1045
-540 -1586 -819 -1890 -975 -190 -98 -394 -203 -455 -235 -145 -76 -577 -300
-785 -408 -157 -80 -248 -127 -970 -494 -168 -86 -350 -179 -405 -208 -55 -29
-174 -91 -265 -138 -91 -46 -334 -172 -540 -280 -206 -107 -510 -263 -675
-347 -165 -84 -351 -184 -413 -223 -62 -38 -115 -67 -118 -64 -12 11 170 131
301 198 595 305 893 458 970 499 50 26 176 92 280 145 105 54 393 202 640 330
248 128 542 278 655 335 200 100 805 410 1045 535 226 118 620 322 700 363 44
22 276 142 515 265 239 123 575 295 745 382 171 87 501 257 735 378 1104 572
1335 687 1467 734 41 14 76 30 79 34 3 5 11 9 17 9 7 0 0 -11 -15 -24z m343
-32 c55 -50 2 -137 -76 -125 -69 10 -85 115 -22 141 28 12 76 4 98 -16z m408
-106 c-139 -154 -253 -261 -334 -317 -86 -60 -108 -70 -99 -47 3 8 45 41 92
73 58 38 145 114 257 225 94 92 172 168 174 168 2 0 -39 -46 -90 -102z m-548
10 c14 -25 13 -25 -101 -91 -52 -30 -144 -83 -203 -118 l-109 -63 -18 24 c-10
14 -17 28 -14 31 2 4 46 30 97 57 201 109 292 163 290 172 -2 5 5 6 14 3 11
-4 14 -3 9 5 -5 8 -2 10 9 6 8 -4 20 -15 26 -26z m-621 -22 c0 -10 -391 -207
-403 -203 -6 2 78 49 188 105 192 97 215 107 215 98z m75 -58 c11 -16 12 -24
4 -27 -12 -4 -39 25 -39 41 0 16 19 8 35 -14z m-25 -37 c0 -9 -369 -208 -394
-213 -11 -2 -24 7 -33 22 l-15 25 21 -25 c23 -28 29 -15 7 15 -13 18 -3 25
183 122 195 101 196 102 214 81 9 -11 17 -23 17 -27z m158 7 c-2 -13 -11 -24
-21 -26 -22 -4 -35 27 -16 39 25 16 41 10 37 -13z m-93 -45 c11 -21 21 -41 23
-45 2 -5 -2 -8 -10 -8 -19 0 -50 57 -35 64 7 2 4 5 -6 5 -10 1 -15 6 -12 11
11 18 21 11 40 -27z m-60 8 c-6 -5 -97 -55 -202 -111 -181 -96 -192 -104 -182
-124 10 -20 9 -20 -5 -2 -14 17 -29 11 -313 -139 -164 -87 -327 -174 -363
-195 -36 -20 -162 -88 -280 -150 -118 -62 -271 -143 -340 -180 -69 -37 -165
-89 -215 -115 -194 -103 -242 -129 -303 -163 -35 -19 -65 -32 -68 -29 -3 3 77
49 178 102 101 54 206 110 233 125 28 15 131 70 230 122 99 53 284 151 410
218 336 180 479 256 775 413 146 77 306 162 355 189 92 49 106 55 90 39z m45
-61 c0 -4 -86 -56 -191 -115 -153 -86 -193 -105 -200 -94 -24 35 -31 53 -23
56 5 2 92 48 194 103 185 100 185 100 203 79 9 -12 17 -25 17 -29z m75 -39
c11 -22 12 -32 4 -37 -12 -7 -48 32 -49 54 0 23 30 12 45 -17z m-610 0 c-10
-9 -354 -191 -361 -191 -2 0 -4 4 -4 10 0 5 80 50 178 99 167 85 209 103 187
82z m1056 -19 c24 -12 59 -34 78 -50 27 -22 32 -32 26 -50 l-7 -23 -31 24
c-87 66 -214 105 -307 94 -28 -3 -50 -4 -50 -2 0 2 21 11 48 20 66 21 185 15
243 -13z m-480 -9 c8 -16 10 -28 4 -30 -5 -2 -95 -53 -200 -113 l-190 -109
-17 22 c-10 12 -18 27 -18 32 0 6 10 -3 21 -20 12 -17 18 -21 14 -10 -4 11 -9
27 -12 36 -3 11 43 42 179 117 101 56 188 102 194 102 6 0 17 -12 25 -27z
m-528 -42 l17 -29 -42 -25 c-24 -13 -104 -57 -179 -96 l-136 -71 -17 25 c-10
15 -16 31 -14 36 3 8 332 186 348 188 3 1 13 -12 23 -28z m556 -15 c-15 -15
-384 -225 -388 -221 -2 3 -2 7 1 10 15 15 382 224 387 220 2 -3 2 -7 0 -9z
m-504 -77 c12 -22 13 -34 6 -43 -6 -7 -7 -17 -3 -21 4 -5 1 -5 -5 -1 -17 9
-145 -62 -136 -76 3 -7 1 -8 -5 -4 -7 4 -51 -14 -98 -40 l-87 -47 -18 24 c-10
13 -18 30 -16 38 1 10 283 173 344 200 1 1 10 -13 18 -30z m-490 -39 c-3 -5
-79 -47 -168 -92 -194 -99 -180 -93 -175 -78 3 11 322 179 341 180 5 0 5 -4 2
-10z m549 -55 c9 -13 16 -26 16 -29 0 -2 -26 -19 -57 -37 -32 -18 -111 -63
-176 -101 -65 -39 -120 -68 -121 -66 -18 27 -36 58 -36 62 0 3 29 21 65 41 38
21 62 41 58 47 -3 7 -1 8 6 4 15 -10 163 72 155 86 -4 7 -2 8 4 4 7 -4 20 -2
29 3 28 16 39 13 57 -14z m-464 -40 c0 -5 -9 1 -20 15 -11 14 -20 30 -20 35 0
6 9 -1 20 -15 11 -14 20 -29 20 -35z m-37 16 l17 -29 -97 -53 c-54 -28 -130
-70 -170 -91 l-72 -39 -20 33 c-11 18 -17 36 -13 40 12 11 316 168 327 168 6
0 18 -13 28 -29z m540 -36 c-5 -8 -78 -56 -163 -106 -200 -117 -188 -111 -195
-100 -3 6 14 21 37 34 24 14 106 61 183 106 77 45 141 81 143 81 2 0 -1 -7 -5
-15z m-452 -70 l10 -20 -16 20 c-9 11 -21 29 -26 40 l-10 20 16 -20 c9 -11 21
-29 26 -40z m-26 5 c15 -29 15 -29 -28 -55 -24 -14 -44 -32 -44 -40 0 -20 3
-19 55 11 l45 27 18 -24 c20 -26 25 -19 9 12 -6 10 -8 19 -6 19 3 0 13 -14 22
-31 8 -17 11 -29 6 -25 -5 3 -12 -2 -14 -12 -3 -10 -43 -41 -89 -67 -222 -129
-252 -146 -253 -143 -23 33 -47 80 -38 74 7 -4 19 -21 28 -38 8 -16 18 -27 21
-24 3 3 -4 20 -15 38 l-21 34 113 62 c66 36 113 68 113 77 0 8 -3 15 -6 15 -3
0 -55 -27 -116 -60 -60 -33 -114 -59 -120 -56 -5 2 -18 17 -27 34 l-18 29 118
63 c64 35 139 76 166 91 28 15 53 26 58 23 4 -3 15 -18 23 -34z m-487 -10 c-5
-17 -326 -181 -333 -171 -4 8 307 180 328 181 5 0 7 -5 5 -10z m84 -94 c7 -12
7 -16 0 -12 -6 3 -12 2 -14 -4 -1 -5 -75 -48 -163 -94 l-159 -84 -24 35 c-13
19 -22 36 -20 38 1 1 75 40 162 85 l159 83 24 -29 c12 -16 23 -24 23 -18 0 6
-7 17 -15 24 -8 7 -15 18 -15 24 1 11 24 -15 42 -48z m502 -50 c-3 -8 -81 -59
-172 -112 -92 -54 -242 -142 -334 -196 -163 -96 -194 -110 -186 -85 6 15 306
188 330 190 10 1 18 5 18 9 0 8 328 204 347 208 1 0 0 -6 -3 -14z m-448 -39
c14 -30 14 -31 -1 -12 -25 30 -39 59 -26 51 6 -4 18 -22 27 -39z m-20 -9 c8
-16 14 -31 12 -33 -18 -18 -311 -174 -318 -170 -6 4 -17 20 -26 37 -8 16 -18
27 -21 24 -3 -3 5 -21 17 -40 12 -20 19 -36 17 -36 -10 0 -48 70 -43 78 3 5
54 34 113 65 59 31 133 69 163 86 30 16 58 27 62 25 5 -3 15 -19 24 -36z
m-476 5 c-1 -16 -306 -166 -320 -158 -9 6 36 33 141 86 149 75 179 87 179 72z
m90 -110 c0 -4 -10 7 -21 25 -12 18 -24 31 -26 28 -3 -3 2 -15 11 -28 9 -12
16 -26 16 -30 0 -5 -250 -143 -301 -166 -11 -5 -52 69 -43 77 22 19 302 159
308 154 3 -4 6 0 6 8 0 7 11 -3 25 -23 14 -20 25 -41 25 -45z m395 46 c-4 -6
0 -9 11 -7 21 4 62 -58 48 -72 -8 -8 -303 -180 -309 -180 -2 0 -13 17 -25 37
-26 45 -36 36 143 135 70 39 126 73 123 75 -2 3 -14 0 -25 -7 -12 -6 -21 -8
-21 -6 0 5 49 34 58 36 2 0 0 -5 -3 -11z m-2984 -55 c138 -31 220 -124 222
-252 1 -106 -31 -142 -268 -307 -100 -70 -204 -179 -239 -250 -38 -78 -47
-184 -21 -251 21 -54 74 -109 123 -125 l35 -12 -124 -63 c-68 -35 -126 -64
-129 -64 -3 0 -5 54 -5 119 0 112 -1 121 -24 145 -58 62 -116 41 -244 -87
-167 -166 -306 -254 -508 -321 -134 -45 -261 -70 -484 -96 -417 -48 -582 -101
-713 -230 -78 -77 -96 -118 -97 -217 l0 -83 71 -138 72 -139 -367 -188 c-201
-104 -410 -211 -464 -239 -94 -49 -99 -50 -110 -32 -22 36 -56 66 -75 66 -11
0 -96 -40 -189 -90 -93 -49 -193 -99 -221 -111 -64 -27 -74 -52 -45 -113 13
-26 19 -53 15 -74 -5 -36 11 -62 38 -62 27 0 83 -101 74 -135 -7 -28 17 -65
42 -65 8 0 27 -24 44 -52 22 -40 28 -61 24 -84 -5 -25 -1 -35 17 -47 12 -9 25
-14 29 -12 4 2 20 -19 35 -47 20 -36 28 -64 26 -91 -2 -35 1 -40 29 -50 20 -8
42 -29 61 -59 25 -41 33 -48 61 -48 46 0 457 226 464 255 3 14 -8 46 -31 88
l-36 65 123 70 c68 38 153 85 189 105 36 20 66 44 66 52 0 8 -3 15 -5 15 -16
0 -331 -184 -327 -190 3 -5 0 -12 -6 -16 -8 -5 -9 -3 -4 6 6 10 4 12 -11 6
-38 -16 -45 -10 -88 71 l-45 82 162 89 c280 155 558 307 658 361 l96 51 41
-77 c23 -42 42 -79 42 -82 0 -3 -114 -70 -253 -149 -149 -84 -254 -149 -254
-158 0 -7 3 -14 6 -14 3 0 121 65 261 145 250 142 255 145 270 124 37 -48 202
-390 217 -449 23 -91 21 -227 -6 -312 -57 -179 -251 -370 -486 -478 -196 -91
-306 -112 -565 -109 -133 2 -202 -1 -217 -9 -58 -31 -81 -110 -49 -170 24 -45
96 -108 184 -161 264 -158 578 -184 871 -71 134 52 247 134 416 304 208 210
343 387 530 701 178 298 272 404 419 475 100 48 180 64 411 85 305 27 447 59
595 136 224 116 367 324 289 423 -26 33 -49 33 -148 -4 -255 -93 -519 -35
-698 154 -87 92 -134 190 -141 290 l-4 73 98 59 99 59 -27 -54 c-41 -79 -40
-174 3 -259 57 -115 193 -211 329 -233 81 -13 186 2 308 42 159 53 246 28 298
-84 102 -220 -59 -518 -361 -667 -163 -81 -309 -116 -595 -145 -309 -31 -421
-70 -550 -191 -75 -71 -146 -173 -323 -459 -297 -481 -579 -780 -880 -931 -95
-48 -254 -100 -367 -120 -136 -23 -331 -15 -459 20 -333 92 -587 315 -863 760
-289 464 -597 1119 -692 1468 l-27 97 251 247 c416 411 735 787 967 1141 54
83 103 158 108 167 9 15 51 18 405 26 592 14 726 35 931 141 146 76 231 150
451 392 95 105 218 230 273 280 320 285 719 434 996 371z m2617 -73 l23 -40
-43 -25 c-24 -13 -92 -51 -153 -85 l-109 -60 -28 41 -27 42 152 83 c84 45 155
83 158 83 3 0 15 -18 27 -39z m-469 5 c-21 -19 -290 -143 -294 -136 -3 5 61
43 142 84 81 40 150 70 152 64 1 -5 1 -11 0 -12z m591 -11 c0 -2 -13 -11 -30
-20 -38 -19 -40 -11 -2 9 31 17 32 18 32 11z m-504 -69 c9 -15 11 -25 5 -22
-6 4 -11 3 -11 -2 0 -9 -246 -147 -292 -165 -12 -4 -23 2 -36 21 -31 44 -36
56 -23 48 6 -4 18 -21 27 -38 8 -16 18 -27 21 -24 3 3 -4 21 -16 40 l-21 34
142 75 143 75 28 -31 c28 -32 37 -27 12 7 -8 11 -15 25 -15 30 0 12 13 -5 36
-48z m414 19 c0 -2 -13 -11 -30 -20 -38 -19 -40 -11 -2 9 31 17 32 18 32 11z
m49 -41 c12 -20 20 -39 17 -41 -2 -3 -14 13 -26 36 -25 51 -20 54 9 5z m-19
-10 c13 -20 19 -39 14 -44 -13 -12 -285 -170 -293 -170 -8 0 -41 65 -41 79 0
4 23 20 50 35 28 15 48 31 45 36 -3 5 0 12 6 16 8 4 9 3 5 -4 -10 -17 -1 -15
45 8 22 12 37 25 34 30 -3 5 0 12 6 16 8 4 9 3 5 -4 -11 -17 4 -14 54 13 25
13 46 24 47 25 1 0 11 -16 23 -36z m-2346 -21 c7 -45 8 -93 1 -93 -2 0 -15 5
-29 11 -36 17 -45 74 -14 99 32 27 35 25 42 -17z m-74 -45 c0 -51 -5 -47 -14
10 -4 29 -3 41 4 37 5 -3 10 -25 10 -47z m1565 22 c8 -13 -275 -154 -286 -143
-7 7 252 152 273 153 4 0 10 -4 13 -10z m474 -26 c12 -20 20 -38 18 -41 -4 -4
-47 63 -47 73 0 11 10 1 29 -32z m-19 -10 c13 -20 19 -39 14 -44 -19 -19 -269
-150 -279 -147 -5 3 -20 22 -32 44 l-22 39 137 72 c75 39 142 72 149 72 6 0
21 -16 33 -36z m455 5 c-3 -8 -74 -54 -157 -102 -114 -67 -153 -86 -159 -76
-4 8 -7 14 -6 15 35 26 302 172 308 168 5 -3 9 0 9 7 0 7 2 10 5 7 3 -3 3 -11
0 -19z m-335 -14 c0 -2 -13 -11 -30 -20 -38 -19 -40 -11 -2 9 31 17 32 18 32
11z m-516 -42 c13 -21 21 -41 17 -44 -19 -20 -275 -151 -278 -143 -2 6 -14 26
-27 44 l-23 35 136 72 c75 39 139 72 143 72 4 1 19 -16 32 -36z m426 -8 c0 -2
-22 -16 -50 -30 -27 -14 -50 -23 -50 -20 0 2 21 16 48 29 53 28 52 28 52 21z
m76 -92 c-5 -5 -46 71 -46 84 0 4 12 -12 25 -36 14 -24 23 -46 21 -48z m-38
37 l22 -39 -92 -54 c-157 -91 -185 -107 -191 -107 -8 0 -47 65 -47 78 0 11
256 161 275 162 6 0 20 -18 33 -40z m-839 -23 c-21 -18 -251 -127 -258 -122
-5 3 -11 0 -13 -7 -3 -9 -6 -9 -11 -1 -9 15 264 155 277 142 5 -5 8 -10 5 -12z
m691 18 c0 -2 -13 -11 -30 -20 -38 -19 -40 -11 -2 9 31 17 32 18 32 11z m-221
-47 c12 -21 20 -38 18 -38 -7 0 -47 65 -47 75 0 10 1 8 29 -37z m-21 -7 c12
-21 22 -41 22 -44 0 -3 -62 -40 -137 -81 l-137 -75 -27 47 c-16 25 -26 48 -23
51 9 9 260 140 270 140 6 1 20 -16 32 -38z m-118 15 c0 -8 -441 -238 -446
-233 -5 4 423 236 439 237 4 0 7 -2 7 -4z m270 -11 c0 -2 -13 -11 -30 -20 -38
-19 -40 -11 -2 9 31 17 32 18 32 11z m294 -25 c-15 -15 -285 -170 -296 -170
-5 0 -8 7 -6 15 4 21 291 186 303 174 5 -6 5 -13 -1 -19z m-839 -21 c15 -23
23 -45 18 -49 -12 -12 -231 -130 -240 -130 -4 0 -20 19 -35 42 l-27 42 127 67
c70 37 128 68 128 68 1 1 14 -18 29 -40z m25 5 c12 -19 20 -37 17 -40 -4 -4
-47 61 -47 72 0 11 10 1 30 -32z m425 -65 c40 -62 40 -65 -7 -91 -24 -14 -95
-54 -158 -90 -132 -75 -281 -161 -326 -189 l-31 -19 -28 51 c-22 42 -25 53
-14 60 44 29 229 129 238 129 6 0 20 -18 31 -41 12 -23 24 -39 27 -36 2 3 0
14 -6 25 -6 12 -11 24 -11 29 1 4 8 -5 16 -20 9 -16 18 -26 21 -23 3 3 -5 21
-17 41 -12 19 -19 43 -16 51 4 12 2 15 -9 10 -22 -8 -18 2 6 15 15 8 19 8 15
0 -4 -6 -4 -11 0 -11 12 0 244 133 240 138 -2 2 -15 -1 -28 -8 -22 -11 -22
-10 -4 4 28 23 33 21 61 -25z m31 -4 c14 -25 24 -48 21 -51 -3 -3 -17 17 -31
45 -33 63 -26 67 10 6z m-831 6 c7 -12 -201 -125 -230 -125 -11 -1 -24 -5 -28
-11 -5 -6 -7 -5 -5 3 3 11 231 140 250 142 4 0 9 -4 13 -9z m715 4 c0 -2 -13
-11 -30 -20 -38 -19 -40 -11 -2 9 31 17 32 18 32 11z m-266 -59 c14 -25 26
-48 26 -53 0 -8 -60 83 -60 92 0 13 10 1 34 -39z m-20 -13 c15 -25 23 -50 19
-53 -16 -14 -229 -130 -239 -130 -6 0 -21 18 -33 41 -13 22 -25 38 -28 35 -3
-3 2 -17 11 -32 10 -14 15 -28 13 -31 -3 -3 -13 10 -22 27 -15 29 -15 34 -2
47 11 11 230 134 254 142 1 1 13 -20 27 -46z m216 32 c0 -2 -13 -11 -30 -20
-38 -19 -40 -11 -2 9 31 17 32 18 32 11z m-565 -45 c24 -38 34 -64 17 -44 -16
17 -54 84 -48 84 3 0 17 -18 31 -40z m-4 -37 c7 -13 10 -25 8 -27 -23 -19
-234 -124 -238 -118 -36 52 -53 86 -45 89 5 2 59 30 119 62 l110 59 17 -21 c9
-12 23 -32 29 -44z m785 12 c2 -5 -58 -45 -133 -88 -98 -57 -138 -75 -143 -66
-6 8 -9 6 -12 -7 -3 -16 -5 -16 -10 -3 -5 12 27 35 131 96 130 78 161 90 167
68z m-686 -19 c0 -2 -120 -68 -267 -147 -148 -78 -326 -175 -398 -214 -71 -40
-183 -100 -247 -134 l-117 -62 35 -65 c20 -35 34 -64 31 -64 -3 0 -20 26 -38
58 -18 31 -33 59 -35 60 -3 4 -43 -17 -339 -178 -185 -100 -267 -144 -675
-360 -236 -124 -421 -223 -765 -407 -143 -77 -307 -165 -365 -195 -177 -94
-932 -495 -1325 -705 -88 -47 -187 -103 -220 -123 -122 -76 -207 -122 -213
-115 -4 4 -2 9 3 11 6 2 57 34 115 70 58 36 188 109 290 163 102 54 370 196
595 316 599 318 739 392 845 450 52 29 154 83 225 120 72 38 245 130 385 205
140 75 318 170 395 210 221 115 1075 574 1360 730 240 132 709 380 718 380 4
0 7 -2 7 -4z m295 -9 c-32 -22 -181 -101 -173 -92 11 12 172 104 183 104 5 1
1 -5 -10 -12z m-746 -20 c-6 -6 -222 -117 -226 -117 -2 0 -3 6 -3 13 0 19 212
129 224 117 5 -5 8 -11 5 -13z m420 -74 c17 -26 29 -48 28 -49 -1 -1 -51 -30
-112 -64 -60 -34 -113 -64 -117 -67 -8 -4 -60 75 -62 94 -1 11 204 131 226
132 5 1 21 -20 37 -46z m-334 -3 c24 -38 34 -64 17 -44 -16 17 -54 84 -48 84
3 0 17 -18 31 -40z m-19 -11 c24 -39 25 -41 7 -54 -26 -19 -189 -105 -199
-105 -5 0 -21 20 -36 45 l-27 44 62 35 c100 55 141 75 154 76 7 0 24 -18 39
-41z m-323 -31 c5 -15 -186 -117 -214 -115 -28 2 -11 14 98 73 111 59 110 58
116 42z m1087 -11 c0 -7 -55 -44 -122 -83 -99 -58 -125 -69 -131 -57 -5 8 -7
16 -5 18 15 15 245 142 251 138 4 -2 7 -10 7 -16z m-340 -59 c16 -29 30 -56
30 -59 0 -10 -229 -141 -237 -136 -6 4 -39 62 -60 105 0 2 -21 -6 -45 -18 -23
-12 -38 -18 -33 -13 15 15 165 95 165 89 0 -3 -18 -15 -41 -26 -23 -12 -39
-24 -36 -27 3 -3 55 23 116 58 61 34 109 65 107 67 -3 2 -15 -1 -28 -8 -22
-11 -22 -10 -4 4 11 9 23 16 28 16 4 0 21 -24 38 -52z m26 -3 c14 -25 25 -48
22 -50 -2 -2 -16 18 -31 46 -35 62 -27 65 9 4z m-347 -23 c17 -29 27 -51 22
-48 -10 7 -61 91 -61 102 0 11 5 4 39 -54z m-344 8 c27 -43 33 -67 9 -35 -20
26 -46 75 -39 75 2 0 16 -18 30 -40z m-20 -16 c15 -25 25 -47 23 -49 -13 -11
-186 -105 -194 -105 -6 0 -23 22 -38 50 l-27 49 98 50 c54 28 101 50 105 50 3
1 18 -20 33 -45z m344 -2 c15 -29 20 -47 14 -53 -21 -21 -206 -118 -215 -113
-4 3 -19 27 -33 53 l-24 48 102 56 c56 31 109 55 117 54 8 -1 25 -22 39 -45z
m231 43 c0 -2 -13 -11 -30 -20 -38 -19 -40 -11 -2 9 31 17 32 18 32 11z m-876
-60 c7 -19 -185 -120 -196 -102 -5 8 25 29 90 64 53 29 98 53 98 53 1 0 4 -7
8 -15z m1043 -52 c2 -6 -50 -42 -117 -81 -66 -39 -121 -67 -121 -61 -1 5 -2
14 -3 20 -1 12 214 140 228 136 6 -2 11 -8 13 -14z m-951 -57 c15 -27 23 -47
17 -43 -12 8 -63 91 -63 103 0 13 15 -8 46 -60z m-6 -45 c0 -8 -161 -101 -174
-101 -8 0 -56 85 -56 98 0 7 39 31 87 56 l87 43 28 -44 c15 -24 28 -48 28 -52z
m323 38 l26 -45 -22 -14 c-57 -36 -191 -110 -198 -110 -4 0 -21 23 -37 52
l-30 52 26 16 c15 9 61 35 103 58 l76 42 27 -51 c16 -28 30 -48 33 -45 3 3 -6
25 -21 50 -25 43 -35 70 -18 51 5 -6 20 -30 35 -56z m333 10 c14 -28 21 -48
15 -44 -6 3 -11 0 -11 -7 0 -7 -46 -40 -103 -72 -56 -33 -158 -92 -226 -132
l-125 -74 -29 53 c-23 43 -26 55 -17 71 10 16 9 18 -4 13 -23 -9 -20 0 5 14
15 8 19 8 15 0 -12 -19 5 -12 87 35 87 50 81 51 118 -19 11 -22 23 -36 26 -33
3 3 -7 26 -22 51 -15 26 -24 49 -22 52 3 3 18 -18 32 -47 14 -29 29 -50 31
-47 3 3 -5 25 -18 49 -12 23 -23 48 -23 53 0 6 -3 13 -8 16 -4 3 11 15 33 28
22 12 40 20 40 17 0 -3 -14 -13 -31 -21 -17 -9 -29 -19 -26 -21 3 -3 49 20
103 50 55 31 102 56 106 56 4 0 17 -18 28 -41 12 -23 24 -38 27 -35 3 3 -4 21
-16 41 -22 37 -24 45 -16 45 2 0 16 -23 31 -51z m-136 16 c0 -2 -13 -11 -30
-20 -38 -19 -40 -11 -2 9 31 17 32 18 32 11z m-1493 -47 c27 -25 35 -86 25
-193 l-7 -80 -215 -110 c-189 -97 -217 -114 -230 -143 -13 -28 -35 -44 -152
-103 -76 -38 -246 -125 -377 -194 -132 -68 -250 -127 -263 -130 -20 -5 -27 2
-56 60 -27 55 -36 65 -57 65 -14 0 -37 -7 -51 -16 -21 -14 -29 -15 -48 -5 -13
7 -34 11 -47 9 -20 -2 -25 -10 -27 -40 -3 -29 -9 -38 -33 -48 -52 -22 -55 -43
-14 -117 20 -36 35 -66 33 -68 -2 -1 -83 -43 -180 -94 l-177 -91 -25 42 c-13
24 -46 88 -73 143 -44 91 -48 106 -48 170 1 53 6 81 24 114 51 97 177 189 326
239 93 31 196 50 426 77 529 63 736 147 1013 414 71 68 134 121 147 123 35 5
61 -2 86 -24z m663 17 c0 -16 -153 -98 -164 -88 -14 14 -2 25 72 62 87 45 92
47 92 26z m93 -95 c36 -65 28 -65 -12 0 -17 28 -27 50 -23 50 4 0 20 -23 35
-50z m-25 -7 c17 -26 28 -51 26 -55 -9 -14 -163 -88 -167 -80 -2 4 -16 28 -31
54 l-27 47 78 40 c43 22 81 40 84 41 4 0 20 -21 37 -47z m321 -13 c30 -48 40
-74 22 -54 -14 15 -63 104 -58 104 3 0 19 -23 36 -50z m261 45 c0 -2 -18 -14
-40 -25 -22 -11 -40 -18 -40 -15 0 2 17 13 38 24 42 23 42 23 42 16z m348 -30
c-13 -12 -208 -125 -216 -125 -5 0 -12 6 -15 14 -4 10 29 34 106 79 91 53 114
62 120 50 5 -8 7 -16 5 -18z m-616 -49 c16 -31 17 -40 6 -48 -26 -17 -156 -88
-161 -88 -10 0 -69 114 -61 117 5 2 45 23 89 48 90 50 86 50 127 -29z m-578
47 c12 -12 -147 -90 -162 -79 -9 7 7 19 60 47 76 39 90 43 102 32z m756 -18
c0 -2 -13 -11 -30 -20 -38 -19 -40 -11 -2 9 31 17 32 18 32 11z m-659 -97 c11
-21 17 -38 15 -38 -6 0 -66 99 -66 108 1 11 29 -28 51 -70z m-3202 40 c-25
-49 -183 -284 -241 -362 -112 -147 -260 -328 -402 -491 -136 -156 -638 -665
-656 -665 -15 0 -25 111 -24 285 0 143 4 185 23 265 58 237 162 422 333 591
156 154 362 268 608 336 107 29 276 61 333 62 36 1 37 0 26 -21z m3179 -50
l22 -36 -86 -47 c-47 -26 -89 -43 -94 -39 -4 5 -20 32 -35 59 -16 30 -19 41
-8 29 10 -12 26 -36 36 -54 10 -18 20 -30 23 -27 3 3 -5 22 -18 44 -14 21 -28
43 -32 50 -4 8 19 25 71 51 86 44 76 46 121 -30z m-259 20 c-2 -2 -34 -19 -71
-38 -52 -27 -70 -32 -79 -23 -10 10 4 20 61 48 48 23 78 31 84 25 5 -5 8 -11
5 -12z m541 -40 c16 -29 30 -55 30 -58 -1 -7 -147 -90 -159 -90 -10 0 -76 109
-70 115 8 7 155 85 161 85 4 0 21 -24 38 -52z m260 47 c0 -2 -13 -11 -30 -20
-38 -19 -40 -11 -2 9 31 17 32 18 32 11z m79 -120 c1 -5 -13 13 -29 42 -17 29
-30 58 -30 65 1 14 59 -91 59 -107z m261 94 c0 -6 -5 -7 -12 -3 -7 5 -9 2 -6
-7 8 -21 -189 -136 -205 -120 -15 15 -5 24 100 86 86 50 123 63 123 44z m-305
-50 c15 -28 23 -54 19 -59 -5 -4 -45 -28 -89 -54 l-79 -46 -33 57 c-17 32 -31
59 -29 60 10 11 163 93 172 93 6 0 23 -23 39 -51z m-105 36 c0 -2 -29 -20 -64
-40 l-64 -36 34 -56 c29 -48 45 -87 30 -72 -16 16 -76 134 -69 136 4 2 35 19
68 38 65 37 65 37 65 30z m-669 -72 l30 -52 -64 -35 c-35 -20 -68 -36 -73 -36
-6 0 -24 25 -41 55 l-32 55 67 35 c37 18 71 33 75 32 5 -1 22 -26 38 -54z
m-242 13 c-7 -6 -128 -66 -134 -66 -3 0 -5 6 -5 13 0 17 122 78 134 66 5 -5 8
-10 5 -13z m541 -52 c18 -30 30 -57 28 -60 -3 -2 -18 20 -34 48 -35 64 -37 68
-31 68 3 0 20 -25 37 -56z m-20 -10 c17 -31 28 -60 23 -64 -4 -4 -38 -23 -75
-44 l-67 -37 -24 38 c-49 78 -50 81 -25 97 30 19 121 65 130 66 3 0 20 -25 38
-56z m277 -25 c18 -30 33 -58 33 -64 0 -10 -139 -95 -156 -95 -5 0 -22 25 -38
56 -34 65 -37 61 67 116 31 17 55 33 53 36 -3 2 -40 -15 -83 -39 -43 -23 -74
-38 -70 -33 15 16 142 84 152 80 5 -1 24 -27 42 -57z m-713 -5 c26 -47 33 -66
17 -48 -17 19 -65 107 -54 101 6 -4 23 -28 37 -53z m6 -64 c0 -6 -121 -73
-124 -68 -2 1 -16 25 -31 51 -15 26 -30 46 -32 43 -3 -3 6 -25 21 -50 38 -65
31 -71 -8 -7 -39 63 -39 64 50 109 l59 30 33 -51 c17 -28 32 -54 32 -57z m975
77 c0 -23 -176 -128 -192 -115 -7 6 -13 16 -13 22 0 6 8 2 16 -9 16 -20 16
-20 10 2 -6 19 4 28 76 71 86 52 103 57 103 29z m-1235 1 c0 -17 -94 -63 -109
-54 -6 4 -11 2 -11 -4 0 -6 -4 -8 -10 -5 -5 3 -10 0 -10 -8 0 -16 -75 -52 -99
-48 -7 1 -10 -2 -6 -8 3 -6 1 -11 -4 -11 -6 0 -11 7 -11 16 0 9 27 27 68 46
37 18 69 34 72 37 8 10 94 50 108 50 6 1 12 -5 12 -11z m535 -93 c15 -27 21
-43 13 -35 -9 8 -28 38 -43 65 -16 28 -21 43 -13 35 8 -8 27 -37 43 -65z m-32
6 l36 -60 -65 -35 c-36 -20 -69 -36 -74 -36 -8 0 -70 100 -70 113 0 6 121 77
131 77 4 0 23 -27 42 -59z m257 44 c0 -2 -13 -11 -30 -20 -38 -19 -40 -11 -2
9 31 17 32 18 32 11z m-694 -57 c15 -23 27 -49 28 -57 1 -9 -21 -28 -49 -43
l-50 -27 -32 52 c-18 28 -33 54 -33 58 0 9 81 58 97 59 7 0 25 -19 39 -42z
m734 -28 c16 -33 30 -63 30 -67 0 -10 -69 109 -70 120 0 19 12 2 40 -53z m-23
-8 l32 -57 -76 -43 c-41 -24 -76 -42 -78 -40 -17 18 -64 112 -60 119 4 5 20
16 37 25 16 8 28 18 25 21 -3 2 -15 0 -26 -7 -12 -6 -21 -8 -21 -6 0 3 14 13
31 22 17 8 28 11 25 5 -10 -15 4 -13 34 4 14 8 30 14 35 15 6 0 25 -26 42 -58z
m253 19 c9 -17 0 -25 -70 -66 -75 -44 -100 -49 -100 -21 0 8 128 94 157 105 1
1 7 -8 13 -18z m-642 -113 c7 -7 17 -6 32 2 15 8 20 8 16 1 -12 -18 6 -12 59
19 28 16 53 30 57 30 6 0 68 -108 68 -120 0 -5 -124 -80 -134 -80 -10 0 -66
115 -62 127 6 16 1 16 -26 2 -15 -8 -19 -8 -14 0 4 6 3 11 -1 11 -9 0 -73 112
-73 126 0 5 16 -17 34 -49 18 -32 38 -63 44 -69z m-664 97 c4 -10 -7 -21 -34
-35 -48 -24 -52 -12 -9 24 36 30 35 30 43 11z m253 -101 c-5 -6 -67 95 -67
109 0 7 16 -14 35 -47 20 -32 34 -60 32 -62z m-53 49 l35 -57 -37 -22 c-20
-13 -43 -24 -49 -24 -13 0 -72 86 -73 106 0 7 57 43 87 53 1 1 17 -25 37 -56z
m405 3 c17 -29 31 -56 31 -59 0 -7 -105 -67 -118 -67 -10 0 -72 101 -72 118 0
9 98 60 117 61 6 1 25 -23 42 -53z m266 45 c-15 -13 -151 -86 -142 -76 8 9
138 84 147 85 2 0 0 -4 -5 -9z m420 -48 c-128 -114 -214 -177 -325 -240 -69
-39 -176 -100 -238 -137 -78 -45 -109 -60 -102 -46 6 11 8 25 5 30 -3 5 9 19
27 30 58 38 663 398 668 399 3 0 -13 -16 -35 -36z m-405 -39 c18 -30 30 -57
28 -60 -3 -2 -18 20 -34 48 -35 64 -37 68 -31 68 3 0 20 -25 37 -56z m-776
-53 c9 -17 14 -31 11 -31 -7 0 -65 103 -65 115 0 11 27 -32 54 -84z m-40 22
c31 -64 32 -64 -45 -103 l-36 -19 -26 55 c-15 30 -27 60 -27 67 0 12 73 55 95
56 6 1 23 -25 39 -56z m393 5 c35 -66 39 -76 25 -63 -20 19 -71 115 -62 115 5
0 22 -24 37 -52z m-20 -19 c18 -30 33 -57 33 -61 0 -9 -86 -58 -102 -58 -12 0
-84 118 -76 124 22 18 95 55 103 53 5 -2 24 -28 42 -58z m683 57 c0 -2 3 -13
6 -23 6 -16 5 -16 -10 2 -17 20 -17 20 -11 -1 5 -19 -5 -28 -62 -60 -92 -53
-105 -57 -115 -42 -6 9 -8 7 -4 -7 6 -20 -4 -28 -119 -88 -22 -11 -42 -24 -45
-28 -3 -4 -32 -23 -65 -43 -55 -33 -61 -35 -72 -19 -8 10 -13 12 -13 4 0 -7
-5 -9 -11 -5 -7 4 -9 0 -5 -14 6 -16 -3 -26 -44 -53 -28 -18 -57 -34 -64 -35
-7 -1 -23 -10 -34 -20 -12 -10 -58 -38 -102 -61 -66 -36 -84 -42 -100 -33 -11
6 -20 13 -20 15 0 3 18 14 40 25 37 19 40 19 49 2 7 -10 11 -12 11 -4 0 7 4
10 10 7 6 -4 9 3 7 16 -3 29 88 87 97 62 4 -9 9 -13 12 -10 3 3 0 16 -6 29
-11 22 -11 22 9 -2 l21 -25 -3 24 c-2 20 11 30 79 70 44 25 102 59 128 75 40
24 49 26 63 15 15 -12 16 -12 10 5 -7 17 -6 17 9 5 15 -12 16 -12 11 6 -7 22
0 29 92 77 44 23 56 26 69 16 13 -11 14 -10 9 7 -6 17 7 28 76 67 77 45 97 54
97 44z m-1186 -108 c15 -33 23 -64 19 -68 -4 -4 -136 -76 -293 -160 -157 -84
-322 -172 -367 -196 l-81 -44 -20 27 c-11 16 -29 46 -40 69 l-21 40 382 197
c210 108 385 196 388 197 4 0 18 -28 33 -62z m706 57 c0 -2 -23 -16 -51 -31
-28 -14 -48 -28 -45 -31 3 -3 26 7 51 22 26 14 52 24 58 22 7 -3 25 -31 41
-62 25 -47 27 -59 15 -65 -8 -5 -39 -24 -69 -44 -30 -19 -58 -32 -62 -30 -12
8 -70 115 -65 120 3 3 20 -22 38 -55 17 -34 34 -59 36 -57 3 3 -9 32 -27 65
-18 33 -29 64 -25 70 8 14 -1 14 -26 1 -10 -6 -19 -8 -19 -6 0 4 140 85 148
86 1 0 2 -2 2 -5z m69 -62 c17 -31 29 -58 27 -60 -4 -4 -66 100 -66 111 0 16
11 2 39 -51z m-389 -25 c17 -32 30 -58 27 -58 -5 0 -77 118 -77 128 0 12 18
-14 50 -70z m-27 0 l35 -63 -46 -27 c-25 -15 -49 -25 -53 -22 -9 5 -69 111
-69 122 0 7 76 50 92 51 3 1 22 -27 41 -61z m-135 -20 c6 -13 23 -43 38 -67
15 -24 22 -41 17 -38 -15 9 -84 127 -74 127 4 0 13 -10 19 -22z m317 12 c-3
-5 0 -10 7 -10 8 0 22 -15 32 -32 10 -18 27 -47 37 -64 l19 -31 -59 -32 -59
-31 -37 66 c-20 36 -35 67 -33 69 1 1 23 12 46 24 24 13 42 25 39 27 -3 3 -23
-4 -46 -15 -22 -12 -44 -21 -48 -21 -7 1 95 58 105 60 2 0 0 -4 -3 -10z m-317
-62 l39 -63 -54 -32 c-30 -18 -56 -33 -58 -33 -6 0 -75 117 -75 126 0 8 84 60
102 63 3 0 24 -27 46 -61z m-186 -41 c-10 -12 -15 -38 -13 -70 0 -10 12 -28
25 -40 l24 -22 -395 -219 c-216 -120 -396 -216 -399 -213 -3 2 11 14 31 26 19
11 38 27 41 35 3 9 -8 41 -25 73 -17 31 -28 60 -24 64 5 4 71 41 148 82 77 41
241 129 365 196 200 107 255 129 222 88z m358 28 c0 -2 -13 -11 -30 -20 -38
-19 -40 -11 -2 9 31 17 32 18 32 11z m75 -66 c20 -34 34 -64 31 -66 -2 -3 -10
6 -17 19 -6 12 -23 42 -36 66 -14 23 -22 42 -19 42 3 0 21 -28 41 -61z m-20
-10 c19 -33 35 -63 35 -67 0 -4 -22 -19 -48 -34 l-48 -27 -38 69 -37 69 23 14
c36 23 62 36 70 37 4 0 23 -27 43 -61z m-356 1 c36 -59 36 -56 14 -64 -21 -9
-63 31 -63 60 0 22 9 54 15 54 2 0 17 -23 34 -50z m231 35 c0 -2 -22 -16 -50
-30 -27 -14 -50 -23 -50 -20 0 2 21 16 48 29 53 28 52 28 52 21z m-1210 -75
c17 -33 30 -61 30 -64 0 -5 -229 -126 -239 -126 -3 0 -21 27 -40 61 -28 52
-31 63 -20 75 22 21 222 123 231 118 5 -3 22 -32 38 -64z m-192 11 c-15 -5
-21 7 -13 26 7 17 8 17 15 -2 4 -11 3 -22 -2 -24z m1418 -37 c20 -36 35 -67
32 -69 -2 -2 -20 28 -41 66 -21 38 -36 69 -33 69 3 0 22 -29 42 -66z m-21 -7
c19 -35 35 -66 35 -70 0 -6 -92 -59 -95 -55 -1 2 -21 27 -43 56 -23 30 -42 60
-42 68 0 17 -5 17 -33 3 -22 -10 -22 -10 -2 6 11 9 34 23 50 31 l30 15 -25
-20 c-34 -28 -14 -26 35 4 22 14 43 25 47 25 4 0 23 -29 43 -63z m-205 -12 c0
-3 -27 -18 -60 -35 -33 -17 -60 -28 -60 -25 0 2 26 18 58 34 64 34 62 33 62
26z m61 -37 c12 -18 34 -45 47 -60 14 -15 24 -29 21 -31 -2 -2 -24 -15 -49
-29 -357 -198 -924 -532 -926 -544 -2 -11 3 -14 14 -9 15 5 546 308 856 489
100 57 134 72 147 65 31 -16 81 -10 124 16 l43 24 11 -77 c48 -332 430 -562
778 -467 26 7 72 22 101 34 88 35 118 26 128 -41 9 -55 -29 -137 -99 -214
-162 -177 -392 -259 -807 -289 -240 -17 -359 -49 -474 -126 -118 -79 -187
-165 -361 -454 -101 -168 -217 -338 -302 -445 -98 -123 -315 -343 -407 -412
-308 -232 -704 -261 -1046 -77 -206 111 -281 227 -200 308 l30 30 203 -2 c235
-1 321 12 486 74 191 72 365 191 470 323 112 141 154 278 134 436 -14 107 -42
180 -150 384 -89 166 -99 191 -81 202 7 4 8 2 4 -4 -9 -15 -1 -15 25 -1 11 5
18 13 15 17 -2 4 8 8 23 9 23 2 31 -6 61 -64 44 -83 58 -93 105 -70 33 16 38
16 60 1 14 -9 33 -13 44 -9 21 6 38 46 27 63 -3 5 12 21 34 36 22 14 40 34 40
42 0 9 -18 49 -40 90 -37 65 -39 74 -24 82 24 13 28 46 6 37 -35 -15 -44 -8
-83 62 l-40 71 68 33 c79 38 103 56 97 73 -3 7 11 20 31 29 43 21 47 14 4 -8
-17 -9 -28 -19 -25 -22 3 -3 20 4 38 15 96 59 799 442 810 442 4 0 17 -15 29
-32z m-191 -33 c0 -2 -18 -14 -40 -25 -22 -11 -40 -18 -40 -15 0 2 17 13 38
24 42 23 42 23 42 16z m-770 -64 c18 -33 32 -63 32 -68 -1 -4 -54 -36 -119
-71 -111 -60 -118 -63 -131 -45 -28 38 -63 116 -55 124 12 12 216 119 229 119
5 0 25 -27 44 -59z m680 14 c0 -2 -18 -14 -40 -25 -22 -11 -40 -18 -40 -15 0
2 17 13 38 24 42 23 42 23 42 16z m-90 -50 c0 -2 -13 -11 -30 -20 -38 -19 -40
-11 -2 9 31 17 32 18 32 11z m-856 -103 c20 -35 36 -66 36 -68 0 -2 -19 -13
-42 -25 -33 -17 -46 -19 -60 -10 -44 27 -78 9 -78 -43 0 -18 -18 -32 -85 -70
-47 -26 -89 -45 -93 -42 -16 10 -76 139 -67 143 6 2 86 43 180 92 93 49 171
89 172 88 1 -1 17 -31 37 -65z m766 53 c0 -2 -18 -14 -40 -25 -22 -11 -40 -18
-40 -15 0 2 17 13 38 24 42 23 42 23 42 16z m-405 -82 c14 -26 24 -53 23 -61
-3 -14 -203 -131 -225 -132 -13 0 -65 81 -67 106 -1 15 222 145 236 138 3 -2
18 -25 33 -51z m315 32 c0 -2 -22 -16 -50 -30 -27 -14 -50 -23 -50 -20 0 2 21
16 48 29 53 28 52 28 52 21z m-110 -60 c0 -2 -18 -14 -40 -25 -22 -11 -40 -18
-40 -15 0 2 17 13 38 24 42 23 42 23 42 16z m-640 -66 c0 -5 -4 -9 -10 -9 -19
0 -25 -3 -37 -19 -11 -14 -12 -13 -13 6 0 12 8 26 17 31 18 11 43 5 43 -9z
m550 16 c0 -2 -13 -11 -30 -20 -38 -19 -40 -11 -2 9 31 17 32 18 32 11z m-373
-90 l41 -74 -120 -67 c-65 -36 -120 -65 -122 -63 -20 24 -86 152 -81 157 10
10 219 120 230 121 6 0 29 -33 52 -74z m-472 -4 l35 -70 -73 -39 c-185 -102
-795 -424 -849 -450 -3 -2 -25 32 -47 75 -23 43 -38 79 -34 81 5 1 213 108
463 237 250 129 458 235 462 235 4 0 23 -31 43 -69z m600 -21 c-9 -14 -66 -43
-72 -36 -6 5 56 46 70 46 5 0 5 -5 2 -10z m-417 -62 c6 -13 24 -46 41 -75 l30
-51 -44 -27 c-25 -14 -49 -23 -55 -20 -10 6 -80 135 -80 147 0 9 69 47 86 48
6 0 16 -10 22 -22z m342 -3 c0 -2 -22 -16 -50 -30 -27 -14 -50 -23 -50 -20 0
2 21 16 48 29 53 28 52 28 52 21z m60 -114 c11 -22 20 -44 20 -50 0 -5 -37
-30 -82 -57 -46 -26 -97 -56 -115 -66 l-31 -19 -42 77 c-26 45 -39 79 -33 85
5 5 58 36 118 68 l109 60 17 -29 c10 -16 27 -47 39 -69z m-483 9 c23 -43 39
-81 35 -83 -4 -3 -187 -102 -407 -222 -220 -119 -423 -230 -452 -246 l-51 -30
-47 82 c-25 45 -42 85 -38 89 4 4 136 75 293 158 157 83 359 191 450 240 91
50 167 90 170 91 3 0 24 -35 47 -79z m308 41 c-15 -14 -237 -132 -241 -128 -3
3 235 136 246 137 2 0 0 -4 -5 -9z m-95 -166 c22 -42 38 -80 35 -85 -6 -9 -78
-50 -89 -50 -5 0 -86 146 -86 154 0 4 83 52 97 56 0 0 20 -34 43 -75z m-1379
23 c9 -7 23 -25 32 -40 18 -29 15 -34 -38 -60 -63 -32 -71 -31 -94 7 l-21 36
-42 -22 c-74 -37 -79 -44 -60 -91 12 -30 13 -43 5 -45 -7 -3 -34 -22 -61 -44
-28 -21 -54 -39 -58 -39 -14 0 -70 112 -59 117 6 2 91 46 190 98 99 52 183 95
186 95 3 0 12 -6 20 -12z m1214 3 c-6 -4 -190 -106 -410 -226 -220 -120 -425
-232 -455 -248 -30 -17 -50 -25 -45 -19 6 6 156 90 335 188 179 97 381 208
450 245 124 68 143 77 125 60z m440 -1 c-8 -13 1 -13 24 -1 15 8 23 -1 54 -58
20 -38 37 -75 37 -83 0 -16 -193 -128 -221 -128 -13 0 -89 119 -89 140 0 3 38
28 85 54 47 26 83 52 79 57 -3 5 2 6 11 3 9 -4 15 -3 14 2 -2 14 0 24 7 24 3
0 2 -4 -1 -10z m-1761 -117 c14 -27 13 -28 -36 -56 -27 -16 -51 -27 -52 -25
-5 7 -26 59 -26 63 0 7 73 44 87 45 7 0 19 -12 27 -27z m228 -90 l39 -72 -28
-14 c-61 -31 -68 -30 -97 13 -14 22 -33 40 -41 40 -14 0 -35 29 -35 49 0 13
90 61 109 58 8 -1 32 -34 53 -74z m-502 -61 c36 -68 375 -687 425 -774 28 -51
29 -47 -20 -63 -8 -2 -21 2 -29 11 -27 26 -476 831 -476 852 0 12 39 42 55 42
5 0 26 -30 45 -68z m338 40 c13 -20 12 -22 -4 -28 -39 -14 -54 -35 -42 -58 7
-13 -1 -9 -25 14 -21 19 -37 39 -37 45 0 11 70 54 84 51 5 -1 16 -12 24 -24z
m1742 -12 c0 -24 -22 -35 -47 -26 -15 6 -15 8 -3 16 8 6 20 10 25 10 6 0 3 -5
-5 -10 -13 -8 -12 -10 3 -10 10 0 17 8 17 20 0 11 2 20 5 20 3 0 5 -9 5 -20z
m-1867 -31 c-21 -21 -146 -89 -152 -83 -3 4 -1 8 4 10 6 3 41 24 80 48 63 40
95 52 68 25z m196 -27 l19 -38 -47 -26 -47 -27 -12 33 c-17 48 -15 59 16 78
39 25 49 22 71 -20z m-183 9 c-4 -5 0 -11 6 -14 7 -2 -20 -21 -61 -41 -40 -21
-71 -39 -68 -42 2 -3 39 12 80 32 74 37 77 37 96 20 11 -10 18 -23 15 -27 -6
-11 -155 -99 -166 -99 -10 0 -29 36 -34 65 -3 17 1 25 16 30 11 4 17 11 14 17
-4 7 -2 8 4 4 15 -9 54 12 47 24 -4 6 1 7 11 3 11 -4 15 -3 10 5 -3 6 2 15 11
21 23 13 26 13 19 2z m383 -108 c23 -40 41 -77 41 -82 0 -6 -17 -19 -38 -30
l-38 -19 -23 44 c-13 24 -29 44 -36 44 -6 0 -19 16 -28 35 l-17 35 48 24 c26
13 48 23 49 23 1 -1 20 -34 42 -74z m-651 7 c10 -17 10 -20 -3 -20 -8 0 -15 2
-15 4 0 2 -3 11 -6 20 -9 23 9 20 24 -4z m522 -41 c0 -15 -30 -23 -43 -10 -18
18 -29 13 -17 -9 8 -15 6 -21 -10 -30 -16 -9 -22 -6 -37 17 -10 16 -13 28 -7
30 5 2 26 14 45 28 l34 24 18 -21 c9 -11 17 -24 17 -29z m-235 -10 c-104 -61
-108 -63 -104 -50 5 14 137 89 159 90 8 1 -17 -17 -55 -40z m109 -17 c5 -8
-163 -96 -170 -89 -4 4 144 93 158 96 4 0 9 -3 12 -7z m184 -37 l21 -44 -41
-25 c-23 -14 -43 -24 -44 -23 -1 1 -14 22 -28 47 l-25 45 42 22 c23 12 44 22
48 23 3 0 15 -20 27 -45z m-179 1 c-9 -9 -173 -88 -166 -80 12 13 161 90 166
87 2 -2 2 -5 0 -7z m60 -38 c3 1 6 -5 6 -14 0 -10 -34 -36 -88 -67 -48 -27
-86 -52 -83 -54 3 -3 20 4 38 15 36 22 158 73 158 66 0 -2 -43 -24 -97 -49
-53 -25 -94 -47 -91 -50 2 -3 45 13 94 35 49 22 94 40 99 40 6 0 55 25 109 55
55 30 101 53 103 51 8 -8 -251 -144 -350 -185 -15 -6 -26 -15 -23 -19 2 -4 -4
-8 -15 -8 -10 0 -19 5 -19 11 0 5 -14 30 -30 55 -16 25 -30 48 -30 53 0 4 39
27 88 51 81 40 88 42 106 27 10 -9 21 -15 25 -13z m310 -80 l42 -77 -28 -15
c-29 -14 -29 -14 -57 35 -15 27 -33 49 -40 49 -12 0 -46 41 -46 54 0 10 75 44
81 38 3 -4 25 -42 48 -84z m-654 4 c-8 -8 -25 10 -25 26 0 13 2 13 14 -4 8
-10 13 -21 11 -22z m526 7 c7 -14 7 -25 1 -31 -7 -7 -12 -3 -17 11 -3 12 -11
19 -16 15 -6 -3 -6 -12 0 -22 7 -12 3 -21 -16 -35 -26 -21 -25 -21 -42 10 -15
30 -15 30 27 52 47 25 49 25 63 0z m-111 -38 c0 -12 -190 -113 -204 -108 -6 2
7 13 29 24 22 12 67 37 99 57 62 37 76 42 76 27z m182 -45 l27 -45 -44 -25
-44 -24 -21 35 c-11 19 -20 40 -20 48 0 14 48 54 65 55 6 0 22 -20 37 -44z
m-192 -9 c-14 -6 -60 -28 -102 -48 -43 -21 -78 -35 -78 -31 0 9 170 91 190 91
8 0 4 -5 -10 -12z m64 -22 c9 -13 16 -26 16 -29 0 -5 -203 -116 -213 -116 -6
0 -37 54 -37 64 0 11 186 104 211 106 4 0 14 -11 23 -25z m275 -64 c17 -32 31
-68 31 -79 0 -16 -40 -42 -185 -121 -102 -56 -189 -101 -193 -101 -5 0 -19 19
-32 43 -12 23 -17 36 -9 30 30 -29 76 -2 64 37 -8 27 -49 26 -69 -1 -14 -20
-15 -20 -24 -2 -9 17 2 25 101 78 l111 58 15 -23 c42 -63 41 -63 99 -35 60 28
65 44 30 106 -23 39 -23 40 -4 54 11 8 23 15 27 15 3 0 20 -27 38 -59z m-119
24 c-33 -19 -49 -19 -24 0 10 8 26 14 34 14 9 0 4 -6 -10 -14z m-135 -15 c-4
-6 -52 -33 -108 -61 -126 -63 -120 -54 11 17 110 60 105 58 97 44z m170 -27
c14 -21 25 -43 25 -48 0 -6 -18 -21 -39 -33 l-40 -23 -25 38 c-14 21 -26 42
-26 48 0 7 62 51 77 55 1 0 14 -17 28 -37z m-557 7 c7 -11 8 -20 2 -20 -5 0
-14 9 -20 20 -6 11 -7 20 -3 20 5 0 14 -9 21 -20z m408 -9 c-5 -8 -172 -104
-208 -119 -5 -2 -8 3 -8 11 0 8 45 38 108 70 104 53 121 59 108 38z m23 -25
c-9 -8 -224 -119 -217 -112 11 13 213 123 217 120 2 -2 2 -6 0 -8z m-921 -111
c25 -52 26 -55 12 -55 -10 0 -50 71 -50 90 0 23 17 7 38 -35z m-32 -20 c13
-33 13 -39 -3 -65 -9 -17 -20 -30 -24 -30 -9 0 -54 77 -63 108 -7 20 -4 22 34
22 38 0 42 -3 56 -35z m628 -27 c6 -4 7 -10 3 -15 -10 -9 -27 16 -26 37 1 13
1 13 6 0 3 -8 11 -18 17 -22z"/>
<path d="M10975 6870 c-3 -6 2 -21 13 -35 14 -18 22 -21 31 -12 6 6 11 18 10
27 0 10 -2 11 -6 3 -8 -20 -23 -15 -23 7 0 21 -15 27 -25 10z"/>
<path d="M10935 6841 c-4 -7 -3 -16 2 -20 5 -3 14 -14 20 -24 9 -16 11 -17 22
-3 11 13 11 16 -3 16 -9 0 -20 10 -25 22 -6 16 -10 18 -16 9z"/>
<path d="M10880 6793 c1 -5 7 -19 15 -33 12 -21 14 -22 15 -6 0 12 5 16 15 13
8 -4 17 -2 20 3 4 6 -6 15 -20 20 -31 12 -45 13 -45 3z"/>
<path d="M10820 6756 c0 -20 37 -62 46 -53 4 4 -2 14 -14 23 -23 16 -29 34
-12 34 6 0 10 -6 10 -14 0 -12 20 -26 36 -26 9 0 3 20 -12 34 -19 20 -54 21
-54 2z"/>
<path d="M10757 6703 c-13 -12 -7 -50 9 -63 12 -11 18 -11 30 2 13 13 12 15
-8 14 -19 -1 -23 4 -21 27 2 28 1 31 -10 20z"/>
<path d="M10720 6662 c0 -5 10 -17 22 -28 l21 -19 -18 28 c-18 28 -25 33 -25
19z"/>
<path d="M10633 6608 c-56 -43 -67 -74 -37 -98 12 -11 18 -10 31 3 15 15 15
16 -5 10 -30 -7 -40 22 -17 48 18 19 19 19 42 -3 25 -24 32 -14 8 12 -14 15
-14 19 -1 30 13 10 17 8 27 -14 l12 -26 18 21 c10 12 24 18 31 14 7 -3 0 5
-17 19 -16 14 -32 26 -35 26 -3 0 -29 -19 -57 -42z"/>
<path d="M10532 6527 c-9 -10 -8 -19 4 -35 28 -40 -5 -58 -37 -19 -10 12 -18
18 -18 12 0 -5 8 -20 19 -33 l19 -23 30 22 c30 22 30 23 11 36 -21 15 -27 43
-9 43 6 0 9 -7 5 -15 -3 -8 -1 -15 5 -15 14 0 7 32 -7 37 -6 2 -16 -2 -22 -10z"/>
<path d="M10444 6455 c-4 -8 1 -27 11 -41 17 -26 18 -26 55 4 3 3 -6 1 -19 -3
-20 -6 -23 -4 -18 9 4 11 1 16 -10 16 -13 0 -13 3 -3 15 9 11 9 15 1 15 -6 0
-14 -7 -17 -15z"/>
<path d="M10409 6714 c-10 -13 -10 -17 2 -25 10 -6 15 -3 17 11 2 11 9 20 15
20 22 0 40 -18 34 -34 -4 -9 -2 -16 3 -16 16 0 12 -17 -6 -24 -8 -3 -26 1 -40
10 -28 19 -32 5 -6 -19 23 -21 36 -21 56 -1 19 18 21 65 4 82 -17 17 -63 15
-79 -4z"/>
<path d="M8473 5724 c-3 -8 1 -22 9 -30 12 -12 17 -12 33 0 16 12 17 16 6 30
-17 20 -40 21 -48 0z"/>
<path d="M7800 5365 c-18 -21 -4 -47 22 -43 29 4 35 34 10 47 -15 8 -23 7 -32
-4z"/>
<path d="M7181 5026 c-15 -18 -4 -46 19 -46 23 0 44 26 36 45 -7 19 -40 20
-55 1z"/>
<path d="M6562 4871 c-21 -13 -10 -46 16 -49 27 -4 40 22 22 43 -14 17 -20 18
-38 6z"/>
<path d="M6720 4595 c-11 -13 -11 -19 3 -32 21 -21 49 -9 45 19 -4 28 -30 35
-48 13z"/>
<path d="M5163 4584 c-7 -18 6 -45 24 -51 6 -2 18 3 27 12 12 12 13 21 6 36
-13 23 -48 25 -57 3z m45 -17 c2 -10 -3 -17 -12 -17 -18 0 -29 16 -21 31 9 14
29 6 33 -14z"/>
<path d="M4092 4068 c-30 -30 1 -73 36 -51 23 14 25 29 7 47 -20 19 -27 20
-43 4z m38 -22 c0 -20 -19 -31 -32 -18 -6 6 -7 15 -4 21 10 16 36 13 36 -3z"/>
<path d="M3276 3765 c-20 -21 -5 -55 25 -55 24 0 36 27 22 48 -14 23 -29 25
-47 7z m40 -16 c10 -17 -13 -36 -27 -22 -12 12 -4 33 11 33 5 0 12 -5 16 -11z"/>
<path d="M5964 4356 c-9 -24 4 -48 23 -44 12 2 18 12 18 28 0 29 -32 41 -41
16z"/>
<path d="M5420 4055 c-17 -20 -5 -45 20 -45 11 0 23 7 26 15 6 15 -11 45 -26
45 -4 0 -13 -7 -20 -15z"/>
<path d="M5214 3425 c-9 -23 3 -45 24 -45 11 0 25 7 32 15 16 19 -3 45 -32 45
-10 0 -21 -7 -24 -15z m46 -9 c0 -8 -5 -18 -11 -22 -14 -8 -33 11 -25 25 10
16 36 13 36 -3z"/>
<path d="M6197 2984 c-15 -16 -7 -53 14 -59 27 -9 42 6 37 36 -3 24 -36 38
-51 23z m43 -29 c0 -8 -9 -15 -20 -15 -11 0 -20 7 -20 15 0 8 9 15 20 15 11 0
20 -7 20 -15z"/>
<path d="M5717 2644 c-13 -13 -7 -52 8 -58 27 -10 46 5 43 33 -3 26 -35 41
-51 25z m41 -27 c2 -12 -3 -17 -17 -17 -12 0 -21 6 -21 13 0 31 32 34 38 4z"/>
<path d="M3960 2326 c-27 -33 18 -72 48 -42 13 13 14 20 6 34 -15 23 -38 26
-54 8z m36 -31 c-5 -14 -9 -15 -21 -5 -12 10 -13 16 -4 27 15 18 34 1 25 -22z"/>
<path d="M4594 2145 c-9 -23 3 -45 24 -45 25 0 44 23 36 44 -8 20 -53 21 -60
1z m46 -15 c0 -11 -6 -20 -14 -20 -18 0 -29 16 -21 30 11 18 35 11 35 -10z"/>
<path d="M3968 1744 c-56 -30 -73 -104 -38 -162 53 -87 186 -59 205 42 18 93
-84 166 -167 120z m102 -19 c20 -10 33 -28 41 -54 10 -34 9 -44 -8 -72 -37
-65 -128 -61 -160 7 -19 39 -11 76 22 110 28 28 63 31 105 9z"/>
<path d="M3400 1365 c-20 -25 -8 -50 25 -50 21 0 31 5 33 18 4 21 -14 47 -33
47 -7 0 -18 -7 -25 -15z m39 -9 c9 -10 8 -16 -4 -26 -20 -16 -38 -1 -29 23 8
21 18 22 33 3z"/>
<path d="M3598 1354 c-56 -30 -73 -104 -38 -162 46 -74 155 -70 195 8 53 102
-57 209 -157 154z m101 -19 c56 -29 64 -103 16 -151 -56 -56 -155 -4 -155 81
0 35 50 85 85 85 14 0 39 -7 54 -15z"/>
<path d="M2657 1249 c-36 -21 -14 -75 27 -65 19 5 26 13 26 31 0 29 -28 47
-53 34z m38 -19 c4 -6 1 -18 -6 -26 -11 -13 -14 -13 -27 0 -8 8 -11 19 -8 25
9 14 33 14 41 1z"/>
<path d="M3040 1213 c-82 -25 -115 -103 -73 -174 17 -29 67 -59 97 -59 60 0
116 57 116 117 0 68 -80 135 -140 116z m63 -24 c70 -36 76 -135 11 -169 -85
-46 -176 45 -130 129 24 44 77 62 119 40z"/>
<path d="M3650 1045 c-19 -23 -8 -50 22 -53 19 -2 28 2 33 18 12 39 -29 66
-55 35z m43 -11 c9 -10 -4 -34 -18 -34 -17 0 -28 17 -20 30 7 11 28 13 38 4z"/>
<path d="M2022 2684 c-26 -18 -27 -24 -9 -48 13 -18 15 -18 40 -1 31 20 35 40
9 54 -14 7 -25 6 -40 -5z m28 -13 c0 -12 -20 -25 -27 -18 -7 7 6 27 18 27 5 0
9 -4 9 -9z"/>
<path d="M2188 2779 c-10 -6 -18 -14 -18 -19 0 -14 37 -12 46 1 10 17 -9 29
-28 18z"/>
<path d="M2317 2603 c-13 -12 -7 -23 13 -23 11 0 20 7 20 15 0 15 -21 21 -33
8z"/>
<path d="M2442 2407 c-8 -9 -6 -16 7 -24 22 -14 46 -1 38 21 -8 19 -31 21 -45
3z"/>
<path d="M2580 2225 c-10 -12 -10 -19 -2 -27 13 -13 42 6 42 28 0 19 -24 18
-40 -1z"/>
<path d="M2681 2076 c-9 -10 -8 -16 3 -25 10 -9 16 -8 25 3 9 10 8 16 -3 25
-10 9 -16 8 -25 -3z"/>
</g>
</svg>
