<?xml version="1.0" standalone="no"?>
<!DOCTYPE svg PUBLIC "-//W3C//DTD SVG 20010904//EN"
 "http://www.w3.org/TR/2001/REC-SVG-20010904/DTD/svg10.dtd">
<svg version="1.0" xmlns="http://www.w3.org/2000/svg"
 width="789.636740pt" height="859.817440pt" viewBox="0 0 789.636740 859.817440"
 preserveAspectRatio="xMidYMid meet">
<metadata>
Created by potrace 1.12, written by Peter Selinger 2001-2015
</metadata>
<g transform="translate(-399.409024,968.844048) scale(0.100000,-0.100000)"
fill="#000000" stroke="none">
<path d="M5496 9670 c-69 -27 -113 -73 -133 -138 -10 -30 -22 -56 -28 -58 -6
-3 -28 2 -50 9 -34 12 -41 19 -47 53 -9 42 -39 74 -69 74 -11 0 -42 -11 -70
-26 -52 -26 -87 -78 -75 -113 43 -136 95 -166 162 -95 30 31 38 35 67 29 68
-15 67 -11 30 -152 -19 -70 -36 -134 -38 -140 -6 -17 -25 -16 -69 2 -31 13
-36 20 -36 49 0 25 -7 40 -26 55 -15 12 -33 21 -41 21 -19 0 -107 -45 -122
-63 -24 -30 -24 -80 3 -139 20 -46 30 -57 55 -63 43 -9 67 1 90 40 l20 34 48
-16 c26 -9 49 -17 50 -17 2 -2 -41 -169 -73 -283 l-14 -52 -48 17 c-44 17 -47
20 -53 61 -9 69 -52 85 -128 47 -51 -26 -81 -65 -81 -105 0 -26 34 -103 51
-118 35 -28 100 -16 118 23 12 28 31 29 93 5 l26 -10 -19 -61 c-10 -34 -19
-79 -19 -100 0 -52 38 -89 153 -146 l90 -46 -7 -361 c-3 -199 -11 -555 -16
-792 -25 -1037 -30 -1301 -41 -1820 -6 -302 -13 -601 -17 -664 l-7 -114 -37
-19 c-81 -42 -158 -32 -229 31 -95 83 -136 210 -147 457 -7 153 -9 163 -35
203 -17 25 -26 49 -22 60 7 23 -9 36 -62 51 -47 14 -73 3 -73 -29 0 -11 -14
-21 -43 -28 -99 -27 -180 -126 -225 -276 -30 -100 -41 -331 -23 -473 15 -114
65 -313 135 -535 78 -252 91 -366 61 -564 -23 -151 -67 -280 -170 -495 -167
-352 -215 -507 -222 -731 -7 -184 10 -276 72 -404 102 -212 296 -348 625 -440
75 -20 168 -39 370 -73 51 -9 46 -9 -60 -11 -229 -2 -872 -42 -1060 -66 -58
-7 -95 -13 -84 -14 12 0 115 -8 230 -16 633 -46 1753 -46 2498 0 224 14 256
18 245 30 -18 17 -615 55 -900 56 -107 1 -219 4 -249 8 l-55 7 75 7 c112 11
312 55 409 89 371 131 545 350 568 713 7 115 -7 236 -42 376 -33 131 -67 215
-200 484 -127 256 -154 327 -162 431 -7 89 6 144 69 296 70 169 92 267 92 413
1 71 -5 143 -13 175 -54 216 -204 331 -323 248 -31 -22 -52 -85 -63 -185 -10
-107 -32 -161 -84 -213 -36 -36 -59 -50 -100 -60 -88 -21 -185 4 -238 62 -21
22 -21 34 -32 488 -58 2427 -74 3149 -75 3470 l-1 315 30 60 c27 53 37 64 93
93 92 49 92 49 33 281 -85 338 -90 500 -16 561 71 59 72 213 2 288 -61 66
-197 90 -291 52z m142 -7 c-15 -2 -42 -2 -60 0 -18 2 -6 4 27 4 33 0 48 -2 33
-4z m-430 -85 c7 -7 12 -26 12 -44 0 -37 9 -45 72 -69 47 -17 58 -40 14 -29
-13 3 -40 6 -60 7 -33 2 -39 -2 -59 -38 -16 -29 -30 -41 -49 -43 -40 -5 -61
11 -82 63 -27 67 -15 112 39 142 44 25 94 30 113 11z m343 -195 c10 -11 14
-45 14 -102 0 -47 1 -179 3 -292 l2 -206 28 5 c36 5 53 -16 56 -69 1 -26 8
-44 19 -51 24 -13 21 -23 -10 -43 -22 -14 -30 -15 -46 -6 -12 8 -23 9 -29 3
-13 -13 7 -385 21 -390 15 -5 14 -32 0 -32 -9 0 -10 -36 -5 -132 4 -73 7 -220
7 -325 -1 -146 2 -193 11 -193 8 0 9 -3 1 -11 -14 -14 -4 -281 11 -291 8 -5 7
-8 -2 -8 -10 0 -12 -29 -9 -137 2 -76 5 -202 5 -280 1 -105 5 -143 14 -147 10
-5 10 -7 1 -12 -9 -4 -13 -39 -13 -123 0 -80 4 -121 13 -130 7 -8 8 -15 2 -17
-15 -6 -7 -236 8 -247 9 -7 9 -10 0 -14 -20 -8 -18 -192 3 -221 8 -12 10 -22
5 -22 -17 0 -15 -220 2 -221 10 0 10 -2 0 -6 -9 -3 -13 -33 -13 -100 0 -80 3
-98 18 -109 14 -11 14 -13 2 -14 -13 0 -14 -16 -11 -97 2 -59 8 -101 15 -105
8 -6 8 -8 -1 -8 -10 0 -13 -25 -13 -90 0 -79 2 -90 18 -90 16 -1 16 -2 -2 -15
-16 -12 -18 -25 -14 -91 2 -53 8 -79 17 -82 11 -4 11 -6 0 -12 -16 -10 -13
-141 4 -153 9 -6 9 -10 0 -14 -9 -3 -13 -28 -13 -74 0 -59 3 -69 18 -69 16 -1
16 -1 0 -14 -14 -10 -18 -28 -18 -70 0 -47 3 -56 18 -56 16 -1 15 -2 -2 -15
-15 -12 -17 -22 -12 -57 4 -23 12 -48 18 -55 7 -9 7 -13 -1 -13 -16 0 -15
-107 2 -114 10 -5 10 -7 0 -12 -8 -3 -13 -25 -13 -55 0 -31 4 -48 10 -44 6 3
10 1 10 -4 0 -6 -4 -11 -10 -11 -5 0 -10 -22 -10 -50 0 -39 4 -50 16 -50 8 0
12 -5 9 -10 -4 -6 -11 -8 -16 -5 -5 4 -9 -20 -9 -54 0 -65 9 -74 42 -44 10 9
18 30 18 47 0 58 9 62 99 41 92 -21 148 -17 235 15 131 49 197 154 225 354 7
48 17 76 31 90 19 19 22 20 48 6 64 -37 108 -184 99 -335 -7 -115 -32 -210
-96 -362 -86 -207 -95 -332 -36 -510 14 -43 77 -181 140 -308 170 -343 225
-522 225 -730 0 -269 -130 -485 -362 -600 -120 -59 -186 -70 -223 -35 -38 36
-32 69 39 204 93 175 119 264 120 401 1 103 -1 114 -30 175 -76 162 -177 210
-436 210 l-108 0 0 -158 c0 -88 3 -227 7 -310 l6 -152 38 0 c28 0 41 -5 49
-19 15 -29 13 -324 -2 -339 -7 -7 -34 -12 -62 -12 -47 0 -48 1 -33 18 11 12
17 36 17 70 0 51 -1 52 -30 52 -27 0 -30 3 -30 32 0 29 1 30 13 14 8 -11 23
-17 38 -14 19 2 25 10 27 35 2 19 -1 33 -7 33 -6 0 -11 -5 -11 -10 0 -11 -37
-9 -57 3 -18 11 -21 -1 -25 -105 -2 -88 -1 -99 17 -112 19 -15 19 -15 -6 -16
-15 0 -40 3 -57 6 -26 5 -29 9 -18 20 10 9 11 25 6 56 -5 24 -8 45 -8 48 0 3
-14 4 -31 2 -34 -4 -35 -3 -31 71 1 27 -2 47 -9 47 -16 0 -24 -64 -12 -106 6
-21 8 -55 5 -76 -5 -29 -3 -39 10 -44 31 -12 16 -19 -35 -15 -44 3 -48 5 -32
16 15 11 16 18 7 43 -7 17 -9 60 -6 101 3 47 1 71 -6 71 -6 0 -14 -9 -17 -21
-5 -16 -10 -18 -20 -9 -8 7 -18 9 -24 6 -5 -3 -11 -1 -13 6 -2 6 -10 8 -16 4
-15 -9 -16 -82 -2 -91 6 -3 10 3 10 14 0 17 6 21 35 21 28 0 35 -4 35 -19 0
-10 -6 -19 -12 -18 -29 1 -48 -3 -46 -10 1 -5 -1 -25 -6 -47 -5 -28 -3 -42 8
-55 13 -15 10 -16 -37 -12 -38 2 -47 5 -34 13 18 10 18 9 1 163 l-7 60 -9 -45
c-4 -25 -16 -52 -27 -60 -26 -21 -36 -94 -15 -114 14 -15 11 -16 -38 -15 -29
0 -46 3 -38 6 8 3 18 11 22 17 9 12 0 65 -12 81 -4 6 -11 38 -15 73 -8 71 -28
81 -33 16 -1 -21 -7 -68 -13 -103 -10 -62 -9 -66 13 -83 22 -17 22 -18 3 -18
-44 0 -46 7 -43 191 l3 174 61 3 62 3 6 142 c3 78 7 217 9 308 l3 167 -101 4
c-83 3 -108 8 -150 30 -103 53 -145 130 -152 273 -6 117 19 240 98 482 137
421 158 614 93 859 -41 153 -40 149 -4 185 30 31 34 32 93 26 35 -3 75 -11 91
-17 l29 -10 -7 -108 c-3 -59 -7 -166 -8 -239 -2 -109 0 -134 14 -150 9 -10 18
-27 21 -38 3 -11 5 35 5 102 0 68 4 128 8 134 3 6 0 16 -7 21 -11 7 -11 11 -1
15 7 3 12 23 12 48 0 25 -5 46 -12 49 -10 5 -10 7 0 12 16 8 17 114 0 114 -9
0 -9 3 0 12 16 16 16 118 0 118 -10 0 -10 2 0 9 9 6 13 28 11 73 -1 36 1 69 4
75 3 5 6 122 7 259 0 137 3 288 6 337 5 67 4 87 -6 87 -9 0 -10 3 -1 13 7 9
11 71 10 174 0 87 3 178 7 201 5 31 3 42 -6 42 -9 0 -10 3 -1 13 7 9 11 83 11
214 0 110 3 208 6 218 4 10 1 21 -7 27 -11 7 -11 11 -1 15 9 3 12 38 12 124 0
88 -3 119 -12 119 -9 0 -10 3 -2 8 16 10 28 262 13 262 -8 0 -9 4 0 13 7 9 11
85 10 229 0 119 3 238 7 267 4 35 3 56 -6 66 -9 11 -9 15 -1 15 8 0 12 43 12
153 1 361 11 773 20 782 5 5 9 -54 9 -153 l0 -162 30 0 30 0 0 166 0 165 -22
-1 c-46 -4 -78 0 -78 10 0 6 7 10 15 10 12 0 15 17 15 94 0 51 3 121 7 156 l6
62 -26 -17 c-34 -22 -71 -14 -93 20 -14 21 -14 30 -4 54 14 35 66 64 90 51 41
-22 43 -33 38 -229 l-6 -188 29 -1 29 -1 1 157 c1 86 5 238 9 337 6 164 7 150
8 -155 l1 -335 33 -1 33 -1 -3 216 c-4 212 -4 216 -28 242 -29 31 -30 45 -4
61 18 11 20 24 20 111 0 63 4 96 10 92 6 -3 10 -46 10 -94 0 -81 2 -89 25
-109 21 -19 24 -26 15 -43 -6 -11 -18 -23 -26 -26 -16 -6 -17 -53 -8 -293 l7
-155 29 1 c15 0 29 4 29 7 1 4 -2 94 -6 199 -6 158 -10 194 -23 204 -14 10
-14 13 2 29 14 15 17 29 12 74 -3 31 -8 162 -12 292 l-6 237 -39 -5 c-49 -7
-69 9 -69 55 0 65 75 109 111 65z m-443 -171 c7 -5 16 -28 20 -53 7 -42 10
-45 60 -63 28 -10 49 -22 46 -27 -6 -11 -84 -9 -84 3 0 23 -37 4 -55 -29 -25
-45 -45 -58 -78 -49 -49 12 -84 116 -57 167 22 40 115 72 148 51z m354 -189
c24 -22 23 -74 -2 -101 -42 -45 -120 -19 -120 40 0 60 79 100 122 61z m-458
-229 c9 -8 16 -32 16 -53 0 -37 2 -39 45 -51 54 -15 71 -32 50 -50 -9 -7 -15
-8 -15 -2 0 9 -50 26 -66 22 -4 -1 -10 4 -15 11 -5 9 -15 -3 -30 -35 -38 -78
-98 -70 -140 17 -20 40 -20 45 -6 79 26 61 124 99 161 62z m-274 -3542 c3 -3
-8 -2 -25 2 -16 4 -34 12 -40 17 -5 5 6 4 25 -2 19 -7 37 -14 40 -17z m-35
-66 c59 -25 68 -51 76 -214 12 -243 51 -372 144 -471 59 -63 113 -85 192 -79
32 3 67 9 78 13 18 8 19 7 5 -10 -57 -69 -186 -54 -283 35 -104 95 -155 246
-164 485 -7 188 -27 223 -119 212 -151 -17 -247 -259 -231 -585 8 -144 38
-287 110 -522 104 -340 101 -325 102 -525 0 -118 -5 -199 -13 -235 -35 -144
-71 -241 -157 -427 -111 -237 -139 -304 -171 -397 -29 -83 -64 -259 -65 -324
l-1 -47 -13 30 c-16 33 -12 104 11 220 29 140 78 274 179 485 163 340 198 468
198 715 0 177 4 153 -107 534 -87 295 -96 343 -103 537 -5 137 -2 186 11 255
41 202 136 316 274 328 7 1 28 -5 47 -13z m1686 -759 c37 -24 90 -97 107 -146
16 -45 8 -38 -26 22 -81 143 -189 158 -228 31 -11 -35 -12 -36 -13 -12 -1 15
6 45 15 67 25 62 85 78 145 38z m-261 -422 c-52 -54 -109 -77 -188 -77 -71 -1
-144 23 -171 55 -17 22 -13 21 45 -5 73 -32 172 -30 245 5 32 15 62 34 69 42
7 8 17 15 23 15 6 0 -4 -16 -23 -35z m-824 -2441 c-3 -9 -6 -20 -6 -25 0 -5
-7 -9 -15 -9 -18 0 -18 5 -5 31 13 23 35 26 26 3z m-116 -8 c0 -8 -5 -18 -11
-22 -14 -8 -33 11 -25 25 10 16 36 13 36 -3z m250 -6 c0 -21 -24 -28 -35 -10
-8 14 3 30 21 30 8 0 14 -9 14 -20z m138 -3 c2 -12 -3 -17 -17 -17 -12 0 -21
6 -21 13 0 31 32 34 38 4z m142 -7 c0 -11 -6 -20 -14 -20 -18 0 -29 16 -21 30
11 18 35 11 35 -10z m-202 -327 c-21 -2 -55 -2 -75 0 -21 2 -4 4 37 4 41 0 58
-2 38 -4z"/>
<path d="M5468 9359 c-23 -13 -23 -30 3 -63 23 -30 41 -33 63 -10 45 45 -10
106 -66 73z m60 -26 c-2 -10 -13 -19 -26 -21 -17 -3 -22 2 -22 17 0 16 6 21
26 21 19 0 25 -5 22 -17z"/>
<path d="M5582 8705 c-1 -37 1 -43 16 -38 44 16 55 46 25 69 -31 23 -40 16
-41 -31z"/>
<path d="M5640 8655 c0 -8 7 -15 16 -15 14 0 14 3 4 15 -7 8 -14 15 -16 15 -2
0 -4 -7 -4 -15z"/>
<path d="M5255 8590 c-9 -30 20 -70 50 -70 34 0 61 41 45 69 -15 30 -86 30
-95 1z m81 -1 c3 -6 -1 -18 -9 -27 -13 -13 -19 -13 -31 -2 -9 7 -16 19 -16 26
0 17 46 19 56 3z"/>
<path d="M5430 8035 l0 -165 40 0 40 0 0 165 0 165 -40 0 -40 0 0 -165z"/>
<path d="M5520 8035 l0 -165 35 0 35 0 0 165 0 165 -35 0 -35 0 0 -165z"/>
<path d="M5351 7700 l-2 -150 29 0 c18 0 32 6 36 16 3 9 6 76 6 150 l0 134
-34 0 -33 0 -2 -150z"/>
<path d="M5430 7700 l0 -150 40 0 40 0 0 150 0 150 -40 0 -40 0 0 -150z m60
-10 c0 -5 -9 -10 -20 -10 -11 0 -20 5 -20 10 0 6 9 10 20 10 11 0 20 -4 20
-10z"/>
<path d="M5522 7772 c-1 -42 0 -110 4 -149 l6 -73 34 0 35 0 -2 150 -1 150
-36 0 -37 0 -3 -78z"/>
<path d="M5350 7472 c0 -38 -3 -103 -6 -145 l-7 -77 36 0 35 0 7 63 c3 34 5
98 3 142 l-3 80 -32 3 -33 3 0 -69z"/>
<path d="M5430 7395 l0 -145 40 0 40 0 0 68 c0 41 -4 62 -9 54 -14 -23 -46
-10 -46 18 0 28 32 41 46 18 5 -8 9 15 9 60 l0 72 -40 0 -40 0 0 -145z"/>
<path d="M5530 7395 l0 -145 41 0 42 0 -7 61 c-3 34 -6 100 -6 145 l0 84 -35
0 -35 0 0 -145z"/>
<path d="M5430 7098 l0 -138 45 0 46 0 -3 136 -3 137 -43 1 -42 1 0 -137z"/>
<path d="M5530 7098 l0 -138 40 0 41 0 -3 136 -3 137 -38 1 -37 1 0 -137z"/>
<path d="M5340 7095 l0 -135 34 0 35 0 3 135 3 135 -37 0 -38 0 0 -135z"/>
<path d="M5336 6894 c-3 -26 -6 -84 -6 -130 l0 -84 40 0 40 0 0 130 0 130 -34
0 c-32 0 -34 -2 -40 -46z"/>
<path d="M5430 6841 c0 -54 -3 -113 -6 -130 l-6 -31 51 0 51 0 0 130 0 130
-45 0 -45 0 0 -99z"/>
<path d="M5530 6810 l0 -130 46 0 c43 0 46 2 40 23 -3 12 -6 70 -6 130 l0 107
-40 0 -40 0 0 -130z"/>
<path d="M5330 6530 l0 -130 40 0 40 0 0 130 0 130 -40 0 -40 0 0 -130z"/>
<path d="M5422 6530 l-4 -130 51 0 51 0 0 130 0 130 -47 0 -48 0 -3 -130z m85
14 c3 -8 -2 -23 -11 -32 -15 -15 -17 -15 -32 0 -21 21 -11 48 16 48 11 0 23
-7 27 -16z"/>
<path d="M5532 6533 l3 -128 43 -3 42 -3 0 130 0 131 -45 0 -46 0 3 -127z"/>
<path d="M5330 6362 c0 -16 -3 -70 -6 -120 l-7 -92 47 0 46 0 0 120 0 120 -40
0 c-37 0 -40 -2 -40 -28z"/>
<path d="M5420 6270 l0 -120 50 0 50 0 0 120 0 120 -50 0 -50 0 0 -120z"/>
<path d="M5530 6270 l0 -120 51 0 52 0 -7 77 c-3 42 -6 96 -6 120 l0 43 -45 0
-45 0 0 -120z"/>
<path d="M5320 6014 l0 -115 43 3 42 3 3 113 3 112 -46 0 -45 0 0 -116z"/>
<path d="M5420 6015 l0 -115 50 0 50 0 0 115 0 115 -50 0 -50 0 0 -115z m74
22 c23 -17 11 -47 -20 -47 -29 0 -41 24 -24 45 15 18 21 19 44 2z"/>
<path d="M5532 6018 l3 -113 47 0 48 0 0 113 0 112 -50 0 -51 0 3 -112z m78 2
c0 -5 -9 -10 -20 -10 -11 0 -20 5 -20 10 0 6 9 10 20 10 11 0 20 -4 20 -10z"/>
<path d="M5315 5795 c-4 -52 -5 -100 -2 -107 3 -9 19 -12 51 -10 l46 4 0 104
0 104 -44 0 -44 0 -7 -95z"/>
<path d="M5420 5780 l0 -110 50 0 50 0 0 110 0 110 -50 0 -50 0 0 -110z"/>
<path d="M5537 5883 c-9 -8 -9 -125 -1 -176 l7 -37 45 4 c26 2 48 9 50 16 2 6
1 54 -3 106 l-7 94 -42 0 c-24 0 -46 -3 -49 -7z"/>
<path d="M5310 5558 l0 -103 50 3 50 4 0 99 0 99 -50 0 -50 0 0 -102z"/>
<path d="M5420 5555 l0 -105 50 0 50 0 0 105 0 105 -50 0 -50 0 0 -105z m78
26 c21 -13 10 -46 -16 -49 -24 -4 -38 18 -28 43 6 17 24 19 44 6z"/>
<path d="M5537 5653 c-2 -5 -2 -52 1 -106 4 -81 7 -97 19 -93 8 3 30 6 49 6
l34 0 0 100 0 100 -49 0 c-28 0 -52 -3 -54 -7z"/>
<path d="M5308 5348 c-2 -51 -3 -95 -2 -98 1 -3 23 -4 47 -2 l46 4 3 94 3 94
-47 0 -46 0 -4 -92z"/>
<path d="M5420 5343 l0 -98 49 -3 48 -2 7 37 c3 21 6 66 6 101 l0 62 -55 0
-55 0 0 -97z"/>
<path d="M5540 5340 l0 -100 50 3 50 2 0 98 0 97 -50 0 -50 0 0 -100z"/>
<path d="M5300 5140 l0 -90 50 0 c41 0 50 3 50 18 0 9 3 28 7 42 6 22 5 23
-10 12 -24 -20 -57 -6 -57 24 0 20 5 24 29 24 16 0 31 -3 34 -7 2 -5 2 -2 0 5
-1 8 -3 25 -3 38 0 22 -4 24 -50 24 l-50 0 0 -90z"/>
<path d="M5420 5140 l0 -90 55 0 55 0 0 90 0 90 -55 0 -55 0 0 -90z m88 3 c4
-28 -34 -42 -55 -20 -23 23 -9 49 24 45 20 -2 29 -9 31 -25z"/>
<path d="M5540 5141 l0 -91 55 0 56 0 -3 88 -3 87 -52 3 -53 3 0 -90z m79 15
c9 -11 8 -18 -4 -30 -9 -9 -20 -16 -24 -16 -15 0 -33 30 -27 45 7 19 40 20 55
1z"/>
<path d="M5300 4950 l0 -90 50 0 50 0 0 90 0 90 -50 0 -50 0 0 -90z"/>
<path d="M5420 4949 l0 -90 53 3 52 3 3 88 3 87 -56 0 -55 0 0 -91z"/>
<path d="M5540 4950 l0 -90 55 0 55 0 0 90 0 90 -55 0 -55 0 0 -90z"/>
<path d="M5296 4798 c-12 -101 -13 -98 49 -98 l55 0 0 75 0 75 -49 0 -48 0 -7
-52z"/>
<path d="M5417 4823 c-3 -16 -3 -49 0 -75 l6 -48 53 0 54 0 0 75 0 75 -54 0
c-51 0 -54 -2 -59 -27z m88 -53 c0 -29 -34 -40 -54 -17 -18 23 -2 49 28 45 20
-2 26 -8 26 -28z"/>
<path d="M5540 4775 l0 -75 55 0 55 0 0 75 0 75 -55 0 -55 0 0 -75z"/>
<path d="M5290 4610 l0 -70 55 0 55 0 0 70 0 70 -55 0 -55 0 0 -70z"/>
<path d="M5410 4610 l0 -70 60 0 60 0 0 70 0 70 -60 0 -60 0 0 -70z"/>
<path d="M5540 4610 l0 -71 56 3 56 3 2 68 1 67 -57 0 -58 0 0 -70z"/>
<path d="M5290 4460 l0 -60 55 0 55 0 0 60 0 60 -55 0 -55 0 0 -60z"/>
<path d="M5410 4460 l0 -60 60 0 60 0 0 60 0 60 -60 0 -60 0 0 -60z"/>
<path d="M5548 4460 l4 -60 54 0 54 0 0 60 0 60 -57 0 -58 0 3 -60z"/>
<path d="M5290 4335 l0 -55 55 0 55 0 0 55 0 55 -55 0 -55 0 0 -55z"/>
<path d="M5417 4384 c-4 -4 -7 -29 -7 -56 l0 -48 60 0 60 0 0 53 0 54 -53 2
c-29 1 -56 -1 -60 -5z"/>
<path d="M5546 4381 c-3 -5 -3 -30 0 -55 l7 -46 53 0 54 0 0 49 c0 35 -4 51
-16 55 -24 9 -92 7 -98 -3z"/>
<path d="M6340 4291 c0 -27 19 -36 37 -18 18 18 9 37 -18 37 -12 0 -19 -7 -19
-19z"/>
<path d="M5280 4205 l0 -55 60 0 60 0 0 55 0 55 -60 0 -60 0 0 -55z"/>
<path d="M5410 4205 l0 -55 44 0 c69 0 76 5 76 61 l0 49 -60 0 -60 0 0 -55z
m95 1 c0 -30 -31 -44 -51 -24 -24 24 -11 50 23 46 20 -2 28 -9 28 -22z"/>
<path d="M5545 4208 l0 -53 58 -3 57 -3 0 56 0 55 -58 0 -58 0 1 -52z"/>
<path d="M5054 4239 c-9 -15 12 -33 30 -26 9 4 16 13 16 22 0 17 -35 21 -46 4z"/>
<path d="M5338 4133 l-58 -4 0 -44 0 -45 60 0 60 0 0 50 c0 28 -1 49 -2 48 -2
-1 -29 -3 -60 -5z"/>
<path d="M5414 4131 c-2 -2 -4 -25 -4 -50 l0 -46 60 3 60 4 0 39 c0 21 0 42 0
45 0 7 -109 11 -116 5z"/>
<path d="M5550 4085 l0 -45 61 0 c52 0 60 2 55 16 -3 9 -6 29 -6 45 0 29 -1
29 -55 29 l-55 0 0 -45z"/>
<path d="M5280 3970 l0 -50 60 0 60 0 0 50 0 50 -60 0 -60 0 0 -50z"/>
<path d="M5410 3970 l0 -50 60 0 60 0 0 50 0 50 -60 0 -60 0 0 -50z m85 0 c0
-16 -6 -26 -18 -28 -19 -4 -32 20 -23 44 9 25 41 13 41 -16z"/>
<path d="M5550 3970 l0 -50 60 0 60 0 0 50 0 50 -60 0 -60 0 0 -50z"/>
<path d="M5338 3903 l-58 -4 0 -54 0 -55 60 0 60 0 0 60 c0 33 -1 59 -2 58 -2
-1 -29 -3 -60 -5z"/>
<path d="M5438 3903 c-27 -4 -28 -7 -28 -59 l0 -54 65 0 c72 0 72 0 59 83 -7
40 -15 42 -96 30z"/>
<path d="M5588 3903 l-38 -4 0 -55 0 -54 60 0 60 0 0 60 c0 67 7 62 -82 53z"/>
<path d="M5774 3859 c-9 -15 12 -33 30 -26 9 4 16 13 16 22 0 17 -35 21 -46 4z"/>
<path d="M5254 3455 c0 -82 2 -115 3 -72 2 43 2 110 0 150 -1 40 -3 5 -3 -78z"/>
<path d="M5242 3164 l-2 -92 -81 -4 c-108 -4 -119 -17 -119 -133 0 -83 11
-114 43 -116 7 0 44 -1 84 -2 64 -2 73 0 77 18 10 34 7 80 -6 93 -9 9 -9 17 1
34 8 16 11 66 9 158 -3 104 -4 114 -6 44z m-132 -154 c0 -23 -25 -27 -33 -6
-7 16 1 26 20 26 7 0 13 -9 13 -20z"/>
<path d="M5261 2946 l0 -124 64 -4 63 -3 4 120 c3 66 3 123 1 128 -2 4 -33 7
-68 7 l-64 0 0 -124z"/>
<path d="M5409 2948 c-1 -285 0 -302 22 -320 13 -11 38 -18 65 -18 l44 0 2
133 c3 242 -1 290 -24 310 -13 10 -37 17 -64 17 l-44 0 -1 -122z m99 59 c2
-11 -3 -17 -16 -17 -20 0 -36 23 -24 34 11 12 37 1 40 -17z m2 -252 c17 -20 5
-45 -20 -45 -23 0 -35 22 -26 45 7 19 30 19 46 0z"/>
<path d="M6308 3053 c6 -2 12 -9 12 -14 0 -6 -6 -7 -12 -3 -9 5 -8 2 1 -10 9
-11 18 -13 24 -7 14 14 1 41 -20 40 -11 0 -13 -3 -5 -6z"/>
<path d="M5562 2740 l0 -130 63 0 63 0 0 130 0 130 -63 0 -64 0 1 -130z"/>
<path d="M5703 2745 l2 -126 92 -2 c127 -1 133 5 133 128 0 117 -2 119 -131
123 l-97 4 1 -127z"/>
<path d="M5233 2655 c0 -38 2 -53 4 -32 2 20 2 52 0 70 -2 17 -4 1 -4 -38z"/>
<path d="M6342 2688 c-36 -10 -72 -58 -72 -96 0 -37 28 -88 56 -101 57 -25
114 -10 139 39 47 91 -25 184 -123 158z m92 -30 c13 -13 28 -34 31 -48 l7 -25
-21 27 c-38 48 -92 46 -148 -5 -13 -11 -23 -17 -23 -13 0 16 31 66 47 75 31
18 80 12 107 -11z m21 -118 c-11 -18 -66 -41 -88 -37 -20 4 -20 4 3 6 14 0 39
10 55 20 36 23 38 24 30 11z"/>
<path d="M5247 2333 c-4 -75 -7 -214 -7 -310 l0 -173 70 0 70 0 0 108 c0 59 3
198 7 310 l6 202 -70 0 -70 0 -6 -137z"/>
<path d="M5400 2160 l0 -310 75 0 75 0 0 168 c0 92 -3 231 -7 310 l-6 142 -69
0 -68 0 0 -310z"/>
<path d="M5560 2160 l0 -310 70 0 70 0 0 258 c0 141 -3 281 -6 310 l-7 52 -63
0 -64 0 0 -310z"/>
<path d="M6444 2292 c-51 -41 -59 -113 -18 -161 36 -43 99 -44 144 -3 31 28
53 92 31 92 -6 0 -20 9 -31 20 -32 32 -91 27 -129 -11 -34 -33 -40 -25 -16 21
35 67 124 68 159 2 9 -15 15 -22 16 -15 0 6 -12 25 -26 42 -21 26 -33 31 -67
31 -25 0 -51 -8 -63 -18z m156 -103 c0 -15 -56 -69 -72 -69 -7 0 1 9 19 19 17
11 34 29 38 40 7 23 15 28 15 10z"/>
<path d="M6377 1900 c-36 -29 -52 -81 -37 -125 23 -70 93 -95 156 -56 90 55
49 201 -56 201 -22 0 -48 -8 -63 -20z m124 -19 c36 -37 38 -60 3 -32 -15 12
-38 21 -51 21 -31 0 -79 -25 -92 -47 -9 -16 -10 -16 -11 3 0 12 13 36 29 53
39 41 82 42 122 2z m-141 -95 c0 -8 12 -24 26 -35 15 -12 22 -21 17 -21 -10 0
-44 35 -57 58 -4 6 -2 12 3 12 6 0 11 -6 11 -14z m142 -36 c-20 -19 -42 -30
-60 -29 -25 1 -25 2 7 9 18 4 43 17 54 29 12 12 24 21 27 21 3 0 -10 -14 -28
-30z"/>
<path d="M5213 1780 c0 -30 2 -43 4 -27 2 15 2 39 0 55 -2 15 -4 2 -4 -28z"/>
<path d="M5751 1821 c-14 -9 -9 -41 6 -41 19 1 35 19 30 34 -7 18 -16 20 -36
7z"/>
<path d="M5122 1803 c4 -21 33 -25 33 -3 0 8 -8 16 -18 18 -14 3 -18 -1 -15
-15z"/>
<path d="M5580 1711 c0 -6 -11 -11 -25 -11 -20 0 -25 -5 -25 -24 0 -20 6 -25
35 -28 34 -4 35 -3 35 28 0 18 -4 36 -10 39 -5 3 -10 1 -10 -4z"/>
<path d="M5184 1696 c-13 -33 0 -51 36 -51 33 0 35 2 38 34 3 30 1 33 -12 22
-11 -9 -20 -10 -36 -1 -16 9 -21 8 -26 -4z"/>
<path d="M6163 1554 c-8 -21 19 -46 40 -38 18 6 23 39 8 48 -5 3 -8 -2 -7 -12
0 -9 -6 -17 -14 -17 -8 0 -14 8 -14 18 2 21 -5 22 -13 1z"/>
<path d="M5744 1535 c-7 -18 3 -35 22 -35 8 0 14 10 14 25 0 27 -27 35 -36 10z"/>
<path d="M5378 8999 c-22 -12 -23 -38 -2 -67 18 -27 45 -28 67 -4 45 49 -7
105 -65 71z m60 -30 c2 -9 -5 -19 -14 -23 -21 -8 -50 17 -39 34 10 16 49 8 53
-11z"/>
<path d="M10400 9602 c-29 -11 -55 -32 -75 -59 -34 -47 -54 -50 -73 -10 -28
59 -87 60 -115 2 -21 -44 -22 -69 -1 -89 17 -18 65 -21 80 -6 5 5 20 7 33 3
20 -5 22 -10 16 -40 -16 -87 -42 -107 -69 -54 -38 73 -118 46 -120 -41 -1 -54
25 -71 85 -55 51 13 67 0 51 -40 -6 -15 -16 -41 -22 -56 -11 -32 -33 -27 -53
14 -14 28 -77 39 -94 17 -55 -71 -15 -160 56 -123 54 28 73 3 50 -66 -18 -54
-26 -56 -63 -16 -18 20 -43 37 -54 37 -50 0 -90 -94 -56 -131 19 -21 55 -25
83 -7 10 6 26 8 35 5 18 -7 15 -33 -11 -97 l-14 -35 -37 43 c-22 25 -46 42
-58 42 -29 0 -64 -41 -70 -81 -10 -58 39 -84 106 -56 8 4 22 3 30 -3 13 -8 12
-16 -4 -64 -22 -64 -48 -75 -64 -26 -12 32 -54 50 -81 33 -24 -14 -53 -80 -46
-103 4 -11 17 -27 30 -36 21 -13 27 -13 60 0 20 9 41 14 45 11 5 -3 -2 -37
-15 -76 -17 -48 -22 -77 -16 -92 5 -12 36 -47 70 -79 l61 -56 0 -119 c0 -65
-4 -377 -10 -693 -11 -634 -27 -1645 -36 -2325 -7 -490 -4 -472 -77 -506 -83
-37 -185 -15 -265 56 -104 93 -155 216 -172 411 -6 63 -17 131 -25 150 -11 27
-12 41 -4 56 16 29 5 44 -45 63 -52 20 -72 16 -86 -20 -5 -14 -17 -25 -27 -25
-28 0 -117 -56 -148 -92 -39 -46 -84 -148 -102 -232 -22 -99 -22 -334 0 -451
9 -50 32 -145 51 -210 20 -66 56 -190 81 -275 25 -85 51 -189 57 -230 16 -112
4 -266 -31 -395 -30 -112 -51 -169 -185 -491 -148 -358 -198 -555 -199 -784
-1 -96 4 -155 16 -204 66 -264 211 -441 453 -551 92 -42 286 -102 388 -119
l71 -12 -180 -7 c-191 -8 -492 -28 -690 -48 -117 -11 -158 -19 -99 -19 17 0
129 -7 250 -15 726 -49 2113 -43 2763 11 169 15 -19 39 -463 59 -176 9 -321
17 -323 19 -3 2 15 7 38 11 71 12 236 72 321 117 97 51 209 155 256 238 78
139 112 334 93 539 -25 273 -84 450 -282 839 -115 229 -141 309 -141 452 -1
107 15 179 69 310 59 143 103 281 118 369 28 157 14 326 -36 422 -51 102 -100
139 -182 139 -79 0 -117 -46 -143 -177 -36 -184 -80 -259 -178 -311 -46 -24
-61 -27 -156 -27 -91 0 -112 3 -154 24 -27 13 -66 42 -86 63 l-38 38 -6 257
c-4 142 -13 542 -21 888 -8 347 -19 821 -25 1055 -36 1508 -41 1760 -35 1800
14 98 59 157 147 193 57 24 58 46 9 216 -53 189 -64 246 -64 356 -1 119 13
156 88 235 76 80 85 96 85 157 -1 64 -35 130 -88 167 -53 38 -162 46 -232 18z
m172 -2 c77 -22 128 -87 128 -165 0 -60 -10 -78 -84 -150 -55 -53 -65 -68 -81
-128 -32 -120 -11 -297 66 -536 16 -51 27 -101 24 -111 -3 -10 -19 -23 -36
-30 -92 -39 -151 -121 -165 -230 -4 -30 -12 -58 -18 -62 -16 -11 -266 -9 -286
2 -9 5 -23 23 -30 39 -6 17 -36 49 -66 72 -30 23 -57 51 -60 63 -3 12 12 67
34 126 22 58 50 139 62 180 12 41 33 109 46 150 13 41 24 78 24 81 0 15 -55
15 -81 0 -22 -12 -33 -13 -46 -5 -36 22 -28 88 12 106 23 10 29 7 71 -37 l47
-48 13 39 c8 21 32 104 55 184 80 281 117 384 148 414 52 50 141 68 223 46z
m-361 -41 c11 -5 24 -22 30 -36 5 -14 18 -27 29 -30 11 -3 20 -11 20 -19 0
-10 -6 -11 -26 -3 -21 7 -31 6 -45 -6 -23 -22 -73 -16 -77 8 -5 27 6 63 24 81
18 19 20 19 45 5z m-41 -199 c11 -11 20 -27 20 -35 0 -8 9 -15 19 -15 21 0 37
-16 24 -23 -5 -2 -17 -1 -28 3 -13 5 -26 2 -37 -7 -22 -19 -67 -20 -79 -2 -17
28 17 99 48 99 7 0 22 -9 33 -20z m-42 -199 c9 -17 25 -32 34 -35 10 -2 18
-11 18 -20 0 -20 -14 -21 -33 -1 -13 12 -17 12 -32 -5 -37 -41 -93 -15 -80 37
9 39 23 53 52 53 16 0 29 -10 41 -29z m-124 -346 c8 -8 17 -24 21 -34 3 -10
15 -21 25 -24 11 -3 20 -10 20 -16 0 -14 -27 -15 -35 -1 -3 5 -15 0 -26 -11
-14 -14 -30 -19 -52 -17 -29 3 -32 6 -35 40 -5 59 46 99 82 63z m-64 -185 c10
-5 20 -21 24 -34 3 -14 15 -28 26 -31 28 -9 25 -28 -3 -21 -14 3 -33 -1 -45
-10 -27 -18 -61 -15 -75 7 -12 19 -3 62 19 83 18 19 28 20 54 6z m200 -470 c0
-6 46 -11 113 -12 93 -2 99 -3 35 -5 l-78 -4 -1 -127 c0 -70 -4 -135 -7 -144
-4 -10 -7 47 -6 127 l1 145 -28 0 -29 0 -2 -125 c-1 -69 -2 -137 -2 -152 -1
-28 0 -28 64 -28 l65 0 1 140 c0 77 2 145 4 150 2 6 7 -57 10 -139 l5 -149 28
-4 27 -4 2 148 2 148 3 -147 4 -148 29 0 30 0 2 148 2 147 3 -139 c2 -77 8
-145 13 -151 5 -7 7 -15 4 -18 -10 -9 -3 -416 19 -1157 2 -63 5 -211 5 -327 2
-141 6 -213 13 -213 5 0 8 -4 5 -9 -3 -4 -74 -9 -158 -9 -84 -1 -165 -1 -180
-2 l-28 0 0 -90 0 -90 35 0 35 0 0 85 c0 47 3 85 8 85 4 0 7 -37 7 -82 l0 -83
40 0 40 0 0 83 c0 45 3 82 8 82 4 0 7 -38 7 -85 l0 -85 83 3 82 2 0 83 c0 45
3 82 8 82 4 0 7 -38 7 -85 0 -61 4 -85 13 -86 10 0 10 -2 0 -6 -16 -6 -18
-169 -3 -178 7 -5 8 -11 1 -19 -5 -6 -11 -29 -14 -51 -4 -40 -4 -40 -5 8 l-2
47 -40 0 -40 0 0 -85 0 -85 40 0 c38 0 40 2 40 30 0 17 5 30 10 30 11 0 13
-26 10 -149 -1 -61 2 -86 12 -92 10 -7 10 -9 1 -9 -17 0 -18 -141 -1 -158 9
-9 9 -12 0 -12 -8 0 -13 -20 -14 -57 l-2 -58 -3 58 -4 57 -89 0 c-65 0 -90 -3
-91 -12 0 -10 -2 -10 -6 0 -3 7 -23 12 -49 12 l-44 0 0 -70 0 -71 143 1 c178
1 167 2 167 -10 0 -7 -67 -10 -205 -8 l-205 3 0 -67 0 -68 193 3 192 2 6 60 6
60 1 -62 c1 -42 6 -63 15 -64 10 0 10 -2 0 -6 -9 -3 -13 -27 -13 -69 0 -44 4
-64 13 -65 10 0 10 -2 0 -6 -17 -6 -18 -123 -2 -123 8 0 8 -4 1 -12 -6 -7 -12
-26 -15 -43 -4 -29 -4 -29 -6 5 l-1 35 -83 0 c-45 -1 -112 -2 -149 -3 l-68 -2
0 -51 0 -50 158 1 c201 2 189 3 174 -12 -16 -16 -16 -108 0 -108 9 0 9 -3 0
-12 -16 -16 -16 -95 1 -102 10 -5 10 -7 0 -12 -16 -7 -18 -94 -2 -94 5 0 7 -4
4 -10 -4 -6 -53 -10 -116 -10 l-109 0 -2 -67 -2 -68 -3 68 -4 67 -105 0 -105
0 3 -67 3 -68 43 -3 42 -3 2 43 1 43 4 -42 4 -43 110 0 109 0 2 68 2 67 3 -67
4 -68 37 0 c58 0 91 20 98 58 3 18 10 34 14 37 4 3 28 -6 53 -20 182 -102 416
-67 547 82 46 52 98 168 120 270 18 85 29 103 62 103 19 0 54 -41 74 -88 24
-57 35 -189 24 -277 -13 -107 -30 -161 -106 -349 -91 -221 -108 -298 -101
-456 6 -161 25 -218 167 -500 133 -265 193 -415 219 -547 34 -164 26 -255 -27
-314 -67 -74 -150 -43 -323 119 -125 117 -208 180 -310 236 -63 34 -192 76
-236 76 -20 0 -23 5 -23 41 0 76 -6 79 -135 79 -108 0 -115 -1 -115 -20 0 -17
7 -20 50 -20 33 0 50 4 51 13 0 9 2 9 6 0 3 -10 10 -10 24 -2 27 14 71 8 77
-11 4 -12 2 -13 -9 -3 -19 15 -42 1 -37 -23 2 -12 12 -19 25 -18 18 0 22 -7
27 -48 4 -27 2 -56 -3 -66 -6 -9 -11 -12 -11 -4 0 6 -7 12 -16 12 -11 0 -14
-8 -12 -32 2 -25 7 -32 21 -30 16 3 18 -4 15 -55 l-3 -58 -42 -3 c-33 -2 -43
0 -43 12 0 8 6 16 13 19 15 5 9 13 -20 21 -20 7 -23 4 -23 -23 0 -29 -3 -31
-35 -31 -24 0 -35 5 -35 15 0 11 5 12 25 5 15 -6 26 -6 30 0 11 17 -7 32 -31
27 -13 -2 -24 0 -24 4 0 23 -29 5 -35 -21 -5 -25 -11 -30 -36 -30 -24 0 -29 4
-29 24 0 37 -27 40 -34 5 -5 -27 -9 -30 -38 -27 -23 2 -36 10 -43 26 -13 30
-35 28 -35 -3 0 -21 -5 -25 -29 -25 -25 0 -30 4 -33 27 -4 33 -21 34 -28 1 -4
-17 -14 -24 -38 -26 -30 -3 -32 -1 -32 27 0 23 -4 29 -15 25 -8 -4 -15 -17
-15 -31 0 -22 -3 -24 -42 -21 -39 3 -43 6 -46 30 -3 22 0 27 12 22 14 -5 16 5
16 65 0 58 -3 69 -15 65 -12 -5 -15 6 -15 64 0 80 13 102 60 102 24 0 29 -5
33 -27 3 -23 4 -21 6 10 l1 37 -49 0 c-63 0 -81 -17 -81 -77 l0 -45 -42 7
c-144 23 -224 148 -221 345 1 117 25 229 108 505 67 223 97 349 115 481 13
103 -1 281 -35 422 -31 129 -31 154 -1 189 21 24 31 28 73 27 26 -1 65 -8 86
-17 l37 -16 0 -168 c0 -162 5 -193 32 -193 4 0 7 54 7 120 0 76 -4 120 -11
120 -7 0 -7 4 -1 12 6 7 13 32 17 55 5 34 3 44 -11 52 -17 10 -17 10 0 11 14
0 17 9 17 46 0 33 -5 51 -17 60 -17 13 -17 13 0 14 14 0 17 9 17 55 0 37 -4
55 -12 56 -10 0 -10 2 0 6 7 3 12 24 12 54 0 27 3 49 8 49 4 0 7 -21 7 -47 l0
-48 43 -1 42 -2 0 60 0 60 -42 -2 c-71 -3 -85 -1 -69 9 20 13 28 110 10 123
-11 7 -11 11 -1 15 8 3 12 28 12 74 0 48 -4 69 -12 70 -10 0 -10 2 0 6 8 3 12
28 12 73 0 45 -4 70 -12 74 -10 5 -10 7 0 12 8 4 12 30 12 80 0 52 -4 74 -12
74 -10 0 -10 2 -1 8 14 9 22 160 8 167 -6 3 -5 7 3 11 8 4 12 32 12 90 0 60
-4 84 -12 85 -10 0 -10 2 0 6 8 3 12 31 12 88 0 57 -4 85 -12 88 -10 4 -10 8
-1 14 15 10 22 182 8 187 -6 2 -5 9 3 17 8 8 12 44 12 100 0 60 -4 89 -12 93
-10 5 -10 7 0 12 8 4 12 35 12 105 0 72 -3 99 -12 99 -10 0 -10 2 -1 8 12 8
23 210 11 215 -3 1 -2 22 2 47 14 70 12 197 -2 204 -10 5 -10 7 0 12 8 4 12
39 12 125 0 88 -3 119 -12 119 -10 0 -10 2 -2 8 7 4 15 56 19 126 6 95 5 120
-6 128 -11 7 -11 11 -1 15 15 6 18 273 2 273 -12 0 -13 27 -1 32 13 5 25 298
12 298 -6 0 -11 7 -11 15 0 8 7 15 15 15 8 0 15 -4 15 -10z m103 3 c-18 -2
-48 -2 -65 0 -18 2 -4 4 32 4 36 0 50 -2 33 -4z m124 -2185 c-2 -24 -4 -7 -4
37 0 44 2 63 4 43 2 -21 2 -57 0 -80z m-917 -690 c10 -6 7 -7 -10 -2 -14 3
-32 11 -40 16 -10 6 -7 7 10 2 14 -3 32 -11 40 -16z m-22 -76 c26 -20 41 -73
42 -144 0 -104 52 -277 109 -365 91 -141 236 -210 366 -175 l40 11 -28 -24
c-24 -22 -38 -25 -101 -25 -91 0 -158 31 -236 109 -102 102 -166 258 -177 428
-3 54 -12 113 -19 131 -11 28 -18 32 -49 32 -141 0 -235 -199 -235 -496 0
-161 19 -249 114 -529 93 -274 116 -377 116 -527 0 -165 -31 -280 -156 -569
-36 -85 -72 -172 -79 -194 -7 -22 -37 -104 -67 -181 -48 -129 -55 -141 -71
-129 -9 7 -17 17 -17 22 0 13 88 231 184 457 84 197 127 330 152 469 30 169 2
353 -101 667 -78 237 -91 291 -106 445 -23 254 21 447 127 547 59 55 148 74
192 40z m879 -106 c-8 -20 -36 -21 -43 -1 -4 8 0 22 7 31 11 13 14 13 27 0 8
-8 12 -22 9 -30z m-2 -146 c0 -29 -32 -41 -41 -16 -9 24 4 48 23 44 12 -2 18
-12 18 -28z m1037 -349 c26 -10 74 -55 90 -85 7 -12 -6 -6 -33 17 -69 60 -126
62 -157 6 -32 -58 -42 -66 -27 -20 18 51 31 70 60 81 27 12 39 12 67 1z m-955
-73 c-2 -13 -4 -3 -4 22 0 25 2 35 4 23 2 -13 2 -33 0 -45z m-79 18 c-4 -31
-38 -34 -38 -3 0 29 7 37 27 30 8 -3 13 -15 11 -27z m282 -401 c18 -13 62 -34
98 -46 82 -27 211 -23 285 9 26 12 46 18 43 13 -3 -5 -19 -14 -36 -21 -16 -7
-30 -17 -30 -22 0 -5 -4 -7 -9 -3 -5 3 -13 0 -16 -6 -4 -5 -13 -8 -21 -5 -8 3
-14 1 -14 -4 0 -18 -143 -11 -202 9 -85 29 -138 63 -138 88 0 17 1 17 40 -12z
m-640 -1829 c0 -8 -4 -17 -9 -21 -12 -7 -24 12 -16 25 9 15 25 12 25 -4z
m1155 -211 c155 -77 335 -296 335 -409 0 -94 -108 -98 -272 -12 -201 106 -367
325 -317 417 22 43 40 50 110 46 52 -3 84 -13 144 -42z m-738 -942 c-20 -2
-52 -2 -70 0 -17 2 0 4 38 4 39 0 53 -2 32 -4z"/>
<path d="M10336 9444 c-24 -24 -20 -80 6 -98 30 -21 47 -20 69 6 21 24 25 78
7 96 -17 17 -64 15 -82 -4z m73 -8 c7 -8 10 -27 8 -43 -3 -24 -9 -29 -37 -31
-19 -2 -36 2 -41 10 -7 12 -3 51 8 71 7 12 50 8 62 -7z"/>
<path d="M10288 9273 c-25 -30 -29 -53 -13 -83 22 -42 51 -47 81 -15 42 46 24
115 -30 115 -13 0 -30 -8 -38 -17z m70 -35 c3 -32 -1 -40 -22 -49 -20 -9 -29
-9 -41 1 -34 28 -5 94 39 88 16 -2 22 -11 24 -40z"/>
<path d="M10295 9210 c3 -5 18 -10 32 -10 32 0 28 5 -10 14 -19 4 -26 3 -22
-4z"/>
<path d="M10237 9092 c-29 -31 -32 -77 -8 -101 12 -12 27 -21 35 -21 8 0 17
-8 19 -17 4 -14 5 -14 6 3 0 12 8 27 16 34 8 7 15 20 15 29 0 14 2 14 10 1 8
-13 10 -13 10 2 0 24 -19 71 -33 80 -21 13 -53 9 -70 -10z m68 -8 c26 -27 14
-48 -30 -55 -38 -6 -22 -13 20 -9 15 1 17 -1 9 -10 -6 -6 -24 -10 -40 -8 -24
2 -29 8 -32 35 -2 23 3 35 20 47 28 20 33 20 53 0z"/>
<path d="M10177 8902 c-23 -25 -21 -78 3 -102 25 -25 42 -25 65 0 10 11 22 17
26 14 16 -10 10 74 -7 90 -21 22 -67 20 -87 -2z m67 2 c25 -9 21 -69 -5 -88
-47 -33 -88 19 -55 70 17 24 32 29 60 18z"/>
<path d="M10203 8833 c9 -2 25 -2 35 0 9 3 1 5 -18 5 -19 0 -27 -2 -17 -5z"/>
<path d="M10126 8719 c-30 -24 -34 -63 -10 -97 18 -26 36 -28 69 -6 43 28 28
124 -19 124 -7 0 -25 -9 -40 -21z m67 -38 c-2 -41 -23 -65 -51 -57 -27 9 -35
36 -22 70 8 23 15 27 42 24 31 -3 33 -6 31 -37z"/>
<path d="M10056 8528 c-9 -12 -16 -30 -16 -39 0 -24 39 -69 59 -69 37 0 67 63
51 106 -13 33 -72 34 -94 2z m82 -30 c2 -29 -1 -39 -17 -48 -30 -16 -61 3 -61
38 0 36 18 54 50 50 21 -3 25 -9 28 -40z"/>
<path d="M10075 8470 c3 -5 15 -10 26 -10 10 0 19 5 19 10 0 6 -12 10 -26 10
-14 0 -23 -4 -19 -10z"/>
<path d="M10148 7812 c-16 -3 -18 -18 -18 -138 l0 -134 30 0 30 0 0 138 c0
144 0 143 -42 134z"/>
<path d="M10210 7701 c0 -64 -3 -126 -6 -138 -6 -21 -3 -23 30 -23 l36 0 0
134 0 134 -30 4 -30 5 0 -116z"/>
<path d="M10308 7812 l-28 -3 0 -135 0 -134 70 0 70 0 0 48 c0 27 -3 89 -6
139 l-7 89 -28 -4 -29 -4 -2 -117 -2 -116 -6 120 -5 120 -27 -3z"/>
<path d="M10130 7400 l0 -130 30 0 30 0 0 130 0 130 -30 0 -30 0 0 -130z"/>
<path d="M10206 7521 c-2 -3 -4 -61 -5 -128 l-2 -123 35 0 36 0 0 49 c0 31 -5
53 -15 61 -14 12 -14 15 0 36 8 13 15 41 15 63 0 36 -2 39 -30 43 -17 3 -32 2
-34 -1z"/>
<path d="M10323 7522 c-43 -3 -43 -3 -43 -43 0 -21 6 -48 12 -59 10 -16 10
-24 0 -40 -6 -11 -12 -40 -12 -65 0 -45 0 -45 35 -45 l34 0 4 68 3 67 2 -67 2
-68 30 0 30 0 0 124 0 124 -27 3 c-16 2 -47 3 -70 1z"/>
<path d="M10127 7178 c-4 -46 -7 -100 -7 -120 0 -37 1 -38 35 -38 l35 0 0 120
0 120 -29 0 -28 0 -6 -82z"/>
<path d="M10207 7253 c-4 -3 -7 -57 -7 -120 l0 -113 35 0 35 0 0 120 0 120
-28 0 c-16 0 -32 -3 -35 -7z"/>
<path d="M10280 7140 l0 -120 35 0 35 0 0 120 0 120 -35 0 -35 0 0 -120z"/>
<path d="M10360 7141 l0 -121 35 0 36 0 -3 118 -3 117 -32 3 -33 3 0 -120z"/>
<path d="M10120 6885 l0 -115 35 0 35 0 0 115 0 115 -35 0 -35 0 0 -115z"/>
<path d="M10200 6885 l0 -115 34 0 c19 0 37 6 39 13 4 10 6 10 6 0 1 -9 24
-13 82 -13 l82 0 -7 53 c-3 28 -6 80 -6 114 l0 62 -74 0 c-73 0 -75 -1 -79
-27 l-4 -27 -2 28 c-1 24 -5 27 -36 27 l-35 0 0 -115z m157 43 c-2 -13 -4 -5
-4 17 -1 22 1 32 4 23 2 -10 2 -28 0 -40z m-62 -68 c-17 -18 -20 -19 -34 -6
-12 13 -12 20 -2 42 l12 27 21 -21 c21 -21 21 -22 3 -42z"/>
<path d="M10118 6670 c-1 -44 -2 -90 -2 -102 -1 -19 5 -23 37 -26 l37 -3 0
105 0 106 -35 0 -35 0 -2 -80z"/>
<path d="M10200 6645 l0 -105 35 0 c21 0 35 5 36 13 0 6 0 53 0 102 0 61 3 82
9 65 4 -14 8 -60 9 -102 l1 -78 35 0 34 0 4 88 3 87 2 -87 2 -88 35 0 35 0 0
105 0 105 -120 0 -120 0 0 -105z"/>
<path d="M10143 6522 l-33 -3 0 -95 0 -94 40 0 40 0 0 94 c0 52 -3 96 -7 98
-5 2 -23 2 -40 0z"/>
<path d="M10200 6425 l0 -95 125 0 125 0 0 95 0 95 -125 0 -125 0 0 -95z m167
-48 c-2 -23 -3 -1 -3 48 0 50 1 68 3 42 2 -26 2 -67 0 -90z m-64 59 c7 -19
-17 -51 -31 -42 -13 8 -16 39 -5 49 11 12 31 8 36 -7z"/>
<path d="M10110 6215 l0 -95 40 0 40 0 0 95 0 95 -40 0 -40 0 0 -95z"/>
<path d="M10200 6215 l0 -95 80 0 79 0 4 93 3 92 2 -92 2 -93 40 0 40 0 0 95
0 95 -125 0 -125 0 0 -95z m95 -5 c0 -27 -22 -39 -31 -16 -8 22 3 49 19 43 6
-2 12 -14 12 -27z"/>
<path d="M10140 5901 l-35 -6 -4 -82 -3 -83 41 0 41 0 0 90 c0 50 -1 89 -2 89
-2 -1 -19 -5 -38 -8z"/>
<path d="M10195 5898 c-3 -8 -5 -48 -3 -89 l3 -74 40 0 c33 0 40 4 46 25 l7
25 1 -27 c1 -26 4 -28 41 -28 l39 0 4 83 3 82 2 -82 2 -83 40 0 40 0 0 84 c0
96 4 93 -112 95 -49 1 -58 -1 -58 -16 0 -13 -2 -15 -8 -5 -13 20 -80 28 -87
10z m111 -63 c6 -15 -12 -45 -27 -45 -11 0 -22 38 -14 50 9 15 35 12 41 -5z"/>
<path d="M10133 5713 l-33 -4 0 -80 0 -79 40 0 40 0 0 85 c0 47 -3 84 -7 83
-5 0 -23 -3 -40 -5z"/>
<path d="M10213 5713 c-22 -4 -23 -9 -23 -84 l0 -79 45 0 46 0 -3 83 c-3 88
-6 92 -65 80z"/>
<path d="M10290 5635 l0 -85 40 0 40 0 0 85 0 85 -40 0 -40 0 0 -85z"/>
<path d="M10100 5471 c0 -33 -3 -66 -6 -75 -5 -13 2 -16 40 -16 l46 0 0 75 0
75 -40 0 -40 0 0 -59z"/>
<path d="M10190 5451 l0 -79 90 0 90 0 2 77 2 76 5 -75 c6 -80 2 -76 66 -72
24 2 25 4 25 77 l0 75 -140 0 -140 0 0 -79z m117 13 c7 -19 -20 -49 -36 -40
-12 8 -15 39 -4 49 12 12 33 7 40 -9z"/>
<path d="M10090 5285 l0 -75 45 0 45 0 0 75 0 75 -45 0 -45 0 0 -75z"/>
<path d="M10190 5285 l0 -75 45 0 45 0 0 75 0 75 -45 0 -45 0 0 -75z"/>
<path d="M10290 5285 l0 -75 90 0 90 0 0 75 0 75 -90 0 -90 0 0 -75z m87 -12
c-2 -16 -4 -3 -4 27 0 30 2 43 4 28 2 -16 2 -40 0 -55z"/>
<path d="M10090 5120 l0 -70 45 0 45 0 0 70 0 70 -45 0 -45 0 0 -70z"/>
<path d="M10143 4882 l-53 -3 0 -60 0 -59 40 0 40 0 0 55 c0 30 3 55 8 55 4 0
7 -22 7 -50 0 -27 3 -50 8 -50 4 0 70 0 147 0 l140 0 0 55 0 55 -45 0 -45 0 0
-50 c0 -30 -4 -50 -11 -50 -7 0 -9 16 -4 50 l7 50 -79 1 c-43 0 -85 1 -93 2
-8 1 -39 1 -67 -1z m165 -64 c4 -29 -21 -44 -38 -23 -9 10 -9 19 0 35 14 27
34 21 38 -12z"/>
<path d="M10180 4692 l0 -58 100 1 100 0 0 57 0 57 -100 0 -100 0 0 -57z m127
-26 c-4 -9 -13 -16 -21 -16 -19 0 -29 30 -15 47 11 12 14 12 27 -1 8 -8 12
-22 9 -30z"/>
<path d="M10390 4695 c0 -54 0 -55 29 -55 16 0 36 -3 45 -6 14 -5 16 3 16 55
l0 61 -45 0 -45 0 0 -55z"/>
<path d="M10084 4611 c-2 -2 -4 -26 -4 -53 l0 -48 45 0 45 0 0 53 0 52 -41 0
c-22 0 -43 -2 -45 -4z"/>
<path d="M10080 4440 l0 -50 45 0 45 0 0 50 0 50 -45 0 -45 0 0 -50z"/>
<path d="M10180 4440 l0 -50 155 1 155 0 0 50 0 49 -155 0 -155 0 0 -50z m130
-1 c0 -23 -27 -36 -42 -21 -14 14 8 53 27 46 8 -4 15 -15 15 -25z"/>
<path d="M11317 4484 c-4 -4 -7 -16 -7 -26 0 -14 6 -19 23 -16 14 2 22 10 22
23 0 20 -25 32 -38 19z"/>
<path d="M10080 4325 l0 -45 45 0 45 0 0 45 0 45 -45 0 -45 0 0 -45z"/>
<path d="M10180 4325 l0 -45 155 0 155 0 0 45 0 45 -155 0 -155 0 0 -45z m120
-12 c0 -13 -4 -23 -10 -23 -5 0 -10 17 -10 38 0 27 3 33 10 22 5 -8 10 -25 10
-37z"/>
<path d="M9852 4318 c2 -13 10 -23 18 -23 8 0 16 10 18 23 3 17 -2 22 -18 22
-16 0 -21 -5 -18 -22z"/>
<path d="M10072 4218 l3 -43 45 0 45 0 3 43 3 42 -51 0 -51 0 3 -42z"/>
<path d="M10180 4215 l0 -45 155 1 155 1 0 44 0 44 -155 0 -155 0 0 -45z m126
-14 c-11 -18 -36 -13 -36 7 0 10 3 22 7 26 10 10 37 -20 29 -33z"/>
<path d="M11277 4154 c-9 -10 2 -24 19 -24 8 0 14 7 14 15 0 15 -21 21 -33 9z"/>
<path d="M10564 4045 c-8 -19 3 -35 26 -35 19 0 30 17 23 38 -6 17 -42 15 -49
-3z"/>
<path d="M10002 3883 c-7 -2 -17 -14 -23 -26 l-12 -22 24 22 c13 11 33 23 44
26 l20 5 -20 0 c-11 0 -26 -2 -33 -5z"/>
<path d="M10183 3883 c9 -2 25 -2 35 0 9 3 1 5 -18 5 -19 0 -27 -2 -17 -5z"/>
<path d="M10532 3883 c15 -2 37 -16 48 -30 11 -14 20 -21 20 -14 0 22 -40 51
-67 50 l-28 -2 27 -4z"/>
<path d="M10042 3834 c-7 -8 -12 -22 -10 -32 3 -15 22 -19 61 -13 13 2 7 29
-8 35 -8 3 -15 1 -15 -5 0 -6 -4 -8 -10 -4 -5 3 -7 12 -3 20 7 19 2 18 -15 -1z"/>
<path d="M10491 3826 c-15 -18 -3 -46 19 -46 10 0 21 7 24 16 6 16 -9 44 -24
44 -4 0 -13 -6 -19 -14z"/>
<path d="M10167 3823 c-16 -15 -6 -33 18 -33 23 0 24 2 15 20 -11 21 -22 25
-33 13z"/>
<path d="M10280 3819 l-25 -11 30 -12 c35 -15 57 -10 53 13 -4 20 -25 23 -58
10z"/>
<path d="M10387 3823 c-12 -12 -7 -31 10 -37 19 -8 48 17 39 33 -8 12 -39 15
-49 4z"/>
<path d="M9895 3810 c-4 -7 -3 -16 3 -22 14 -14 45 -2 40 15 -6 16 -34 21 -43
7z"/>
<path d="M9965 3790 c6 -39 40 -80 67 -80 28 0 21 13 -15 30 -21 10 -36 27
-45 50 l-13 35 6 -35z"/>
<path d="M10597 3793 c-12 -60 -27 -63 -296 -63 -184 -1 -241 -4 -238 -13 3
-9 65 -12 240 -11 205 0 239 3 262 18 27 18 48 59 42 85 -1 9 -6 2 -10 -16z"/>
<path d="M10634 3809 c-8 -14 11 -33 25 -25 16 10 13 36 -3 36 -8 0 -18 -5
-22 -11z"/>
<path d="M9980 3360 c-11 -11 -20 -25 -20 -31 0 -7 9 0 20 14 11 14 30 28 43
30 l22 4 -22 2 c-13 0 -32 -8 -43 -19z"/>
<path d="M10026 3321 c-20 -23 -14 -41 15 -41 20 0 23 12 10 43 -6 17 -8 17
-25 -2z"/>
<path d="M10497 3322 c-14 -15 -15 -21 -4 -36 7 -10 19 -15 29 -11 25 10 29
31 9 49 -16 15 -19 15 -34 -2z"/>
<path d="M10287 3323 c-4 -3 -7 -15 -7 -25 0 -21 32 -25 49 -5 17 22 -22 50
-42 30z"/>
<path d="M10391 3321 c-19 -12 -6 -41 18 -41 24 0 33 13 25 34 -7 18 -22 20
-43 7z"/>
<path d="M9885 3311 c-9 -16 3 -31 26 -31 14 0 19 6 17 17 -4 20 -33 29 -43
14z"/>
<path d="M10080 3299 c0 -14 5 -19 17 -17 26 5 29 38 4 38 -15 0 -21 -6 -21
-21z"/>
<path d="M10172 3303 c4 -21 36 -28 58 -13 13 9 13 11 0 20 -26 17 -62 12 -58
-7z"/>
<path d="M10647 3313 c-14 -13 -6 -33 13 -33 13 0 20 7 20 20 0 19 -20 27 -33
13z"/>
<path d="M9960 3271 c0 -5 11 -23 24 -38 l24 -28 275 0 c252 0 277 2 295 18
11 10 22 27 25 38 5 17 2 17 -18 -5 -13 -14 -30 -26 -37 -27 -7 0 -132 -1
-277 -2 l-264 -1 -23 28 c-13 15 -24 23 -24 17z"/>
<path d="M10982 3008 c-14 -14 3 -39 21 -32 17 6 192 -172 178 -180 -28 -18
-8 -80 34 -103 7 -5 32 -39 54 -78 23 -38 41 -63 41 -55 0 9 -16 39 -36 68
l-35 53 30 35 c34 38 36 46 21 75 -8 14 -21 19 -51 19 -38 0 -46 6 -129 93
-49 50 -92 98 -95 105 -6 15 -18 15 -33 0z m295 -224 c9 -23 -10 -48 -38 -52
-20 -2 -21 -1 -9 8 12 10 11 11 -7 7 -20 -4 -21 -3 -12 15 10 18 9 20 -5 15
-16 -6 -22 4 -9 16 14 14 74 7 80 -9z"/>
<path d="M11300 2940 c0 -16 5 -30 10 -30 6 0 10 14 10 30 0 17 -4 30 -10 30
-5 0 -10 -13 -10 -30z"/>
<path d="M9988 2888 c-13 -13 -17 -18 -8 -12 8 6 24 16 35 22 11 6 15 12 8 12
-7 0 -22 -10 -35 -22z"/>
<path d="M10018 2849 c-23 -13 -23 -36 1 -48 23 -13 31 -5 31 31 0 30 -5 33
-32 17z"/>
<path d="M10515 2854 c48 -12 73 -27 83 -47 6 -12 11 -17 11 -11 2 26 -35 55
-74 59 -22 2 -31 2 -20 -1z"/>
<path d="M9889 2834 c-9 -11 -9 -18 -1 -26 14 -14 42 -3 42 16 0 20 -27 27
-41 10z"/>
<path d="M10083 2824 c-3 -8 -1 -20 5 -26 15 -15 43 8 35 28 -7 19 -32 18 -40
-2z"/>
<path d="M10183 2814 c-8 -22 11 -37 36 -29 25 8 28 30 5 39 -25 9 -34 7 -41
-10z"/>
<path d="M10284 2805 c-7 -17 3 -35 19 -35 23 0 38 17 31 33 -8 21 -43 22 -50
2z"/>
<path d="M10385 2800 c-9 -15 14 -40 36 -40 24 0 33 18 19 35 -14 17 -46 20
-55 5z"/>
<path d="M10505 2796 c-16 -12 -18 -18 -9 -33 14 -23 34 -23 48 -1 8 14 7 21
-5 33 -13 13 -17 13 -34 1z"/>
<path d="M9960 2782 c0 -22 37 -54 74 -62 21 -5 73 -11 115 -15 42 -3 137 -12
211 -20 186 -20 214 -16 239 32 17 33 14 35 -14 7 -24 -24 -29 -25 -115 -19
-49 3 -176 14 -282 25 -173 17 -195 21 -210 40 -10 12 -18 18 -18 12z"/>
<path d="M10640 2763 c0 -17 19 -35 29 -29 18 12 12 36 -9 36 -11 0 -20 -3
-20 -7z"/>
<path d="M10880 2760 c0 -6 4 -9 9 -6 11 7 34 -20 27 -33 -3 -5 1 -11 9 -15
22 -8 18 -20 -14 -39 -37 -21 -98 -22 -140 -1 -39 19 -45 15 -36 -25 17 -77
94 -112 158 -72 59 37 74 103 35 161 -24 35 -48 50 -48 30z"/>
<path d="M10745 2720 c-15 -29 -15 -30 6 -30 18 0 19 2 9 15 -11 14 -7 19 12
16 4 0 5 6 2 14 -8 21 -11 19 -29 -15z"/>
<path d="M10040 2530 c0 -24 4 -30 23 -30 46 0 67 12 67 36 0 22 -4 24 -45 24
-43 0 -45 -1 -45 -30z"/>
<path d="M10140 2535 c0 -21 5 -25 29 -25 42 0 61 10 61 31 0 16 -8 19 -45 19
-41 0 -45 -2 -45 -25z"/>
<path d="M10250 2537 c0 -22 3 -23 43 -18 23 3 41 9 40 14 -2 4 -3 12 -3 17 0
6 -18 10 -40 10 -35 0 -40 -3 -40 -23z"/>
<path d="M10350 2540 c0 -17 7 -20 40 -20 33 0 40 3 40 20 0 17 -7 20 -40 20
-33 0 -40 -3 -40 -20z"/>
<path d="M9820 2515 c0 -18 5 -25 19 -25 20 0 31 17 24 38 -3 6 -13 12 -24 12
-14 0 -19 -7 -19 -25z"/>
<path d="M11102 2511 c-35 -35 -45 -75 -31 -125 18 -65 97 -94 157 -56 39 24
49 46 34 71 -10 15 -9 17 5 12 14 -5 15 0 10 37 -6 49 -29 76 -72 85 -23 5
-26 4 -15 -4 8 -6 23 -11 33 -11 11 0 24 -14 33 -36 8 -20 14 -37 12 -38 -37
-28 -60 -36 -93 -36 -47 0 -95 19 -95 38 0 7 5 10 11 6 7 -4 9 0 5 14 -5 14 1
26 20 41 14 11 30 18 35 15 5 -3 9 0 9 5 0 20 -28 11 -58 -18z"/>
<path d="M10501 2453 c-9 -15 -12 -16 -20 -4 -13 19 -39 7 -44 -21 -4 -22 -4
-22 -6 3 -1 25 -3 26 -66 26 -49 1 -65 -3 -65 -13 0 -8 -4 -14 -10 -14 -5 0
-10 7 -10 15 0 8 -7 15 -15 15 -10 0 -15 -10 -15 -30 l0 -30 165 0 165 0 0 25
c0 29 -28 45 -41 24 -7 -11 -9 -11 -9 4 0 9 -4 17 -10 17 -5 0 -14 -8 -19 -17z"/>
<path d="M10107 2440 c-12 -18 -15 -18 -20 -5 -4 8 -16 15 -27 15 -16 0 -20
-6 -20 -34 0 -34 10 -40 38 -23 7 5 21 5 32 2 17 -6 20 -2 20 29 0 41 -3 44
-23 16z"/>
<path d="M10200 2444 c0 -14 -3 -15 -12 -6 -22 22 -48 14 -48 -13 0 -23 3 -25
51 -25 49 0 50 1 47 27 -3 32 -38 46 -38 17z"/>
<path d="M10008 2439 c-22 -12 -23 -32 -3 -49 12 -10 15 -7 21 14 9 36 3 47
-18 35z"/>
<path d="M11531 2370 c-17 -10 -7 -40 13 -40 7 0 16 6 19 14 8 19 -15 37 -32
26z"/>
<path d="M10075 2322 c-11 -11 -4 -42 9 -42 26 0 76 13 76 19 0 9 -78 30 -85
23z"/>
<path d="M10177 2311 c-3 -11 -3 -22 -1 -24 6 -6 283 1 293 7 5 4 12 3 14 -1
7 -11 97 -3 97 8 0 4 -17 13 -37 18 -46 13 -63 14 -63 2 0 -5 -20 -5 -47 0
-26 5 -51 5 -55 1 -5 -5 -28 -6 -51 -1 -30 6 -45 4 -52 -5 -8 -10 -16 -10 -40
0 -42 18 -52 17 -58 -5z"/>
<path d="M10000 2299 c0 -14 7 -19 25 -19 15 0 25 6 25 14 0 7 -11 16 -25 18
-19 4 -25 1 -25 -13z"/>
<path d="M11470 2281 c0 -5 10 -11 23 -15 38 -10 43 -7 13 9 -33 17 -36 18
-36 6z"/>
<path d="M11369 2238 c-15 -25 -19 -44 -16 -77 6 -58 40 -92 98 -98 55 -6 94
21 109 75 14 50 13 65 -6 88 -15 18 -15 18 -9 -3 4 -13 2 -23 -3 -23 -5 0 -12
-9 -15 -20 -5 -20 -28 -25 -87 -20 -34 3 -82 29 -75 41 4 5 11 6 17 3 6 -4 8
1 3 15 -5 16 -1 27 12 36 11 9 13 14 5 15 -7 0 -21 -15 -33 -32z"/>
<path d="M10070 2220 c0 -11 7 -20 15 -20 8 0 15 9 15 20 0 11 -7 20 -15 20
-8 0 -15 -9 -15 -20z"/>
<path d="M10162 2223 c2 -10 10 -18 18 -18 22 0 18 29 -3 33 -14 3 -18 -1 -15
-15z"/>
<path d="M10260 2220 c12 -23 50 -27 50 -6 0 14 -21 26 -46 26 -12 0 -12 -4
-4 -20z"/>
<path d="M10372 2224 c2 -11 11 -20 22 -22 13 -3 17 1 14 14 -2 11 -11 20 -22
22 -13 3 -17 -1 -14 -14z"/>
<path d="M10901 2106 c-9 -10 -8 -16 4 -26 19 -16 41 1 32 24 -8 20 -21 20
-36 2z"/>
<path d="M11018 1990 c-26 -27 -30 -36 -24 -68 7 -48 34 -83 77 -98 60 -22 94
-17 123 17 33 39 33 79 0 119 -57 67 -127 79 -176 30z m140 -10 c51 -37 62
-72 35 -108 -28 -38 -52 -38 -109 0 -39 27 -50 39 -52 65 -8 77 51 97 126 43z"/>
<path d="M11353 1704 c-3 -8 -1 -20 5 -26 15 -15 43 8 35 28 -7 19 -32 18 -40
-2z"/>
</g>
</svg>
