<?xml version="1.0" standalone="no"?>
<!DOCTYPE svg PUBLIC "-//W3C//DTD SVG 20010904//EN"
 "http://www.w3.org/TR/2001/REC-SVG-20010904/DTD/svg10.dtd">
<svg version="1.0" xmlns="http://www.w3.org/2000/svg"
 width="881.485180pt" height="383.277355pt" viewBox="0 0 881.485180 383.277355"
 preserveAspectRatio="xMidYMid meet">
<metadata>
Created by potrace 1.12, written by Peter Selinger 2001-2015
</metadata>
<g transform="translate(-188.404545,598.533003) scale(0.100000,-0.100000)"
fill="#000000" stroke="none">
<path d="M4505 5980 c-60 -4 -209 -13 -329 -19 -121 -6 -221 -13 -224 -15 -2
-3 90 -2 205 1 298 8 469 -18 629 -97 131 -64 263 -213 500 -565 59 -88 112
-164 117 -170 16 -17 -1 12 -96 155 -131 197 -247 350 -334 440 -42 44 -74 83
-71 85 3 3 36 -25 74 -62 89 -87 246 -298 432 -578 80 -121 161 -239 179 -262
19 -24 30 -43 25 -43 -15 0 -75 71 -132 156 -52 79 -91 126 -55 69 97 -157
131 -199 192 -239 26 -17 40 -33 36 -42 -7 -19 48 -133 86 -176 17 -20 46 -43
65 -52 18 -8 154 -45 301 -81 148 -37 361 -95 474 -130 196 -60 475 -165 495
-185 7 -7 -19 -10 -69 -10 -68 0 -91 -5 -155 -33 -114 -50 -160 -82 -160 -112
0 -26 47 -129 82 -178 11 -16 17 -31 14 -34 -3 -4 -32 -2 -63 3 l-57 9 -44 75
c-119 202 -287 359 -448 419 -66 25 -84 26 -84 5 0 -8 -4 -13 -9 -9 -5 3 -12
1 -15 -4 -13 -20 13 -20 28 0 14 21 16 21 63 5 88 -29 175 -89 273 -186 82
-82 180 -207 180 -230 0 -4 -9 -10 -21 -13 -12 -3 -19 -11 -17 -18 8 -23 28
-21 37 2 8 23 8 23 25 -9 l16 -32 -207 4 c-192 4 -196 3 -58 -4 83 -4 178 -8
212 -9 l62 -1 70 -142 c38 -79 75 -160 82 -180 l13 -37 -105 -130 c-57 -72
-111 -139 -119 -150 -12 -17 -21 -19 -50 -13 -26 6 -35 13 -35 27 0 24 33 22
53 -3 13 -16 14 -15 10 3 -4 24 -53 44 -69 28 -6 -6 -11 -23 -11 -37 0 -32
-24 -42 -32 -12 -6 24 -98 170 -113 179 -4 3 -19 -1 -33 -9 l-25 -15 27 5 c22
5 32 -1 57 -31 17 -21 30 -42 28 -48 -2 -5 -25 -16 -51 -23 -64 -18 -53 -25
12 -8 59 15 61 14 86 -54 23 -61 23 -95 2 -229 -29 -190 -89 -354 -176 -481
-44 -64 -140 -159 -190 -189 -19 -12 -30 -21 -24 -21 21 0 105 63 150 113 130
143 214 337 249 573 9 59 17 110 19 111 3 3 23 -102 32 -173 13 -106 -73 -320
-193 -476 -44 -58 -143 -136 -198 -156 -53 -19 -206 -24 -238 -7 -15 8 -25 9
-21 3 8 -13 -95 -2 -135 14 -14 6 -32 12 -38 14 -20 4 -85 46 -79 51 2 3 13 0
24 -6 12 -6 27 -11 34 -11 7 1 -2 7 -20 15 -18 8 -38 12 -45 9 -7 -2 -47 32
-90 76 -64 67 -87 100 -132 193 -85 175 -105 264 -112 492 -4 146 -2 215 11
297 24 161 87 343 147 429 10 14 16 29 13 32 -9 9 109 97 131 97 4 0 -15 -21
-42 -46 -32 -31 -35 -35 -8 -12 74 62 111 80 178 84 58 3 59 3 16 -5 -123 -23
-228 -120 -310 -286 -27 -55 -49 -107 -50 -115 0 -10 -3 -9 -10 5 -8 17 -8 15
-4 -7 3 -16 2 -40 -1 -55 -7 -24 -8 -25 -14 -8 -5 13 -7 4 -7 -25 0 -25 -2
-74 -6 -110 l-6 -65 9 60 c36 229 148 454 265 535 176 121 352 50 494 -200 17
-30 31 -51 31 -46 0 12 -63 129 -76 141 -25 23 -75 95 -66 95 5 0 34 -22 63
-50 29 -27 56 -50 59 -50 24 -1 86 -149 125 -304 13 -50 24 -82 25 -70 0 11
-14 70 -31 130 -18 60 -32 118 -33 130 -1 11 -13 36 -27 55 -42 55 -42 57 -13
84 15 14 32 25 39 25 16 0 98 -123 157 -235 26 -49 48 -87 48 -82 0 4 -16 39
-36 79 -105 209 -262 382 -415 457 -46 23 -100 43 -119 46 -25 4 -19 0 20 -13
96 -32 180 -84 262 -161 l79 -74 -33 -28 c-18 -16 -36 -28 -40 -29 -4 0 -36
25 -70 56 -35 32 -97 73 -138 93 -71 34 -80 36 -175 35 -79 0 -110 -5 -145
-21 -141 -64 -262 -226 -313 -418 l-22 -84 -28 22 c-20 16 -28 33 -30 59 -4
52 -17 60 -17 12 0 -33 7 -46 36 -75 48 -46 77 -96 69 -117 -3 -9 -8 -94 -11
-188 -4 -163 2 -233 31 -347 l8 -29 -59 7 c-101 11 -112 15 -117 38 -4 22 -4
22 -6 -1 -1 -20 -5 -22 -38 -17 -21 3 -103 14 -183 25 -277 36 -1086 150
-1198 169 -62 10 -119 25 -128 32 -9 7 -29 36 -45 64 -31 53 -40 55 -13 2 19
-37 51 -75 76 -88 22 -12 1066 -163 1518 -219 96 -12 181 -24 189 -26 9 -3 12
-14 7 -37 -4 -20 -3 -27 3 -18 7 11 11 9 21 -9 6 -12 10 -23 8 -25 -2 -1 -37
3 -78 11 -41 7 -88 13 -105 12 -17 0 -7 -4 25 -9 30 -5 70 -11 88 -14 l32 -6
0 -69 c0 -39 -3 -70 -7 -70 -3 0 -175 34 -382 75 -206 42 -382 74 -389 73 -8
-2 108 -27 257 -57 149 -30 271 -56 271 -58 0 -3 -26 -2 -57 1 -32 3 7 -6 87
-19 80 -14 160 -27 178 -30 34 -6 46 -35 14 -35 -10 0 -113 16 -228 34 -115
19 -357 58 -539 86 -181 28 -485 76 -675 106 -190 31 -419 67 -509 80 -91 14
-173 30 -183 35 -26 14 -23 32 5 26 51 -13 421 -68 435 -65 8 2 -94 20 -228
41 l-244 38 -90 93 c-92 95 -130 117 -164 96 -14 -9 -12 -10 11 -5 19 4 26 2
22 -5 -6 -10 7 -14 34 -11 7 2 11 -2 8 -7 -3 -4 30 -48 74 -97 109 -120 143
-165 128 -165 -7 0 -94 14 -193 31 -127 21 -185 35 -193 47 -9 10 -13 53 -13
124 0 93 2 110 17 115 9 4 19 1 21 -5 5 -15 32 -16 32 -2 0 6 -6 10 -13 10 -9
0 -20 25 -30 68 -9 37 -14 49 -11 27 3 -22 8 -50 10 -61 4 -16 0 -23 -15 -27
-15 -4 -21 -13 -21 -34 0 -36 -57 -155 -99 -208 -18 -21 -47 -50 -65 -63 -34
-23 -106 -46 -106 -33 0 4 -29 5 -65 3 -99 -7 -146 4 -213 49 -66 44 -107 96
-152 190 -31 67 -74 234 -68 265 2 11 12 -21 21 -71 31 -158 105 -283 191
-325 39 -18 50 -20 86 -10 23 6 60 28 82 48 23 20 44 37 47 37 3 0 5 5 3 12
-2 7 1 12 5 11 8 -3 13 5 13 18 0 3 -24 -19 -52 -49 -83 -86 -153 -94 -226
-25 -72 69 -113 159 -143 309 -50 256 -28 491 62 687 48 104 88 155 142 181
70 34 111 27 170 -28 50 -46 52 -64 5 -31 -24 16 -56 32 -73 35 l-30 5 32 -12
c51 -20 59 -34 24 -41 -45 -9 -99 -71 -160 -181 -49 -90 -53 -102 -48 -144 4
-26 7 -157 9 -291 2 -273 -6 -240 87 -353 48 -59 86 -88 115 -88 28 0 2 -26
-40 -40 -60 -20 -119 20 -178 120 -14 25 -26 40 -26 33 0 -6 19 -40 43 -74 74
-108 150 -126 225 -51 49 50 104 133 97 150 -2 7 0 10 5 7 13 -8 13 5 0 25 -5
8 -10 11 -11 5 -2 -28 -18 37 -18 78 l-1 48 30 -23 c16 -12 31 -29 31 -37 3
-43 16 52 14 104 -2 52 -2 55 5 20 5 -28 7 -13 5 50 -2 59 0 78 5 55 11 -51
11 -14 0 152 -12 183 -34 277 -98 412 -3 5 0 6 6 2 6 -3 14 -1 18 6 4 7 4 10
-1 6 -9 -9 -50 40 -41 49 10 10 63 -46 85 -91 11 -22 27 -63 35 -91 14 -46 14
-47 9 -10 -4 30 -3 37 6 29 20 -19 81 -169 70 -173 -5 -1 -3 -8 5 -15 9 -6 19
-25 22 -43 5 -25 3 -32 -12 -36 -16 -4 -15 -5 3 -6 23 -1 40 -36 31 -63 -3 -7
1 -19 9 -26 7 -7 13 -26 13 -42 0 -24 -5 -30 -31 -35 -17 -4 -28 -9 -25 -12 3
-3 19 -1 35 5 30 10 30 10 37 -26 9 -48 10 -46 -28 -53 l-33 -6 36 -2 c34 -1
37 -4 47 -43 18 -70 -22 -236 -88 -369 -12 -24 -17 -39 -11 -33 21 20 80 169
97 244 9 41 18 81 20 88 2 8 26 13 66 13 35 1 50 4 33 6 -35 5 -54 26 -56 62
-2 23 -2 24 -6 4 -2 -12 1 -31 7 -42 8 -15 8 -21 0 -21 -30 0 -48 22 -55 67
-13 90 -84 360 -114 436 -61 152 -152 276 -249 338 -40 25 -55 29 -111 28
l-66 -2 73 -7 c40 -3 78 -12 85 -20 10 -11 8 -11 -8 -5 -71 29 -145 7 -205
-61 -42 -49 -116 -201 -130 -270 -7 -31 -14 -53 -17 -51 -10 11 30 174 58 236
36 79 71 127 113 152 17 10 27 19 23 19 -18 0 -54 -24 -95 -64 -35 -34 -44
-38 -52 -26 -19 29 -10 61 30 104 22 23 58 51 80 61 22 10 38 20 36 22 -7 7
-69 -28 -98 -55 -43 -39 -34 -19 29 65 80 108 122 153 144 153 11 0 19 5 19
10 0 6 15 19 33 30 38 23 29 27 -13 5 -17 -9 -30 -21 -30 -27 0 -6 -3 -9 -6
-5 -4 3 -22 -6 -42 -21 l-35 -27 6 90 c9 129 42 280 77 347 59 114 294 496
392 638 131 188 210 264 316 302 43 15 85 28 94 28 9 0 18 3 20 8 10 22 538
132 783 163 55 7 102 14 104 15 2 2 -2 10 -9 19 -17 20 -47 19 -59 -3 -7 -14
-31 -21 -103 -30 -51 -6 -155 -23 -230 -37 -115 -21 -172 -25 -350 -27 l-213
-3 185 -3 185 -4 -135 -33 c-141 -36 -180 -41 -180 -26 0 5 10 12 23 14 17 3
15 5 -8 5 -40 2 -139 -22 -200 -48 -28 -12 -68 -25 -90 -30 -31 -6 -34 -8 -13
-9 15 -1 58 11 94 26 65 25 67 26 80 8 17 -23 11 -29 -41 -45 -68 -21 -148
-67 -182 -102 -17 -18 -77 -118 -133 -223 -120 -223 -355 -631 -381 -660 -48
-54 -87 -184 -93 -310 -3 -49 -2 -77 0 -62 5 23 9 27 27 21 25 -8 41 -27 27
-32 -6 -2 -10 -9 -10 -15 0 -7 -11 -25 -25 -42 l-24 -30 -2 35 c-1 31 -2 30
-10 -14 -5 -32 -23 -72 -52 -115 -25 -36 -50 -77 -57 -90 -21 -41 -59 -161
-70 -222 -10 -53 -9 -62 13 -106 21 -42 23 -55 16 -108 -9 -75 -10 -295 -1
-355 5 -28 2 -65 -7 -100 -13 -51 -13 -58 7 -103 13 -28 33 -54 50 -64 18 -10
41 -39 56 -70 32 -65 96 -136 150 -168 68 -39 148 -47 356 -36 102 5 196 15
210 21 22 9 20 10 -15 5 l-40 -6 30 25 c31 26 55 33 55 17 0 -5 10 -7 23 -4
21 4 21 4 -3 -12 -17 -11 -19 -14 -5 -9 45 16 77 15 196 -7 101 -19 163 -23
334 -24 202 -2 222 -4 530 -54 176 -28 408 -65 515 -82 107 -16 350 -55 540
-86 320 -51 459 -64 511 -48 11 4 29 -12 60 -51 92 -120 218 -196 357 -215 82
-12 298 -6 436 12 85 11 139 29 199 66 l37 23 0 -39 c0 -22 4 -42 8 -45 5 -3
103 -17 218 -31 175 -22 282 -27 654 -36 474 -12 1027 -7 1200 10 58 6 287 27
510 46 541 47 985 90 1265 121 250 27 297 41 328 93 25 42 21 81 -13 146 -16
31 -30 70 -30 85 0 15 -9 47 -20 71 l-20 44 0 -40 c0 -47 -19 -79 -60 -100
-42 -22 -61 -18 -24 4 32 20 64 57 64 76 0 5 -9 -4 -20 -22 -10 -18 -33 -39
-49 -48 -28 -14 -34 -14 -68 0 -65 27 -68 35 -26 59 21 12 47 38 58 59 11 20
27 37 35 37 13 0 13 1 0 10 -13 8 -10 14 15 35 17 13 33 24 38 25 11 0 8 -15
-5 -28 -9 -9 -8 -12 5 -12 12 0 17 8 17 28 0 15 5 34 10 42 8 13 10 13 10 -2
0 -13 6 -11 30 10 36 31 37 40 9 86 -19 32 -20 44 -13 109 5 39 8 85 6 100 -1
16 3 52 10 80 8 31 11 82 8 124 -4 63 -9 76 -32 98 -19 18 -28 36 -28 58 0 42
-29 88 -94 151 -48 46 -54 57 -64 113 -35 198 -194 423 -362 512 -36 19 -105
61 -155 94 -210 138 -443 230 -884 348 -247 66 -306 91 -341 142 -27 39 -99
91 -150 108 -19 7 -57 28 -85 47 -451 320 -869 572 -1139 687 -113 48 -253 91
-263 81 -4 -3 2 -6 13 -7 18 0 18 -1 -1 -10 -16 -8 -15 -8 9 -4 23 5 186 -38
186 -49 0 -2 -43 -2 -95 -1 -52 1 -100 -2 -107 -7 -8 -4 5 -8 32 -8 156 -2
200 -19 454 -170 298 -177 1083 -728 1085 -762 1 -3 -248 -4 -551 -1 -304 3
-551 3 -548 1 10 -11 1155 -18 1217 -8 59 10 70 8 302 -55 471 -128 705 -225
917 -383 82 -61 142 -125 187 -202 15 -25 27 -40 27 -35 0 17 -68 117 -108
158 -43 44 -33 48 25 9 99 -66 128 -108 139 -208 8 -66 -2 -121 -24 -133 -9
-5 -170 -16 -356 -26 l-339 -16 -41 31 c-63 48 -116 70 -169 70 -42 0 -54 -5
-83 -34 -19 -19 -34 -43 -34 -53 0 -18 -10 -21 -117 -26 -65 -4 -291 -10 -503
-13 l-385 -6 -135 45 c-258 87 -531 155 -798 198 -94 15 -150 31 -226 63 -251
107 -523 193 -926 292 -167 41 -280 74 -307 89 -42 25 -67 58 -109 146 -28 57
-30 73 -8 65 10 -4 13 -2 8 6 -5 8 2 9 22 5 16 -4 189 -9 384 -11 l355 -4
-335 8 c-405 11 -431 14 -470 47 -17 14 -108 141 -202 282 -193 290 -342 493
-430 586 l-59 64 28 4 c23 3 21 5 -12 7 l-40 3 45 7 c44 7 43 7 -20 8 -54 2
-77 8 -140 41 -89 47 -217 86 -312 96 -38 4 -68 11 -68 15 0 10 276 20 580 20
606 0 1403 -47 1785 -107 91 -14 245 -25 245 -18 0 17 -751 90 -1195 115 -229
14 -1195 21 -1340 10z m-1481 -206 c4 -10 1 -14 -6 -12 -15 5 -23 28 -10 28 5
0 13 -7 16 -16z m-29 -4 c3 -5 -8 -16 -24 -25 -28 -14 -31 -14 -41 4 -5 11
-10 22 -10 25 0 10 69 6 75 -4z m4402 -55 c24 -10 40 -22 36 -28 -4 -6 0 -8
11 -4 11 5 15 3 10 -5 -5 -8 -2 -9 10 -5 11 5 15 3 10 -5 -5 -8 -2 -9 10 -5
10 4 15 3 11 -3 -3 -5 18 -21 47 -35 29 -14 45 -20 35 -13 -105 72 61 -17 263
-140 210 -129 391 -248 535 -350 217 -155 221 -157 201 -134 -11 12 -15 22 -9
22 12 0 88 -54 98 -69 7 -13 -6 -15 -21 -3 -5 4 2 -3 16 -16 14 -13 45 -37 70
-53 25 -16 41 -29 37 -29 -19 0 -81 39 -217 139 -259 188 -728 498 -895 591
-97 54 -49 19 75 -55 159 -93 541 -347 740 -490 91 -65 189 -135 218 -154 43
-29 49 -37 35 -43 -41 -16 -65 -6 -140 55 -249 200 -762 553 -1077 741 -108
64 -196 119 -196 121 0 5 17 -1 87 -30z m-4618 -84 c-30 -26 -92 -102 -138
-167 -90 -128 -116 -160 -84 -104 11 19 37 67 58 105 61 111 95 153 149 185
73 43 78 37 15 -19z m-610 -1013 c-10 -51 -21 -110 -24 -130 -5 -29 -9 -36
-23 -32 -15 5 -15 5 1 -6 20 -13 24 -70 5 -70 -33 1 -40 17 -33 71 14 103 65
259 85 259 4 0 -1 -42 -11 -92z m8187 -613 c74 -155 95 -281 51 -309 -25 -17
-97 -11 -97 7 0 6 -16 7 -41 3 l-40 -6 6 137 c10 247 10 298 2 328 l-7 30 36
-40 c20 -22 61 -89 90 -150z m-3177 129 c266 -39 609 -127 939 -241 58 -20 68
-30 163 -170 l60 -88 -28 -7 c-88 -24 -318 -48 -453 -48 -310 0 -818 39 -884
69 -50 22 -114 90 -185 195 -62 92 -93 158 -85 180 7 19 57 48 154 92 89 39
151 43 319 18z m-4825 -59 c11 -8 18 -17 15 -19 -2 -2 -15 4 -28 15 -27 22
-15 26 13 4z m-364 -108 c-30 -51 -69 -211 -57 -234 9 -16 9 -17 -7 -4 -9 8
-15 19 -13 25 3 6 -2 18 -10 27 -12 15 -12 28 7 104 11 48 29 108 40 133 l21
46 19 -32 c19 -31 19 -32 0 -65z m7407 22 c63 -31 132 -94 154 -144 35 -76 18
-184 -35 -218 -17 -11 -34 -13 -75 -6 -64 10 -90 26 -127 76 -40 55 -48 62
-31 27 25 -48 91 -102 134 -109 21 -3 48 -8 60 -11 15 -3 34 6 56 26 31 27 42
30 98 30 35 0 180 7 322 16 193 12 270 13 308 5 104 -23 162 -11 180 36 l9 26
55 -54 c86 -84 95 -127 33 -154 -18 -8 -26 -14 -18 -15 9 0 25 7 37 15 21 15
22 14 27 -17 4 -18 7 -55 8 -82 l3 -48 20 23 c15 18 15 20 3 10 -17 -12 -18
-10 -18 34 0 47 0 48 20 30 30 -27 29 -139 -2 -174 l-23 -26 23 19 c12 11 22
14 22 8 0 -5 -13 -22 -30 -35 -16 -14 -30 -32 -30 -40 0 -8 -9 -45 -21 -82
-16 -53 -18 -70 -8 -75 7 -5 17 -6 24 -4 6 3 18 -2 25 -11 11 -14 8 -21 -21
-51 -35 -36 -55 -29 -23 9 16 19 17 20 2 8 -10 -7 -18 -10 -18 -5 0 5 -5 2
-10 -6 -5 -8 -10 -34 -10 -56 0 -26 -7 -51 -20 -67 -13 -17 -20 -40 -20 -70 0
-54 -33 -100 -83 -116 -161 -51 -1504 -161 -2007 -165 -113 0 -178 -2 -145 -4
33 -1 71 -5 84 -8 23 -5 23 -5 5 -25 -42 -46 -69 -52 -214 -47 -86 4 -112 3
-70 -2 36 -4 101 -8 146 -9 81 -1 81 -1 127 39 51 45 57 47 57 22 0 -11 8 -26
18 -35 18 -17 50 -16 452 13 532 39 1450 122 1488 135 6 2 12 16 12 30 0 14 2
25 5 25 3 0 29 -13 57 -30 33 -18 47 -31 38 -34 -27 -8 -343 -45 -560 -65
-390 -36 -458 -42 -1215 -97 -255 -19 -643 -21 -825 -4 -253 23 -499 40 -565
38 -83 -2 -88 -1 350 -33 608 -44 610 -43 1430 15 688 50 1439 125 1413 142
-8 5 0 6 18 2 25 -5 38 0 67 26 20 17 39 40 42 51 9 27 25 14 25 -20 0 -33
-34 -67 -87 -87 -21 -8 -27 -13 -13 -11 14 3 33 8 44 12 16 7 17 5 7 -11 -30
-54 -46 -65 -73 -55 -19 7 -69 4 -175 -9 -338 -43 -1452 -139 -1983 -170 -101
-6 -212 -19 -285 -35 -118 -24 -128 -25 -570 -24 -247 0 -475 4 -506 8 -45 5
-66 15 -105 47 -27 22 -67 53 -89 67 -22 15 -33 27 -25 28 8 1 -34 8 -95 18
-99 14 -110 18 -108 36 5 38 4 60 -6 130 -6 39 -15 108 -21 155 -6 47 -20 140
-31 207 -11 67 -19 130 -17 140 4 19 15 -14 63 -193 15 -56 35 -115 45 -132
18 -29 157 -142 175 -142 4 0 -26 25 -68 55 -42 31 -85 71 -97 90 -19 30 -101
330 -99 359 0 6 7 -2 15 -19 11 -22 14 -24 10 -7 -3 16 1 22 14 22 23 0 36
-17 45 -58 4 -18 9 -31 12 -29 2 3 0 22 -6 42 -10 36 -8 41 36 99 26 33 60 77
77 97 17 20 50 59 74 88 43 51 44 51 105 53 l62 2 -60 3 -60 4 -24 62 c-14 34
-50 113 -81 175 l-56 113 60 -7 c58 -6 64 -9 114 -62 68 -71 107 -100 152
-112 40 -10 325 -34 633 -51 244 -14 396 -9 567 19 93 15 217 24 485 32 198 7
416 15 485 19 l125 6 -38 24 c-30 19 -35 26 -26 37 14 18 -5 44 -32 44 -27 0
-32 16 -15 48 17 32 7 52 -26 52 -10 0 -18 2 -18 4 0 18 17 39 36 47 15 5 24
17 24 29 0 53 52 93 112 86 21 -2 59 -14 85 -27z m-7057 6 c0 -3 -17 -12 -37
-20 -57 -24 -82 -53 -119 -133 -19 -40 -34 -75 -34 -78 0 -3 25 -32 57 -65 38
-40 51 -59 39 -59 -10 0 -40 24 -69 53 -33 34 -43 41 -28 19 12 -17 38 -44 58
-59 49 -37 68 -24 69 48 l1 54 -6 -50 -6 -50 -43 39 c-64 58 -66 65 -36 133
26 58 63 106 97 125 17 9 18 7 12 -24 -6 -33 -6 -33 13 7 10 22 26 46 34 53
14 11 19 9 37 -14 25 -32 25 -32 5 -74 -14 -26 -15 -49 -10 -119 9 -115 21
-157 53 -178 l26 -17 -24 -7 c-34 -8 -45 -2 -63 34 -9 19 -16 25 -16 15 0 -9
10 -29 23 -44 22 -25 26 -26 57 -16 48 17 50 16 50 -33 0 -44 -1 -46 -42 -64
l-43 -18 -10 44 c-5 24 -14 44 -18 44 -5 -1 -10 -27 -11 -58 -2 -32 -1 -52 1
-45 3 6 9 10 14 6 5 -3 30 2 54 12 25 9 48 14 52 10 3 -3 2 -6 -4 -6 -6 0 -11
-32 -12 -72 -2 -65 -4 -92 -9 -135 -3 -18 -31 -16 -39 2 -3 9 2 22 13 31 18
14 18 14 -1 7 -11 -3 -23 -11 -27 -17 -11 -16 -10 -121 2 -152 8 -21 6 -36
-12 -76 -13 -30 -27 -47 -35 -44 -7 3 -15 1 -18 -4 -15 -24 -90 28 -126 87
-25 39 -20 58 28 115 44 54 51 56 56 21 3 -20 4 -16 6 15 0 23 -3 42 -8 42
-11 0 -85 -96 -101 -131 -24 -53 61 -159 130 -161 17 -1 29 -6 27 -12 -6 -18
-56 -19 -82 -2 -39 26 -105 122 -105 153 0 30 33 87 84 142 17 19 24 30 16 25
-34 -19 -110 -131 -110 -161 0 -30 -14 -29 -28 2 -18 39 -15 71 13 125 13 26
20 50 16 52 -5 2 -14 57 -19 123 -6 74 -9 97 -10 60 0 -33 3 -94 7 -135 9 -84
0 -123 -11 -45 -10 81 -9 295 2 295 6 0 10 -12 10 -27 0 -20 3 -24 9 -14 7 11
15 2 35 -35 14 -27 25 -43 26 -36 0 8 -22 48 -50 90 -38 58 -50 85 -50 114 0
25 5 41 15 44 8 4 13 10 10 14 -9 14 86 169 126 205 23 20 49 35 64 35 14 0
25 -2 25 -5z m7874 -70 c5 -20 -2 -216 -7 -222 -4 -3 -535 -33 -586 -33 -123
0 -29 10 230 25 246 14 406 31 327 34 -34 1 -37 18 -5 24 12 2 -5 2 -38 0
-393 -24 -555 -29 -555 -14 0 13 62 19 325 31 250 12 295 17 295 29 0 5 -11 6
-25 3 -21 -4 -25 -1 -25 21 0 14 7 27 15 31 8 3 15 17 15 31 0 26 -15 34 -23
13 -2 -8 -8 -9 -13 -4 -5 5 -4 11 4 13 6 3 12 13 12 24 0 30 46 26 54 -6z
m-100 0 c-6 -15 -42 -30 -51 -21 -10 9 18 36 38 36 12 0 16 -5 13 -15z m-306
-10 c9 -8 0 -12 -44 -18 -38 -4 -41 -3 -36 15 4 17 11 19 40 15 19 -4 37 -9
40 -12z m162 1 c0 -8 -14 -16 -37 -18 -45 -6 -45 -6 -37 16 8 21 74 23 74 2z
m-4015 -36 c11 -18 -9 -10 -40 16 l-30 26 32 -16 c17 -9 35 -20 38 -26z m3673
23 c2 -9 -9 -13 -37 -13 -30 0 -41 4 -41 16 0 11 9 14 37 12 20 -2 38 -9 41
-15z m-7189 -79 c12 -39 21 -78 21 -86 0 -14 -27 -28 -57 -28 -17 0 -28 138
-13 174 14 38 23 27 49 -60z m6585 70 c33 -13 14 -24 -39 -24 -30 0 -55 4 -55
9 0 16 64 26 94 15z m-442 -24 l33 -20 -57 0 c-59 0 -88 7 -88 20 0 8 25 16
62 19 10 0 32 -8 50 -19z m218 5 c11 -13 5 -15 -44 -15 -31 0 -56 4 -56 9 0
23 82 28 100 6z m895 5 c-3 -5 -1 -10 5 -10 6 0 8 -4 5 -10 -3 -5 -15 -10 -27
-10 -16 0 -18 3 -9 14 9 11 9 15 -1 19 -7 3 -3 6 10 6 13 1 20 -3 17 -9z m340
0 c-3 -5 -16 -10 -28 -10 -18 0 -19 2 -7 10 20 13 43 13 35 0z m-1766 -85 c28
-40 51 -79 51 -87 0 -8 3 -9 8 -3 4 6 95 11 227 13 121 2 317 7 435 12 197 8
248 4 227 -16 -8 -8 -343 -22 -644 -26 -219 -3 -240 -4 -227 -19 8 -8 14 -21
14 -28 0 -9 16 -11 58 -7 31 3 156 8 277 11 121 4 294 10 385 15 91 5 168 5
173 1 7 -7 -269 -21 -725 -38 -130 -4 -178 -3 -178 5 0 17 -57 108 -112 178
-51 66 -57 77 -34 68 8 -3 37 -39 65 -79z m56 70 l30 -13 -42 -1 c-46 -1 -73
6 -73 20 0 13 51 10 85 -6z m1537 3 c-9 -9 -15 -9 -24 0 -9 9 -7 12 12 12 19
0 21 -3 12 -12z m-963 -24 c2 -2 -7 -4 -22 -4 -14 0 -29 5 -32 10 -6 10 42 4
54 -6z m741 6 c0 -5 -16 -10 -36 -10 -21 0 -33 4 -29 10 3 6 19 10 36 10 16 0
29 -4 29 -10z m165 0 c-3 -5 -25 -10 -48 -9 -33 0 -38 2 -22 9 28 12 78 12 70
0z m315 0 c0 -5 -14 -10 -31 -10 -17 0 -28 4 -24 10 3 6 17 10 31 10 13 0 24
-4 24 -10z m-140 -9 c0 -11 -25 -21 -51 -21 -21 0 -26 16 -6 23 21 9 57 7 57
-2z m-1547 -8 c-13 -2 -33 -2 -45 0 -13 2 -3 4 22 4 25 0 35 -2 23 -4z m272
-14 c5 -6 4 -9 -5 -9 -11 0 -10 -3 2 -12 15 -11 15 -15 2 -26 -11 -11 -14 -10
-14 3 0 17 -16 20 -26 4 -3 -6 -1 -15 6 -19 8 -5 -27 -9 -76 -9 -49 0 -106 -3
-127 -5 -26 -3 -44 1 -60 14 -21 18 -22 18 -3 39 20 22 60 28 71 11 4 -7 12
-7 25 0 29 15 87 12 93 -5 4 -8 2 -17 -3 -20 -6 -4 -10 -11 -10 -17 0 -7 5 -6
15 2 8 6 13 21 12 33 -3 33 67 44 98 16z m134 12 c16 -10 -46 -22 -69 -12 -13
5 -4 8 50 20 3 0 11 -3 19 -8z m219 2 c-16 -2 -40 -2 -55 0 -16 2 -3 4 27 4
30 0 43 -2 28 -4z m-3649 -49 c-17 -25 -42 -73 -56 -107 -30 -73 -73 -222 -73
-254 0 -27 -18 -31 -27 -6 -16 42 49 238 108 322 33 48 70 91 76 91 2 0 -10
-21 -28 -46z m3576 26 c-60 -7 -79 -4 -71 8 2 4 33 5 68 3 l63 -5 -60 -6z
m165 9 c0 -5 -9 -9 -20 -9 -11 0 -20 4 -20 8 0 4 9 8 20 9 11 1 20 -2 20 -8z
m490 1 c0 -5 -13 -10 -30 -10 -16 0 -30 5 -30 10 0 6 14 10 30 10 17 0 30 -4
30 -10z m170 0 c0 -5 -14 -10 -31 -10 -17 0 -28 4 -24 10 3 6 17 10 31 10 13
0 24 -4 24 -10z m-1440 -10 c0 -12 -45 -24 -59 -15 -22 13 -10 25 24 25 19 0
35 -4 35 -10z m1665 0 c3 -5 -3 -10 -15 -10 -12 0 -18 5 -15 10 3 6 10 10 15
10 5 0 12 -4 15 -10z m-950 -25 c0 -12 -40 -19 -61 -11 -9 3 -12 11 -9 16 8
14 70 9 70 -5z m606 -8 c-13 -13 -26 -3 -16 12 3 6 11 8 17 5 6 -4 6 -10 -1
-17z m-807 4 c8 -12 -18 -21 -60 -21 -24 0 -34 5 -34 15 0 11 12 15 44 15 25
0 47 -4 50 -9z m-6411 -123 c3 -29 2 -57 -3 -61 -11 -12 -65 37 -56 51 4 7 17
12 29 13 17 0 14 4 -13 14 l-35 13 25 10 c42 18 47 14 53 -40z m-536 -70 c-2
-13 -4 -3 -4 22 0 25 2 35 4 23 2 -13 2 -33 0 -45z m-5 -178 c4 -78 3 -110 -3
-85 -8 39 -13 223 -5 214 2 -2 6 -60 8 -129z m8688 -175 c0 -14 -4 -25 -9 -25
-12 0 -23 29 -15 41 10 18 24 9 24 -16z m-8667 -112 c10 -43 21 -85 24 -93 12
-30 -40 25 -54 57 -13 32 -9 113 6 113 3 0 14 -35 24 -77z m8653 69 c6 -4 10
-25 9 -47 -4 -71 -4 -70 -17 -57 -9 9 -9 15 0 24 19 19 14 33 -6 15 -24 -22
-36 -22 -27 1 8 19 13 41 14 60 1 14 11 15 27 4z m-7499 -362 l28 -38 130 -13
130 -13 -95 -8 c-139 -12 -148 -9 -218 75 -34 39 -85 99 -113 132 -47 54 -44
52 28 -19 45 -43 94 -96 110 -116z m7540 116 c-9 -22 -37 -20 -37 2 0 13 -2
14 -9 4 -7 -11 -9 -10 -15 3 -3 9 -10 13 -16 10 -5 -3 -10 -1 -10 4 0 6 7 11
15 11 9 0 18 7 21 15 5 11 11 9 31 -10 16 -14 24 -29 20 -39z m-7963 -109
c-37 -45 -102 -87 -133 -87 -25 1 -25 2 13 33 40 32 134 166 138 196 1 9 3
-12 5 -47 4 -56 1 -66 -23 -95z m7894 87 c2 -15 -9 -31 -36 -53 -45 -35 -64
-41 -37 -11 10 11 13 20 7 20 -7 0 -2 15 10 35 23 39 51 44 56 9z m-7858 -83
c0 -5 3 -16 6 -24 6 -17 -44 -51 -91 -63 -29 -7 -28 -5 20 43 51 51 65 60 65
44z m3818 -147 c9 -78 8 -80 -24 -141 -102 -194 -252 -333 -359 -333 -29 0
-29 1 13 21 131 65 276 270 337 477 10 34 20 61 21 59 2 -2 8 -39 12 -83z
m-1162 -120 c22 -46 39 -86 36 -89 -3 -3 -32 -5 -64 -5 -67 0 -78 20 -17 31
l34 6 -32 2 -33 1 0 74 c0 66 2 74 18 69 9 -2 35 -41 58 -89z m5278 10 c9 -20
15 -38 13 -40 -2 -2 -19 1 -38 6 -24 7 -35 16 -35 29 0 11 4 17 8 15 5 -3 11
2 14 10 9 24 19 19 38 -20z m-4095 -56 c1 -19 -9 -36 -28 -54 -16 -14 -31 -38
-34 -53 -4 -17 -33 -53 -77 -94 -39 -37 -68 -67 -64 -67 3 0 37 30 75 67 l69
66 0 -36 c0 -32 -5 -39 -43 -61 -56 -33 -130 -60 -120 -43 5 9 4 9 -8 0 -8 -6
-32 -14 -54 -18 l-40 -6 39 22 c79 43 213 205 256 309 12 29 15 31 21 14 4
-10 8 -31 8 -46z m4102 1 c24 -12 32 -68 14 -95 -38 -59 -61 -63 -670 -124
-441 -44 -1535 -140 -1597 -141 -18 0 -112 -3 -208 -5 -96 -3 -418 -1 -715 5
-484 9 -562 13 -750 37 -120 15 -213 31 -217 37 -5 7 -7 54 -6 106 l3 94 55 3
c39 1 49 -1 35 -7 -14 -6 -6 -7 25 -4 34 4 40 3 25 -5 -15 -8 -9 -9 25 -5 32
4 39 2 25 -4 -19 -9 -18 -10 5 -11 14 -2 31 -2 38 -1 17 3 80 -38 146 -93 l48
-41 506 -3 c502 -3 507 -3 631 22 69 13 152 28 183 31 l57 7 31 -48 c16 -26
30 -52 30 -56 0 -4 -17 -9 -37 -9 l-38 -2 40 -6 c22 -3 56 -4 75 -1 35 5 35 5
5 8 -24 3 -36 14 -62 58 l-31 54 61 0 c71 0 516 32 777 55 612 54 962 88 1075
102 72 9 167 17 213 18 71 1 85 4 105 23 22 23 56 23 98 1z"/>
<path d="M10335 3825 c-25 -12 -26 -14 -5 -9 14 4 29 10 35 15 12 12 5 11 -30
-6z"/>
<path d="M10367 3804 c-15 -13 -24 -24 -20 -24 12 1 58 38 53 43 -3 3 -18 -6
-33 -19z"/>
<path d="M10285 3773 c-16 -3 -34 -9 -40 -14 -11 -11 52 -1 75 12 16 9 14 9
-35 2z"/>
<path d="M10409 3740 c-3 -20 -11 -26 -44 -31 l-40 -6 35 -1 c46 -2 63 10 58
39 l-4 24 -5 -25z"/>
<path d="M6912 4109 c-12 -4 -28 -19 -38 -33 -15 -24 -15 -28 5 -68 11 -24 51
-87 88 -140 l68 -97 55 1 55 1 -45 6 c-25 4 -50 10 -57 14 -14 9 -134 180
-156 223 -16 30 -15 33 5 59 19 24 26 27 62 22 83 -12 258 -45 263 -51 3 -3 2
-17 -1 -31 -5 -21 -11 -25 -24 -19 -9 4 -39 9 -67 10 -27 1 -40 0 -28 -2 19
-5 21 -10 16 -35 -8 -42 23 -118 51 -125 12 -3 49 -3 81 -1 l60 3 -72 2 c-39
1 -74 5 -76 10 -3 4 19 5 48 4 44 -3 57 0 75 18 19 19 21 29 16 88 -5 58 -4
62 5 27 5 -22 15 -44 21 -50 8 -7 9 -5 4 8 -3 10 -9 36 -12 58 -7 43 -4 41
-119 63 -143 28 -262 43 -283 35z m368 -63 c0 -2 -3 -11 -6 -20 -5 -12 -10
-13 -25 -5 -27 14 -24 29 6 29 14 0 25 -2 25 -4z m-101 -55 c8 -5 12 -18 8
-30 -3 -12 -1 -19 3 -16 5 3 10 0 12 -6 3 -9 12 -7 29 5 30 19 39 13 39 -25 0
-40 -20 -47 -21 -7 0 25 -2 29 -8 14 -4 -11 -15 -20 -24 -22 -10 -1 -15 2 -11
7 3 5 -10 9 -28 8 -26 0 -29 -2 -14 -8 18 -7 18 -8 2 -14 -27 -11 -36 0 -36
47 0 55 14 69 49 47z"/>
<path d="M6763 4023 c15 -2 39 -2 55 0 15 2 2 4 -28 4 -30 0 -43 -2 -27 -4z"/>
<path d="M6925 4020 c31 -8 112 -13 104 -6 -2 2 -33 6 -69 9 -41 3 -54 2 -35
-3z"/>
<path d="M7624 3989 c56 -13 60 -22 6 -15 -31 4 -39 3 -25 -3 18 -9 17 -10
-10 -12 -21 -1 -24 -3 -9 -6 11 -2 40 1 64 6 31 7 47 7 51 -1 4 -6 14 -8 23
-5 8 3 52 -1 96 -9 146 -28 106 -9 -51 24 -138 29 -244 44 -145 21z"/>
<path d="M6736 3970 c9 -32 114 -172 134 -178 12 -4 12 -2 -1 9 -21 18 -101
125 -123 164 -14 26 -16 27 -10 5z"/>
<path d="M7405 3970 c-14 -23 49 -111 97 -136 44 -23 44 -16 -1 16 -48 35 -83
87 -75 112 6 19 -10 25 -21 8z"/>
<path d="M7513 3953 c9 -2 25 -2 35 0 9 3 1 5 -18 5 -19 0 -27 -2 -17 -5z"/>
<path d="M7550 3937 c0 -2 21 -25 47 -53 28 -29 39 -37 27 -19 -27 41 -74 87
-74 72z"/>
<path d="M7480 3911 c5 -11 24 -28 40 -38 17 -9 30 -21 30 -26 0 -5 6 -7 14
-4 8 3 17 1 20 -6 2 -7 5 1 5 17 1 23 -2 26 -13 17 -11 -9 -17 -8 -28 3 -8 7
-23 16 -34 18 -10 2 -18 11 -18 21 1 9 -5 17 -12 17 -11 0 -12 -4 -4 -19z"/>
<path d="M7800 3923 c0 -5 8 -17 17 -28 15 -20 15 -20 10 2 -3 15 0 23 12 26
9 3 4 5 -11 6 -16 0 -28 -2 -28 -6z"/>
<path d="M7956 3919 c3 -5 9 -28 13 -51 l9 -43 1 42 1 42 38 -5 c45 -5 33 2
-25 15 -24 5 -40 5 -37 0z"/>
<path d="M7820 3850 c-8 -16 -8 -20 4 -20 10 0 13 -6 9 -16 -4 -12 0 -15 18
-12 13 1 25 11 27 21 2 10 0 17 -5 16 -26 -5 -42 2 -37 16 9 22 -4 18 -16 -5z"/>
<path d="M7351 3838 c-1 -14 -7 -29 -13 -31 -7 -3 -3 -6 10 -6 23 -1 26 11 12
44 -8 18 -9 17 -9 -7z"/>
<path d="M7757 3819 c14 -12 53 -21 53 -11 0 5 -14 12 -30 14 -17 3 -27 1 -23
-3z"/>
<path d="M7540 3801 c-11 -11 -7 -12 21 -6 45 9 55 20 20 20 -16 0 -34 -6 -41
-14z"/>
<path d="M7674 3783 c14 -18 16 -23 5 -23 -11 0 -11 -2 1 -11 11 -8 -4 -9 -55
-5 -38 3 -90 7 -115 8 l-45 1 55 6 c30 4 -33 7 -140 6 -220 0 -181 -7 140 -25
113 -6 219 -15 235 -21 l30 -9 -25 20 c-14 11 -29 20 -33 20 -5 0 -6 4 -2 9 3
5 0 13 -6 17 -8 4 -9 3 -5 -4 12 -19 -6 -14 -33 11 l-26 22 19 -22z"/>
<path d="M7951 3758 c-21 -26 -22 -29 -4 -18 22 14 48 50 36 49 -5 0 -19 -14
-32 -31z"/>
<path d="M6880 3756 c0 -7 6 -19 14 -25 11 -9 14 -6 14 14 0 15 -6 25 -14 25
-8 0 -14 -6 -14 -14z"/>
<path d="M8060 3762 c8 -5 26 -13 40 -16 17 -5 20 -4 10 2 -8 5 -26 13 -40 16
-17 5 -20 4 -10 -2z"/>
<path d="M6923 3746 c0 -17 12 -21 21 -7 6 9 73 5 106 -6 8 -2 47 -6 85 -8 39
-1 113 -5 165 -8 138 -9 90 0 -100 18 -91 8 -190 18 -221 21 -47 6 -56 4 -56
-10z"/>
<path d="M7865 3720 c30 -8 242 -13 234 -6 -2 2 -62 6 -134 8 -71 3 -116 2
-100 -2z"/>
<path d="M6920 3702 c0 -9 60 -46 64 -40 2 1 -12 13 -30 25 -19 12 -34 19 -34
15z"/>
<path d="M7401 3706 c2 -2 137 -11 299 -20 427 -24 465 -27 449 -37 -10 -6 -8
-9 9 -9 13 0 20 4 17 10 -3 6 -1 10 4 10 22 0 10 -30 -11 -31 -13 0 -34 -3
-48 -5 -14 -3 -63 -9 -110 -14 l-85 -9 100 5 c55 2 127 11 160 19 33 8 74 15
90 15 27 1 28 2 12 14 -12 10 -68 16 -180 21 -89 3 -268 13 -397 21 -244 14
-316 17 -309 10z"/>
<path d="M8183 3703 c15 -2 37 -2 50 0 12 2 0 4 -28 4 -27 0 -38 -2 -22 -4z"/>
<path d="M7060 3651 c0 -17 184 -29 195 -12 3 6 -9 7 -30 4 -26 -4 -35 -2 -35
8 0 12 -2 11 -9 0 -8 -12 -16 -13 -49 -3 -47 14 -72 15 -72 3z"/>
<path d="M7315 3630 c-28 -7 -28 -8 -5 -9 14 0 32 4 40 9 17 11 8 11 -35 0z"/>
<path d="M7398 3613 c12 -2 32 -2 45 0 12 2 2 4 -23 4 -25 0 -35 -2 -22 -4z"/>
<path d="M7497 3613 c18 -2 50 -2 70 0 21 2 7 4 -32 4 -38 0 -55 -2 -38 -4z"/>
<path d="M7688 3603 c23 -2 59 -2 80 0 20 2 1 4 -43 4 -44 0 -61 -2 -37 -4z"/>
<path d="M9275 3970 c-16 -16 -27 -31 -24 -33 2 -2 17 11 32 30 36 41 31 43
-8 3z"/>
<path d="M9358 3961 c-15 -5 -13 -11 13 -45 l29 -40 0 45 c0 29 -3 39 -9 30
-8 -12 -10 -11 -12 1 -3 10 -10 13 -21 9z"/>
<path d="M9446 3889 c5 -44 3 -59 -11 -72 -14 -14 -14 -17 -1 -17 8 0 22 -10
30 -22 15 -21 16 -18 16 53 0 64 -3 79 -20 94 -21 19 -21 18 -14 -36z"/>
<path d="M9288 3916 c-18 -13 -26 -32 -9 -22 11 7 31 -17 66 -77 27 -48 47
-60 25 -15 -11 22 -11 22 5 3 9 -11 14 -29 11 -40 -3 -11 0 -27 5 -35 9 -13
10 -12 5 2 -2 9 -1 30 4 46 7 27 2 37 -41 91 -28 34 -51 61 -52 61 -1 0 -10
-7 -19 -14z"/>
<path d="M9243 3865 c0 -33 2 -45 4 -27 2 18 2 45 0 60 -2 15 -4 0 -4 -33z"/>
<path d="M9275 3820 c12 -41 33 -77 66 -115 52 -59 51 -39 -2 43 -59 91 -74
108 -64 72z"/>
<path d="M9521 3763 c0 -53 3 -72 9 -58 12 28 12 123 0 130 -6 4 -10 -22 -9
-72z"/>
<path d="M9440 3721 c0 -10 -3 -33 -6 -50 -6 -28 -4 -31 19 -31 37 0 41 14 17
60 -23 44 -30 50 -30 21z"/>
<path d="M6900 3637 c0 -2 15 -16 33 -33 l32 -29 -29 33 c-28 30 -36 37 -36
29z"/>
<path d="M9330 3615 c14 -8 32 -14 40 -14 8 0 0 6 -19 14 -42 19 -54 19 -21 0z"/>
<path d="M9408 3593 c12 -2 32 -2 45 0 12 2 2 4 -23 4 -25 0 -35 -2 -22 -4z"/>
<path d="M6976 3569 c9 -16 105 -59 129 -58 11 0 1 6 -22 14 -24 7 -59 22 -78
34 -20 12 -33 16 -29 10z"/>
<path d="M7808 3523 c12 -2 32 -2 45 0 12 2 2 4 -23 4 -25 0 -35 -2 -22 -4z"/>
<path d="M10373 3503 c9 -2 25 -2 35 0 9 3 1 5 -18 5 -19 0 -27 -2 -17 -5z"/>
<path d="M10253 3493 c9 -2 25 -2 35 0 9 3 1 5 -18 5 -19 0 -27 -2 -17 -5z"/>
<path d="M10138 3483 c12 -2 30 -2 40 0 9 3 -1 5 -23 4 -22 0 -30 -2 -17 -4z"/>
<path d="M7338 3473 c12 -2 30 -2 40 0 9 3 -1 5 -23 4 -22 0 -30 -2 -17 -4z"/>
<path d="M9993 3473 c15 -2 37 -2 50 0 12 2 0 4 -28 4 -27 0 -38 -2 -22 -4z"/>
<path d="M7428 3463 c12 -2 30 -2 40 0 9 3 -1 5 -23 4 -22 0 -30 -2 -17 -4z"/>
<path d="M9843 3463 c15 -2 37 -2 50 0 12 2 0 4 -28 4 -27 0 -38 -2 -22 -4z"/>
<path d="M7518 3453 c12 -2 30 -2 40 0 9 3 -1 5 -23 4 -22 0 -30 -2 -17 -4z"/>
<path d="M9693 3453 c15 -2 37 -2 50 0 12 2 0 4 -28 4 -27 0 -38 -2 -22 -4z"/>
<path d="M7608 3443 c12 -2 32 -2 45 0 12 2 2 4 -23 4 -25 0 -35 -2 -22 -4z"/>
<path d="M9477 3443 c18 -2 50 -2 70 0 21 2 7 4 -32 4 -38 0 -55 -2 -38 -4z"/>
<path d="M6993 3433 c9 -2 25 -2 35 0 9 3 1 5 -18 5 -19 0 -27 -2 -17 -5z"/>
<path d="M7708 3433 c12 -2 32 -2 45 0 12 2 2 4 -23 4 -25 0 -35 -2 -22 -4z"/>
<path d="M9268 3433 c23 -2 61 -2 85 0 23 2 4 4 -43 4 -47 0 -66 -2 -42 -4z"/>
<path d="M7833 3423 c15 -2 37 -2 50 0 12 2 0 4 -28 4 -27 0 -38 -2 -22 -4z"/>
<path d="M9023 3423 c26 -2 68 -2 95 0 26 2 4 3 -48 3 -52 0 -74 -1 -47 -3z"/>
<path d="M7948 3413 c18 -2 45 -2 60 0 15 2 0 4 -33 4 -33 0 -45 -2 -27 -4z"/>
<path d="M8753 3413 c26 -2 67 -2 90 0 23 2 2 3 -48 3 -49 0 -68 -1 -42 -3z"/>
<path d="M8203 3403 c64 -2 170 -2 235 0 64 1 11 3 -118 3 -129 0 -182 -2
-117 -3z"/>
<path d="M6793 3333 c9 -2 25 -2 35 0 9 3 1 5 -18 5 -19 0 -27 -2 -17 -5z"/>
<path d="M6888 3323 c12 -2 30 -2 40 0 9 3 -1 5 -23 4 -22 0 -30 -2 -17 -4z"/>
<path d="M6988 3313 c12 -2 30 -2 40 0 9 3 -1 5 -23 4 -22 0 -30 -2 -17 -4z"/>
<path d="M7108 3303 c12 -2 32 -2 45 0 12 2 2 4 -23 4 -25 0 -35 -2 -22 -4z"/>
<path d="M8355 3299 c-31 -18 -45 -40 -45 -73 1 -58 52 -96 101 -75 35 14 49
36 49 77 0 55 -60 96 -105 71z m69 -20 c19 -15 26 -30 26 -54 0 -24 -7 -39
-26 -54 -15 -12 -32 -21 -39 -21 -28 0 -65 41 -65 73 0 37 7 49 35 65 28 16
39 15 69 -9z"/>
<path d="M7243 3293 c15 -2 39 -2 55 0 15 2 2 4 -28 4 -30 0 -43 -2 -27 -4z"/>
<path d="M7388 3283 c17 -2 47 -2 65 0 17 2 3 4 -33 4 -36 0 -50 -2 -32 -4z"/>
<path d="M7558 3273 c17 -2 47 -2 65 0 17 2 3 4 -33 4 -36 0 -50 -2 -32 -4z"/>
<path d="M7758 3263 c23 -2 61 -2 85 0 23 2 4 4 -43 4 -47 0 -66 -2 -42 -4z"/>
<path d="M10285 3210 c-468 -47 -1597 -110 -1977 -110 -173 0 -173 0 -124
-124 21 -52 61 -142 89 -198 60 -118 102 -157 178 -163 l44 -4 -42 9 c-46 10
-88 29 -80 37 3 2 16 -1 28 -8 81 -43 1096 6 1689 82 259 33 310 47 310 88 0
23 30 52 30 30 1 -16 29 30 29 46 0 6 -6 -1 -13 -13 -12 -23 -13 -23 -31 -6
-13 14 -20 15 -23 6 -4 -13 -22 -7 -22 8 0 17 42 34 50 21 5 -9 10 -8 19 3 11
13 10 18 -2 30 -10 10 -17 12 -25 4 -6 -6 -15 -7 -22 -3 -15 10 7 35 31 35 10
0 23 9 29 20 6 11 15 18 19 16 9 -6 41 126 41 167 0 15 -5 27 -11 27 -7 0 -9
-11 -5 -30 3 -17 1 -30 -4 -30 -6 0 -10 5 -10 10 0 6 -11 8 -25 4 -14 -3 -25
-2 -25 3 0 5 11 16 25 23 14 7 25 17 25 22 0 4 11 8 24 8 19 0 26 -6 29 -27 4
-26 4 -26 6 5 1 31 0 32 -36 31 -21 -1 -119 -10 -218 -19z m145 -9 c0 -12 -29
-23 -41 -15 -5 3 -7 10 -4 15 8 12 45 12 45 0z m-69 -14 c-1 -4 -1 -13 -1 -21
0 -16 -57 -39 -73 -29 -6 4 3 18 23 35 32 26 53 32 51 15z m-93 -13 c-9 -9
-24 -14 -32 -11 -27 11 -17 27 16 27 30 0 31 -1 16 -16z m-158 -9 c-7 -8 -23
-15 -36 -15 -15 0 -24 6 -24 15 0 11 11 15 36 15 31 0 35 -2 24 -15z m-108
-40 l-19 -24 -22 23 c-16 16 -19 26 -11 31 6 4 17 -1 24 -11 13 -16 14 -16 26
7 8 14 15 19 17 12 3 -7 -4 -24 -15 -38z m182 10 c-3 -7 -16 -10 -30 -7 -27 5
-32 -5 -8 -22 25 -19 2 -66 -33 -66 -37 -1 -78 -32 -70 -54 7 -18 38 -21 54
-5 6 6 9 17 7 24 -8 19 12 27 26 10 19 -23 3 -55 -30 -55 -36 0 -75 -31 -67
-53 7 -20 46 -23 51 -4 16 52 16 52 33 34 15 -14 14 -17 -1 -32 -27 -27 -16
-50 22 -49 17 1 29 -2 26 -7 -3 -5 -16 -9 -30 -9 -30 0 -54 -41 -36 -63 9 -10
8 -17 0 -25 -19 -19 -26 -14 -20 14 3 16 -1 29 -9 35 -11 7 -10 11 5 22 10 7
17 22 14 33 -4 24 -41 30 -61 10 -22 -23 -33 -20 -13 3 10 11 15 25 11 30 -10
16 -62 13 -69 -4 -3 -8 -13 -15 -22 -15 -13 0 -14 3 -4 15 10 13 9 15 -9 15
-12 0 -19 5 -16 10 3 6 15 10 26 10 20 0 26 24 9 35 -16 10 -12 25 6 25 10 0
14 6 11 14 -4 11 3 13 31 9 27 -4 44 0 60 14 26 20 22 53 -7 54 -12 0 -10 3 7
11 12 6 22 17 22 25 0 7 7 13 16 13 9 0 27 9 41 20 20 15 28 17 43 8 10 -6 16
-17 14 -23z m-364 -5 c-32 -29 -58 -40 -45 -21 3 6 -2 14 -11 19 -28 16 -6 32
43 32 l47 0 -34 -30z m608 -6 c-7 -6 -23 -15 -35 -19 -19 -5 -23 -2 -23 15 0
25 38 43 58 27 11 -8 11 -12 0 -23z m-720 19 c-10 -2 -26 -2 -35 0 -10 3 -2 5
17 5 19 0 27 -2 18 -5z m-92 -22 c-10 -11 -24 -17 -32 -14 -8 3 -14 0 -14 -6
0 -6 -5 -11 -11 -11 -5 0 -8 4 -4 9 3 5 1 12 -5 16 -23 14 -7 25 37 25 45 0
46 0 29 -19z m660 8 c3 -6 1 -16 -5 -22 -13 -13 -91 -18 -91 -6 0 5 11 9 24 9
13 0 29 7 36 15 15 18 26 19 36 4z m-870 -8 c-10 -16 -43 -18 -67 -5 -23 13
-21 13 24 14 27 0 46 -4 43 -9z m489 -1 c3 -5 12 -7 20 -3 8 3 15 0 15 -6 0
-6 -6 -11 -14 -11 -8 0 -16 -7 -19 -15 -4 -9 -16 -13 -38 -10 -39 5 -45 10
-28 28 25 24 55 32 64 17z m-735 -10 c0 -5 -11 -10 -25 -10 -14 0 -25 5 -25
10 0 6 11 10 25 10 14 0 25 -4 25 -10z m155 0 c18 -7 19 -8 3 -15 -10 -4 -16
-11 -13 -15 3 -4 -9 -10 -27 -14 -46 -9 -103 32 -65 47 19 8 80 6 102 -3z
m425 -5 c0 -8 -8 -15 -17 -16 -11 0 -13 -3 -5 -6 20 -8 3 -23 -28 -23 -41 0
-65 10 -48 21 10 7 10 9 1 9 -22 0 -14 18 10 23 52 10 87 7 87 -8z m750 5 c0
-9 -40 -30 -56 -30 -10 0 -3 29 9 33 22 9 47 7 47 -3z m-1540 -11 c0 -5 -13
-9 -30 -9 -39 0 -39 15 0 16 17 1 30 -3 30 -7z m139 -3 c18 -21 -53 -52 -85
-37 -23 10 -31 31 -17 44 12 13 90 7 102 -7z m441 5 c0 -5 -15 -19 -34 -30
l-34 -22 -27 25 c-23 22 -24 25 -8 29 33 9 103 7 103 -2z m-820 -11 c-19 -13
-30 -13 -30 0 0 6 10 10 23 10 18 0 19 -2 7 -10z m150 -10 c0 -39 -100 -37
-108 3 -3 14 5 17 52 17 49 0 56 -2 56 -20z m1160 16 c0 -2 -13 -18 -29 -35
-20 -21 -38 -31 -59 -31 -16 0 -35 -7 -42 -15 -16 -19 -44 -19 -60 0 -10 12
-7 15 17 21 15 4 31 12 35 17 4 7 12 6 22 -2 20 -17 56 -5 56 19 0 13 5 17 14
14 8 -3 17 -1 21 5 6 10 25 16 25 7z m320 -5 c0 -9 -55 -41 -72 -41 -12 0 -10
24 4 38 14 14 68 16 68 3z m-1944 -18 c12 -11 38 -19 68 -20 86 -4 90 -43 5
-43 -34 0 -51 5 -55 14 -3 8 -12 12 -20 9 -10 -4 -12 0 -8 11 7 18 -11 22 -21
5 -5 -7 -25 -8 -55 -4 -30 4 -50 3 -54 -4 -5 -7 0 -8 11 -5 15 6 15 4 -2 -9
-26 -21 -81 -22 -89 -1 -9 24 -9 24 33 24 30 0 40 4 44 20 4 17 14 20 64 20
42 0 65 -5 79 -17z m79 7 c-8 -13 -35 -13 -55 0 -11 7 -5 10 23 10 23 0 36 -4
32 -10z m155 0 c0 -5 7 -7 15 -4 8 4 15 1 15 -7 0 -7 -3 -9 -6 -6 -4 3 -16 0
-28 -8 -11 -8 -33 -15 -49 -15 -30 0 -81 32 -70 44 10 10 123 7 123 -4z m260
-10 c0 -5 15 -10 34 -10 41 0 66 -8 66 -22 0 -6 -7 -7 -16 -4 -8 3 -12 2 -9
-3 9 -15 -30 -22 -58 -12 -20 8 -25 15 -20 28 6 16 5 17 -13 3 -17 -14 -18
-13 -7 1 7 9 10 19 6 22 -3 4 -1 7 5 7 7 0 12 -4 12 -10z m511 0 c33 -18 21
-30 -31 -30 -53 0 -66 14 -27 30 30 12 35 12 58 0z m424 -9 c0 -24 -51 -32
-70 -11 -13 14 -13 19 -3 23 25 11 73 2 73 -12z m425 1 c0 -32 -35 -56 -67
-46 l-28 8 35 5 c27 5 36 11 38 29 4 26 22 30 22 4z m160 10 c0 -13 -23 -32
-37 -32 -7 0 -32 -12 -55 -26 -23 -15 -54 -30 -68 -33 -14 -4 -29 -17 -35 -29
-6 -13 -19 -22 -32 -22 -34 0 -36 17 -3 24 21 4 30 11 30 26 0 13 7 20 19 20
10 0 24 7 32 16 8 10 21 13 36 9 13 -3 23 -1 23 5 0 6 5 8 10 5 6 -3 13 2 17
12 4 10 11 21 17 25 15 10 46 10 46 0z m-1222 -8 c31 -9 28 -21 -8 -29 -16 -4
-30 -10 -30 -15 0 -10 -38 -1 -46 12 -19 30 26 47 84 32z m439 -11 c6 -16 -65
-29 -79 -15 -6 6 -7 15 -3 22 9 14 77 9 82 -7z m825 -3 c20 0 21 -1 3 -20 -18
-20 -45 -27 -45 -12 1 20 14 55 18 44 2 -6 13 -12 24 -12z m-1704 -6 c25 -7
11 -22 -29 -29 -44 -8 -66 4 -56 29 6 15 38 15 85 0z m979 -27 c-5 -16 -49
-25 -75 -16 -28 11 -28 23 1 36 26 12 80 -3 74 -20z m-633 -8 c15 -13 -45 -31
-81 -24 -38 7 -40 12 -15 31 18 14 79 9 96 -7z m216 13 c0 -18 -26 -32 -62
-32 -39 0 -46 8 -26 28 13 13 88 17 88 4z m-908 -20 c9 -9 9 -15 0 -24 -10
-10 -15 -10 -21 0 -7 11 -10 10 -14 -3 -5 -13 -14 -15 -43 -9 -28 5 -35 4 -29
-6 10 -16 -12 -30 -51 -30 -24 0 -34 6 -43 26 l-12 26 46 -4 c42 -3 45 -1 45
21 0 22 2 23 55 19 31 -3 61 -10 67 -16z m256 -9 c3 -21 0 -23 -52 -23 -55 0
-72 9 -62 35 3 9 21 13 58 12 47 -2 53 -5 56 -24z m218 13 c18 -19 18 -27 -1
-19 -9 3 -23 -1 -33 -9 -15 -13 -21 -13 -50 -1 -28 11 -32 16 -22 28 16 19 87
19 106 1z m651 -88 c-3 -57 -8 -110 -12 -119 -5 -13 -27 -18 -102 -23 -53 -4
-98 -5 -100 -2 -3 2 -1 56 3 120 l7 115 51 4 c28 2 75 4 105 5 l54 2 -6 -102z
m87 71 c18 -18 18 -19 -8 -29 -43 -16 -58 -13 -54 13 5 38 31 45 62 16z m205
7 c10 -12 8 -17 -8 -25 -29 -16 -61 -13 -68 5 -12 31 53 48 76 20z m571 5 c0
-12 -57 -41 -64 -33 -4 3 1 14 11 24 17 19 53 25 53 9z m-1191 -24 c16 -20 4
-27 -46 -27 -41 0 -56 14 -36 33 12 12 70 7 82 -6z m-699 -7 c3 -1 13 -1 23 0
13 1 18 -4 15 -17 -4 -24 -68 -32 -68 -8 0 11 -6 14 -25 9 -23 -6 -33 4 -20
18 5 5 63 3 75 -2z m260 -5 c11 -13 11 -18 0 -28 -10 -9 -11 -9 -6 1 9 15 -6
16 -20 2 -12 -12 -64 3 -64 18 0 26 70 31 90 7z m224 6 c14 -5 16 -10 8 -15
-7 -4 -17 -4 -24 0 -6 4 -8 3 -5 -3 9 -15 -34 -24 -50 -11 -24 20 -15 38 20
37 17 0 41 -4 51 -8z m740 -33 c-8 -13 -72 -20 -90 -10 -15 9 -14 11 11 24 21
12 35 13 56 5 15 -6 26 -14 23 -19z m174 23 c23 -14 -33 -44 -58 -31 -11 6
-20 15 -20 20 0 18 55 26 78 11z m-601 -17 c11 -28 -43 -45 -77 -24 -13 8 -12
11 5 24 26 20 64 20 72 0z m1003 8 c0 -11 -51 -35 -58 -28 -2 3 -2 12 1 21 7
15 57 22 57 7z m-1424 -37 c-20 -8 -25 -14 -15 -18 8 -3 1 -6 -16 -6 -16 0
-40 5 -53 13 -19 10 -21 15 -10 23 18 15 79 21 103 9 19 -9 18 -10 -9 -21z
m222 18 c2 -7 -4 -13 -13 -13 -9 0 -13 -5 -10 -10 5 -7 -7 -9 -35 -6 -51 6
-57 11 -40 31 16 19 91 17 98 -2z m-700 -1 c7 -5 10 -16 6 -25 -11 -31 -94
-14 -94 18 0 17 65 21 88 7z m269 -7 c8 -23 -2 -29 -55 -29 -41 -1 -47 2 -50
22 -3 20 0 22 48 22 36 0 52 -4 57 -15z m1137 0 c22 -16 22 -16 -16 -33 -49
-21 -83 13 -35 36 29 14 29 14 51 -3z m576 7 c0 -14 -23 -32 -41 -32 -18 0
-34 -26 -30 -50 2 -12 0 -12 -9 -3 -14 13 -39 7 -55 -12 -5 -6 -29 -23 -51
-38 l-42 -26 11 30 c8 20 18 29 34 29 12 0 28 8 35 18 7 10 28 24 46 31 17 7
32 20 32 28 0 7 10 18 23 23 28 11 47 12 47 2z m-775 -18 c17 -13 18 -16 5
-24 -26 -17 -60 -12 -60 8 0 35 22 41 55 16z m-422 -12 c-2 -7 4 -9 15 -5 15
6 15 5 3 -10 -15 -19 -76 -23 -86 -6 -4 6 1 16 10 23 21 15 61 13 58 -2z
m-896 -2 c26 0 36 -5 40 -20 4 -16 14 -20 52 -22 25 0 54 -1 64 0 21 2 22 -5
1 -25 -13 -14 -17 -14 -25 -2 -6 10 -9 10 -9 2 0 -8 -14 -13 -36 -13 -27 0
-37 5 -41 20 -4 16 -14 20 -48 20 -35 0 -44 4 -54 26 -10 23 -10 26 4 20 9 -3
32 -6 52 -6z m692 -3 l32 -13 -26 -12 c-31 -14 -55 -15 -74 -3 -12 8 -12 12
-2 25 16 19 29 20 70 3z m681 4 c0 -5 15 -14 33 -21 24 -8 29 -13 17 -19 -28
-15 -65 -20 -80 -10 -13 8 -13 11 4 24 10 7 15 18 11 24 -3 6 -1 11 4 11 6 0
11 -4 11 -9z m590 0 c0 -9 -53 -31 -73 -31 -6 0 -2 9 8 20 18 20 65 28 65 11z
m-1474 -16 c18 -14 17 -14 -13 -15 -17 0 -33 -5 -35 -11 -4 -13 -38 16 -38 32
0 15 64 10 86 -6z m1103 6 c12 -8 11 -13 -10 -30 -29 -25 -43 -27 -35 -5 4 12
2 15 -9 10 -21 -8 -19 11 3 23 21 13 33 13 51 2z m-1329 -15 c0 -22 -56 -25
-69 -4 -10 16 -7 18 29 18 27 0 40 -4 40 -14z m124 -11 c-4 -8 1 -17 10 -21 9
-3 13 -10 10 -15 -3 -5 -10 -7 -15 -3 -16 10 -61 -5 -53 -18 4 -6 1 -8 -7 -4
-8 3 -22 9 -31 12 -10 4 -18 15 -18 25 0 15 7 19 38 19 20 0 44 5 52 10 20 13
20 13 14 -5z m426 0 c19 -12 -16 -35 -54 -35 -47 0 -63 14 -37 32 22 16 68 17
91 3z m193 -5 c-5 -17 -13 -20 -44 -18 -22 1 -39 5 -39 8 0 16 27 30 56 30 27
0 31 -3 27 -20z m-403 0 c13 -9 12 -12 -4 -25 -23 -18 -59 -19 -87 -4 -20 10
-20 11 -2 24 21 17 72 19 93 5z m885 0 c-3 -5 1 -10 9 -10 21 0 20 -10 -1 -26
-22 -16 -33 -17 -53 -4 -13 9 -11 13 10 30 27 21 45 26 35 10z m190 -16 c25 9
24 -7 -1 -21 -33 -16 -34 -16 -34 3 0 12 -6 15 -26 10 -23 -6 -25 -5 -12 7 20
20 52 25 56 9 2 -7 10 -11 17 -8z m410 7 c-3 -5 -1 -12 5 -16 19 -12 -1 -24
-29 -19 -27 6 -45 -6 -46 -30 0 -11 -56 -28 -64 -20 -4 3 5 13 18 23 13 9 35
28 50 42 24 25 79 41 66 20z m-781 -10 c9 -14 -4 -41 -20 -41 -8 0 -14 -4 -14
-10 0 -5 -4 -10 -9 -10 -9 0 -12 49 -4 63 6 10 41 9 47 -2z m-614 -21 c0 -5 8
-10 18 -12 11 -3 4 -8 -21 -17 -34 -12 -40 -11 -58 5 -18 16 -19 20 -5 30 17
12 66 7 66 -6z m195 10 c-3 -6 4 -10 17 -10 18 0 20 -2 8 -10 -17 -11 -73 -13
-83 -3 -4 3 -2 12 4 20 13 15 63 18 54 3z m-824 -26 c8 -8 39 -17 69 -21 29
-5 52 -12 52 -18 -1 -5 -6 -10 -11 -10 -5 0 -13 -3 -17 -7 -21 -22 -84 -4 -84
24 0 17 -6 19 -41 17 -37 -3 -58 9 -59 33 0 11 74 -4 91 -18z m432 7 c6 -6 -3
-12 -26 -16 -44 -8 -63 1 -46 21 12 15 55 12 72 -5z m517 9 c0 -5 -7 -10 -15
-10 -8 0 -15 5 -15 10 0 6 7 10 15 10 8 0 15 -4 15 -10z m366 1 c-4 -5 6 -14
21 -19 l28 -10 -28 -11 c-35 -14 -77 -14 -77 -1 0 6 10 15 23 20 18 7 18 9 4
9 -25 1 -11 21 14 21 11 0 18 -4 15 -9z m-1093 -16 c8 -18 0 -22 -43 -21 -25
1 -36 6 -38 19 -3 14 4 17 36 17 26 0 42 -5 45 -15z m1297 0 c0 -18 -28 -34
-51 -28 -19 5 -25 24 -12 36 13 14 63 7 63 -8z m173 8 c8 -7 -48 -43 -66 -42
-6 0 -2 4 11 9 12 5 22 16 22 25 0 15 21 21 33 8z m-944 -22 c11 -7 10 -11 -7
-20 -11 -6 -29 -11 -39 -12 -13 -1 -11 -3 7 -9 14 -4 18 -8 9 -9 -18 -1 -69
21 -69 31 0 22 72 36 99 19z m199 -3 c-5 -15 -88 -24 -88 -9 0 13 18 19 58 20
23 1 32 -3 30 -11z m-608 -13 c0 -18 -20 -27 -63 -29 -26 0 -33 4 -35 22 -3
20 1 22 47 22 39 0 51 -4 51 -15z m207 -2 c3 -7 -13 -14 -42 -19 -50 -7 -61
-3 -51 21 4 12 17 15 48 13 23 -2 43 -8 45 -15z m1047 0 c10 -25 -8 -35 -37
-20 -20 10 -23 17 -15 25 17 17 45 15 52 -5z m-160 -2 c11 -17 -31 -42 -58
-35 -14 3 -26 10 -26 15 0 21 72 39 84 20z m-595 -17 c7 -6 -36 -44 -49 -44
-6 0 -8 5 -5 10 3 6 -1 10 -9 10 -21 0 -20 17 2 29 15 9 49 6 61 -5z m311 7
c0 -11 -59 -20 -66 -10 -2 4 8 10 23 12 16 2 31 5 36 6 4 0 7 -3 7 -8z m105
-7 c22 -7 29 -12 15 -9 -14 2 -32 -3 -41 -11 -12 -11 -27 -14 -48 -9 -28 6
-29 7 -13 25 20 22 35 23 87 4z m-1237 -17 c21 -16 13 -30 -13 -23 -31 8 -32
0 -2 -33 l22 -26 -22 19 c-13 10 -32 34 -42 52 l-20 33 32 -6 c18 -3 38 -10
45 -16z m606 8 c-4 -8 -1 -15 6 -15 6 0 8 -4 5 -10 -8 -13 -62 -13 -70 0 -3 6
1 13 10 16 13 6 14 8 3 15 -9 6 -2 9 19 9 25 0 31 -4 27 -15z m436 7 c0 -14
-24 -32 -43 -32 -26 0 -59 19 -52 31 7 11 95 12 95 1z m-823 -25 c16 -16 16
-17 -5 -17 -12 0 -22 -6 -23 -12 0 -10 -2 -10 -6 0 -2 6 -16 12 -29 12 -16 0
-24 6 -24 18 0 23 63 23 87 -1z m196 9 c16 -12 15 -14 -14 -20 -47 -9 -59 -7
-59 8 0 26 44 33 73 12z m1071 -5 c7 -10 -43 -25 -52 -16 -7 7 18 25 35 25 6
0 14 -4 17 -9z m-756 -11 c14 0 13 -4 -5 -21 -17 -18 -28 -20 -58 -15 -21 4
-35 12 -32 19 4 13 46 27 65 21 8 -2 21 -4 30 -4z m190 -7 c-4 -24 -78 -32
-78 -9 0 17 15 24 53 25 22 1 28 -3 25 -16z m205 11 c15 -16 -8 -34 -44 -34
-37 0 -51 15 -32 33 8 9 68 9 76 1z m187 -3 c0 -9 -34 -21 -64 -21 -15 0 -16
3 -6 15 13 16 70 21 70 6z m-792 -7 c30 -8 28 -20 -5 -29 -45 -13 -63 -12 -74
1 -19 23 30 41 79 28z m457 -4 c18 -8 17 -9 -7 -9 -16 -1 -28 4 -28 9 0 12 8
12 35 0z m-854 -22 c12 -18 11 -38 -1 -38 -5 0 -10 7 -10 15 0 11 -8 13 -32 8
-35 -6 -36 -6 -56 -4 -10 1 -10 6 -1 22 9 18 17 21 51 16 23 -3 45 -11 49 -19z
m202 16 c15 -16 -8 -34 -43 -34 -39 0 -56 12 -45 30 7 11 78 14 88 4z m487
-24 c0 -5 -6 -10 -12 -10 -7 0 -23 -3 -36 -6 -18 -5 -21 -3 -16 10 7 17 64 23
64 6z m175 0 c-28 -12 -47 -12 -40 0 3 6 18 10 33 9 24 0 25 -1 7 -9z m-762
-25 c3 -14 -63 -19 -76 -6 -7 7 -3 13 14 19 25 10 59 2 62 -13z m392 10 c0 -5
-17 -11 -37 -13 -31 -3 -37 0 -32 13 7 18 69 18 69 0z m-185 -5 c0 -5 -13 -10
-29 -10 -16 0 -36 -3 -45 -6 -11 -4 -16 -1 -16 10 0 12 10 16 45 16 25 0 45
-4 45 -10z"/>
<path d="M10076 3101 c-15 -17 -16 -20 -1 -34 28 -28 69 9 44 39 -15 18 -23
18 -43 -5z"/>
<path d="M9969 2974 c-16 -20 -1 -48 29 -52 27 -4 49 33 31 54 -15 19 -43 18
-60 -2z"/>
<path d="M6906 3179 c-14 -11 -26 -25 -26 -31 0 -6 9 0 19 13 18 22 29 24 133
30 l113 5 -106 2 c-94 2 -109 0 -133 -19z"/>
<path d="M7203 3183 c20 -2 54 -2 75 0 20 2 3 4 -38 4 -41 0 -58 -2 -37 -4z"/>
<path d="M7383 3173 c20 -2 54 -2 75 0 20 2 3 4 -38 4 -41 0 -58 -2 -37 -4z"/>
<path d="M7548 3163 c23 -2 59 -2 80 0 20 2 1 4 -43 4 -44 0 -61 -2 -37 -4z"/>
<path d="M7786 3151 c61 -4 117 -11 125 -16 11 -6 12 -5 2 5 -9 9 -47 14 -125
16 l-113 2 111 -7z"/>
<path d="M7020 3143 c-8 -3 -19 -11 -23 -17 -10 -14 -2 -103 23 -261 24 -151
45 -229 72 -273 23 -37 86 -72 128 -71 18 1 15 3 -13 10 -90 21 -102 48 -19
41 31 -2 54 -2 51 1 -3 4 -33 8 -68 11 -67 5 -84 12 -61 26 8 6 10 10 4 10 -9
0 -54 86 -54 103 0 2 39 2 88 -1 64 -3 90 -8 100 -20 11 -14 12 -14 12 0 0 11
6 15 19 11 12 -3 24 -21 32 -51 19 -64 19 -66 -21 -74 -19 -4 2 -5 47 -2 46 2
110 13 145 24 34 10 65 17 68 15 15 -9 392 -56 418 -52 25 4 24 4 -5 6 -46 2
-398 50 -415 56 -8 3 -22 19 -31 35 l-17 29 32 -4 c83 -11 622 -25 630 -17 6
6 6 12 1 15 -21 13 -234 26 -303 19 -69 -8 -64 -9 60 -8 84 0 143 -5 155 -12
16 -9 7 -10 -45 -7 -36 3 -141 7 -235 10 -172 5 -584 30 -685 42 -49 6 -52 7
-25 14 17 3 60 7 97 8 l67 1 -15 28 c-7 15 -14 33 -14 41 0 8 -3 12 -6 8 -4
-3 -2 -19 4 -35 l10 -29 -81 -6 c-45 -3 -86 -2 -91 3 -4 5 -12 27 -16 51 l-8
42 61 -7 c33 -3 82 -6 109 -6 51 0 56 -5 74 -75 6 -24 5 -24 -73 -28 -67 -3
-64 -3 27 -4 60 -1 94 2 80 6 l-25 8 25 5 c22 5 22 5 3 7 -18 1 -43 41 -43 70
0 4 80 1 178 -6 278 -19 662 -28 662 -16 0 13 -41 21 -150 27 l-85 5 95 -13
95 -13 -113 -2 c-62 0 -177 3 -255 9 -78 5 -259 17 -402 26 -143 9 -262 18
-265 21 -3 3 67 3 155 0 99 -3 125 -2 70 2 -49 4 -80 8 -68 9 21 2 21 3 6 42
-17 43 -14 56 11 47 9 -4 19 -24 22 -47 l7 -40 71 2 71 2 -62 3 c-61 4 -62 5
-73 39 -7 19 -10 38 -7 40 3 3 90 0 193 -6 104 -7 205 -10 224 -8 19 1 -104
11 -275 21 -319 19 -354 22 -363 32 -5 5 51 9 98 7 23 -1 23 -1 5 8 -11 5 -39
9 -62 9 l-43 1 0 40 0 40 53 2 52 1 -40 7 c-31 6 -25 7 24 4 35 -2 66 -5 68
-8 2 -2 10 -27 18 -54 12 -46 11 -51 -4 -55 -9 -3 9 -5 39 -5 49 1 51 1 20 8
-29 6 -31 8 -10 10 l25 2 -25 7 c-18 5 -28 18 -37 50 l-13 44 118 -7 c322 -18
627 -26 630 -16 2 6 10 6 23 0 11 -6 19 -7 19 -2 0 14 -35 21 -52 11 -15 -8
-310 1 -657 21 -190 11 -219 11 -241 3z m150 -188 c18 -55 11 -62 -67 -63 -44
-1 -61 2 -48 7 19 8 18 9 -5 12 -21 3 -26 10 -28 42 l-3 37 70 0 69 0 12 -35z
m280 -255 c29 0 39 -6 54 -31 22 -37 16 -43 -57 -59 -89 -19 -102 -15 -116 31
-7 23 -15 48 -18 57 -6 13 1 14 48 9 30 -4 70 -7 89 -7z"/>
<path d="M6872 3090 c0 -19 2 -27 5 -17 2 9 2 25 0 35 -3 9 -5 1 -5 -18z"/>
<path d="M7127 3101 c3 -12 10 -21 15 -21 13 0 6 32 -9 37 -7 3 -9 -3 -6 -16z"/>
<path d="M6610 3043 c0 -18 49 -151 76 -205 22 -44 90 -105 152 -137 36 -19
25 -5 -15 21 -55 33 -112 87 -130 122 -9 17 -31 72 -49 121 -18 50 -33 85 -34
78z"/>
<path d="M7298 3023 c12 -2 32 -2 45 0 12 2 2 4 -23 4 -25 0 -35 -2 -22 -4z"/>
<path d="M6883 2985 c0 -22 2 -30 4 -17 2 12 2 30 0 40 -3 9 -5 -1 -4 -23z"/>
<path d="M7335 3010 l-60 -7 50 0 c28 0 82 3 120 7 l70 7 -60 0 c-33 0 -87 -3
-120 -7z"/>
<path d="M7558 3003 c18 -2 45 -2 60 0 15 2 0 4 -33 4 -33 0 -45 -2 -27 -4z"/>
<path d="M7443 2993 c15 -2 39 -2 55 0 15 2 2 4 -28 4 -30 0 -43 -2 -27 -4z"/>
<path d="M7610 2990 c-27 -5 -7 -6 50 -3 52 3 97 7 99 9 7 6 -101 2 -149 -6z"/>
<path d="M10450 2979 c-13 -24 -4 -41 10 -19 10 16 13 40 5 40 -2 0 -9 -9 -15
-21z"/>
<path d="M7755 2981 c-20 -5 0 -8 60 -9 50 -1 113 -6 140 -11 37 -7 8 -8 -110
-6 l-160 3 183 -10 c169 -10 205 -8 189 8 -8 8 -202 34 -242 33 -16 -1 -43 -5
-60 -8z"/>
<path d="M6586 2910 c16 -91 62 -149 170 -217 27 -17 42 -33 39 -42 -4 -11 6
-12 52 -6 69 8 74 12 48 31 -12 9 -21 11 -23 4 -2 -5 -18 -10 -36 -10 -23 0
-53 15 -102 49 -91 64 -104 79 -131 159 -13 37 -20 51 -17 32z"/>
<path d="M7418 2883 c18 -2 45 -2 60 0 15 2 0 4 -33 4 -33 0 -45 -2 -27 -4z"/>
<path d="M7538 2873 c12 -2 32 -2 45 0 12 2 2 4 -23 4 -25 0 -35 -2 -22 -4z"/>
<path d="M7408 2863 c17 -2 47 -2 65 0 17 2 3 4 -33 4 -36 0 -50 -2 -32 -4z"/>
<path d="M7575 2860 l-60 -7 55 0 c30 -1 82 3 115 7 l60 7 -55 0 c-30 0 -82
-3 -115 -7z"/>
<path d="M7710 2850 l-45 -7 45 0 c25 -1 72 3 105 7 l60 7 -60 0 c-33 0 -80
-3 -105 -7z"/>
<path d="M10415 2810 c-9 -29 -42 -48 -116 -65 -59 -13 -60 -14 -14 -9 28 3
64 12 82 19 31 13 71 60 60 71 -3 3 -8 -4 -12 -16z"/>
<path d="M6921 2749 c-2 -36 41 -150 66 -180 30 -36 95 -69 133 -68 16 0 9 5
-22 13 -91 25 -119 56 -154 175 -13 42 -23 69 -23 60z"/>
<path d="M7415 2751 l60 -5 -60 -7 c-40 -4 -20 -5 60 -4 86 2 106 1 70 -5 -43
-7 -39 -7 24 -4 41 2 90 5 110 5 20 1 -25 7 -99 15 -74 7 -155 12 -180 11 -38
-1 -36 -2 15 -6z"/>
<path d="M7753 2723 c20 -2 54 -2 75 0 20 2 3 4 -38 4 -41 0 -58 -2 -37 -4z"/>
<path d="M10178 2723 c12 -2 30 -2 40 0 9 3 -1 5 -23 4 -22 0 -30 -2 -17 -4z"/>
<path d="M7628 2713 c12 -2 30 -2 40 0 9 3 -1 5 -23 4 -22 0 -30 -2 -17 -4z"/>
<path d="M10103 2713 c9 -2 25 -2 35 0 9 3 1 5 -18 5 -19 0 -27 -2 -17 -5z"/>
<path d="M10018 2703 c12 -2 32 -2 45 0 12 2 2 4 -23 4 -25 0 -35 -2 -22 -4z"/>
<path d="M9938 2693 c12 -2 30 -2 40 0 9 3 -1 5 -23 4 -22 0 -30 -2 -17 -4z"/>
<path d="M9843 2683 c15 -2 37 -2 50 0 12 2 0 4 -28 4 -27 0 -38 -2 -22 -4z"/>
<path d="M7266 2648 l6 -37 -73 -4 -74 -3 77 -2 c42 -1 79 1 81 6 2 4 -2 23
-9 42 l-13 35 5 -37z"/>
<path d="M9748 2673 c12 -2 30 -2 40 0 9 3 -1 5 -23 4 -22 0 -30 -2 -17 -4z"/>
<path d="M9520 2660 l-85 -6 75 -1 c41 0 107 3 145 7 l70 7 -60 0 c-33 -1 -98
-4 -145 -7z"/>
<path d="M9338 2643 c17 -2 47 -2 65 0 17 2 3 4 -33 4 -36 0 -50 -2 -32 -4z"/>
<path d="M9153 2633 c26 -2 67 -2 90 0 23 2 2 3 -48 3 -49 0 -68 -1 -42 -3z"/>
<path d="M8983 2623 c20 -2 54 -2 75 0 20 2 3 4 -38 4 -41 0 -58 -2 -37 -4z"/>
<path d="M8738 2613 c28 -2 76 -2 105 0 28 2 5 3 -53 3 -58 0 -81 -1 -52 -3z"/>
<path d="M8050 2560 c30 -5 73 -8 95 -8 35 1 33 2 -15 8 -30 5 -73 8 -95 8
-35 -1 -33 -2 15 -8z"/>
<path d="M10388 2553 c12 -2 30 -2 40 0 9 3 -1 5 -23 4 -22 0 -30 -2 -17 -4z"/>
<path d="M10298 2543 c12 -2 32 -2 45 0 12 2 2 4 -23 4 -25 0 -35 -2 -22 -4z"/>
<path d="M10203 2533 c15 -2 37 -2 50 0 12 2 0 4 -28 4 -27 0 -38 -2 -22 -4z"/>
<path d="M6623 2523 c9 -2 25 -2 35 0 9 3 1 5 -18 5 -19 0 -27 -2 -17 -5z"/>
<path d="M10098 2523 c12 -2 32 -2 45 0 12 2 2 4 -23 4 -25 0 -35 -2 -22 -4z"/>
<path d="M6703 2513 c9 -2 25 -2 35 0 9 3 1 5 -18 5 -19 0 -27 -2 -17 -5z"/>
<path d="M7268 2513 c12 -2 30 -2 40 0 9 3 -1 5 -23 4 -22 0 -30 -2 -17 -4z"/>
<path d="M9998 2513 c12 -2 32 -2 45 0 12 2 2 4 -23 4 -25 0 -35 -2 -22 -4z"/>
<path d="M6793 2503 c9 -2 25 -2 35 0 9 3 1 5 -18 5 -19 0 -27 -2 -17 -5z"/>
<path d="M7358 2503 c17 -2 47 -2 65 0 17 2 3 4 -33 4 -36 0 -50 -2 -32 -4z"/>
<path d="M7520 2500 c36 -5 119 -11 185 -14 l120 -5 -150 14 c-158 14 -265 18
-155 5z"/>
<path d="M9903 2503 c15 -2 37 -2 50 0 12 2 0 4 -28 4 -27 0 -38 -2 -22 -4z"/>
<path d="M7163 2493 c9 -2 25 -2 35 0 9 3 1 5 -18 5 -19 0 -27 -2 -17 -5z"/>
<path d="M9788 2493 c18 -2 45 -2 60 0 15 2 0 4 -33 4 -33 0 -45 -2 -27 -4z"/>
<path d="M9668 2483 c18 -2 45 -2 60 0 15 2 0 4 -33 4 -33 0 -45 -2 -27 -4z"/>
<path d="M7842 2471 c-7 -4 13 -6 45 -4 79 6 89 11 23 12 -30 0 -61 -3 -68 -8z"/>
<path d="M9553 2473 c15 -2 37 -2 50 0 12 2 0 4 -28 4 -27 0 -38 -2 -22 -4z"/>
<path d="M9433 2463 c15 -2 39 -2 55 0 15 2 2 4 -28 4 -30 0 -43 -2 -27 -4z"/>
<path d="M9298 2453 c17 -2 47 -2 65 0 17 2 3 4 -33 4 -36 0 -50 -2 -32 -4z"/>
<path d="M9168 2443 c18 -2 45 -2 60 0 15 2 0 4 -33 4 -33 0 -45 -2 -27 -4z"/>
<path d="M9038 2433 c18 -2 45 -2 60 0 15 2 0 4 -33 4 -33 0 -45 -2 -27 -4z"/>
<path d="M6808 2423 c12 -2 32 -2 45 0 12 2 2 4 -23 4 -25 0 -35 -2 -22 -4z"/>
<path d="M8918 2423 c18 -2 45 -2 60 0 15 2 0 4 -33 4 -33 0 -45 -2 -27 -4z"/>
<path d="M6928 2413 c17 -2 47 -2 65 0 17 2 3 4 -33 4 -36 0 -50 -2 -32 -4z"/>
<path d="M8767 2413 c18 -2 50 -2 70 0 21 2 7 4 -32 4 -38 0 -55 -2 -38 -4z"/>
<path d="M7088 2403 c23 -2 61 -2 85 0 23 2 4 4 -43 4 -47 0 -66 -2 -42 -4z"/>
<path d="M8607 2403 c18 -2 50 -2 70 0 21 2 7 4 -32 4 -38 0 -55 -2 -38 -4z"/>
<path d="M7403 2393 c53 -2 141 -2 195 0 53 1 9 3 -98 3 -107 0 -151 -2 -97
-3z"/>
<path d="M8403 2393 c32 -2 81 -2 110 0 29 2 3 3 -58 3 -60 0 -84 -1 -52 -3z"/>
<path d="M7913 2383 c75 -2 199 -2 275 0 75 1 13 3 -138 3 -151 0 -213 -2
-137 -3z"/>
<path d="M2282 3850 c0 -19 2 -27 5 -17 2 9 2 25 0 35 -3 9 -5 1 -5 -18z"/>
<path d="M2342 3700 c0 -19 2 -27 5 -17 2 9 2 25 0 35 -3 9 -5 1 -5 -18z"/>
<path d="M2310 3617 c0 -21 6 -37 15 -40 21 -9 28 9 14 35 -7 13 -11 25 -10
28 1 2 -2 6 -8 8 -7 2 -11 -11 -11 -31z"/>
<path d="M2230 3570 c-13 -8 -13 -12 0 -36 21 -38 34 -39 55 -8 17 26 17 28
-1 41 -21 15 -34 16 -54 3z m40 -20 c0 -11 -4 -20 -10 -20 -5 0 -10 9 -10 20
0 11 5 20 10 20 6 0 10 -9 10 -20z"/>
<path d="M2203 3445 c0 -22 2 -30 4 -17 2 12 2 30 0 40 -3 9 -5 -1 -4 -23z"/>
<path d="M2409 3421 c-16 -16 -29 -35 -29 -43 0 -7 5 -4 11 7 6 11 23 30 38
42 14 13 22 23 18 23 -5 0 -22 -13 -38 -29z"/>
<path d="M2252 3407 c-29 -31 -29 -59 -1 -55 30 4 45 31 33 58 l-9 21 -23 -24z
m4 -44 c-11 -11 -19 6 -11 24 8 17 8 17 12 0 3 -10 2 -21 -1 -24z"/>
<path d="M2445 3409 c-25 -70 -34 -103 -30 -107 3 -3 5 -3 5 -1 0 2 9 29 20
58 11 30 18 57 15 59 -2 3 -7 -1 -10 -9z"/>
<path d="M2182 3375 c-17 -37 -14 -45 4 -12 9 16 14 31 11 33 -2 2 -9 -7 -15
-21z"/>
<path d="M2322 3357 c-1 -38 8 -54 19 -36 13 21 11 56 -5 62 -9 4 -13 -4 -14
-26z"/>
<path d="M2353 3225 c0 -33 2 -45 4 -27 2 18 2 45 0 60 -2 15 -4 0 -4 -33z"/>
<path d="M2302 3160 c0 -19 2 -27 5 -17 2 9 2 25 0 35 -3 9 -5 1 -5 -18z"/>
<path d="M8650 3810 c19 -13 30 -13 30 0 0 6 -10 10 -22 10 -19 0 -20 -2 -8
-10z"/>
<path d="M8547 3803 c-4 -3 -7 -13 -7 -20 0 -12 3 -12 15 1 8 8 15 17 15 20 0
8 -15 7 -23 -1z"/>
<path d="M10496 2456 c38 -42 79 -62 90 -45 3 5 -6 9 -19 9 -16 0 -34 13 -56
40 -17 22 -37 40 -43 40 -6 0 7 -20 28 -44z"/>
<path d="M10664 2469 c-3 -6 -20 -19 -38 -30 -37 -22 -28 -25 13 -4 16 8 31
21 34 30 7 17 1 20 -9 4z"/>
<path d="M10458 2403 c12 -2 30 -2 40 0 9 3 -1 5 -23 4 -22 0 -30 -2 -17 -4z"/>
<path d="M6780 2373 c19 -15 53 -44 75 -64 85 -77 111 -89 189 -87 l71 2 -60
3 c-91 5 -97 8 -187 84 -46 39 -92 75 -103 81 -11 5 -4 -3 15 -19z"/>
<path d="M10358 2393 c12 -2 32 -2 45 0 12 2 2 4 -23 4 -25 0 -35 -2 -22 -4z"/>
<path d="M10268 2383 c12 -2 30 -2 40 0 9 3 -1 5 -23 4 -22 0 -30 -2 -17 -4z"/>
<path d="M10168 2373 c12 -2 32 -2 45 0 12 2 2 4 -23 4 -25 0 -35 -2 -22 -4z"/>
<path d="M10053 2363 c15 -2 39 -2 55 0 15 2 2 4 -28 4 -30 0 -43 -2 -27 -4z"/>
<path d="M9953 2353 c15 -2 37 -2 50 0 12 2 0 4 -28 4 -27 0 -38 -2 -22 -4z"/>
<path d="M9853 2343 c15 -2 37 -2 50 0 12 2 0 4 -28 4 -27 0 -38 -2 -22 -4z"/>
<path d="M9753 2333 c15 -2 37 -2 50 0 12 2 0 4 -28 4 -27 0 -38 -2 -22 -4z"/>
<path d="M9643 2323 c15 -2 37 -2 50 0 12 2 0 4 -28 4 -27 0 -38 -2 -22 -4z"/>
<path d="M9533 2313 c15 -2 37 -2 50 0 12 2 0 4 -28 4 -27 0 -38 -2 -22 -4z"/>
<path d="M9423 2303 c15 -2 37 -2 50 0 12 2 0 4 -28 4 -27 0 -38 -2 -22 -4z"/>
<path d="M9303 2293 c15 -2 39 -2 55 0 15 2 2 4 -28 4 -30 0 -43 -2 -27 -4z"/>
<path d="M9183 2283 c15 -2 39 -2 55 0 15 2 2 4 -28 4 -30 0 -43 -2 -27 -4z"/>
<path d="M9063 2273 c15 -2 39 -2 55 0 15 2 2 4 -28 4 -30 0 -43 -2 -27 -4z"/>
<path d="M8963 2263 c15 -2 37 -2 50 0 12 2 0 4 -28 4 -27 0 -38 -2 -22 -4z"/>
<path d="M8843 2253 c15 -2 39 -2 55 0 15 2 2 4 -28 4 -30 0 -43 -2 -27 -4z"/>
<path d="M8733 2243 c15 -2 39 -2 55 0 15 2 2 4 -28 4 -30 0 -43 -2 -27 -4z"/>
<path d="M8618 2233 c18 -2 45 -2 60 0 15 2 0 4 -33 4 -33 0 -45 -2 -27 -4z"/>
<path d="M8493 2223 c15 -2 39 -2 55 0 15 2 2 4 -28 4 -30 0 -43 -2 -27 -4z"/>
<path d="M7353 2213 c104 -2 270 -2 370 0 100 1 16 2 -188 2 -203 0 -285 -1
-182 -2z"/>
<path d="M8088 2203 c28 -2 76 -2 105 0 28 2 5 3 -53 3 -58 0 -81 -1 -52 -3z"/>
<path d="M2660 5850 c-52 -10 -85 -18 -74 -19 12 0 46 4 75 10 30 6 104 14
164 18 l110 8 -90 0 c-49 0 -133 -7 -185 -17z"/>
<path d="M2260 5830 c0 -92 44 -201 90 -225 45 -23 206 -64 220 -55 9 6 8 20
-6 64 -10 30 -20 54 -22 51 -2 -2 3 -25 12 -51 9 -26 16 -49 16 -51 0 -9 -52
-1 -124 19 -122 32 -155 74 -173 216 l-6 53 34 -5 c57 -10 164 -26 172 -26 4
0 7 -8 7 -17 0 -14 2 -15 9 -5 5 8 24 18 42 22 l34 8 -40 0 c-22 -1 -86 6
-142 16 -130 20 -123 21 -123 -14z"/>
<path d="M3058 5833 c23 -2 59 -2 80 0 20 2 1 4 -43 4 -44 0 -61 -2 -37 -4z"/>
<path d="M3965 5830 c-43 -5 -18 -6 65 -3 165 5 372 -11 473 -37 191 -48 315
-155 509 -437 96 -138 131 -200 120 -207 -5 -3 -58 64 -117 149 -176 254 -269
351 -394 415 -58 29 -153 60 -180 59 -9 0 18 -10 59 -22 195 -59 304 -158 518
-473 l62 -91 -16 -131 c-8 -72 -14 -141 -12 -154 2 -13 9 33 17 102 16 156 18
165 37 149 11 -9 14 -24 10 -53 -4 -29 -3 -35 3 -21 9 20 9 20 17 1 4 -11 15
-27 25 -37 23 -23 123 -193 155 -264 14 -30 24 -67 22 -82 -3 -27 -5 -28 -48
-25 -31 3 -67 17 -117 48 -40 24 -76 44 -80 44 -5 0 -8 19 -7 43 1 40 1 41 -3
4 -3 -29 -8 -37 -21 -35 -14 3 -17 13 -15 53 l2 50 -12 -50 c-7 -27 -15 -45
-19 -40 -4 6 -3 17 3 25 31 49 -10 143 -86 198 -65 48 -104 55 -244 49 -186
-9 -296 -45 -380 -125 -37 -35 -40 -41 -34 -78 3 -21 12 -46 19 -55 21 -24 18
-26 -43 -23 l-58 3 63 -9 c34 -5 72 -12 82 -15 36 -12 21 -20 -32 -18 -37 1
-26 -2 37 -11 50 -8 102 -18 117 -24 36 -15 208 -32 317 -32 74 -1 92 -4 126
-25 22 -14 54 -24 70 -24 29 1 29 1 -7 10 -20 4 -51 17 -70 29 -28 17 -30 20
-12 20 29 0 135 -50 129 -60 -3 -5 15 -12 40 -15 33 -5 55 -3 80 10 23 10 47
14 65 10 l30 -7 -17 -31 c-9 -18 -18 -43 -20 -57 -2 -14 -13 -89 -24 -168 -11
-79 -19 -148 -17 -154 2 -6 16 71 30 170 15 99 34 195 43 212 16 31 19 32 61
25 38 -5 47 -3 69 19 29 29 34 86 11 141 -17 40 -11 47 69 89 27 14 43 26 35
26 -9 0 -40 -16 -69 -35 -30 -20 -55 -34 -56 -33 -1 2 -15 28 -30 58 -44 87
-200 345 -283 465 -250 364 -387 456 -717 485 -129 11 -238 11 -350 0z m1241
-782 c101 -164 164 -295 164 -344 0 -73 -36 -94 -119 -68 -25 8 0 19 41 19 81
0 77 48 -18 220 -37 66 -84 145 -106 176 -24 35 -36 62 -32 72 3 10 8 17 9 17
2 0 30 -42 61 -92z m-301 -33 c67 -42 106 -93 112 -148 4 -36 1 -49 -16 -66
-11 -11 -21 -23 -21 -25 0 -2 17 -6 38 -8 69 -10 212 -90 212 -119 0 -16 -26
-10 -44 10 -16 17 -146 82 -193 96 -16 4 -25 0 -34 -17 -9 -19 -9 -21 2 -10 7
6 21 12 30 12 20 0 120 -43 168 -72 l33 -21 -38 -14 c-22 -8 -47 -17 -56 -20
-10 -3 -55 13 -103 37 -68 34 -92 41 -118 36 -18 -3 -26 -2 -19 2 7 5 -81 14
-205 21 -227 14 -256 20 -318 67 -35 26 -48 51 -21 41 18 -7 246 -24 429 -33
126 -6 137 -8 125 -23 -11 -14 -11 -14 3 -4 8 7 33 17 55 22 28 7 32 9 14 10
-14 1 -43 12 -65 26 -34 21 -51 24 -120 23 l-80 -1 80 -6 c65 -5 125 -21 125
-34 0 -9 -502 18 -560 29 -41 9 -39 34 3 35 27 2 28 2 7 6 -41 8 -46 20 -19
49 81 89 235 135 435 131 104 -2 114 -4 159 -32z m-155 -325 c55 -6 38 -7 -63
-3 -76 3 -151 9 -165 13 -31 8 116 2 228 -10z"/>
<path d="M4403 4873 c15 -2 39 -2 55 0 15 2 2 4 -28 4 -30 0 -43 -2 -27 -4z"/>
<path d="M4537 4863 c18 -2 50 -2 70 0 21 2 7 4 -32 4 -38 0 -55 -2 -38 -4z"/>
<path d="M4388 4853 c12 -2 30 -2 40 0 9 3 -1 5 -23 4 -22 0 -30 -2 -17 -4z"/>
<path d="M4813 4853 c37 -2 97 -2 135 0 37 2 6 3 -68 3 -74 0 -105 -1 -67 -3z"/>
<path d="M4563 4843 c9 -2 25 -2 35 0 9 3 1 5 -18 5 -19 0 -27 -2 -17 -5z"/>
<path d="M5430 5818 c73 -8 835 -10 827 -1 -4 3 -204 7 -444 7 -241 1 -413 -2
-383 -6z"/>
<path d="M6303 5823 c20 -2 54 -2 75 0 20 2 3 4 -38 4 -41 0 -58 -2 -37 -4z"/>
<path d="M3725 5804 l-70 -13 60 5 c33 3 75 8 93 11 26 4 31 2 26 -10 -3 -9
-29 -19 -72 -25 l-67 -11 63 5 c34 3 62 3 62 1 0 -2 -20 -59 -45 -126 -49
-134 -99 -300 -93 -307 3 -2 15 33 27 78 31 111 119 352 131 356 5 2 6 10 3
18 -3 8 4 17 18 23 37 15 -50 12 -136 -5z"/>
<path d="M5150 5810 c55 -8 307 -13 299 -6 -2 2 -83 6 -179 8 -100 3 -151 2
-120 -2z"/>
<path d="M6345 5810 c-57 -3 -13 -7 150 -11 127 -3 257 -3 290 1 53 7 48 8
-37 6 -54 -1 -98 2 -98 6 0 8 -172 7 -305 -2z"/>
<path d="M4611 5806 c10 -9 89 -46 89 -41 0 5 -75 45 -86 45 -4 0 -5 -2 -3 -4z"/>
<path d="M7150 5795 c46 -18 64 -17 25 0 -16 8 -37 14 -45 14 -8 0 1 -7 20
-14z"/>
<path d="M4063 5793 c31 -2 83 -2 115 0 31 2 5 3 -58 3 -63 0 -89 -1 -57 -3z"/>
<path d="M5047 5793 c18 -2 50 -2 70 0 21 2 7 4 -32 4 -38 0 -55 -2 -38 -4z"/>
<path d="M6825 5790 l-70 -6 75 -2 c41 0 84 3 95 8 18 8 18 8 -5 8 -14 -1 -56
-4 -95 -8z"/>
<path d="M3464 5760 c-160 -34 -305 -75 -353 -100 -59 -30 -133 -118 -258
-305 -78 -118 -140 -224 -147 -255 -4 -14 5 -1 19 29 14 30 28 52 31 48 3 -3
-2 -19 -10 -36 -9 -16 -16 -38 -16 -48 1 -10 7 -2 14 19 16 44 66 131 72 125
3 -2 -7 -26 -21 -53 -14 -27 -28 -67 -30 -89 l-5 -40 13 45 c7 25 30 77 50
115 21 39 29 59 18 45 -32 -39 -24 -13 15 51 34 56 53 77 40 44 -12 -31 3 -12
60 78 66 103 115 161 159 189 17 10 25 18 19 18 -5 0 -19 -7 -30 -15 -25 -19
-40 -19 -23 1 30 37 162 78 414 130 88 18 147 33 130 33 -16 -1 -89 -13 -161
-29z m-418 -182 c-14 -18 -52 -73 -83 -121 -32 -48 -59 -83 -61 -77 -2 5 -9 7
-14 4 -7 -4 -8 -2 -4 5 4 6 12 8 18 5 8 -5 9 -1 5 10 -4 9 -3 15 2 12 5 -4 20
13 34 36 37 64 109 158 120 158 5 0 -2 -15 -17 -32z m-187 -245 c-53 -86 -101
-157 -95 -140 7 21 106 177 113 177 2 0 -6 -17 -18 -37z"/>
<path d="M3888 5780 c12 -5 22 -14 22 -20 0 -6 -5 -8 -11 -4 -8 4 -9 0 -4 -15
4 -13 2 -21 -5 -21 -7 0 -9 -8 -5 -21 5 -16 4 -19 -5 -14 -9 5 -10 1 -5 -15 5
-16 4 -20 -5 -15 -9 5 -10 1 -5 -15 5 -16 4 -20 -5 -15 -9 5 -10 2 -5 -14 4
-12 2 -21 -4 -21 -6 0 -8 -7 -5 -15 4 -8 2 -15 -4 -15 -6 0 -8 -9 -5 -20 3
-11 0 -20 -6 -20 -5 0 -8 -7 -5 -15 4 -8 2 -15 -4 -15 -6 0 -8 -10 -4 -22 3
-15 2 -19 -7 -14 -9 6 -10 0 -5 -20 5 -19 4 -25 -5 -20 -9 6 -10 0 -5 -20 4
-17 3 -25 -3 -21 -6 4 -8 -4 -5 -20 3 -18 1 -24 -6 -19 -8 5 -10 -2 -5 -25 5
-25 3 -30 -7 -24 -9 5 -11 4 -6 -3 8 -14 -4 -113 -13 -108 -4 3 -5 -11 -3 -31
4 -27 1 -34 -8 -28 -10 6 -12 3 -6 -10 8 -22 -15 -216 -25 -209 -4 2 -5 -11
-2 -29 6 -37 14 -35 -86 -29 -19 1 -31 8 -34 20 -4 15 -5 15 -6 0 -1 -15 -12
-17 -83 -14 -46 2 -67 2 -48 0 91 -10 120 -16 115 -23 -2 -5 -44 -7 -92 -6
-49 1 -65 1 -38 -1 28 -2 65 -7 83 -10 33 -5 33 -6 16 -25 -11 -12 -32 -20
-58 -21 -37 -1 -38 -2 -8 -5 17 -2 32 -7 32 -11 0 -4 -20 -52 -44 -107 -24
-55 -47 -111 -50 -125 -8 -31 -3 -22 54 113 23 53 56 115 72 138 l30 41 81 -7
c45 -4 190 -18 322 -31 215 -21 317 -28 275 -18 -8 2 -132 15 -275 29 -143 14
-288 28 -322 31 -97 10 -76 26 25 20 48 -3 79 -3 68 0 -21 7 -20 18 20 279 29
190 58 316 121 522 46 150 47 152 77 156 17 2 4 4 -29 5 -45 0 -54 -2 -37 -8z"/>
<path d="M4273 5783 c15 -2 39 -2 55 0 15 2 2 4 -28 4 -30 0 -43 -2 -27 -4z"/>
<path d="M4905 5710 c44 -44 82 -80 85 -80 2 0 -31 36 -75 80 -44 44 -82 80
-85 80 -2 0 31 -36 75 -80z"/>
<path d="M6970 5780 l-55 -7 55 -1 c30 -1 62 3 70 8 17 11 21 11 -70 0z"/>
<path d="M4373 5773 c9 -2 25 -2 35 0 9 3 1 5 -18 5 -19 0 -27 -2 -17 -5z"/>
<path d="M2514 5722 c-1 -32 1 -41 7 -27 l8 20 0 -20 c1 -15 4 -16 10 -7 4 8
42 17 92 22 l84 9 -89 -2 c-60 -1 -90 2 -93 10 -2 6 4 13 14 16 15 4 14 5 -4
6 -12 0 -23 5 -25 11 -1 5 -3 -11 -4 -38z"/>
<path d="M2723 5763 c9 -2 25 -2 35 0 9 3 1 5 -18 5 -19 0 -27 -2 -17 -5z"/>
<path d="M2603 5753 c15 -2 39 -2 55 0 15 2 2 4 -28 4 -30 0 -43 -2 -27 -4z"/>
<path d="M4730 5743 c58 -43 121 -102 170 -160 60 -71 79 -85 28 -21 -50 65
-151 161 -189 181 -33 17 -33 17 -9 0z"/>
<path d="M3455 5725 c-67 -17 -36 -18 40 -1 33 8 49 14 35 14 -14 0 -47 -6
-75 -13z"/>
<path d="M3285 5687 c-44 -11 -75 -22 -70 -23 6 -2 51 7 100 20 50 13 81 24
70 24 -11 0 -56 -9 -100 -21z"/>
<path d="M5090 5490 c12 -16 24 -30 26 -30 3 0 -4 14 -16 30 -12 17 -24 30
-26 30 -3 0 4 -13 16 -30z"/>
<path d="M3641 5479 c-6 -18 -11 -37 -10 -43 0 -6 7 7 15 28 8 22 12 41 10 43
-2 2 -9 -10 -15 -28z"/>
<path d="M5041 5388 c74 -111 117 -170 94 -128 -20 35 -166 250 -170 250 -3 0
31 -55 76 -122z"/>
<path d="M3586 5304 c-4 -14 -5 -28 -3 -31 3 -2 8 8 11 23 4 14 5 28 3 31 -3
2 -8 -8 -11 -23z"/>
<path d="M3665 5290 c-4 -17 -5 -34 -2 -36 2 -3 7 10 11 27 8 42 0 50 -9 9z"/>
<path d="M5226 5293 c60 -94 87 -133 92 -133 2 0 -4 12 -14 28 -60 93 -87 132
-92 132 -2 0 4 -12 14 -27z"/>
<path d="M3646 5204 c-4 -20 -5 -38 -3 -40 3 -3 8 11 11 32 4 20 5 38 3 40 -3
3 -8 -11 -11 -32z"/>
<path d="M3615 5055 c-3 -26 -4 -49 -2 -51 3 -3 8 16 12 41 3 26 4 49 2 51 -3
3 -8 -16 -12 -41z"/>
<path d="M2686 5055 c-3 -9 -6 -24 -5 -33 0 -9 5 -4 10 12 9 32 6 48 -5 21z"/>
<path d="M2723 5035 c0 -22 2 -30 4 -17 2 12 2 30 0 40 -3 9 -5 -1 -4 -23z"/>
<path d="M2752 4980 c-2 -87 6 -101 58 -99 l35 2 -40 6 -40 6 -6 80 -5 80 -2
-75z"/>
<path d="M5102 5000 c0 -19 2 -27 5 -17 2 9 2 25 0 35 -3 9 -5 1 -5 -18z"/>
<path d="M2666 4919 c-7 -88 0 -110 38 -108 19 1 18 2 -4 8 -25 7 -25 9 -22
94 2 48 2 87 -1 87 -2 0 -7 -36 -11 -81z"/>
<path d="M2711 4933 c-1 -55 7 -73 33 -72 16 1 17 2 4 6 -18 4 -24 20 -31 78
-3 23 -4 20 -6 -12z"/>
<path d="M5123 4910 c0 -25 2 -35 4 -22 2 12 2 32 0 45 -2 12 -4 2 -4 -23z"/>
<path d="M2918 4873 c23 -2 61 -2 85 0 23 2 4 4 -43 4 -47 0 -66 -2 -42 -4z"/>
<path d="M3118 4863 c17 -2 47 -2 65 0 17 2 3 4 -33 4 -36 0 -50 -2 -32 -4z"/>
<path d="M2797 4853 c18 -2 50 -2 70 0 21 2 7 4 -32 4 -38 0 -55 -2 -38 -4z"/>
<path d="M3273 4853 c20 -2 54 -2 75 0 20 2 3 4 -38 4 -41 0 -58 -2 -37 -4z"/>
<path d="M2958 4843 c23 -2 61 -2 85 0 23 2 4 4 -43 4 -47 0 -66 -2 -42 -4z"/>
<path d="M3175 4829 c50 -4 115 -7 145 -6 50 0 48 1 -20 7 -41 4 -106 7 -145
7 -69 0 -69 0 20 -8z"/>
<path d="M5112 4810 c0 -19 2 -27 5 -17 2 9 2 25 0 35 -3 9 -5 1 -5 -18z"/>
<path d="M3793 4813 c15 -2 39 -2 55 0 15 2 2 4 -28 4 -30 0 -43 -2 -27 -4z"/>
<path d="M6720 4810 l-255 -6 220 0 c121 -1 360 2 530 5 l310 7 -275 0 c-151
0 -390 -3 -530 -6z"/>
<path d="M2808 4803 c12 -2 32 -2 45 0 12 2 2 4 -23 4 -25 0 -35 -2 -22 -4z"/>
<path d="M3913 4803 c15 -2 37 -2 50 0 12 2 0 4 -28 4 -27 0 -38 -2 -22 -4z"/>
<path d="M2963 4793 c15 -2 37 -2 50 0 12 2 0 4 -28 4 -27 0 -38 -2 -22 -4z"/>
<path d="M4023 4793 c15 -2 37 -2 50 0 12 2 0 4 -28 4 -27 0 -38 -2 -22 -4z"/>
<path d="M3108 4783 c12 -2 30 -2 40 0 9 3 -1 5 -23 4 -22 0 -30 -2 -17 -4z"/>
<path d="M4123 4783 c15 -2 37 -2 50 0 12 2 0 4 -28 4 -27 0 -38 -2 -22 -4z"/>
<path d="M3228 4773 c12 -2 30 -2 40 0 9 3 -1 5 -23 4 -22 0 -30 -2 -17 -4z"/>
<path d="M5795 4765 c28 -7 61 -13 75 -13 14 0 -2 6 -35 14 -76 17 -107 16
-40 -1z"/>
<path d="M2309 4753 c-11 -15 -11 -16 1 -5 16 14 98 16 134 3 13 -6 26 -20 29
-33 4 -20 4 -20 6 5 1 34 -27 47 -103 47 -39 0 -57 -5 -67 -17z"/>
<path d="M3348 4763 c12 -2 32 -2 45 0 12 2 2 4 -23 4 -25 0 -35 -2 -22 -4z"/>
<path d="M3558 4743 c12 -2 32 -2 45 0 12 2 2 4 -23 4 -25 0 -35 -2 -22 -4z"/>
<path d="M8390 4741 c0 -3 42 -17 93 -30 50 -14 123 -35 160 -47 37 -13 75
-20 84 -17 11 4 14 3 9 -5 -4 -7 -4 -12 1 -12 10 0 40 20 30 20 -4 0 -72 18
-151 40 -177 49 -226 60 -226 51z"/>
<path d="M8890 4746 c0 -2 33 -17 73 -32 85 -32 175 -76 231 -113 l40 -26
-115 -6 -114 -5 110 -2 c61 -1 115 2 122 6 8 5 -12 23 -58 52 -54 34 -66 46
-53 50 12 4 -16 17 -82 38 -108 33 -154 45 -154 38z"/>
<path d="M3678 4733 c12 -2 32 -2 45 0 12 2 2 4 -23 4 -25 0 -35 -2 -22 -4z"/>
<path d="M7700 4691 c151 -50 291 -110 321 -137 14 -12 37 -15 107 -12 68 2
93 -1 107 -12 17 -14 16 -15 -6 -21 -23 -7 -23 -7 4 -8 36 -1 32 16 -12 46
-32 22 -249 99 -256 91 -3 -2 43 -19 100 -38 58 -19 105 -38 105 -42 0 -4 -27
-8 -60 -8 -49 0 -71 6 -114 31 -30 16 -92 46 -138 65 -59 25 -72 34 -45 29 79
-13 32 5 -93 34 -182 44 -188 38 -20 -18z"/>
<path d="M3893 4713 c9 -2 25 -2 35 0 9 3 1 5 -18 5 -19 0 -27 -2 -17 -5z"/>
<path d="M3983 4703 c9 -2 25 -2 35 0 9 3 1 5 -18 5 -19 0 -27 -2 -17 -5z"/>
<path d="M4073 4693 c9 -2 25 -2 35 0 9 3 1 5 -18 5 -19 0 -27 -2 -17 -5z"/>
<path d="M4163 4683 c9 -2 25 -2 35 0 9 3 1 5 -18 5 -19 0 -27 -2 -17 -5z"/>
<path d="M6750 4686 c0 -2 42 -14 93 -25 62 -14 102 -18 121 -13 24 7 9 11
-85 25 -123 19 -129 19 -129 13z"/>
<path d="M4263 4673 c9 -2 25 -2 35 0 9 3 1 5 -18 5 -19 0 -27 -2 -17 -5z"/>
<path d="M4343 4663 c9 -2 25 -2 35 0 9 3 1 5 -18 5 -19 0 -27 -2 -17 -5z"/>
<path d="M6320 4660 c14 -4 34 -8 45 -8 16 0 15 2 -5 8 -14 4 -34 8 -45 8 -16
0 -15 -2 5 -8z"/>
<path d="M7875 4660 c11 -5 27 -9 35 -9 9 0 8 4 -5 9 -11 5 -27 9 -35 9 -9 0
-8 -4 5 -9z"/>
<path d="M9150 4667 c4 -4 90 -42 160 -69 24 -10 24 -11 5 -19 -15 -7 -13 -8
12 -5 26 4 36 0 53 -21 11 -14 23 -24 26 -21 12 13 -56 60 -131 92 -84 35
-133 52 -125 43z"/>
<path d="M2272 4584 c-2 -83 10 -113 40 -101 8 4 7 6 -4 6 -21 1 -27 23 -31
111 -3 62 -3 62 -5 -16z"/>
<path d="M2473 4610 c0 -30 2 -43 4 -27 2 15 2 39 0 55 -2 15 -4 2 -4 -28z"/>
<path d="M4438 4653 c12 -2 30 -2 40 0 9 3 -1 5 -23 4 -22 0 -30 -2 -17 -4z"/>
<path d="M4528 4643 c12 -2 30 -2 40 0 9 3 -1 5 -23 4 -22 0 -30 -2 -17 -4z"/>
<path d="M4613 4633 c9 -2 25 -2 35 0 9 3 1 5 -18 5 -19 0 -27 -2 -17 -5z"/>
<path d="M6460 4630 c14 -4 34 -8 45 -8 16 0 15 2 -5 8 -14 4 -34 8 -45 8 -16
0 -15 -2 5 -8z"/>
<path d="M8773 4632 c-7 -4 33 -24 100 -49 121 -45 157 -51 55 -10 -35 14 -54
27 -43 27 13 1 6 7 -19 16 -22 8 -48 11 -59 8 -13 -4 -17 -2 -13 5 8 13 -3 14
-21 3z m82 -22 c13 -5 14 -9 5 -9 -8 0 -24 4 -35 9 -13 5 -14 9 -5 9 8 0 24
-4 35 -9z"/>
<path d="M4693 4623 c9 -2 25 -2 35 0 9 3 1 5 -18 5 -19 0 -27 -2 -17 -5z"/>
<path d="M6595 4599 c39 -10 77 -18 85 -18 8 1 -16 9 -55 20 -38 10 -77 18
-85 18 -8 -1 17 -9 55 -20z"/>
<path d="M7085 4604 c28 -7 55 -13 60 -13 17 2 -69 27 -90 27 -11 0 3 -6 30
-14z"/>
<path d="M4978 4583 c12 -2 30 -2 40 0 9 3 -1 5 -23 4 -22 0 -30 -2 -17 -4z"/>
<path d="M3520 4549 c31 -7 28 -7 -19 -6 -40 2 -55 -2 -59 -13 -4 -12 -2 -13
9 -4 10 8 34 9 82 2 38 -5 76 -7 85 -5 10 3 0 5 -20 6 -21 0 -38 6 -38 12 0 7
17 9 53 4 72 -9 88 -15 81 -27 -4 -7 -2 -8 5 -4 18 11 26 -24 8 -41 -13 -13
-27 -14 -104 -3 -48 6 -105 15 -125 20 -46 10 -48 6 -9 -15 16 -8 32 -23 36
-34 12 -40 94 -51 134 -18 8 7 28 16 45 22 38 13 58 57 35 80 -18 18 -113 35
-184 34 -48 -2 -49 -2 -15 -10z m107 -96 c22 -9 9 -27 -25 -37 -39 -11 -75 3
-92 35 -12 21 -11 21 46 14 31 -4 63 -9 71 -12z"/>
<path d="M6815 4546 c22 -7 56 -16 75 -19 33 -6 33 -6 -5 7 -22 7 -56 16 -75
19 -33 6 -33 6 5 -7z"/>
<path d="M2460 4535 c0 -30 -38 -55 -87 -56 -47 -2 -47 -2 -13 -9 29 -6 31 -8
10 -9 -14 -1 -34 -6 -45 -11 -13 -5 0 -6 33 -3 48 5 52 4 46 -13 -5 -19 -5
-19 10 0 20 25 68 16 129 -25 46 -30 46 -31 31 -55 -10 -14 -12 -24 -6 -24 6
0 15 7 20 16 13 24 25 13 82 -73 49 -76 60 -103 40 -103 -5 0 -10 -7 -10 -15
0 -21 20 -19 20 3 1 15 2 15 17 -3 l16 -20 -7 20 c-17 49 -80 148 -126 199
-54 59 -136 106 -183 106 l-29 0 31 29 c27 25 42 61 26 61 -3 0 -5 -7 -5 -15z"/>
<path d="M7375 4531 c11 -4 36 -11 55 -15 24 -4 29 -3 15 3 -11 4 -36 11 -55
15 -24 4 -29 3 -15 -3z"/>
<path d="M7838 4533 c29 -2 74 -2 100 0 26 2 2 3 -53 3 -55 0 -76 -1 -47 -3z"/>
<path d="M7623 4523 c15 -2 39 -2 55 0 15 2 2 4 -28 4 -30 0 -43 -2 -27 -4z"/>
<path d="M9113 4523 c48 -2 126 -2 175 0 48 1 8 3 -88 3 -96 0 -136 -2 -87 -3z"/>
<path d="M6945 4510 c11 -5 27 -9 35 -9 9 0 8 4 -5 9 -11 5 -27 9 -35 9 -9 0
-8 -4 5 -9z"/>
<path d="M7015 4490 c11 -5 27 -9 35 -9 9 0 8 4 -5 9 -11 5 -27 9 -35 9 -9 0
-8 -4 5 -9z"/>
<path d="M8038 4493 c23 -2 61 -2 85 0 23 2 4 4 -43 4 -47 0 -66 -2 -42 -4z"/>
<path d="M7798 4483 c17 -2 47 -2 65 0 17 2 3 4 -33 4 -36 0 -50 -2 -32 -4z"/>
<path d="M7623 4473 c9 -2 25 -2 35 0 9 3 1 5 -18 5 -19 0 -27 -2 -17 -5z"/>
<path d="M7209 4429 c63 -21 116 -37 118 -35 5 5 -207 76 -222 75 -6 0 41 -18
104 -40z"/>
<path d="M3375 4420 c-5 -24 -12 -30 -32 -30 -33 0 -27 -7 11 -12 26 -3 29 0
32 35 4 45 -2 49 -11 7z"/>
<path d="M2813 4433 c9 -2 25 -2 35 0 9 3 1 5 -18 5 -19 0 -27 -2 -17 -5z"/>
<path d="M2923 4423 c9 -2 25 -2 35 0 9 3 1 5 -18 5 -19 0 -27 -2 -17 -5z"/>
<path d="M3033 4413 c9 -2 25 -2 35 0 9 3 1 5 -18 5 -19 0 -27 -2 -17 -5z"/>
<path d="M3233 4393 c9 -2 25 -2 35 0 9 3 1 5 -18 5 -19 0 -27 -2 -17 -5z"/>
<path d="M7341 4386 c8 -8 163 -65 167 -62 2 2 -33 18 -77 35 -75 29 -100 36
-90 27z"/>
<path d="M3428 4373 c12 -2 30 -2 40 0 9 3 -1 5 -23 4 -22 0 -30 -2 -17 -4z"/>
<path d="M3613 4353 c9 -2 25 -2 35 0 9 3 1 5 -18 5 -19 0 -27 -2 -17 -5z"/>
<path d="M3713 4343 c9 -2 25 -2 35 0 9 3 1 5 -18 5 -19 0 -27 -2 -17 -5z"/>
<path d="M3364 4175 c0 -93 2 -133 3 -88 2 45 2 122 0 170 -1 48 -3 12 -3 -82z"/>
<path d="M3818 4333 c12 -2 30 -2 40 0 9 3 -1 5 -23 4 -22 0 -30 -2 -17 -4z"/>
<path d="M5780 4316 c-74 -22 -146 -55 -122 -56 6 0 12 -5 12 -11 0 -5 -4 -7
-10 -4 -5 3 -10 1 -10 -4 0 -20 21 -11 30 13 11 30 107 63 215 76 l70 7 -55 1
c-31 1 -88 -9 -130 -22z"/>
<path d="M6018 4333 c12 -2 32 -2 45 0 12 2 2 4 -23 4 -25 0 -35 -2 -22 -4z"/>
<path d="M3908 4323 c12 -2 30 -2 40 0 9 3 -1 5 -23 4 -22 0 -30 -2 -17 -4z"/>
<path d="M4003 4313 c9 -2 25 -2 35 0 9 3 1 5 -18 5 -19 0 -27 -2 -17 -5z"/>
<path d="M7521 4316 c10 -9 239 -114 239 -110 0 6 -224 114 -236 114 -4 0 -5
-2 -3 -4z"/>
<path d="M4183 4293 c9 -2 25 -2 35 0 9 3 1 5 -18 5 -19 0 -27 -2 -17 -5z"/>
<path d="M4353 4273 c9 -2 25 -2 35 0 9 3 1 5 -18 5 -19 0 -27 -2 -17 -5z"/>
<path d="M6555 4270 c11 -5 27 -9 35 -9 9 0 8 4 -5 9 -11 5 -27 9 -35 9 -9 0
-8 -4 5 -9z"/>
<path d="M4443 4263 c9 -2 25 -2 35 0 9 3 1 5 -18 5 -19 0 -27 -2 -17 -5z"/>
<path d="M4533 4253 c9 -2 25 -2 35 0 9 3 1 5 -18 5 -19 0 -27 -2 -17 -5z"/>
<path d="M5557 4210 c-94 -63 -191 -165 -256 -271 -28 -46 -51 -87 -51 -93 0
-5 23 29 50 75 59 97 87 130 105 123 15 -6 39 31 30 46 -7 11 97 98 160 136
40 23 53 34 41 34 -2 0 -38 -22 -79 -50z"/>
<path d="M6704 4224 c39 -13 75 -24 80 -23 6 0 -20 11 -58 25 -39 13 -75 24
-80 23 -6 0 20 -11 58 -25z"/>
<path d="M4703 4233 c9 -2 25 -2 35 0 9 3 1 5 -18 5 -19 0 -27 -2 -17 -5z"/>
<path d="M2183 4223 c15 -2 39 -2 55 0 15 2 2 4 -28 4 -30 0 -43 -2 -27 -4z"/>
<path d="M4783 4223 c9 -2 25 -2 35 0 9 3 1 5 -18 5 -19 0 -27 -2 -17 -5z"/>
<path d="M2317 4196 c63 -30 129 -89 179 -161 41 -60 56 -73 27 -24 -50 86
-193 209 -243 209 -8 0 8 -11 37 -24z"/>
<path d="M7770 4197 c0 -3 26 -20 58 -37 31 -18 83 -50 115 -72 31 -21 57 -36
57 -34 0 7 -105 77 -172 116 -32 17 -58 30 -58 27z"/>
<path d="M5142 4073 c2 -88 3 -94 5 -35 2 40 8 72 14 72 6 0 7 4 4 10 -4 6 16
8 55 3 39 -4 75 -1 99 7 21 6 46 10 57 8 15 -4 12 -8 -16 -21 -19 -9 -28 -16
-20 -17 8 0 28 9 44 19 l30 20 -29 7 c-15 4 -49 2 -76 -5 -26 -7 -63 -9 -83
-5 -30 5 -36 10 -31 25 5 16 1 19 -24 19 l-31 0 2 -107z m36 85 c-6 -18 -28
-21 -28 -4 0 9 7 16 16 16 9 0 14 -5 12 -12z"/>
<path d="M6371 4126 c-7 -9 -8 -17 -2 -20 13 -9 43 4 38 17 -5 17 -23 19 -36
3z"/>
<path d="M2751 4125 c0 -5 6 -21 14 -35 8 -14 14 -20 14 -15 0 6 -6 21 -14 35
-8 14 -14 21 -14 15z"/>
<path d="M10182 4125 c0 -5 6 -26 13 -45 7 -19 14 -28 14 -20 0 8 -6 29 -14
45 -7 17 -13 26 -13 20z"/>
<path d="M5213 4103 c9 -2 25 -2 35 0 9 3 1 5 -18 5 -19 0 -27 -2 -17 -5z"/>
<path d="M5693 4093 c15 -2 37 -2 50 0 12 2 0 4 -28 4 -27 0 -38 -2 -22 -4z"/>
<path d="M5557 4066 c-70 -29 -157 -94 -205 -155 -52 -66 -61 -84 -16 -31 93
108 163 159 262 191 31 10 48 18 37 18 -11 0 -46 -10 -78 -23z"/>
<path d="M2781 4060 c-1 -3 13 -41 29 -83 32 -82 36 -102 21 -92 -12 7 -24
-12 -16 -25 5 -8 11 -8 20 0 10 9 19 -8 44 -82 36 -107 36 -109 16 -102 -8 4
-15 1 -15 -5 0 -6 8 -11 19 -11 15 0 23 -20 47 -110 16 -61 30 -106 32 -101 5
14 -61 249 -112 399 -39 115 -83 225 -85 212z"/>
<path d="M2183 4030 c-67 -40 -154 -202 -168 -311 -4 -32 0 -24 14 27 38 140
115 259 186 290 17 7 23 13 15 14 -8 0 -29 -9 -47 -20z"/>
<path d="M8010 4047 c0 -3 18 -20 40 -37 22 -17 40 -29 40 -27 0 3 -18 20 -40
37 -22 17 -40 29 -40 27z"/>
<path d="M3373 3950 c0 -25 2 -35 4 -22 2 12 2 32 0 45 -2 12 -4 2 -4 -23z"/>
<path d="M2425 3955 c9 -25 61 -203 68 -230 5 -19 5 -19 6 1 1 26 -51 203 -68
230 -12 19 -12 19 -6 -1z"/>
<path d="M2567 3915 c15 -30 29 -53 31 -51 4 5 -46 106 -53 106 -3 0 7 -25 22
-55z"/>
<path d="M5134 3740 c0 -102 2 -143 3 -92 2 50 2 134 0 185 -1 50 -3 9 -3 -93z"/>
<path d="M3382 3860 c0 -19 2 -27 5 -17 2 9 2 25 0 35 -3 9 -5 1 -5 -18z"/>
<path d="M5675 3858 c-97 -51 -167 -134 -228 -274 -27 -62 -68 -214 -66 -249
1 -11 7 9 15 45 78 358 278 558 472 470 51 -23 54 -33 8 -24 -21 3 -57 -1 -92
-11 -46 -13 -69 -28 -113 -74 -31 -31 -73 -89 -94 -128 -20 -39 -43 -73 -51
-76 -15 -6 -56 -118 -56 -153 0 -13 4 -25 9 -29 6 -3 8 -69 4 -163 -6 -159 -3
-181 40 -382 l12 -56 28 59 c15 33 21 54 13 48 -11 -10 -16 -3 -25 36 -6 26
-16 75 -21 108 l-9 60 5 -65 c2 -36 11 -89 19 -119 8 -33 11 -61 5 -70 -26
-46 -68 289 -55 434 8 84 24 101 26 28 2 -43 2 -45 8 -15 l6 33 41 -43 c22
-24 50 -56 62 -72 12 -16 22 -24 22 -19 0 6 -36 50 -81 99 -101 112 -105 121
-89 179 7 25 16 45 19 45 4 0 20 -14 37 -31 49 -51 158 -121 177 -113 31 11
45 56 50 159 4 68 3 84 -2 49 -5 -27 -20 -69 -35 -92 -14 -23 -23 -42 -18 -42
4 0 15 12 24 28 l17 27 1 -33 c0 -18 -5 -42 -10 -53 -10 -18 -14 -17 -70 23
-33 23 -72 55 -87 70 l-27 28 28 58 c38 77 81 129 135 164 60 38 74 37 67 -4
l-6 -33 13 34 c7 19 22 37 32 41 17 6 17 7 2 13 -28 10 -120 -37 -166 -84 -52
-53 -115 -172 -106 -200 4 -10 42 -45 85 -76 51 -37 76 -61 70 -67 -19 -19
-200 121 -200 154 0 10 10 27 23 37 12 10 37 49 56 86 55 110 135 178 230 193
33 5 51 1 93 -20 53 -27 107 -81 93 -94 -4 -4 -10 -1 -12 6 -5 14 -33 16 -33
2 0 -5 -8 -10 -17 -10 -15 0 -16 2 -3 10 13 8 13 10 -2 10 -29 0 -38 -34 -38
-143 0 -120 14 -176 61 -244 19 -26 35 -50 36 -51 1 -2 34 3 73 11 81 17 77
21 83 -70 4 -59 3 -63 -17 -63 -17 0 -18 2 -6 11 19 13 -22 3 -65 -17 -24 -11
-25 -13 -5 -8 14 4 31 9 39 12 9 3 12 1 8 -5 -5 -7 0 -9 13 -6 11 3 20 2 20
-1 0 -21 -33 -164 -42 -180 -15 -28 -20 -156 -7 -172 14 -17 -26 -134 -45
-134 -25 0 -47 27 -61 75 -13 43 -14 45 -11 13 7 -54 28 -93 53 -96 22 -3 22
-4 7 -35 -48 -93 -103 -146 -156 -148 -22 -1 -22 -1 2 -8 23 -6 22 -8 -23 -30
-96 -46 -209 -13 -297 86 -105 120 -163 279 -193 538 -3 24 -4 22 -5 -10 -6
-161 88 -419 193 -534 135 -145 281 -148 412 -9 127 135 196 364 196 648 0
280 -69 495 -201 634 -89 92 -207 121 -297 74z m365 -190 c27 -29 77 -161 96
-254 18 -84 13 -96 -44 -109 -25 -5 -32 -3 -32 8 0 24 -49 76 -87 92 -40 17
-36 35 8 35 41 0 64 -14 94 -58 14 -20 25 -32 25 -27 0 6 -11 27 -25 47 -29
43 -79 64 -118 49 -34 -13 -37 -3 -37 130 l0 109 50 0 c38 0 54 -5 70 -22z
m-6 -327 c16 -28 17 -34 5 -42 -8 -5 -16 -9 -19 -9 -6 0 -70 97 -70 105 0 17
68 -27 84 -54z m120 -364 c-3 -18 -12 -64 -20 -104 -8 -40 -14 -75 -14 -78 0
-3 -4 -3 -10 0 -14 8 -13 55 1 55 8 0 8 4 1 13 -12 14 -9 33 15 110 16 52 36
55 27 4z"/>
<path d="M6100 3433 c0 -13 5 -23 10 -23 13 0 13 11 0 30 -8 12 -10 11 -10 -7z"/>
<path d="M5222 3778 c-12 -29 -24 -66 -27 -83 -3 -16 5 -1 18 35 14 36 28 73
32 83 4 9 5 17 2 17 -2 0 -14 -24 -25 -52z"/>
<path d="M5264 3785 c-14 -25 -25 -48 -23 -50 2 -2 16 19 32 46 34 62 27 65
-9 4z"/>
<path d="M2627 3780 c3 -14 12 -41 20 -60 11 -30 12 -31 8 -6 -4 16 -13 43
-20 60 -11 23 -13 25 -8 6z"/>
<path d="M6625 3760 c-8 -12 20 -24 35 -15 6 3 8 11 5 16 -8 12 -32 12 -40 -1z"/>
<path d="M5415 3730 c-9 -16 -13 -30 -11 -30 3 0 12 14 21 30 9 17 13 30 11
30 -3 0 -12 -13 -21 -30z"/>
<path d="M5900 3740 c-11 -11 -20 -26 -19 -32 0 -7 5 -3 11 9 6 12 22 27 37
32 17 6 20 10 9 10 -10 1 -27 -8 -38 -19z"/>
<path d="M5214 3674 c-14 -37 -19 -43 -24 -28 -5 14 -9 10 -14 -19 -4 -22 -3
-44 4 -55 9 -14 11 -13 7 11 -2 15 -2 25 1 22 3 -3 16 20 29 51 13 32 21 59
19 61 -2 2 -12 -17 -22 -43z"/>
<path d="M2503 3655 c0 -27 2 -38 4 -22 2 15 2 37 0 50 -2 12 -4 0 -4 -28z"/>
<path d="M2532 3660 c0 -19 2 -27 5 -17 2 9 2 25 0 35 -3 9 -5 1 -5 -18z"/>
<path d="M5382 3665 c-17 -37 -14 -45 4 -12 9 16 14 31 11 33 -2 2 -9 -7 -15
-21z"/>
<path d="M1995 3607 c-4 -36 -5 -71 -3 -79 3 -7 8 20 12 61 3 41 4 76 2 78 -2
3 -7 -25 -11 -60z"/>
<path d="M5783 3635 c0 -22 2 -30 4 -17 2 12 2 30 0 40 -3 9 -5 -1 -4 -23z"/>
<path d="M6180 3657 c0 -5 9 -21 20 -37 32 -44 91 -174 85 -187 -2 -7 0 -13 5
-13 5 0 18 -16 27 -35 14 -26 21 -32 33 -25 13 9 13 10 0 10 -10 0 -37 46 -73
123 -53 111 -96 185 -97 164z"/>
<path d="M6114 3606 c31 -95 57 -205 67 -276 22 -161 12 -365 -25 -505 -22
-82 -28 -110 -21 -103 19 18 55 195 66 316 10 126 9 151 -10 282 -20 139 -49
253 -72 288 -9 15 -10 15 -5 -2z"/>
<path d="M2544 3500 c0 -58 1 -81 3 -52 2 28 2 76 0 105 -2 28 -3 5 -3 -53z"/>
<path d="M2514 3490 c0 -58 1 -81 3 -52 2 28 2 76 0 105 -2 28 -3 5 -3 -53z"/>
<path d="M5863 3530 c0 -36 2 -50 4 -32 2 17 2 47 0 65 -2 17 -4 3 -4 -33z"/>
<path d="M3440 3542 c0 -6 7 -44 15 -84 9 -42 13 -92 10 -118 -3 -25 -9 -70
-13 -100 -5 -34 -12 -54 -19 -53 -7 2 -38 5 -70 7 -32 3 -47 3 -33 0 14 -3 48
-9 77 -15 34 -7 53 -16 56 -27 4 -14 5 -13 6 3 1 15 3 17 10 7 13 -21 18 5 10
53 l-6 40 -2 -37 c0 -21 -5 -38 -11 -38 -13 0 -13 93 1 107 15 15 13 78 -6
173 -16 79 -25 109 -25 82z"/>
<path d="M6381 3485 c0 -5 9 -28 20 -50 10 -22 16 -29 13 -15 -7 28 -33 80
-33 65z"/>
<path d="M6755 3479 c-4 -6 -4 -13 -1 -16 8 -8 36 5 36 17 0 13 -27 13 -35 -1z"/>
<path d="M5123 3385 c0 -38 2 -53 4 -32 2 20 2 52 0 70 -2 17 -4 1 -4 -38z"/>
<path d="M5871 3429 c-2 -35 26 -112 50 -138 12 -12 31 -20 47 -20 l27 2 -27
4 c-41 6 -77 67 -91 153 l-4 25 -2 -26z"/>
<path d="M2976 3414 c-17 -45 -102 -163 -121 -167 -19 -4 -19 -4 1 -6 16 -1
24 -14 38 -58 27 -88 75 -171 111 -193 30 -18 183 -61 215 -59 8 0 -33 13 -93
28 -141 35 -163 57 -221 219 -20 57 -23 74 -13 78 8 3 14 11 14 18 0 7 19 40
43 73 23 33 40 67 38 74 -3 9 -7 7 -12 -7z"/>
<path d="M1991 3370 c-1 -55 31 -212 53 -260 9 -19 14 -26 10 -15 -23 75 -45
181 -53 245 -6 58 -9 65 -10 30z"/>
<path d="M6395 3380 l-30 -8 33 -1 c17 0 32 4 32 9 0 6 -1 9 -2 9 -2 -1 -16
-5 -33 -9z"/>
<path d="M2503 3335 c0 -27 2 -38 4 -22 2 15 2 37 0 50 -2 12 -4 0 -4 -28z"/>
<path d="M6463 3373 c15 -2 39 -2 55 0 15 2 2 4 -28 4 -30 0 -43 -2 -27 -4z"/>
<path d="M2533 3335 c0 -22 2 -30 4 -17 2 12 2 30 0 40 -3 9 -5 -1 -4 -23z"/>
<path d="M5809 3358 c-3 -32 4 -64 16 -77 17 -17 35 -6 35 22 0 39 -48 90 -51
55z m36 -29 c8 -23 1 -34 -14 -24 -13 8 -15 45 -2 45 5 0 13 -9 16 -21z"/>
<path d="M6242 3340 c0 -19 2 -27 5 -17 2 9 2 25 0 35 -3 9 -5 1 -5 -18z"/>
<path d="M6598 3363 c18 -2 45 -2 60 0 15 2 0 4 -33 4 -33 0 -45 -2 -27 -4z"/>
<path d="M2851 3314 c-19 -8 -32 -17 -29 -19 7 -7 55 11 63 24 8 14 8 13 -34
-5z"/>
<path d="M5121 3133 c-1 -98 0 -176 2 -173 10 10 19 350 10 350 -5 0 -11 -78
-12 -177z"/>
<path d="M5373 3260 c0 -30 2 -43 4 -27 2 15 2 39 0 55 -2 15 -4 2 -4 -28z"/>
<path d="M6251 3254 c0 -27 4 -71 9 -99 6 -36 7 -23 3 45 -6 101 -14 136 -12
54z"/>
<path d="M5304 3145 c0 -77 2 -107 3 -67 2 40 2 103 0 140 -2 37 -3 4 -3 -73z"/>
<path d="M2583 3263 c9 -2 25 -2 35 0 9 3 1 5 -18 5 -19 0 -27 -2 -17 -5z"/>
<path d="M5694 3233 c-4 -14 -2 -33 3 -42 22 -35 73 -19 73 23 0 50 -65 66
-76 19z m62 -8 c4 -8 1 -22 -6 -30 -16 -19 -40 -2 -40 26 0 23 38 26 46 4z"/>
<path d="M3025 3240 c17 -4 44 -8 60 -8 25 0 24 2 -10 9 -51 10 -92 10 -50 -1z"/>
<path d="M5796 3228 c-9 -12 -16 -29 -16 -38 1 -8 7 -1 15 17 8 19 22 33 37
36 22 4 22 4 1 6 -12 0 -29 -9 -37 -21z"/>
<path d="M5900 3221 c0 -5 6 -11 13 -14 9 -3 9 -7 0 -18 -10 -13 -9 -76 2 -87
18 -18 32 76 16 107 -12 21 -31 29 -31 12z"/>
<path d="M3193 3213 c9 -2 25 -2 35 0 9 3 1 5 -18 5 -19 0 -27 -2 -17 -5z"/>
<path d="M2437 3183 c-4 -18 -4 -40 0 -49 11 -28 23 19 14 53 l-7 28 -7 -32z"/>
<path d="M5513 3140 c0 -41 2 -58 4 -37 2 20 2 54 0 75 -2 20 -4 3 -4 -38z"/>
<path d="M2573 3183 c9 -2 25 -2 35 0 9 3 1 5 -18 5 -19 0 -27 -2 -17 -5z"/>
<path d="M5878 3145 c-3 -22 -9 -49 -12 -60 -4 -11 1 -5 9 14 9 18 15 45 13
60 -3 21 -5 18 -10 -14z"/>
<path d="M5996 3121 c-29 -19 -55 -55 -56 -76 0 -5 9 5 20 23 11 18 34 41 52
52 18 11 29 20 23 20 -5 0 -23 -9 -39 -19z"/>
<path d="M6057 3121 c-20 -10 -34 -21 -31 -24 4 -4 2 -12 -4 -19 -24 -31 -52
-152 -50 -222 1 -40 3 -55 5 -33 3 23 9 37 18 37 18 0 85 58 85 74 -1 6 -11
-1 -23 -15 -20 -24 -57 -49 -71 -49 -15 0 -4 50 13 59 28 16 50 55 67 123 9
35 21 69 26 76 13 15 12 15 -35 -7z m7 -38 c-14 -63 -26 -91 -49 -113 -14 -13
-25 -21 -25 -18 0 10 38 116 49 137 17 30 32 26 25 -6z"/>
<path d="M6426 3128 c-11 -6 -40 -17 -65 -24 -46 -14 -46 -14 -6 -8 37 5 95
29 95 39 0 7 -2 6 -24 -7z"/>
<path d="M2565 3110 l-30 -8 30 0 c17 0 39 3 50 8 l20 9 -20 -1 c-11 0 -33 -4
-50 -8z"/>
<path d="M3481 3097 c-1 -4 6 -24 14 -44 18 -42 18 -46 4 -37 -8 5 -8 1 0 -14
13 -25 72 -62 97 -61 14 0 12 3 -7 9 -41 12 -80 42 -75 56 3 8 -3 33 -14 56
-10 24 -19 39 -19 35z"/>
<path d="M6253 3040 c0 -30 2 -43 4 -27 2 15 2 39 0 55 -2 15 -4 2 -4 -28z"/>
<path d="M5740 3041 c-34 -34 -36 -43 -14 -65 23 -23 54 -4 54 34 0 15 4 30 9
32 5 2 3 9 -5 16 -12 11 -19 8 -44 -17z m30 -38 c0 -7 -9 -13 -20 -13 -22 0
-26 20 -8 38 13 13 28 -1 28 -25z"/>
<path d="M2422 3035 c-17 -37 -14 -45 4 -12 9 16 14 31 11 33 -2 2 -9 -7 -15
-21z"/>
<path d="M2595 3050 c-19 -8 -19 -9 2 -9 12 -1 25 4 28 9 7 12 -2 12 -30 0z"/>
<path d="M5029 3024 c19 -8 41 -19 48 -26 7 -6 13 -8 13 -4 0 10 -63 46 -80
46 -8 -1 0 -7 19 -16z"/>
<path d="M5856 3018 c-9 -12 -16 -37 -16 -55 0 -26 4 -33 20 -33 11 0 20 7 20
15 0 9 -6 12 -16 8 -12 -4 -15 0 -12 17 4 29 25 37 31 13 3 -10 5 -4 6 14 1
41 -13 50 -33 21z"/>
<path d="M6420 3019 c-19 -11 -46 -19 -60 -20 -14 0 -34 -5 -45 -10 -31 -14
64 1 101 16 17 7 35 18 38 24 8 13 10 14 -34 -10z"/>
<path d="M3040 3000 c25 -8 87 -13 79 -6 -2 2 -26 6 -54 9 -34 4 -42 3 -25 -3z"/>
<path d="M5622 2945 c-17 -36 -30 -65 -27 -65 7 0 67 121 63 126 -2 2 -18 -26
-36 -61z"/>
<path d="M3143 2983 c9 -2 25 -2 35 0 9 3 1 5 -18 5 -19 0 -27 -2 -17 -5z"/>
<path d="M5311 2964 c-1 -42 40 -203 73 -283 84 -208 232 -344 369 -340 40 2
40 2 -13 9 -30 4 -71 14 -90 22 -144 63 -277 288 -325 550 -7 41 -14 59 -14
42z"/>
<path d="M2513 2973 c15 -2 37 -2 50 0 12 2 0 4 -28 4 -27 0 -38 -2 -22 -4z"/>
<path d="M6236 2929 c-4 -28 -5 -53 -3 -56 3 -2 8 19 12 47 4 28 5 53 2 56 -2
3 -7 -19 -11 -47z"/>
<path d="M3273 2963 c9 -2 25 -2 35 0 9 3 1 5 -18 5 -19 0 -27 -2 -17 -5z"/>
<path d="M2409 2938 c-6 -12 -32 -45 -58 -72 -25 -28 -35 -42 -21 -31 39 32
111 125 96 125 -3 0 -11 -10 -17 -22z"/>
<path d="M3343 2953 c9 -2 25 -2 35 0 9 3 1 5 -18 5 -19 0 -27 -2 -17 -5z"/>
<path d="M3435 2939 c22 -4 51 -8 65 -7 16 0 11 3 -15 9 -22 4 -51 8 -65 7
-16 0 -11 -3 15 -9z"/>
<path d="M4943 2943 c9 -2 25 -2 35 0 9 3 1 5 -18 5 -19 0 -27 -2 -17 -5z"/>
<path d="M5105 2936 c-6 -6 -8 -27 -5 -46 l6 -35 7 44 c8 48 7 55 -8 37z"/>
<path d="M5018 2933 c12 -2 30 -2 40 0 9 3 -1 5 -23 4 -22 0 -30 -2 -17 -4z"/>
<path d="M2459 2917 c5 -5 28 -7 52 -5 l44 3 -52 5 c-29 3 -48 1 -44 -3z"/>
<path d="M3543 2923 c9 -2 25 -2 35 0 9 3 1 5 -18 5 -19 0 -27 -2 -17 -5z"/>
<path d="M3295 2914 c23 -9 878 -175 882 -171 4 5 -864 178 -882 176 -7 0 -7
-2 0 -5z"/>
<path d="M3673 2903 c9 -2 25 -2 35 0 9 3 1 5 -18 5 -19 0 -27 -2 -17 -5z"/>
<path d="M5733 2883 c-39 -37 -130 -174 -139 -208 -7 -30 -13 -26 -43 30 -12
22 -21 33 -21 25 1 -47 152 -215 225 -250 23 -11 55 -20 71 -19 24 0 22 2 -16
13 -65 17 -112 49 -169 114 l-50 56 15 36 c22 53 89 151 129 190 27 26 38 31
47 22 9 -9 8 -15 -4 -24 -22 -19 -124 -143 -138 -169 -31 -58 98 -191 183
-188 13 0 3 6 -24 15 -55 16 -133 82 -147 123 -9 25 -6 36 18 73 16 24 44 61
63 83 l34 39 27 -53 c15 -29 30 -51 33 -48 3 3 -4 21 -15 39 -30 50 -36 78
-18 78 10 0 20 -16 27 -45 6 -25 13 -44 16 -42 9 9 -20 96 -38 116 -25 27 -31
26 -66 -6z"/>
<path d="M6390 2900 c-8 -5 -29 -10 -47 -10 -17 0 -34 -4 -37 -8 -7 -12 74 1
99 16 11 6 16 11 10 12 -5 0 -17 -5 -25 -10z"/>
<path d="M2514 2825 c-33 -35 -53 -60 -45 -55 22 12 123 122 110 119 -2 0 -31
-29 -65 -64z"/>
<path d="M3883 2873 c9 -2 25 -2 35 0 9 3 1 5 -18 5 -19 0 -27 -2 -17 -5z"/>
<path d="M3953 2863 c9 -2 25 -2 35 0 9 3 1 5 -18 5 -19 0 -27 -2 -17 -5z"/>
<path d="M10592 2832 c-2 -42 -2 -43 -24 -28 -33 24 -45 19 -14 -5 16 -12 26
-31 27 -47 1 -21 3 -19 10 13 6 22 8 56 6 75 -3 32 -4 32 -5 -8z"/>
<path d="M4045 2849 c22 -4 51 -8 65 -7 16 0 11 3 -15 9 -22 4 -51 8 -65 7
-16 0 -11 -3 15 -9z"/>
<path d="M6216 2829 c-8 -42 0 -50 9 -9 4 17 5 34 2 36 -2 3 -7 -10 -11 -27z"/>
<path d="M4243 2843 c9 -2 25 -2 35 0 9 3 1 5 -18 5 -19 0 -27 -2 -17 -5z"/>
<path d="M4153 2833 c9 -2 25 -2 35 0 9 3 1 5 -18 5 -19 0 -27 -2 -17 -5z"/>
<path d="M4363 2803 c9 -2 25 -2 35 0 9 3 1 5 -18 5 -19 0 -27 -2 -17 -5z"/>
<path d="M5932 2790 c0 -14 4 -36 8 -50 6 -20 8 -21 8 -5 0 11 -4 34 -8 50 -7
27 -8 27 -8 5z"/>
<path d="M6375 2800 c-11 -5 -40 -9 -65 -10 -35 0 -41 -3 -28 -10 19 -12 94 2
111 19 13 13 10 13 -18 1z"/>
<path d="M4433 2793 c9 -2 25 -2 35 0 9 3 1 5 -18 5 -19 0 -27 -2 -17 -5z"/>
<path d="M4503 2783 c9 -2 25 -2 35 0 9 3 1 5 -18 5 -19 0 -27 -2 -17 -5z"/>
<path d="M3815 2739 c127 -21 239 -38 250 -38 28 2 -424 78 -455 78 -14 -1 79
-18 205 -40z"/>
<path d="M4573 2773 c9 -2 25 -2 35 0 9 3 1 5 -18 5 -19 0 -27 -2 -17 -5z"/>
<path d="M4733 2773 c9 -2 25 -2 35 0 9 3 1 5 -18 5 -19 0 -27 -2 -17 -5z"/>
<path d="M6200 2770 c0 -8 -16 -54 -34 -102 -18 -48 -30 -85 -25 -83 11 8 70
177 65 189 -2 6 -5 4 -6 -4z"/>
<path d="M4643 2763 c9 -2 25 -2 35 0 9 3 1 5 -18 5 -19 0 -27 -2 -17 -5z"/>
<path d="M4735 2749 c22 -4 51 -8 65 -7 16 0 11 3 -15 9 -22 4 -51 8 -65 7
-16 0 -11 -3 15 -9z"/>
<path d="M5837 2746 c-4 -9 2 -31 13 -49 23 -38 24 -36 7 22 -10 31 -16 39
-20 27z"/>
<path d="M4843 2733 c9 -2 25 -2 35 0 9 3 1 5 -18 5 -19 0 -27 -2 -17 -5z"/>
<path d="M5013 2733 c9 -2 25 -2 35 0 9 3 1 5 -18 5 -19 0 -27 -2 -17 -5z"/>
<path d="M4345 2704 c61 -12 119 -23 130 -23 11 1 -29 12 -90 25 -60 12 -119
23 -130 23 -11 -1 30 -12 90 -25z"/>
<path d="M4983 2713 c9 -2 25 -2 35 0 9 3 1 5 -18 5 -19 0 -27 -2 -17 -5z"/>
<path d="M5053 2703 c9 -2 25 -2 35 0 9 3 1 5 -18 5 -19 0 -27 -2 -17 -5z"/>
<path d="M6081 2618 c-55 -116 -146 -213 -231 -246 -30 -11 -48 -21 -40 -21
34 -1 125 52 173 102 29 29 70 88 92 129 22 42 44 76 49 75 5 -1 11 5 13 13 4
13 3 13 -7 0 -9 -12 -10 -10 -6 13 4 15 5 27 3 27 -1 0 -22 -41 -46 -92z"/>
<path d="M6357 2704 c-3 -4 -32 -10 -64 -15 l-58 -8 58 3 c32 1 63 8 69 14 7
7 10 12 7 12 -3 0 -8 -3 -12 -6z"/>
<path d="M4125 2689 c22 -4 51 -8 65 -7 16 0 11 3 -15 9 -22 4 -51 8 -65 7
-16 0 -11 -3 15 -9z"/>
<path d="M4230 2674 c30 -8 534 -84 549 -83 33 1 -10 9 -267 49 -228 35 -338
48 -282 34z"/>
<path d="M5960 2674 c0 -19 30 -52 52 -57 23 -6 23 -6 -1 12 -14 11 -31 27
-38 37 -7 10 -13 13 -13 8z"/>
<path d="M5876 2640 c4 -14 17 -42 30 -62 25 -39 23 -44 -24 -58 -23 -7 -24
-8 -6 -9 12 -1 36 5 53 12 l32 13 -22 20 c-12 10 -32 39 -45 64 -14 25 -22 34
-18 20z"/>
<path d="M6248 2593 c12 -2 30 -2 40 0 9 3 -1 5 -23 4 -22 0 -30 -2 -17 -4z"/>
<path d="M4835 2579 c22 -4 51 -8 65 -7 16 0 11 3 -15 9 -22 4 -51 8 -65 7
-16 0 -11 -3 15 -9z"/>
<path d="M6177 2518 c5 -10 94 -10 110 0 6 4 -17 7 -52 7 -35 0 -61 -3 -58 -7z"/>
<path d="M6020 2421 c-30 -32 -68 -68 -85 -80 -16 -12 -21 -18 -10 -13 29 14
111 88 135 123 30 41 23 36 -40 -30z"/>
<path d="M6163 2437 c23 -6 47 -6 59 0 15 6 5 9 -39 9 -56 1 -57 0 -20 -9z"/>
<path d="M6095 2380 c19 -8 103 -14 94 -6 -2 2 -29 6 -59 9 -34 3 -47 2 -35
-3z"/>
<path d="M6035 2330 c19 -8 103 -14 94 -6 -2 2 -29 6 -59 9 -36 4 -48 3 -35
-3z"/>
<path d="M5825 2295 c-22 -8 -31 -14 -20 -14 11 0 34 6 50 14 38 17 22 17 -30
0z"/>
<path d="M5970 2300 c0 -12 76 -33 98 -27 12 3 10 5 -6 6 -12 0 -38 8 -57 15
-19 8 -35 11 -35 6z"/>
<path d="M5940 2250 c19 -11 53 -19 75 -18 l40 1 -45 6 c-25 4 -55 12 -67 19
-12 7 -25 12 -30 12 -4 -1 8 -9 27 -20z"/>
</g>
</svg>
