<?xml version="1.0" standalone="no"?>
<!DOCTYPE svg PUBLIC "-//W3C//DTD SVG 20010904//EN"
 "http://www.w3.org/TR/2001/REC-SVG-20010904/DTD/svg10.dtd">
<svg version="1.0" xmlns="http://www.w3.org/2000/svg"
 width="856.492455pt" height="603.872614pt" viewBox="0 0 856.492455 603.872614"
 preserveAspectRatio="xMidYMid meet">
<metadata>
Created by potrace 1.12, written by Peter Selinger 2001-2015
</metadata>
<g transform="translate(-171.000000,685.836185) scale(0.100000,-0.100000)"
fill="#000000" stroke="none">
<path d="M8005 6849 c-197 -19 -504 -83 -698 -145 -454 -146 -722 -335 -693
-489 36 -188 473 -260 1049 -174 224 33 227 34 227 16 0 -20 29 -30 45 -17 8
6 11 22 9 36 -6 33 7 30 56 -11 23 -19 46 -35 50 -35 7 0 228 -236 398 -426
66 -75 72 -84 72 -125 0 -25 9 -60 20 -82 11 -20 20 -39 20 -41 0 -3 -20 -8
-45 -12 -60 -8 -58 -24 3 -24 26 0 53 -5 60 -12 9 -9 12 -6 12 15 0 26 2 28
43 26 31 -2 43 -7 45 -18 1 -9 6 -36 11 -61 l10 -45 -4 54 -4 54 24 -23 c18
-17 25 -34 25 -61 0 -40 -17 -61 -31 -38 -7 11 -9 10 -9 -3 0 -15 -9 -18 -44
-18 -26 0 -46 5 -49 13 -4 8 -6 7 -6 -4 -1 -8 2 -19 7 -25 4 -5 6 -289 4 -631
-2 -543 -4 -623 -17 -623 -11 0 -15 -10 -14 -37 2 -31 3 -33 6 -10 4 27 4 27
89 27 l84 0 -1 -52 c0 -29 -6 -84 -12 -123 l-12 -70 -61 -3 c-42 -2 -64 1 -72
11 -6 7 -13 49 -15 92 l-3 80 -2 -91 c-1 -50 2 -94 8 -100 7 -7 9 -170 8 -469
l-3 -459 -35 -9 c-19 -5 -57 -26 -85 -47 -27 -21 -68 -47 -90 -58 -22 -11 -91
-66 -154 -121 -62 -56 -116 -101 -119 -101 -4 0 -78 71 -167 158 -88 86 -197
193 -243 236 -77 73 -83 82 -73 103 14 31 14 130 0 138 -18 12 -27 49 -16 70
6 11 11 38 11 60 l1 40 55 3 c39 2 60 9 74 24 14 15 16 22 6 28 -8 5 -11 23
-8 48 3 37 1 42 -22 47 -39 10 -42 27 -9 55 16 14 41 50 57 80 24 50 30 55 62
58 81 5 193 24 228 38 30 12 32 13 7 8 -97 -20 -185 -33 -220 -33 -37 0 -39 1
-21 14 11 8 36 16 55 16 20 1 50 5 66 9 18 5 0 6 -45 3 l-74 -6 19 29 c92 142
75 128 199 168 63 20 116 36 120 36 9 0 7 -133 -2 -146 -4 -6 -25 -21 -47 -33
-38 -21 -37 -22 13 -7 31 10 28 -10 -5 -28 -16 -8 -23 -15 -16 -16 7 0 24 10
38 23 26 23 45 96 45 180 0 45 2 46 173 86 120 29 140 37 121 49 -6 4 -14 14
-17 22 -3 9 -6 5 -6 -11 -1 -22 -7 -27 -52 -37 -64 -15 -86 -15 -91 0 -4 10
-13 10 -45 0 -49 -15 -83 -15 -83 -2 0 9 17 15 70 23 24 4 24 4 -2 6 -17 0
-28 7 -28 15 0 15 35 41 65 49 17 4 17 5 -3 6 -14 1 -22 6 -20 14 7 19 49 37
91 37 30 0 37 -4 37 -20 0 -16 -7 -20 -32 -21 -24 -1 -27 -3 -10 -6 12 -2 22
-8 22 -13 0 -5 7 -7 15 -4 10 4 15 0 15 -14 0 -13 -7 -21 -17 -21 -10 0 -36
-4 -58 -9 -38 -9 -39 -10 -9 -11 17 0 46 2 63 5 l32 7 -3 68 c-4 104 11 106
31 4 l10 -50 -4 50 c-2 28 -7 61 -11 75 -5 17 -4 22 4 15 6 -5 18 -35 26 -65
13 -45 15 -47 10 -15 -3 22 -14 58 -25 81 -20 43 -25 79 -9 69 6 -3 10 -1 10
4 0 6 -4 11 -10 11 -5 0 -10 7 -10 16 0 10 6 14 14 11 19 -7 26 13 26 72 0 28
-6 55 -16 67 -15 19 -15 18 -9 -3 5 -19 2 -22 -25 -21 -39 1 -48 -9 -24 -27
26 -20 39 -19 23 2 -12 15 -12 16 4 10 10 -4 21 -7 23 -7 2 0 4 -9 4 -20 0
-24 -43 -38 -64 -21 -11 9 -15 9 -19 -1 -10 -29 -19 5 -21 74 l-1 73 29 -3
c17 -2 35 -10 41 -19 11 -14 13 -13 17 5 4 12 0 26 -8 33 -16 13 -19 75 -4 84
14 8 13 35 -2 68 -15 30 -28 35 -28 10 0 -9 -3 -13 -7 -9 -4 4 -8 15 -8 24 0
15 -16 17 -120 20 -114 3 -815 -21 -976 -34 l-76 -6 4 49 c3 26 0 59 -5 73 -6
17 -5 31 4 45 20 32 4 148 -24 172 -18 15 -22 30 -23 95 -2 63 1 80 18 101 21
27 23 90 8 216 -17 132 -143 226 -365 271 -141 29 -410 25 -535 -9 -152 -40
-289 -124 -315 -193 -6 -18 -16 -43 -21 -56 l-9 -24 -63 44 c-114 81 -213 130
-382 188 -44 15 -96 31 -115 34 -19 3 21 -14 90 -38 69 -24 148 -53 175 -65
60 -26 205 -112 205 -122 0 -23 -44 -12 -143 35 -105 51 -271 113 -363 136
-28 7 -44 18 -52 35 -11 24 -10 25 21 26 26 1 22 3 -23 14 -214 52 -466 41
-557 -24 -35 -24 -106 -175 -97 -204 10 -29 7 -49 -17 -124 l-20 -61 -85 39
c-83 39 -325 137 -434 177 l-55 20 0 50 c-1 71 -31 99 -106 98 -48 -1 -54 -4
-57 -24 -2 -12 -15 -28 -30 -36 -24 -12 -42 -10 -167 21 -193 47 -403 90 -510
103 -49 6 -91 13 -93 14 -5 6 89 80 168 132 41 27 92 54 115 59 46 12 75 49
96 121 8 26 19 48 24 50 10 4 421 -128 431 -139 3 -3 -13 -42 -36 -86 -42 -81
-44 -101 -10 -101 13 0 32 22 59 68 68 115 46 107 202 72 158 -35 162 -35 179
-15 19 23 -14 54 -127 121 -110 66 -111 70 -27 149 29 28 56 62 59 78 8 29 26
34 67 18 53 -20 381 -91 493 -106 154 -22 309 -25 353 -6 34 14 42 43 22 81
-15 29 -124 102 -227 154 -94 47 -362 155 -485 195 -71 24 -74 27 -69 92 3 38
-31 63 -89 65 -46 2 -50 1 -75 -37 -18 -28 -31 -38 -43 -35 -31 10 -335 75
-432 92 -61 11 -149 18 -245 18 -128 1 -155 -2 -178 -17 -42 -27 -37 -66 15
-112 75 -68 446 -232 653 -290 95 -26 93 -25 73 -36 -24 -14 -40 -68 -29 -105
8 -27 -2 -68 -25 -102 -1 -2 -62 22 -135 53 -104 44 -146 68 -188 106 -42 38
-54 55 -54 78 0 21 -6 31 -20 35 -10 2 -16 9 -13 15 4 6 13 8 21 4 21 -8 18 8
-8 40 -20 25 -25 27 -67 19 -32 -5 -46 -13 -48 -26 -9 -42 -34 -53 -122 -50
-47 2 -96 8 -110 14 -32 13 -342 87 -440 105 -76 14 -127 19 -167 16 -30 -1
-30 -31 -1 -58 57 -52 463 -228 755 -328 26 -9 1 -35 -34 -35 -62 0 -103 -32
-103 -82 0 -27 -121 -158 -205 -222 -66 -50 -74 -54 -142 -60 -111 -9 -150
-36 -124 -85 16 -29 15 -29 -31 -25 l-43 4 37 -11 c42 -12 47 -25 21 -45 -14
-11 -15 -13 -2 -9 9 3 22 -1 29 -9 7 -9 16 -13 21 -10 19 11 9 -66 -11 -86
-22 -22 -70 -26 -101 -10 -15 9 -25 5 -51 -19 -18 -16 -96 -78 -173 -138 -77
-60 -182 -141 -233 -181 -91 -71 -150 -97 -81 -35 57 52 486 390 501 396 10 4
11 7 1 18 -20 20 -15 73 8 103 20 26 20 26 0 26 -11 0 -22 9 -26 20 -3 11 -13
20 -21 20 -20 0 -19 -118 2 -148 8 -12 12 -27 9 -32 -7 -11 -224 -187 -408
-329 -81 -64 -107 -89 -105 -104 2 -11 8 -22 13 -24 6 -1 126 87 267 197 141
110 259 200 262 200 3 0 6 -24 6 -53 0 -29 5 -58 10 -63 7 -7 9 -87 8 -219
l-3 -209 -225 -71 c-225 -71 -252 -85 -217 -113 10 -8 33 -5 92 14 135 42 343
104 349 104 3 0 6 -51 6 -114 0 -107 -1 -115 -21 -121 -18 -6 -20 -13 -16 -63
2 -32 9 -84 15 -117 6 -33 12 -130 14 -215 l3 -155 -25 -3 c-27 -4 -67 -36
-75 -61 -3 -9 -25 -29 -50 -44 -63 -40 -162 -151 -215 -241 -25 -42 -48 -76
-52 -76 -4 0 -12 -19 -18 -42 -7 -22 -18 -48 -27 -56 -8 -9 -13 -26 -10 -40 3
-14 1 -38 -4 -55 -32 -112 -67 -340 -74 -482 -1 -27 -4 -54 -5 -60 -7 -29 2
-57 19 -62 15 -4 20 -18 25 -71 4 -37 14 -104 22 -150 8 -46 14 -88 12 -94 -5
-15 -36 125 -47 212 l-8 65 -2 -52 c-1 -42 -8 -63 -39 -110 -53 -80 -182 -303
-225 -388 -19 -38 -38 -93 -42 -122 -5 -40 -13 -56 -32 -68 -27 -18 -113 -185
-113 -221 0 -12 6 -24 14 -27 19 -8 148 12 161 24 5 6 17 44 26 87 18 83 13
106 -27 116 -21 6 -22 10 -17 68 4 52 16 84 65 178 68 130 214 376 228 385 18
11 10 -6 -59 -123 -178 -303 -241 -432 -209 -432 30 0 75 57 177 229 63 105
118 191 123 191 16 0 7 -42 -21 -98 -57 -113 -172 -288 -216 -328 -25 -23 -45
-47 -45 -52 0 -6 24 12 53 41 47 48 130 172 210 315 33 61 42 57 52 -21 4 -26
9 -46 12 -43 3 3 0 35 -6 72 -16 92 -7 91 14 -1 16 -74 16 -77 -2 -90 -17 -13
-17 -15 5 -57 26 -50 28 -74 7 -82 -10 -3 -14 -17 -14 -38 2 -30 2 -31 6 -5 2
15 9 27 15 27 6 0 7 -11 3 -27 -3 -15 -7 -30 -8 -33 0 -3 3 -20 7 -38 9 -37
-18 -132 -38 -132 -6 0 -25 -24 -41 -54 -27 -50 -28 -56 -15 -81 29 -54 90
-52 111 2 5 15 12 56 14 92 3 67 27 141 45 141 5 0 21 -21 34 -47 53 -104 205
-296 206 -260 0 9 4 17 9 17 16 0 23 -20 12 -33 -14 -17 -3 -57 16 -57 8 0 11
-4 8 -10 -3 -6 4 -10 18 -10 14 0 50 -15 82 -34 65 -40 167 -66 253 -66 32 0
73 -5 91 -11 37 -13 103 2 231 53 65 26 84 29 140 24 69 -5 170 18 177 41 3 7
-15 4 -47 -8 -27 -10 -64 -19 -80 -19 -26 0 -30 3 -30 29 0 24 5 29 31 35 48
9 117 7 124 -4 4 -6 11 -8 16 -5 5 3 28 10 51 15 l43 9 -44 -4 c-24 -2 -52 2
-62 8 -13 8 -35 8 -84 -2 -37 -6 -69 -11 -70 -9 -2 2 21 32 52 67 30 36 73 93
95 127 34 56 45 65 91 80 31 11 45 20 35 22 -10 2 -18 7 -18 12 0 13 39 8 44
-6 7 -18 63 -24 119 -12 29 6 47 13 41 15 -6 2 -31 -1 -55 -6 -24 -5 -45 -9
-46 -7 -8 8 10 35 25 39 13 4 11 5 -4 6 -25 1 -49 26 -39 41 3 5 40 10 81 10
l74 0 -3 -28 c-2 -15 -6 -33 -10 -39 -4 -6 -3 -13 2 -15 13 -4 -4 -196 -21
-230 -11 -23 -24 -29 -108 -47 -52 -11 -77 -19 -55 -16 22 2 66 7 97 11 l57 7
-6 -51 c-5 -42 -3 -53 11 -58 25 -9 23 -136 -2 -161 -16 -15 -42 -108 -42
-150 0 -41 75 -67 122 -42 17 9 19 19 17 82 -1 40 -8 81 -14 92 -8 13 -10 45
-6 94 6 69 8 74 31 78 14 2 30 5 37 8 14 5 33 68 33 112 0 35 10 39 123 53
l58 6 -7 -30 c-3 -17 -13 -42 -21 -55 -15 -23 -17 -23 -28 -7 -11 15 -16 15
-34 4 -45 -28 -62 -148 -22 -148 23 0 41 -20 41 -44 0 -42 -34 -128 -55 -136
-11 -4 -33 -35 -49 -69 -25 -52 -28 -64 -18 -86 24 -51 96 -58 127 -11 9 14
17 53 19 102 4 98 28 177 59 191 15 7 28 29 41 74 11 35 20 71 21 79 1 8 10
41 20 73 15 44 23 57 39 58 12 0 15 3 9 6 -19 7 -15 23 5 23 27 0 34 -11 20
-29 -7 -9 -9 -13 -4 -9 14 12 60 -31 66 -59 3 -15 17 -34 32 -42 15 -9 44 -38
64 -66 91 -124 264 -277 417 -370 43 -26 93 -63 111 -81 31 -32 37 -34 74 -28
28 4 59 0 104 -15 129 -43 363 -63 478 -41 31 6 10 7 -65 3 -119 -5 -233 7
-360 38 -109 27 -110 28 -97 41 8 8 40 3 119 -18 99 -26 122 -28 268 -27 88 1
173 3 189 5 35 4 47 -19 14 -25 -16 -3 -12 -5 15 -7 82 -6 93 -7 107 -14 9 -3
24 0 35 8 16 12 18 18 9 33 -16 25 -81 25 -88 0 -7 -29 -40 -17 -44 16 -3 21
-7 26 -15 18 -22 -18 -188 -34 -283 -27 -108 8 -300 50 -323 70 -9 8 -33 19
-53 24 -21 6 -50 20 -64 31 -15 12 -35 19 -44 16 -10 -3 -59 23 -126 67 -353
232 -601 655 -632 1077 -5 65 -11 96 -20 99 -11 3 -11 0 -1 -16 15 -23 6 -52
-16 -52 -19 0 -30 24 -20 48 13 29 11 63 -2 74 -20 16 -15 35 9 42 32 8 44 -8
30 -39 -6 -14 -8 -25 -3 -25 15 0 21 29 21 101 0 82 32 245 66 340 99 274 284
510 510 649 69 43 51 13 -27 -45 -237 -174 -418 -487 -465 -801 -20 -135 -14
-399 11 -514 61 -272 187 -511 372 -702 186 -191 376 -307 608 -370 114 -31
129 -32 302 -33 99 0 179 -3 176 -7 -8 -15 42 -7 84 12 43 19 43 19 54 -1 7
-15 7 -24 0 -33 -9 -11 -6 -13 13 -13 14 0 27 5 30 13 3 7 45 33 94 57 101 50
185 105 288 187 74 59 160 112 204 125 14 4 47 23 75 41 27 19 54 34 58 34 20
0 138 90 215 164 45 43 85 77 87 74 3 -3 18 -74 35 -158 32 -167 34 -152 -27
-251 -49 -80 -32 -104 69 -100 l46 1 13 -71 c10 -54 10 -75 1 -90 -16 -26 -4
-168 16 -191 21 -25 93 -24 115 0 10 10 17 30 17 43 0 36 -39 141 -59 160 -11
10 -23 46 -30 90 -11 68 -11 74 8 93 16 16 23 18 33 8 26 -26 45 -14 51 33 7
50 -4 89 -35 122 -24 25 -19 37 25 59 18 9 102 83 188 165 86 82 158 147 160
145 2 -3 3 -94 1 -203 -2 -123 -6 -192 -12 -183 -5 8 -12 11 -16 7 -4 -3 -2
-12 3 -19 6 -7 13 -24 16 -38 7 -29 61 -60 103 -60 14 0 78 -24 142 -54 64
-30 157 -72 207 -94 49 -22 92 -47 95 -56 10 -27 83 -76 137 -92 44 -13 70
-14 157 -5 150 15 162 22 157 86 -3 24 -43 60 -88 80 -18 8 -33 19 -33 24 0 6
-27 28 -59 51 -49 32 -70 57 -117 132 -73 120 -112 168 -174 213 -27 20 -50
44 -51 53 0 11 -2 12 -6 4 -7 -18 -63 24 -63 49 0 27 15 24 39 -8 12 -14 24
-23 28 -19 4 3 -8 22 -27 41 -34 35 -33 39 15 47 16 3 22 15 29 68 5 36 10 67
12 69 7 8 276 -224 284 -245 9 -24 12 -24 145 -24 107 0 137 3 141 14 3 8 33
33 67 57 34 24 90 65 123 91 34 26 64 48 68 48 3 0 6 -31 6 -69 0 -64 2 -71
27 -91 26 -20 37 -21 186 -18 153 3 160 4 178 26 16 21 18 35 13 103 -3 44 -4
86 -1 94 6 15 83 -61 341 -338 65 -70 125 -127 133 -127 27 0 76 -58 70 -83
-3 -12 4 -60 16 -107 l22 -85 88 -17 c80 -16 92 -16 118 -2 37 19 34 30 -33
137 -45 73 -55 107 -28 107 5 0 10 10 10 21 0 39 -70 234 -90 250 -27 23 -40
62 -40 120 0 40 -24 113 -125 371 -90 233 -131 325 -147 337 -71 48 -98 101
-98 192 0 50 -14 88 -129 344 -59 131 -80 168 -117 203 -25 24 -54 63 -64 88
-11 24 -24 44 -30 44 -14 0 -14 704 0 730 5 10 13 71 16 135 7 113 7 116 -14
122 -22 5 -22 5 -22 349 0 218 4 345 10 349 6 3 10 22 10 41 0 19 4 34 10 34
17 0 50 43 50 65 0 32 80 72 171 85 338 50 525 86 536 103 4 7 -191 9 -647 6
-600 -4 -653 -3 -655 12 -3 15 20 18 209 24 116 4 412 5 659 3 246 -1 447 0
447 4 0 11 -12 16 -64 23 -35 6 -47 5 -42 -4 5 -8 -112 -11 -451 -11 -252 0
-535 -3 -630 -7 -157 -6 -173 -5 -179 11 -8 22 -2 28 43 36 l38 8 -32 1 c-30
1 -33 4 -33 31 0 19 7 34 20 42 26 17 25 42 -5 106 -29 63 -58 69 -63 14 l-3
-32 -85 1 -84 2 -62 71 c-35 39 -94 105 -133 146 -209 223 -285 313 -285 335
0 7 26 18 58 25 87 19 284 94 407 155 285 141 397 303 288 417 -56 59 -191
109 -343 128 -99 12 -365 11 -495 -1z m539 -24 c97 -16 194 -47 246 -80 146
-92 91 -235 -147 -378 -98 -59 -312 -149 -454 -192 l-105 -32 -26 21 c-18 15
-27 34 -31 64 -3 26 -15 54 -28 68 -19 21 -32 24 -88 24 -64 0 -67 1 -88 35
-13 19 -23 36 -23 39 0 2 32 14 70 26 90 29 157 72 166 105 32 129 -406 110
-559 -25 -90 -79 -6 -139 176 -126 l87 7 0 -28 c0 -15 7 -59 15 -98 11 -55 21
-76 45 -97 17 -16 39 -28 49 -28 20 0 37 -28 24 -41 -4 -4 -91 -20 -193 -35
-167 -26 -211 -28 -450 -29 -247 0 -271 2 -355 24 -173 45 -245 102 -245 193
0 236 745 539 1470 598 126 10 333 3 444 -15z m-4769 -175 c270 -48 661 -162
953 -279 248 -99 422 -208 422 -263 0 -11 -11 -23 -27 -29 -45 -18 -290 -4
-447 25 -171 31 -434 95 -441 107 -7 11 5 133 15 149 5 9 22 9 66 1 175 -31
225 -16 150 46 -73 60 -293 126 -404 121 -59 -3 -67 -5 -67 -23 0 -20 72 -66
125 -79 14 -3 0 5 -30 19 -61 29 -92 53 -84 66 6 10 97 12 141 3 25 -5 29 -10
25 -30 -3 -18 1 -26 22 -33 28 -11 26 -41 -3 -41 -13 0 -14 -2 -2 -9 12 -8 13
-16 3 -48 -6 -21 -20 -52 -31 -69 -19 -31 -19 -31 -78 -22 -119 18 -500 161
-653 245 -76 41 -140 99 -140 126 0 11 13 24 33 33 45 21 293 12 452 -16z
m498 -29 c-3 -13 -11 -17 -24 -14 -28 8 -24 33 5 33 19 0 23 -4 19 -19z m45 2
c-5 -25 -28 -28 -28 -4 0 12 6 21 16 21 9 0 14 -7 12 -17z m40 -25 c-6 -18
-28 -21 -28 -4 0 9 7 16 16 16 9 0 14 -5 12 -12z m-40 -28 c39 -17 57 -40 31
-40 -8 0 -135 40 -148 47 -1 1 0 7 4 13 8 13 53 5 113 -20z m3643 20 c20 -6
44 -19 54 -30 17 -18 17 -21 1 -46 -18 -27 -136 -87 -192 -99 -29 -5 -33 -3
-43 26 -10 29 -8 34 20 60 30 28 31 34 12 87 -6 15 95 17 148 2z m-161 -15
c17 -21 8 -27 -46 -32 -49 -4 -97 -22 -61 -23 9 0 17 -7 17 -15 0 -9 -9 -15
-25 -15 -16 0 -25 6 -25 15 0 8 -5 15 -11 15 -6 0 -9 10 -7 22 5 38 132 64
158 33z m-170 -50 c0 -38 20 -55 64 -55 20 0 27 -7 34 -32 6 -24 5 -35 -4 -41
-19 -11 -195 -10 -224 1 -41 16 -55 38 -41 65 19 36 114 94 159 96 7 1 12 -12
12 -34z m170 -5 c0 -5 -7 -10 -15 -10 -8 0 -15 5 -15 10 0 6 7 10 15 10 8 0
15 -4 15 -10z m-54 -16 c0 -5 3 -16 7 -24 11 -27 12 -45 2 -48 -5 -2 -15 18
-21 43 -9 35 -9 45 -1 42 7 -2 12 -8 13 -13z m-3461 -29 c99 -28 205 -82 205
-105 0 -20 -201 -2 -224 20 -5 5 -6 16 -2 26 5 13 9 15 18 6 17 -17 45 -15 52
3 3 8 1 15 -4 15 -6 0 -10 -4 -10 -10 0 -15 -16 -12 -34 5 -8 9 -32 18 -53 21
-21 2 -41 8 -46 13 -13 13 2 33 21 27 10 -2 44 -12 77 -21z m-35 -49 c0 -15
-18 -31 -26 -23 -7 7 7 37 17 37 5 0 9 -6 9 -14z m-1479 -11 c198 -37 499
-128 499 -150 0 -17 54 -59 94 -75 52 -19 39 -3 -24 31 -73 39 -66 57 10 28
30 -11 61 -22 68 -24 10 -4 10 -10 2 -25 -9 -17 -7 -24 14 -43 24 -21 24 -24
11 -54 -10 -24 -21 -33 -37 -33 -43 0 -486 179 -659 265 -91 46 -123 70 -114
86 9 13 40 11 136 -6z m1464 -50 c-3 -8 -7 -22 -10 -31 -3 -8 -9 -13 -14 -9
-6 3 -6 17 1 35 10 29 32 34 23 5z m3579 -24 c14 -30 15 -43 7 -59 -15 -29
-14 -68 4 -102 17 -33 7 -40 -18 -12 -33 36 -64 176 -45 200 18 21 34 13 52
-27z m-4284 15 c0 -8 -5 -18 -11 -22 -14 -8 -33 11 -25 25 10 16 36 13 36 -3z
m44 5 c9 -14 -4 -41 -20 -41 -8 0 -14 8 -14 18 0 29 22 43 34 23z m-16 -61
c24 -11 42 -26 42 -35 0 -9 -6 -14 -12 -12 -7 3 -37 14 -65 23 -54 18 -72 44
-30 44 12 0 41 -9 65 -20z m664 -30 c-2 -19 -8 -53 -14 -75 -10 -38 -11 -39
-18 -15 -4 14 -13 35 -20 46 -10 17 -10 26 4 53 23 44 52 39 48 -9z m3716 13
c30 -40 0 -133 -43 -133 -46 0 -81 52 -70 107 10 52 80 68 113 26z m71 -28 c9
-19 11 -33 4 -44 -7 -11 0 -24 29 -51 44 -43 49 -75 13 -92 -22 -10 -30 -7
-70 26 -25 21 -45 42 -45 47 0 6 7 24 16 41 13 25 14 38 5 74 -6 23 -11 46
-11 50 0 15 46 -25 59 -51z m-4506 16 c60 -21 153 -76 177 -106 14 -17 13 -18
-5 -11 -11 5 -94 34 -184 67 -90 32 -166 60 -169 63 -14 15 130 4 181 -13z
m655 -45 c8 -7 16 -32 19 -55 5 -35 2 -46 -17 -66 -61 -65 -155 10 -120 94 20
48 82 62 118 27z m-618 -39 c25 -10 79 -31 120 -47 121 -45 310 -126 322 -138
7 -7 2 -25 -18 -61 -16 -28 -31 -51 -34 -51 -3 0 -102 33 -220 73 l-215 72 2
34 c0 18 5 37 10 42 5 5 33 2 63 -6 65 -18 102 -19 45 -2 -29 9 -41 19 -45 37
-4 18 -18 29 -54 43 -52 19 -59 19 -48 -1 7 -10 36 -19 70 -21 6 -1 12 -8 12
-16 0 -17 -35 -21 -45 -5 -3 6 -13 10 -22 10 -25 0 -51 29 -46 50 6 23 28 20
103 -13z m-65 -135 c-9 -37 -23 -78 -30 -91 l-12 -24 -13 37 c-11 34 -10 40
14 77 15 22 32 52 38 67 18 47 20 5 3 -66z m4449 72 c9 -24 7 -62 -4 -69 -10
-6 -40 51 -40 75 0 16 37 12 44 -6z m-3851 -46 c12 -7 24 -14 26 -15 2 -2 -4
-21 -14 -43 -13 -29 -24 -40 -40 -40 -39 0 -48 22 -29 69 18 45 23 47 57 29z
m4101 -89 c42 -44 76 -84 76 -89 0 -4 -6 -12 -13 -18 -18 -16 -181 160 -164
177 6 6 14 11 18 11 4 0 41 -36 83 -81z m-4764 -15 c25 -64 -3 -114 -63 -114
-42 0 -70 29 -70 70 0 45 28 70 80 70 38 0 45 -4 53 -26z m613 -1 c11 -11
-136 -273 -154 -273 -18 0 -8 26 62 152 69 123 78 136 92 121z m152 -54 c50
-28 101 -62 115 -75 l25 -24 -41 0 c-41 0 -242 42 -263 54 -20 13 34 96 63 96
6 0 52 -23 101 -51z m-886 -53 l22 -23 -41 -31 c-43 -31 -64 -33 -75 -5 -5 15
48 83 65 83 4 0 17 -11 29 -24z m5012 -13 c83 -90 83 -91 66 -107 -14 -14 -21
-10 -71 47 -56 62 -65 77 -45 77 5 0 7 5 4 10 -15 24 14 7 46 -27z m-5104 -70
c5 -14 -150 -133 -171 -133 -27 0 -17 14 45 60 33 24 69 55 81 67 22 24 39 26
45 6z m5282 -124 c45 -51 81 -94 81 -98 0 -3 -5 -13 -10 -21 -9 -12 -23 -1
-81 60 -38 41 -76 84 -85 96 -14 20 -10 54 6 54 4 0 44 -41 89 -91z m-5354
-29 c374 -43 934 -206 1380 -404 109 -48 110 -50 92 -131 -4 -16 6 8 22 54 16
46 35 106 42 133 l11 49 22 -20 c35 -33 61 -27 79 17 28 69 32 111 12 126 -16
11 -16 17 -5 51 10 29 10 40 1 43 -6 2 -11 8 -11 14 0 6 9 3 20 -7 15 -13 24
-15 31 -8 8 8 5 13 -11 18 -32 10 -19 29 31 42 79 21 423 12 446 -11 15 -15
-23 -36 -66 -37 -29 -1 -36 -4 -18 -6 33 -5 35 -16 5 -31 -23 -10 -23 -11 5
-11 15 -1 27 4 27 9 0 6 9 10 20 10 11 0 20 -5 20 -11 0 -5 -4 -7 -10 -4 -6 3
-10 -4 -10 -17 0 -13 -9 -29 -20 -36 -11 -7 -20 -18 -19 -25 0 -9 2 -9 6 1 7
18 43 15 43 -5 0 -18 -30 -135 -37 -143 -3 -3 -13 6 -23 20 -14 18 -20 21 -20
9 0 -38 67 -64 78 -30 3 9 0 11 -8 6 -10 -6 -11 -2 -6 16 3 13 12 47 18 74 7
28 13 42 16 32 2 -10 -1 -32 -7 -49 -6 -17 -11 -38 -10 -47 2 -26 27 61 28 96
1 17 -4 33 -10 35 -6 2 -8 14 -4 31 l7 27 34 -20 c18 -12 77 -35 131 -52 54
-16 154 -55 221 -86 103 -46 127 -54 142 -44 12 7 21 8 25 2 3 -6 1 -10 -4
-10 -6 0 -11 -11 -11 -25 0 -18 -7 -28 -25 -35 -14 -5 -25 -12 -25 -16 0 -3 7
-4 15 0 18 6 19 -10 4 -73 -5 -24 -8 -46 -5 -48 2 -3 9 21 16 51 12 59 25 71
39 34 7 -20 8 -19 14 10 4 18 4 39 1 47 -11 28 14 15 35 -17 11 -18 26 -40 32
-49 19 -25 3 -84 -26 -97 -31 -14 -65 -69 -64 -102 1 -21 2 -20 9 8 13 56 46
82 101 82 l48 0 -25 -37 c-24 -34 -26 -45 -21 -105 6 -65 5 -68 -16 -67 -51 2
-72 15 -84 49 -11 32 -12 33 -12 9 -1 -15 8 -38 19 -52 32 -41 27 -125 -16
-249 -20 -57 -38 -113 -41 -125 -3 -13 -7 -23 -10 -23 -2 0 -27 19 -54 42 -53
45 -63 76 -33 110 21 22 34 168 15 168 -16 0 -13 56 4 70 21 18 38 87 30 127
-3 18 -20 49 -36 68 -28 32 -29 36 -18 73 15 52 1 78 -56 103 -29 13 -45 27
-47 42 -3 17 -6 14 -12 -15 -10 -48 -38 -53 -29 -5 3 17 10 40 15 50 8 15 12
16 25 5 14 -11 15 -11 11 2 -9 27 -35 22 -48 -10 -7 -16 -15 -30 -19 -30 -3 0
-30 9 -59 20 -104 40 -137 21 -134 -75 1 -27 1 -88 1 -134 0 -78 2 -86 27
-112 15 -16 49 -36 76 -45 34 -11 52 -23 58 -39 5 -13 17 -28 26 -33 13 -7 21
-30 26 -74 5 -34 11 -83 14 -107 5 -35 3 -43 -7 -38 -22 8 -169 66 -224 87
-27 10 -80 27 -116 36 -63 17 -68 17 -84 1 -18 -19 -35 -22 -35 -8 0 5 8 12
18 14 13 4 11 5 -5 6 -35 2 -27 61 7 61 10 0 20 7 23 14 4 10 1 13 -7 10 -7
-3 -20 1 -27 8 -21 21 -57 18 -51 -4 5 -21 18 -24 25 -5 4 7 6 6 6 -5 1 -9 -6
-23 -14 -32 -8 -8 -15 -22 -15 -31 0 -15 -5 -14 -37 5 -70 42 -357 51 -447 15
-14 -6 -17 -4 -14 11 1 10 14 21 28 24 19 5 28 17 42 65 29 99 23 125 -32 125
-10 0 -20 8 -22 17 -2 10 -14 -15 -28 -55 -13 -39 -27 -72 -30 -72 -21 0 -187
37 -336 74 -250 64 -329 89 -327 107 1 8 10 52 20 99 21 96 13 92 128 66 82
-18 151 -21 161 -5 13 22 -49 67 -149 107 -102 41 -225 77 -234 69 -2 -3 10
-8 28 -12 27 -6 29 -9 16 -17 -23 -12 -21 -35 3 -43 17 -5 30 -45 16 -45 -14
0 -193 83 -205 94 -17 18 -6 36 21 36 12 0 19 3 15 6 -11 11 -57 -6 -57 -21 0
-25 41 -53 129 -88 100 -40 106 -51 65 -120 -28 -46 -28 -46 -75 -40 -34 4
-55 1 -76 -12 -30 -17 -32 -17 -129 18 -108 38 -285 108 -349 137 -215 98
-324 160 -370 211 -64 71 -33 99 115 99 52 0 136 -5 185 -10z m5674 -62 c19
-45 20 -54 7 -66 -12 -12 -17 -8 -35 33 -12 26 -21 56 -21 66 0 37 28 18 49
-33z m-1997 26 c7 -5 5 -11 -7 -21 -14 -9 -61 -13 -179 -14 -89 0 -186 -4
-216 -9 -42 -6 -60 -4 -78 7 -13 8 -21 17 -18 20 3 3 42 11 88 19 85 14 386
12 410 -2z m120 -25 c91 -31 174 -77 208 -116 46 -52 36 -55 -34 -8 -35 23
-102 55 -148 70 -79 26 -118 48 -118 67 0 13 25 10 92 -13z m-638 -8 c9 -14
-24 -37 -115 -79 -47 -21 -105 -56 -128 -77 -48 -44 -59 -43 -31 3 26 42 100
95 185 131 78 34 82 35 89 22z m-3634 -46 c0 -19 -4 -37 -10 -40 -6 -4 -10 12
-10 40 0 28 4 44 10 40 6 -3 10 -21 10 -40z m1288 28 c2 -8 -5 -13 -17 -13
-12 0 -21 6 -21 16 0 18 31 15 38 -3z m52 2 c0 -15 -26 -32 -36 -23 -2 3 -2
13 2 22 8 20 34 21 34 1z m4668 -8 c32 -34 38 -78 16 -132 -16 -37 -24 -45
-45 -45 -59 0 -110 80 -88 138 24 64 77 82 117 39z m93 -6 c22 -23 29 -39 29
-69 0 -46 -8 -72 -22 -72 -17 0 -57 55 -58 80 0 14 -7 38 -15 54 -19 37 -19
36 11 36 15 0 38 -12 55 -29z m-1993 7 c-5 -13 -287 -32 -370 -25 -23 1 -38
-2 -38 -8 0 -8 60 -10 202 -7 188 4 203 6 218 25 11 13 22 17 30 12 10 -6 9
-11 -5 -22 -11 -7 -14 -13 -8 -13 20 0 22 -40 2 -50 -16 -9 -19 -22 -19 -83 0
-77 9 -97 45 -97 12 0 26 5 33 12 17 17 16 164 -1 171 -10 4 -14 44 -8 77 1 3
7 -6 14 -20 8 -15 31 -32 62 -44 198 -77 274 -141 219 -187 -14 -11 -15 -26
-10 -89 4 -47 11 -79 20 -86 9 -6 17 -38 22 -85 5 -62 4 -77 -10 -88 -12 -10
-16 -31 -16 -83 0 -52 -3 -69 -12 -65 -120 54 -188 77 -222 75 -52 -3 -65 17
-42 62 19 39 21 134 3 170 -17 33 -51 37 -71 8 -11 -15 -16 -45 -16 -94 0 -65
2 -73 25 -88 23 -15 25 -15 25 0 0 10 3 15 6 11 10 -10 -7 -67 -21 -67 -7 0
-26 7 -41 15 -22 11 -61 14 -169 13 l-140 -2 147 -5 c117 -5 151 -9 163 -22
15 -15 2 -17 -162 -22 -98 -4 -203 -9 -233 -12 -30 -3 -48 -2 -40 1 8 4 23 13
33 22 9 8 34 18 55 22 31 7 33 8 9 9 -15 0 -44 -6 -64 -14 -45 -19 -43 -19
-43 10 0 13 7 28 17 33 22 13 19 148 -4 174 -19 21 -44 23 -61 6 -18 -18 -16
-152 3 -168 20 -17 19 -66 -1 -74 -9 -3 -27 -6 -41 -6 -14 0 -68 -20 -119 -44
l-94 -45 0 39 c0 52 37 94 114 129 84 38 106 68 106 141 0 32 7 73 15 92 8 22
12 50 8 72 -6 36 -5 36 30 36 42 0 47 11 46 88 l-2 57 -7 -56 c-10 -78 -18
-89 -50 -69 -9 6 -17 32 -21 72 l-6 63 -1 -62 -2 -63 -37 0 c-21 0 -53 -9 -70
-20 l-33 -20 0 24 c0 12 -8 30 -18 39 -24 22 -42 5 -42 -40 0 -30 -3 -33 -30
-33 -47 0 -41 43 13 94 63 60 295 180 239 124 -17 -17 -16 -44 1 -29 20 16 27
4 29 -53 l1 -51 4 45 c3 24 10 48 16 53 9 5 7 11 -5 21 -21 15 -24 42 -5 49 9
4 8 8 -3 16 -8 6 -10 11 -5 12 20 3 30 5 45 12 24 10 76 14 243 15 123 2 158
-1 155 -10z m-2730 -27 c3 -20 1 -21 -17 -12 -12 7 -18 17 -14 27 8 21 27 12
31 -15z m-1188 -12 c0 -11 -27 -12 -34 0 -3 4 -3 11 0 14 8 8 34 -3 34 -14z
m1140 -8 c32 -12 46 -23 48 -38 3 -22 2 -22 -88 9 -76 25 -89 32 -79 44 14 17
44 13 119 -15z m1519 -16 c105 -36 299 -121 320 -141 3 -3 0 -8 -5 -13 -5 -6
-53 9 -119 38 -60 26 -159 65 -220 86 -112 39 -135 50 -135 66 0 16 25 10 159
-36z m1455 25 c76 -26 149 -66 182 -101 40 -42 23 -46 -32 -9 -25 18 -85 49
-132 69 -47 20 -87 42 -90 49 -5 16 5 15 72 -8z m-709 -20 c-3 -5 -42 -28 -86
-52 -45 -24 -99 -58 -120 -76 -53 -45 -54 -14 -1 35 60 56 232 133 207 93z
m-3357 -8 c97 -68 276 -150 557 -256 160 -61 190 -76 193 -94 2 -14 -3 -24
-15 -28 -10 -3 -50 -21 -89 -40 -40 -18 -115 -45 -168 -59 l-97 -25 -22 20
c-34 32 -90 43 -131 26 -34 -14 -66 -58 -66 -90 0 -20 -18 -29 -130 -60 -52
-15 -103 -29 -112 -32 -17 -5 -18 9 -18 187 0 184 1 194 24 233 13 23 26 54
30 70 6 24 4 28 -10 22 -13 -5 -15 -2 -9 16 4 13 9 37 11 53 9 54 14 75 20 75
3 0 18 -8 32 -18z m1812 -27 c-7 -9 -15 -13 -18 -10 -3 2 1 11 8 20 7 9 15 13
18 10 3 -2 -1 -11 -8 -20z m45 5 c3 -5 12 -7 19 -4 24 9 28 -14 12 -67 -20
-65 -34 -83 -52 -68 -8 6 -14 8 -14 3 0 -5 -5 -2 -10 6 -14 22 -12 54 6 100
16 40 27 49 39 30z m2103 -84 c-2 -58 -6 -71 -20 -74 -16 -3 -18 5 -18 71 0
78 3 89 26 80 12 -4 14 -22 12 -77z m-48 -2 c0 -47 -4 -73 -10 -69 -18 11 -12
145 7 145 2 0 3 -34 3 -76z m2047 -98 c125 -132 140 -152 130 -168 -11 -18
-26 -6 -160 132 -131 134 -146 153 -136 171 6 11 14 19 18 17 3 -2 70 -70 148
-152z m-4912 123 c30 -11 55 -25 55 -30 0 -12 -26 -12 -50 1 -10 5 -35 12 -55
14 -42 5 -50 10 -40 25 9 16 27 14 90 -10z m-1137 -44 c2 -2 0 -29 -3 -60 l-7
-56 -47 3 -46 3 -3 49 c-5 70 -1 75 55 69 26 -3 49 -7 51 -8z m1282 -11 c58
-27 90 -51 90 -67 0 -14 -124 -1 -196 21 -69 21 -83 49 -21 44 26 -2 39 2 43
13 8 20 20 19 84 -11z m-185 -26 c-4 -24 -9 -46 -12 -50 -9 -15 -23 -8 -23 12
0 11 5 20 11 20 5 0 9 8 8 18 -3 30 1 42 12 42 7 0 8 -14 4 -42z m2020 26 c15
-10 25 -26 25 -40 0 -29 -7 -30 -33 -6 -24 20 -17 5 20 -44 23 -31 30 -54 16
-54 -18 0 -57 78 -59 118 -3 48 -3 48 31 26z m195 -82 c0 -17 -5 -23 -17 -20
-16 3 -19 20 -14 71 3 21 31 -25 31 -51z m-616 23 c42 -18 39 -35 -5 -35 -45
0 -69 -17 -89 -62 -17 -38 -19 -39 -29 -20 -16 30 -16 61 -2 106 13 37 14 38
51 32 20 -3 54 -13 74 -21z m4564 19 c-11 -10 -86 -24 -302 -55 -116 -16 -222
-33 -236 -38 -15 -5 -52 -4 -87 1 -36 5 -124 6 -219 0 -204 -11 -278 -2 -321
41 -18 17 -33 34 -33 39 0 4 107 9 238 10 617 7 965 8 960 2z m-3808 -40 c15
-38 12 -90 -6 -105 -20 -16 -34 2 -34 44 0 23 -6 31 -30 40 -34 13 -37 22 -12
36 33 20 72 13 82 -15z m950 -54 c0 -64 -2 -71 -22 -79 -13 -5 -26 -6 -29 -2
-9 9 -19 137 -12 145 4 3 19 6 35 6 l28 0 0 -70z m1588 25 c-11 -12 -38 8 -38
28 l0 21 22 -21 c12 -13 19 -25 16 -28z m-4912 1 c3 -7 -1 -38 -8 -67 -10 -43
-17 -54 -33 -54 -13 0 -21 -8 -23 -22 -4 -30 -48 -63 -83 -63 -16 0 -37 10
-50 23 l-21 22 12 -24 c10 -19 9 -25 -1 -32 -19 -11 -118 -33 -124 -27 -3 2
-8 18 -11 35 -6 30 -4 31 45 48 29 9 58 14 66 11 11 -4 15 2 15 25 0 61 75
100 126 65 18 -13 21 -11 38 30 18 43 42 57 52 30z m1659 -7 c-4 -5 -12 -9
-20 -9 -18 0 -65 -57 -65 -78 1 -9 7 -3 15 15 26 61 106 74 156 24 29 -30 39
-74 18 -87 -16 -9 9 -24 41 -24 36 0 62 -48 62 -110 -1 -67 -17 -90 -67 -91
-31 -2 -34 -3 -12 -6 27 -4 28 -6 25 -61 l-3 -57 -55 0 -55 0 -3 55 c-2 43 -8
59 -27 75 -34 28 -38 117 -7 155 25 31 59 19 79 -28 18 -42 10 -95 -18 -123
-19 -19 -19 -19 4 -19 24 0 29 16 31 103 1 42 -3 52 -27 73 -33 28 -54 30 -78
8 -21 -19 -39 -11 -39 19 0 12 -5 29 -10 37 -7 11 -9 4 -6 -24 3 -21 10 -44
15 -49 11 -11 15 -57 6 -57 -12 0 -61 35 -82 58 -27 30 -28 51 -7 121 20 68
41 88 93 89 23 1 39 -3 36 -9z m124 -10 c31 -19 33 -23 28 -61 -7 -49 -30 -79
-26 -33 4 37 -14 72 -41 80 -22 7 -28 35 -7 35 6 0 27 -9 46 -21z m367 11 c16
0 22 -4 18 -14 -13 -33 -74 -27 -74 6 0 14 5 18 16 14 9 -3 26 -6 40 -6z m164
-5 c8 -9 13 -46 13 -95 1 -86 -9 -107 -65 -136 -39 -20 -45 -18 -52 17 -8 41
9 62 46 57 24 -4 28 -1 29 21 4 69 0 93 -17 112 -16 17 -16 22 -4 29 21 14 36
12 50 -5z m-3414 -193 c0 -174 -1 -194 -17 -203 -44 -23 -45 -20 -47 188 -1
207 1 216 43 211 19 -3 20 -11 21 -196z m6203 22 c87 -90 162 -164 166 -164
12 0 45 31 45 42 0 6 -53 64 -117 130 -65 65 -119 124 -121 129 -6 17 82 9
128 -12 59 -27 80 -47 80 -76 0 -16 7 -27 19 -30 12 -3 25 -22 35 -53 13 -41
16 -105 16 -383 l0 -335 -25 -16 c-14 -9 -25 -25 -25 -36 0 -11 -4 -20 -10
-20 -5 0 -10 10 -10 23 0 13 -6 32 -14 43 -34 45 -66 -22 -58 -123 5 -54 28
-64 60 -27 29 34 42 20 42 -46 0 -25 6 -54 13 -65 11 -16 13 -92 9 -377 l-4
-358 -24 0 c-16 0 -51 -24 -102 -72 -74 -68 -168 -190 -291 -378 l-56 -85 -3
160 c-1 88 -1 288 1 445 4 327 15 404 57 405 19 0 26 7 33 35 12 45 0 120 -19
120 -17 0 -19 -17 -1 -23 9 -3 8 -8 -3 -22 -14 -17 -15 -16 -20 11 -4 20 -12
30 -26 32 -19 3 -23 12 -28 65 -4 34 -6 314 -5 622 2 625 1 614 63 607 32 -4
57 -26 195 -168z m-2852 144 c17 -16 23 -32 23 -65 0 -37 -3 -43 -22 -43 -12
0 -29 -7 -39 -16 -12 -10 -25 -14 -36 -9 -17 7 -17 8 2 15 15 6 6 9 -32 11
-79 2 -78 2 -76 34 4 51 9 55 66 55 53 0 80 -12 90 -40 4 -12 6 -12 6 2 1 9
-11 26 -25 37 -27 21 -25 41 3 41 9 0 27 -10 40 -22z m3343 -2 c0 -2 -15 -14
-34 -25 -29 -18 -49 -21 -149 -21 -88 0 -125 4 -152 17 -19 9 -35 20 -35 25 0
4 83 8 185 8 102 0 185 -2 185 -4z m-760 -636 l0 -630 -40 0 -40 0 0 630 0
630 40 0 40 0 0 -630z m-2470 519 c0 -28 -5 -59 -11 -70 -11 -22 -95 -79 -116
-79 -28 0 -11 29 30 53 58 35 67 46 74 106 7 63 23 57 23 -10z m3160 48 c0 -7
-10 -24 -21 -36 -20 -21 -29 -23 -106 -19 -86 3 -103 11 -103 51 0 15 12 17
115 17 88 0 115 -3 115 -13z m-3997 -115 c10 -11 35 -27 57 -37 38 -17 53 -35
30 -35 -21 0 -85 31 -107 52 -24 23 -28 44 -16 99 l7 34 6 -47 c3 -26 14 -55
23 -66z m1457 79 c5 -11 10 -45 10 -75 0 -49 -2 -56 -20 -56 -15 0 -20 7 -20
29 0 15 -3 49 -6 75 -6 38 -4 46 9 46 9 0 21 -9 27 -19z m2229 -65 c58 -58 82
-89 78 -100 -12 -30 -35 -16 -115 71 -60 65 -78 91 -70 100 6 7 13 13 17 13 4
0 44 -38 90 -84z m-2769 -1 c0 -68 -2 -75 -20 -75 -18 0 -20 7 -20 68 0 71 4
82 27 82 10 0 13 -19 13 -75z m498 -38 c-2 -20 -7 -37 -13 -37 -12 0 -19 94
-9 129 6 24 7 23 16 -14 5 -22 8 -57 6 -78z m-2863 67 c100 -32 316 -86 460
-115 61 -12 111 -23 113 -24 1 -1 -3 -26 -9 -56 -8 -36 -23 -66 -45 -89 -17
-19 -35 -44 -38 -56 -6 -20 -14 -21 -194 -27 -243 -8 -321 -25 -344 -77 -7
-16 -16 -26 -22 -23 -5 4 -7 -15 -3 -49 6 -45 4 -57 -8 -62 -11 -4 -15 -22
-15 -75 0 -65 2 -72 26 -88 28 -18 28 -25 8 -264 l-6 -67 -116 -7 c-65 -3
-193 -13 -287 -21 -157 -13 -171 -12 -182 3 -7 9 -13 20 -13 25 0 4 -12 8 -26
8 l-27 0 6 106 c2 58 8 108 11 111 3 3 13 0 21 -7 25 -21 39 2 43 76 5 76 -5
94 -42 75 -20 -11 -25 -23 -30 -85 -13 -142 -10 -136 -76 -136 l-57 0 -7 46
c-3 26 -6 75 -6 110 l0 64 77 0 c73 0 75 1 60 18 -24 26 -25 306 -2 332 8 9
30 61 49 114 19 54 38 102 43 106 18 18 200 67 230 63 17 -3 56 2 86 11 30 9
67 16 81 16 34 0 102 34 109 55 9 21 40 19 132 -11z m2395 -44 c0 -33 -4 -60
-10 -60 -6 0 -10 27 -10 60 0 33 4 60 10 60 6 0 10 -27 10 -60z m-302 30 c39
-37 41 -114 3 -161 -36 -44 -91 -1 -91 71 0 38 17 82 37 98 22 16 25 16 51 -8z
m3295 8 c11 -35 -5 -48 -58 -48 -53 0 -65 8 -65 46 0 19 116 20 123 2z m-5823
-32 c0 -15 -147 -66 -199 -69 -30 -2 -71 -34 -71 -56 0 -11 3 -10 14 5 28 38
29 3 2 -66 -15 -38 -30 -70 -33 -70 -6 0 4 70 14 96 5 14 2 13 -15 -4 -33 -33
-105 -31 -135 4 -60 69 -23 164 64 164 31 0 89 -27 89 -42 0 -13 -23 -9 -44 7
-29 22 -70 18 -92 -7 -19 -23 -19 -23 2 -5 24 20 65 22 82 5 14 -14 16 -28 3
-28 -5 0 -25 -7 -45 -15 -30 -13 -34 -18 -24 -29 7 -8 15 -10 16 -5 4 11 56
39 71 39 5 0 12 -10 14 -22 4 -21 4 -21 6 2 1 29 16 37 161 80 111 34 120 35
120 16z m1125 4 c6 -9 -4 -68 -22 -132 -5 -21 -31 -24 -39 -4 -5 12 20 117 33
139 6 10 21 9 28 -3z m-45 -7 c-1 -24 -29 -98 -38 -101 -15 -5 -15 6 -1 49 6
19 12 40 15 47 4 13 24 17 24 5z m4728 -375 l2 -348 -45 0 -45 0 0 343 c0 189
3 347 7 351 4 4 23 6 43 4 l35 -3 3 -347z m-2126 275 c13 -12 18 -31 18 -73 0
-51 -3 -58 -22 -64 -13 -3 -27 -1 -31 3 -13 13 -21 94 -13 125 7 30 22 33 48
9z m-4142 -27 c0 -8 -25 -23 -62 -35 -71 -24 -98 -26 -98 -8 0 7 32 22 73 34
89 26 87 26 87 9z m1490 -50 c0 -26 -15 -43 -24 -28 -7 12 4 52 15 52 5 0 9
-11 9 -24z m1447 18 c20 -6 21 -11 16 -58 -7 -59 -14 -66 -66 -66 -42 0 -44 3
-50 78 l-4 52 41 0 c23 0 51 -3 63 -6z m979 -8 c127 -44 234 -119 234 -163 0
-13 -8 -9 -32 14 -42 39 -138 88 -220 110 -76 20 -74 19 -58 38 15 19 27 19
76 1z m-3892 -12 c3 -9 6 -42 6 -74 0 -32 5 -62 10 -65 6 -4 10 -70 10 -164 0
-141 -2 -160 -18 -172 -19 -15 -19 -23 4 -295 8 -102 5 -103 -148 -97 -68 2
-129 6 -135 8 -15 5 -19 286 -4 313 5 9 11 57 14 105 4 78 3 90 -14 106 -18
16 -19 31 -17 147 l3 129 120 36 c137 42 160 45 169 23z m-203 -9 c1 -12 -338
-117 -361 -112 -8 1 -19 -3 -25 -9 -10 -12 -196 -74 -222 -74 -7 0 -13 7 -13
15 0 13 93 47 195 71 17 4 109 33 205 66 166 55 220 65 221 43z m3914 6 c11
-5 30 -5 43 0 13 5 22 5 22 -1 0 -6 -9 -10 -20 -10 -21 0 -27 -15 -9 -25 5 -4
18 0 27 9 16 14 23 14 77 0 89 -24 199 -79 234 -119 48 -55 39 -91 -10 -39
-89 96 -387 157 -650 134 -193 -16 -340 -57 -440 -121 -54 -34 -59 -35 -59
-11 0 25 22 43 102 85 89 47 180 76 186 59 6 -19 39 -14 45 7 4 16 18 20 83
26 44 3 84 8 89 10 20 7 261 3 280 -4z m-3612 -13 l39 1 -7 -52 c-4 -29 -8
-53 -9 -53 0 -1 -18 -4 -39 -7 -51 -7 -67 11 -67 74 0 48 1 50 23 43 12 -4 39
-7 60 -6z m1705 2 c87 -8 122 -20 122 -41 0 -5 -21 -10 -47 -10 -27 -1 -37 -3
-23 -6 14 -2 40 -6 58 -9 17 -3 40 -14 51 -25 15 -17 22 -18 43 -8 21 9 42 6
119 -16 98 -29 264 -92 330 -126 30 -15 39 -25 39 -44 0 -14 -5 -25 -10 -25
-6 0 -43 16 -83 36 -93 48 -305 117 -443 146 -87 18 -142 23 -274 23 -176 0
-238 -12 -294 -56 -36 -28 -35 -1 0 41 21 24 32 30 50 26 16 -4 27 0 38 15 13
19 29 23 103 29 l88 8 -88 -1 c-48 0 -90 3 -93 6 -10 10 38 29 90 37 72 11
118 11 224 0z m1375 -4 c-1 -5 -33 -21 -71 -36 -38 -14 -94 -41 -125 -59 -44
-25 -57 -29 -57 -17 0 39 158 128 220 124 19 -2 34 -7 33 -12z m-548 -123 c-4
-26 -10 -41 -17 -37 -11 7 -3 98 10 118 10 16 15 -31 7 -81z m-2935 -53 c0
-112 -2 -132 -16 -137 -39 -15 -49 9 -52 122 -3 113 2 130 41 138 12 2 23 5
25 6 1 0 2 -58 2 -129z m1704 89 c-15 -16 -32 -29 -36 -29 -12 0 19 57 34 63
28 10 28 -7 2 -34z m589 25 c9 -4 17 -10 17 -15 0 -16 -25 -9 -44 12 -10 12
-12 19 -4 15 7 -3 21 -9 31 -12z m263 -35 c173 -59 244 -94 244 -121 0 -25 -7
-23 -89 16 -56 27 -222 85 -351 123 -11 3 -9 8 10 18 14 8 28 14 31 15 4 0 73
-23 155 -51z m1574 28 c92 -26 167 -57 217 -90 39 -26 49 -38 51 -66 3 -29 -3
-40 -50 -85 -37 -36 -77 -62 -128 -84 -90 -38 -78 -43 14 -6 69 28 138 80 167
128 18 30 19 30 19 7 0 -32 -81 -111 -148 -145 -71 -36 -260 -84 -384 -98
-127 -13 -322 1 -445 33 -91 24 -198 73 -207 94 -7 20 -9 20 75 -20 41 -19 90
-37 109 -40 30 -4 27 -2 -15 13 -65 25 -135 60 -157 80 -13 11 -18 30 -18 71
0 31 4 61 8 68 15 24 126 83 205 109 131 44 220 54 437 50 133 -3 213 -9 250
-19z m-1232 -374 c-3 -328 -4 -348 -21 -351 -10 -2 -29 -1 -43 2 l-24 6 0 345
0 345 45 0 45 0 -2 -347z m222 277 c0 -74 -1 -76 -29 -60 -17 9 -17 13 -2 70
8 33 19 60 23 60 5 0 8 -31 8 -70z m100 -281 l0 -350 -42 3 -43 3 -3 335 c-1
184 0 341 3 347 2 8 22 13 45 13 l40 0 0 -351z m-980 315 c141 -24 310 -78
443 -141 l118 -56 -3 -141 -3 -141 -105 -6 -105 -5 108 -2 c82 -2 108 -5 104
-14 -3 -10 -38 -13 -133 -12 -146 0 -309 30 -488 88 -268 88 -507 241 -505
324 0 24 1 25 8 7 5 -11 38 -48 74 -82 93 -86 299 -188 493 -242 77 -22 163
-42 190 -45 27 -3 -9 9 -81 27 -180 46 -255 72 -368 128 -192 94 -302 187
-295 249 4 33 67 67 145 80 78 12 286 4 403 -16z m-1820 -160 l0 -165 -37 3
-38 3 -3 163 -2 162 40 0 40 0 0 -166z m1223 141 c1 -6 -79 -12 -218 -15 -179
-5 -226 -9 -254 -23 -34 -17 -34 -17 -17 2 17 18 87 35 186 45 76 7 300 1 303
-9z m10 -68 c3 -24 9 -51 13 -60 5 -14 0 -17 -27 -18 -20 -1 -25 -3 -14 -6 69
-14 66 -12 53 -33 -8 -12 -25 -20 -43 -21 -17 -1 -22 -3 -12 -6 9 -2 17 -7 17
-10 0 -3 -8 -12 -17 -20 -16 -13 -16 -13 7 -7 14 4 30 14 36 22 9 12 13 12 19
2 4 -7 2 -16 -5 -20 -6 -4 -10 -18 -8 -31 2 -13 -5 -33 -14 -43 -21 -24 -26
-144 -6 -164 17 -17 43 -15 58 3 11 14 10 14 -13 6 -37 -14 -49 6 -45 76 2 44
7 58 18 58 11 0 17 -15 21 -50 l6 -50 1 48 c2 53 19 64 25 15 3 -29 4 -28 5 9
1 26 -3 45 -12 50 -15 9 -27 61 -15 69 5 3 19 -2 32 -11 14 -8 42 -16 63 -17
23 -1 83 -22 149 -53 60 -28 138 -62 173 -75 34 -12 62 -26 62 -31 0 -5 7 -6
15 -3 8 4 15 2 15 -4 0 -6 9 -8 20 -5 16 4 20 0 20 -18 0 -35 -14 -51 -41 -47
-15 2 -26 12 -30 28 l-7 25 -1 -28 c-2 -52 78 -53 87 -1 2 11 7 22 10 26 4 4
72 -6 152 -22 80 -16 159 -30 177 -30 17 0 34 -4 38 -9 3 -6 0 -80 -7 -166
-11 -140 -15 -158 -33 -167 -11 -6 -26 -19 -32 -28 -9 -13 -35 -20 -90 -26
-43 -5 -86 -7 -95 -6 -10 1 -26 -11 -35 -26 -21 -32 -64 -71 -78 -72 -6 0 -19
15 -30 32 -10 18 -56 72 -102 119 -46 47 -83 95 -83 105 0 33 -59 76 -110 80
-25 2 -76 15 -115 28 -38 14 -81 25 -95 25 -17 0 -11 -4 20 -13 140 -39 157
-50 97 -61 -24 -5 -51 0 -93 18 -32 14 -79 31 -104 38 l-45 13 50 7 c28 4 -8
5 -80 2 -150 -6 -156 -6 -211 3 -53 8 -121 -11 -129 -36 -3 -10 -16 -21 -28
-23 -37 -7 173 -5 268 2 76 7 81 8 33 9 -71 2 -76 17 -9 25 80 10 307 -51 283
-75 -7 -7 -31 -3 -73 11 -65 22 -104 28 -59 9 24 -10 24 -10 5 -18 -14 -5 -7
-7 22 -6 49 1 53 -2 56 -40 2 -28 0 -29 -55 -38 -43 -7 -61 -6 -73 4 -21 18
-19 36 7 54 24 17 21 20 -7 10 -9 -4 -21 -18 -26 -32 -15 -38 4 -52 70 -52 74
0 101 8 101 31 0 51 58 20 172 -93 65 -64 178 -209 178 -228 0 -3 -30 -28 -66
-55 -37 -27 -115 -97 -174 -157 -58 -59 -111 -108 -117 -108 -17 0 -44 -36
-38 -51 3 -8 -6 -27 -20 -43 -15 -18 -23 -36 -20 -47 3 -10 -5 -39 -18 -66
-57 -112 -127 -364 -127 -457 0 -17 -7 -44 -15 -60 -17 -31 -20 -72 -6 -80 5
-3 6 -26 3 -51 -2 -25 0 -50 5 -57 6 -7 16 -51 22 -98 7 -47 22 -121 33 -165
32 -125 32 -132 -7 -240 -20 -55 -39 -103 -43 -107 -15 -14 -195 -48 -207 -38
-7 6 -15 6 -23 -2 -6 -6 -14 -10 -16 -7 -5 5 20 375 29 431 4 23 22 54 46 82
52 59 50 71 -2 16 -23 -24 -45 -57 -50 -74 -4 -17 -13 -98 -19 -181 -5 -82
-13 -178 -16 -213 l-6 -62 -36 0 -35 0 6 108 c4 59 11 163 17 232 11 130 7
201 -13 197 -8 -1 -12 18 -12 60 0 33 -3 59 -7 56 -14 -8 -9 -128 7 -149 17
-22 19 -34 5 -34 -18 0 -45 54 -51 104 l-6 51 -2 -51 c-1 -38 4 -58 20 -78 21
-27 12 -34 -21 -16 -25 13 -43 73 -35 113 20 90 82 157 145 157 31 0 38 -3 34
-15 -4 -8 -1 -15 6 -15 6 0 8 5 5 10 -3 6 -2 10 4 10 5 0 12 -8 16 -19 10 -31
44 -56 57 -43 20 20 28 14 28 -23 0 -36 -13 -47 -24 -20 -3 8 -13 15 -22 15
-16 0 -16 -2 1 -20 15 -16 16 -22 5 -35 -23 -28 -51 -39 -61 -24 -15 25 -9 58
13 73 25 18 17 21 -13 6 -14 -8 -19 -21 -19 -52 0 -40 -1 -40 -19 -24 -15 14
-17 24 -10 54 10 48 4 53 -11 8 -22 -69 31 -110 101 -79 24 10 38 22 35 30 -8
19 12 26 22 7 15 -26 20 -4 13 57 -7 55 -36 118 -49 103 -4 -3 -1 -9 6 -11 18
-7 15 -53 -3 -53 -8 0 -15 5 -15 11 0 7 -11 22 -26 35 -34 32 -109 33 -148 3
-48 -37 -80 -107 -81 -171 0 -67 17 -91 81 -113 29 -10 39 -18 38 -34 0 -12
-1 -39 -2 -61 l-2 -40 -72 0 c-93 0 -116 -7 -120 -34 -2 -16 -11 -22 -35 -24
-18 -2 -33 -1 -33 2 0 3 14 45 30 95 44 131 80 299 87 408 6 86 8 96 29 105
12 6 20 16 18 23 -3 7 3 15 12 19 21 8 33 -2 15 -13 -17 -11 38 -22 102 -21
73 2 121 20 125 48 6 44 -14 54 -101 50 -65 -3 -82 -7 -96 -24 -9 -11 -26 -23
-37 -26 -43 -11 -51 6 -58 114 -10 140 -40 310 -78 447 -31 110 -31 114 -13
127 27 20 53 17 60 -6 5 -16 15 -20 53 -20 119 1 184 46 136 94 -11 12 -36 16
-92 16 -64 0 -79 -3 -99 -21 -19 -19 -28 -21 -65 -13 -39 8 -46 14 -72 64 -75
145 -146 246 -249 356 l-59 64 33 0 c23 0 38 -6 47 -20 10 -17 23 -20 76 -20
74 0 110 11 120 36 8 21 -19 64 -40 64 -12 0 -10 -5 6 -22 30 -32 26 -54 -11
-62 -44 -8 -129 -8 -129 2 1 17 27 40 50 45 24 4 24 4 -2 6 -34 1 -37 18 -5
24 12 2 3 5 -19 6 -30 1 -44 -4 -48 -15 -9 -22 -108 -10 -201 25 l-70 26 35 6
c32 6 31 6 -15 8 -59 2 -80 12 -72 35 10 25 160 19 165 -6 2 -13 -3 -18 -17
-18 -12 0 -21 -4 -21 -9 0 -4 10 -7 23 -5 12 2 135 11 272 19 322 19 379 25
367 37 -11 11 -8 65 14 304 8 88 12 168 8 177 -5 14 0 17 27 18 l34 1 -35 8
c-33 8 -60 32 -60 56 0 8 18 4 55 -10 48 -18 55 -24 50 -43 -4 -16 0 -23 15
-28 16 -5 19 -12 14 -28 -3 -12 -10 -26 -15 -31 -13 -15 -11 -26 6 -26 8 0 15
-8 16 -17 0 -14 2 -13 9 5 13 31 38 28 43 -5 4 -27 4 -27 6 3 1 24 -4 33 -19
37 -13 3 -20 14 -20 30 l0 24 52 -13 c29 -8 64 -14 78 -13 14 1 -1 7 -33 14
-33 7 -66 20 -75 30 -16 17 -14 17 43 11 151 -15 163 -15 60 3 -63 12 -114 26
-120 34 -6 9 -21 13 -41 10 -37 -6 -104 21 -104 41 0 24 15 27 60 11 23 -8 70
-20 104 -26 129 -22 252 -39 281 -37 26 1 27 1 5 5 -14 2 -83 13 -155 24 -159
24 -238 46 -232 62 5 17 77 24 278 25 l176 2 6 -43z m3947 -6 c0 -16 -6 -32
-12 -35 -7 -3 4 -5 25 -3 72 6 30 -32 -52 -47 -35 -6 -81 13 -81 34 0 10 -36
50 -45 50 -3 0 -5 -6 -5 -14 0 -25 -21 -31 -125 -37 l-100 -5 98 -2 c53 -1 97
-6 97 -10 0 -18 -26 -32 -64 -34 l-41 -1 37 -4 c41 -5 78 10 78 31 0 19 27 39
41 30 9 -5 7 -9 -6 -14 -16 -6 -19 -15 -16 -59 2 -46 0 -53 -18 -58 -20 -5
-21 -10 -15 -142 5 -118 9 -138 25 -150 13 -9 19 -26 19 -51 l0 -37 -137 -7
c-174 -9 -192 -13 -204 -42 -4 -13 -15 -24 -24 -24 -18 0 -20 16 -2 23 7 4 3
8 -10 12 -19 6 -23 14 -22 49 1 39 2 40 9 11 l8 -30 1 31 c1 19 7 34 16 38 14
5 15 24 9 138 -4 95 -10 136 -20 144 -8 6 -15 24 -15 40 l-2 29 -4 -28 c-3
-16 -10 -26 -16 -24 -27 9 -36 -29 -37 -154 0 -115 2 -128 21 -145 16 -14 20
-28 18 -67 -2 -34 2 -51 12 -58 10 -6 7 -9 -13 -9 -15 0 -31 7 -37 17 -7 13
-30 19 -101 25 -53 4 -102 3 -116 -3 -14 -5 -54 -9 -90 -9 -60 0 -65 -2 -74
-25 -16 -43 -27 -28 -29 39 -1 49 2 65 14 70 12 4 15 26 13 118 l-2 113 -5
-110 -6 -109 -35 -1 -35 0 -3 129 -3 128 26 -4 c14 -3 28 -1 32 5 4 6 10 3 14
-9 7 -17 8 -17 8 4 1 13 -5 22 -14 22 -8 0 -15 4 -15 10 0 5 -7 7 -15 4 -12
-5 -15 3 -15 41 0 26 4 44 9 40 5 -3 12 -1 16 4 3 5 -12 11 -32 13 -37 3 -37
3 -15 16 26 15 62 7 62 -13 0 -13 21 -25 43 -25 7 0 1 9 -13 20 -32 24 -21 29
90 33 83 3 82 3 -22 5 -96 2 -108 4 -118 22 -15 27 -34 25 -48 -5 -9 -20 -20
-25 -49 -27 -37 -1 -37 -1 -5 -5 17 -2 32 -8 32 -12 0 -12 -42 -29 -82 -33
-41 -4 -47 2 -22 23 8 7 24 29 34 50 19 37 20 37 92 43 40 4 267 15 503 26
237 11 444 22 460 24 17 1 51 4 78 4 46 2 47 1 47 -27z m-2511 -25 c8 -10 8
-27 1 -62 -15 -68 -24 -81 -44 -65 -20 17 -20 27 1 90 17 54 23 60 42 37z m16
-546 c-8 -9 -15 -26 -15 -38 0 -21 -5 -22 -75 -22 l-75 0 0 28 c0 15 -5 33
-10 38 -6 6 -14 43 -17 81 -5 67 -5 71 18 83 40 21 79 62 79 84 0 12 9 27 19
33 13 8 22 29 26 57 4 25 13 50 21 57 7 6 19 39 26 73 12 56 13 41 16 -198 2
-220 0 -262 -13 -276z m-112 451 c35 -37 47 -58 47 -81 0 -37 -13 -39 -28 -5
-7 14 -32 47 -57 74 -46 50 -62 91 -27 72 10 -5 39 -32 65 -60z m2555 21 c34
3 37 1 40 -25 2 -16 -2 -35 -8 -42 -14 -17 -3 -272 11 -281 5 -3 9 -22 9 -42
0 -36 -2 -38 -42 -49 -24 -6 -53 -14 -65 -18 -22 -7 -23 -5 -23 39 0 32 5 48
15 52 12 5 15 25 13 108 l-2 101 -3 -97 c-3 -78 -7 -98 -18 -98 -11 0 -15 15
-17 63 l-2 62 -3 -60 c-4 -62 -16 -87 -32 -69 -5 5 -11 65 -13 134 l-3 125 37
1 c26 1 38 -4 41 -15 3 -11 5 -9 6 6 1 13 -10 30 -26 42 -16 11 -22 21 -15 21
6 0 12 11 12 23 0 31 9 38 32 26 11 -6 36 -9 56 -7z m89 -44 c-2 -13 -4 -5 -4
17 -1 22 1 32 4 23 2 -10 2 -28 0 -40z m-5607 -35 c0 -118 -3 -123 -61 -123
-45 0 -49 2 -55 28 -3 15 -10 43 -15 62 -5 19 -9 52 -9 73 l0 37 70 0 70 0 0
-77z m1103 0 c-3 -43 -8 -81 -11 -85 -16 -16 -35 13 -40 61 -4 45 -1 55 19 75
13 13 27 24 30 25 3 1 4 -34 2 -76z m1874 -42 c11 -26 12 -36 2 -45 -8 -8 -13
-8 -16 2 -3 7 -22 35 -44 62 -21 27 -39 59 -39 72 0 20 4 18 41 -17 23 -22 48
-55 56 -74z m-1237 63 c47 -31 50 -39 13 -29 -38 9 -75 34 -68 45 9 14 11 13
55 -16z m2758 -24 c2 -23 -2 -48 -7 -53 -7 -7 -11 -63 -11 -144 0 -112 3 -135
16 -140 11 -4 15 -18 13 -54 -2 -27 0 -52 4 -55 11 -11 8 -24 -6 -24 -7 0 -18
9 -25 20 -11 18 -22 20 -90 18 l-77 -2 70 -3 c65 -4 95 -14 95 -34 0 -5 -60
-10 -132 -12 l-133 -3 147 -2 c140 -2 148 -3 159 -24 l12 -22 19 25 c18 21 30
24 100 28 l80 3 -3 -33 c-1 -19 0 -43 1 -54 2 -11 6 16 9 60 l6 80 34 3 c39 4
50 -8 51 -58 1 -31 2 -32 10 -12 8 20 16 22 77 22 54 0 71 -4 89 -21 18 -17
22 -18 27 -5 4 10 1 13 -9 9 -7 -3 -14 -1 -14 5 0 19 377 57 397 40 14 -12 17
-34 5 -41 -14 -9 -338 -37 -454 -40 l-118 -2 0 -37 c0 -31 -4 -38 -19 -38 -11
0 -23 -5 -26 -11 -4 -6 0 -9 10 -7 10 2 20 -3 22 -9 4 -12 -14 -17 -54 -16 -8
0 -9 -7 -2 -24 16 -42 11 -73 -11 -73 -22 0 -26 20 -8 38 6 6 10 13 7 15 -9 7
-339 77 -449 96 -165 28 -208 31 -214 15 -3 -7 -20 -14 -38 -16 -21 -2 25 -15
132 -37 215 -44 241 -47 100 -11 -63 16 -127 30 -142 30 -32 0 -46 17 -23 26
30 12 295 -31 295 -47 0 -4 8 -5 19 -2 10 3 22 0 25 -5 3 -6 14 -8 25 -5 31 8
241 -47 241 -63 0 -23 -20 -25 -97 -11 l-72 14 35 -40 c40 -47 40 -48 15 -64
-18 -11 -26 -6 -70 44 -28 31 -51 63 -51 70 0 7 -10 13 -23 13 -13 0 -28 5
-34 11 -7 7 -13 8 -17 0 -4 -6 6 -14 22 -18 26 -7 142 -127 142 -147 0 -8 -78
-8 -203 1 l-97 6 -68 59 c-37 33 -105 85 -152 116 -69 46 -81 57 -65 62 18 7
17 8 -5 11 -24 4 -25 6 -22 73 2 38 8 79 13 93 16 43 26 16 17 -48 -4 -35 -5
-66 -1 -70 20 -17 100 -24 228 -18 l140 5 -141 2 c-126 2 -143 4 -159 22 -10
11 -15 28 -12 39 3 13 -1 21 -14 24 -20 5 -26 32 -9 42 14 9 101 -27 97 -40
-2 -5 -14 -12 -28 -16 l-24 -7 26 -1 c15 -1 29 -8 33 -16 3 -8 12 -15 21 -15
9 0 18 7 21 15 4 8 13 15 22 15 25 0 7 11 -24 14 -35 4 -34 21 1 21 30 1 47
15 17 15 -19 0 -22 6 -22 39 0 29 4 40 17 43 15 3 16 17 14 123 -1 66 -4 122
-7 124 -2 2 -4 -48 -4 -112 0 -110 -1 -117 -20 -117 -16 0 -20 7 -22 38 l-1
37 -4 -38 c-3 -24 -9 -37 -16 -34 -12 4 -30 232 -20 250 10 17 23 -7 25 -46
l1 -42 6 45 c5 39 9 45 29 44 16 0 19 3 12 10 -13 13 -13 26 1 26 6 0 39 13
73 29 35 17 88 32 126 36 36 4 72 11 80 16 25 14 35 4 38 -41z m-1093 -79
c125 -33 312 -47 441 -34 60 7 109 11 110 10 1 -1 4 -37 8 -79 8 -89 24 -76
-132 -104 -67 -12 -101 -23 -120 -39 -25 -22 -27 -28 -25 -100 l1 -77 -31 6
c-73 16 -197 23 -270 17 -56 -5 -81 -3 -88 6 -6 6 -23 13 -37 15 -22 2 -28 9
-30 35 -2 17 -10 37 -18 43 -11 10 -14 47 -14 190 0 97 2 179 5 182 3 2 31 -8
62 -23 32 -15 94 -37 138 -48z m-482 37 c39 -53 40 -66 8 -99 -16 -16 -34 -29
-40 -29 -7 0 -11 30 -11 80 0 44 4 80 9 80 6 0 21 -15 34 -32z m2115 -130 c-3
-110 -6 -133 -18 -133 -12 0 -17 22 -22 105 -11 143 -19 152 -12 11 5 -82 3
-112 -5 -107 -7 5 -11 49 -11 126 0 126 0 125 53 129 16 1 17 -10 15 -131z
m-4558 77 c0 -16 -6 -25 -15 -25 -9 0 -15 9 -15 25 0 16 6 25 15 25 9 0 15 -9
15 -25z m3613 -67 c4 -46 7 -105 7 -131 0 -33 5 -49 15 -53 10 -4 15 -20 15
-45 0 -21 -1 -39 -3 -39 -1 0 -20 9 -41 20 -22 10 -43 17 -47 14 -5 -3 -9 1
-9 10 0 8 -3 21 -6 30 -4 10 -1 16 9 16 9 0 18 -10 21 -22 2 -13 2 46 -1 130
-5 146 -5 152 14 152 18 0 21 -9 26 -82z m-53 25 c0 -27 3 -78 7 -115 l6 -68
-31 0 c-33 0 -31 -7 -48 157 -5 54 -4 62 13 66 48 13 53 9 53 -40z m2288 5
c22 -22 14 -48 -13 -48 -25 0 -31 13 -19 44 7 19 16 20 32 4z m-6350 -155 c1
-86 -1 -153 -6 -153 -5 0 -24 -3 -41 -6 l-31 -6 0 154 c0 85 3 158 7 162 4 4
21 6 38 4 l30 -3 3 -152z m502 121 c0 -23 -4 -34 -12 -32 -33 11 -36 68 -3 68
11 0 15 -10 15 -36z m2484 13 c-6 -17 -63 -57 -80 -57 -5 0 11 18 36 39 48 41
54 44 44 18z m3592 -74 c-13 -150 -14 -153 -96 -153 -47 0 -56 8 -64 58 -5 32
-3 44 8 48 12 5 11 9 -5 25 -19 19 -27 88 -12 102 3 4 44 7 91 7 l85 0 -7 -87z
m-935 57 c5 0 9 -16 9 -35 0 -29 -5 -37 -26 -45 -35 -14 -44 -6 -44 40 0 38
12 52 38 44 8 -2 18 -4 23 -4z m739 -34 c0 -15 -58 -28 -66 -14 -10 15 7 28
37 28 18 0 29 -5 29 -14z m-30 -51 c0 -8 -7 -15 -15 -15 -8 0 -15 7 -15 15 0
8 7 15 15 15 8 0 15 -7 15 -15z m-3560 -59 c0 -35 -5 -58 -15 -66 -8 -7 -15
-25 -15 -41 0 -20 -7 -31 -27 -41 -30 -15 -37 -26 -52 -85 -10 -36 -16 -43
-36 -43 -25 0 -25 1 -19 73 3 39 9 110 12 157 l7 85 45 6 c104 14 100 16 100
-45z m2828 8 c0 -25 -3 -33 -9 -23 -11 18 -12 59 0 59 5 0 9 -16 9 -36z
m-1628 7 c0 -10 7 -24 15 -31 20 -16 19 -30 -4 -57 -12 -15 -32 -24 -53 -25
l-33 -1 33 -4 c17 -2 32 -8 32 -14 0 -24 -165 3 -233 38 -42 21 -26 27 27 9
25 -9 65 -18 89 -21 23 -2 33 -2 22 1 -185 49 -191 80 -23 108 117 20 128 19
128 -3z m-3564 -33 c-2 -18 -4 -46 -5 -61 -1 -27 -3 -28 -48 -25 l-48 3 -3 58
-3 57 55 0 56 0 -4 -32z m949 -51 c32 -24 8 -37 -71 -37 -83 0 -96 15 -33 37
46 16 81 16 104 0z m4041 -18 c4 -6 19 -9 36 -5 27 5 29 4 17 -10 -7 -9 -21
-13 -33 -10 -12 2 -91 -1 -176 -9 -85 -7 -157 -11 -159 -9 -3 3 3 12 12 22 13
12 41 19 105 23 150 10 191 9 198 -2z m1126 -341 c2 -194 0 -357 -4 -362 -9
-12 -94 -20 -101 -9 -4 6 -4 171 0 367 l6 356 48 0 48 0 3 -352z m-3624 310
l-3 -33 60 3 c33 2 71 -1 85 -7 21 -8 16 -10 -34 -10 -33 -1 -56 -4 -52 -8 3
-4 65 -6 136 -4 l130 3 2 -49 1 -48 6 50 c6 48 7 50 36 50 28 0 30 -3 39 -53
10 -58 6 -67 -36 -77 -20 -5 -27 -3 -30 12 -3 15 -5 15 -10 -4 -5 -20 -2 -23
20 -23 15 0 39 7 55 14 22 12 27 12 27 2 0 -8 -10 -16 -22 -20 -28 -7 -431 11
-543 24 -44 6 -83 10 -88 10 -9 0 -1 77 10 107 5 13 24 14 117 9 70 -3 104 -2
91 3 -11 5 -46 10 -77 10 -62 1 -73 9 -64 47 6 23 10 24 77 24 l71 0 -4 -32z
m320 -5 l3 -33 -75 0 -76 0 0 28 c0 16 3 32 7 36 4 4 37 6 73 4 l65 -3 3 -32z
m587 6 c38 -10 83 -19 100 -19 47 0 54 -10 48 -62 -5 -47 -6 -47 -29 -31 -13
8 -24 12 -24 9 0 -4 -11 1 -24 9 -20 13 -29 14 -46 5 -16 -8 -35 -8 -75 1
l-55 12 0 55 c0 47 2 53 18 47 9 -3 48 -15 87 -26z m1143 -1 c22 -22 12 -28
-48 -28 -53 0 -60 2 -60 20 0 17 7 20 48 20 26 0 53 -5 60 -12z m-220 -15 c-3
-15 -16 -19 -71 -21 -37 -2 -67 1 -67 6 0 21 29 32 83 32 50 0 58 -2 55 -17z
m-2783 -2 c3 -5 -7 -12 -22 -14 -18 -3 -12 -5 18 -6 46 -1 77 -20 64 -40 -3
-6 30 -46 73 -89 66 -66 142 -159 142 -175 0 -6 -100 -51 -103 -46 -2 2 -26
38 -53 79 -27 41 -81 108 -121 149 -40 41 -73 75 -73 76 0 2 28 2 63 0 55 -4
53 -3 -18 6 -83 11 -123 28 -69 30 l29 1 -30 8 -30 7 35 10 c45 14 87 16 95 4z
m-1819 -10 c5 -4 43 -13 84 -20 87 -14 180 -41 180 -53 0 -4 -16 -8 -35 -8
-24 0 -35 -5 -35 -15 0 -8 -5 -15 -11 -15 -6 0 -8 9 -4 20 5 15 3 18 -8 14 -8
-3 -17 -16 -20 -30 -3 -19 0 -24 15 -24 28 0 58 -18 58 -35 0 -25 -21 -27 -46
-4 -13 12 -24 18 -24 12 0 -6 19 -26 43 -44 62 -49 142 -135 191 -209 51 -77
112 -194 120 -233 4 -15 14 -30 24 -33 9 -3 25 -10 35 -15 21 -11 37 -4 37 17
0 8 8 15 18 15 16 1 16 2 0 6 -10 2 -18 8 -18 13 0 18 -31 18 -48 -1 -17 -17
-21 -18 -31 -5 -31 37 22 50 142 37 95 -11 132 -30 106 -56 -15 -14 -132 -55
-159 -55 -9 0 -21 -5 -27 -11 -15 -15 -33 -3 -33 22 0 10 -4 19 -10 19 -15 0
-12 -16 10 -68 43 -102 81 -295 93 -472 2 -29 4 -21 5 25 1 39 -5 111 -12 160
-8 50 -17 108 -20 130 -5 31 -4 36 4 20 9 -18 10 -17 5 5 -2 14 -5 34 -6 45
-1 16 -2 15 -8 -5 -7 -22 -9 -19 -24 32 -21 69 -21 79 -1 53 15 -20 15 -20 12
0 -2 16 9 24 60 42 35 13 68 21 73 18 39 -25 142 -600 112 -625 -5 -3 -42 -4
-83 -1 l-75 6 -3 45 c-7 140 -39 367 -49 357 -2 -2 3 -46 11 -98 8 -52 18
-138 22 -191 6 -84 5 -98 -8 -98 -13 0 -15 -20 -15 -122 0 -68 -6 -159 -13
-202 -16 -105 -74 -314 -99 -362 -12 -21 -21 -46 -21 -55 0 -9 -7 -22 -15 -29
-8 -7 -15 -20 -15 -30 0 -51 -191 -263 -261 -289 -19 -7 -42 -17 -51 -22 -44
-23 -169 6 -265 61 -151 87 -309 303 -407 555 -134 348 -160 812 -65 1155 53
189 128 328 234 436 77 78 192 144 250 144 49 0 159 -37 180 -60 10 -11 25
-20 33 -20 13 0 12 3 -3 14 -16 11 -17 17 -7 29 11 13 5 19 -40 40 -29 13 -63
28 -76 32 -12 3 -20 11 -16 16 3 5 2 9 -3 8 -32 -6 -143 3 -143 11 0 12 142
14 156 1z m-201 -11 c-11 -5 -29 -9 -40 -9 -17 -1 -17 1 -5 9 8 5 26 9 40 9
23 0 23 -1 5 -9z m4122 -57 c-10 -9 -37 11 -37 26 0 30 12 32 27 4 7 -14 12
-28 10 -30z m-3889 8 c42 -15 78 -33 80 -41 5 -15 1 -14 -93 22 -47 17 -81 22
-157 22 -70 0 -98 4 -98 13 0 32 163 22 268 -16z m3508 8 c75 -19 104 -33 93
-43 -3 -3 -36 4 -74 16 -39 11 -101 26 -140 33 l-70 13 56 1 c30 1 91 -8 135
-20z m-3791 -9 c0 -15 -71 -47 -81 -37 -4 3 -4 14 0 23 5 13 9 14 20 4 12 -9
17 -7 26 10 12 23 35 22 35 0z m1978 -11 c78 -52 247 -254 247 -296 0 -31 -21
-17 -53 35 -51 82 -157 201 -216 242 -80 56 -60 73 22 19z m1601 21 c104 -10
276 -48 276 -61 0 -17 -32 -16 -106 2 -43 11 -130 22 -192 26 -109 6 -140 15
-111 34 17 11 12 11 133 -1z m1916 -10 c0 -5 -12 -13 -27 -16 -24 -6 -166 -45
-363 -100 -30 -8 -71 -19 -91 -24 -33 -9 -35 -12 -31 -45 3 -23 0 -35 -8 -35
-9 0 -10 25 -5 97 3 54 7 98 8 99 1 1 92 7 202 14 110 7 202 14 204 16 10 9
111 3 111 -6z m-5400 -7 c0 -5 -24 -20 -53 -36 -153 -80 -274 -248 -351 -487
-57 -177 -70 -276 -71 -525 0 -238 9 -305 65 -525 91 -355 295 -653 520 -759
36 -17 73 -31 82 -31 34 0 44 -10 40 -40 -4 -28 -7 -30 -52 -30 -58 0 -168 32
-232 69 -43 23 -60 41 -40 41 4 0 39 -16 78 -36 61 -31 82 -36 155 -39 l84 -4
-77 8 c-96 11 -209 61 -276 125 -26 24 -61 56 -79 72 -72 65 -179 237 -228
369 -13 33 -30 74 -39 90 -9 17 -16 41 -16 56 0 14 -4 29 -9 35 -24 26 -83
350 -85 472 -2 69 -6 96 -16 102 -12 7 -12 12 -2 22 6 6 12 35 12 63 0 111 47
392 76 449 8 16 14 42 14 58 0 15 9 37 20 48 11 11 20 28 20 37 0 23 54 117
108 187 83 108 190 179 312 206 19 4 36 8 38 9 1 0 2 -2 2 -6z m5494 -14 c-23
-10 -50 -20 -60 -22 -11 -1 -23 -5 -29 -8 -24 -15 -206 -70 -217 -67 -14 5
-47 -32 -102 -115 -34 -51 -41 -56 -54 -44 -12 13 -11 21 6 61 13 28 27 46 37
46 13 0 16 8 13 32 -3 30 0 34 32 45 20 6 39 7 44 2 5 -5 14 -3 20 5 11 14
168 56 209 56 12 0 27 4 33 9 10 10 45 18 84 19 21 0 18 -3 -16 -19z m-1600 2
c7 -11 -52 -36 -62 -27 -8 9 26 36 44 36 7 0 15 -4 18 -9z m-3424 -22 c-14 -4
-40 -7 -57 -8 -18 -1 -33 -4 -33 -9 0 -4 36 -3 80 2 59 7 83 7 92 -2 6 -6 9
-14 5 -18 -4 -4 -136 -32 -164 -34 -2 0 -3 7 -3 15 0 7 -7 18 -17 23 -44 25
25 55 97 43 l25 -5 -25 -7z m5563 -30 c-12 -44 -39 -47 -35 -4 5 36 21 60 34
47 6 -6 6 -23 1 -43z m-6223 29 c0 -7 -23 -29 -51 -47 -63 -43 -146 -140 -195
-226 -40 -73 -59 -83 -23 -13 49 96 126 191 212 260 54 42 57 44 57 26z m3800
-13 c110 -23 106 -21 102 -58 -5 -42 16 -61 57 -52 40 9 81 42 75 60 -30 78
228 -71 389 -224 76 -73 177 -198 177 -220 0 -25 -21 -8 -78 62 -112 137 -249
254 -382 326 -102 56 -114 52 -15 -5 44 -25 105 -64 135 -87 76 -56 203 -180
258 -251 43 -56 44 -60 27 -72 -10 -8 -24 -14 -30 -14 -7 0 -20 -9 -30 -20
-15 -17 -16 -24 -7 -45 15 -32 52 -33 99 -4 19 12 35 20 37 18 12 -17 70 -150
94 -219 41 -116 63 -232 65 -341 l2 -92 -29 -8 c-40 -11 -66 -38 -66 -69 0
-37 22 -53 60 -45 l31 7 -5 -54 -5 -53 10 50 c9 46 32 85 43 74 16 -16 -37
-258 -81 -369 -29 -76 -103 -210 -115 -210 -15 0 -8 31 12 60 44 62 131 315
129 375 0 11 -12 -23 -25 -75 -33 -126 -71 -210 -95 -210 -11 0 -19 -4 -19
-10 0 -5 -8 -7 -17 -4 -12 4 -10 -1 7 -14 20 -17 22 -23 12 -35 -14 -16 -52
-11 -52 7 0 6 4 28 9 48 5 23 5 40 -2 47 -11 11 9 71 24 71 8 0 24 -40 21 -53
-1 -4 4 -15 13 -23 13 -14 15 -14 15 0 0 17 -46 96 -56 96 -3 0 -12 -16 -20
-35 -8 -19 -19 -35 -25 -35 -6 0 -27 14 -46 30 -18 17 -40 30 -47 30 -13 0
-45 -32 -65 -65 -10 -16 -11 -8 -8 47 4 59 9 72 42 112 21 25 44 46 52 46 24
0 72 29 83 50 29 54 -28 88 -100 61 -39 -15 -45 -21 -45 -45 0 -16 -5 -31 -11
-33 -7 -2 -14 24 -18 74 -17 194 -60 368 -131 527 -24 54 -42 103 -39 108 3 4
16 8 28 8 29 0 116 65 116 87 0 15 -2 15 -18 0 -10 -10 -30 -17 -43 -17 -14 0
-30 -5 -37 -12 -8 -8 -12 -9 -12 -1 0 6 -8 13 -17 15 -15 3 -15 4 1 21 15 14
15 17 2 17 -8 0 -18 -5 -21 -11 -4 -6 -17 -14 -29 -19 l-21 -9 23 0 c26 -1 29
-16 5 -31 -15 -8 -12 -9 11 -4 27 6 28 6 16 -17 -18 -35 -41 -59 -57 -59 -21
0 -27 28 -9 45 24 24 20 32 -22 42 -39 10 -71 -5 -57 -27 10 -16 25 -12 19 5
-7 16 -1 18 34 9 12 -4 22 -10 22 -15 0 -5 -6 -6 -14 -3 -7 3 -16 -3 -20 -13
-3 -10 -9 -24 -12 -32 -5 -10 -2 -12 8 -9 8 4 21 2 29 -2 11 -7 10 -13 -5 -29
-28 -30 -43 -26 -56 17 -7 20 -23 47 -36 60 -36 34 -30 49 24 60 39 8 42 10
16 11 -26 1 -44 16 -115 97 -102 118 -238 232 -352 299 -48 28 -86 53 -87 57
0 4 12 11 27 14 30 8 77 -14 193 -92 122 -81 329 -281 362 -351 6 -13 18 -23
25 -23 21 0 -67 111 -162 206 -84 84 -192 169 -291 228 l-57 34 40 11 c50 14
65 31 61 68 -4 35 -46 57 -92 49 -23 -5 -40 -17 -59 -46 -14 -22 -21 -42 -16
-45 16 -11 10 -20 -23 -33 -38 -14 -47 -8 -29 20 11 18 11 20 -1 15 -22 -8
-40 7 -32 26 4 12 18 17 42 17 19 0 33 3 29 6 -8 9 -167 12 -167 4 0 -18 -79
-17 -173 1 -56 11 -145 23 -197 26 l-95 7 55 8 c69 10 235 1 318 -18 78 -17
101 -17 47 2 -38 13 -35 13 70 12 149 -1 188 16 150 66 -8 11 -15 24 -15 29 0
14 165 2 260 -18z m334 2 c-1 -10 5 -17 15 -17 18 0 145 -83 247 -162 69 -53
168 -157 214 -223 28 -41 30 -49 18 -61 -12 -13 -22 -4 -76 65 -34 44 -102
116 -153 161 -94 85 -268 204 -313 216 -32 8 -33 18 -3 32 30 15 52 10 51 -11z
m-117 -35 c4 -19 1 -30 -17 -44 -24 -19 -80 -25 -80 -8 0 6 3 10 8 10 4 0 21
12 37 26 21 17 23 22 8 14 -12 -5 -25 -15 -28 -20 -3 -6 -13 -10 -21 -10 -22
0 0 36 33 54 34 17 51 11 60 -22z m-1169 -4 c-5 -15 -68 -24 -68 -9 0 12 18
19 48 20 15 1 22 -4 20 -11z m101 -19 c-43 -12 -89 -10 -89 4 0 22 8 24 61 13
44 -9 48 -12 28 -17z m-2112 -51 c38 -40 88 -100 110 -133 54 -81 133 -219
133 -233 0 -32 -23 -3 -66 79 -57 110 -110 184 -205 284 -39 41 -65 75 -57 75
8 0 46 -33 85 -72z m-68 21 c28 -22 79 -79 114 -125 61 -81 164 -261 155 -270
-3 -2 -40 -1 -83 3 -77 6 -77 6 -92 41 -35 84 -143 240 -231 334 l-35 37 24 5
c13 3 38 7 54 9 17 2 33 5 36 6 4 0 29 -17 58 -40z m2081 11 c0 -5 -3 -10 -7
-10 -5 0 -18 -3 -30 -6 -17 -5 -23 -2 -23 10 0 11 9 16 30 16 17 0 30 -4 30
-10z m2408 -7 c-3 -19 -52 -46 -100 -57 -26 -6 -28 -4 -28 23 0 26 4 30 48 39
73 15 84 14 80 -5z m-4493 -207 c64 -99 109 -186 95 -186 -5 0 -24 28 -41 63
-43 84 -100 167 -176 254 -35 40 -63 76 -63 80 1 19 136 -136 185 -211z m1945
195 c0 -12 -25 -21 -57 -21 -25 0 -26 -1 -8 -20 25 -27 13 -46 -32 -52 -57 -8
-65 -11 -86 -32 -16 -15 -21 -16 -28 -5 -13 21 -11 45 6 59 12 10 16 9 21 -5
5 -12 9 -13 14 -5 4 7 19 13 34 13 25 2 38 17 40 47 1 9 15 17 36 21 54 10 60
10 60 0z m979 0 c23 -14 25 -63 5 -78 -21 -16 -64 -17 -64 -3 0 6 11 22 25 36
l24 24 -23 -6 c-27 -6 -46 14 -25 27 18 11 40 11 58 0z m1353 -23 c1 -38 3
-48 11 -68 3 -8 8 -22 10 -30 3 -8 6 -3 6 12 1 22 7 29 29 34 15 3 49 12 76
20 26 8 50 14 52 12 1 -2 -10 -25 -27 -51 -16 -26 -29 -51 -29 -57 0 -15 -87
-12 -93 3 -3 6 -6 -16 -6 -50 -1 -55 -4 -63 -20 -63 -14 0 -20 10 -25 38 -10
61 -7 232 4 232 6 0 11 -15 12 -32z m-1862 -4 c109 -19 120 -22 120 -40 0 -18
-6 -18 -77 1 -31 8 -66 15 -78 14 -11 0 17 -11 61 -22 45 -12 88 -27 95 -33 8
-6 29 -14 48 -18 68 -13 234 -96 337 -168 95 -68 243 -210 285 -274 14 -21 34
-52 45 -68 70 -105 149 -269 179 -373 47 -161 58 -246 57 -441 -2 -251 -28
-378 -117 -568 -197 -422 -559 -659 -1005 -659 -341 0 -630 131 -895 406 -579
599 -508 1601 144 2039 66 44 207 113 251 123 14 3 57 15 95 27 39 12 122 28
185 35 l115 14 -108 -5 c-98 -4 -184 -15 -229 -30 -13 -4 -18 0 -18 14 0 16
12 21 73 31 39 7 79 14 87 16 31 8 267 -7 350 -21z m-585 6 c7 -11 -44 -34
-54 -24 -6 6 27 34 40 34 4 0 11 -5 14 -10z m2520 -15 c0 -10 -6 -20 -12 -22
-8 -3 -13 5 -13 22 0 17 5 25 13 23 6 -3 12 -13 12 -23z m-1499 -27 c-2 -33
-19 -48 -31 -28 -8 12 13 60 26 60 3 0 6 -14 5 -32z m-226 -25 c44 -7 65 -6
84 2 17 7 18 5 12 -21 -11 -45 -21 -49 -73 -27 -26 11 -60 23 -75 27 -34 8
-36 29 -5 51 21 15 22 14 27 -6 4 -14 15 -24 30 -26z m25 37 c-3 -5 3 -10 14
-10 22 0 28 -14 11 -25 -6 -3 -21 3 -35 13 -17 14 -21 22 -13 25 21 9 30 8 23
-3z m1518 -27 l78 -17 -3 -36 c-3 -35 -3 -35 -53 -37 -49 -3 -51 -2 -92 51
-47 59 -52 70 -25 62 9 -3 52 -13 95 -23z m1195 -483 l-3 -465 -50 0 -50 0 -3
467 -2 466 55 -1 55 -1 -2 -466z m-3658 438 c0 -7 -26 -26 -58 -43 -148 -77
-285 -186 -372 -294 -33 -41 -51 -56 -60 -51 -23 14 129 176 255 271 47 35
211 128 228 129 4 0 7 -6 7 -12z m1136 -70 c57 -33 143 -96 193 -139 83 -73
231 -232 231 -250 0 -25 -21 -13 -51 29 -87 121 -293 293 -435 363 -42 21 -61
36 -57 45 3 8 8 14 10 14 3 0 52 -28 109 -62z m1613 48 c9 -11 9 -19 -1 -35
-25 -40 -60 -17 -37 25 14 28 22 30 38 10z m-319 -41 c18 -19 32 -36 29 -38
-2 -1 -12 -8 -21 -16 -15 -11 -21 -7 -47 30 -48 65 -19 84 39 24z m-2470 5
c-24 -19 -40 -25 -40 -15 0 5 51 34 60 34 3 0 -6 -8 -20 -19z m2419 -39 c117
-123 151 -163 146 -170 -2 -5 -19 -11 -36 -15 -45 -9 -59 -23 -59 -63 0 -30
-3 -34 -17 -28 -10 5 -38 11 -63 14 l-45 6 -3 127 c-3 125 -3 127 20 131 26 5
19 5 -151 16 -160 9 -137 27 31 23 l141 -3 36 -38z m296 28 c-8 -12 -65 -12
-65 0 0 10 49 20 63 13 4 -2 5 -8 2 -13z m-135 -3 c0 -8 -14 -15 -36 -18 -27
-3 -38 0 -45 14 -9 16 -5 18 36 18 32 0 45 -4 45 -14z m170 -20 c0 -7 -5 -27
-11 -45 -11 -30 -12 -31 -30 -15 -18 16 -18 18 -2 45 18 30 43 39 43 15z
m-534 -10 c3 -7 4 -34 2 -60 l-3 -46 -42 55 c-24 30 -43 57 -43 60 0 12 81 4
86 -9z m477 7 c8 -7 -21 -43 -35 -43 -13 0 -9 38 5 43 18 8 23 8 30 0z m-365
-136 c2 -101 0 -128 -10 -125 -8 3 -14 24 -15 54 -1 43 -6 53 -37 80 -32 27
-36 37 -36 78 l0 47 48 -3 47 -3 3 -128z m255 112 c7 -28 -22 -38 -39 -14 -20
27 -17 35 10 35 15 0 26 -7 29 -21z m-46 -43 c-9 -24 -32 -19 -47 10 -12 22
-12 27 0 34 20 12 55 -22 47 -44z m-5259 21 c2 -10 -3 -17 -12 -17 -10 0 -16
9 -16 21 0 24 23 21 28 -4z m5362 -39 c0 -12 3 -18 7 -14 4 4 8 15 8 24 0 22
43 29 51 8 3 -8 1 -24 -5 -35 -10 -18 -20 -20 -91 -19 -68 0 -80 3 -80 17 0
20 19 41 36 41 6 0 15 -10 19 -22 7 -22 7 -22 12 -3 10 39 43 41 43 3z m-5392
-41 c2 -10 -3 -17 -12 -17 -10 0 -16 9 -16 21 0 24 23 21 28 -4z m5016 -26
c17 -19 17 -20 -13 -35 -38 -20 -39 -20 -44 2 -3 16 19 52 33 52 4 0 15 -9 24
-19z m376 -6 c0 -8 -6 -15 -14 -15 -8 0 -16 7 -20 15 -4 10 1 15 14 15 11 0
20 -7 20 -15z m-5425 -61 l-15 -39 7 40 c6 44 15 65 20 49 2 -6 -3 -28 -12
-50z m1751 23 c1 -16 -6 -31 -15 -36 -27 -15 -151 -25 -151 -13 0 17 21 26 75
33 l50 6 -42 2 c-31 1 -45 6 -53 21 -11 20 -9 21 62 18 72 -3 73 -3 74 -31z
m-155 -10 c-13 -13 -26 -3 -16 12 3 6 11 8 17 5 6 -4 6 -10 -1 -17z m3475 -12
c-5 -21 -12 -26 -33 -23 -38 4 -38 22 -1 40 39 19 42 17 34 -17z m419 19 c11
-12 15 -30 13 -63 l-3 -46 -92 -3 c-81 -2 -92 -1 -96 15 -4 14 -5 14 -6 -4 0
-12 4 -25 9 -28 6 -3 10 -22 10 -41 0 -25 -4 -34 -16 -34 -14 0 -16 -8 -12
-45 3 -25 2 -45 -3 -45 -5 0 -9 4 -9 8 0 5 -13 9 -30 10 -41 1 -50 9 -50 43 0
27 2 29 41 29 l41 0 -8 48 c-14 80 -11 147 6 147 11 0 14 -9 12 -32 -2 -18 1
-33 6 -33 5 0 9 14 10 31 1 39 8 47 52 52 78 9 109 7 125 -9z m-4195 -34 c0
-11 -4 -20 -10 -20 -5 0 -10 2 -10 4 0 2 -3 11 -6 20 -4 11 -1 16 10 16 9 0
16 -8 16 -20z m3651 10 c26 -15 10 -45 -36 -67 -68 -33 -93 26 -25 59 41 21
37 21 61 8z m110 -126 c77 -160 134 -421 121 -552 -8 -77 -27 -42 -35 64 -14
193 -57 355 -133 506 -38 75 -41 88 -19 88 9 0 35 -41 66 -106z m2039 96 c0
-5 -6 -9 -12 -7 -8 1 -14 -11 -16 -30 -3 -32 -5 -33 -50 -33 l-47 0 3 -223 c2
-192 0 -226 -13 -237 -11 -9 -15 -32 -15 -81 0 -38 -4 -69 -10 -69 -57 0 -245
36 -287 55 -84 38 -84 39 73 272 85 125 159 223 191 252 37 35 53 56 52 72 -2
22 -2 23 -6 3 -2 -12 -31 -44 -63 -70 -32 -27 -59 -54 -59 -60 -1 -6 -38 -65
-84 -130 -45 -65 -105 -153 -132 -194 -46 -68 -53 -75 -80 -72 -17 2 -32 5
-34 8 -2 2 20 39 49 81 29 43 93 138 142 211 50 72 96 132 104 132 8 0 14 6
14 14 0 8 26 37 58 65 l57 51 83 0 c48 0 82 -4 82 -10z m-1983 -70 c63 -129
101 -278 109 -430 5 -77 3 -99 -10 -115 -15 -19 -15 -19 -16 15 0 19 -9 89
-20 156 -20 126 -58 247 -116 372 l-33 73 27 -3 c22 -2 33 -14 59 -68z m2033
44 c0 -20 -7 -17 -20 6 -9 16 -8 18 5 14 8 -4 15 -12 15 -20z m-7166 -26 c-4
-24 -15 -104 -24 -178 -13 -98 -18 -120 -19 -80 -1 59 12 163 31 248 13 62 23
70 12 10z m1534 -70 c33 -121 67 -321 78 -455 6 -70 5 -83 -8 -83 -12 0 -17
21 -22 100 -11 165 -41 319 -102 528 -5 16 -2 22 9 22 10 0 24 -33 45 -112z
m3679 5 c1 -52 -3 -93 -8 -93 -5 0 -9 7 -9 14 0 8 -15 49 -34 90 -37 80 -35
86 19 83 l30 -2 2 -92z m1915 78 c-1 -6 4 -19 13 -27 10 -10 15 -35 15 -73 0
-46 8 -73 38 -137 36 -73 91 -205 97 -229 1 -5 9 -27 19 -47 9 -21 16 -42 16
-47 0 -5 30 -38 66 -72 50 -49 64 -69 61 -86 -2 -12 0 -20 4 -17 13 8 10 47
-4 64 -7 9 -29 29 -50 44 -20 16 -40 39 -43 52 -3 13 -11 21 -17 17 -6 -3 -7
-1 -3 5 11 19 -14 100 -34 105 -9 2 -20 16 -24 31 -3 14 -28 74 -55 133 -27
60 -53 126 -57 148 -10 61 7 33 53 -85 23 -58 52 -132 65 -165 15 -39 24 -53
26 -40 1 11 -5 38 -14 60 -10 22 -17 43 -16 48 1 4 -3 7 -9 7 -5 0 -8 4 -5 8
3 5 -15 53 -39 107 -25 54 -43 100 -41 102 11 11 69 -81 116 -185 119 -259
141 -306 136 -280 -3 15 -42 106 -86 202 -44 96 -80 180 -80 186 0 6 -25 37
-55 69 -69 72 -78 118 -10 51 51 -50 93 -128 191 -350 59 -135 68 -165 74
-236 4 -44 9 -85 13 -91 4 -6 0 -27 -8 -47 -32 -77 -36 -67 204 -614 32 -75
52 -105 97 -148 31 -30 54 -47 50 -38 -3 8 -7 32 -7 52 -1 34 -2 35 -8 9 l-6
-28 -36 30 c-24 20 -47 56 -72 113 -240 547 -241 550 -217 588 8 12 15 9 44
-20 27 -27 53 -83 120 -250 103 -261 165 -409 166 -394 0 7 -14 45 -30 85 -79
191 -200 500 -200 509 0 6 -20 33 -46 60 -57 61 -43 73 19 17 44 -39 52 -55
123 -242 42 -110 95 -249 119 -310 34 -88 43 -126 47 -192 5 -81 4 -83 -19
-83 -16 0 -27 9 -36 33 -8 17 -34 49 -59 69 -39 32 -53 55 -91 145 -26 60 -74
169 -107 243 -84 184 -100 232 -100 305 0 94 -8 119 -52 161 -22 22 -51 50
-63 62 -14 14 -29 46 -35 77 -6 30 -20 65 -30 78 -11 13 -40 73 -65 133 -25
60 -50 118 -55 129 -5 11 -11 47 -13 80 -2 33 -4 1 -5 -72 -2 -114 0 -132 13
-127 8 4 15 1 15 -7 0 -7 2 -10 5 -7 3 3 -2 21 -10 41 -17 42 -18 47 -6 47 5
0 28 -46 52 -102 23 -57 53 -119 66 -138 13 -19 23 -40 23 -47 0 -15 -109
-133 -123 -133 -15 0 -2 24 45 84 24 30 49 53 56 51 18 -6 15 -1 -22 44 -19
23 -42 64 -51 92 -9 27 -19 49 -21 47 -7 -8 27 -104 46 -130 27 -36 25 -47
-11 -92 -37 -44 -49 -36 -49 34 0 25 -5 52 -10 60 -7 10 -10 11 -10 2 0 -19
-50 -34 -88 -27 l-32 6 2 222 3 222 53 -3 c58 -4 57 -5 34 57 -3 9 1 12 14 9
10 -2 18 -10 16 -17z m-1862 -6 c6 -8 13 -29 13 -47 2 -29 -1 -33 -25 -36 -27
-3 -28 -2 -28 47 0 53 15 67 40 36z m-2914 -9 c7 -18 -36 -86 -54 -86 -8 0
-12 9 -10 23 2 12 9 21 15 20 7 -2 10 4 7 12 -6 16 12 45 28 45 5 0 11 -6 14
-14z m3044 -66 c0 -22 -5 -40 -13 -43 -9 -3 -12 -16 -9 -36 4 -26 1 -31 -17
-31 -17 0 -21 6 -21 29 0 17 5 33 10 36 6 3 10 23 10 44 0 42 6 52 26 44 9 -3
14 -20 14 -43z m-710 -20 c0 -5 -13 -16 -30 -25 -34 -18 -40 -18 -40 -5 0 8
38 29 68 39 1 1 2 -3 2 -9z m-2393 -15 c3 -9 -1 -23 -9 -33 -61 -73 -136 -316
-163 -524 -7 -54 -25 -65 -25 -15 0 137 119 527 161 527 8 0 7 5 -1 15 -7 8
-10 22 -6 30 7 20 35 19 43 0z m2312 -132 c70 -141 126 -357 137 -530 5 -64
11 -103 18 -103 6 0 22 -3 35 -7 20 -5 23 -3 18 11 -10 25 2 40 19 25 11 -9 6
-21 -31 -68 -55 -69 -120 -124 -141 -119 -13 2 -17 18 -18 81 0 44 1 80 5 82
3 2 -3 64 -12 137 -20 148 -53 273 -105 392 -36 84 -39 96 -25 96 10 0 63
-112 90 -192 16 -47 55 -212 75 -318 3 -14 3 5 0 42 -6 94 -45 239 -100 374
l-46 114 24 20 c12 11 24 19 25 20 2 0 16 -26 32 -57z m741 32 l65 -4 3 -48
c3 -59 -6 -73 -49 -83 l-34 -8 33 -1 33 -1 -3 -72 -3 -73 -46 -3 c-41 -3 -47
0 -52 20 -4 12 -9 19 -13 16 -3 -4 -4 -19 0 -33 6 -23 11 -25 60 -25 l53 0 -5
-237 c-3 -131 -8 -240 -13 -244 -5 -3 -25 -3 -45 -1 l-35 4 2 229 c2 197 0
231 -13 242 -9 6 -19 29 -23 51 -5 32 -4 38 8 33 12 -5 16 6 19 54 1 33 0 70
-5 81 -4 11 -9 36 -11 55 -5 38 -16 58 -16 29 0 -25 -24 -14 -28 14 -3 20 -1
22 24 16 16 -4 58 -9 94 -11z m-82 -106 c4 -40 -13 -30 -24 15 -5 22 -4 28 7
24 8 -2 15 -20 17 -39z m-5298 -39 c0 -11 -7 -20 -15 -20 -8 0 -15 9 -15 20 0
11 7 20 15 20 8 0 15 -9 15 -20z m5308 -41 c4 -40 -12 -30 -22 14 -5 21 -3 28
6 25 7 -3 14 -20 16 -39z m321 -169 c94 -89 186 -179 205 -202 31 -35 33 -42
20 -55 -8 -8 -18 -13 -23 -11 -4 2 -94 86 -200 188 -158 153 -191 189 -191
212 0 15 4 28 10 28 5 0 86 -72 179 -160z m-5623 101 c-11 -18 -36 -13 -36 7
0 10 3 22 7 26 10 10 37 -20 29 -33z m5744 -325 l54 -56 -80 0 c-45 0 -129 3
-187 7 l-107 6 0 71 c0 39 3 115 7 168 l6 97 126 -118 c69 -66 151 -145 181
-175z m1418 238 c2 -26 0 -59 -3 -72 -6 -24 -8 -25 -71 -19 -36 4 -69 9 -74
12 -11 7 -13 77 -4 110 5 19 12 20 77 18 l72 -2 3 -47z m-637 26 c75 0 80 -1
91 -25 16 -35 -1 -50 -71 -65 -78 -16 -165 -6 -191 23 -11 11 -20 26 -20 32 0
20 54 46 84 40 16 -3 64 -5 107 -5z m-1213 -62 c2 -18 -2 -27 -15 -31 -10 -2
-26 -8 -35 -12 -26 -10 -23 23 4 52 26 28 42 25 46 -9z m1019 -6 c19 -19 16
-29 -13 -49 -15 -9 -38 -35 -53 -58 -38 -60 -349 -358 -391 -374 -41 -17 -78
-55 -126 -132 -37 -59 -68 -81 -103 -72 -27 7 -26 15 0 39 12 10 34 46 49 79
29 66 65 99 143 133 55 24 333 287 382 361 16 24 40 50 53 59 12 8 20 17 17
20 -2 3 1 12 7 20 10 12 13 12 17 1 2 -8 10 -20 18 -27z m365 -9 c29 -14 85
-52 123 -83 89 -73 318 -292 346 -331 36 -51 11 -45 -39 9 -97 105 -366 352
-379 348 -7 -3 -18 4 -24 15 -6 11 -13 18 -16 15 -13 -13 56 -90 227 -254 99
-96 185 -172 191 -170 6 2 -11 21 -37 43 -49 40 -277 264 -324 319 -57 66 18
1 194 -167 102 -99 186 -184 186 -191 0 -6 20 -23 45 -38 44 -27 73 -73 89
-141 4 -16 74 -99 180 -210 95 -100 208 -221 251 -269 43 -48 96 -97 118 -109
70 -36 85 -71 39 -87 -25 -9 -30 -7 -44 19 -9 15 -34 37 -55 47 -21 11 -87 73
-148 138 -60 65 -165 176 -232 245 -87 91 -131 145 -153 191 -18 34 -42 77
-54 93 -13 17 -25 37 -28 46 -4 10 -23 19 -48 23 -39 6 -61 25 -231 193 -104
103 -189 192 -189 198 0 7 -17 32 -38 56 -36 39 -37 44 -23 61 8 10 16 18 17
18 1 0 26 -12 56 -27z m623 -20 c7 -32 9 -34 14 -16 l6 21 30 -23 c37 -30 29
-38 -29 -30 l-46 7 0 45 c0 52 14 50 25 -4z m-5470 22 c-45 -15 -29 -19 26 -6
70 16 81 -29 12 -48 -49 -14 -123 -14 -123 -1 0 6 8 10 17 8 21 -4 25 33 6 40
-7 2 -13 -3 -13 -12 0 -9 -4 -16 -10 -16 -15 0 -12 11 7 32 12 13 29 18 67 17
l51 -1 -40 -13z m4407 -7 c-100 -68 -310 -252 -375 -327 -73 -87 -97 -111
-108 -111 -13 0 38 71 93 132 66 73 308 277 358 304 58 30 74 31 32 2z m1028
-24 c0 -31 -3 -36 -20 -31 -11 3 -22 1 -25 -3 -3 -5 30 -11 72 -15 43 -3 87
-7 98 -8 14 -1 21 -11 23 -31 l4 -29 -54 6 c-57 7 -244 20 -293 21 -26 1 -30
5 -33 34 -3 29 -1 32 22 32 14 0 26 -3 26 -7 0 -5 27 -9 60 -9 36 -1 57 2 54
8 -6 10 43 68 58 68 4 0 8 -16 8 -36z m-5637 0 c35 -13 18 -41 -30 -48 -10 -2
-18 -8 -18 -14 0 -21 -43 -43 -111 -56 -10 -2 -31 -7 -46 -11 l-28 -7 3 53 c1
30 -2 65 -7 78 l-8 24 114 -6 c63 -3 122 -9 131 -13z m5245 -5 c92 -12 93 -12
90 -38 -3 -24 -6 -26 -43 -23 -54 4 -103 20 -142 46 -36 23 -44 40 -15 32 9
-2 59 -10 110 -17z m-1578 -8 c0 -17 -42 -41 -71 -41 -19 0 -7 19 24 38 41 26
47 26 47 3z m1060 10 c0 -6 -4 -12 -9 -15 -5 -3 -20 -35 -34 -70 -15 -35 -72
-133 -129 -217 -57 -85 -121 -184 -143 -221 -22 -37 -43 -67 -47 -65 -4 1 -39
29 -79 61 -71 59 -71 59 -49 76 12 9 35 15 53 14 18 -2 24 -1 15 2 -10 3 -18
7 -18 10 0 9 76 73 86 74 27 0 32 -64 7 -79 -10 -6 -13 -11 -7 -11 31 -1 47
72 22 99 -11 10 8 33 98 119 60 59 120 124 133 144 32 53 101 106 101 79z
m247 -15 c16 -13 35 -37 43 -53 7 -15 62 -78 122 -138 l108 -110 -7 -178 -6
-177 -149 -115 c-83 -63 -158 -115 -169 -115 -18 0 -19 13 -19 448 0 247 3
452 7 455 13 14 42 6 70 -17z m-220 -46 c2 -45 -3 -70 -19 -98 l-20 -37 21 25
c17 21 21 22 21 7 0 -29 -39 -99 -52 -91 -7 5 -8 2 -3 -6 6 -10 12 -8 26 8 20
26 29 28 29 7 0 -23 -41 -75 -53 -68 -7 4 -8 -1 -3 -13 32 -78 49 -169 52
-264 2 -117 -11 -99 -22 30 -4 41 -14 100 -24 131 -9 30 -15 65 -13 77 1 12
-2 22 -7 22 -6 0 -10 10 -10 22 0 17 -3 19 -11 11 -9 -9 -9 -19 1 -42 11 -27
9 -38 -16 -98 -15 -38 -31 -72 -35 -78 -8 -12 -43 -121 -59 -184 -7 -27 -15
-40 -21 -34 -6 6 -6 21 0 39 21 66 61 222 70 269 5 28 13 59 16 70 4 11 -8 -7
-25 -40 -29 -54 -101 -163 -148 -224 -17 -21 -21 -22 -40 -10 -12 8 -22 17
-22 22 0 4 31 54 68 110 38 56 94 144 126 195 32 50 61 92 63 92 3 0 2 -19 -1
-42 -4 -32 -3 -36 3 -18 5 14 9 37 10 53 1 30 21 38 21 8 0 -23 16 -36 25 -21
3 5 1 10 -4 10 -20 0 -11 42 20 97 17 30 29 56 26 59 -2 2 -17 -20 -33 -51
-16 -30 -32 -55 -36 -55 -9 0 0 24 24 68 10 18 16 38 12 43 -6 11 22 59 34 59
4 0 8 -27 9 -60z m128 -210 c0 -146 -1 -347 -3 -447 l-3 -183 -49 0 -50 0 0
451 0 450 53 -3 52 -3 0 -265z m-1339 249 c3 -6 0 -15 -7 -20 -10 -6 -8 -9 9
-9 31 0 28 -28 -5 -41 -32 -12 -85 -8 -90 7 -2 6 14 15 34 22 34 10 34 10 6 6
-38 -6 -43 8 -11 30 26 19 54 21 64 5z m1854 -30 c0 -24 -4 -29 -25 -29 -21 0
-25 5 -25 28 0 35 6 41 31 35 13 -4 19 -14 19 -34z m-849 2 c-13 -23 -211
-207 -220 -203 -17 6 3 30 104 122 110 99 135 117 116 81z m-881 -71 c0 -65
-2 -70 -21 -70 -20 0 -21 4 -16 59 3 33 8 64 12 70 16 27 25 6 25 -59z m-3705
-175 c-23 -131 -83 -335 -106 -359 -17 -19 -19 2 -3 39 29 70 74 259 94 399
12 77 24 144 28 150 18 27 11 -97 -13 -229z m3660 183 c-21 -179 -103 -419
-178 -521 -39 -52 -41 -65 -4 -25 33 37 47 40 47 9 0 -23 -71 -91 -95 -91 -19
1 -19 1 -1 15 10 8 16 21 13 29 -3 8 16 57 43 108 75 142 140 365 140 477 0
41 6 51 27 51 11 0 12 -12 8 -52z m1708 27 c47 -6 53 -11 59 -49 2 -15 -5 -21
-29 -26 -28 -6 -38 -2 -82 37 -57 50 -64 66 -23 53 15 -5 49 -11 75 -15z
m-6981 -16 c4 -25 -15 -64 -114 -227 -66 -108 -128 -206 -139 -217 -19 -19
-19 -19 -19 3 0 13 12 46 26 75 48 95 226 397 234 397 4 0 10 -14 12 -31z
m1598 -24 c0 -84 -62 -371 -102 -472 l-23 -58 -73 -3 c-39 -2 -72 -2 -72 0 0
2 9 26 19 54 32 84 62 212 80 338 l17 120 64 22 c84 29 90 29 90 -1z m5531 13
c0 -10 2 -10 6 0 2 6 16 12 30 12 23 0 25 -3 21 -39 -2 -25 1 -37 8 -34 6 2 9
17 6 32 -5 35 6 43 46 35 29 -6 32 -12 89 -176 43 -126 67 -180 92 -209 28
-34 32 -45 28 -77 -3 -20 -3 -29 0 -19 3 13 10 16 21 11 10 -4 29 -7 44 -6 24
1 27 -4 43 -69 13 -53 15 -73 6 -82 -24 -24 -46 6 -52 74 l-6 64 -1 -54 c-2
-49 -4 -52 -19 -40 -9 8 -24 28 -35 44 -10 17 -18 26 -18 21 0 -5 -21 11 -47
36 -27 24 -62 52 -80 63 l-31 18 -4 143 -3 144 -30 27 c-29 28 -29 28 -6 1 21
-24 23 -38 28 -165 5 -134 5 -138 -13 -120 -16 14 -20 37 -24 125 l-5 107 -35
11 c-28 9 -36 18 -42 45 -6 27 -6 24 -4 -14 l4 -48 -42 3 c-44 3 -52 19 -14
30 20 5 19 6 -7 7 -17 1 -36 -4 -41 -9 -7 -7 -16 -4 -29 10 -20 22 -19 25 12
34 16 5 23 2 26 -11 3 -10 5 2 5 27 0 25 1 48 1 53 2 13 71 8 72 -5z m197 -20
l11 -23 0 24 c1 19 5 22 24 17 12 -3 27 -6 33 -6 6 0 19 -35 28 -78 9 -42 28
-111 42 -152 21 -65 24 -69 19 -30 -5 36 -4 41 6 27 6 -11 13 -45 16 -78 5
-50 3 -59 -10 -59 -29 0 -66 72 -108 203 -22 71 -43 126 -46 124 -3 -3 14 -63
37 -134 43 -129 104 -238 120 -213 4 7 10 1 13 -17 3 -15 2 -32 -2 -36 -13
-13 -41 4 -41 24 0 10 -13 34 -30 52 -35 40 -156 377 -135 377 6 0 17 -10 23
-22z m124 -48 c3 -56 -7 -67 -17 -17 -4 17 -9 40 -11 50 -4 10 0 17 9 17 11 0
16 -14 19 -50z m-6027 -37 c-13 -129 -86 -413 -105 -413 -4 0 3 35 17 78 13
42 39 150 56 239 18 90 34 163 36 163 2 0 0 -30 -4 -67z m3525 52 c17 -20 9
-45 -22 -68 -35 -26 -48 -14 -26 24 15 26 15 29 2 21 -17 -10 -64 -4 -64 8 0
25 91 38 110 15z m950 -30 c11 -13 9 -20 -10 -40 -13 -14 -27 -25 -31 -25 -14
0 -16 40 -2 59 17 25 26 26 43 6z m-585 -40 c0 -13 -8 -21 -22 -23 -19 -3 -23
1 -23 23 0 22 4 26 23 23 14 -2 22 -10 22 -23z m519 5 c21 -20 5 -62 -50 -136
-61 -80 -123 -133 -159 -134 -12 0 -52 29 -92 65 -39 36 -78 65 -87 65 -12 0
-16 11 -16 46 l0 47 200 -5 c110 -2 198 -2 196 0 -9 8 -49 11 -214 11 -144 1
-174 4 -178 16 -16 41 -5 44 198 38 106 -3 197 -9 202 -13z m1378 -43 c4 -7 8
-43 8 -80 0 -92 -19 -78 -22 16 -1 63 -2 65 -5 20 -2 -29 -6 -53 -8 -53 -2 0
-26 24 -54 53 l-50 52 37 6 c45 8 84 2 94 -14z m-1254 -3 c-4 -20 -95 -100
-104 -91 -7 7 84 107 98 107 5 0 8 -7 6 -16z m-3789 -89 c19 -147 66 -303 138
-462 3 -7 0 -13 -7 -13 -25 0 -113 240 -143 390 -26 129 -30 180 -14 180 10 0
17 -28 26 -95z m3151 50 c0 -41 -3 -47 -27 -55 -16 -6 -37 -15 -47 -21 -15 -9
-18 -8 -13 4 3 9 11 35 17 59 16 56 17 58 46 58 22 0 24 -4 24 -45z m1090 -45
c0 -38 -4 -70 -9 -70 -4 0 -13 24 -19 53 -9 43 -8 55 5 70 9 9 18 17 20 17 1
0 3 -31 3 -70z m536 -134 c-4 -97 -9 -134 -21 -145 -8 -8 -17 -13 -19 -10 -3
3 -2 76 1 162 6 154 7 157 25 140 18 -16 19 -28 14 -147z m-2173 82 c-9 -82
-34 -197 -59 -275 -30 -90 -117 -275 -139 -293 -29 -24 -26 -2 6 61 64 128
105 266 128 428 7 53 16 80 32 97 32 34 38 30 32 -18z m-4673 12 c0 -11 -7
-20 -15 -20 -8 0 -15 9 -15 20 0 11 7 20 15 20 8 0 15 -9 15 -20z m6952 -65
c18 -24 7 -66 -24 -95 -18 -16 -36 -30 -40 -30 -4 0 -9 42 -11 93 l-3 92 -2
-97 c-1 -64 -6 -98 -13 -98 -7 0 -9 9 -5 23 3 12 6 62 6 112 l0 89 42 -39 c23
-22 46 -44 50 -50z m-1734 44 c-1 -31 -18 -46 -38 -34 -8 5 -8 11 -1 19 18 21
1 26 -26 9 -25 -17 -25 -17 -4 -25 12 -4 21 -11 21 -16 0 -12 -99 -107 -105
-100 -8 7 53 128 74 149 19 18 39 27 63 28 12 1 16 -7 16 -30z m154 13 c11
-13 11 -14 -1 -8 -10 7 -12 4 -7 -12 9 -26 0 -31 -55 -33 -78 -3 -79 -2 -79
36 l0 35 65 -1 c45 -1 68 -6 77 -17z m902 -179 c34 -171 46 -313 28 -313 -14
0 -81 51 -140 106 l-53 49 29 86 c37 108 95 260 98 256 1 -1 18 -84 38 -184z
m-1674 145 c0 -96 -49 -281 -112 -428 -48 -111 -57 -125 -71 -111 -7 7 -6 15
1 24 21 25 99 220 117 292 15 60 45 225 45 248 0 4 5 7 10 7 6 0 10 -15 10
-32z m186 21 c4 -7 -1 -16 -10 -21 -29 -16 -48 -69 -53 -149 -4 -58 -2 -83 8
-95 11 -14 10 -19 -10 -35 -60 -49 -72 -4 -37 138 28 111 47 158 68 166 21 8
26 8 34 -4z m632 -182 l-83 -90 -6 94 -5 94 -2 -85 c-3 -122 -6 -130 -52 -130
-21 0 -41 6 -43 13 -4 9 -8 8 -16 -3 -12 -17 -7 -21 -86 69 l-47 54 53 53 c29
30 59 54 66 54 9 0 13 -17 14 -52 1 -30 4 -40 6 -23 9 77 8 76 76 74 60 -2 63
-4 104 -48 51 -55 57 -42 8 16 -19 23 -35 44 -35 47 0 16 28 2 65 -31 l40 -38
-37 40 c-55 59 -47 74 12 25 l50 -42 -82 -91z m-568 130 c25 -19 28 -27 23
-57 -6 -40 -6 -35 -3 -80 1 -19 4 -27 7 -17 10 38 23 13 23 -45 0 -52 22 -188
77 -485 5 -28 2 -33 -21 -39 -41 -10 -52 0 -64 63 -6 32 -23 121 -37 198 -14
77 -33 171 -42 208 l-15 68 -25 -16 c-14 -9 -27 -14 -30 -12 -25 25 0 191 34
229 19 21 32 18 73 -15z m2590 23 c0 -5 39 -99 86 -207 73 -169 92 -204 129
-238 24 -22 48 -50 54 -62 12 -23 4 -86 -10 -77 -8 4 -134 148 -213 241 -27
33 -28 35 -10 54 17 19 17 23 0 93 -9 40 -24 82 -32 94 -19 27 -31 112 -15
112 6 0 11 -4 11 -10z m-7416 -26 c8 -21 8 -21 -9 -28 -11 -4 -15 1 -15 19 0
28 15 33 24 9z m6079 -106 c-18 -67 -35 -123 -37 -126 -8 -7 -65 42 -65 55 -1
11 126 193 133 193 2 0 -12 -55 -31 -122z m-503 93 c0 -5 -6 -14 -14 -21 -8
-6 -12 -18 -10 -25 6 -16 -57 -88 -98 -113 -16 -9 -36 -32 -45 -49 -11 -25
-22 -33 -41 -33 -24 0 -15 11 75 100 56 55 96 100 90 100 -7 0 -56 -46 -110
-102 -92 -96 -97 -103 -76 -110 21 -8 13 -19 -107 -139 -135 -137 -184 -179
-184 -159 0 7 62 72 137 146 75 73 135 135 132 138 -7 8 -277 -264 -300 -303
-11 -18 -22 -31 -25 -28 -12 12 31 72 114 159 48 51 110 118 137 148 114 126
203 215 255 256 55 44 70 52 70 35z m420 -205 c250 -208 251 -209 231 -229
-19 -20 -20 -20 -93 42 -67 56 -382 314 -431 353 -18 14 -19 18 -7 33 7 9 21
15 31 13 10 -2 131 -97 269 -212z m983 207 c8 -7 -11 -33 -24 -33 -5 0 -9 9
-9 20 0 19 20 27 33 13z m36 -73 c-131 -103 -264 -207 -378 -293 -126 -96
-134 -100 -147 -82 -8 11 -13 22 -12 26 2 4 55 47 118 95 151 114 269 207 344
270 l61 52 23 -21 23 -21 -32 -26z m-6977 -8 c22 -61 116 -218 180 -299 26
-35 44 -63 39 -63 -20 0 -145 180 -197 285 -55 111 -60 125 -46 125 4 0 15
-22 24 -48z m5693 -3 c28 -23 52 -43 54 -45 5 -5 -152 7 -158 12 -5 4 42 74
49 74 3 0 28 -18 55 -41z m1493 9 c76 -58 449 -479 493 -556 46 -78 28 -74
-25 7 -48 72 -73 102 -240 286 -142 157 -238 255 -261 267 -11 6 25 -36 80
-93 200 -207 359 -389 419 -482 35 -52 -9 -19 -79 61 -37 42 -145 158 -240
257 -94 99 -179 192 -188 206 -16 24 -20 79 -7 79 4 0 25 -15 48 -32z m-7207
-23 c24 -50 21 -60 -10 -50 -28 9 -43 39 -35 70 9 36 21 31 45 -20z m7062 0
c18 -37 23 -180 11 -257 l-7 -38 -116 -2 -116 -2 113 -3 c67 -2 112 -8 112
-14 0 -6 -39 -8 -112 -4 -137 7 -139 9 -131 109 4 66 7 73 40 103 20 18 39 30
43 28 4 -3 10 1 13 8 3 8 24 28 46 46 l41 33 0 -55 0 -55 -36 -7 c-26 -4 -40
-2 -46 7 -8 10 -9 10 -5 -2 5 -19 49 -25 77 -10 16 9 20 21 20 61 0 49 13 89
28 89 5 0 16 -16 25 -35z m-2038 -25 c0 -7 -6 -15 -12 -17 -8 -3 -13 4 -13 17
0 13 5 20 13 18 6 -3 12 -11 12 -18z m-412 -60 c-7 -62 7 -84 51 -76 17 4 43
18 58 33 15 15 30 25 32 22 2 -2 7 -25 11 -51 l7 -47 -77 -76 c-43 -42 -81
-73 -85 -68 -5 4 -10 19 -12 33 -3 27 -42 40 -61 21 -25 -25 -24 -7 2 52 16
34 39 95 52 135 13 39 24 72 25 72 2 0 0 -22 -3 -50z m481 4 c23 -26 36 -50
32 -59 -7 -19 -16 -19 -41 3 -45 40 -65 69 -59 85 10 26 26 19 68 -29z m614
31 c4 -4 -35 -45 -42 -45 -6 0 -13 49 -8 55 5 5 42 -3 50 -10z m-65 -27 c2
-18 3 -35 1 -37 -9 -10 -34 24 -34 45 0 36 27 29 33 -8z m157 17 c7 -9 11 -18
8 -20 -10 -10 -108 -16 -108 -7 0 13 25 33 33 26 3 -3 14 -1 24 5 24 14 28 14
43 -4z m-5826 -62 c-21 -58 -20 -57 -33 -49 -9 6 -4 26 24 105 4 10 9 11 16 4
8 -8 6 -25 -7 -60z m5626 52 c0 -10 -10 -15 -27 -15 -27 1 -27 1 -9 15 25 19
36 19 36 0z m-6037 -17 c18 -7 27 -17 27 -32 -1 -25 -26 -136 -34 -143 -8 -9
-80 -23 -118 -23 -49 0 -49 9 3 113 59 117 51 111 122 85z m1612 12 c3 -5 34
-10 68 -10 77 0 137 -10 137 -22 0 -19 -73 -40 -132 -36 -42 2 -59 -1 -63 -11
-4 -11 -8 -11 -22 0 -14 12 -16 12 -11 -1 3 -9 14 -14 29 -12 13 2 47 5 74 7
l50 5 -50 -19 c-62 -24 -109 -26 -129 -5 -15 14 -14 18 4 41 11 14 20 36 20
49 0 24 14 32 25 14z m4315 0 c13 -9 12 -12 -5 -26 -11 -8 -26 -19 -34 -23 -8
-5 -11 -13 -7 -20 5 -8 21 -3 51 15 28 16 55 24 72 22 25 -4 22 -7 -34 -32
l-63 -29 -1 -201 c0 -110 -2 -209 -4 -219 -2 -11 9 -29 26 -44 32 -29 38 -63
14 -83 -12 -10 -16 -7 -25 16 -5 16 -15 36 -20 44 -28 42 -31 73 -28 311 2
190 6 250 17 262 16 20 21 20 41 7z m-428 -57 c25 -27 48 -57 50 -68 2 -14 13
-21 37 -25 l34 -5 -92 -99 c-51 -54 -105 -121 -121 -149 -34 -59 -29 -68 -60
123 -11 69 -23 135 -26 148 -4 19 2 25 29 37 19 8 47 30 63 49 16 19 31 35 34
35 3 1 27 -20 52 -46z m799 26 c24 -17 29 -27 28 -62 -2 -73 -11 -92 -44 -92
-30 0 -30 0 -33 65 -3 64 3 110 14 110 3 0 19 -9 35 -21z m1269 -126 c0 -140
5 -136 -175 -141 -110 -2 -135 0 -165 15 -35 18 -35 19 -38 90 -2 62 0 75 18
93 37 37 43 26 36 -56 -5 -52 -3 -80 5 -90 15 -19 259 -20 277 -2 8 8 12 51
12 127 0 103 1 113 15 95 11 -14 14 -48 15 -131z m-5042 80 l20 -51 -43 -119
c-45 -124 -59 -139 -99 -110 -17 13 -16 20 33 163 28 82 54 155 56 163 7 19
10 15 33 -46z m3710 -75 c2 -101 0 -118 -13 -118 -13 0 -15 18 -15 110 0 108
-11 144 -24 75 -8 -40 -8 -41 -47 -18 -33 20 -36 29 -12 55 13 14 28 18 62 16
l46 -3 3 -117z m-548 -140 c-89 -87 -166 -158 -173 -158 -6 0 -25 -14 -43 -31
-28 -27 -35 -29 -54 -19 -35 19 -22 50 35 79 34 16 105 79 220 193 l170 168 3
-37 c4 -37 0 -42 -158 -195z m335 139 c3 -68 2 -77 -16 -82 -10 -4 -19 -14
-19 -23 0 -9 -7 -30 -15 -45 -13 -26 -13 -28 10 -39 17 -8 26 -22 30 -47 4
-20 12 -56 20 -81 8 -24 12 -47 9 -49 -2 -3 -31 -7 -64 -9 l-60 -4 0 215 0
215 32 11 c36 13 34 13 47 -19 9 -24 10 -23 10 9 1 61 12 26 16 -52z m53 74
c9 -5 14 -33 15 -80 2 -68 3 -72 27 -78 14 -3 36 -13 50 -22 14 -9 42 -25 62
-35 21 -10 45 -28 55 -39 10 -11 12 -17 6 -13 -8 4 -13 1 -13 -8 0 -9 9 -16
20 -16 11 0 20 5 20 11 0 17 93 -61 131 -111 20 -25 53 -74 74 -110 43 -73 94
-132 143 -161 17 -12 32 -24 32 -29 0 -12 -35 -19 -51 -10 -19 10 -142 -9
-151 -24 -15 -23 -7 -29 13 -10 18 16 37 19 123 19 96 0 103 -2 146 -30 86
-58 57 -80 -120 -91 -90 -6 -98 -5 -148 20 -63 32 -69 27 -9 -9 34 -19 57 -25
103 -25 62 0 179 15 208 26 29 11 17 -13 -14 -26 -39 -16 -183 -27 -243 -18
-26 3 -63 16 -82 28 -33 20 -35 25 -29 57 5 26 4 34 -5 29 -6 -4 -11 -16 -11
-27 0 -35 -18 -20 -34 29 -24 72 -44 95 -141 167 -105 78 -180 148 -203 190
-11 21 -16 55 -17 114 0 60 -4 85 -13 89 -10 3 -12 -5 -6 -34 6 -37 5 -38 -11
-22 -29 27 -8 70 40 84 34 9 36 11 17 16 -20 6 -22 12 -22 82 0 77 6 88 38 67z
m-408 -26 c-24 -25 -40 -25 -40 1 0 8 -5 14 -11 14 -6 0 -8 -9 -4 -20 5 -17 2
-20 -24 -20 -24 0 -31 4 -31 19 0 25 12 29 79 30 l54 1 -23 -25z m-3936 -7
c-45 -78 -143 -197 -185 -226 -13 -8 -1 9 28 40 28 30 72 87 97 126 25 40 51
72 57 72 5 0 7 -6 3 -12z m4401 -4 c14 -9 25 -26 25 -37 0 -16 -3 -18 -12 -9
-17 17 -28 15 -28 -4 0 -9 9 -18 20 -21 12 -3 20 -14 20 -25 0 -14 -5 -18 -16
-14 -9 3 -19 6 -24 6 -4 0 -10 27 -12 60 -1 33 -2 60 0 60 1 0 14 -7 27 -16z
m-5736 -3 c11 -7 10 -11 -5 -20 -11 -6 -13 -11 -6 -11 17 0 15 -56 -4 -74 -18
-19 -14 -19 -52 -5 -17 6 -33 17 -36 26 -6 14 1 27 39 79 11 16 43 18 64 5z
m1158 -4 c-12 -33 -80 -129 -126 -179 -65 -71 -157 -136 -172 -121 -8 8 0 17
29 32 62 31 161 130 212 209 25 39 49 71 54 71 4 1 6 -5 3 -12z m111 -39 c-34
-62 -159 -190 -215 -220 -26 -15 -66 -29 -88 -33 l-40 -7 72 69 c40 37 95 102
123 143 47 70 54 75 93 81 84 12 81 14 55 -33z m4532 -39 c0 -36 -4 -49 -12
-47 -14 5 -23 70 -14 95 11 28 26 1 26 -48z m-980 33 c0 -19 -127 -148 -210
-214 -75 -59 -147 -88 -110 -43 7 8 9 15 6 15 -4 0 -1 10 6 23 7 12 11 27 9
32 -1 6 1 7 5 3 4 -4 13 -3 20 3 8 6 14 6 18 0 3 -5 -8 -21 -26 -35 -18 -14
-29 -26 -24 -26 18 0 105 73 196 164 52 53 98 96 102 96 5 0 8 -8 8 -18z
m-2650 -17 c0 -15 -18 -30 -27 -22 -2 3 -2 15 2 26 7 23 25 19 25 -4z m60 -24
c15 -29 12 -41 -9 -41 -20 0 -37 32 -26 50 10 16 23 12 35 -9z m2396 -46 c2
-37 -20 -75 -44 -75 -11 0 -23 13 -30 33 -12 30 -11 34 14 55 35 30 59 25 60
-13z m-2349 -40 c10 -25 21 -45 24 -45 3 0 32 -34 64 -75 77 -101 210 -224
320 -296 126 -82 131 -86 123 -94 -9 -9 -94 41 -184 109 -98 73 -232 205 -289
285 -28 38 -59 71 -70 73 -12 2 -20 11 -20 23 0 11 -4 26 -8 33 -9 13 -1 32
13 32 4 0 16 -20 27 -45z m4211 29 c30 -21 29 -52 -2 -60 -14 -3 -30 -2 -37 2
-7 4 -39 6 -71 5 -54 -2 -58 -1 -59 21 -2 22 -2 22 -6 2 -7 -36 -63 -40 -63
-4 0 30 22 38 109 39 47 1 87 4 90 6 7 8 15 6 39 -11z m-4740 -36 c2 -16 -1
-28 -7 -28 -6 0 -11 -9 -11 -20 0 -11 5 -20 10 -20 6 0 10 -9 10 -21 0 -18 -5
-20 -52 -17 l-53 3 4 60 c1 33 5 64 8 68 3 4 24 7 46 5 37 -3 42 -6 45 -30z
m50 -3 c0 -19 -5 -35 -10 -35 -6 0 -8 7 -4 15 3 8 1 15 -4 15 -6 0 -10 9 -10
20 0 11 6 20 14 20 9 0 14 -12 14 -35z m2742 -28 c0 -5 -7 -6 -16 -3 -9 3 -20
6 -25 6 -6 0 -5 9 2 22 11 21 12 21 25 3 8 -10 14 -23 14 -28z m-4190 8 c0 -8
-4 -15 -10 -15 -5 0 -10 7 -10 15 0 8 5 15 10 15 6 0 10 -7 10 -15z m4069 -36
c-6 -12 -6 -19 0 -19 5 0 13 9 16 20 7 23 33 26 58 7 16 -11 16 -14 2 -34 -8
-11 -36 -28 -62 -37 -45 -15 -49 -15 -60 1 -11 14 -13 15 -13 1 0 -30 26 -41
55 -22 14 9 28 14 31 11 10 -10 -60 -47 -89 -47 -45 0 -46 29 -3 84 14 18 17
18 41 2 14 -9 25 -12 25 -6 0 5 -4 10 -8 10 -5 0 -16 6 -25 13 -16 11 -16 14
-1 35 12 18 19 20 30 11 10 -8 11 -16 3 -30z m-4031 7 c3 -12 -1 -17 -10 -14
-7 3 -15 13 -16 22 -3 12 1 17 10 14 7 -3 15 -13 16 -22z m7446 -9 c15 -22 76
-196 76 -215 0 -20 -31 -21 -66 0 -27 16 -46 42 -80 109 -48 97 -53 116 -27
121 58 11 83 7 97 -15z m-5894 4 c0 -18 -41 -101 -50 -101 -6 0 -10 13 -10 30
0 22 4 28 15 24 16 -7 21 11 5 21 -15 9 0 35 21 35 10 0 19 -4 19 -9z m-140
-7 c0 -13 -21 -44 -30 -44 -14 0 -12 24 2 38 13 13 28 16 28 6z m223 -11 c15
-3 29 -9 32 -12 2 -4 -4 -34 -14 -67 -21 -67 -37 -76 -88 -49 -39 21 -40 30
-12 96 17 38 26 48 38 44 9 -4 28 -9 44 -12z m-863 -8 c0 -8 -4 -15 -9 -15
-13 0 -22 16 -14 24 11 11 23 6 23 -9z m-312 -61 c3 -21 4 -21 40 -4 43 21
122 34 122 21 0 -14 -95 -51 -145 -55 -42 -4 -61 6 -32 17 7 3 5 6 -5 6 -10 1
-18 -3 -18 -9 0 -5 -5 -10 -11 -10 -5 0 -8 4 -4 9 3 5 1 12 -4 15 -5 3 -11 -1
-15 -9 -8 -22 -36 -18 -36 5 0 11 3 20 8 21 4 0 17 2 29 3 13 2 26 6 30 10 13
13 38 1 41 -20z m856 -7 c-2 -113 -4 -127 -19 -127 -12 0 -15 13 -15 58 0 69
9 104 24 99 6 -2 11 -16 10 -30z m2771 -17 c-11 -17 -85 -51 -103 -48 -11 3 0
13 33 31 52 27 81 34 70 17z m-155 -6 c0 -16 -76 -108 -135 -163 -86 -80 -196
-153 -311 -207 -52 -24 -94 -42 -94 -39 0 2 -3 10 -6 19 -4 10 -1 16 8 16 23
0 193 86 261 132 34 23 107 88 162 144 93 95 115 113 115 98z m-5 -64 c-27
-27 -51 -48 -53 -45 -8 8 71 95 86 95 10 0 -2 -18 -33 -50z m714 21 c9 -6 11
-16 6 -32 l-8 -23 -18 23 c-11 13 -19 27 -19 32 0 11 21 11 39 0z m-3055 -10
c10 -15 -35 -131 -50 -131 -18 0 -18 5 2 66 9 27 17 55 20 62 4 14 20 16 28 3z
m3735 -35 l33 -34 -48 -7 c-75 -10 -77 -16 -3 -10 l65 5 89 -63 c106 -74 173
-167 89 -122 -73 38 -223 102 -228 97 -3 -3 -6 -1 -6 4 0 5 -27 20 -60 34 -44
18 -55 27 -42 32 14 5 12 7 -6 7 -18 1 -22 5 -17 20 3 10 -1 24 -10 31 -25 21
-17 29 33 33 26 2 54 4 63 5 8 1 30 -13 48 -32z m-711 7 c5 -10 13 -44 16 -75
l7 -57 -38 -10 c-21 -6 -43 -11 -50 -11 -12 0 -28 46 -39 112 -6 35 -5 37 22
43 16 4 34 8 39 10 23 8 35 4 43 -12z m82 2 c16 -19 25 -121 11 -129 -12 -8
-41 21 -42 42 -1 9 -3 31 -5 47 -6 52 10 71 36 40z m407 -17 c20 -26 23 -49 7
-55 -23 -8 -47 20 -39 46 7 24 18 27 32 9z m-3769 -30 c-3 -7 -20 -13 -38 -13
-18 0 -35 6 -37 13 -3 8 8 12 37 12 29 0 40 -4 38 -12z m6139 -10 c27 -29 123
-189 123 -205 0 -21 -41 -25 -121 -13 l-79 12 -10 42 c-6 22 -15 54 -20 70
-18 53 -12 70 33 92 55 27 50 27 74 2z m-2958 -86 c1 -21 -3 -23 -36 -20 -49
4 -54 27 -16 80 l28 41 12 -39 c6 -21 12 -49 12 -62z m-3175 52 c3 -9 6 -33 6
-54 l0 -39 -55 1 c-54 2 -55 2 -55 32 0 65 9 76 55 76 30 0 45 -5 49 -16z
m195 -30 c31 -6 44 -34 17 -34 -24 0 -66 19 -66 30 0 12 6 12 49 4z m-5 -41
c27 -6 28 -8 23 -50 -6 -60 -16 -67 -67 -52 -52 16 -58 29 -35 80 13 29 23 38
34 34 9 -4 29 -9 45 -12z m3095 -82 c10 -53 11 -75 3 -83 -7 -7 -14 -9 -17 -6
-9 8 -34 152 -28 161 13 21 29 -6 42 -72z m-3299 39 c-8 -5 -24 -10 -35 -10
-11 0 -27 5 -35 10 -11 7 -1 10 35 10 36 0 46 -3 35 -10z m1156 -44 c5 -12 19
-18 83 -32 22 -4 32 -19 25 -37 -8 -23 -31 -21 -46 3 -7 11 -21 20 -30 20 -10
0 -18 4 -18 9 0 4 -11 6 -24 4 -26 -5 -41 10 -32 32 7 19 35 19 42 1z m959
-21 c-16 -8 -37 -14 -45 -14 -8 0 -1 7 15 14 17 8 37 14 45 14 8 0 2 -7 -15
-14z m-1951 -4 c11 -4 15 -10 10 -13 -10 -6 -54 8 -54 17 0 7 21 5 44 -4z
m1831 -30 c-15 -13 -65 -23 -65 -12 0 10 22 18 55 20 11 1 15 -3 10 -8z m1355
-46 c0 -8 -6 -15 -14 -15 -7 0 -28 -3 -45 -6 -24 -5 -31 -3 -31 9 0 15 20 23
68 26 13 0 22 -5 22 -14z m-1335 -35 c-3 -5 -13 -10 -21 -10 -8 0 -14 5 -14
10 0 6 9 10 21 10 11 0 17 -4 14 -10z m1358 -39 c19 -60 13 -86 -23 -101 -30
-13 -83 -4 -60 10 8 5 5 9 -9 13 -18 4 -21 13 -21 60 0 60 2 62 71 66 23 1 28
-5 42 -48z"/>
<path d="M7849 6259 c-13 -25 2 -69 23 -69 9 0 10 2 1 8 -11 7 -16 26 -14 50
1 8 10 12 24 10 16 -2 23 -11 25 -32 2 -18 0 -26 -7 -21 -6 3 -11 1 -11 -5 0
-24 25 -2 28 24 6 51 -46 78 -69 35z"/>
<path d="M4084 6212 c-38 -25 -36 -78 4 -93 56 -21 98 51 50 85 -25 18 -37 19
-54 8z m54 -24 c16 -16 15 -33 -4 -52 -20 -21 -30 -20 -54 4 -16 16 -18 25
-10 40 12 22 49 27 68 8z"/>
<path d="M3696 6106 c4 -9 -3 -16 -18 -19 -17 -3 -15 -5 10 -6 30 -1 32 1 22
19 -12 23 -22 27 -14 6z"/>
<path d="M3312 5968 c-17 -17 -15 -54 4 -72 22 -23 30 -20 9 4 -24 27 -13 70
18 70 46 0 60 -37 27 -70 -11 -11 -16 -20 -11 -20 16 0 41 31 41 50 0 40 -60
66 -88 38z"/>
<path d="M4880 5571 c-19 -4 39 -7 130 -7 114 -1 148 1 110 6 -67 10 -192 10
-240 1z"/>
<path d="M4797 5518 c-7 -4 12 -8 41 -8 28 0 52 2 52 4 0 8 -81 11 -93 4z"/>
<path d="M4948 5523 c23 -2 61 -2 85 0 23 2 4 4 -43 4 -47 0 -66 -2 -42 -4z"/>
<path d="M5091 5516 c2 -2 24 -6 48 -9 29 -4 40 -2 30 4 -13 8 -88 14 -78 5z"/>
<path d="M3709 5447 c5 -5 24 -7 42 -5 33 3 33 4 -8 8 -23 3 -39 2 -34 -3z"/>
<path d="M5206 5384 c-4 -20 -5 -38 -3 -40 3 -3 8 11 11 32 4 20 5 38 3 40 -3
3 -8 -11 -11 -32z"/>
<path d="M4852 5263 c-11 -10 -23 -37 -27 -60 l-7 -42 44 -11 c42 -12 125 -7
139 8 4 4 10 28 14 54 7 45 6 48 -20 58 -43 16 -120 12 -143 -7z m150 -11 c6
-6 5 -24 -3 -51 l-12 -41 -67 0 c-36 0 -71 5 -77 11 -13 13 0 78 19 91 16 11
127 3 140 -10z"/>
<path d="M5760 5170 c-15 -55 -10 -114 11 -118 9 -1 27 7 40 18 23 20 23 21 2
10 -15 -7 -23 -7 -23 -1 0 6 -7 8 -15 5 -18 -7 -19 20 -5 81 12 53 4 58 -10 5z"/>
<path d="M5094 4984 c-8 -19 -17 -49 -20 -67 -3 -22 1 -16 15 20 10 28 22 57
26 62 10 17 35 13 35 -5 0 -8 4 -13 9 -9 5 3 12 -7 14 -22 4 -28 4 -28 6 3 3
63 -60 77 -85 18z"/>
<path d="M8572 5517 c-35 -42 -15 -117 31 -117 21 0 21 1 -3 13 -20 10 -26 21
-28 55 -2 32 1 44 14 49 37 14 69 -38 53 -84 -9 -26 5 -32 15 -7 10 27 7 59
-10 82 -17 24 -56 29 -72 9z"/>
<path d="M8613 5476 c7 -14 13 -23 15 -21 7 6 -9 45 -18 45 -4 0 -3 -11 3 -24z"/>
<path d="M6490 5287 c-21 -10 -26 -21 -28 -61 -2 -27 1 -53 6 -58 13 -13 157
-12 181 2 17 9 21 20 21 61 0 44 -3 51 -26 59 -36 14 -124 12 -154 -3z m159
-12 c6 -3 11 -24 11 -45 0 -51 -20 -62 -113 -58 l-72 3 -3 46 c-3 43 -1 48 25
58 28 11 133 8 152 -4z"/>
<path d="M3703 5138 c-19 -25 -21 -46 -7 -67 8 -11 21 -21 27 -21 7 0 4 5 -5
11 -25 14 -22 55 4 73 17 12 18 16 6 16 -8 0 -20 -6 -25 -12z"/>
<path d="M3764 5134 c9 -8 17 -25 17 -37 1 -16 2 -18 6 -5 5 20 -13 58 -28 58
-6 0 -3 -7 5 -16z"/>
<path d="M5513 5163 c-7 -2 -13 -10 -13 -16 0 -8 4 -7 12 1 16 16 50 15 74 -3
29 -22 43 -17 15 5 -22 19 -61 25 -88 13z"/>
<path d="M5563 5105 c2 -26 6 -30 32 -32 27 -2 28 -1 5 5 -14 5 -27 18 -32 32
-6 23 -7 22 -5 -5z"/>
<path d="M5541 4981 c-15 -26 -14 -64 1 -79 21 -21 46 -13 56 17 19 53 -33
109 -57 62z m44 -40 c0 -36 -11 -46 -34 -32 -20 13 -5 73 17 69 12 -2 17 -14
17 -37z"/>
<path d="M6086 5094 c-4 -10 -1 -14 6 -12 15 5 23 28 10 28 -5 0 -13 -7 -16
-16z"/>
<path d="M5989 4976 c-23 -50 20 -106 56 -76 15 13 20 56 9 84 -10 25 -53 20
-65 -8z m59 -40 c-2 -23 -9 -32 -25 -34 -15 -2 -23 2 -23 11 0 9 -3 22 -6 30
-3 8 2 22 11 31 24 23 47 3 43 -38z"/>
<path d="M3091 4922 c-1 -35 15 -59 49 -71 33 -11 73 -2 85 21 6 10 5 11 -6 1
-14 -14 -77 -17 -96 -5 -6 4 -16 23 -21 42 -8 27 -10 29 -11 12z"/>
<path d="M4807 4763 c18 -2 50 -2 70 0 21 2 7 4 -32 4 -38 0 -55 -2 -38 -4z"/>
<path d="M6760 4350 c-119 -23 -285 -24 -414 -5 -55 8 -101 13 -103 11 -2 -2
36 -11 86 -20 101 -19 280 -22 387 -7 85 12 174 31 174 37 0 6 -25 3 -130 -16z"/>
<path d="M4318 4453 c12 -2 30 -2 40 0 9 3 -1 5 -23 4 -22 0 -30 -2 -17 -4z"/>
<path d="M4228 4413 c12 -2 32 -2 45 0 12 2 2 4 -23 4 -25 0 -35 -2 -22 -4z"/>
<path d="M4313 4403 c9 -2 25 -2 35 0 9 3 1 5 -18 5 -19 0 -27 -2 -17 -5z"/>
<path d="M3992 4308 c-2 -48 1 -59 20 -72 46 -33 77 -6 65 55 -3 17 -5 12 -6
-13 -1 -41 -18 -59 -35 -36 -6 8 -15 15 -21 14 -5 -1 -13 24 -16 54 l-6 55 -1
-57z"/>
<path d="M4415 3900 c-42 -11 -1 -11 50 -1 34 7 35 9 10 9 -16 0 -43 -4 -60
-8z"/>
<path d="M3968 2368 c-13 -13 -17 -18 -8 -12 8 6 24 16 35 22 11 6 15 12 8 12
-7 0 -22 -10 -35 -22z"/>
<path d="M7792 4558 c-7 -7 -12 -18 -12 -25 0 -14 -39 -22 -135 -26 -61 -3
-57 -3 25 -5 73 -2 91 -5 82 -14 -19 -19 -14 -29 12 -22 23 5 25 2 29 -33 l4
-38 1 38 c1 23 6 36 12 32 6 -3 15 -3 21 1 18 11 -12 24 -40 17 -17 -4 -22 -2
-19 8 8 25 54 22 82 -5 21 -21 34 -26 73 -24 l48 1 -45 4 c-67 6 -96 38 -42
46 19 3 14 4 -16 6 -35 1 -44 5 -52 26 -11 29 -12 29 -28 13z"/>
<path d="M7528 4453 c-54 -2 -98 -7 -98 -11 0 -8 290 5 298 13 3 3 -19 4 -49
3 -30 -1 -98 -4 -151 -5z"/>
<path d="M7344 4225 c0 -49 1 -71 3 -48 2 23 2 64 0 90 -2 26 -3 8 -3 -42z"/>
<path d="M7192 4254 c10 -3 19 -19 21 -37 4 -31 5 -31 3 3 -1 27 -5 35 -21 37
-14 1 -15 0 -3 -3z"/>
<path d="M7062 4199 c-2 -65 2 -69 78 -69 54 0 80 7 80 22 0 6 -6 6 -14 -1 -9
-7 -38 -11 -73 -9 l-58 3 -6 55 -6 55 -1 -56z"/>
<path d="M7303 3853 c43 -2 110 -2 150 0 40 1 5 3 -78 3 -82 0 -115 -2 -72 -3z"/>
<path d="M7546 3801 c-8 -13 18 -31 31 -23 9 6 6 11 -7 20 -10 6 -21 8 -24 3z"/>
<path d="M3608 3293 c12 -2 30 -2 40 0 9 3 -1 5 -23 4 -22 0 -30 -2 -17 -4z"/>
<path d="M5088 3152 c-38 -40 -80 -100 -105 -148 -40 -77 -84 -208 -82 -249 0
-11 8 12 19 50 37 142 99 267 159 319 18 17 16 8 -14 -58 -54 -119 -76 -207
-80 -326 l-4 -105 9 100 c4 56 16 130 25 165 19 73 84 218 118 264 61 82 38
75 -45 -12z"/>
<path d="M4860 3032 c-51 -51 -79 -91 -114 -161 -47 -92 -87 -220 -85 -270 0
-14 7 3 14 38 21 94 43 158 81 231 36 70 111 163 123 155 5 -2 22 13 40 35 51
63 15 46 -59 -28z"/>
<path d="M4837 2958 c-62 -112 -81 -188 -82 -315 0 -78 4 -116 13 -125 10 -10
14 -9 18 10 4 12 10 22 15 22 5 0 9 9 9 20 0 28 -18 25 -26 -5 -11 -46 -24
-15 -24 58 0 108 24 201 75 301 52 102 54 129 2 34z"/>
<path d="M5132 2708 c-17 -22 -42 -76 -41 -90 0 -7 5 -2 11 12 l11 25 7 -30 8
-30 1 30 c1 17 8 43 16 59 8 15 15 30 15 32 0 9 -18 3 -28 -8z"/>
<path d="M4893 2665 c0 -27 2 -38 4 -22 2 15 2 37 0 50 -2 12 -4 0 -4 -28z"/>
<path d="M4991 2577 c-2 -58 51 -136 84 -124 12 5 15 22 13 79 l-2 73 -3 -67
c-3 -57 -7 -68 -21 -68 -21 0 -48 43 -61 96 -8 33 -9 35 -10 11z"/>
<path d="M4653 2495 c0 -38 2 -53 4 -32 2 20 2 52 0 70 -2 17 -4 1 -4 -38z"/>
<path d="M4894 2484 c5 -59 44 -161 83 -217 24 -34 25 -41 15 -75 -23 -75 -32
-118 -31 -147 2 -27 2 -27 6 -5 8 51 36 137 60 188 22 46 23 57 13 82 -16 38
-7 60 23 60 49 0 71 -61 47 -126 -6 -15 -9 -29 -6 -31 2 -2 11 16 19 42 20 57
8 99 -35 121 -27 14 -31 14 -49 -2 -21 -19 -25 -54 -8 -71 14 -14 2 -53 -15
-53 -32 0 -85 103 -111 217 -14 65 -15 66 -11 17z"/>
<path d="M4725 2420 c-3 -5 0 -7 8 -4 12 4 32 -29 51 -86 3 -11 5 -11 5 3 1
22 -36 97 -49 97 -5 0 -12 -4 -15 -10z"/>
<path d="M4832 2420 c0 -8 6 -31 13 -50 7 -19 13 -28 13 -20 0 8 -6 31 -13 50
-7 19 -13 28 -13 20z"/>
<path d="M5184 2414 c30 -76 24 -138 -18 -216 -14 -24 -27 -61 -30 -83 l-6
-40 14 45 c9 24 26 65 40 90 13 25 27 60 31 78 7 36 -11 128 -28 139 -7 4 -8
0 -3 -13z"/>
<path d="M4655 2331 c5 -85 16 -104 39 -69 13 19 14 31 6 49 -10 23 -10 23 -5
-4 4 -19 2 -26 -5 -22 -5 3 -10 1 -10 -6 0 -34 -14 8 -21 63 l-8 63 4 -74z"/>
<path d="M5290 2333 c0 -28 3 -34 10 -23 7 11 10 5 11 -25 1 -38 1 -39 10 -13
11 30 0 89 -19 96 -8 2 -12 -9 -12 -35z"/>
<path d="M4782 2275 c-17 -54 -79 -138 -98 -131 -9 4 -14 -1 -14 -15 0 -17 2
-18 15 -7 59 49 119 143 113 176 -2 10 -8 1 -16 -23z"/>
<path d="M4864 2274 c-4 -10 -25 -41 -46 -68 -21 -27 -38 -53 -38 -59 0 -5 10
4 23 22 12 17 35 49 51 71 16 22 26 43 23 47 -4 3 -10 -3 -13 -13z"/>
<path d="M5267 2262 c-9 -15 -28 -42 -42 -61 -17 -23 -25 -46 -24 -70 l2 -36
6 42 c4 25 22 60 44 89 32 40 44 64 35 64 -2 0 -11 -12 -21 -28z"/>
<path d="M5343 2243 c-13 -19 -14 -28 -5 -31 6 -2 12 -13 12 -25 1 -12 8 -35
16 -52 8 -16 12 -21 8 -10 -14 47 -16 86 -6 114 14 38 -1 41 -25 4z"/>
<path d="M5082 2168 c-12 -37 -32 -143 -32 -167 0 -13 2 -13 9 -3 5 9 11 -4
15 -37 4 -28 11 -61 16 -74 7 -16 8 -10 3 23 l-6 45 37 -39 c32 -34 39 -38 71
-32 36 7 44 -1 23 -22 -6 -6 -9 -14 -6 -18 4 -3 13 7 22 24 19 37 13 43 -34
36 -71 -12 -120 61 -120 179 0 31 5 68 10 83 6 15 9 29 6 31 -2 2 -9 -11 -14
-29z"/>
<path d="M4907 2152 c-15 -15 -34 -50 -44 -77 -9 -28 -21 -53 -27 -57 -7 -5
-5 -8 5 -8 11 0 21 15 29 45 7 25 26 64 41 85 34 47 33 51 -4 12z"/>
<path d="M4938 2143 c-23 -26 -38 -90 -37 -158 l2 -60 7 75 c4 45 16 93 29
118 23 45 23 52 -1 25z"/>
<path d="M5345 2074 c7 -55 -16 -101 -29 -56 -3 10 -4 6 -3 -8 3 -33 29 -32
41 2 6 18 5 38 -2 60 l-12 33 5 -31z"/>
<path d="M4780 2068 c0 -8 10 -23 22 -34 l21 -19 -18 30 c-26 41 -25 40 -25
23z"/>
<path d="M4696 2040 c15 -59 64 -130 91 -130 8 0 11 5 8 10 -4 6 -10 8 -15 5
-9 -6 -36 32 -67 95 -13 25 -20 34 -17 20z"/>
<path d="M4761 2019 c0 -13 4 -33 9 -44 7 -14 8 -8 3 20 -7 46 -13 59 -12 24z"/>
<path d="M5164 2012 c21 -24 58 -26 62 -4 1 7 0 8 -3 2 -7 -15 -34 -12 -57 8
l-21 17 19 -23z"/>
<path d="M5392 1997 c-3 -43 -26 -90 -75 -150 -63 -78 -81 -131 -74 -217 3
-39 2 -68 -3 -65 -22 13 -106 137 -136 200 -19 38 -34 64 -34 57 0 -39 124
-236 180 -287 l22 -20 -9 40 c-4 22 -8 72 -8 110 1 79 13 109 75 180 55 64 72
99 67 143 -3 28 -4 30 -5 9z"/>
<path d="M5052 1930 c0 -19 2 -27 5 -17 2 9 2 25 0 35 -3 9 -5 1 -5 -18z"/>
<path d="M4845 1914 c32 -32 61 -68 50 -61 -6 3 -16 3 -22 -1 -7 -5 -3 -11 13
-19 21 -10 24 -9 24 7 0 19 -27 52 -66 80 l-20 15 21 -21z"/>
<path d="M4975 1840 c8 -49 55 -146 98 -202 20 -27 33 -48 28 -48 -22 0 -133
84 -185 141 -33 35 -53 53 -46 39 29 -54 146 -152 237 -199 61 -30 74 -26 32
12 -69 61 -117 137 -151 237 -13 38 -17 44 -13 20z"/>
<path d="M5190 1811 c-5 -11 -10 -27 -10 -35 0 -24 -16 -19 -40 12 -13 17 -17
19 -11 6 14 -29 40 -49 50 -38 10 11 32 74 26 74 -2 0 -9 -9 -15 -19z"/>
<path d="M9333 2815 c0 -27 2 -38 4 -22 2 15 2 37 0 50 -2 12 -4 0 -4 -28z"/>
<path d="M6889 2393 c-5 -44 15 -69 46 -57 22 9 18 21 -7 20 -19 -1 -24 5 -28
39 l-6 40 -5 -42z"/>
<path d="M6898 2304 c-20 -20 -12 -74 11 -74 23 0 41 20 41 44 0 20 -1 20 -16
-2 -16 -23 -34 -21 -34 4 0 8 7 14 15 14 8 0 15 4 15 9 0 18 -16 20 -32 5z"/>
<path d="M8764 2657 c-8 -21 2 -35 16 -21 5 5 6 15 0 24 -8 12 -10 12 -16 -3z"/>
<path d="M8560 2640 c0 -11 4 -20 10 -20 5 0 7 7 4 15 -4 10 0 15 11 15 12 0
15 -5 10 -17 -5 -14 -3 -15 6 -6 15 15 3 33 -22 33 -12 0 -19 -7 -19 -20z"/>
<path d="M7947 2116 c-3 -8 -3 -17 0 -20 7 -7 33 13 33 25 0 15 -27 10 -33 -5z"/>
<path d="M3660 2521 c0 -8 90 -3 99 5 2 2 -19 4 -47 4 -29 0 -52 -4 -52 -9z"/>
<path d="M3620 2498 c0 -12 7 -18 23 -17 15 0 17 2 7 6 -8 3 -18 11 -22 17 -5
7 -8 4 -8 -6z"/>
<path d="M8475 2220 c-4 -12 -5 -24 -2 -27 3 -2 8 5 12 17 4 12 5 24 2 27 -3
2 -8 -5 -12 -17z"/>
<path d="M7087 2097 c-8 -21 -20 -133 -14 -127 7 7 28 132 23 137 -2 2 -6 -2
-9 -10z"/>
<path d="M7126 2058 c-3 -13 -5 -43 -4 -68 1 -39 2 -37 8 20 8 68 7 86 -4 48z"/>
<path d="M7030 1942 c0 -4 9 -8 20 -8 11 0 20 4 20 8 0 4 -9 8 -20 8 -11 0
-20 -4 -20 -8z"/>
<path d="M7976 1617 c-12 -9 -18 -26 -18 -49 0 -46 9 -63 26 -49 7 6 30 15 52
21 38 10 38 10 4 6 -19 -3 -43 -8 -53 -11 -16 -7 -18 -3 -15 31 l3 39 63 0
c53 0 60 2 45 12 -22 17 -84 17 -107 0z"/>
<path d="M8098 1553 c12 -2 30 -2 40 0 9 3 -1 5 -23 4 -22 0 -30 -2 -17 -4z"/>
<path d="M7920 1532 c0 -24 38 -87 81 -136 24 -27 86 -81 138 -120 52 -39 106
-86 118 -105 13 -19 23 -28 23 -20 0 22 -39 62 -115 119 -107 79 -190 164
-219 222 -14 28 -26 46 -26 40z"/>
<path d="M8215 1531 c-3 -6 -25 -12 -48 -13 -32 -1 -27 -3 22 -7 100 -9 85
-25 -36 -40 -60 -8 -117 -18 -128 -23 -15 -6 -11 -7 15 -3 104 16 220 27 234
22 26 -10 18 -25 -16 -30 -25 -3 -22 -4 15 -5 47 -2 63 -16 30 -26 -10 -3 -63
-10 -118 -17 -55 -7 -91 -15 -80 -17 11 -2 66 1 122 8 111 14 123 23 86 68
-10 12 -25 29 -33 39 -30 36 -58 55 -65 44z"/>
<path d="M8030 1499 c-19 -4 -41 -6 -49 -3 -11 4 -11 2 -2 -10 9 -11 18 -12
29 -6 10 6 40 14 67 19 31 5 39 9 20 9 -16 0 -46 -4 -65 -9z"/>
<path d="M8103 1421 c-24 -4 -46 -10 -49 -14 -10 -9 7 -8 96 8 53 9 63 13 35
13 -22 0 -59 -4 -82 -7z"/>
<path d="M8250 1353 c-52 -7 -104 -11 -115 -9 -19 5 -19 4 -2 -8 14 -11 28
-11 80 0 83 18 137 18 137 0 0 -18 -31 -26 -99 -26 -30 0 -51 -4 -45 -8 5 -4
42 -6 82 -4 66 3 72 5 72 25 0 42 -9 44 -110 30z"/>
<path d="M8550 1625 c0 -9 5 -15 11 -13 6 2 11 8 11 13 0 5 -5 11 -11 13 -6 2
-11 -4 -11 -13z"/>
<path d="M8737 1634 c-8 -8 1 -24 14 -24 5 0 9 7 9 15 0 15 -12 20 -23 9z"/>
<path d="M7325 870 l-30 -8 27 -1 c15 0 30 4 33 9 3 6 5 9 3 9 -2 -1 -16 -5
-33 -9z"/>
<path d="M9277 6234 c-4 -4 -7 -124 -7 -266 0 -221 -2 -259 -15 -264 -11 -5
-15 -23 -15 -75 0 -39 -4 -69 -10 -69 -5 0 -10 -13 -10 -28 0 -26 -5 -30 -70
-51 -38 -12 -76 -28 -83 -35 -8 -8 -52 -17 -108 -21 -150 -12 -91 -15 131 -6
151 6 177 8 98 9 -62 1 -108 6 -108 12 0 5 32 19 71 31 60 18 88 21 177 17 59
-3 94 -1 79 3 -40 11 -57 28 -57 55 0 13 -5 24 -11 24 -6 0 -9 12 -7 28 4 31
27 36 46 9 8 -10 23 -17 35 -15 20 3 22 9 22 68 0 59 -2 65 -22 68 -17 3 -24
-3 -29 -23 -4 -18 -11 -24 -21 -21 -9 4 -13 1 -11 -6 3 -7 10 -13 16 -13 21 0
14 -20 -8 -23 -16 -3 -20 2 -20 22 0 14 -7 29 -15 33 -12 7 -15 52 -17 272 -3
251 -7 288 -31 265z m23 -275 c0 -159 -4 -249 -10 -249 -6 0 -10 92 -10 256 0
167 3 253 10 249 6 -4 10 -100 10 -256z m128 -302 c3 -40 0 -47 -16 -47 -26 0
-33 10 -22 31 6 10 6 20 1 23 -15 10 0 47 18 44 11 -2 17 -16 19 -51z m-108
-6 c0 -41 -20 -67 -45 -57 -10 4 -15 19 -15 51 0 43 1 45 30 45 28 0 30 -2 30
-39z m14 -103 c-7 -12 -94 -10 -94 2 0 6 7 10 15 10 8 0 15 5 15 11 0 5 4 8 9
4 5 -3 12 -1 16 4 3 6 14 4 25 -6 10 -9 17 -20 14 -25z m6 -28 c0 -5 -25 -10
-56 -10 -34 0 -53 4 -49 10 3 6 28 10 56 10 27 0 49 -4 49 -10z"/>
<path d="M2718 5504 c-16 -8 -28 -20 -28 -26 0 -6 8 -4 18 5 10 10 24 17 30
17 7 0 12 5 12 10 0 12 1 12 -32 -6z"/>
<path d="M9485 5450 c41 -24 61 -30 113 -30 35 0 126 -7 203 -16 78 -8 146
-13 152 -11 16 5 -172 26 -298 34 -77 4 -111 11 -147 29 -67 34 -83 29 -23 -6z"/>
<path d="M2680 5453 c-1 -29 24 -61 51 -67 38 -7 79 9 79 31 -1 17 -1 17 -11
1 -7 -13 -22 -18 -50 -18 -36 0 -42 4 -54 33 -8 17 -14 27 -15 20z"/>
<path d="M9358 5433 c23 -2 59 -2 80 0 20 2 1 4 -43 4 -44 0 -61 -2 -37 -4z"/>
<path d="M9122 5335 c7 -7 770 -7 776 0 3 3 -172 5 -388 5 -216 0 -391 -2
-388 -5z"/>
<path d="M8898 5323 c34 -2 88 -2 120 0 31 2 3 3 -63 3 -66 0 -92 -1 -57 -3z"/>
<path d="M8497 5293 c-30 -8 -9 -22 43 -29 39 -5 50 -11 53 -28 2 -11 5 -4 6
18 1 33 -1 37 -14 26 -8 -6 -23 -9 -36 -5 -17 6 -19 9 -8 16 11 7 9 8 -6 8
-11 -1 -28 -3 -38 -6z"/>
<path d="M3893 1923 c9 -2 25 -2 35 0 9 3 1 5 -18 5 -19 0 -27 -2 -17 -5z"/>
</g>
</svg>
