<?xml version="1.0" standalone="no"?>
<!DOCTYPE svg PUBLIC "-//W3C//DTD SVG 20010904//EN"
 "http://www.w3.org/TR/2001/REC-SVG-20010904/DTD/svg10.dtd">
<svg version="1.0" xmlns="http://www.w3.org/2000/svg"
 width="1035.200314pt" height="716.311018pt" viewBox="0 0 1035.200314 716.311018"
 preserveAspectRatio="xMidYMid meet">
<metadata>
Created by potrace 1.12, written by Peter Selinger 2001-2015
</metadata>
<g transform="translate(-111.011537,772.000000) scale(0.100000,-0.100000)"
fill="#000000" stroke="none">
<path d="M10535 7701 c-41 -19 -78 -53 -88 -83 -9 -26 51 -99 106 -128 27 -14
46 -31 45 -39 -2 -8 -52 -42 -113 -77 -127 -73 -141 -72 -131 10 7 57 -18 142
-47 158 -10 5 -34 4 -64 -3 -53 -14 -133 -80 -133 -110 0 -28 68 -98 119 -123
24 -11 46 -26 48 -32 3 -10 -63 -44 -205 -104 -65 -28 -73 -21 -65 55 4 39 0
63 -17 103 -25 57 -34 61 -103 41 -51 -14 -130 -89 -121 -115 16 -43 66 -93
109 -110 25 -9 45 -20 45 -25 0 -4 -29 -17 -64 -29 l-65 -21 -12 -57 c-6 -31
-22 -78 -35 -103 -24 -48 -98 -127 -136 -147 -50 -25 -1132 -599 -1258 -667
-74 -40 -430 -232 -790 -425 -360 -194 -830 -448 -1045 -565 -852 -464 -1005
-543 -1067 -550 -74 -8 -155 14 -226 62 -196 133 -177 401 38 552 77 55 132
77 275 112 70 18 125 37 133 46 22 29 14 73 -18 103 -34 32 -171 80 -305 107
-127 25 -445 25 -565 0 -172 -36 -365 -110 -503 -193 -173 -105 -297 -215
-472 -424 -156 -186 -265 -287 -364 -339 -179 -93 -327 -108 -671 -66 -196 24
-249 26 -410 22 -250 -7 -380 -37 -577 -134 -358 -174 -595 -486 -659 -864
-25 -149 -16 -383 21 -544 52 -230 134 -458 262 -728 41 -86 73 -165 71 -175
-3 -13 -11 -16 -37 -14 -20 2 -37 -1 -41 -9 -20 -31 51 -169 86 -169 9 0 21
14 27 30 20 53 45 36 105 -75 141 -261 332 -547 493 -739 128 -153 335 -330
488 -417 173 -99 324 -141 521 -142 146 -1 237 13 376 58 337 110 612 350 850
741 36 60 120 217 186 349 137 272 188 357 258 425 113 110 251 159 545 195
308 37 510 119 702 285 123 107 260 284 337 438 100 198 130 402 60 402 -8 0
-41 -18 -74 -41 -123 -84 -239 -107 -357 -71 -199 61 -307 235 -259 419 18 71
52 130 93 163 15 12 81 53 145 91 96 57 125 80 165 131 69 88 251 240 395 329
117 73 187 114 588 349 96 56 342 200 545 319 574 338 1707 1000 1995 1167 86
49 144 76 184 84 92 19 214 -2 339 -57 l58 -26 66 46 67 46 17 -28 c14 -23 16
-37 8 -67 -6 -29 -4 -52 8 -89 25 -80 37 -86 116 -64 44 12 117 73 117 98 0
32 -62 99 -109 119 -29 12 -53 31 -64 50 l-18 31 38 24 c51 32 208 117 216
117 4 0 14 -14 22 -30 12 -24 14 -39 6 -66 -10 -36 8 -123 31 -151 15 -18 66
-16 113 6 42 18 95 72 95 95 0 7 -16 33 -35 58 -27 34 -47 49 -80 58 -33 9
-46 19 -56 41 -6 16 -10 31 -8 33 6 6 116 51 193 80 l66 25 15 -29 c10 -19 13
-43 9 -73 -8 -56 19 -146 44 -149 64 -5 136 23 171 68 28 35 27 41 -15 97 -23
32 -44 50 -64 53 -34 7 -78 50 -64 63 5 4 68 25 141 46 129 37 131 38 148 75
l17 38 -35 63 c-38 70 -57 142 -57 220 0 54 -10 80 -45 119 -13 14 -28 44 -35
67 -9 37 -20 49 -83 92 -85 57 -149 123 -179 186 -12 25 -26 45 -30 45 -5 0
-55 -35 -111 -78 -56 -43 -123 -93 -150 -111 l-47 -32 2 63 c1 45 -5 76 -20
111 -20 44 -23 47 -59 47 -21 0 -56 -9 -78 -19z m127 -54 c37 -100 -7 -173
-88 -147 -40 13 -92 64 -100 98 -12 45 68 104 136 99 31 -2 36 -6 52 -50z
m357 1 c36 -63 99 -127 172 -174 57 -36 69 -49 82 -89 9 -26 30 -62 47 -81 25
-29 30 -43 30 -88 0 -78 17 -154 48 -216 15 -30 28 -58 30 -61 2 -4 -21 -12
-50 -19 -90 -22 -316 -99 -458 -156 -171 -70 -347 -162 -524 -276 l-140 -89
-78 25 c-95 32 -190 34 -298 7 -70 -18 -107 -20 -64 -5 10 4 117 46 236 94
195 78 218 85 223 69 9 -28 54 -59 86 -59 31 0 69 40 69 72 0 34 -29 77 -57
84 -23 6 -8 14 98 56 68 26 125 48 125 48 1 0 7 -14 14 -30 15 -36 37 -50 79
-50 68 0 96 85 45 137 -14 14 -24 27 -22 29 2 2 54 21 115 43 l110 39 12 -37
c18 -61 83 -80 126 -36 31 30 32 73 4 109 -26 33 -59 34 -114 1 -23 -13 -141
-60 -261 -104 -120 -44 -284 -105 -364 -135 -80 -30 -147 -53 -148 -51 -2 2 8
26 23 53 15 27 25 60 23 73 -3 21 -9 24 -50 27 -27 2 -48 7 -48 11 0 5 71 55
158 111 86 56 173 113 192 127 183 129 244 165 283 168 79 5 103 90 41 143
-50 44 -124 6 -124 -62 0 -18 6 -41 14 -51 13 -18 6 -24 -93 -92 l-106 -74 -6
37 c-10 61 -71 91 -117 57 -37 -27 -47 -65 -28 -103 l15 -31 -55 -34 c-29 -19
-79 -51 -109 -70 -31 -19 -57 -35 -58 -35 -2 0 -1 15 1 33 5 46 -29 87 -73 87
-56 0 -95 -58 -75 -113 8 -24 7 -32 -7 -42 -34 -25 -385 -207 -390 -202 -2 3
20 23 49 46 80 60 119 120 147 225 l16 58 120 43 c326 115 702 323 985 544 36
28 67 51 70 51 3 0 16 -19 29 -42z m-695 -169 c26 -64 16 -133 -22 -153 -23
-12 -33 -12 -72 3 -57 21 -108 87 -91 119 22 41 104 84 151 79 8 -1 23 -23 34
-48z m330 -4 c-23 -17 -34 -19 -34 -5 0 11 42 31 49 24 3 -2 -4 -11 -15 -19z
m146 -65 c11 -8 9 -9 -10 -5 -39 9 -68 -26 -53 -65 14 -37 0 -48 -21 -18 -21
29 -20 40 5 72 21 27 53 33 79 16z m-27 -63 c-9 -16 -26 12 -18 30 7 17 8 17
15 -2 4 -11 5 -24 3 -28z m46 -25 c-9 -16 -25 -28 -39 -30 l-25 -2 26 15 c28
15 48 48 25 39 -9 -3 -13 3 -13 20 0 24 0 24 21 5 19 -18 20 -22 5 -47z m-845
-2 c43 -109 3 -187 -83 -161 -42 12 -101 72 -101 101 0 22 61 79 96 90 58 17
71 13 88 -30z m371 -10 c7 -12 -42 -36 -53 -26 -4 4 2 14 12 22 23 17 33 18
41 4z m71 -101 c-28 -22 -35 -66 -14 -87 9 -9 8 -12 -5 -12 -19 0 -37 29 -37
59 0 27 34 61 61 61 21 0 20 -1 -5 -21z m49 -29 c0 -8 -10 -16 -22 -18 -22 -3
-32 16 -16 32 12 11 38 2 38 -14z m-489 -45 c-11 -8 -22 -12 -25 -9 -6 6 19
24 34 24 6 -1 1 -7 -9 -15z m466 -7 c-9 -9 -15 -9 -24 0 -9 9 -7 12 12 12 19
0 21 -3 12 -12z m19 -19 c-13 -10 -28 -19 -35 -19 -6 1 1 8 17 16 15 8 27 20
27 26 0 6 3 8 8 4 4 -4 -4 -16 -17 -27z m-51 -28 c0 -5 -35 -30 -77 -57 -81
-49 -282 -184 -510 -341 l-132 -91 -15 22 c-14 23 -12 25 142 121 86 55 213
133 282 175 69 42 161 99 205 128 78 50 105 61 105 43z m-306 -32 c34 -26 33
-41 -1 -37 -21 2 -27 8 -25 21 2 13 -2 18 -15 15 -14 -3 -18 -13 -18 -51 0
-49 -3 -55 -23 -35 -19 19 -14 57 13 83 29 30 35 31 69 4z m24 -69 c-7 -11
-16 -20 -20 -20 -11 0 -10 9 5 25 18 21 29 18 15 -5z m920 -11 c4 -24 3 -24
-12 -4 -19 24 -20 38 -3 33 6 -3 13 -15 15 -29z m-60 1 c-18 -28 1 -55 38 -55
24 0 30 5 32 28 4 35 22 35 22 0 0 -57 -60 -83 -100 -43 -24 24 -26 53 -4 74
21 22 27 20 12 -4z m-879 -24 c-19 -20 -445 -286 -456 -286 -5 0 -14 9 -20 20
-15 22 -27 14 224 148 192 103 183 98 218 110 38 13 39 13 34 8z m1321 -45 c0
-14 -30 -41 -45 -41 -27 0 -307 -91 -430 -139 -222 -89 -468 -220 -624 -334
-67 -48 -80 -52 -62 -19 13 25 53 54 181 134 259 160 515 275 835 373 116 36
145 41 145 26z m-1280 -56 c19 -10 30 -12 30 -5 0 6 10 10 23 8 17 -2 21 -9
19 -28 -1 -13 -6 -27 -10 -30 -4 -3 -16 -24 -26 -47 -22 -50 -25 -52 -261
-133 -99 -34 -182 -64 -184 -66 -19 -18 32 -5 192 51 167 58 186 62 184 45 -1
-11 -5 -20 -10 -20 -12 0 -179 -61 -275 -101 -40 -16 -77 -27 -81 -24 -5 2
-17 21 -26 42 l-18 37 33 26 c62 48 365 259 373 260 4 0 21 -7 37 -15z m550
-25 c-20 -12 -33 -1 -19 16 9 11 15 12 23 4 8 -8 7 -13 -4 -20z m-70 15 c0 -2
-14 -12 -32 -21 -37 -19 -459 -184 -472 -184 -12 0 14 29 38 42 29 16 438 167
454 167 6 1 12 -1 12 -4z m13 -30 c-7 -20 24 -55 49 -55 12 0 24 12 32 31 12
29 13 30 19 9 8 -31 -35 -74 -66 -65 -38 12 -60 40 -53 69 3 14 11 26 16 26 5
0 7 -7 3 -15z m48 -18 c-1 -12 -15 -9 -19 4 -3 6 1 10 8 8 6 -3 11 -8 11 -12z
m449 -42 c7 -9 11 -16 9 -18 -48 -27 -48 -27 -60 -6 -9 17 -8 23 2 30 20 13
35 11 49 -6z m-1550 -35 c0 -5 -7 -10 -15 -10 -8 0 -15 5 -15 10 0 6 7 10 15
10 8 0 15 -4 15 -10z m1610 -15 c44 -16 59 -29 87 -80 16 -29 15 -30 -21 -61
-36 -31 -107 -57 -131 -48 -37 15 -43 173 -7 194 22 12 23 12 72 -5z m-1650
-3 c0 -16 -342 -194 -352 -184 -6 6 29 31 99 67 59 32 135 73 168 91 60 34 85
41 85 26z m70 -27 c18 -34 3 -46 -21 -16 -22 27 -24 41 -6 41 8 0 20 -11 27
-25z m671 -11 c-13 -17 -59 -42 -128 -71 -338 -138 -349 -142 -339 -122 4 8 0
5 -9 -6 -12 -15 -19 -17 -32 -9 -28 18 -25 29 12 40 21 7 35 7 35 2 0 -6 13 1
29 15 16 13 62 36 103 51 53 19 305 109 346 125 2 0 -6 -11 -17 -25z m-707 -9
c16 -24 16 -24 -52 -63 -37 -22 -116 -65 -175 -97 -103 -55 -109 -56 -122 -39
-8 11 -14 25 -12 32 2 10 319 190 338 192 4 0 14 -11 23 -25z m730 -14 c-5
-24 -1 -32 19 -46 31 -20 63 -7 70 27 4 20 4 20 6 -4 2 -52 -61 -78 -101 -41
-20 18 -24 63 -6 81 17 17 18 15 12 -17z m64 18 c-2 -6 -8 -10 -13 -10 -5 0
-11 4 -13 10 -2 6 4 11 13 11 9 0 15 -5 13 -11z m-718 -49 c15 -28 2 -46 -16
-23 -7 10 -14 24 -14 31 0 19 18 14 30 -8z m1131 -1 c11 -22 0 -38 -28 -39
-18 0 -27 41 -12 51 21 13 27 11 40 -12z m-1163 -19 c7 -12 10 -25 8 -29 -7
-11 -332 -191 -346 -191 -11 0 -36 47 -29 54 2 2 65 37 139 77 74 40 149 81
165 91 38 23 47 23 63 -2z m75 -49 c21 -35 21 -41 4 -41 -13 0 -37 40 -37 60
0 19 16 10 33 -19z m1160 12 c27 -5 97 -78 97 -100 0 -21 -79 -82 -114 -89
-52 -9 -63 -1 -81 58 -12 41 -13 60 -4 88 13 41 37 63 59 55 8 -4 28 -9 43
-12z m-1195 -34 c18 -29 18 -29 -175 -137 l-162 -90 -15 24 c-9 13 -16 27 -16
31 1 9 329 192 345 192 6 1 16 -9 23 -20z m-506 -23 c0 -14 -304 -177 -318
-172 -7 3 -14 0 -17 -7 -2 -7 -5 -8 -10 -1 -6 11 319 195 336 191 5 -2 9 -6 9
-11z m591 -36 c18 -29 18 -30 -1 -30 -15 0 -42 35 -42 55 0 17 29 0 43 -25z
m-523 -24 c0 -6 -7 -2 -15 8 -8 11 -15 25 -15 30 0 6 7 2 15 -8 8 -11 15 -25
15 -30z m-31 8 c6 -15 10 -28 9 -29 -2 -1 -50 -28 -108 -60 -58 -31 -128 -70
-157 -86 l-51 -28 -17 26 c-14 21 -15 27 -3 38 17 17 290 164 304 165 6 0 16
-12 23 -26z m511 1 c7 -14 11 -27 9 -29 -7 -6 -341 -196 -345 -196 -2 0 -10
13 -19 29 -12 24 -12 32 -2 38 44 29 324 182 333 183 6 0 17 -11 24 -25z m465
-29 c52 -18 60 -25 63 -49 l3 -28 -49 25 c-46 23 -118 44 -217 62 l-40 8 40 6
c57 9 131 0 200 -24z m284 8 c10 -22 9 -28 -6 -40 -16 -12 -20 -11 -36 8 -16
20 -16 22 -1 39 23 25 29 24 43 -7z m-1190 -59 c0 -5 -6 -1 -14 9 -8 11 -15
24 -15 30 0 5 7 1 15 -10 8 -10 14 -23 14 -29z m-33 18 c7 -10 14 -23 14 -30
0 -9 -298 -183 -314 -183 -3 0 -12 13 -21 29 l-15 30 158 85 c86 47 159 86
161 86 2 0 10 -8 17 -17z m509 8 c-3 -6 -31 -24 -63 -42 -31 -18 -108 -64
-171 -101 -83 -50 -117 -65 -122 -56 -5 8 15 26 64 54 40 23 115 67 167 97 87
51 140 71 125 48z m790 -30 c37 -16 95 -77 95 -98 0 -19 -67 -72 -107 -83 -55
-17 -68 -10 -87 46 -18 53 -8 119 22 142 21 16 29 15 77 -7z m-1231 -46 c9
-14 13 -25 8 -25 -5 0 -14 11 -20 25 -6 14 -10 25 -8 25 2 0 11 -11 20 -25z
m-20 -13 l14 -28 -121 -69 c-218 -122 -196 -113 -213 -90 -8 11 -13 25 -12 32
3 11 292 181 310 183 4 0 14 -13 22 -28z m-475 -5 c-26 -23 -293 -158 -304
-154 -7 3 -16 2 -19 -4 -2 -5 -3 -4 -2 3 3 19 309 178 320 167 5 -5 8 -10 5
-12z m60 -52 c0 -5 -6 -1 -14 9 -8 11 -15 24 -15 30 0 5 7 1 15 -10 8 -10 14
-23 14 -29z m-26 6 l17 -29 -75 -41 c-41 -23 -109 -60 -152 -83 l-76 -41 -19
23 c-10 13 -17 28 -15 33 3 9 284 166 297 167 3 0 13 -13 23 -29z m517 -33 c0
-17 -10 -6 -25 25 l-16 32 20 -25 c11 -14 21 -28 21 -32z m-20 -10 c0 -7 -274
-172 -304 -184 -9 -3 -22 5 -32 21 -23 34 -22 35 156 134 l145 80 17 -22 c10
-12 18 -25 18 -29z m-435 -20 l16 -33 -20 25 c-20 24 -26 40 -16 40 2 0 12
-15 20 -32z m-6 -42 c-2 -2 -38 -22 -79 -44 -41 -22 -106 -58 -145 -81 l-70
-41 -17 21 c-10 12 -18 26 -18 33 0 6 66 48 148 93 l147 81 19 -29 c10 -17 17
-31 15 -33z m447 9 c-10 -8 -82 -51 -158 -96 -110 -64 -142 -79 -151 -69 -8 8
-8 14 -2 17 6 2 78 43 160 92 97 57 154 85 160 79 7 -6 4 -14 -9 -23z m-876
-35 c0 -9 -263 -153 -277 -151 -29 4 9 33 127 97 125 67 150 77 150 54z m459
-17 c7 -14 8 -29 4 -34 -15 -13 -273 -159 -283 -159 -15 0 -44 50 -34 59 5 5
38 24 74 42 36 18 97 53 135 76 39 23 75 43 81 43 6 0 16 -12 23 -27z m-430
-29 c6 -15 14 -24 17 -21 3 3 0 16 -6 29 -11 23 -11 23 8 -1 20 -25 20 -25 -2
-42 -30 -24 -260 -149 -273 -149 -13 0 -47 50 -39 57 7 7 269 151 277 152 3 1
11 -11 18 -25z m511 -72 c0 -4 -9 7 -20 23 -11 17 -20 35 -20 40 0 6 9 -5 20
-23 11 -18 20 -36 20 -40z m-37 27 c10 -18 16 -33 15 -34 -15 -12 -288 -164
-304 -169 -16 -5 -23 0 -33 20 -8 18 -9 30 -2 37 10 10 292 175 301 176 3 1
13 -13 23 -30z m-392 -41 c5 -10 6 -18 1 -18 -5 0 -14 11 -20 25 -22 49 -11
44 19 -7z m-32 5 c16 -35 14 -36 -138 -119 l-124 -67 -19 23 c-10 13 -17 27
-16 32 4 11 257 156 274 157 6 1 16 -11 23 -26z m458 -29 c2 -5 -63 -48 -144
-95 -125 -73 -149 -84 -157 -71 -6 10 -6 17 0 19 5 2 70 39 144 83 132 76 150
84 157 64z m-862 -23 c-14 -13 -227 -129 -245 -133 -8 -2 -15 3 -15 10 0 18
247 152 260 141 6 -6 6 -12 0 -18z m449 -23 c9 -12 16 -25 16 -29 0 -7 -265
-159 -279 -159 -9 0 -36 58 -30 64 14 12 256 145 266 145 6 1 19 -9 27 -21z
m-401 -58 c-14 -14 -254 -143 -257 -139 -2 2 -10 18 -19 35 l-16 30 132 71
132 71 18 -30 c10 -17 15 -34 10 -38z m15 44 c7 -14 8 -23 2 -19 -15 9 -32 45
-22 45 5 0 14 -12 20 -26z m452 -94 c0 -6 -258 -154 -276 -158 -15 -4 -51 60
-38 65 5 2 68 37 139 78 l130 75 22 -28 c13 -15 23 -29 23 -32z m-405 18 l16
-33 -20 25 c-20 24 -26 40 -16 40 2 0 12 -15 20 -32z m-22 -9 c10 -18 16 -33
15 -34 -19 -15 -99 -54 -120 -59 -16 -4 -28 -10 -28 -15 0 -14 -113 -76 -117
-64 -2 5 -11 19 -19 29 -10 12 -14 14 -11 4 3 -8 8 -24 12 -35 3 -11 -1 -7
-10 8 -19 33 -33 30 -15 -3 9 -18 9 -25 -2 -35 -20 -19 -209 -125 -223 -125
-7 0 -18 14 -25 30 -16 38 -18 36 139 116 64 32 118 62 121 66 3 4 57 35 120
69 63 33 119 65 125 70 14 14 19 11 38 -22z m-383 -32 c0 -12 -215 -132 -235
-132 -5 0 -10 6 -10 13 0 14 225 142 238 135 4 -2 7 -10 7 -16z m825 -15 c0
-7 -45 -38 -100 -70 -55 -33 -117 -69 -137 -81 -36 -21 -38 -22 -45 -5 -4 10
-2 19 3 21 5 2 65 37 134 78 121 72 145 81 145 57z m-769 -23 c10 -21 11 -29
3 -23 -9 5 -11 2 -6 -9 5 -13 -21 -31 -115 -83 l-122 -67 -18 23 c-10 13 -18
29 -16 37 2 7 55 42 118 77 l115 64 17 -22 c10 -11 18 -16 18 -9 0 6 -4 15
-10 18 -5 3 -10 10 -10 16 0 17 9 9 26 -22z m403 -24 c0 -5 -6 1 -14 15 -8 14
-14 30 -14 35 0 6 6 -1 14 -15 8 -14 14 -29 14 -35z m-19 -10 c0 -11 -237
-155 -255 -155 -5 0 -35 55 -35 64 0 3 26 19 58 35 31 16 89 48 127 70 l70 41
18 -21 c9 -12 17 -27 17 -34z m55 -45 c9 -16 13 -30 11 -30 -3 0 -12 14 -21
30 -9 17 -13 30 -11 30 3 0 12 -13 21 -30z m-20 -11 c9 -17 14 -33 11 -36 -3
-3 -61 -38 -128 -78 l-123 -73 -17 27 c-10 14 -18 31 -18 38 0 10 233 151 252
152 4 1 15 -13 23 -30z m-752 -29 c-22 -21 -217 -119 -225 -114 -19 12 0 26
102 83 75 41 109 55 118 48 7 -6 9 -13 5 -17z m54 -80 c-12 -9 -67 -41 -121
-70 l-99 -53 -19 22 c-10 13 -18 29 -18 37 0 12 195 124 216 124 5 0 18 -12
28 -27 16 -26 16 -23 0 25 -3 9 3 4 14 -12 l21 -29 -22 -17z m389 3 c-5 -5
-36 50 -36 64 0 4 9 -7 21 -26 11 -18 18 -35 15 -38z m364 56 c0 -5 -5 -7 -12
-3 -8 5 -9 2 -5 -9 5 -12 -21 -32 -112 -86 -132 -78 -143 -83 -148 -61 -2 10
39 40 129 92 138 80 148 85 148 67z m-385 -69 c-5 -8 -212 -130 -227 -133 -5
-1 -17 12 -29 30 l-20 32 48 27 c26 15 82 46 123 70 l74 43 18 -30 c10 -17 16
-34 13 -39z m-2655 -15 c104 -20 267 -72 276 -87 5 -8 2 -9 -10 -5 -9 4 -58 8
-109 11 -51 2 -67 1 -37 -2 l55 -5 -85 -12 -85 -12 125 4 c144 5 183 -3 188
-36 2 -13 0 -27 -6 -33 -5 -5 -56 -19 -113 -32 -277 -63 -431 -188 -469 -383
-29 -146 49 -286 199 -356 37 -17 89 -33 123 -36 l58 -6 -121 -65 c-139 -74
-169 -95 -169 -117 0 -14 3 -13 23 3 24 22 73 54 82 54 3 0 5 -7 5 -15 0 -18
-100 -69 -111 -57 -4 4 -32 48 -62 97 -84 138 -67 138 -306 5 -111 -62 -207
-122 -212 -132 -13 -25 -7 -43 52 -143 28 -47 47 -90 44 -95 -4 -6 -37 -26
-74 -44 -36 -19 -176 -93 -311 -166 -229 -124 -245 -131 -257 -113 -8 10 -34
55 -59 101 -49 90 -72 107 -115 88 -52 -22 -371 -201 -390 -219 -29 -27 -24
-50 35 -152 l54 -94 -33 -19 c-62 -38 -70 -37 -89 10 -10 24 -24 57 -32 75
-18 43 -65 67 -122 60 -62 -7 -97 -43 -97 -101 0 -37 6 -50 41 -88 75 -82 77
-77 -37 -152 -55 -37 -104 -64 -110 -61 -13 9 -48 79 -52 107 -2 12 -12 27
-23 32 -10 6 -21 12 -24 14 -2 1 -4 15 -5 30 0 29 -32 52 -73 52 -62 0 -132
-61 -132 -116 0 -12 84 -171 186 -355 103 -184 214 -383 247 -444 33 -60 67
-116 76 -123 20 -16 76 -15 110 3 67 34 105 116 61 130 -11 3 -20 13 -20 21 0
8 -9 23 -19 33 -11 11 -17 22 -14 24 2 3 -10 32 -29 65 -18 33 -31 62 -28 65
12 9 231 127 238 127 12 0 59 -84 67 -118 12 -56 73 -91 129 -72 76 25 107
110 59 162 -17 19 -83 123 -83 131 0 6 70 40 74 36 2 -2 25 -42 52 -89 57
-102 72 -120 94 -120 12 0 24 -18 38 -57 25 -69 29 -89 42 -213 14 -128 27
-184 62 -254 55 -109 174 -209 261 -218 26 -3 29 2 60 77 102 251 325 436 602
500 33 8 146 30 250 50 284 53 419 99 542 184 98 67 177 154 197 219 7 21 5
22 -51 22 -199 0 -366 122 -419 305 -25 88 -15 190 35 348 23 70 44 145 47
167 4 22 10 40 13 40 4 0 33 15 64 34 31 19 57 31 57 26 0 -5 -5 -12 -10 -15
-6 -4 -27 -39 -47 -78 -90 -179 -28 -397 150 -532 138 -105 329 -111 480 -16
26 17 47 28 47 26 0 -3 -19 -27 -41 -53 -24 -27 -15 -20 19 16 34 34 66 62 72
62 19 0 10 -108 -16 -192 -35 -111 -121 -276 -199 -379 -75 -101 -226 -249
-313 -308 -189 -128 -381 -182 -757 -211 -338 -27 -428 -73 -598 -310 -9 -14
1 13 24 60 54 112 112 192 193 267 125 118 245 165 525 208 320 49 497 119
666 266 142 123 305 346 305 418 0 18 -6 17 -72 -19 -171 -91 -339 -75 -467
45 -54 50 -87 109 -108 190 l-13 50 5 -44 c14 -109 99 -220 208 -272 117 -54
242 -48 366 17 36 18 67 31 70 29 7 -8 -36 -92 -86 -168 -64 -96 -198 -234
-288 -296 -155 -108 -312 -164 -555 -200 -195 -29 -299 -56 -395 -100 -157
-74 -266 -192 -365 -395 -32 -67 -97 -202 -144 -300 -154 -320 -291 -522 -476
-706 -121 -120 -227 -199 -361 -269 -181 -95 -345 -135 -544 -135 -353 2 -644
146 -904 449 -233 271 -558 796 -630 1017 -7 21 -17 37 -23 35 -14 -3 -141
270 -200 428 -105 279 -148 469 -155 681 -9 237 27 410 123 595 58 113 121
194 225 294 176 168 386 278 639 332 131 28 440 25 675 -6 491 -65 691 14
1008 393 175 211 271 301 437 408 196 128 405 206 635 237 98 14 363 6 465
-14z m2343 -16 c10 -18 16 -34 13 -36 -2 -3 -12 9 -21 27 -9 18 -19 29 -22 26
-3 -3 2 -17 11 -32 10 -14 16 -27 14 -29 -2 -1 -52 -30 -112 -64 l-110 -62
-18 23 c-24 32 -23 43 10 66 29 21 202 112 211 112 3 0 14 -14 24 -31z m387
-47 c0 -4 -9 7 -20 23 -11 17 -20 35 -20 40 0 6 9 -5 20 -23 11 -18 20 -36 20
-40z m-36 27 c10 -17 16 -32 14 -34 -10 -10 -227 -133 -244 -139 -14 -4 -24 2
-37 26 -10 17 -16 33 -13 35 2 3 12 -9 21 -27 9 -18 19 -30 21 -27 3 3 -2 19
-10 36 l-16 30 42 24 c24 14 75 43 113 65 39 23 75 41 80 42 6 0 19 -14 29
-31z m-723 6 c0 -12 -182 -116 -196 -112 -26 9 -2 32 80 77 86 48 116 56 116
35z m70 -60 c7 -13 3 -12 -10 5 -11 14 -21 30 -21 35 0 11 14 -7 31 -40z m-27
4 c10 -17 16 -32 14 -35 -3 -2 -49 -28 -103 -58 l-99 -55 -18 27 c-10 15 -18
32 -18 39 0 11 173 110 195 112 6 1 19 -13 29 -30z m386 -31 c0 -17 -10 -6
-25 25 l-16 32 20 -25 c11 -14 21 -28 21 -32z m-35 12 c9 -17 13 -35 10 -40
-11 -17 -205 -121 -215 -115 -6 3 -17 19 -25 35 l-14 28 67 35 c37 19 87 46
112 61 25 14 46 26 47 26 1 0 10 -14 18 -30z m382 7 c-3 -8 -60 -46 -128 -86
-92 -54 -124 -69 -131 -59 -4 7 -8 15 -8 18 0 3 53 35 117 72 87 49 121 64
130 56 10 -8 13 -6 13 7 0 10 3 16 6 12 4 -3 4 -12 1 -20z m-1008 -70 c-2 -2
-46 -26 -97 -52 -75 -38 -96 -45 -102 -34 -7 10 10 24 68 56 42 23 84 46 92
51 10 7 20 6 29 -4 8 -7 13 -15 10 -17z m326 -7 l15 -29 -72 -42 c-40 -23 -83
-48 -95 -55 -32 -20 -41 -18 -59 17 -11 21 -12 35 -6 41 19 19 187 106 195
101 4 -2 14 -17 22 -33z m20 10 c9 -16 13 -30 11 -30 -3 0 -12 14 -21 30 -9
17 -13 30 -11 30 3 0 12 -13 21 -30z m328 -19 c9 -16 17 -34 17 -39 0 -14
-208 -134 -220 -127 -6 3 -17 19 -25 35 -17 34 -24 28 105 100 41 23 79 46 85
51 14 14 19 11 38 -20z m-618 -21 c22 -42 18 -51 -5 -12 -20 33 -24 42 -15 42
2 0 11 -13 20 -30z m-22 -9 c9 -16 17 -31 17 -34 0 -3 -16 -15 -36 -28 -33
-20 -37 -21 -46 -6 -13 23 -51 4 -43 -22 4 -13 -4 -22 -29 -34 l-35 -16 -22
36 c-13 20 -19 38 -13 40 5 2 45 23 89 48 44 24 85 45 90 45 6 0 18 -13 28
-29z m360 -33 c10 -16 14 -28 9 -28 -8 0 -32 43 -32 57 0 7 1 6 23 -29z m-19
-9 c10 -17 16 -32 14 -34 -1 -2 -47 -29 -101 -60 -93 -53 -99 -56 -113 -38
-15 20 -28 53 -22 58 10 10 184 104 193 105 6 0 19 -14 29 -31z m340 -5 c4 -9
5 -18 4 -19 -2 -1 -50 -30 -108 -63 -80 -47 -107 -58 -117 -50 -9 7 -10 15 -4
21 11 11 203 126 212 126 4 1 10 -6 13 -15z m-944 -18 c0 -16 -148 -99 -166
-92 -26 10 -14 23 69 68 81 45 97 49 97 24z m316 -28 c9 -17 12 -34 7 -38 -4
-4 -45 -27 -91 -51 l-83 -44 -19 25 c-11 14 -20 30 -20 36 0 14 171 114 183
107 4 -2 14 -18 23 -35z m34 -10 c0 -17 -10 -6 -25 25 l-16 32 20 -25 c11 -14
21 -28 21 -32z m-278 -32 c6 -12 6 -16 0 -12 -5 3 -12 0 -15 -7 -2 -6 -42 -32
-87 -56 -80 -42 -84 -43 -97 -25 -38 50 -38 50 54 100 l87 47 23 -29 c26 -33
30 -26 7 14 -15 25 -15 26 1 7 9 -11 21 -28 27 -39z m597 20 c12 -18 21 -37
21 -42 0 -5 -11 9 -25 31 -26 42 -35 38 -10 -5 8 -14 14 -28 15 -32 0 -3 -26
-21 -57 -38 -32 -18 -77 -44 -100 -57 l-42 -25 -21 34 c-11 18 -20 36 -20 40
0 5 208 128 217 128 1 0 11 -15 22 -34z m-284 -46 c22 -42 18 -51 -5 -12 -20
33 -24 42 -15 42 2 0 11 -13 20 -30z m-22 -10 c10 -17 16 -34 13 -39 -7 -11
-161 -101 -173 -101 -17 0 -46 61 -35 72 11 11 163 97 172 98 3 0 14 -14 23
-30z m-570 -4 c4 -9 -21 -27 -73 -55 -69 -37 -79 -39 -84 -24 -4 10 -4 19 1
20 4 2 35 19 68 37 67 39 81 42 88 22z m322 -26 c22 -42 18 -51 -5 -12 -20 33
-24 42 -15 42 2 0 11 -13 20 -30z m586 -4 c-7 -8 -56 -40 -108 -71 -72 -42
-99 -52 -105 -43 -4 7 -8 16 -8 20 0 4 44 32 97 62 79 45 100 53 112 43 12
-10 14 -9 7 8 -6 16 -5 17 5 8 10 -10 10 -15 0 -27z m-606 -6 c9 -17 13 -35
10 -40 -8 -12 -146 -90 -160 -90 -15 0 -52 73 -40 77 6 2 42 21 80 43 39 22
76 40 82 40 7 0 20 -14 28 -30z m-234 -35 l10 -20 -16 20 c-9 11 -21 29 -26
40 l-10 20 16 -20 c9 -11 21 -29 26 -40z m-25 3 c8 -16 14 -31 12 -33 -9 -9
-150 -86 -152 -83 -22 29 -36 55 -36 65 0 14 140 94 152 87 4 -3 15 -19 24
-36z m603 -10 c12 -21 20 -38 17 -38 -8 0 -46 62 -46 74 0 11 1 10 29 -36z
m-21 -12 l20 -34 -86 -52 c-47 -28 -89 -52 -94 -53 -13 -3 -55 75 -43 79 6 3
44 24 85 49 41 24 80 44 87 45 6 0 20 -15 31 -34z m-249 -28 c12 -21 19 -38
14 -38 -9 0 -43 62 -43 77 0 8 2 5 29 -39z m-565 17 c3 -10 -9 -23 -37 -39
-74 -43 -96 -51 -109 -38 -14 14 -17 12 62 56 74 41 76 41 84 21z m541 -21 c9
-14 14 -31 12 -37 -7 -18 -155 -99 -167 -92 -6 3 -17 19 -25 35 l-15 29 47 27
c27 15 62 35 78 45 40 25 50 24 70 -7z m-225 -49 c0 -5 -9 4 -20 20 -11 17
-20 35 -20 40 0 6 9 -3 20 -20 11 -16 20 -34 20 -40z m-35 19 c19 -36 19 -36
0 -51 -11 -8 -46 -28 -78 -44 l-57 -29 -20 32 c-11 18 -20 36 -20 40 0 6 139
87 150 88 3 0 14 -16 25 -36z m-205 -39 c0 -5 -9 5 -20 23 -26 42 -26 56 0 17
11 -16 20 -34 20 -40z m-37 25 c10 -17 16 -34 12 -39 -3 -6 -35 -25 -70 -44
l-65 -34 -20 34 c-11 19 -20 36 -20 38 0 6 124 75 135 75 6 0 19 -14 28 -30z
m814 3 c2 -6 -38 -36 -89 -67 -78 -47 -94 -53 -101 -40 -11 20 -11 20 81 76
77 46 102 54 109 31z m-237 -43 c11 -22 19 -40 16 -40 -4 0 -46 68 -46 76 0
13 12 -1 30 -36z m-23 -9 l22 -38 -83 -47 c-45 -25 -85 -46 -89 -46 -11 0 -51
74 -41 77 5 2 43 23 84 48 41 25 77 45 80 45 3 0 15 -17 27 -39z m-772 11 c0
-14 -115 -83 -127 -76 -20 13 -4 35 45 62 54 31 82 36 82 14z m532 -25 c14
-23 17 -36 9 -43 -12 -10 -155 -94 -162 -94 -2 0 -13 18 -24 40 l-20 40 80 40
80 40 15 -31 c9 -17 19 -29 21 -26 3 3 -2 19 -11 36 -21 41 -12 40 12 -2z
m-238 -19 c12 -21 20 -38 18 -38 -7 0 -47 65 -47 75 0 10 1 8 29 -37z m-223
-20 c8 -16 13 -28 10 -28 -5 0 -46 69 -46 78 0 8 15 -13 36 -50z m216 -30 c-4
-3 -37 -22 -73 -42 l-65 -36 -23 40 -22 39 73 40 72 40 22 -37 c13 -20 20 -40
16 -44z m-283 -36 c-33 -19 -66 -31 -74 -28 -8 3 -21 19 -30 35 l-15 31 67 34
68 34 21 -36 22 -37 -59 -33z m-145 52 c6 -15 4 -15 -11 -3 -15 12 -16 12 -11
-2 5 -13 -8 -24 -51 -48 -32 -17 -61 -28 -65 -24 -17 17 0 37 57 63 72 35 73
35 81 14z m956 -9 c0 -20 -163 -116 -172 -102 -16 25 -5 37 74 80 82 45 98 49
98 22z m-224 -37 c9 -16 11 -27 5 -23 -6 3 -18 20 -27 37 -9 16 -11 27 -5 23
6 -3 18 -20 27 -37z m-27 -2 c12 -18 21 -36 21 -39 0 -3 -34 -24 -76 -47 -82
-45 -78 -45 -109 12 l-15 26 73 40 c39 22 75 41 79 41 3 1 16 -14 27 -33z
m-663 -19 c14 -30 14 -31 -1 -12 -25 30 -39 59 -26 51 6 -4 18 -22 27 -39z
m213 7 c12 -20 20 -38 18 -40 -2 -2 -14 14 -26 36 -28 50 -21 53 8 4z m234 1
c9 -19 15 -35 13 -35 -2 0 -13 16 -25 35 -11 19 -17 35 -13 35 5 0 16 -16 25
-35z m-467 -17 c18 -34 17 -35 -48 -72 l-47 -28 -21 34 c-11 18 -19 38 -17 43
5 14 99 65 109 59 5 -3 15 -19 24 -36z m220 1 c16 -33 6 -59 -23 -59 -8 0 -29
-11 -47 -25 -18 -14 -35 -25 -39 -25 -11 0 -48 70 -42 80 9 15 118 69 128 63
4 -2 14 -18 23 -34z m227 3 l18 -31 -70 -40 c-85 -50 -101 -57 -101 -41 0 6 5
8 10 5 15 -9 12 8 -6 33 -9 13 -13 29 -10 37 6 16 116 76 131 71 5 -1 18 -17
28 -34z m-631 0 c3 8 7 6 11 -6 4 -10 3 -15 -3 -11 -6 3 -10 2 -10 -3 0 -13
-98 -64 -110 -57 -21 13 -9 31 38 56 28 15 52 22 59 17 6 -5 13 -4 15 4z m930
-34 c6 -18 -8 -30 -93 -82 -71 -43 -88 -45 -89 -9 0 6 32 30 71 52 60 35 74
39 87 29 13 -11 15 -10 9 5 -3 9 -2 17 2 17 5 0 11 -6 13 -12z m-868 -49 c10
-17 14 -29 8 -26 -5 4 -20 24 -32 44 -12 20 -16 32 -8 26 7 -6 22 -26 32 -44z
m635 15 c12 -20 20 -39 17 -41 -2 -3 -14 13 -26 36 -25 51 -20 54 9 5z m-659
-25 c7 -16 11 -31 9 -33 -2 -1 -25 -14 -51 -29 l-46 -27 -21 34 c-12 18 -21
38 -21 43 0 5 21 21 47 36 52 28 63 25 83 -24z m219 15 c29 -49 26 -57 -4 -12
-14 20 -25 39 -25 42 0 13 9 4 29 -30z m-20 -10 c12 -19 21 -37 21 -39 0 -3
-107 -65 -114 -65 -4 0 -46 68 -46 75 0 3 103 60 117 65 0 0 10 -16 22 -36z
m228 -11 c2 3 0 16 -7 29 -10 21 -10 22 4 5 29 -37 14 -69 -50 -104 -32 -18
-62 -33 -66 -33 -3 0 -16 16 -27 36 -21 35 -21 37 -4 50 10 7 24 14 31 14 7 0
30 11 50 25 l36 25 14 -26 c7 -14 16 -24 19 -21z m216 12 c9 -20 17 -37 17
-39 0 -5 -126 -76 -133 -76 -6 0 -47 64 -47 73 0 8 122 77 136 77 6 0 18 -16
27 -35z m-829 -16 c-3 -5 -24 -19 -46 -30 -33 -17 -42 -18 -49 -7 -13 20 -12
23 34 45 29 14 46 18 54 11 7 -6 10 -14 7 -19z m64 -49 c28 -50 22 -53 -8 -4
-12 19 -25 33 -27 30 -3 -3 4 -20 15 -38 l21 -33 -49 -27 -49 -27 -20 33 c-12
18 -21 38 -21 44 0 9 94 62 109 62 4 0 16 -18 29 -40z m191 -6 c12 -20 20 -39
17 -41 -2 -3 -12 9 -21 27 -9 18 -19 29 -22 26 -3 -3 2 -17 11 -30 9 -14 16
-29 16 -33 0 -8 -91 -63 -104 -63 -3 0 -15 18 -26 39 l-20 39 46 26 c26 14 53
26 60 26 8 0 14 5 14 10 0 18 7 11 29 -26z m201 -14 c11 -22 18 -40 15 -40 -2
0 -12 14 -20 31 -9 17 -19 29 -21 26 -3 -3 2 -20 11 -37 19 -36 19 -36 -48
-74 l-47 -27 -21 36 c-24 40 -33 45 -24 13 5 -20 5 -21 -5 -5 -16 25 -2 40 69
74 31 16 58 31 59 36 6 13 11 8 32 -33z m-582 9 c3 -18 -70 -55 -87 -45 -6 4
-11 0 -11 -11 0 -14 -2 -15 -9 -4 -10 16 4 34 48 63 31 20 55 19 59 -3z m802
-11 c11 -18 20 -37 20 -43 -1 -5 -10 7 -21 28 -11 22 -23 37 -25 34 -3 -3 2
-20 11 -38 14 -26 15 -33 4 -40 -8 -5 -37 -22 -66 -38 l-51 -30 -21 35 c-12
19 -21 39 -21 43 0 7 134 81 146 81 2 0 13 -15 24 -32z m192 22 c0 -5 1 -15 2
-20 1 -6 -28 -28 -64 -50 -47 -29 -66 -36 -72 -27 -16 24 -7 36 55 71 67 38
76 41 79 26z m-933 -66 c12 -20 20 -38 18 -40 -2 -2 -14 14 -26 36 -28 50 -21
53 8 4z m-19 -10 c12 -19 21 -36 19 -38 -14 -10 -77 -46 -82 -46 -5 0 -47 67
-47 75 0 6 65 45 77 45 6 0 21 -16 33 -36z m204 -21 c14 -24 23 -43 18 -43 -5
0 -16 16 -26 36 -9 20 -19 34 -22 31 -3 -3 2 -19 10 -36 9 -16 16 -32 16 -35
0 -6 -69 -46 -80 -46 -9 0 -50 62 -50 77 0 11 69 48 88 46 6 0 12 4 12 10 0
13 2 11 34 -40z m-367 21 c2 -6 -12 -21 -31 -32 -35 -21 -36 -21 -46 -2 -9 16
-6 22 17 34 31 17 54 17 60 0z m542 -44 l22 -39 -53 -30 -53 -30 -22 37 c-13
20 -23 39 -23 42 0 7 83 58 96 59 6 1 20 -17 33 -39z m220 4 c12 -20 20 -38
18 -41 -4 -4 -47 63 -47 73 0 11 10 1 29 -32z m-700 -10 c12 -20 20 -38 18
-40 -2 -2 -14 14 -26 36 -28 50 -21 53 8 4z m680 -5 c13 -22 21 -42 20 -43
-15 -11 -103 -56 -110 -56 -9 0 -49 59 -49 72 0 7 99 68 111 68 3 0 16 -18 28
-41z m201 37 c0 -2 2 -11 6 -19 6 -16 -114 -93 -127 -80 -19 20 -10 35 41 67
50 31 80 43 80 32z m-1505 -14 c22 -15 126 -195 121 -208 -9 -24 -20 -16 -58
47 -33 52 -41 59 -60 54 -39 -12 -323 -173 -333 -189 -7 -11 -2 -31 18 -71 32
-65 31 -61 13 -68 -22 -9 -133 189 -119 212 10 16 379 229 398 230 6 0 15 -3
20 -7z m604 -28 c12 -19 21 -39 21 -43 0 -6 -63 -41 -75 -41 -3 0 -14 18 -25
40 l-20 40 32 20 c18 11 36 20 40 20 3 0 15 -16 27 -36z m-125 9 c5 -13 4 -14
-9 -3 -12 10 -15 10 -15 -4 0 -8 -14 -23 -31 -32 -26 -13 -33 -14 -40 -2 -13
20 -11 23 22 39 42 20 66 21 73 2z m346 -78 c0 -5 -11 8 -25 30 -13 22 -24 45
-25 50 0 6 11 -8 25 -30 13 -22 24 -44 25 -50z m-41 34 c13 -22 21 -41 20 -43
-14 -10 -77 -46 -82 -46 -7 0 -47 68 -47 80 0 8 66 48 81 50 3 0 16 -18 28
-41z m-269 -19 c11 -22 18 -40 15 -40 -2 0 -14 18 -25 40 -11 22 -18 40 -15
40 2 0 14 -18 25 -40z m469 4 c12 -20 20 -38 18 -40 -2 -2 -14 14 -26 36 -28
50 -21 53 8 4z m-489 -14 l20 -40 -32 -20 -33 -20 -22 38 c-29 47 -29 48 5 66
38 21 39 21 62 -24z m470 4 c23 -40 23 -40 -32 -73 l-36 -21 -21 33 c-12 19
-21 39 -21 44 0 8 67 52 82 53 3 0 16 -16 28 -36z m-617 12 c6 -14 -31 -46
-52 -46 -23 0 -19 31 7 44 34 19 39 19 45 2z m827 -68 c0 -5 -21 -21 -47 -38
l-48 -29 -22 37 c-13 20 -23 42 -23 47 0 6 22 22 48 36 l47 27 22 -37 c13 -20
23 -39 23 -43z m11 27 l10 -20 -16 20 c-9 11 -21 29 -26 40 l-10 20 16 -20 c9
-11 21 -29 26 -40z m180 34 c8 -15 8 -19 0 -15 -6 4 -11 1 -11 -6 0 -7 -26
-28 -56 -47 -45 -27 -58 -31 -65 -20 -5 8 -9 19 -9 24 0 16 99 67 117 61 11
-4 14 -2 9 9 -8 22 2 18 15 -6z m-681 -39 c11 -22 18 -40 15 -40 -2 0 -14 18
-25 40 -11 22 -18 40 -15 40 2 0 14 -18 25 -40z m-250 -55 c0 -5 -11 8 -25 30
-13 22 -24 45 -25 50 0 6 11 -8 25 -30 13 -22 24 -44 25 -50z m230 44 c12 -23
20 -42 18 -44 -6 -5 -67 -35 -72 -35 -7 0 -49 81 -44 84 29 22 55 36 65 36 7
0 22 -18 33 -41z m-271 -15 c12 -19 21 -37 21 -39 0 -3 -14 -12 -31 -21 -33
-17 -34 -17 -60 29 -5 10 -14 15 -19 12 -5 -3 -12 0 -16 6 -4 8 -3 9 4 5 7 -4
12 -1 12 7 0 14 33 35 57 36 6 1 20 -15 32 -35z m477 -16 c8 -16 13 -28 10
-28 -6 0 -46 66 -46 76 0 10 14 -8 36 -48z m-29 3 l23 -39 -45 -26 -45 -25
-20 39 c-11 22 -20 42 -20 45 0 7 63 45 75 45 6 0 20 -18 32 -39z m-792 -14
c14 -24 25 -48 25 -54 0 -5 -16 -17 -35 -26 -34 -16 -36 -16 -55 3 -11 11 -24
20 -29 20 -17 0 -33 -31 -28 -55 4 -24 -3 -30 -87 -73 -50 -26 -94 -48 -98
-50 -11 -5 -61 87 -55 102 7 17 295 176 319 176 10 0 28 -19 43 -43z m1011
-44 c-5 -5 -46 71 -46 84 0 4 12 -12 25 -36 14 -24 23 -46 21 -48z m-485 36
c11 -23 16 -38 11 -35 -6 3 -12 -1 -15 -9 -3 -7 -20 -21 -36 -30 -29 -14 -31
-14 -42 7 -7 13 -18 33 -26 45 -13 20 -12 23 16 37 41 21 44 21 65 -15 10 -17
20 -28 23 -25 3 3 -2 17 -11 30 -16 26 -20 36 -11 36 2 0 14 -18 26 -41z m447
-4 l22 -45 -23 -11 c-12 -7 -32 -19 -44 -26 -21 -14 -23 -12 -48 27 -15 23
-24 44 -21 48 9 8 80 51 87 52 3 0 15 -20 27 -45z m-721 -18 l23 -37 -58 -29
-58 -29 -22 38 c-12 22 -22 41 -22 44 0 8 94 55 104 52 5 -1 20 -19 33 -39z
m903 9 c0 -6 -23 -23 -50 -38 -48 -27 -50 -27 -60 -8 -9 17 -4 23 37 49 35 22
51 27 60 19 7 -6 13 -16 13 -22z m-465 -16 c9 -16 13 -30 11 -30 -3 0 -12 14
-21 30 -9 17 -13 30 -11 30 3 0 12 -13 21 -30z m479 -38 c-40 -37 -90 -90
-113 -118 -31 -39 -71 -69 -169 -127 -71 -41 -142 -90 -157 -109 -39 -46 -65
-109 -80 -192 l-12 -71 -8 57 c-13 101 11 181 85 287 33 47 58 68 143 118 56
34 163 98 237 142 74 44 137 81 140 81 3 0 -27 -30 -66 -68z m-494 22 c12 -19
21 -36 19 -38 -2 -1 -20 -12 -40 -24 l-37 -22 -21 35 c-27 46 -27 51 7 69 40
22 48 20 72 -20z m-275 -14 c14 -22 25 -42 25 -45 0 -6 -61 -38 -64 -33 -16
22 -47 80 -45 82 13 9 54 36 56 36 2 0 14 -18 28 -40z m24 4 c12 -20 20 -39
17 -41 -2 -3 -14 13 -26 36 -25 51 -20 54 9 5z m441 -5 c12 -23 20 -43 18 -45
-3 -2 -14 17 -26 41 -27 56 -20 60 8 4z m-20 -9 c11 -21 20 -41 20 -44 0 -6
-66 -46 -77 -46 -5 0 -19 18 -32 40 l-22 39 23 14 c25 16 62 36 65 37 2 0 12
-18 23 -40z m-733 -11 c21 -39 22 -59 3 -59 -14 0 -52 70 -46 85 9 24 20 17
43 -26z m468 -11 l16 -33 -20 25 c-20 24 -26 40 -16 40 2 0 12 -15 20 -32z
m436 -12 c-5 -6 -26 -20 -46 -30 -31 -17 -38 -18 -46 -5 -13 21 -6 32 37 56
36 21 40 21 51 6 8 -10 9 -21 4 -27z m-1095 23 c10 -17 -13 -36 -27 -22 -12
12 -4 33 11 33 5 0 12 -5 16 -11z m143 -25 c12 -19 21 -39 21 -43 0 -13 -53
-35 -85 -36 -22 0 -33 -7 -43 -27 -7 -15 -21 -29 -31 -33 -10 -3 -55 -25 -100
-49 l-80 -44 -25 44 -24 44 126 69 c155 84 205 110 214 111 3 0 15 -16 27 -36z
m258 -49 c-2 -5 -26 -22 -53 -37 -54 -30 -56 -29 -90 34 -14 28 -14 28 43 57
l58 29 22 -36 c13 -21 21 -41 20 -47z m244 49 l22 -37 -24 -18 c-35 -27 -52
-23 -76 19 l-21 38 26 17 c39 24 48 21 73 -19z m-236 -4 c9 -16 13 -30 11 -30
-3 0 -12 14 -21 30 -9 17 -13 30 -11 30 3 0 12 -13 21 -30z m403 -38 l23 -41
-40 -20 -39 -20 -14 22 c-40 60 -40 64 -5 86 17 11 37 19 42 18 6 -2 20 -22
33 -45z m22 8 c11 -22 18 -40 15 -40 -2 0 -14 18 -25 40 -11 22 -18 40 -15 40
2 0 14 -18 25 -40z m-280 -6 c12 -19 21 -37 18 -39 -2 -2 -14 14 -26 36 -28
49 -22 52 8 3z m-20 -6 c27 -44 25 -55 -8 -72 -28 -15 -29 -14 -50 23 -12 21
-22 41 -22 45 0 4 48 34 58 36 1 0 11 -15 22 -32z m455 -8 c-4 -6 -25 -22 -47
-36 -30 -19 -43 -22 -53 -14 -10 8 -14 8 -17 -2 -3 -8 -7 -6 -11 6 -4 10 -3
15 3 11 6 -3 10 0 10 7 0 7 19 23 42 35 39 22 42 22 55 5 13 -15 14 -15 8 8
-5 21 -4 22 5 7 6 -9 8 -22 5 -27z m-737 -29 c26 -46 26 -47 8 -54 -10 -4 -23
9 -39 38 -14 24 -22 46 -19 49 13 14 30 3 50 -33z m473 -14 c25 -49 12 -39
-21 17 -13 22 -18 36 -12 32 7 -4 22 -26 33 -49z m-21 -7 c15 -30 17 -41 7
-46 -6 -4 -22 -14 -34 -21 -20 -13 -23 -12 -48 32 -15 25 -26 47 -24 49 14 12
65 33 72 29 4 -2 16 -22 27 -43z m-502 1 c12 -21 22 -42 22 -45 0 -12 -65 -46
-88 -46 -12 0 -25 -7 -28 -15 -8 -19 -211 -128 -224 -120 -6 4 -19 23 -30 44
l-19 38 94 52 c52 28 104 51 115 51 28 0 60 18 60 34 0 10 51 43 71 45 3 1 15
-16 27 -38z m262 -43 c0 -7 -91 -59 -107 -62 -4 0 -17 17 -30 39 l-22 39 57
32 57 33 22 -37 c13 -20 23 -40 23 -44z m400 13 c0 -3 -17 -16 -39 -28 l-38
-22 -11 24 c-11 23 -8 26 26 44 34 18 38 18 50 3 6 -8 12 -18 12 -21z m-239
-24 c25 -49 12 -39 -21 17 -13 22 -18 36 -12 32 7 -4 22 -26 33 -49z m-24 -4
l24 -42 -31 -16 c-35 -18 -36 -17 -69 37 l-22 37 28 15 c37 20 41 18 70 -31z
m-292 -20 c11 -21 21 -41 23 -44 1 -4 -4 -9 -12 -12 -10 -4 -23 8 -39 36 -14
23 -23 45 -20 49 10 18 31 6 48 -29z m456 16 c8 -15 8 -19 0 -15 -6 4 -11 0
-11 -8 0 -9 -13 -22 -30 -31 -37 -19 -37 -19 -50 4 -8 16 -4 23 22 40 26 16
35 17 47 8 12 -10 14 -9 8 6 -9 24 0 21 14 -4z m-983 -29 c21 -38 22 -60 2
-60 -13 0 -52 72 -46 86 9 23 20 16 44 -26z m502 -56 c0 -6 -27 -23 -61 -39
-33 -16 -109 -57 -167 -92 l-107 -62 -26 42 c-32 50 -35 45 89 113 71 38 85
42 102 32 26 -17 55 0 55 32 0 15 11 27 35 40 l35 18 22 -37 c12 -20 23 -41
23 -47z m215 46 c14 -22 25 -43 25 -48 0 -6 -38 -29 -102 -60 -7 -3 -62 78
-56 83 5 4 103 65 105 65 2 0 14 -18 28 -40z m24 4 c12 -20 20 -39 17 -41 -2
-3 -14 13 -26 36 -25 51 -20 54 9 5z m-785 -28 c18 -33 19 -39 6 -47 -65 -42
-623 -338 -629 -334 -10 6 -45 84 -40 89 14 13 626 335 633 333 5 -2 18 -20
30 -41z m906 -5 c14 -28 14 -28 -30 -51 l-39 -20 -11 22 c-11 22 -10 22 4 4
17 -21 22 -11 7 14 -7 10 -3 19 17 31 35 23 39 23 52 0z m-272 -52 c16 -28 21
-44 14 -51 -6 -6 -15 -7 -21 -3 -16 9 -51 81 -44 89 14 14 29 4 51 -35z m-528
-15 c20 -34 21 -64 3 -64 -9 0 -53 74 -53 89 0 24 29 9 50 -25z m478 -13 c12
-21 22 -41 22 -44 0 -3 -35 -25 -77 -48 -43 -23 -118 -64 -167 -92 -98 -55
-94 -56 -131 14 l-14 27 100 57 c98 55 101 56 120 39 26 -24 54 -8 54 30 0 19
8 32 25 41 37 21 44 19 68 -24z m229 20 c11 -18 7 -23 -37 -50 -28 -17 -50
-36 -50 -42 0 -6 17 -1 38 11 20 13 58 36 85 51 l47 28 0 -25 c0 -33 -71 -244
-82 -244 -5 0 -11 8 -15 18 -3 9 -31 62 -62 116 -30 55 -51 101 -46 103 6 2
28 14 50 28 49 30 57 30 72 6z m-754 -35 l25 -45 -318 -175 c-175 -97 -319
-176 -322 -176 -10 0 -52 93 -43 97 6 2 147 80 315 173 168 92 308 169 312
169 3 1 17 -19 31 -43z m-817 -82 c25 -47 47 -93 48 -101 3 -35 -21 -20 -52
32 -23 38 -39 55 -54 55 -25 0 -292 -145 -332 -181 l-30 -26 32 -56 c27 -47
29 -56 15 -61 -9 -4 -17 -5 -18 -4 -30 38 -105 186 -103 201 3 23 21 34 267
168 113 61 148 76 162 68 10 -5 39 -48 65 -95z m1234 71 c0 -8 -4 -15 -9 -15
-13 0 -22 16 -14 24 11 11 23 6 23 -9z m260 -126 c27 -47 51 -96 52 -108 3
-19 -24 -37 -202 -136 -152 -85 -209 -111 -221 -104 -23 12 -132 207 -125 225
9 25 20 16 54 -47 18 -33 40 -63 49 -66 18 -7 51 8 226 105 158 87 156 84 96
182 -26 42 -29 54 -18 61 17 11 24 2 89 -112z m-571 61 c21 -38 21 -60 1 -60
-13 0 -52 79 -45 90 11 18 21 11 44 -30z m492 -35 c33 -64 33 -66 14 -78 -64
-40 -302 -167 -312 -167 -13 0 -83 110 -77 121 2 4 68 42 146 86 181 102 182
102 189 103 3 0 21 -29 40 -65z m-537 3 c11 -20 18 -39 15 -42 -3 -3 -144 -84
-314 -180 -186 -105 -314 -171 -320 -166 -13 11 -49 79 -44 84 18 15 626 345
633 343 5 -2 18 -19 30 -39z m-895 -57 l30 -50 -105 -56 c-100 -53 -107 -55
-124 -40 -29 26 -55 15 -56 -24 0 -25 -6 -37 -25 -47 -36 -20 -45 -17 -68 20
-37 59 -32 65 102 140 67 38 136 77 152 87 46 28 61 23 94 -30z m1000 -15 c22
-42 22 -66 1 -66 -14 0 -52 80 -46 96 9 23 20 16 45 -30z m-45 -32 l25 -45
-27 -15 c-15 -9 -157 -89 -317 -180 -159 -90 -290 -164 -291 -164 -1 0 -14 21
-30 47 -22 38 -25 48 -13 55 79 47 616 347 621 347 3 1 18 -20 32 -45z m-824
-80 c0 -7 -6 -14 -13 -17 -8 -3 -22 13 -37 40 -20 37 -21 46 -9 53 10 7 20 0
36 -28 13 -20 23 -42 23 -48z m-69 15 c11 -23 17 -45 12 -50 -28 -27 -183
-103 -213 -103 -26 -1 -37 -7 -46 -25 -12 -24 -48 -50 -70 -51 -13 0 -58 79
-50 88 9 8 329 180 338 181 4 1 17 -18 29 -40z m1519 -48 c-34 -242 126 -452
374 -491 37 -6 77 -8 87 -5 26 9 24 -4 -12 -58 -51 -77 -142 -151 -253 -206
-127 -64 -222 -91 -495 -141 -119 -21 -247 -50 -286 -63 -180 -62 -316 -160
-430 -312 -39 -52 -115 -199 -115 -222 0 -25 -29 -25 -83 0 -103 47 -181 139
-217 255 -11 36 -27 121 -35 191 -15 122 -35 211 -54 241 -11 17 -11 17 214
143 169 94 195 112 195 134 0 7 -27 61 -60 119 -34 59 -59 108 -58 109 2 2
144 83 317 181 276 157 315 176 325 162 7 -9 32 -53 55 -97 51 -95 74 -121
104 -121 33 0 410 213 422 238 15 33 16 20 5 -57z m-1792 -3 c-3 -7 -11 -13
-18 -13 -7 0 -15 6 -17 13 -3 7 4 12 17 12 13 0 20 -5 18 -12z m386 -35 c20
-35 23 -48 14 -54 -7 -4 -16 -5 -20 -3 -15 9 -49 84 -43 94 12 19 23 10 49
-37z m-763 16 c21 -18 21 -20 4 -13 -51 18 -82 16 -110 -9 -22 -19 -29 -33
-29 -62 0 -33 -1 -35 -13 -19 -20 27 -16 59 13 93 21 26 33 31 69 31 29 0 50
-7 66 -21z m733 -90 c-9 -15 -194 -109 -213 -109 -12 0 -31 -10 -43 -22 -24
-25 -69 -58 -80 -58 -5 0 -58 86 -58 95 0 10 73 43 84 39 8 -3 24 4 36 16 12
12 68 48 123 80 l102 57 27 -45 c15 -25 25 -49 22 -53z m-730 50 c22 -17 66
-86 66 -103 0 -2 -7 -6 -14 -9 -10 -4 -13 -1 -10 7 8 21 -9 26 -30 10 -15 -11
-17 -16 -7 -28 13 -16 7 -36 -11 -36 -6 0 -17 8 -24 18 -10 13 -15 14 -25 5
-10 -10 -9 -15 1 -28 8 -9 9 -15 2 -15 -14 0 -57 75 -66 113 -6 27 7 65 28 79
21 14 63 8 90 -13z m280 -85 c24 -44 26 -64 6 -64 -5 0 -21 21 -36 46 -22 38
-25 48 -13 55 8 5 15 9 16 9 1 0 13 -21 27 -46z m544 -1 c19 -35 20 -42 8 -52
-12 -10 -19 -4 -41 33 -25 44 -26 71 -2 63 7 -2 22 -22 35 -44z m-592 -28 c14
-25 25 -47 23 -49 -7 -6 -88 -46 -93 -46 -7 0 -56 72 -56 82 0 7 80 58 92 58
4 0 19 -20 34 -45z m542 0 l21 -44 -102 -57 c-56 -31 -133 -74 -170 -97 -37
-22 -69 -38 -71 -36 -15 20 -46 79 -46 87 0 7 13 18 30 27 24 12 34 13 49 3
23 -14 51 3 51 33 0 12 30 35 98 73 53 30 102 55 108 56 5 0 20 -20 32 -45z
m-1183 -5 c4 -7 -6 -10 -27 -9 -49 3 -76 -9 -93 -41 -21 -41 -19 -67 10 -95
35 -36 96 -35 124 1 12 15 21 33 21 40 0 24 18 15 24 -12 4 -15 6 -28 4 -29
-2 -1 -23 -13 -48 -25 -25 -12 -57 -31 -72 -41 -14 -11 -28 -19 -31 -19 -11 0
-77 129 -77 150 0 12 15 37 34 56 29 29 41 34 79 34 25 0 49 -5 52 -10z m535
-72 c0 -4 -13 -5 -30 -1 -23 4 -30 2 -30 -10 0 -10 7 -14 23 -10 21 4 21 4 2
-9 -11 -7 -33 -17 -50 -23 -24 -8 -29 -16 -28 -35 3 -20 -2 -17 -26 20 -27 43
-34 72 -8 36 12 -16 14 -15 36 8 14 15 30 26 36 26 24 0 50 27 40 42 -6 8 0 2
12 -12 13 -14 23 -28 23 -32z m-560 46 c0 -12 -71 -94 -81 -94 -19 0 -8 52 16
75 22 23 65 35 65 19z m775 -47 c28 -50 31 -67 11 -67 -21 0 -67 85 -53 99 15
15 13 16 42 -32z m543 1 c26 -50 27 -54 8 -61 -17 -7 -71 77 -61 93 12 20 31
9 53 -32z m-850 20 c-3 -7 -13 -15 -24 -17 -16 -3 -17 -1 -5 13 16 19 34 21
29 4z m-427 -22 c14 -29 -2 -63 -36 -76 -21 -8 -65 -4 -65 7 0 10 73 93 81 93
5 0 14 -11 20 -24z m1223 -20 c14 -25 26 -48 26 -53 0 -4 -48 -35 -107 -67
-60 -33 -134 -75 -165 -94 -31 -19 -62 -31 -67 -27 -10 6 -51 78 -51 89 0 2
15 13 34 24 30 18 35 18 49 5 9 -10 23 -13 37 -8 18 6 21 13 18 36 -3 17 0 29
6 29 6 0 52 25 101 54 50 30 91 55 92 55 0 1 13 -19 27 -43z m-532 -14 l27
-48 -45 -22 c-24 -12 -47 -22 -49 -22 -7 0 -55 74 -55 85 0 9 72 52 90 54 3 1
17 -21 32 -47z m218 23 c0 -8 -4 -15 -9 -15 -13 0 -22 16 -14 24 11 11 23 6
23 -9z m-544 -60 c14 -25 25 -47 23 -49 -2 -1 -51 -31 -108 -66 -115 -70 -109
-70 -147 2 l-14 28 72 47 c105 67 132 83 140 83 4 0 19 -20 34 -45z m134 10
c0 -9 -9 -15 -21 -15 -18 0 -19 2 -9 15 7 8 16 15 21 15 5 0 9 -7 9 -15z m90
-57 c0 -3 -8 -4 -18 -1 -10 2 -26 -4 -36 -15 -17 -19 -17 -20 4 -27 23 -7 22
-28 -2 -33 -9 -2 -19 6 -23 18 -5 16 -12 19 -28 14 -31 -9 -32 -12 -12 -34 10
-11 14 -20 9 -20 -5 0 -15 10 -23 23 -8 12 -21 33 -30 47 -13 21 -13 23 -1 13
13 -9 22 -8 49 9 25 16 29 23 19 30 -8 6 -2 7 18 3 25 -5 33 -2 38 12 7 16 9
15 21 -7 8 -14 14 -28 15 -32z m784 -50 c41 -75 55 -107 48 -118 -9 -15 -83
-59 -287 -171 -116 -64 -128 -69 -141 -61 -9 6 -124 198 -124 206 0 2 6 6 14
9 9 4 27 -14 51 -50 29 -44 41 -54 59 -51 34 7 335 180 341 196 3 8 -8 41 -24
72 -17 32 -27 60 -24 64 17 16 33 -2 87 -96z m-569 49 c29 -51 30 -53 10 -61
-10 -3 -23 9 -40 38 -29 49 -31 66 -10 66 8 0 26 -20 40 -43z m-710 -34 c193
-351 274 -500 277 -510 2 -7 -29 -31 -69 -53 l-72 -40 -24 37 c-74 119 -298
536 -294 547 4 9 127 83 144 86 0 0 18 -30 38 -67z m660 7 l25 -50 -40 -20
c-21 -11 -43 -20 -47 -20 -9 0 -53 65 -53 79 0 7 74 58 87 61 2 0 14 -22 28
-50z m540 -1 c15 -28 23 -55 19 -59 -5 -5 -78 -48 -163 -96 -111 -63 -158 -85
-168 -78 -8 5 -26 28 -40 51 l-24 42 38 24 c36 23 38 23 45 6 16 -41 73 -12
66 33 -3 19 11 30 87 74 50 29 95 53 101 53 6 1 23 -22 39 -50z m-315 20 c0
-5 -7 -9 -15 -9 -15 0 -20 12 -9 23 8 8 24 -1 24 -14z m-546 -54 c15 -25 27
-48 25 -50 -2 -2 -40 -24 -84 -50 -44 -26 -94 -55 -110 -65 l-31 -19 -27 49
-27 48 107 66 c60 36 110 65 113 66 3 0 18 -20 34 -45z m206 -10 c16 -29 13
-34 -23 -37 -34 -3 -36 -31 -4 -53 19 -13 20 -17 7 -25 -27 -17 -41 -12 -36
15 4 22 2 24 -25 18 -21 -4 -30 -1 -35 12 -8 20 6 31 59 46 31 8 38 14 34 30
-7 27 7 24 23 -6z m228 -43 c22 -39 23 -62 2 -62 -13 0 -62 89 -55 101 11 17
29 4 53 -39z m-54 -16 c14 -25 26 -49 26 -53 0 -9 -63 -43 -78 -43 -13 0 -58
93 -47 96 6 2 24 13 40 23 17 11 31 20 32 20 0 1 13 -19 27 -43z m236 9 c0 -8
-7 -15 -15 -15 -8 0 -15 7 -15 15 0 8 7 15 15 15 8 0 15 -7 15 -15z m-520 -47
c18 -29 26 -47 19 -41 -16 13 -63 93 -55 93 2 0 19 -24 36 -52z m154 27 c16
-25 16 -25 -2 -14 -10 6 -19 18 -19 25 0 19 2 18 21 -11z m-182 -30 l27 -45
-117 -69 -116 -70 -27 47 c-16 25 -27 47 -26 48 6 6 223 133 227 133 3 0 17
-20 32 -44z m232 -64 c-2 -2 -11 4 -18 15 -14 19 -15 19 -43 -2 -15 -11 -43
-26 -60 -32 -30 -10 -34 -9 -44 11 -9 18 -9 20 2 10 10 -10 18 -8 37 10 13 12
40 27 60 33 34 9 38 8 54 -15 9 -14 15 -27 12 -30z m-159 -48 c16 -26 25 -48
20 -50 -6 -2 -62 -32 -125 -67 l-115 -64 -23 45 c-13 25 -21 48 -17 51 11 12
210 130 220 131 6 1 23 -20 40 -46z m122 9 c-15 -14 -19 -15 -27 -3 -6 10 -3
19 8 27 25 19 41 -2 19 -24z m108 -54 c33 -63 32 -101 -2 -128 -28 -22 -63
-21 -92 3 -22 18 -81 110 -75 116 3 3 12 -3 20 -14 13 -18 15 -18 31 -2 9 9
13 20 9 24 -5 5 -11 2 -13 -5 -3 -6 -9 -9 -14 -6 -10 6 49 64 65 64 4 0 5 -11
2 -24 -5 -20 -3 -23 14 -19 25 7 34 19 20 28 -5 3 -10 14 -10 23 0 15 2 15 11
2 5 -8 21 -36 34 -62z m65 -104 c0 -38 -18 -64 -55 -80 -47 -19 -59 -18 -92
10 l-28 25 35 -8 c59 -13 120 21 120 66 0 14 4 21 10 18 6 -3 10 -17 10 -31z
m-470 -138 c0 -2 3 -11 6 -20 5 -13 -1 -16 -25 -16 -73 0 -110 -96 -55 -139
15 -12 41 -21 59 -21 34 0 52 15 71 59 11 24 12 24 19 7 19 -44 -60 -109 -125
-104 -32 3 -38 9 -72 72 -21 38 -38 72 -38 76 0 4 33 25 73 47 70 40 87 47 87
39z m27 -82 c3 -10 -105 -59 -113 -51 -11 10 21 61 46 74 20 10 29 10 44 -1
11 -7 21 -17 23 -22z m13 -41 c0 -41 -61 -68 -100 -43 -17 11 -16 12 35 38 49
26 65 27 65 5z m1635 -202 c-6 -5 -34 -16 -62 -26 -74 -23 -190 -102 -239
-161 -66 -78 -104 -144 -228 -391 -197 -395 -315 -574 -500 -758 -390 -388
-913 -496 -1350 -279 -125 62 -163 93 -60 49 226 -97 484 -115 737 -51 329 84
643 329 884 691 80 120 134 217 233 415 131 262 198 355 306 426 57 37 147 70
226 83 29 5 55 9 58 10 2 0 0 -3 -5 -8z m-3517 -273 c12 -27 17 -48 13 -48 -9
0 -41 72 -41 92 0 16 5 9 28 -44z m-23 -9 c16 -34 16 -39 0 -68 -14 -27 -19
-30 -31 -20 -21 17 -54 84 -54 108 0 16 6 19 35 18 29 -2 37 -7 50 -38z"/>
<path d="M8650 5864 c0 -6 7 -19 15 -30 8 -10 14 -14 14 -9 0 6 -6 19 -14 29
-8 11 -15 15 -15 10z"/>
<path d="M5130 5430 c-25 -4 7 -5 70 -2 63 2 117 6 119 8 7 7 -141 1 -189 -6z"/>
<path d="M4950 5400 c-20 -6 -21 -8 -5 -8 11 0 34 4 50 8 27 7 27 8 5 8 -14 0
-36 -4 -50 -8z"/>
<path d="M5235 5381 c-162 -46 -340 -196 -369 -311 -4 -14 5 0 20 30 61 123
220 240 380 279 44 11 68 20 54 20 -14 0 -52 -8 -85 -18z"/>
<path d="M4800 5360 c-281 -96 -511 -268 -790 -590 -253 -292 -427 -420 -664
-487 -45 -13 -63 -20 -41 -17 105 15 281 97 397 184 66 50 238 226 401 410
217 246 451 407 722 496 55 18 91 33 80 33 -11 0 -58 -13 -105 -29z"/>
<path d="M4844 4925 c2 -69 7 -89 36 -143 37 -70 94 -125 175 -171 54 -31 166
-71 194 -71 9 1 -16 11 -54 24 -219 71 -329 185 -346 361 l-8 80 3 -80z"/>
<path d="M3206 4253 c-3 -4 -113 -10 -244 -14 l-237 -7 235 3 c129 2 251 8
270 13 30 9 32 10 9 11 -14 1 -29 -2 -33 -6z"/>
<path d="M2413 4243 c59 -2 154 -2 210 0 56 1 8 3 -108 3 -115 0 -161 -2 -102
-3z"/>
<path d="M2195 4230 c-19 -5 -6 -6 35 -3 36 3 67 7 69 9 8 7 -73 2 -104 -6z"/>
<path d="M1979 4175 c-224 -78 -408 -215 -524 -389 -51 -78 -100 -174 -92
-183 3 -2 12 15 21 39 32 79 110 192 186 269 114 116 250 199 425 260 44 15
73 27 65 28 -8 0 -45 -11 -81 -24z"/>
<path d="M5621 3683 c-6 -21 -10 -51 -10 -68 1 -26 2 -25 9 10 4 22 10 52 15
68 4 15 5 27 2 27 -4 0 -11 -17 -16 -37z"/>
<path d="M1336 3540 c-8 -28 -18 -68 -21 -88 -3 -20 6 1 19 48 13 47 23 87 21
88 -2 2 -11 -19 -19 -48z"/>
<path d="M1295 3347 c-4 -36 -5 -71 -3 -79 3 -7 8 20 12 61 3 41 4 76 2 78 -2
3 -7 -25 -11 -60z"/>
<path d="M1283 3160 c0 -41 2 -58 4 -37 2 20 2 54 0 75 -2 20 -4 3 -4 -38z"/>
<path d="M1296 2975 c3 -49 9 -108 14 -130 10 -43 5 23 -11 155 -7 54 -7 50
-3 -25z"/>
<path d="M1326 2756 c10 -85 110 -459 113 -422 1 4 -13 56 -30 115 -17 58 -44
162 -60 231 -16 69 -26 103 -23 76z"/>
<path d="M1441 2314 c-1 -15 40 -136 45 -131 2 2 -7 35 -20 73 -14 38 -25 64
-25 58z"/>
<path d="M3660 1952 c-19 -9 -45 -33 -58 -52 -20 -29 -23 -45 -20 -91 5 -70
35 -114 95 -141 135 -60 265 91 192 222 -41 72 -134 100 -209 62z m117 -3 c15
-6 36 -18 46 -26 26 -24 3 -33 -64 -26 -53 5 -56 4 -82 -27 -31 -36 -33 -59
-12 -99 25 -49 91 -57 129 -16 28 30 79 36 69 8 -34 -94 -155 -123 -224 -54
-91 91 -36 239 93 250 9 0 29 -4 45 -10z m-7 -69 c12 -7 8 -10 -14 -10 -61 0
-89 -65 -41 -96 23 -15 27 -15 51 1 33 21 42 13 15 -14 -54 -54 -146 14 -110
82 23 43 65 59 99 37z m99 -22 c11 -30 3 -56 -20 -63 -30 -10 -59 12 -59 44 0
35 6 41 42 41 20 0 31 -6 37 -22z m-104 -43 c0 -25 -4 -30 -25 -30 -16 0 -26
6 -28 18 -6 30 6 49 30 45 18 -2 23 -9 23 -33z"/>
<path d="M3009 1788 c-76 -43 -104 -158 -56 -228 38 -57 71 -75 136 -75 108 0
178 74 169 180 -5 61 -33 106 -82 129 -48 23 -123 20 -167 -6z m139 -3 c76
-33 110 -93 92 -168 -10 -44 -48 -90 -68 -82 -7 2 -10 0 -7 -5 8 -13 -37 -30
-77 -30 -79 0 -138 61 -138 143 0 116 95 184 198 142z"/>
<path d="M3045 1761 c-51 -21 -81 -89 -60 -137 18 -42 48 -65 94 -71 107 -15
156 119 70 191 -31 26 -67 32 -104 17z m79 -21 c27 -10 56 -56 56 -90 0 -12
-13 -35 -29 -51 -36 -35 -86 -39 -124 -9 -33 26 -41 62 -23 105 21 48 66 66
120 45z"/>
<path d="M3582 1423 c-110 -54 -124 -223 -25 -289 113 -75 263 4 263 138 -1
120 -132 203 -238 151z m148 -22 c19 -10 34 -26 34 -35 -1 -8 3 -14 9 -13 6 1
17 -20 24 -46 14 -46 13 -51 -9 -95 -13 -25 -35 -55 -49 -65 -33 -24 -104 -32
-143 -18 -25 10 -27 13 -15 29 13 16 12 16 -5 2 -16 -13 -20 -12 -37 9 -29 36
-42 95 -30 139 10 36 60 94 91 105 33 12 97 6 130 -12z"/>
<path d="M3575 1357 c-28 -28 -35 -43 -35 -73 0 -21 7 -45 16 -56 14 -14 14
-20 4 -33 -7 -9 -8 -15 -2 -15 6 0 12 6 15 13 3 9 7 9 18 1 56 -44 151 -3 165
72 3 18 13 35 23 37 12 4 10 5 -5 6 -18 1 -50 43 -46 61 0 3 -7 7 -16 8 -9 1
-36 5 -59 8 -39 6 -46 3 -78 -29z m139 -18 c30 -35 32 -58 11 -99 -21 -40 -73
-57 -114 -35 -87 44 -59 165 38 165 32 0 44 -6 65 -31z"/>
<path d="M2994 1269 c-48 -14 -101 -79 -109 -134 -8 -51 12 -120 43 -148 34
-31 94 -49 136 -43 136 22 199 175 113 273 -51 58 -108 74 -183 52z m140 -35
c92 -63 86 -184 -13 -251 -43 -29 -121 -33 -121 -5 0 13 -2 14 -9 3 -7 -11
-13 -10 -34 4 -59 38 -74 149 -29 212 46 65 139 82 206 37z"/>
<path d="M2982 1211 c-59 -38 -70 -111 -23 -163 25 -28 36 -33 74 -33 54 0 97
28 112 71 5 16 17 35 25 42 13 12 13 13 -2 8 -13 -4 -20 2 -24 18 -16 64 -102
94 -162 57z m119 -30 c20 -20 29 -39 29 -61 0 -22 -9 -41 -29 -61 -37 -37 -79
-38 -120 -3 -42 35 -43 84 -2 125 40 39 82 39 122 0z"/>
<path d="M6930 4890 c-13 -8 -13 -11 2 -26 19 -19 38 -11 38 17 0 21 -16 24
-40 9z"/>
<path d="M4974 4485 c-4 -9 -2 -21 4 -27 16 -16 47 -5 47 17 0 26 -42 34 -51
10z m36 -3 c0 -13 -12 -22 -22 -16 -10 6 -1 24 13 24 5 0 9 -4 9 -8z"/>
<path d="M4804 4365 c-7 -17 2 -45 14 -45 4 0 17 6 27 14 16 12 17 16 6 30
-17 20 -40 21 -47 1z m33 -21 c-9 -9 -28 6 -21 18 4 6 10 6 17 -1 6 -6 8 -13
4 -17z"/>
<path d="M4617 4294 c-10 -10 -9 -42 2 -48 18 -11 42 6 39 28 -3 21 -28 33
-41 20z m24 -27 c-13 -13 -26 -3 -16 12 3 6 11 8 17 5 6 -4 6 -10 -1 -17z"/>
<path d="M3864 3885 c-7 -18 2 -45 15 -45 5 0 17 7 26 16 12 12 13 19 4 30
-15 18 -38 18 -45 -1z m36 -15 c0 -5 -7 -10 -15 -10 -8 0 -15 5 -15 10 0 6 7
10 15 10 8 0 15 -4 15 -10z"/>
<path d="M3684 3765 c-9 -23 3 -45 26 -45 29 0 38 30 15 46 -24 18 -34 18 -41
-1z m34 -16 c-2 -6 -8 -10 -13 -10 -5 0 -11 4 -13 10 -2 6 4 11 13 11 9 0 15
-5 13 -11z"/>
<path d="M3483 3674 c-3 -8 1 -22 9 -30 12 -12 17 -12 33 -1 23 17 14 47 -15
47 -11 0 -23 -7 -27 -16z m37 -9 c0 -8 -4 -15 -10 -15 -5 0 -10 7 -10 15 0 8
5 15 10 15 6 0 10 -7 10 -15z"/>
<path d="M5457 3673 c-12 -12 -7 -41 7 -46 19 -7 40 18 32 38 -6 15 -28 20
-39 8z m33 -24 c0 -5 -7 -9 -15 -9 -15 0 -20 12 -9 23 8 8 24 -1 24 -14z"/>
<path d="M5254 3586 c-10 -26 4 -48 28 -44 17 2 23 10 23 28 0 18 -6 26 -23
28 -13 2 -25 -3 -28 -12z m36 -16 c0 -5 -7 -10 -15 -10 -8 0 -15 5 -15 10 0 6
7 10 15 10 8 0 15 -4 15 -10z"/>
<path d="M5081 3462 c-8 -15 -7 -23 4 -32 21 -18 47 -4 43 22 -4 29 -34 35
-47 10z"/>
<path d="M5232 3778 c-30 -30 9 -69 44 -43 15 11 17 17 8 32 -14 23 -36 27
-52 11z m38 -24 c0 -8 -7 -14 -15 -14 -15 0 -21 21 -9 33 10 9 24 -2 24 -19z"/>
<path d="M5877 3038 c-22 -12 -22 -44 -1 -52 20 -8 44 11 44 34 0 22 -21 31
-43 18z m28 -18 c3 -6 -1 -13 -10 -16 -19 -8 -30 0 -20 15 8 14 22 14 30 1z"/>
<path d="M4071 2756 c-15 -18 -4 -46 19 -46 28 0 45 27 30 45 -16 19 -34 19
-49 1z m37 -18 c-6 -18 -28 -21 -28 -4 0 9 7 16 16 16 9 0 14 -5 12 -12z"/>
<path d="M4296 2154 c-10 -26 19 -52 42 -38 9 6 17 20 17 30 0 26 -50 32 -59
8z m42 -11 c-4 -22 -22 -20 -26 1 -2 10 3 16 13 16 10 0 15 -7 13 -17z"/>
<path d="M3284 3486 c-10 -25 0 -51 20 -54 27 -6 48 25 35 49 -12 22 -47 25
-55 5z m38 -28 c-9 -9 -15 -9 -24 0 -10 10 -10 15 2 22 20 12 38 -6 22 -22z"/>
<path d="M4335 3063 c-21 -21 -14 -37 18 -41 23 -3 27 0 27 21 0 31 -24 41
-45 20z m35 -11 c0 -13 -12 -22 -22 -16 -10 6 -1 24 13 24 5 0 9 -4 9 -8z"/>
<path d="M4140 2986 c-18 -22 -5 -48 22 -44 17 2 23 10 23 28 0 29 -26 38 -45
16z m32 -21 c0 -5 -5 -11 -11 -13 -6 -2 -11 4 -11 13 0 9 5 15 11 13 6 -2 11
-8 11 -13z"/>
<path d="M3954 2856 c-9 -22 4 -36 32 -36 21 0 25 4 22 23 -4 26 -45 37 -54
13z m41 -5 c7 -12 -12 -24 -25 -16 -11 7 -4 25 10 25 5 0 11 -4 15 -9z"/>
<path d="M3712 2818 c-16 -16 -15 -33 2 -47 18 -15 46 -4 46 18 0 17 -18 41
-30 41 -3 0 -11 -5 -18 -12z m36 -26 c2 -7 -3 -12 -12 -12 -9 0 -16 7 -16 16
0 17 22 14 28 -4z"/>
</g>
</svg>
