<?xml version="1.0" standalone="no"?>
<!DOCTYPE svg PUBLIC "-//W3C//DTD SVG 20010904//EN"
 "http://www.w3.org/TR/2001/REC-SVG-20010904/DTD/svg10.dtd">
<svg version="1.0" xmlns="http://www.w3.org/2000/svg"
 width="1404.460607pt" height="873.369131pt" viewBox="0 0 1404.460607 873.369131"
 preserveAspectRatio="xMidYMid meet">
<metadata>
Created by potrace 1.12, written by Peter Selinger 2001-2015
</metadata>
<g transform="translate(-86.314746,966.369131) scale(0.100000,-0.100000)"
fill="#000000" stroke="none">
<path d="M4273 9661 c-117 -6 -124 -7 -150 -34 -27 -26 -28 -32 -28 -122 0
-62 4 -98 13 -106 18 -19 16 -158 -5 -205 -43 -101 -143 -755 -129 -844 5 -30
2 -37 -17 -45 -21 -10 -22 -16 -25 -145 -2 -91 1 -142 9 -157 15 -28 25 -29
32 -3 3 11 11 20 17 20 9 0 9 -4 2 -13 -6 -7 -25 -52 -42 -100 -18 -48 -36
-90 -41 -93 -17 -10 -9 21 21 85 17 35 28 66 25 69 -3 3 -20 -27 -38 -66 -32
-71 -33 -72 -70 -72 -21 0 -52 -7 -68 -16 -32 -16 -133 -162 -155 -223 -31
-87 -3 -181 65 -219 137 -77 287 64 308 290 5 46 2 63 -16 92 -16 26 -19 40
-12 53 5 10 19 43 30 73 l21 55 85 0 85 0 0 -420 0 -421 -29 -11 c-58 -21
-118 -134 -142 -267 -12 -62 -14 -66 -40 -66 -34 0 -47 -16 -55 -70 -4 -25
-12 -52 -19 -60 -7 -8 -20 -32 -28 -52 l-16 -38 -411 0 -411 0 -24 -25 c-22
-21 -25 -33 -25 -93 0 -55 4 -75 21 -96 l20 -26 418 0 418 0 11 -39 c18 -60
48 -91 87 -91 31 0 33 -2 37 -40 3 -38 2 -40 -24 -40 -16 0 -28 -4 -28 -10 0
-5 15 -10 33 -10 32 0 34 -3 51 -57 37 -117 84 -183 131 -183 l25 0 0 -135 0
-135 -87 0 c-51 0 -99 -6 -113 -13 -25 -12 -25 -15 -25 -135 0 -67 -3 -122 -6
-122 -3 0 -9 53 -12 118 -8 169 -48 294 -115 365 -53 56 -55 57 -380 54 l-301
-2 -42 -30 c-79 -57 -145 -198 -173 -375 -8 -49 -22 -103 -32 -121 -9 -18 -19
-61 -22 -95 -4 -50 0 -71 17 -106 11 -25 21 -55 21 -69 0 -45 48 -234 74 -292
31 -71 78 -133 116 -152 23 -12 91 -15 342 -17 l313 -3 34 24 c66 48 116 157
145 316 13 75 14 56 15 -340 l1 -420 -31 55 c-67 121 -97 134 -308 126 -184
-6 -158 -6 -286 0 -107 5 -112 5 -165 -23 -96 -50 -184 -209 -224 -408 -48
-241 -50 -360 -10 -584 30 -165 72 -266 143 -344 57 -63 76 -69 230 -69 75 0
211 -2 303 -4 163 -5 168 -4 216 20 37 19 60 41 91 87 l41 61 0 -293 -1 -294
-23 48 c-28 58 -68 101 -106 117 -19 8 -77 10 -176 7 -82 -3 -153 -5 -159 -5
-5 0 -115 2 -242 4 l-233 3 -52 -27 c-94 -50 -161 -173 -201 -372 -12 -62 -29
-117 -41 -133 -29 -39 -31 -183 -3 -198 11 -7 17 -22 17 -47 1 -75 29 -219 55
-277 37 -83 100 -164 141 -181 18 -8 50 -15 71 -15 21 -1 29 -3 18 -5 -11 -3
-38 -9 -60 -14 -172 -40 -237 -50 -360 -57 -123 -6 -133 -8 -81 -14 88 -10
416 -19 381 -10 l-30 7 33 7 c18 4 145 4 281 0 223 -5 248 -8 241 -22 -46 -96
-61 -134 -57 -145 6 -14 106 -21 482 -32 l220 -7 81 41 c46 23 84 49 86 59 4
12 108 70 299 167 162 82 293 152 292 155 -1 3 108 63 243 133 309 161 301
159 689 168 229 5 306 10 363 25 75 18 82 35 15 35 -28 0 -33 4 -33 24 0 34
-47 136 -78 169 -26 27 -27 27 -159 27 l-133 0 0 39 c0 22 -3 46 -6 55 -4 11
3 19 22 27 52 19 64 37 64 98 l0 56 607 -2 c335 -1 680 -2 769 -2 l161 -1 -5
-30 c-2 -16 -10 -30 -18 -30 -35 0 -42 -92 -10 -119 8 -7 37 -14 65 -18 50 -6
51 -6 51 -39 l0 -34 -107 -2 c-60 -1 -172 -1 -250 1 l-142 4 -21 -34 c-11 -19
-30 -65 -41 -104 -28 -96 -30 -100 -75 -103 -105 -8 -71 -32 53 -38 47 -2 88
-6 91 -9 3 -3 85 -5 182 -5 187 0 200 -3 200 -48 0 -39 51 -111 83 -118 l27
-6 0 -128 0 -127 -190 -6 c-105 -4 -275 -4 -378 -1 l-188 7 -30 -49 c-51 -82
-148 -355 -138 -386 5 -16 24 -18 208 -18 148 0 205 3 214 13 10 9 169 13 709
15 621 3 696 1 707 -13 9 -13 41 -15 231 -13 l220 3 -3 29 c-4 38 -80 271
-103 317 -10 20 -30 51 -46 69 l-27 33 -178 -6 c-98 -4 -266 -4 -373 0 l-195
6 0 129 c0 117 2 128 18 128 10 0 28 10 39 23 19 21 30 39 68 118 l18 36 116
1 c225 4 441 19 441 32 0 4 -22 10 -49 14 l-49 6 -26 85 c-14 46 -38 98 -53
116 l-27 32 -112 -6 c-62 -3 -174 -3 -248 0 l-136 6 0 32 c0 32 0 33 56 37 68
6 84 22 84 86 0 35 -4 45 -20 49 -13 3 -20 14 -20 29 0 13 0 26 0 29 0 5 1370
12 1457 7 l62 -4 -2 -50 c-2 -43 2 -53 26 -74 15 -13 35 -24 43 -24 11 0 14
-14 14 -60 l0 -60 -133 0 c-126 0 -135 -1 -155 -22 -28 -30 -85 -157 -84 -185
2 -21 -3 -23 -45 -23 -26 0 -43 -4 -38 -8 30 -27 263 -47 540 -47 167 0 276
-14 358 -45 26 -10 161 -81 300 -158 282 -157 745 -402 759 -402 4 0 8 -8 8
-17 0 -19 69 -62 133 -83 50 -16 664 4 721 24 37 13 38 14 17 28 -19 13 -78
125 -70 132 10 8 400 13 405 5 3 -5 17 -9 32 -9 21 0 24 -2 12 -10 -28 -18
141 -10 380 17 53 7 50 7 -60 19 -145 15 -201 25 -195 34 2 4 -35 11 -83 15
-48 4 -118 11 -157 15 l-70 7 85 2 c47 0 101 6 121 11 42 12 116 86 148 149
12 22 25 41 29 41 4 0 65 -7 135 -15 71 -8 133 -13 138 -9 10 5 165 -9 264
-26 33 -5 119 -14 190 -19 269 -21 628 -62 640 -75 7 -7 67 -17 140 -24 121
-11 129 -11 174 9 56 25 571 183 662 203 l27 6 -20 77 c-11 43 -25 86 -33 96
-17 24 -144 41 -232 33 l-63 -7 0 784 0 784 52 6 c28 4 56 11 61 16 5 5 8 46
6 90 -6 121 -12 125 -189 129 l-139 4 18 37 c44 86 34 183 -29 270 -41 56 -94
81 -172 81 -76 0 -134 -24 -170 -70 l-26 -33 -51 45 c-69 62 -155 76 -236 39
-41 -18 -95 -72 -95 -94 0 -6 -11 5 -25 25 -68 100 -215 116 -312 34 l-40 -35
-24 25 c-81 87 -245 83 -311 -6 l-20 -28 -37 38 c-66 69 -172 77 -263 19 -26
-17 -48 -35 -48 -41 0 -5 5 -6 12 -2 6 4 8 3 5 -4 -11 -17 -31 -9 -77 31 -42
36 -69 45 -84 30 -4 -4 10 -22 31 -40 l38 -34 -34 20 c-26 15 -43 40 -77 111
-54 114 -101 178 -156 216 -41 27 -49 29 -148 29 -58 0 -118 -1 -135 -3 -16
-1 -98 1 -181 4 -166 7 -203 1 -255 -43 -16 -14 -41 -48 -55 -74 -13 -27 -27
-49 -29 -49 -3 0 -5 181 -4 403 l1 402 18 -85 c35 -165 89 -267 160 -303 31
-15 59 -17 240 -13 113 3 250 5 305 5 88 0 104 3 135 23 74 50 141 190 166
349 9 56 25 116 35 133 26 43 27 173 0 225 -10 20 -27 83 -38 141 -36 188
-104 319 -187 366 -37 21 -50 22 -341 22 -279 1 -304 -1 -333 -18 -60 -37
-118 -169 -146 -333 -18 -104 -30 -111 -24 -14 6 97 1 101 -129 99 l-93 -1 0
135 0 134 24 0 c68 0 121 95 160 285 l12 60 42 3 c47 4 66 23 83 85 l10 37
420 0 419 0 21 33 c16 26 19 45 17 99 -6 116 28 108 -457 108 l-417 0 -12 45
c-7 25 -20 49 -32 55 -15 8 -20 21 -20 50 0 44 -20 70 -56 70 -19 0 -24 5 -24
24 0 42 -50 189 -81 238 -31 48 -67 78 -94 78 -13 0 -15 49 -15 423 l0 422 89
0 89 0 12 -40 c17 -62 32 -95 41 -95 16 0 10 18 -32 106 -32 64 -39 88 -30 97
8 8 11 5 11 -15 0 -25 25 -56 36 -45 3 3 1 15 -6 26 -7 14 -7 21 0 21 10 0 80
-131 80 -150 0 -18 -17 -11 -29 13 -7 13 -10 15 -6 4 17 -60 17 -67 2 -61 -24
9 -67 -62 -67 -112 0 -84 59 -231 112 -282 30 -27 89 -52 125 -52 45 1 111 36
133 72 18 27 21 45 17 101 -4 59 -10 77 -53 148 -76 127 -102 152 -160 158
l-48 6 -36 70 c-32 63 -35 73 -23 95 16 31 18 262 3 291 -6 10 -18 19 -26 19
-13 0 -15 8 -10 43 3 23 2 69 -4 102 -5 33 -21 152 -36 265 -14 113 -29 223
-34 245 -4 22 -13 67 -20 100 -6 33 -20 76 -31 96 -15 29 -19 58 -19 137 0 57
4 104 10 107 6 3 10 44 10 91 0 85 -12 126 -44 153 -18 15 -508 16 -537 0 -10
-5 -38 -35 -61 -66 -40 -52 -43 -62 -48 -132 l-5 -76 -45 -7 c-25 -4 -162 -10
-305 -14 -255 -6 -262 -6 -385 20 -273 58 -192 56 -2130 56 -1941 0 -1861 2
-2145 -56 -102 -20 -147 -24 -305 -24 -102 1 -204 5 -228 9 -24 5 -59 5 -78 1
-19 -4 -37 -4 -40 1 -3 5 -16 9 -29 9 -48 0 -55 8 -55 72 0 51 -5 67 -34 111
-69 104 -73 106 -226 110 -74 2 -190 1 -257 -2z m323 -30 c-3 -5 -99 -12 -212
-16 l-206 -8 -20 -34 c-24 -40 -33 -37 -23 6 12 57 28 61 258 61 119 0 206 -4
203 -9z m6565 -1 c38 -21 17 -25 -93 -18 -62 3 -168 7 -235 7 -69 1 -124 5
-128 11 -9 14 430 14 456 0z m-6663 -260 c2 -41 0 -135 -3 -207 -6 -104 -10
-133 -21 -133 -12 0 -14 35 -14 194 0 107 -3 202 -6 211 -5 13 -2 16 17 13 23
-3 24 -8 27 -78z m6393 -17 c1 -54 3 -148 5 -209 l3 -112 -29 -4 -30 -5 0 198
c0 109 3 204 6 213 3 9 15 16 25 16 17 0 19 -9 20 -97z m-90 -43 l-8 -75 -2
91 c0 50 2 94 7 98 12 12 13 -33 3 -114z m-1027 36 c71 -14 134 -31 140 -37 8
-9 0 -10 -34 -5 -25 3 -101 11 -170 16 -69 6 -163 15 -210 21 -138 17 -3449
11 -3719 -7 -271 -18 -404 -40 -398 -66 1 -6 -4 -13 -10 -15 -9 -3 -13 6 -13
25 0 35 0 35 250 78 l145 25 700 -4 c385 -2 1215 -2 1845 2 630 3 1190 3 1245
-1 55 -3 158 -18 229 -32z m-5204 -56 l-8 -35 -1 45 c-1 27 3 40 8 35 6 -6 6
-25 1 -45z m6190 -12 c0 -74 -5 -73 -14 5 -5 38 -4 57 3 57 7 0 11 -24 11 -62z
m-5816 18 c-9 -24 -48 -32 -146 -28 -88 4 -98 6 -98 23 0 18 9 19 125 19 101
0 123 -3 119 -14z m17 -19 c-8 -8 -11 -7 -11 4 0 20 13 34 18 19 3 -7 -1 -17
-7 -23z m242 23 c115 0 137 -2 137 -15 0 -13 -26 -15 -175 -15 -145 0 -175 2
-175 14 0 17 26 26 55 20 11 -2 82 -4 158 -4z m5151 -11 c16 -15 -3 -24 -24
-11 -14 9 -19 9 -23 -1 -3 -9 -44 -11 -163 -9 -150 4 -183 9 -171 29 7 11 369
4 381 -8z m271 -4 c0 -19 -7 -20 -93 -20 -51 -1 -96 3 -99 8 -2 4 -11 3 -18
-3 -10 -9 -16 -7 -24 9 -6 11 -11 22 -11 25 0 2 55 4 123 3 115 -2 122 -3 122
-22z m562 -87 c-2 -13 -4 -3 -4 22 0 25 2 35 4 23 2 -13 2 -33 0 -45z m-5269
10 c-7 -20 -45 -26 -158 -26 -82 -1 -99 2 -80 10 61 25 245 37 238 16z m2166
-3 c18 -13 -34 -15 -445 -15 -255 0 -475 -3 -489 -7 l-25 -6 25 21 c25 21 31
21 470 21 376 0 448 -2 464 -14z m1537 -4 c18 -7 -6 -10 -88 -10 -114 -1 -143
3 -143 22 0 12 195 2 231 -12z m-1100 -119 c90 -45 180 -90 199 -102 33 -19
52 -20 310 -21 184 0 298 -5 345 -13 64 -13 43 -14 -269 -15 l-338 -1 -58 35
c-69 42 -349 177 -402 194 -56 18 -56 31 0 17 26 -7 122 -50 213 -94z m-4393
-8 c1 11 5 17 8 14 3 -3 -1 -27 -9 -54 -18 -63 -26 -38 -18 66 l6 85 6 -65 c3
-36 6 -56 7 -46z m1851 96 c-9 -5 -66 -29 -125 -54 -60 -24 -179 -74 -264
-112 l-155 -69 -197 -3 c-174 -3 -198 -1 -198 12 0 14 25 16 195 16 153 0 205
3 242 16 41 14 325 135 388 165 24 12 106 38 120 38 6 0 3 -4 -6 -9z m3411 -6
c29 -9 137 -58 239 -109 l186 -93 163 -1 c90 -1 168 -3 173 -7 5 -3 9 0 9 5 0
6 7 11 15 11 13 0 19 -18 13 -37 -2 -3 -82 -5 -178 -4 l-174 3 -136 69 c-74
39 -184 91 -245 116 -141 58 -169 78 -65 47z m-5022 -1 c-10 -2 -18 -9 -18
-15 0 -6 9 -8 20 -5 26 7 26 -9 0 -23 -15 -8 -21 -6 -30 10 -14 26 -5 40 23
39 17 -1 18 -2 5 -6z m6619 -4 c15 -15 5 -39 -17 -39 -26 0 -43 23 -28 38 15
15 31 15 45 1z m-4232 -37 l-70 -38 -50 19 c-27 10 -65 25 -82 31 -18 7 -36
15 -39 19 -4 4 64 7 152 7 l159 -1 -70 -37z m1980 30 c-6 -5 -44 -24 -87 -42
l-76 -33 -49 29 c-26 16 -59 34 -73 41 -20 9 5 12 135 12 87 1 155 -3 150 -7z
m114 4 c-10 -9 -223 -95 -227 -91 -6 6 55 35 138 66 69 26 100 34 89 25z
m1884 -96 c4 8 4 2 1 -15 -6 -33 -21 -55 -36 -55 -11 0 -7 30 7 64 6 15 5 17
-5 11 -10 -6 -12 0 -7 31 4 21 7 46 8 54 1 8 6 -12 13 -45 7 -38 14 -54 19
-45z m-5809 38 c7 -28 5 -44 -10 -74 -10 -22 -26 -40 -35 -42 -20 -4 -89 64
-89 88 0 10 3 26 6 35 5 13 8 14 15 3 6 -9 9 -7 9 9 0 24 20 32 65 23 24 -5
32 -13 39 -42z m256 47 c0 -3 -55 -32 -122 -66 -68 -33 -116 -54 -108 -46 18
17 177 102 205 110 11 2 21 5 23 6 1 0 2 -1 2 -4z m610 -5 c0 -6 -11 -15 -25
-20 -14 -5 -81 -34 -149 -64 -121 -54 -126 -55 -193 -50 -37 3 -84 14 -103 24
-19 10 -57 21 -85 25 -80 12 -85 20 -29 46 41 19 78 25 224 34 235 16 360 18
360 5z m4181 -8 c101 -9 150 -25 202 -64 15 -11 11 -13 -35 -14 -78 -1 -141
-14 -155 -32 -9 -11 -35 -15 -110 -16 l-98 -1 -115 59 c-63 32 -120 63 -127
70 -15 14 276 12 438 -2z m-3572 -42 c150 -56 169 -65 157 -77 -4 -4 -186 -9
-404 -10 -238 -1 -389 2 -377 7 11 5 79 32 150 61 112 46 142 54 220 59 50 4
96 7 104 8 8 1 75 -21 150 -48z m271 -55 l-205 -105 -270 0 c-148 0 -276 4
-283 9 -24 15 72 21 325 21 l243 0 182 90 c100 50 189 90 198 90 8 -1 -77 -48
-190 -105z m1665 46 c66 -27 121 -54 123 -59 1 -5 -11 -12 -29 -16 -61 -12
-1561 -5 -1603 7 l-39 12 114 50 114 50 575 5 c316 3 586 4 600 2 14 -1 79
-25 145 -51z m1886 43 c7 -8 30 -24 51 -35 21 -11 38 -22 38 -24 0 -3 -31 11
-70 30 -38 19 -70 37 -70 40 0 12 39 4 51 -11z m289 -49 c0 -61 -2 -66 -26
-77 -31 -15 -51 -4 -74 40 -10 17 -20 29 -23 25 -4 -3 -9 2 -13 11 -7 18 13
49 27 40 5 -3 9 -1 9 5 0 5 -6 12 -12 14 -7 3 15 6 50 6 l62 1 0 -65z m720 13
c0 -51 -5 -47 -13 10 -3 24 -1 40 4 36 5 -3 9 -24 9 -46z m-4704 28 c28 -7 60
-19 70 -25 18 -11 18 -12 -1 -7 -48 13 -139 44 -130 45 6 0 33 -5 61 -13z
m2851 -41 c67 -30 127 -55 132 -55 6 0 11 -4 11 -10 0 -13 -789 -13 -810 0 -8
5 -12 11 -10 13 3 2 61 26 130 55 l125 51 150 0 151 1 121 -55z m1825 -87
c-13 -13 -28 93 -16 119 5 13 10 0 17 -45 7 -43 7 -66 -1 -74z m-799 34 c35
-30 16 -30 -33 0 -27 17 -50 32 -50 34 0 7 67 -20 83 -34z m-5586 -7 c8 -22
-6 -33 -17 -15 -13 20 -12 30 0 30 6 0 13 -7 17 -15z m-361 -55 c7 -19 13 -71
14 -115 l1 -80 15 40 c8 22 13 44 10 50 -2 7 7 10 25 7 l29 -4 0 -879 0 -879
-22 0 c-30 0 -45 10 -51 35 -4 16 -5 15 -6 -6 -1 -23 -7 -27 -43 -33 -24 -4
-50 -7 -58 -6 -8 0 -43 3 -77 6 l-63 6 0 892 c0 491 3 914 6 940 4 28 12 46
20 46 14 0 28 -35 20 -48 -3 -5 19 -10 49 -11 l55 -1 6 40 c6 37 9 41 32 38
19 -2 29 -12 38 -38z m6487 15 c-5 -37 7 -65 26 -65 36 0 51 12 51 40 0 23 5
28 31 32 17 3 33 0 35 -6 2 -6 3 -431 2 -944 l-3 -933 -75 -2 c-41 0 -112 0
-157 1 l-83 2 0 874 0 874 30 12 c38 16 50 37 51 92 0 33 2 38 9 23 7 -16 9
-17 9 -3 1 9 11 19 24 21 38 8 52 2 50 -18z m-6749 -252 c-1 -412 -1 -412 -24
-406 -24 6 -25 11 -4 64 14 34 16 65 11 192 -7 165 -22 346 -33 381 -6 19 -4
19 22 -6 l29 -27 -1 -198z m736 222 c0 -12 -14 -15 -70 -15 -38 0 -70 4 -70 9
0 14 20 19 83 20 44 1 57 -2 57 -14z m3312 -2 c10 -10 -115 -13 -623 -13 -546
0 -638 2 -655 15 -17 13 54 14 623 12 498 -1 645 -5 655 -14z m2083 -4 c-45
-10 -115 -10 -115 0 0 13 24 17 89 12 48 -4 52 -5 26 -12z m215 11 c0 -5 -10
-10 -22 -11 -13 0 -32 -2 -43 -5 -29 -5 -115 7 -110 16 7 12 175 12 175 0z
m622 -170 c-9 -96 -17 -225 -17 -287 0 -100 2 -114 23 -142 21 -28 21 -31 4
-31 -10 0 -23 -5 -30 -12 -9 -9 -12 58 -12 301 0 312 0 313 23 331 12 10 23
18 23 17 1 -1 -5 -81 -14 -177z m-557 -808 l7 -872 -22 0 -22 0 4 863 c3 747
7 902 23 885 2 -2 6 -396 10 -876z m-5855 -2 c0 -681 -3 -860 -12 -860 -10 0
-13 173 -12 833 1 754 4 887 19 887 3 0 5 -387 5 -860z m214 844 c3 -8 8 -99
10 -202 2 -103 2 -170 0 -149 -3 20 -9 35 -14 32 -5 -3 -9 -119 -9 -258 -1
-151 3 -246 8 -238 5 8 11 -48 15 -150 9 -198 4 -970 -6 -949 -43 100 -42 66
-44 965 -1 468 0 862 3 878 3 16 9 24 15 21 7 -5 9 5 4 30 -7 36 6 51 18 20z
m5388 -18 c-6 -55 4 -65 18 -16 8 31 14 40 20 30 4 -8 11 -405 15 -882 l7
-867 -25 -78 c-42 -134 -57 -189 -57 -211 0 -17 -6 -22 -24 -22 -14 0 -32 -10
-40 -22 -15 -20 -16 49 -16 757 0 606 3 776 12 767 7 -7 25 -12 40 -12 l28 0
0 -607 c0 -333 2 -604 4 -602 7 6 21 918 20 1264 -1 160 -4 346 -8 413 -4 67
-3 122 1 122 5 0 7 -15 5 -34z m168 -65 c0 -54 3 -113 6 -130 13 -63 -15 -29
-40 50 -33 101 -34 141 -3 162 12 9 25 16 30 16 4 1 7 -43 7 -98z m-5698 1
c-2 -33 -7 -73 -11 -89 -8 -27 -8 -27 -15 15 -10 54 2 144 18 139 7 -3 10 -25
8 -65z m5213 -87 c0 -74 -3 -135 -7 -135 -5 0 -8 61 -8 135 0 74 3 135 8 135
4 0 7 -61 7 -135z m-4735 98 c0 -20 -3 -24 -11 -16 -7 7 -9 19 -6 27 10 24 17
19 17 -11z m-1181 -318 c1 -83 -6 -98 -45 -93 -44 5 -47 46 -18 218 13 80 27
156 31 170 8 29 31 -187 32 -295z m7150 134 c33 -201 26 -250 -33 -235 -43 11
-49 67 -23 254 24 181 23 181 56 -19z m-1449 82 c0 -44 -4 -83 -10 -86 -5 -3
-10 -21 -10 -39 0 -19 -7 -39 -15 -46 -8 -7 -15 -21 -15 -31 0 -20 -44 -44
-61 -33 -6 3 -21 -1 -34 -10 -13 -9 -44 -16 -69 -16 -30 0 -46 -5 -50 -15 -5
-13 -107 -15 -835 -15 -584 0 -832 3 -837 11 -7 12 -453 10 -460 -3 -3 -4
-376 -8 -829 -8 -722 0 -824 2 -829 15 -4 10 -20 15 -54 15 -27 0 -57 6 -68
15 -10 8 -40 15 -66 15 l-46 0 -6 73 c-4 39 -6 101 -6 136 1 46 -3 68 -16 82
-17 19 24 19 2149 19 l2167 0 0 -79z m-4520 -86 c0 -25 -3 -45 -8 -45 -4 0 -6
20 -4 45 2 25 6 45 8 45 2 0 4 -20 4 -45z m4620 10 c0 -16 -6 -25 -15 -25 -16
0 -19 9 -9 34 9 25 24 19 24 -9z m-4716 -4 c3 -5 -3 -11 -14 -14 -20 -5 -26 3
-13 16 9 10 21 9 27 -2z m240 -26 c5 -22 4 -26 -4 -15 -5 8 -10 24 -10 34 0
26 6 18 14 -19z m-624 -210 c5 -11 11 -36 12 -55 3 -30 7 -35 31 -38 l27 -3 0
-87 c0 -48 3 -310 6 -582 7 -492 7 -495 -13 -477 -11 9 -31 17 -45 17 -24 0
-26 3 -32 78 -4 42 -5 361 -4 707 2 347 4 592 6 545 1 -47 7 -94 12 -105z
m5226 -884 c4 -967 4 -971 -16 -971 -20 0 -20 6 -20 963 0 728 3 966 12 975 6
6 13 10 16 8 2 -3 6 -441 8 -975z m-329 736 c2 -122 -1 -187 -7 -177 -15 23
-12 370 3 370 1 0 3 -87 4 -193z m-4271 161 c4 -13 7 -437 6 -943 l-1 -920
-42 -3 -42 -3 5 880 c3 664 7 884 16 893 7 7 12 30 12 53 0 58 31 87 46 43z
m269 -18 c-3 -5 -15 -10 -26 -10 -10 0 -19 5 -19 10 0 6 12 10 26 10 14 0 23
-4 19 -10z m4812 -57 c-4 -38 -7 -312 -7 -610 0 -517 -1 -543 -18 -543 -10 0
-27 -7 -38 -15 -10 -8 -22 -15 -26 -15 -10 0 -10 547 -1 893 l6 257 23 0 c25
0 46 29 43 58 -3 30 1 42 12 42 9 0 10 -20 6 -67z m-3071 46 c10 -16 -4 -23
-45 -24 -22 0 -38 -2 -36 -3 2 -2 -6 -15 -18 -28 l-21 -24 -706 0 c-389 0
-735 3 -769 6 -56 6 -61 9 -61 30 0 21 -5 24 -40 24 -51 0 -52 17 -2 23 86 9
1692 5 1698 -4z m2084 -9 c0 -17 -6 -20 -40 -20 -27 0 -39 -4 -38 -12 2 -9
-12 -14 -39 -16 -24 -2 -43 -7 -43 -13 0 -6 -256 -9 -680 -9 -659 1 -680 1
-680 20 0 21 -24 28 -105 31 -61 3 -75 7 -75 24 0 11 149 14 850 15 848 1 850
1 850 -20z m-4251 -912 c1 -528 -2 -918 -7 -918 -10 0 -22 795 -22 1430 0 341
2 407 14 407 12 0 14 -141 15 -919z m4349 915 c-10 -2 -28 -2 -40 0 -13 2 -5
4 17 4 22 1 32 -1 23 -4z m266 1 c10 -4 16 -18 16 -40 0 -19 5 -34 10 -34 7 0
9 -132 6 -402 -2 -222 0 -486 4 -588 5 -101 6 -189 3 -194 -4 -5 -5 -137 -4
-293 l3 -283 -41 0 -41 0 0 920 c0 979 -2 932 44 914z m-5834 -15 c-25 -4 -61
-8 -80 -8 -28 0 -31 2 -15 9 11 5 47 8 80 8 l60 -1 -45 -8z m7282 3 c9 -4 -28
-7 -82 -8 -55 0 -97 3 -94 8 6 10 151 10 176 0z m-3692 -6 c0 -2 -3 -11 -6
-20 -9 -23 -24 -20 -24 4 0 11 7 20 15 20 8 0 15 -2 15 -4z m-2588 -353 c4
-809 2 -1203 -4 -1203 -4 0 -10 5 -13 10 -3 6 -15 10 -27 10 -17 0 -18 -2 -8
-15 7 -9 8 -15 2 -15 -5 0 -14 8 -18 18 -12 25 -17 636 -9 1100 l7 402 34 0
34 0 2 -307z m1358 258 l24 -7 -29 -12 c-17 -6 -43 -14 -60 -18 -16 -3 -61
-18 -100 -32 -50 -18 -96 -27 -161 -29 -91 -4 -92 -4 -174 37 -46 24 -78 46
-73 51 5 5 110 10 233 12 124 1 245 3 270 4 25 0 56 -2 70 -6z m3039 -5 c14
-17 14 -17 -84 -64 l-69 -33 -176 3 c-173 3 -176 3 -247 36 -39 17 -77 30 -85
27 -7 -3 -38 4 -68 14 l-55 20 363 -1 c199 0 366 2 369 6 11 11 40 6 52 -8z
m275 -56 c3 -30 9 -74 12 -97 5 -35 3 -43 -10 -43 -14 0 -16 15 -15 108 1 113
4 122 13 32z m-3209 51 c-14 -12 -115 -44 -121 -38 -3 3 23 14 58 25 78 25 74
24 63 13z m236 -10 c30 -10 81 -32 114 -49 l60 -31 -108 -1 c-84 0 -112 3
-123 15 -9 8 -22 15 -30 15 -8 0 -14 -7 -14 -15 0 -13 -20 -15 -122 -15 -67 0
-118 4 -112 8 5 5 41 21 80 35 39 15 80 34 90 42 27 20 101 18 165 -4z m575
-23 c-4 -22 -9 -45 -12 -50 -3 -4 -52 -8 -110 -8 -84 0 -106 3 -110 15 -4 8
-16 15 -28 15 -12 0 -26 4 -31 9 -14 12 -117 41 -152 42 -15 0 -37 4 -48 9
-12 5 85 9 239 9 l259 1 -7 -42z m1034 37 c0 -14 -188 -95 -221 -95 -59 0
-179 61 -179 92 0 4 90 8 200 8 110 0 200 -2 200 -5z m228 -41 c64 -25 119
-48 121 -50 2 -2 -61 -4 -141 -4 l-146 0 -6 25 c-4 15 -16 27 -31 31 -38 9
-14 32 38 37 23 2 43 4 45 5 1 1 55 -19 120 -44z m-2756 4 c15 -10 43 -25 64
-34 20 -8 34 -17 32 -20 -7 -7 -135 55 -149 72 -10 12 -9 13 7 8 10 -4 31 -16
46 -26z m1807 3 c14 -26 -12 -50 -34 -31 -11 9 -12 17 -4 31 5 10 14 19 19 19
5 0 14 -9 19 -19z m-2049 -66 c0 -19 -4 -35 -10 -35 -5 0 -10 16 -10 35 0 19
5 35 10 35 6 0 10 -16 10 -35z m2811 23 c-1 -5 -1 -33 -1 -63 0 -34 -4 -55
-11 -55 -8 0 -10 20 -7 60 3 41 1 57 -6 50 -5 -5 -21 -10 -35 -9 -26 1 -26 1
4 14 31 15 56 16 56 3z m-1718 -22 c8 -20 -4 -96 -14 -90 -12 7 -12 104 0 104
5 0 11 -6 14 -14z m397 -20 c0 -33 -10 -57 -21 -50 -16 9 -11 74 6 74 9 0 15
-9 15 -24z m1198 -6 c47 0 82 -3 78 -7 -10 -10 -516 -10 -516 -1 0 8 272 17
324 11 16 -2 67 -3 114 -3z m1212 -7 c0 -16 -1065 -19 -1075 -3 -6 10 329 16
827 15 192 0 248 -3 248 -12z m-2895 -3 c-67 -11 -630 -11 -680 -1 -24 5 117
9 345 9 221 -1 364 -4 335 -8z m441 1 c-9 -13 -336 -15 -336 -1 0 6 59 10 171
10 100 0 168 -4 165 -9z m383 5 c-2 -2 -77 -6 -166 -10 -112 -5 -163 -4 -163
3 0 7 56 11 167 11 91 0 164 -2 162 -4z m3901 -47 c0 -18 -18 -9 -23 12 -4 16
-3 18 9 8 8 -6 14 -15 14 -20z m-7320 -44 c-6 -8 -27 -46 -45 -85 -48 -98 -52
-94 -16 18 17 51 23 62 37 62 8 0 14 5 14 10 0 6 5 10 11 10 8 0 8 -4 -1 -15z
m3080 -61 c0 -38 -3 -53 -11 -48 -7 4 -9 24 -6 52 3 27 1 39 -4 31 -5 -8 -9
-28 -9 -45 0 -18 -6 -46 -13 -63 -9 -20 -11 -50 -7 -86 3 -31 3 -58 0 -60 -4
-2 -10 -55 -13 -117 -3 -62 -13 -223 -22 -358 -19 -276 -17 -388 9 -441 34
-72 101 -76 140 -9 19 32 21 50 20 210 -1 149 -9 264 -41 635 -3 28 -7 88 -10
135 -2 47 -9 89 -14 95 -5 5 -9 23 -9 40 l0 31 68 1 c37 0 83 5 102 10 51 13
150 5 150 -13 0 -11 18 -14 78 -14 43 0 81 -2 83 -4 5 -6 -7 -193 -16 -233
l-7 -33 -128 0 c-144 0 -140 2 -140 -80 0 -86 -24 -80 305 -80 329 0 305 -6
305 80 0 82 3 80 -130 80 l-118 0 -4 71 c-2 39 -2 100 0 135 l4 64 72 0 c107
0 143 9 150 34 5 19 11 21 82 19 60 -1 83 -6 105 -22 34 -25 91 -27 143 -6 20
8 36 22 36 30 0 12 15 15 70 15 60 0 70 -2 68 -17 -1 -10 0 -34 2 -53 3 -32 4
-31 10 15 l7 50 1 -45 c2 -34 -3 -50 -17 -62 -16 -14 -19 -29 -18 -87 0 -39
-2 -74 -6 -77 -4 -4 -7 -23 -7 -43 0 -45 -38 -424 -51 -511 -6 -36 -18 -97
-27 -137 l-17 -72 -55 -3 -55 -3 -3 -78 c-2 -50 1 -84 9 -93 9 -11 58 -14 255
-14 285 0 274 -5 274 112 0 69 -7 82 -45 84 -11 0 -34 1 -51 2 l-30 2 -27 148
c-14 81 -29 176 -32 212 -17 198 -37 367 -46 384 -6 10 -8 39 -4 67 5 35 2 57
-9 80 -18 37 -21 91 -6 120 10 18 27 19 560 19 482 0 550 -2 550 -15 0 -11 11
-15 38 -15 21 -1 47 -9 60 -19 l22 -19 0 -711 0 -711 -2010 0 c-1105 0 -2010
1 -2010 3 0 1 -3 323 -7 715 -6 664 -5 712 11 712 9 0 19 7 22 15 4 10 20 15
50 15 32 0 44 4 44 15 0 13 57 15 449 15 l449 0 7 -50 c5 -34 3 -55 -5 -65 -7
-9 -11 -41 -9 -82 1 -37 0 -75 -3 -83 -11 -28 -43 -595 -42 -735 0 -107 4
-149 17 -177 33 -77 106 -73 135 7 19 53 18 301 -3 574 -8 112 -15 231 -15
266 0 34 -3 65 -7 69 -4 4 -6 37 -4 72 1 36 -2 70 -7 77 -7 8 -7 29 -1 61 5
26 6 52 3 57 -3 5 46 9 113 9 88 -1 123 -4 137 -15 29 -22 73 -19 86 5 17 33
30 13 30 -46z m-388 -16 c-9 -32 -10 -31 -10 22 -1 46 1 52 10 33 8 -16 8 -32
0 -55z m-1108 10 c3 -13 6 -339 6 -725 l0 -703 -45 0 c-44 0 -45 1 -47 33 l-1
32 -4 -32 c-3 -25 -9 -33 -25 -33 -20 0 -20 0 -13 613 4 340 11 616 16 622 5
5 9 -152 9 -390 0 -219 2 -396 5 -394 7 8 13 273 14 620 1 318 2 327 21 332
11 3 20 13 21 24 0 16 1 16 9 -2 8 -19 9 -19 9 3 1 12 5 22 10 22 5 0 11 -10
15 -22z m4131 -19 c6 0 20 -2 33 -6 l22 -5 0 -699 0 -699 -45 0 -45 0 0 713
c0 393 3 717 7 721 4 4 10 0 13 -9 3 -9 10 -16 15 -16z m-2097 -65 c3 -64 1
-70 -18 -70 -22 0 -24 9 -13 94 9 75 27 61 31 -24z m792 -59 c0 -58 -2 -63
-20 -58 -17 4 -20 14 -20 57 0 50 14 81 32 70 4 -3 8 -34 8 -69z m-1715 4 c0
-41 -4 -54 -15 -54 -16 0 -27 73 -16 102 13 33 31 5 31 -48z m395 1 c0 -53 -2
-60 -20 -60 -17 0 -20 7 -20 53 0 56 4 67 27 67 9 0 13 -17 13 -60z m-3216
-54 c13 5 16 -2 16 -39 0 -65 -42 -176 -80 -209 -52 -47 -121 -30 -135 32 -9
39 46 159 99 218 l37 40 24 -24 c14 -14 30 -21 39 -18z m7634 7 c47 -60 95
-164 95 -206 0 -77 -65 -101 -127 -47 -36 32 -79 134 -91 217 l-7 43 30 -6
c24 -5 33 -2 44 15 17 28 22 27 56 -16z m-1679 -660 c1 -577 1 -583 -19 -583
-20 0 -20 7 -20 619 0 487 3 620 13 624 8 2 14 -11 19 -37 3 -23 7 -303 7
-623z m-3129 587 c0 -11 -7 -23 -16 -27 -13 -5 -13 -7 -2 -14 10 -7 11 -9 0
-9 -7 0 -11 -4 -7 -9 3 -5 1 -12 -5 -16 -10 -6 -12 2 -12 50 0 42 1 45 22 45
13 0 20 -7 20 -20z m1680 -30 c-4 -3 -10 -12 -13 -20 -3 -8 -6 -1 -6 16 -1 36
11 53 20 27 3 -10 3 -20 -1 -23z m-540 -44 c0 -11 -45 -14 -251 -15 -138 -1
-256 2 -262 6 -7 5 101 10 238 13 138 3 256 7 263 8 6 1 12 -4 12 -12z m579
-291 c11 -135 22 -209 42 -286 15 -59 15 -59 -65 -59 l-74 0 14 68 c12 61 54
387 54 421 0 9 3 11 9 6 5 -6 14 -73 20 -150z m-1330 -92 c1 -73 -1 -83 -17
-83 -15 0 -16 8 -10 88 3 48 7 103 8 122 l2 35 9 -40 c4 -22 8 -77 8 -122z
m-399 7 c0 -53 -4 -90 -10 -90 -11 0 -14 162 -3 173 12 13 13 7 13 -83z
m-1927 -122 c-12 -13 -28 -41 -37 -62 -9 -22 -19 -36 -23 -33 -3 4 -12 2 -19
-4 -7 -5 -37 -8 -67 -6 l-55 4 -10 -36 c-12 -41 -38 -183 -47 -253 -10 -76
-22 -56 -14 22 12 105 47 267 68 309 11 20 28 44 39 54 19 17 20 17 18 1 0
-11 7 -20 18 -22 11 -2 16 0 12 7 -6 9 3 12 88 26 16 2 31 7 34 10 17 16 12 1
-5 -17z m-510 -25 c-60 -90 -99 -221 -109 -375 -4 -57 -11 -112 -16 -123 -6
-15 -7 -12 -4 12 3 18 3 61 -1 96 -6 64 -6 65 -35 63 -16 -1 -36 5 -46 14 -16
16 -18 13 -29 -39 l-11 -56 5 60 c6 80 37 209 63 267 23 53 66 108 83 108 7 0
4 -5 -5 -11 -35 -20 -21 -39 27 -39 38 0 48 4 66 30 28 37 38 31 12 -7z m6297
16 c7 -13 16 -17 23 -12 19 14 64 15 86 3 18 -9 20 -8 15 7 -4 11 6 5 25 -14
31 -33 65 -129 76 -213 4 -36 2 -31 -13 23 -10 38 -25 72 -31 77 -7 4 -36 10
-63 13 -28 4 -56 11 -62 16 -8 7 -5 -18 9 -70 11 -44 27 -84 34 -88 18 -12 23
-73 13 -171 -5 -47 -10 -68 -11 -46 -5 150 -61 378 -112 454 -20 30 -24 42
-14 42 8 0 19 -9 25 -21z m-6066 -31 c-47 -83 -93 -287 -94 -417 0 -24 -3 -42
-6 -38 -3 3 -6 41 -6 84 0 50 -3 71 -8 58 -5 -11 -9 -30 -9 -42 -1 -13 -4 -23
-7 -23 -14 0 -51 25 -71 49 l-22 26 -1 -25 c0 -14 -7 -47 -15 -75 l-15 -50 6
75 c11 152 58 330 100 380 14 16 30 30 36 30 6 0 5 -6 -2 -15 -21 -25 -3 -29
26 -6 15 12 30 18 33 14 12 -15 51 -14 57 1 3 9 10 16 14 16 5 0 -2 -19 -16
-42z m6562 33 c-17 -7 -17 -8 -2 -24 12 -12 34 -17 69 -17 l52 1 -28 24 c-18
16 -23 25 -13 25 8 0 32 -20 53 -44 30 -34 46 -67 66 -133 15 -48 27 -97 26
-108 0 -11 -7 4 -15 34 -18 67 -50 141 -61 140 -4 0 -17 -4 -28 -8 -11 -5 -31
-5 -45 -1 l-26 7 17 -66 17 -66 58 -5 59 -5 3 -52 c3 -52 3 -52 -25 -47 -15 3
-31 10 -35 17 -10 17 -19 -31 -27 -141 l-7 -97 -8 80 c-21 220 -51 344 -105
443 l-29 52 26 -1 c22 0 24 -2 8 -8z m-157 -38 c47 -5 51 -4 45 13 -4 12 3 8
19 -11 24 -28 48 -90 63 -160 3 -18 -6 -6 -25 33 l-30 62 -51 0 -52 0 7 -42
c15 -98 20 -105 82 -113 40 -5 58 -3 64 6 5 8 11 -1 17 -27 10 -42 16 -142 8
-134 -4 5 -13 50 -15 78 -1 7 -6 10 -12 6 -24 -14 -77 -15 -91 -1 -12 13 -14
-1 -11 -107 l2 -121 -19 155 c-23 190 -42 277 -75 342 -31 61 -31 62 -1 43 13
-9 47 -18 75 -22z m-3796 -57 c8 -74 -2 -157 -19 -163 -16 -5 -24 30 -24 102
0 140 29 181 43 61z m-403 -52 c0 -63 -4 -104 -10 -104 -6 0 -10 44 -10 111 0
71 4 108 10 104 6 -3 10 -52 10 -111z m-2014 -12 c-3 -10 -17 -81 -31 -157
-25 -139 -25 -139 -20 -55 3 56 1 80 -5 70 -9 -13 -10 -13 -11 0 -1 8 -1 18 0
23 0 4 -7 7 -16 7 -11 1 -7 6 12 14 23 10 34 26 48 65 10 28 20 51 23 51 3 0
3 -8 0 -18z m3912 -21 c30 -1 42 -5 42 -16 0 -17 -1 -17 -285 -19 -152 -1
-170 1 -173 16 -5 24 40 26 416 19z m2211 -151 c0 -9 -4 -8 -9 5 -5 11 -9 27
-9 35 0 9 4 8 9 -5 5 -11 9 -27 9 -35z m-465 -91 c-4 -41 -9 -68 -12 -61 -5
16 8 145 14 139 2 -2 1 -37 -2 -78z m-5335 -26 c0 -54 -2 -93 -4 -88 -8 25
-12 185 -4 185 5 0 9 -44 8 -97z m5808 50 c-3 -10 -5 -2 -5 17 0 19 2 27 5 18
2 -10 2 -26 0 -35z m554 4 c4 -15 3 -29 -2 -33 -16 -10 -29 7 -29 37 0 37 21
34 31 -4z m-7416 -67 c-3 -5 -20 -10 -36 -10 -18 0 -28 4 -24 10 3 6 20 10 36
10 18 0 28 -4 24 -10z m7460 0 c4 -6 -8 -10 -29 -10 -20 0 -36 5 -36 10 0 6
13 10 29 10 17 0 33 -4 36 -10z m-6684 -142 c-9 -31 -9 -30 -10 24 -1 31 2 65
7 75 11 29 15 -59 3 -99z m209 84 c0 -15 -4 -32 -9 -37 -16 -16 -21 -68 -8
-78 8 -5 8 -10 2 -13 -12 -5 -8 -72 5 -89 13 -18 21 -65 11 -65 -16 0 -31 36
-31 75 l0 37 -45 -4 c-31 -2 -45 1 -45 9 0 7 8 13 18 13 9 0 24 5 32 11 12 8
8 10 -15 8 -16 0 -36 -1 -42 0 -16 1 -17 86 -2 130 11 30 13 31 70 31 58 0 59
0 59 -28z m5554 5 c3 -13 8 -49 12 -80 l7 -57 -41 0 c-38 0 -40 -1 -46 -37
-12 -64 -27 -103 -41 -103 -18 0 -30 39 -16 53 8 8 11 4 12 -13 1 -24 1 -24
14 5 8 17 14 44 15 62 0 29 -4 33 -35 39 -19 3 -56 3 -82 0 -142 -18 -586 -26
-1213 -24 -607 3 -708 5 -728 18 -19 13 -24 13 -31 1 -7 -11 -24 -12 -97 -3
-113 13 -987 8 -1289 -9 -153 -8 -469 -10 -1040 -6 -451 3 -833 8 -850 10 -16
2 -45 4 -62 5 -22 1 -33 7 -33 17 0 8 3 15 8 16 4 0 1223 1 2710 1 2610 1
2702 2 2702 20 0 10 5 18 10 18 6 0 10 -13 10 -30 0 -16 5 -30 11 -30 12 0 7
34 -13 85 -12 29 -12 29 -18 5 -9 -39 -31 -38 -24 2 10 51 21 58 84 58 52 0
58 -2 64 -23z m-6577 -27 c27 0 32 -20 6 -21 -10 0 -28 -2 -40 -5 -17 -3 -23
1 -23 14 0 25 11 35 24 22 5 -5 20 -10 33 -10z m7521 -15 c2 -18 -3 -21 -38
-22 -36 -2 -40 0 -40 23 0 23 3 25 38 22 28 -2 38 -8 40 -23z m-7727 -34 c-11
-7 -11 -9 0 -14 8 -3 -147 -6 -344 -6 -338 -1 -357 0 -348 17 8 16 34 17 358
14 196 -1 342 -6 334 -11z m8574 -12 c-10 -15 -738 -12 -772 4 -22 10 39 13
358 17 211 3 392 1 402 -3 10 -4 15 -12 12 -18z m-5912 -96 c-227 -2 -599 -2
-825 0 -227 1 -42 2 412 2 454 0 639 -1 413 -2z m3369 0 c-228 -2 -597 -2
-820 0 -224 1 -38 2 413 2 451 0 634 -1 407 -2z m-4302 -240 c1 -410 3 -508
12 -520 5 -7 5 -14 -1 -17 -6 -4 -10 -416 -10 -1168 0 -638 -3 -1164 -6 -1167
-3 -3 -14 0 -23 5 -14 9 -17 26 -17 85 0 54 -4 77 -15 86 -13 10 -15 166 -18
1274 -2 1117 0 1264 13 1272 22 12 22 245 0 253 -10 4 -15 20 -15 50 l0 44 40
0 40 0 0 -197z m48 15 c-2 -134 -6 -182 -15 -186 -10 -3 -13 38 -13 182 0 160
2 186 15 186 13 0 15 -24 13 -182z m118 130 c-3 -29 -6 -117 -6 -195 0 -120
-2 -143 -15 -143 -22 0 -18 -27 5 -33 19 -5 20 -14 20 -167 0 -125 -3 -161
-12 -156 -7 2 -30 10 -50 17 l-38 12 0 359 0 358 51 0 52 0 -7 -52z m4054
-137 c0 -185 -1 -190 -22 -205 -12 -9 -31 -16 -41 -16 -10 0 -15 -5 -12 -11 4
-6 19 -7 35 -4 l29 6 3 -165 c3 -160 2 -165 -19 -184 -26 -23 -30 -67 -8 -76
12 -4 15 -24 15 -94 0 -86 -1 -89 -30 -110 -29 -22 -30 -25 -30 -101 0 -68 3
-83 26 -117 15 -21 30 -40 35 -42 5 -2 9 -329 9 -746 l0 -742 -37 -10 c-34 -8
-38 -13 -41 -43 -4 -39 9 -51 56 -51 l32 0 0 -67 c0 -63 -2 -68 -35 -99 l-35
-32 0 -220 c0 -211 -1 -222 -20 -232 -12 -6 -20 -21 -20 -35 0 -13 -6 -28 -14
-32 -8 -4 -16 -19 -18 -33 l-3 -25 -586 -3 -587 -2 -4 112 c-5 112 -18 165
-82 348 -9 25 -32 113 -51 195 -35 149 -76 317 -95 386 -13 49 -44 85 -93 112
-41 21 -50 22 -372 22 -366 0 -362 1 -422 -68 -22 -26 -35 -56 -48 -113 -9
-44 -39 -169 -66 -278 -27 -109 -49 -207 -49 -218 0 -10 -6 -29 -14 -41 -13
-20 -26 -64 -72 -232 -8 -27 -14 -89 -14 -137 l0 -88 -590 0 c-577 0 -590 0
-590 19 0 11 -4 23 -10 26 -5 3 -10 17 -10 30 0 36 -10 55 -31 55 -18 0 -19
11 -19 227 0 219 -1 227 -22 250 -12 13 -27 23 -35 23 -10 0 -13 19 -13 74 l0
75 42 3 c46 3 55 17 44 63 -5 18 -15 26 -41 31 l-35 6 -2 737 c-3 691 -2 737
15 750 9 7 17 21 17 30 0 9 9 22 20 29 17 10 20 23 20 90 0 74 -2 80 -30 107
-26 25 -30 36 -30 81 0 29 -4 56 -10 59 -16 10 -11 41 10 60 11 10 20 29 20
42 0 12 -9 32 -20 43 -18 18 -20 33 -20 185 0 103 4 165 10 165 6 0 10 7 10
15 0 8 -4 15 -10 15 -6 0 -10 72 -10 195 l0 195 2010 0 2010 0 0 -189z m120
-171 l0 -360 -26 0 c-14 0 -34 -5 -45 -10 -19 -10 -19 -3 -19 360 l0 370 45 0
45 0 0 -360z m57 -2 c-2 -315 -4 -363 -17 -363 -13 0 -15 24 -18 148 -2 96 1
147 8 147 5 0 10 9 10 20 0 11 -4 20 -10 20 -6 0 -10 72 -10 195 0 187 1 195
19 195 19 0 20 -9 18 -362z m103 327 c0 -19 -6 -37 -14 -42 -11 -6 -17 -36
-22 -101 -4 -51 -11 -95 -15 -98 -16 -9 -9 -23 8 -17 11 4 14 3 9 -5 -4 -7
-15 -12 -25 -12 -15 0 -19 12 -24 68 -4 37 -7 106 -7 155 l0 87 45 0 c45 0 45
0 45 -35z m409 -20 l0 -20 -9 20 c-5 11 -9 27 -9 35 -1 13 0 13 9 0 5 -8 9
-24 9 -35z m-29 -685 c3 -445 2 -666 -5 -660 -5 4 -20 4 -32 -1 -18 -6 -23
-16 -23 -44 0 -19 -5 -35 -10 -35 -7 0 -10 184 -8 580 3 498 5 582 18 590 8 5
11 12 7 16 -4 4 0 12 8 18 15 12 23 66 24 160 1 33 4 56 9 52 4 -4 9 -308 12
-676z m-332 535 c0 -29 0 -29 -8 -5 -4 14 -8 50 -8 80 l1 55 7 -50 c5 -27 8
-63 8 -80z m-4968 2 c3 -61 9 -101 15 -99 6 2 13 -14 17 -35 8 -43 11 -1093 3
-1093 -3 0 -14 9 -25 20 -11 11 -27 20 -35 20 -13 0 -15 70 -15 568 0 526 9
746 29 726 3 -3 8 -51 11 -107z m-109 -78 c-9 -23 -10 -23 -10 -2 -1 12 2 30
6 40 6 15 8 15 11 2 1 -8 -2 -26 -7 -40z m5009 -46 c0 -5 -14 -9 -30 -10 -17
-1 -30 2 -30 7 0 6 14 10 30 10 17 0 30 -3 30 -7z m-4953 -588 l-2 -470 -27
-3 -28 -3 -2 458 -3 458 25 70 25 70 6 -55 c4 -30 6 -266 6 -525z m5431 -30
c-2 -534 -3 -545 -29 -545 -15 0 -19 8 -20 38 0 20 -2 51 -4 67 -6 63 -14
1028 -9 1037 4 6 20 -23 36 -63 l29 -74 -3 -460z m-470 -679 c-2 -690 -5
-1256 -8 -1259 -3 -3 -19 -8 -35 -11 l-31 -7 -2 1256 -3 1255 30 0 c17 0 31 5
31 10 0 6 5 10 10 10 7 0 9 -410 8 -1254z m-4430 1068 c3 -112 1 -149 -9 -155
-7 -4 -17 -5 -21 -3 -4 3 -8 72 -8 155 0 135 2 149 18 149 15 0 17 -15 20
-146z m4532 -989 c0 -750 -3 -1135 -10 -1135 -6 0 -10 106 -11 298 0 163 -2
657 -5 1097 -2 440 -1 817 2 838 4 20 11 37 15 37 5 0 9 -499 9 -1135z m-5138
607 l-2 -447 -23 -10 c-17 -8 -22 -19 -23 -50 0 -33 -4 -40 -20 -40 -17 0 -20
10 -25 95 -11 156 -10 796 1 824 5 14 16 26 24 26 10 0 71 43 71 50 0 0 -1
-201 -3 -448z m-526 426 c4 -5 23 -8 41 -8 l34 0 -3 -149 c-3 -133 -1 -151 14
-160 45 -28 48 -20 48 139 0 143 1 150 20 150 20 0 20 -7 20 -1058 0 -1046 0
-1057 -20 -1070 -18 -11 -20 -24 -22 -140 -1 -115 -2 -120 -8 -52 -5 55 -7 64
-10 35 l-3 -40 -7 40 c-4 25 -7 -8 -7 -90 1 -71 2 -106 4 -77 3 36 8 52 16 49
7 -2 22 0 35 4 l22 9 0 -824 c0 -726 -2 -825 -15 -836 -9 -7 -17 -11 -19 -9
-2 2 -1 57 3 122 3 66 2 121 -2 124 -5 3 -8 35 -7 71 5 221 -1 625 -9 616 -5
-5 -11 -18 -14 -29 -3 -11 -5 94 -6 234 0 140 -3 252 -5 250 -2 -2 -7 -317
-10 -699 -4 -382 -8 -695 -9 -696 -5 -5 -40 -6 -132 -4 -66 2 -90 5 -70 10
l30 7 -27 7 -28 8 0 2037 0 2036 69 0 c38 0 73 -3 77 -7z m6588 -49 c8 -59 20
-55 33 11 5 25 14 45 21 44 7 -1 25 -2 42 -2 l30 -2 2 -2052 3 -2053 -122 -1
-123 -1 0 361 c0 216 -4 367 -10 376 -8 13 -10 13 -10 -2 0 -9 -6 -18 -12 -21
-10 -3 -13 -39 -13 -133 0 -71 -4 -137 -9 -146 -4 -10 -3 -46 3 -84 8 -45 9
-70 2 -78 -6 -7 -12 -66 -13 -132 -2 -65 -7 158 -12 496 -4 338 -7 715 -5 838
4 200 6 224 22 233 15 9 17 26 17 120 0 97 -2 111 -20 126 -20 17 -20 30 -20
995 0 642 3 979 10 983 14 8 30 -38 30 -85 0 -46 24 -100 34 -75 3 9 6 84 6
166 0 148 0 149 23 149 12 1 33 7 47 14 14 8 28 12 31 10 4 -2 9 -27 13 -55z
m-504 36 c7 -8 23 -15 36 -15 l24 0 0 -445 c0 -419 -1 -444 -17 -438 -10 4
-24 13 -31 20 -7 7 -20 13 -28 13 -12 0 -14 65 -14 440 0 246 4 440 9 440 5 0
14 -7 21 -15z m-7333 -33 c-10 -10 -17 -22 -17 -25 0 -9 90 3 114 15 14 8 11
-1 -12 -33 -65 -92 -107 -243 -125 -454 -2 -22 -4 2 -5 52 l-2 93 -26 -10
c-48 -19 -64 -13 -65 23 0 27 -2 29 -9 12 -7 -16 -9 -16 -9 -4 -1 28 48 188
73 238 24 47 77 111 92 111 4 0 0 -8 -9 -18z m406 -18 c-5 -14 3 -15 54 -12
l61 3 -29 -57 c-29 -57 -73 -232 -88 -350 l-8 -63 -2 74 c-1 72 -1 73 -25 67
-34 -8 -56 2 -57 28 -1 18 -3 16 -14 -9 -12 -26 -14 -27 -15 -8 -1 71 51 238
95 304 26 41 39 50 28 23z m8322 -79 c35 -75 85 -283 65 -270 -6 3 -11 21 -11
38 -1 24 -3 26 -6 10 -5 -27 -42 -39 -72 -23 -21 10 -21 9 -21 -71 0 -95 -9
-99 -17 -7 -7 89 -58 281 -94 352 -17 34 -25 55 -18 49 7 -7 35 -13 62 -13 42
0 48 2 43 17 -16 40 46 -33 69 -82z m107 65 c22 0 38 5 38 12 0 24 38 -24 68
-87 38 -77 72 -197 71 -245 l-1 -35 -8 30 c-4 17 -8 23 -9 15 -1 -10 -18 -21
-46 -28 l-45 -12 -1 -77 -1 -78 -14 110 c-18 137 -54 266 -96 348 -44 84 -44
82 -17 64 13 -10 40 -17 61 -17z m221 -10 c46 0 47 1 36 23 -12 22 -11 22 8 4
34 -30 82 -130 103 -214 21 -82 24 -112 10 -78 -7 16 -9 12 -9 -19 l-1 -39
-39 7 c-38 6 -38 6 -45 -33 -3 -21 -3 -54 1 -72 4 -20 3 -30 -4 -26 -6 4 -13
38 -17 77 -7 83 -40 237 -61 286 -7 18 -28 55 -46 81 -28 41 -29 45 -7 26 18
-17 37 -23 71 -23z m-8777 -41 c-39 -72 -70 -195 -91 -349 l-14 -105 3 102 c2
87 1 99 -11 87 -17 -17 -69 -19 -79 -2 -5 7 -12 -3 -20 -28 -12 -38 -13 -37
-7 26 6 74 53 225 88 286 20 35 28 40 52 37 15 -2 46 0 68 5 22 5 41 8 42 7 2
-1 -13 -30 -31 -66z m7201 -579 c-4 -501 -12 -868 -20 -876 -12 -12 -21 1274
-10 1402 l7 79 13 -45 c11 -36 13 -149 10 -560z m-5861 304 c2 -143 1 -340 -4
-439 -8 -161 -9 -132 -10 264 -1 244 0 442 4 439 3 -3 7 -122 10 -264z m5024
141 c0 -14 -4 -25 -10 -25 -11 0 -14 33 -3 43 11 11 13 8 13 -18z m-5702 -162
c-2 -70 -6 -88 -18 -88 -11 0 -16 15 -18 65 -4 78 3 110 24 110 12 0 14 -15
12 -87z m7217 -4 c5 -55 4 -79 -5 -84 -21 -13 -32 11 -37 79 -4 46 -2 70 7 81
20 24 28 7 35 -76z m314 -65 c14 -31 15 -144 1 -144 -5 0 -11 6 -12 13 -6 56
-20 102 -37 121 -11 14 -12 17 -2 11 11 -6 13 -4 8 7 -14 38 24 30 42 -8z
m-7839 0 c0 -8 5 -12 10 -9 15 9 12 -1 -10 -42 -11 -21 -20 -50 -20 -65 0 -19
-5 -28 -16 -28 -14 0 -16 8 -10 54 3 30 10 66 16 80 10 29 30 35 30 10z m45
-36 c-19 -11 -30 -5 -21 11 4 6 14 7 22 4 15 -5 14 -7 -1 -15z m8615 -50 c0
-51 -5 -47 -13 10 -3 24 -1 40 4 36 5 -3 9 -24 9 -46z m-1002 5 c-10 -2 -26
-2 -35 0 -10 3 -2 5 17 5 19 0 27 -2 18 -5z m-13 -30 c-11 -3 -23 -10 -27 -17
-5 -7 -8 -5 -8 7 0 12 7 17 28 16 21 -1 22 -2 7 -6z m-5785 -941 l0 -738 -47
3 c-27 1 -61 2 -78 2 l-30 1 0 458 c0 417 1 458 16 455 9 -3 19 3 23 12 4 12
0 18 -14 22 -18 5 -20 14 -20 86 0 64 3 82 18 93 16 12 16 13 0 19 -16 6 -18
21 -18 106 0 101 7 118 38 87 9 -9 12 4 12 60 l0 72 50 0 50 0 0 -738z m4172
476 c1 -145 4 -226 5 -181 3 56 8 85 18 93 19 16 19 34 0 50 -16 13 -19 50 -9
124 5 36 11 46 25 46 18 0 19 -23 19 -669 l0 -669 -69 -7 c-39 -4 -73 -5 -78
-2 -4 3 -7 336 -5 741 l2 736 45 0 45 0 2 -262z m-4839 170 c-6 -7 -10 -25 -9
-40 3 -44 -21 -33 -26 12 -3 37 -1 40 20 40 18 0 22 -3 15 -12z m-47 -110 c-3
-13 -8 -40 -11 -60 -7 -45 -25 -51 -25 -9 0 16 -4 41 -9 54 -11 29 -6 37 26
37 19 0 23 -4 19 -22z m202 2 c-10 -6 -25 -7 -40 -1 -20 9 -18 10 17 10 31 0
36 -2 23 -9z m5181 6 c-2 -2 -31 -7 -64 -11 -32 -3 -63 -9 -67 -11 -10 -6 -11
10 -1 19 3 4 36 7 71 7 36 0 63 -2 61 -4z m146 -5 c-15 -6 -21 -20 -25 -57
l-6 -49 -4 58 -5 57 30 -1 c25 0 27 -2 10 -8z m-5698 -213 c-2 -13 -4 -5 -4
17 -1 22 1 32 4 23 2 -10 2 -28 0 -40z m155 37 c21 -8 9 -99 -14 -103 -15 -3
-18 4 -18 42 0 25 -4 46 -10 46 -5 0 -10 5 -10 10 0 11 30 13 52 5z m5550 -61
c-5 -65 -27 -70 -27 -5 0 26 -6 45 -15 51 -11 7 -8 10 15 10 l30 0 -3 -56z
m-5342 36 c20 -6 21 -8 5 -8 -11 0 -29 3 -40 8 -25 11 1 11 35 0z m5162 1 c-9
-5 -12 -20 -9 -38 4 -28 -6 -64 -16 -53 -2 3 -7 26 -10 53 -7 46 -6 47 21 47
18 0 23 -3 14 -9z m-5359 -188 c-8 -3 -13 -23 -13 -49 0 -32 -4 -44 -15 -44
-11 0 -15 12 -15 44 0 26 -5 46 -12 49 -7 3 5 5 27 5 22 0 34 -2 28 -5z m5531
1 c12 -4 16 -20 16 -55 0 -63 -18 -64 -22 -1 -2 38 -6 46 -20 44 -10 -2 -18 2
-18 8 0 11 20 13 44 4z m-6257 -271 c-1 -49 -3 -9 -3 87 0 96 2 136 3 88 2
-49 2 -127 0 -175z m6078 217 c0 -23 -5 -40 -11 -40 -7 0 -10 12 -8 30 2 17
-1 30 -6 30 -6 0 -10 5 -10 10 0 6 8 10 18 10 14 0 18 -8 17 -40z m-5345 -130
c0 -5 -4 -10 -10 -10 -5 0 -10 -18 -10 -40 0 -28 -4 -40 -14 -40 -10 0 -15 15
-18 50 -3 49 -2 50 25 50 15 0 27 -4 27 -10z m5535 -35 c-1 -52 -15 -74 -15
-24 0 38 -8 53 -30 62 -8 3 -1 6 15 6 30 1 31 0 30 -44z m-180 25 c-3 -5 -15
-10 -25 -10 -10 0 -22 5 -25 10 -4 6 7 10 25 10 18 0 29 -4 25 -10z m-7166
-56 l-10 -27 81 6 c73 5 81 4 75 -11 -52 -134 -75 -240 -109 -492 -2 -19 -3
17 -1 80 2 63 7 124 11 135 7 19 7 19 -13 3 -14 -13 -37 -18 -76 -18 -55 0
-57 1 -58 28 0 24 -1 25 -9 7 -19 -42 3 62 32 150 25 78 69 165 83 165 2 0 0
-12 -6 -26z m9172 -55 c31 -62 85 -246 75 -257 -3 -3 -6 3 -6 14 0 16 -2 15
-13 -6 -10 -20 -21 -26 -59 -28 -39 -3 -49 1 -65 22 l-19 24 2 -136 3 -137
-14 115 c-16 120 -52 276 -85 364 -11 28 -20 54 -20 59 0 4 17 5 38 2 122 -16
133 -15 122 5 -13 24 -13 33 0 25 6 -4 24 -33 41 -66z m-8881 28 c0 -21 2 -22
89 -17 65 4 95 11 109 23 17 15 16 10 -6 -55 -35 -106 -59 -228 -72 -368 -7
-69 -15 -127 -17 -130 -7 -6 5 242 13 279 l5 26 -18 -27 c-17 -27 -20 -28
-110 -28 l-92 0 -10 -42 c-9 -38 -10 -33 -6 39 5 101 27 189 67 270 30 62 48
73 48 30z m8380 0 c32 -12 180 -15 180 -4 0 24 28 -21 53 -83 31 -81 47 -166
46 -239 l-2 -56 -12 60 c-7 33 -13 55 -14 48 -3 -31 -131 -44 -169 -18 l-22
16 5 -173 c4 -162 3 -166 -5 -63 -13 150 -47 333 -82 434 -15 47 -28 85 -28
86 0 3 36 -2 50 -8z m-6864 -73 c-3 -9 -6 -38 -6 -65 0 -38 -4 -49 -16 -49 -9
0 -18 9 -21 21 -4 16 -8 17 -14 7 -6 -9 -8 -3 -8 17 0 17 3 24 6 18 10 -25 23
-12 23 22 0 39 -16 48 -23 13 -4 -20 -4 -19 -6 5 -1 25 2 27 35 27 29 0 35 -3
30 -16z m5544 -50 c0 -62 -14 -72 -24 -16 -10 62 -8 82 9 76 11 -5 15 -21 15
-60z m-187 44 c-4 -7 -6 -23 -5 -35 2 -12 -1 -30 -7 -40 -8 -16 -10 -15 -16
10 -4 15 -5 34 -1 42 3 9 0 15 -10 15 -8 0 -12 5 -9 10 3 6 17 10 31 10 18 0
23 -4 17 -12z m146 -40 c-1 -45 -2 -49 -9 -23 -11 44 -11 75 0 75 6 0 9 -23 9
-52z m2885 -34 c-21 -14 -47 -35 -56 -46 -10 -11 -18 -15 -18 -10 0 13 88 82
103 82 5 0 -8 -12 -29 -26z m396 12 c0 -2 -19 -15 -42 -30 l-43 -27 35 31 c30
27 50 37 50 26z m619 -89 c-2 -3 -15 10 -28 27 l-24 31 28 -27 c16 -15 27 -29
24 -31z m-10231 -234 l2 -243 -40 0 -40 0 0 138 c0 98 3 133 11 122 7 -11 9
20 7 108 l-4 123 30 -3 31 -3 3 -242z m7214 10 c2 -233 3 -234 5 -55 2 116 7
181 13 177 6 -4 10 -79 10 -184 l0 -179 -36 -7 c-20 -3 -39 -3 -42 0 -9 9 -9
446 0 468 4 9 17 17 28 17 19 0 20 -6 22 -237z m-6382 217 c15 -5 19 -8 8 -9
-11 -1 -18 -11 -20 -33 -4 -43 -33 -46 -33 -4 -1 16 -7 32 -14 34 -11 4 -11 6
0 13 16 10 25 10 59 -1z m5524 4 c18 -7 23 -74 6 -74 -5 0 -10 11 -10 24 0 14
-4 28 -10 31 -6 3 -10 -4 -10 -17 0 -18 -2 -20 -10 -8 -24 37 -6 60 34 44z
m-5336 -11 c-10 -2 -26 -2 -35 0 -10 3 -2 5 17 5 19 0 27 -2 18 -5z m5167 -3
c-3 -5 -15 -10 -26 -10 -10 0 -19 5 -19 10 0 6 12 10 26 10 14 0 23 -4 19 -10z
m2240 -15 l30 -14 -30 6 c-29 5 -29 5 -10 -10 16 -12 17 -18 8 -28 -9 -9 -19
-8 -46 5 -19 9 -42 16 -50 16 -8 0 -17 6 -20 14 -10 26 71 33 118 11z m125 8
c-1 -14 -49 -43 -55 -34 -3 5 5 17 17 25 24 17 38 20 38 9z m226 -5 c5 -8 2
-9 -10 -5 -9 4 -14 3 -11 -2 3 -5 1 -12 -5 -16 -7 -4 -6 -14 2 -28 10 -19 9
-20 -3 -10 -8 7 -34 15 -58 19 -29 5 -38 10 -29 15 10 7 10 9 -1 9 -8 0 -29
-12 -45 -27 -25 -23 -27 -24 -11 -4 11 13 34 32 50 42 33 21 110 25 121 7z
m374 -4 l40 -16 -21 -19 c-26 -23 -35 -24 -42 -5 -4 9 0 12 13 9 10 -3 21 0
24 6 10 16 -35 14 -53 -3 -10 -9 -27 -12 -44 -9 -25 5 -26 6 -10 19 17 12 16
13 -7 14 -23 1 -23 2 -5 10 31 13 61 11 105 -6z m110 1 c0 -16 -27 -32 -37
-21 -7 7 16 36 28 36 5 0 9 -7 9 -15z m295 1 c19 -8 35 -18 35 -21 0 -3 -10 0
-22 6 l-23 12 20 -23 20 -23 -22 12 c-22 11 -40 0 -29 -18 3 -4 -14 -1 -39 8
-24 8 -39 18 -34 22 6 3 0 9 -13 12 -15 5 -33 0 -53 -14 l-30 -22 21 23 c36
37 113 49 169 26z m415 -6 c0 -4 10 -11 23 -15 19 -7 17 -9 -15 -12 -44 -5
-46 -8 -15 -41 l22 -25 -31 22 c-17 12 -55 28 -85 36 -33 8 -44 13 -29 14 19
1 22 3 11 10 -9 6 -23 6 -35 -1 -17 -8 -19 -8 -9 2 6 7 25 15 43 19 39 8 120
2 120 -9z m-1067 -11 c-12 -13 -28 -19 -37 -16 -34 13 -13 33 39 36 19 1 19 0
-2 -20z m772 12 c6 -11 -33 -36 -42 -27 -7 7 16 36 28 36 4 0 10 -4 14 -9z
m-655 -4 c0 -2 -15 -16 -32 -33 l-33 -29 29 33 c28 30 36 37 36 29z m-220 -37
c0 -5 -6 -10 -14 -10 -8 0 -18 5 -21 10 -3 6 3 10 14 10 12 0 21 -4 21 -10z
m1320 -29 c0 -12 -20 -25 -27 -18 -7 7 6 27 18 27 5 0 9 -4 9 -9z m-9290 -62
c0 -46 -2 -50 -21 -47 -17 2 -22 11 -25 50 -3 38 0 47 14 51 28 6 32 -1 32
-54z m5350 7 c0 -25 -4 -48 -10 -51 -6 -4 -10 13 -10 44 0 28 5 51 10 51 6 0
10 -20 10 -44z m193 -11 c0 -28 -5 -51 -12 -53 -7 -2 -11 14 -11 50 0 38 -3
49 -10 38 -5 -8 -10 -30 -10 -47 0 -18 -4 -33 -10 -33 -5 0 -10 23 -10 51 l0
50 31 -3 c31 -3 32 -4 32 -53z m-2419 16 c16 -18 37 -102 71 -281 20 -103 19
-120 -4 -120 -20 0 -31 34 -31 98 0 76 -46 303 -64 314 -8 5 -8 8 0 8 6 0 19
-9 28 -19z m-749 -28 c-7 -21 -18 -78 -24 -128 -23 -172 -58 -315 -78 -315
-14 0 9 146 47 300 44 172 46 180 59 180 5 0 3 -17 -4 -37z m-3513 0 c-6 -10
-16 -46 -22 -80 -13 -64 -30 -85 -30 -35 1 45 17 102 36 123 20 23 30 18 16
-8z m7824 -18 c18 -59 18 -125 -1 -125 -11 0 -15 11 -15 38 0 22 -6 60 -14 86
-13 43 -13 47 2 44 9 -2 22 -21 28 -43z m1536 28 c-5 -10 -7 -24 -4 -32 3 -8
0 -11 -7 -7 -14 9 -14 29 1 44 17 17 20 15 10 -5z m-705 -74 c7 -59 -12 -40
-21 21 -5 33 -4 42 4 34 6 -6 14 -31 17 -55z m-8484 4 c-13 -2 -33 -2 -45 0
-13 2 -3 4 22 4 25 0 35 -2 23 -4z m1007 -3 c0 -12 -144 -12 -210 -1 -34 7
-15 9 83 10 79 1 127 -3 127 -9z m5476 1 c-4 -5 -66 -9 -144 -9 -163 0 -142
12 30 16 75 2 118 -1 114 -7z m267 2 c-13 -2 -35 -2 -50 0 -16 2 -5 4 22 4 28
0 40 -2 28 -4z m-5758 -37 c11 -2 -35 -4 -103 -5 -68 0 -121 3 -118 7 4 7 172
6 221 -2z m5768 7 c-13 -2 -33 -2 -45 0 -13 2 -3 4 22 4 25 0 35 -2 23 -4z
m-585 -10 c-10 -2 -26 -2 -35 0 -10 3 -2 5 17 5 19 0 27 -2 18 -5z m140 0
c-21 -2 -57 -2 -80 0 -24 2 -7 4 37 4 44 0 63 -2 43 -4z m145 0 c-18 -2 -48
-2 -65 0 -18 2 -4 4 32 4 36 0 50 -2 33 -4z m1031 1 c28 -11 17 -22 -24 -26
-33 -3 -40 0 -40 14 0 19 32 24 64 12z m-6196 -36 c7 -7 12 -31 12 -55 0 -36
-3 -43 -20 -43 -16 0 -20 7 -20 33 0 17 -3 42 -6 55 -7 25 13 31 34 10z m4882
-48 c0 -33 -4 -60 -10 -60 -6 0 -10 27 -10 60 0 33 4 60 10 60 6 0 10 -27 10
-60z m-4823 -56 c-1 -2 -8 0 -14 4 -7 5 -9 25 -5 57 l6 50 8 -54 c5 -30 7 -55
5 -57z m4783 46 l-7 -45 -2 55 c0 32 3 50 8 45 5 -6 5 -30 1 -55z m1667 -12
c-2 -13 -4 -3 -4 22 0 25 2 35 4 23 2 -13 2 -33 0 -45z m948 2 c8 -13 -85 -13
-105 0 -11 7 1 10 42 10 31 0 60 -4 63 -10z m340 -10 l50 -7 -45 -1 c-25 0
-65 3 -90 7 l-45 8 40 1 c22 0 63 -3 90 -8z m-7685 -4 c0 -2 -3 -11 -6 -20 -9
-23 -24 -20 -24 4 0 11 7 20 15 20 8 0 15 -2 15 -4z m4688 -13 c-2 -10 -10
-17 -16 -15 -7 1 -12 -10 -13 -25 l-1 -28 -8 25 c-15 47 -12 60 16 60 19 0 25
-4 22 -17z m3137 -84 c198 -5 486 -14 640 -19 154 -5 310 -10 348 -10 l67 0 0
-167 0 -167 -35 41 c-48 57 -106 83 -183 83 -76 0 -107 -12 -154 -57 l-37 -36
-51 46 c-94 85 -221 88 -313 7 l-45 -40 -25 33 c-68 90 -234 104 -317 27 -18
-17 -35 -30 -39 -30 -4 0 -20 13 -36 30 -41 43 -85 60 -155 60 -63 0 -99 -13
-157 -56 l-32 -24 -15 28 c-21 40 -72 62 -144 62 -46 0 -65 -5 -83 -21 -23
-19 -23 -20 -2 -10 12 6 34 11 50 10 28 -1 28 -1 -4 -9 -18 -4 -39 -12 -45
-17 -16 -12 -48 -13 -48 -1 0 5 14 63 30 130 17 66 30 123 30 125 0 2 89 1
198 -2 108 -3 359 -10 557 -16z m-7785 -68 c0 -39 -4 -73 -10 -76 -6 -4 -10
22 -10 69 0 44 4 76 10 76 6 0 10 -30 10 -69z m222 0 l-4 -69 -54 5 c-46 5
-54 3 -54 -11 0 -24 -27 -19 -34 7 -3 12 -6 45 -6 74 0 58 0 58 105 62 l50 1
-3 -69z m4238 -16 c0 -83 -1 -85 -24 -85 -25 0 -43 26 -23 33 7 2 -9 3 -34 2
-25 -1 -51 -5 -58 -9 -8 -5 -11 14 -11 68 l0 76 75 0 75 0 0 -85z m60 20 c0
-63 -1 -65 -25 -65 -24 0 -25 2 -25 65 0 63 1 65 25 65 24 0 25 -2 25 -65z
m40 -10 c0 -37 -4 -65 -10 -65 -6 0 -10 28 -10 65 0 37 4 65 10 65 6 0 10 -28
10 -65z m89 -467 c-1 -288 -5 -550 -9 -583 -4 -36 -8 82 -10 300 -1 198 -4
460 -5 583 -2 183 0 222 11 222 12 0 14 -86 13 -522z m-6088 456 c-5 -16 -10
-21 -10 -12 -1 18 10 51 15 45 2 -1 -1 -16 -5 -33z m949 27 c0 -12 -45 -22
-64 -15 -29 11 -16 24 24 24 22 0 40 -4 40 -9z m228 2 c-10 -2 -28 -2 -40 0
-13 2 -5 4 17 4 22 1 32 -1 23 -4z m5132 -3 c0 -5 -9 -10 -19 -10 -11 0 -23 5
-26 10 -4 6 5 10 19 10 14 0 26 -4 26 -10z m230 0 c24 -8 23 -8 -7 -9 -31 -1
-33 -3 -33 -36 0 -19 -4 -35 -10 -35 -5 0 -10 15 -10 33 0 18 -5 38 -12 45 -9
9 -5 12 18 11 16 -1 40 -5 54 -9z m-6309 -596 c0 -312 -3 -569 -6 -572 -3 -3
-5 255 -5 573 0 318 3 576 6 572 3 -3 6 -261 5 -573z m3464 487 c-6 -5 -93
-11 -195 -13 -159 -4 -179 -3 -145 8 46 14 355 19 340 5z m-2121 -233 c-4
-148 -9 -215 -17 -220 -19 -12 -25 34 -26 230 l-1 182 -27 2 c-19 1 -13 3 17
8 25 4 48 8 52 8 4 1 5 -94 2 -210z m4341 202 l30 -8 -27 -1 -28 -1 0 -162 c0
-211 -12 -412 -21 -348 -5 38 -7 32 -9 -40 -3 -76 -4 -70 -10 60 -4 80 -8 223
-9 318 l-1 172 -31 0 c-17 0 -28 4 -24 10 7 11 85 11 130 0z m410 -20 c-34 -7
-115 -1 -115 9 0 3 33 4 72 2 54 -3 65 -6 43 -11z m-5377 -4 c-11 -8 -18 -26
-18 -45 0 -27 -4 -31 -26 -31 -23 0 -25 3 -19 30 4 19 2 36 -5 45 -11 13 -5
15 36 15 43 -1 47 -2 32 -14z m200 7 c-10 -2 -26 -2 -35 0 -10 3 -2 5 17 5 19
0 27 -2 18 -5z m2802 -2 c134 -6 78 -7 -240 -7 -228 0 -379 3 -335 6 110 9
365 9 575 1z m2615 -1 c-3 -5 -17 -10 -30 -10 -19 0 -24 -6 -27 -32 -4 -40
-22 -40 -26 -1 -2 15 -11 34 -20 41 -13 10 -5 12 47 12 39 0 60 -4 56 -10z
m3773 -287 c-2 -150 -7 -238 -13 -238 -12 0 -19 380 -9 475 14 128 24 11 22
-237z m-1800 270 c-10 -2 -26 -2 -35 0 -10 3 -2 5 17 5 19 0 27 -2 18 -5z
m-4445 -22 c40 -1 56 -4 51 -12 -5 -8 -135 -10 -465 -8 -297 3 -461 0 -468 -6
-5 -5 -16 -39 -25 -75 -19 -85 -33 -120 -47 -120 -21 0 18 148 49 188 32 41
67 42 905 33z m4630 -33 c-12 -13 -28 -39 -36 -58 l-15 -35 -1 28 c-1 20 9 38
30 58 37 34 52 39 22 7z m267 -3 c20 -24 6 -28 -15 -5 -10 11 -13 20 -8 20 6
0 16 -7 23 -15z m98 -22 c-9 -10 -23 -31 -31 -48 -9 -16 -16 -23 -17 -15 0 23
41 79 59 80 2 0 -3 -8 -11 -17z m419 6 c-10 -6 -27 -25 -38 -42 -15 -25 -19
-28 -19 -12 0 19 45 64 65 64 6 0 2 -4 -8 -10z m388 -29 c-16 -17 -35 -43 -41
-58 -9 -18 -13 -21 -13 -10 -1 16 64 98 77 98 3 0 -7 -14 -23 -30z m-9982 -5
c-6 -17 -62 -50 -70 -42 -2 3 5 8 16 12 12 3 26 15 31 26 13 23 32 26 23 4z
m8567 5 c0 -6 -4 -10 -10 -10 -5 0 -25 -14 -44 -31 -29 -25 -38 -28 -55 -19
-14 7 -18 16 -13 28 6 16 7 16 10 0 2 -10 8 -18 13 -18 11 0 49 37 49 48 0 4
11 9 25 10 14 1 25 -3 25 -8z m1725 -21 c14 -22 -3 -18 -26 7 -23 25 -23 26
-2 15 12 -6 25 -16 28 -22z m-1690 -10 c9 -28 -18 -57 -38 -41 -8 7 -17 9 -20
5 -4 -3 -7 -1 -7 6 0 7 -4 9 -10 6 -5 -3 -10 -4 -10 0 0 6 61 45 72 45 4 0 10
-10 13 -21z m-1312 -321 l-10 -243 0 290 c-1 213 2 278 9 243 6 -30 7 -133 1
-290z m-6250 304 c-18 -3 -23 -10 -24 -35 -1 -18 -1 -35 0 -39 0 -5 -8 -8 -19
-8 -16 0 -20 7 -20 34 0 19 -5 38 -11 42 -20 12 8 20 53 15 26 -3 34 -6 21 -9z
m192 7 c-18 -5 -33 -5 -39 1 -7 7 4 10 30 9 39 -1 39 -1 9 -10z m5174 1 c-9
-5 -28 -6 -45 0 -27 8 -26 8 16 9 32 0 40 -2 29 -9z m226 -1 c29 -2 29 -2 -5
-8 -33 -6 -35 -8 -32 -44 2 -28 -1 -37 -13 -37 -10 0 -15 10 -15 34 0 19 -3
42 -7 52 -5 14 -2 16 18 11 13 -4 38 -7 54 -8z m968 -103 c32 -24 35 -30 30
-66 -6 -43 19 -95 57 -118 21 -13 21 -14 5 -32 -9 -10 -27 -21 -41 -24 -13 -4
-24 -14 -24 -22 0 -9 -20 -34 -44 -55 -24 -21 -49 -52 -56 -69 -7 -16 -15 -30
-19 -30 -3 0 -5 39 -4 88 0 48 1 168 2 266 l1 180 29 -46 c16 -25 45 -57 64
-72z m1258 90 c-11 -11 -23 -17 -27 -13 -10 9 13 34 31 34 13 0 12 -4 -4 -21z
m1686 -323 c-1 -65 -3 -14 -3 112 0 127 2 180 3 118 2 -62 2 -165 0 -230z
m-1867 317 c-13 -8 -13 -10 2 -10 9 0 20 5 23 10 9 15 52 12 85 -5 17 -9 30
-17 30 -18 0 -1 -14 -2 -32 -2 -18 0 -33 -6 -36 -14 -3 -9 0 -11 9 -6 8 5 7 1
-3 -10 -15 -16 -18 -16 -38 -2 -12 9 -29 13 -38 10 -8 -4 -13 -2 -9 3 3 6 2
16 -2 23 -7 10 -13 10 -30 2 -11 -7 -21 -9 -21 -7 0 7 52 35 65 35 6 1 3 -4
-5 -9z m600 1 c0 -12 -42 -42 -49 -36 -5 6 29 45 41 45 4 0 8 -4 8 -9z m-828
-48 c6 -8 2 -13 -12 -18 -16 -5 -20 -13 -17 -27 5 -19 5 -19 -14 -2 -18 16
-23 16 -42 5 -12 -8 -33 -20 -47 -28 l-25 -15 25 18 c14 10 45 39 70 64 32 32
46 41 49 30 2 -8 7 -20 13 -27z m703 37 l26 -10 -28 -26 c-21 -20 -34 -24 -57
-20 -15 3 -35 6 -42 6 -8 0 -14 7 -14 15 0 8 -6 15 -12 15 -7 1 -2 7 12 15 29
17 78 19 115 5z m520 -10 c-10 -11 -23 -20 -28 -20 -6 0 -2 9 8 20 10 11 23
20 28 20 6 0 2 -9 -8 -20z m-136 -6 c34 -7 43 -24 12 -24 -11 0 -23 -9 -26
-20 -5 -16 -11 -19 -33 -13 -15 4 -39 8 -54 8 -14 0 -24 3 -21 8 10 17 -13 5
-40 -20 -24 -22 -27 -24 -19 -7 16 30 36 44 84 59 51 16 57 17 97 9z m420 -15
c27 -5 57 -20 68 -31 l18 -22 -25 17 c-13 9 -31 17 -40 17 -18 0 -43 -37 -35
-50 3 -5 -9 -3 -27 6 -18 8 -41 18 -52 21 -17 5 -17 7 5 19 13 7 18 13 11 14
-21 0 -51 -19 -84 -53 -17 -19 -25 -24 -20 -12 15 30 56 65 88 75 39 11 37 11
93 -1z m-343 -26 c-8 -8 -36 5 -36 17 0 7 6 7 21 0 11 -7 18 -14 15 -17z
m-5856 -22 c-22 -12 -250 -22 -250 -11 0 10 56 16 180 18 50 1 79 -2 70 -7z
m5810 -16 c-7 -8 -17 -12 -22 -9 -6 4 -5 10 3 15 22 14 33 10 19 -6z m618 -7
c-2 -6 -15 -18 -28 -27 -21 -14 -23 -14 -16 -1 16 27 28 40 38 40 5 0 8 -5 6
-12z m-2094 -19 c-6 -10 -39 -11 -72 -2 -13 3 -19 9 -13 12 15 10 92 0 85 -10z
m-4489 -19 c15 -6 8 -9 -27 -9 -26 -1 -50 4 -53 9 -8 12 52 12 80 0z m2810 0
c4 -6 -10 -10 -35 -10 -25 0 -39 4 -35 10 3 6 19 10 35 10 16 0 32 -4 35 -10z
m244 -6 c2 -2 -10 -4 -27 -4 -31 0 -32 -1 -32 -46 0 -59 -24 -55 -28 4 -2 23
-8 42 -13 42 -6 0 -7 5 -4 10 6 10 92 4 104 -6z m-5627 -6 c-28 -6 -52 -6 -70
1 -22 8 -15 9 43 9 68 0 69 0 27 -10z m7682 -7 c3 -5 -5 -11 -19 -13 -28 -6
-35 8 -7 15 9 3 18 5 19 6 1 0 4 -3 7 -8z m381 -21 c10 -11 15 -20 12 -20 -14
0 -57 24 -57 32 0 15 27 8 45 -12z m-4675 -16 c0 -5 -49 -27 -90 -39 -42 -13
-13 8 38 25 26 10 48 18 50 19 1 0 2 -1 2 -5z m-1040 -31 c91 -6 114 -9 85
-14 -22 -3 138 -8 355 -10 355 -3 373 -4 180 -9 -344 -8 -731 11 -776 39 -17
11 -17 12 6 7 14 -3 81 -9 150 -13z m6540 10 c0 -5 -15 -9 -33 -10 -23 -2 -28
0 -17 7 18 12 50 13 50 3z m-5873 -10 c-98 -2 -256 -2 -350 0 -95 1 -14 3 178
2 193 0 270 -1 172 -2z m3946 -20 c-23 -9 -14 -20 28 -32 23 -7 39 -14 37 -16
-6 -5 -128 18 -128 24 0 8 48 29 65 29 6 0 4 -2 -2 -5z m2377 -48 c0 -35 -1
-35 -42 -35 l-43 0 35 34 c19 19 38 34 43 35 4 1 7 -15 7 -34z m-2576 -15 c52
0 23 -7 -54 -13 -70 -6 -73 -5 -45 8 17 8 39 13 50 10 11 -3 33 -5 49 -5z
m-1384 -10 c9 -6 10 -10 3 -10 -6 0 -15 -10 -19 -22 l-7 -23 -8 23 c-5 13 -17
22 -29 22 -12 0 -18 5 -15 10 8 13 55 13 75 0z m-5370 -9 c-21 -6 -25 -13 -25
-44 0 -32 -3 -37 -20 -35 -16 2 -19 9 -17 31 2 16 -2 35 -9 43 -10 12 -3 14
42 13 39 -1 47 -3 29 -8z m198 2 c-10 -2 -26 -2 -35 0 -10 3 -2 5 17 5 19 0
27 -2 18 -5z m420 -70 c-1 -63 -2 -68 -5 -25 -2 30 -8 50 -14 47 -10 -7 -8 23
4 43 15 22 17 12 15 -65z m4967 68 c-27 -6 -30 -10 -27 -39 2 -23 -1 -32 -11
-32 -10 0 -16 13 -19 40 l-4 40 46 -1 c39 -1 41 -2 15 -8z m1503 -17 c95 -4
170 -9 167 -12 -7 -7 -377 -11 -389 -4 -6 3 -33 4 -60 3 -34 -2 -48 1 -41 7
14 15 53 20 105 16 25 -2 123 -6 218 -10z m-414 -15 c5 -5 -5 -4 -24 1 -18 5
-35 12 -39 16 -9 9 53 -7 63 -17z m-5851 -13 c3 -7 -3 -26 -14 -42 -19 -30
-23 -27 -19 16 3 40 22 55 33 26z m3897 -12 c0 -8 -4 -12 -10 -9 -5 3 -10 13
-10 21 0 8 5 12 10 9 6 -3 10 -13 10 -21z m2148 1 c28 -9 54 -20 57 -25 4 -6
-3 -6 -20 0 -15 6 -61 10 -104 10 -52 0 -83 5 -97 15 -17 13 -13 14 47 15 36
0 88 -7 117 -15z m2721 -19 c0 -6 -3 -6 -6 2 -4 10 -8 10 -19 1 -19 -16 -30
-3 -14 16 10 12 16 13 26 4 8 -6 14 -17 13 -23z m-2393 3 c36 -22 46 -36 17
-24 -10 4 -52 11 -93 16 -150 17 -169 29 -45 29 71 0 94 -4 121 -21z m239 -2
c84 -48 169 -201 189 -342 l5 -40 -13 40 -14 40 -1 -37 c-1 -37 -2 -38 -38
-39 -21 -1 -47 0 -57 1 -18 2 -19 -4 -13 -92 l6 -93 -19 105 c-27 147 -36 183
-75 279 -19 47 -33 86 -31 89 2 2 13 -1 24 -7 22 -12 95 -15 105 -5 8 9 -24
63 -43 74 -8 4 -42 11 -75 14 -107 12 -135 18 -135 27 0 5 33 9 73 9 56 0 81
-5 112 -23z m105 3 l25 -8 -25 0 c-14 0 -36 4 -50 8 l-25 8 25 0 c14 0 36 -4
50 -8z m1740 -9 c-10 -21 -30 -37 -30 -26 0 14 21 45 31 45 6 0 6 -7 -1 -19z
m-7202 -15 c3 -11 -67 -14 -394 -15 -480 -2 -814 7 -814 23 0 8 169 10 602 8
495 -2 604 -5 606 -16z m2619 9 c4 -13 -4 -13 -442 -19 -409 -5 -805 2 -805
15 0 5 231 10 513 12 710 4 730 3 734 -8z m3231 -12 c-16 -2 -40 -2 -55 0 -16
2 -3 4 27 4 30 0 43 -2 28 -4z m390 -20 c-27 -2 -69 -2 -95 0 -27 2 -5 3 47 3
52 0 74 -1 48 -3z m-10293 -27 l-16 -23 58 -2 c46 -1 61 3 80 21 30 28 29 19
-7 -51 -34 -69 -75 -220 -94 -352 l-14 -94 -1 95 -1 95 -51 -4 c-45 -3 -51 -1
-56 19 -4 16 -8 18 -14 8 -19 -29 -8 35 21 124 29 93 80 188 100 188 6 0 4
-10 -5 -24z m11558 -2 c-3 -8 -12 -14 -20 -14 -7 0 -13 -6 -11 -14 2 -8 -1
-16 -7 -18 -5 -2 -11 13 -13 33 -3 34 -2 36 27 31 20 -3 28 -8 24 -18z m-2264
-81 c37 -75 71 -200 70 -252 l-1 -36 -11 28 c-9 23 -17 27 -48 27 -20 0 -58 3
-84 7 l-48 6 6 -79 6 -79 -18 100 c-20 112 -45 212 -67 265 -8 19 -11 30 -5
25 6 -6 21 -39 35 -75 14 -36 25 -56 26 -44 0 20 4 21 75 16 41 -2 75 -2 75 0
0 3 -5 19 -11 36 -11 31 -12 31 -87 34 -72 3 -76 4 -92 33 l-17 30 66 -5 c36
-3 72 -9 79 -13 17 -11 15 11 -3 47 -15 29 -15 29 3 13 11 -10 34 -47 51 -84z
m1870 61 c10 -9 -66 -3 -79 6 -10 7 -1 8 30 4 25 -4 47 -8 49 -10z m-10914
-30 c14 -3 47 -4 75 -2 31 2 49 -1 46 -7 -12 -33 -39 -135 -41 -160 -2 -16
-12 -68 -22 -115 l-18 -85 -3 60 -3 60 -73 -3 c-68 -3 -73 -5 -83 -30 -11 -26
-11 -26 -12 12 -1 21 6 65 14 97 21 78 87 220 92 197 3 -10 15 -21 28 -24z
m8791 -138 c26 -76 33 -164 11 -135 -10 14 -26 16 -85 11 -53 -3 -76 -1 -89 9
-15 13 -16 11 -10 -11 7 -31 19 -209 12 -195 -2 6 -13 66 -24 135 -12 69 -36
174 -55 234 -38 118 -35 128 8 26 l27 -65 84 3 c90 4 98 9 69 50 -13 19 -24
22 -86 22 -52 0 -76 4 -90 17 -29 26 -21 32 31 26 67 -8 121 3 121 25 1 25 49
-71 76 -152z m1104 129 c190 -13 491 -34 670 -46 179 -11 335 -26 347 -31 22
-11 92 -7 126 7 16 7 17 -10 17 -279 l0 -287 -72 3 c-59 2 -72 6 -69 18 13 51
11 113 -4 166 -13 47 -27 69 -69 110 -61 59 -116 79 -206 72 -75 -5 -135 -44
-167 -106 l-21 -43 -11 34 c-14 41 -85 115 -128 133 -41 18 -144 18 -186 0
-37 -15 -97 -79 -97 -104 -1 -11 -6 -7 -17 13 -53 99 -108 135 -204 135 -76 0
-138 -27 -177 -76 -28 -35 -42 -43 -42 -22 0 23 -54 81 -94 99 -22 10 -57 19
-77 19 -34 0 -36 2 -53 58 -10 31 -31 81 -47 111 l-29 54 133 -6 c72 -4 287
-18 477 -32z m-2802 14 c27 0 27 0 4 -10 -27 -10 -75 -1 -66 13 3 5 13 7 21 4
8 -3 27 -6 41 -7z m-6745 -22 c40 6 75 7 79 4 3 -3 -5 -46 -18 -96 -14 -49
-34 -151 -44 -225 l-20 -135 6 110 c3 61 7 121 10 135 l4 25 -10 -25 c-16 -35
-27 -40 -103 -40 l-68 0 -20 -42 -19 -43 5 70 c6 65 32 159 70 249 16 37 17
38 36 20 17 -16 28 -16 92 -7z m1397 14 c0 -11 -63 -21 -90 -14 -16 4 -18 8
-8 14 17 11 98 11 98 0z m5580 -1 c22 -7 21 -8 -12 -9 -37 -1 -38 -2 -38 -41
0 -22 -4 -40 -10 -40 -5 0 -10 15 -10 34 0 19 -3 41 -6 50 -5 12 0 16 22 15
16 -1 40 -5 54 -9z m3919 -127 c-1 -88 -3 -100 -10 -63 -14 83 -11 170 8 170
2 0 2 -48 2 -107z m-3272 -45 c-2 -29 -3 -8 -3 47 0 55 1 79 3 53 2 -26 2 -71
0 -100z m-5387 64 c0 -10 -3 -22 -7 -25 -10 -11 -32 13 -26 29 8 20 33 17 33
-4z m3830 -7 c0 -14 -4 -25 -10 -25 -5 0 -10 11 -10 25 0 14 5 25 10 25 6 0
10 -11 10 -25z m-4465 -55 c-11 -5 -33 -8 -50 -8 l-30 0 30 8 c17 4 39 8 50 8
l20 1 -20 -9z m5139 1 c18 -7 18 -8 2 -14 -21 -8 -66 1 -66 14 0 11 37 11 64
0z m-5364 -10 c25 -7 25 -7 3 -13 -17 -4 -23 -14 -23 -32 0 -16 -6 -26 -15
-26 -8 0 -14 3 -13 8 5 17 -24 52 -45 53 -21 1 -21 1 3 9 31 10 57 10 90 1z
m5629 -7 c2 -2 -12 -4 -32 -4 -31 0 -36 -3 -39 -27 -4 -39 -28 -42 -28 -4 0
17 -5 31 -11 31 -5 0 -7 5 -4 10 6 9 103 4 114 -6z m3759 -199 c0 -60 -3 -123
-7 -140 -6 -28 -7 -27 -14 19 -9 61 -9 159 0 222 10 78 22 25 21 -101z m-2689
-52 c2 -55 -26 -41 -34 17 -4 27 -11 52 -16 56 -5 3 -9 10 -9 16 0 7 6 6 15
-2 12 -10 15 -9 16 6 2 29 27 -57 28 -93z m-7835 60 c-7 -21 -13 -46 -14 -55
0 -9 -5 -20 -12 -24 -16 -10 -3 61 17 92 22 34 25 30 9 -13z m1331 27 c-11 -5
-27 -9 -35 -9 -13 -1 -13 0 0 9 8 5 24 9 35 9 l20 0 -20 -9z m5185 0 c11 -7 4
-10 -25 -10 -22 0 -47 5 -55 10 -11 7 -4 10 25 10 22 0 47 -5 55 -10z m-5360
-19 c0 -14 -54 -23 -94 -15 -58 10 -41 24 29 24 36 0 65 -4 65 -9z m5604 0 c6
-9 -39 -21 -79 -21 -12 0 -28 7 -35 15 -11 13 -5 15 48 15 34 0 63 -4 66 -9z
m-7778 -33 c-3 -13 -6 -29 -6 -35 0 -7 -4 -13 -10 -13 -11 0 -13 30 -4 54 9
25 27 19 20 -6z m10020 14 c14 -9 27 -45 13 -37 -5 4 -21 0 -34 -9 -24 -16
-53 -12 -67 8 -4 5 10 18 30 27 44 21 44 21 58 11z m129 -12 c-10 -11 -23 -20
-28 -20 -6 0 -2 9 8 20 10 11 23 20 28 20 6 0 2 -9 -8 -20z m1125 -41 c0 -6
-11 3 -25 19 -14 17 -25 34 -25 38 1 12 50 -45 50 -57z m-8620 31 c-45 -25
-58 -25 -35 0 10 11 30 20 44 20 25 -1 25 -2 -9 -20z m4565 -1 c16 -16 -20
-10 -41 7 -18 14 -18 15 6 8 14 -3 29 -10 35 -15z m3240 -15 c17 -8 21 -12 11
-9 -13 4 -26 -3 -40 -20 -17 -20 -26 -24 -46 -18 -37 11 -39 43 -3 44 l28 1
-25 8 c-23 7 -22 8 10 9 19 0 49 -7 65 -15z m-5605 -181 c-1 -196 -13 -406
-26 -458 l-8 -30 -8 40 c-4 22 -10 168 -14 324 -7 269 -6 285 11 297 43 32 45
24 45 -173z m1980 177 c10 -7 -5 -9 -50 -8 -59 1 -61 2 -25 8 59 11 59 11 75
0z m-2270 -46 c0 -39 -13 -60 -22 -34 -2 5 -68 10 -155 11 l-153 1 0 24 c0 35
21 40 185 41 l145 1 0 -44z m74 31 c4 -11 13 -14 31 -9 24 6 25 4 25 -40 0
-25 -2 -46 -4 -46 -16 0 -36 14 -36 26 0 8 -4 14 -10 14 -5 0 -10 -11 -10 -25
0 -15 -6 -25 -14 -25 -16 0 -28 63 -20 98 7 25 29 29 38 7z m613 -37 c-2 -13
-4 -5 -4 17 -1 22 1 32 4 23 2 -10 2 -28 0 -40z m326 30 c14 -21 -9 -68 -32
-68 -14 0 -14 2 -1 10 11 7 4 10 -25 10 -29 0 -36 -3 -25 -10 13 -8 13 -10 -2
-10 -9 0 -18 4 -20 8 -1 5 -47 6 -101 3 -53 -3 -97 -4 -98 -1 0 3 -1 22 -3 43
l-3 38 150 -3 c127 -3 151 -6 160 -20z m1699 13 c80 -31 108 -45 108 -56 0
-10 -114 41 -139 62 -8 6 8 3 31 -6z m-4703 -5 c-17 -15 -110 -55 -107 -45 2
6 24 20 48 30 42 17 68 24 59 15z m2649 -43 c-3 -47 -4 -48 -39 -51 -37 -3
-37 -3 -41 40 -3 24 -3 46 -1 51 2 4 22 7 44 7 l40 0 -3 -47z m3477 38 c-6 -6
-25 -12 -42 -16 -25 -4 -33 -2 -33 10 0 11 11 15 42 15 26 0 38 -4 33 -9z
m2229 -16 c43 -18 47 -27 8 -15 -24 6 -31 4 -42 -14 -8 -11 -13 -24 -12 -28 1
-3 -13 -2 -31 3 -17 5 -33 9 -35 9 -2 0 0 5 3 10 4 6 -6 10 -22 10 -22 0 -25
2 -13 10 13 9 13 10 0 10 -13 0 -13 1 0 10 23 15 103 12 144 -5z m-294 -30
c-7 -8 -22 -15 -33 -15 -20 0 -20 0 -1 15 27 20 51 20 34 0z m-6292 -22 c-10
-2 -28 -2 -40 0 -13 2 -5 4 17 4 22 1 32 -1 23 -4z m6767 -23 c-31 -21 -55
-26 -55 -12 0 17 25 32 55 32 l30 0 -30 -20z m-729 -54 c10 -8 17 -17 14 -19
-3 -3 -16 3 -30 13 -29 22 -14 27 16 6z m-8186 -11 c0 -6 -137 -75 -150 -75
-35 0 32 43 105 68 37 12 45 13 45 7z m5590 -53 c40 -27 80 -42 111 -42 18 0
29 -5 29 -14 0 -8 12 -17 28 -21 15 -3 34 -12 42 -20 8 -7 123 -67 255 -133
132 -67 235 -121 228 -121 -12 -1 -291 133 -343 164 -37 22 -291 141 -320 150
-28 9 -140 64 -140 70 0 8 88 -18 110 -33z m3058 14 c2 -10 -1 -23 -8 -30 -8
-8 -9 -6 -4 8 4 11 2 21 -7 27 -20 13 -27 11 -32 -8 -3 -13 -5 -12 -6 5 -1 20
3 23 26 20 18 -2 29 -10 31 -22z m1232 -24 c0 -9 5 -7 -349 -96 -236 -60 -288
-70 -268 -50 9 10 394 107 547 138 36 7 66 14 68 15 1 0 2 -2 2 -7z m-10051
-15 c-17 -15 -434 -226 -518 -263 -96 -43 -63 -20 57 40 64 32 124 62 132 67
8 4 44 24 80 44 64 34 66 36 62 70 -4 36 8 44 36 26 11 -7 11 -9 -2 -14 -9 -4
-16 -11 -16 -16 0 -5 19 -2 43 8 76 32 143 52 126 38z m6620 -155 c1 -7 -3
-10 -9 -7 -5 3 -10 21 -9 38 1 31 1 31 9 7 4 -14 8 -31 9 -38z m-7433 1 c-10
-26 -18 -8 -9 23 5 21 8 24 11 11 2 -10 1 -25 -2 -34z m514 42 c0 -3 -33 -21
-72 -40 -40 -19 -65 -29 -54 -23 65 44 86 57 103 61 10 3 19 5 21 6 1 0 2 -1
2 -4z m6644 -21 c24 -12 35 -25 38 -44 l4 -26 -91 21 c-95 23 -195 54 -195 61
0 2 47 4 105 4 76 0 114 -4 139 -16z m-7144 -72 c0 -17 -26 -32 -56 -32 -18 0
-45 -5 -60 -10 -15 -6 -29 -9 -31 -6 -5 4 115 54 135 55 6 1 12 -3 12 -7z
m-112 -147 c62 -4 110 -10 107 -14 -4 -3 -100 -8 -213 -11 l-207 -5 -43 -83
c-24 -46 -46 -81 -49 -78 -3 3 14 47 40 98 l45 93 104 3 c56 2 154 1 216 -3z
m7947 -75 c59 -100 53 -117 -6 -21 l-44 71 -200 -1 c-128 0 -201 3 -203 10 -4
12 55 17 255 19 l151 2 47 -80z m-4927 -53 l-12 -38 -55 7 c-68 8 -77 14 -25
15 l39 1 -40 8 c-22 5 -44 4 -49 -1 -12 -11 -66 -12 -66 -1 0 4 6 15 14 24 10
14 32 18 107 20 52 2 95 3 96 2 1 0 -3 -17 -9 -37z m448 16 c-11 -3 -26 -11
-34 -19 -11 -12 -3 -14 61 -14 40 0 76 3 79 6 9 8 447 10 441 2 -2 -5 110 -7
249 -6 204 2 228 3 123 8 -111 4 -127 7 -108 18 14 8 64 12 141 12 116 0 120
-1 136 -25 35 -53 73 -50 -749 -50 -420 1 -767 3 -770 6 -3 3 2 20 11 37 l15
32 212 -1 c117 -1 203 -4 193 -6z m1137 -19 c-3 -8 0 -14 6 -14 6 0 11 -4 11
-10 0 -5 -7 -10 -15 -10 -8 0 -15 6 -15 14 0 8 -3 22 -6 30 -5 12 -2 15 9 10
9 -3 13 -12 10 -20z m169 2 c-2 -10 1 -15 7 -12 5 4 15 -4 22 -16 9 -19 9 -21
-2 -10 -7 6 -33 12 -58 13 -34 0 -41 3 -26 9 19 7 19 8 -5 18 -14 5 -34 12
-45 15 -11 3 9 5 45 4 57 -2 65 -4 62 -21z m-1927 -34 c-6 -5 -23 -14 -38 -20
-26 -11 -27 -11 -17 8 7 12 21 20 37 20 15 0 23 -4 18 -8z"/>
<path d="M10960 9145 c0 -8 5 -15 10 -15 6 0 10 7 10 15 0 8 -4 15 -10 15 -5
0 -10 -7 -10 -15z"/>
<path d="M4332 8708 c-17 -17 -15 -32 7 -52 17 -16 20 -16 35 -1 18 18 19 25
10 49 -7 19 -35 21 -52 4z"/>
<path d="M4328 8295 c-20 -44 29 -77 52 -35 8 14 8 26 0 40 -15 27 -38 25 -52
-5z"/>
<path d="M4330 8000 c-14 -26 3 -60 30 -60 23 0 35 33 20 60 -14 26 -36 26
-50 0z"/>
<path d="M4331 7671 c-27 -27 -27 -47 0 -61 39 -21 70 40 35 69 -12 10 -19 8
-35 -8z"/>
<path d="M4335 7244 c-23 -23 -15 -48 18 -52 32 -4 44 16 27 47 -13 25 -23 26
-45 5z"/>
<path d="M10950 8715 c-28 -34 16 -84 47 -53 14 14 15 22 5 43 -13 28 -33 32
-52 10z"/>
<path d="M10952 8318 c-24 -24 -11 -78 19 -78 30 0 44 37 24 66 -17 27 -26 29
-43 12z"/>
<path d="M10952 8008 c-17 -17 -15 -43 4 -58 22 -19 49 9 40 44 -7 28 -25 33
-44 14z"/>
<path d="M10945 7666 c-14 -20 -14 -28 -3 -45 17 -27 33 -27 52 1 13 19 14 25
3 42 -20 29 -34 30 -52 2z"/>
<path d="M10944 7234 c-4 -17 -1 -31 9 -42 15 -14 18 -14 37 3 24 22 25 29 4
49 -23 23 -43 19 -50 -10z"/>
<path d="M4953 8630 c0 -41 2 -58 4 -37 2 20 2 54 0 75 -2 20 -4 3 -4 -38z"/>
<path d="M10383 8260 c0 -36 2 -50 4 -32 2 17 2 47 0 65 -2 17 -4 3 -4 -33z"/>
<path d="M5513 6600 c0 -25 2 -35 4 -22 2 12 2 32 0 45 -2 12 -4 2 -4 -23z"/>
<path d="M4742 7045 c-17 -37 -14 -45 4 -12 9 16 14 31 11 33 -2 2 -9 -7 -15
-21z"/>
<path d="M4095 6941 c-7 -14 -18 -45 -25 -69 -6 -24 -14 -51 -16 -60 -5 -13
-4 -14 4 -3 6 9 25 12 56 10 l46 -4 20 52 c11 29 22 64 26 78 6 26 6 26 -45
24 -45 -2 -54 -6 -66 -28z"/>
<path d="M10667 6750 c3 -25 7 -47 9 -49 8 -9 2 55 -6 74 -6 13 -7 5 -3 -25z"/>
<path d="M4332 6933 c-16 -44 -32 -95 -32 -105 0 -5 25 -8 56 -6 l56 3 19 60
c10 33 19 63 19 68 0 4 -24 7 -54 7 -49 0 -54 -2 -64 -27z"/>
<path d="M4338 5802 c-20 -4 -21 -13 -12 -61 5 -25 11 -31 28 -29 16 2 22 11
24 39 3 39 -12 58 -40 51z"/>
<path d="M4332 5598 c-30 -30 1 -94 33 -68 16 13 19 38 9 64 -7 19 -25 21 -42
4z"/>
<path d="M4330 5301 c-15 -30 -12 -59 8 -70 26 -14 42 4 42 45 0 20 -6 34 -16
38 -22 8 -22 8 -34 -13z"/>
<path d="M4336 4965 c-21 -22 -20 -52 2 -64 23 -12 42 3 42 35 0 33 -24 49
-44 29z"/>
<path d="M4330 4715 c-19 -23 -8 -50 20 -50 16 0 26 6 28 18 4 18 -14 47 -28
47 -4 0 -13 -7 -20 -15z"/>
<path d="M4332 4458 c-18 -18 -14 -56 6 -67 23 -12 42 3 42 34 0 20 -17 45
-30 45 -3 0 -11 -5 -18 -12z"/>
<path d="M4330 4169 c-9 -15 -8 -24 1 -35 25 -31 55 -10 45 32 -8 29 -31 31
-46 3z"/>
<path d="M4330 3906 c-27 -33 18 -72 48 -42 13 13 14 20 6 34 -15 23 -38 26
-54 8z"/>
<path d="M4473 3680 c0 -25 2 -35 4 -22 2 12 2 32 0 45 -2 12 -4 2 -4 -23z"/>
<path d="M4331 3586 c-21 -25 -10 -61 19 -61 22 0 25 4 25 35 0 38 -23 52 -44
26z"/>
<path d="M4326 3164 c-21 -20 -20 -27 4 -49 16 -15 22 -15 35 -5 18 15 19 42
3 58 -16 16 -23 15 -42 -4z"/>
<path d="M4337 2903 c-12 -12 -7 -60 7 -72 11 -9 18 -8 30 4 19 19 20 29 6 56
-11 19 -31 25 -43 12z"/>
<path d="M4334 2636 c-10 -26 0 -51 21 -51 16 0 20 7 20 30 0 33 -30 49 -41
21z"/>
<path d="M4336 2404 c-19 -19 -20 -36 -4 -52 34 -34 70 4 43 44 -18 28 -19 29
-39 8z"/>
<path d="M4330 2135 c-17 -21 -2 -50 26 -50 14 0 19 7 19 30 0 34 -24 45 -45
20z"/>
<path d="M4320 1895 c-26 -31 18 -71 47 -42 19 19 8 57 -16 57 -10 0 -24 -7
-31 -15z"/>
<path d="M10956 5598 c-20 -29 -20 -52 0 -73 15 -15 18 -15 35 1 21 19 24 46
9 75 -14 25 -25 24 -44 -3z"/>
<path d="M10952 5298 c-16 -16 -15 -40 2 -63 12 -17 16 -17 30 -5 11 8 16 25
14 44 -3 33 -25 45 -46 24z"/>
<path d="M10950 4960 c-15 -27 -3 -60 20 -60 25 0 40 29 29 58 -10 28 -35 29
-49 2z"/>
<path d="M10957 4723 c-12 -11 -8 -40 7 -52 21 -18 50 14 36 40 -11 19 -31 25
-43 12z"/>
<path d="M10952 4458 c-16 -16 -15 -53 2 -67 31 -26 67 20 46 59 -12 23 -30
26 -48 8z"/>
<path d="M10951 4176 c-20 -24 -9 -51 19 -51 21 0 25 5 25 30 0 34 -24 45 -44
21z"/>
<path d="M10945 3899 c-8 -24 20 -60 40 -53 20 8 26 33 15 55 -14 25 -47 24
-55 -2z"/>
<path d="M10950 3585 c-26 -31 13 -82 44 -56 19 16 21 42 4 59 -16 16 -33 15
-48 -3z"/>
<path d="M10967 3373 c-12 -11 -8 -40 7 -52 12 -10 17 -8 26 9 18 34 -8 68
-33 43z"/>
<path d="M10956 3167 c-25 -18 -15 -67 14 -67 30 0 43 34 22 60 -15 18 -19 19
-36 7z"/>
<path d="M10950 2896 c-6 -8 -10 -25 -8 -38 2 -17 10 -23 28 -23 20 0 26 6 28
29 5 40 -25 59 -48 32z"/>
<path d="M10950 2565 c-17 -21 -8 -50 17 -53 26 -4 41 31 23 53 -16 19 -24 19
-40 0z"/>
<path d="M10950 2385 c-26 -31 13 -82 44 -56 19 16 21 42 4 59 -16 16 -33 15
-48 -3z"/>
<path d="M10950 2145 c-7 -9 -10 -25 -6 -41 5 -19 12 -25 29 -22 25 3 35 41
17 64 -16 18 -24 18 -40 -1z"/>
<path d="M10957 1903 c-14 -13 -7 -64 9 -70 24 -9 48 21 40 51 -6 25 -33 35
-49 19z"/>
<path d="M3067 5672 c-27 -30 -80 -169 -55 -144 7 7 32 12 56 12 42 0 43 1 66
53 43 98 43 97 -7 97 -29 0 -49 -6 -60 -18z"/>
<path d="M3585 5671 c-3 -5 -20 -13 -38 -16 -17 -4 -35 -13 -39 -19 -6 -8 -10
-7 -16 2 -6 9 -14 0 -25 -30 -10 -24 -17 -46 -17 -48 0 -7 94 1 102 8 9 9 49
112 43 112 -2 0 -6 -4 -10 -9z"/>
<path d="M11750 5614 c11 -37 22 -69 25 -72 7 -7 95 -5 102 2 7 6 -13 57 -40
104 -17 28 -24 32 -62 32 l-44 0 19 -66z"/>
<path d="M11945 5679 c5 -15 95 -21 95 -6 0 4 -8 7 -19 7 -10 0 -33 3 -50 6
-24 5 -30 3 -26 -7z"/>
<path d="M11977 5653 c-13 -3 -16 -11 -11 -31 12 -53 30 -69 81 -75 26 -3 49
-4 50 -3 1 1 -3 19 -9 40 -13 41 -49 72 -73 62 -9 -3 -13 -2 -10 4 6 10 2 11
-28 3z"/>
<path d="M12180 5652 c0 -5 7 -29 16 -55 16 -46 17 -47 58 -47 23 0 48 -6 55
-12 11 -11 12 -8 6 12 -14 45 -44 97 -60 104 -24 9 -75 7 -75 -2z"/>
<path d="M3340 5639 c-14 -6 -37 -9 -52 -6 -24 3 -29 -2 -43 -36 -9 -22 -15
-40 -13 -41 2 -1 26 0 53 2 50 4 51 4 67 48 8 24 15 44 14 43 0 0 -12 -5 -26
-10z"/>
<path d="M5543 3755 c0 -33 2 -45 4 -27 2 18 2 45 0 60 -2 15 -4 0 -4 -33z"/>
<path d="M3056 4058 c-7 -13 -16 -34 -19 -48 -6 -25 -6 -25 61 -24 l66 2 17
38 c10 22 18 42 18 47 1 4 -28 7 -64 7 -56 0 -66 -3 -79 -22z"/>
<path d="M12193 4082 c-35 -2 -63 -6 -63 -9 0 -3 5 -23 11 -44 l12 -38 73 -3
c82 -3 83 -2 45 67 -15 29 -18 30 -78 27z"/>
<path d="M3552 4093 c-8 -14 -26 -18 -89 -21 -85 -4 -113 -19 -113 -59 0 -22
3 -23 78 -23 65 0 80 3 95 20 9 11 17 24 17 28 0 4 7 20 15 36 17 31 13 49 -3
19z"/>
<path d="M11766 4080 c15 -58 23 -69 56 -74 47 -7 168 -16 168 -12 0 2 -5 17
-11 34 -13 37 -49 48 -139 39 -52 -4 -59 -3 -69 17 -10 20 -11 20 -5 -4z"/>
<path d="M4023 3555 c0 -44 2 -61 4 -37 2 23 2 59 0 80 -2 20 -4 1 -4 -43z"/>
<path d="M13295 2960 c-18 -8 -18 -9 5 -9 14 0 32 4 40 9 12 8 12 10 -5 9 -11
0 -29 -4 -40 -9z"/>
<path d="M12324 2405 c12 -28 16 -30 82 -36 38 -4 70 -6 71 -5 1 1 -5 18 -15
37 -17 34 -18 34 -84 34 l-66 0 12 -30z"/>
<path d="M2986 2448 c-10 -6 -37 -8 -61 -5 -40 6 -42 5 -58 -29 -27 -55 -24
-59 45 -58 l63 2 18 47 c10 26 16 49 15 51 -2 1 -12 -2 -22 -8z"/>
<path d="M3112 2403 c-7 -22 -12 -42 -12 -45 0 -7 29 -8 91 -2 48 5 58 10 68
30 19 43 15 46 -59 42 -39 -2 -71 1 -73 6 -2 5 -8 -9 -15 -31z"/>
<path d="M3583 2434 c-5 -14 -18 -16 -89 -10 l-82 6 -11 -32 c-6 -17 -11 -33
-11 -34 0 -2 31 -4 69 -4 51 0 74 4 89 18 23 19 58 72 48 72 -4 0 -9 -7 -13
-16z"/>
<path d="M8045 2010 c-4 -6 34 -10 107 -9 87 1 104 3 73 10 -57 11 -173 11
-180 -1z"/>
<path d="M2122 2810 c-106 -15 -161 -38 -213 -90 -61 -61 -84 -132 -76 -233
l6 -69 -35 36 c-45 46 -75 61 -151 76 -69 14 -216 9 -274 -9 -140 -43 -193
-196 -125 -359 l27 -63 -28 -57 c-23 -48 -28 -69 -27 -132 1 -80 25 -154 65
-196 l20 -21 -62 -7 c-34 -3 -85 -6 -112 -6 -60 0 -279 -21 -274 -27 2 -2 87
-10 188 -19 101 -8 225 -19 274 -24 50 -5 275 -11 500 -13 226 -2 356 -2 290
2 -109 5 -96 7 145 13 272 7 333 15 350 47 8 15 5 20 -13 25 -12 3 -33 6 -46
6 -22 0 -22 2 14 41 20 23 51 71 69 108 29 61 31 74 31 172 0 101 -1 108 -37
179 l-37 75 20 55 c52 146 59 202 35 284 -31 102 -96 162 -208 192 -69 18
-236 25 -316 14z m201 -39 c4 -4 -56 -12 -134 -18 -122 -10 -148 -15 -197 -40
-44 -22 -61 -38 -79 -72 -28 -55 -38 -65 -23 -26 42 109 110 153 265 169 51 5
158 -3 168 -13z m81 -122 c104 -29 137 -159 63 -245 l-23 -26 -68 21 c-88 27
-177 27 -261 0 -62 -21 -66 -21 -85 -4 -49 44 -54 176 -8 222 14 14 41 29 59
33 51 12 279 11 323 -1z m-784 -149 c-8 -5 -49 -9 -90 -8 -90 1 -176 -22 -221
-59 -25 -21 -30 -23 -21 -8 17 33 48 56 94 70 50 16 262 20 238 5z m28 -91
c28 -5 59 -20 71 -33 30 -32 37 -102 14 -146 -20 -38 -20 -38 -108 -15 -65 17
-134 13 -191 -11 -44 -18 -41 -19 -64 19 -46 74 -15 169 60 187 51 12 162 12
218 -1z m642 -29 c17 -5 -3 -8 -60 -8 -56 0 -78 2 -65 8 25 11 92 11 125 0z
m220 -25 c0 -8 -4 -15 -10 -15 -5 0 -10 7 -10 15 0 8 5 15 10 15 6 0 10 -7 10
-15z m-502 -27 c-3 -7 -13 -15 -24 -17 -16 -3 -17 -1 -5 13 16 19 34 21 29 4z
m-118 -38 c11 -26 9 -36 -19 -91 -30 -61 -40 -116 -22 -134 25 -28 43 -119 37
-186 -8 -74 0 -99 50 -158 l26 -31 -81 0 c-74 0 -98 8 -71 25 19 12 51 85 61
142 12 65 -1 136 -36 199 l-24 40 25 70 c13 38 24 88 24 112 0 49 12 54 30 12z
m306 14 l38 -16 -25 -19 c-13 -10 -44 -26 -69 -36 -25 -9 -54 -23 -65 -30 -31
-20 -54 -16 -61 12 -8 32 14 67 58 88 42 21 76 21 124 1z m-680 -175 l28 -10
-62 -35 c-72 -39 -87 -42 -102 -14 -9 17 -6 25 14 45 27 27 74 33 122 14z"/>
</g>
</svg>
