<?xml version="1.0" standalone="no"?>
<!DOCTYPE svg PUBLIC "-//W3C//DTD SVG 20010904//EN"
 "http://www.w3.org/TR/2001/REC-SVG-20010904/DTD/svg10.dtd">
<svg version="1.0" xmlns="http://www.w3.org/2000/svg"
 width="1131.807563pt" height="426.329231pt" viewBox="0 0 1131.807563 426.329231"
 preserveAspectRatio="xMidYMid meet">
<metadata>
Created by potrace 1.12, written by Peter Selinger 2001-2015
</metadata>
<g transform="translate(-51.171886,622.316367) scale(0.100000,-0.100000)"
fill="#000000" stroke="none">
<path d="M6339 6220 c-128 -4 -180 -9 -193 -19 -12 -10 -16 -30 -16 -77 l0
-63 62 -12 c52 -10 59 -14 44 -23 -10 -6 -34 -21 -53 -33 -31 -21 -46 -23
-162 -23 l-127 0 -47 45 c-53 50 -108 70 -224 81 l-73 7 0 38 0 39 -54 0 c-54
0 -55 0 -58 -32 -4 -38 -17 -43 -94 -33 l-54 6 0 40 0 39 -54 0 c-54 0 -55 0
-58 -32 l-3 -33 -83 1 c-133 2 -85 -9 101 -22 174 -13 281 -16 261 -8 -6 2 -8
18 -6 34 4 28 7 30 48 30 43 0 44 0 44 -34 0 -33 -2 -35 -37 -39 -26 -2 -18
-4 24 -5 98 -3 214 -22 252 -42 20 -10 49 -31 64 -48 l28 -29 -208 -5 c-114
-3 -253 -2 -308 3 -55 4 -151 11 -212 14 l-113 7 -1 37 c-1 44 -12 76 -28 77
-6 1 -29 2 -51 3 -56 2 -50 21 8 23 l47 1 -43 4 c-42 4 -43 5 -40 36 3 31 4
32 51 32 26 0 47 3 47 8 0 8 -72 10 -94 1 -10 -4 -16 -18 -16 -35 l0 -29 -107
0 c-120 0 -191 -15 -257 -54 -88 -52 -102 -74 -513 -831 l-109 -200 -1539 -8
c-1538 -8 -1540 -8 -1557 -29 -19 -22 -25 -102 -9 -112 5 -4 -1 -28 -14 -54
-27 -56 -78 -219 -96 -307 -20 -97 -17 -417 7 -636 l6 -66 -89 -7 c-49 -4 -95
-11 -103 -16 -22 -14 -25 -119 -5 -202 28 -114 35 -125 102 -138 32 -6 83 -18
114 -26 97 -24 268 -14 276 16 5 19 22 19 148 0 33 -5 116 -15 183 -21 l124
-12 -5 -27 c-3 -14 -2 -31 2 -38 12 -20 74 -40 149 -47 86 -9 103 0 95 50 -11
71 50 290 126 445 66 135 185 230 346 275 91 26 327 31 454 11 241 -38 391
-140 512 -348 42 -72 45 -96 6 -61 -39 36 -179 110 -260 137 -106 37 -226 50
-382 42 -150 -7 -218 -23 -330 -76 -160 -78 -284 -199 -371 -366 -32 -60 -44
-74 -64 -75 -25 -2 -25 -2 -2 -6 25 -5 25 -17 2 -78 -9 -25 -11 -25 -112 -25
-57 0 -182 3 -278 7 l-175 6 -78 76 c-69 68 -76 77 -62 91 9 8 43 18 78 22
l62 6 -67 -2 c-44 -1 -73 -7 -85 -18 -10 -8 -44 -18 -77 -22 -72 -8 -91 -18
-112 -58 -23 -44 -11 -113 26 -150 28 -27 31 -28 141 -28 110 0 112 0 158 33
l46 33 263 -4 263 -4 -6 -39 c-16 -95 -21 -149 -13 -149 4 0 8 13 8 29 0 29 1
29 36 19 20 -5 38 -7 41 -5 2 3 -11 8 -29 12 -18 4 -36 9 -39 11 -6 3 8 114
15 121 2 2 24 -6 50 -18 26 -11 50 -18 53 -15 3 3 -7 10 -23 17 -16 6 -39 15
-51 20 -13 5 -23 15 -23 22 0 16 20 77 25 77 2 0 20 -9 39 -21 31 -18 36 -19
36 -5 0 8 -13 22 -30 31 -34 18 -37 35 -13 76 21 34 24 35 48 9 10 -11 22 -20
26 -20 12 0 4 28 -15 49 -21 23 -16 43 23 90 21 25 30 31 36 21 6 -9 4 -11 -5
-5 -8 5 -4 -6 8 -23 26 -35 40 -47 49 -38 3 3 -6 23 -21 44 -14 21 -26 43 -26
48 0 6 15 25 34 43 l34 33 14 -29 c8 -15 20 -27 26 -26 7 2 12 -4 12 -12 0 -8
5 -15 10 -15 6 0 1 18 -10 40 -27 53 -26 65 13 94 37 28 58 33 54 14 -2 -7 1
-3 7 10 8 18 77 62 98 62 3 0 3 -11 0 -25 -4 -25 15 -85 27 -85 4 0 5 27 3 60
-5 66 -1 70 81 85 l35 7 -5 -41 c-7 -54 11 -53 23 2 9 41 10 42 63 50 56 9 77
1 60 -23 -9 -12 -10 -11 -4 5 4 14 3 17 -5 9 -11 -11 -31 -116 -23 -124 10
-10 21 26 17 59 -2 20 -1 28 2 17 5 -15 10 -10 25 24 l19 42 80 -4 c58 -2 84
-7 90 -18 8 -12 10 -12 10 -1 0 10 10 12 42 7 43 -7 68 -21 68 -38 0 -6 -8 -8
-17 -5 -10 3 -33 10 -51 16 -18 5 -30 6 -27 2 2 -5 19 -12 37 -15 l33 -7 -25
-17 c-38 -26 -70 -60 -70 -74 0 -7 12 2 26 20 14 17 30 32 36 32 7 0 2 -10 -9
-22 -37 -42 -37 -53 1 -15 20 20 44 37 52 37 8 0 13 4 9 9 -3 6 2 14 12 19 14
9 15 13 4 26 -17 20 -13 20 35 -1 22 -9 44 -17 49 -19 32 -6 88 -37 112 -60
25 -25 26 -28 8 -34 -18 -6 -17 -7 3 -12 17 -5 22 -2 22 15 0 20 1 20 26 -4
18 -17 24 -31 22 -51 -3 -16 -1 -28 4 -28 4 0 8 12 8 28 l0 27 35 -37 c19 -20
35 -40 35 -44 0 -4 6 -12 13 -18 16 -13 83 -234 74 -242 -3 -4 -11 4 -17 18
-7 15 -21 25 -37 26 -41 3 -66 31 -60 68 5 28 2 32 -35 49 -34 15 -39 21 -35
41 3 18 -2 28 -17 36 -27 14 -66 49 -66 60 0 18 31 6 67 -24 21 -18 30 -23 20
-12 -9 11 -14 24 -10 29 5 4 3 5 -3 2 -7 -4 -14 0 -18 8 -3 8 -16 15 -29 15
-28 0 -93 42 -90 57 2 10 -106 57 -114 49 -2 -2 15 -11 38 -20 l42 -17 -41
-40 c-45 -43 -69 -79 -53 -79 6 0 36 21 67 46 l56 46 30 -28 29 -29 -58 -52
c-50 -45 -55 -52 -35 -53 13 0 43 14 68 31 l44 30 30 -23 c34 -27 38 -44 11
-53 -11 -3 -25 -13 -33 -22 -11 -14 -8 -13 15 2 15 10 30 15 33 12 6 -6 -54
-47 -69 -47 -5 0 -5 6 -1 13 5 9 4 9 -6 0 -29 -27 4 -26 52 0 l51 29 23 -29
c32 -39 30 -48 -15 -66 -22 -9 -42 -21 -46 -27 -4 -6 12 -2 35 10 23 12 44 19
47 16 3 -3 -23 -19 -58 -36 -35 -16 -57 -30 -48 -30 10 0 42 13 72 29 63 33
74 29 84 -31 5 -34 4 -35 -48 -57 -85 -35 -95 -40 -82 -40 7 -1 38 10 69 24
66 29 71 30 54 11 -6 -8 -27 -20 -46 -26 -20 -7 -33 -14 -31 -17 3 -2 26 5 52
16 34 15 46 25 41 36 -3 8 -1 15 5 15 9 0 7 17 -9 59 -4 10 2 9 27 -3 19 -10
31 -24 31 -36 0 -11 5 -19 12 -17 7 1 13 -5 14 -13 0 -8 2 -21 2 -27 1 -7 14
-13 28 -13 17 0 28 -6 31 -20 3 -11 9 -20 13 -20 5 0 6 9 3 20 -4 16 0 20 20
20 33 0 39 -21 12 -42 -24 -18 -40 -58 -24 -58 5 0 9 6 9 13 0 8 9 22 19 31
18 17 20 17 25 -1 3 -10 4 -1 1 20 l-4 37 200 0 c109 0 199 -4 199 -9 0 -9
-162 -50 -302 -77 -69 -13 -70 -14 -17 -9 47 4 229 42 291 61 12 3 18 -3 22
-24 13 -58 44 -92 112 -123 37 -17 68 -29 69 -27 2 2 -3 12 -11 22 -8 11 -14
14 -14 8 0 -18 -68 13 -102 45 -33 31 -55 90 -40 105 6 6 69 30 142 53 73 24
140 51 151 61 18 16 47 17 392 10 366 -6 755 -18 1197 -36 124 -5 257 -9 295
-9 l70 0 -1 -73 -2 -73 7 60 c5 48 8 55 13 35 4 -14 8 -42 8 -62 l0 -38 -83 0
-83 0 2 68 2 67 -6 -62 c-4 -34 -9 -63 -12 -66 -3 -2 -128 -2 -277 1 -243 4
-273 6 -273 21 0 29 -40 82 -73 96 -25 10 -127 14 -444 17 -226 1 -407 0 -401
-3 7 -4 6 -13 -1 -27 -6 -11 -11 -27 -11 -34 1 -7 7 2 15 20 l14 32 161 0 c88
0 160 -1 160 -2 0 -2 -7 -21 -15 -43 -18 -51 -19 -179 -1 -238 13 -44 13 -46
-8 -49 -11 -2 99 -8 245 -12 234 -7 269 -6 296 8 17 8 33 21 35 28 5 13 195
14 371 1 l89 -6 -44 -44 -43 -44 -260 5 c-252 4 -783 29 -954 44 -53 4 -86 12
-89 20 -2 7 6 12 21 12 l25 0 -18 38 c-9 20 -20 44 -23 52 -3 10 -6 11 -6 2
-1 -7 6 -28 13 -47 14 -33 14 -35 -4 -35 -29 0 -50 40 -65 122 -7 40 -14 59
-14 43 -1 -29 18 -110 34 -148 7 -16 0 -17 -105 -15 l-113 3 -30 38 c-39 48
-49 134 -22 202 25 67 42 75 163 75 l104 0 -7 -32 -6 -33 16 34 c8 18 15 35
15 37 0 8 -215 3 -249 -6 -20 -5 -53 -12 -74 -15 -21 -3 -35 -10 -32 -14 2 -5
-2 -14 -10 -21 -8 -7 -15 -17 -15 -22 0 -5 12 4 26 21 16 19 35 31 50 31 28 0
30 -10 8 -52 -12 -24 -15 -50 -12 -105 l5 -73 -28 0 c-33 0 -47 21 -59 89 -7
43 -8 44 -9 11 0 -20 7 -52 18 -72 16 -32 16 -37 2 -36 -16 0 -210 -45 -266
-62 -54 -16 40 0 153 26 57 13 126 24 154 24 43 0 54 -4 78 -30 28 -30 28 -30
143 -30 105 0 116 -2 128 -21 13 -19 27 -21 207 -28 105 -4 195 -11 198 -14
10 -9 -17 -39 -30 -34 -6 3 -17 -2 -25 -11 -13 -13 -10 -14 22 -8 37 7 43 2
31 -28 -4 -10 -18 -16 -36 -16 -18 0 -27 -4 -23 -11 4 -6 -2 -13 -14 -16 -36
-9 -23 -22 15 -16 l36 6 -17 -26 c-12 -19 -26 -27 -46 -27 -18 0 -32 -7 -38
-19 -10 -17 -7 -19 23 -18 26 1 38 8 55 34 11 18 26 33 31 33 13 0 13 -36 -1
-63 -9 -20 -9 -20 4 -4 14 17 47 24 47 9 0 -5 -11 -19 -25 -32 -14 -13 -25
-28 -25 -34 0 -5 13 2 28 17 39 37 58 35 30 -4 -18 -24 -28 -29 -48 -26 -19 4
-30 -1 -44 -21 -20 -27 -20 -27 0 -9 21 17 44 23 44 10 -1 -9 -85 -73 -95 -73
-3 0 -3 5 0 10 3 5 1 10 -5 10 -7 0 -10 -6 -7 -14 9 -23 -34 -28 -54 -5 -16
19 -17 19 -33 -6 -20 -31 -21 -41 -1 -25 9 7 18 10 22 6 9 -8 -6 -22 -34 -30
-16 -5 -23 -2 -28 15 -5 15 1 29 21 50 16 16 34 27 40 25 7 -3 14 0 16 6 3 7
10 8 17 4 7 -5 10 -15 7 -25 -4 -9 7 0 23 19 16 19 27 37 24 40 -2 3 -9 -3
-14 -13 -12 -20 -39 -23 -39 -4 0 19 57 70 69 62 6 -3 9 -11 6 -16 -4 -5 -1
-9 5 -9 7 0 9 8 4 23 -10 32 -10 32 -49 -2 -22 -19 -46 -31 -65 -31 -38 0 -50
-20 -13 -21 25 0 26 -1 10 -12 -11 -7 -33 -24 -50 -39 -19 -16 -45 -28 -62
-29 -23 0 -26 -2 -12 -8 15 -6 16 -9 5 -17 -23 -19 -76 -36 -87 -29 -6 3 -11
2 -11 -4 0 -6 -19 -15 -42 -22 -24 -6 -62 -18 -85 -27 -33 -11 -76 -14 -190
-10 -101 3 -135 1 -108 -5 69 -15 379 -1 470 22 114 28 191 58 262 103 60 38
173 149 173 170 0 5 11 23 25 40 14 16 28 42 31 56 4 15 13 36 20 47 8 11 14
24 14 29 0 6 -7 0 -16 -12 -16 -24 -44 -30 -44 -9 0 6 11 26 25 42 21 25 26
28 35 15 7 -11 10 -12 10 -2 0 11 21 12 103 7 56 -3 220 -8 365 -11 l263 -5
48 50 49 50 393 -11 393 -12 79 -43 c70 -39 86 -44 150 -46 67 -2 76 0 133 36
l62 37 269 0 270 0 17 -39 c20 -42 61 -91 78 -91 6 0 -1 9 -16 21 -22 18 -66
86 -66 104 0 3 30 5 68 5 82 0 136 14 162 42 28 30 26 83 -3 112 -21 21 -35
23 -167 29 -80 4 -175 7 -212 7 l-68 0 0 75 0 75 108 0 c71 0 126 -5 158 -16
56 -17 243 -29 261 -17 7 5 20 46 28 92 48 252 148 468 269 579 134 123 402
183 717 161 263 -18 404 -65 509 -169 l45 -46 31 18 c32 19 208 62 227 55 6
-2 -24 -11 -67 -20 -82 -18 -124 -36 -145 -61 -11 -13 -1 -31 63 -116 64 -84
126 -185 126 -204 0 -2 -26 21 -57 53 -99 98 -233 179 -368 220 -80 25 -251
51 -342 51 l-61 0 -10 -47 c-17 -79 -22 -124 -11 -118 5 4 9 25 10 48 0 23 5
51 10 62 7 14 8 6 5 -30 l-5 -50 12 41 c7 23 18 48 25 57 10 12 10 16 0 20
-15 6 160 -2 180 -9 7 -2 10 -8 7 -14 -3 -5 1 -10 9 -10 9 0 16 5 16 11 0 8
15 9 46 4 51 -7 94 -24 94 -36 0 -4 23 -12 52 -18 74 -16 138 -47 138 -67 0
-10 5 -14 16 -10 23 9 139 -77 128 -96 -3 -4 0 -8 6 -8 18 0 89 -61 96 -82 3
-10 9 -16 14 -13 11 7 33 -22 25 -35 -4 -6 -1 -9 6 -8 6 2 14 -3 17 -11 3 -10
0 -11 -9 -5 -12 7 -12 5 0 -9 7 -9 18 -14 23 -11 6 4 8 -2 4 -14 -4 -12 -1
-33 8 -49 13 -24 15 -25 16 -8 l1 20 15 -20 c21 -27 47 -86 40 -92 -3 -3 -15
5 -27 18 l-21 24 16 -25 c9 -13 16 -34 17 -45 0 -17 2 -17 11 5 l10 25 10 -22
c12 -25 3 -58 -12 -48 -13 8 -13 -20 -1 -43 19 -34 41 -121 35 -136 -3 -9 -1
-16 5 -16 6 0 11 9 11 20 0 31 17 23 24 -11 10 -51 7 -79 -8 -79 -8 0 -17 6
-19 13 -3 7 -6 5 -6 -5 -1 -12 6 -18 19 -18 23 0 26 -13 6 -29 -18 -15 -28
-58 -31 -131 -2 -30 -6 -66 -9 -80 -6 -22 -6 -23 3 -4 10 24 31 41 31 26 0 -4
-7 -32 -16 -61 -11 -39 -19 -51 -32 -49 -12 2 -25 -14 -44 -56 -16 -32 -27
-64 -26 -70 2 -6 -13 -32 -32 -56 -46 -59 -81 -121 -57 -101 31 25 18 -8 -19
-49 -42 -46 -65 -50 -84 -15 -12 22 -10 29 15 65 15 22 34 45 43 52 13 11 14
9 10 -19 -3 -25 -2 -30 8 -22 13 10 9 33 -9 56 -15 20 53 117 70 99 3 -3 1
-18 -6 -32 -18 -39 -7 -39 23 1 18 23 21 33 11 29 -11 -5 -18 0 -22 15 -7 29
-20 26 -37 -7 -8 -16 -22 -34 -31 -42 -22 -19 -88 -14 -135 10 -44 22 -50 24
-50 11 0 -4 18 -20 40 -35 23 -15 39 -30 36 -34 -2 -4 16 -5 40 -3 32 2 44 -1
44 -10 -1 -24 -48 -69 -73 -69 -12 0 -29 -6 -35 -12 -9 -9 -15 -9 -20 -3 -14
20 -92 77 -92 67 0 -16 68 -71 95 -78 14 -3 32 -4 40 0 32 12 14 -25 -26 -54
-50 -36 -75 -33 -137 18 -23 19 -45 32 -49 28 -6 -6 31 -54 55 -69 7 -5 11
-11 8 -15 -5 -9 68 -7 83 2 14 9 14 -14 1 -48 -8 -21 -7 -24 8 -19 40 14 1
-12 -84 -58 -65 -35 -99 -46 -88 -28 4 8 -5 4 -20 -9 -16 -12 -36 -22 -45 -23
-9 0 -11 -3 -5 -5 22 -9 139 38 230 91 88 52 169 122 227 193 l26 33 40 -20
c219 -112 642 -105 896 13 75 36 161 94 151 103 -3 4 -16 -2 -28 -13 -18 -15
-20 -16 -9 -1 9 11 10 17 2 17 -6 0 -16 -11 -21 -24 -9 -24 -37 -46 -59 -46
-6 0 -8 7 -5 15 4 8 1 15 -6 15 -7 0 -10 -8 -7 -20 3 -11 1 -23 -4 -26 -5 -3
-9 1 -9 8 -1 9 -4 9 -13 -3 -10 -13 -38 -30 -57 -33 -3 -1 -9 -4 -15 -7 -21
-13 -117 -41 -122 -36 -4 5 50 38 62 37 18 -1 112 57 161 100 31 27 61 50 66
50 11 0 10 -17 -2 -25 -5 -3 -10 -11 -10 -17 0 -6 9 -3 20 7 13 11 18 25 14
39 -4 15 5 31 32 56 34 33 36 33 29 10 -12 -42 11 -9 25 35 16 51 59 125 72
125 6 0 8 -6 5 -14 -3 -7 -1 -18 5 -24 8 -8 3 -20 -16 -42 -30 -36 -32 -48
-10 -57 13 -5 10 -11 -12 -34 -15 -16 -30 -25 -34 -19 -7 11 -50 2 -50 -12 0
-5 5 -6 10 -3 6 3 10 1 10 -4 0 -19 -5 -26 -17 -23 -19 4 -24 -15 -6 -22 19
-8 55 24 115 98 42 53 43 68 3 42 -30 -20 -33 -10 -4 20 11 12 28 37 38 55 18
34 41 50 41 29 0 -7 -9 -25 -21 -42 -12 -16 -19 -31 -17 -34 8 -8 26 19 68
106 42 83 69 184 70 250 l0 35 143 59 c78 32 163 69 189 82 45 22 48 22 60 5
33 -46 105 -55 143 -16 27 26 33 73 14 92 -9 9 -2 24 25 61 20 27 50 80 68
118 l32 69 4 245 c5 281 9 255 -112 663 -76 260 -83 271 -166 264 -30 -3 -78
-11 -106 -18 -49 -12 -52 -12 -95 18 -97 67 -299 128 -674 202 -483 95 -922
150 -1450 181 -318 18 -318 18 -311 44 3 13 -1 32 -11 45 -12 18 -22 22 -46
17 -26 -5 -38 2 -105 61 -165 150 -484 420 -592 502 -185 141 -254 172 -464
209 -80 14 -101 21 -113 39 l-15 23 64 -1 c68 -1 108 12 108 35 0 8 -8 13 -17
12 -10 0 -18 5 -17 12 1 6 2 24 3 38 1 21 5 24 21 19 24 -7 28 16 6 34 -13 11
-697 92 -760 90 -25 -1 695 -87 742 -89 6 0 12 -4 12 -8 0 -5 -30 -5 -67 0
-114 14 -433 47 -718 74 -148 14 -279 30 -290 35 -14 6 6 8 60 4 211 -14 230
-14 115 0 -148 18 -272 22 -491 15z m276 -9 c21 -8 -172 -20 -345 -22 -73 0
-98 -3 -82 -9 18 -8 22 -17 22 -55 0 -45 0 -45 -35 -45 -35 0 -35 0 -35 45 0
25 4 45 10 45 5 0 7 7 4 15 -4 8 -5 16 -3 16 2 1 99 5 214 9 116 3 215 7 220
7 6 1 19 -2 30 -6z m-1335 -56 c0 -35 0 -35 -45 -35 -45 0 -45 0 -45 35 0 35
0 35 45 35 45 0 45 0 45 -35z m1367 27 c6 -4 13 -28 16 -52 l4 -45 1 48 c1 31
6 47 15 47 23 0 230 -20 265 -26 28 -4 32 -9 32 -35 0 -17 -5 -39 -10 -50 -9
-16 -7 -19 15 -19 23 0 25 3 25 50 l0 49 48 -5 c26 -3 101 -11 167 -17 l120
-12 3 -42 3 -43 -38 -1 c-21 0 -56 -4 -78 -9 -40 -9 -39 -9 9 -5 27 3 64 5 82
5 34 0 34 1 34 45 0 25 5 45 10 45 11 0 13 -24 4 -68 -5 -24 -13 -32 -33 -35
-20 -3 -17 -4 11 -6 20 0 40 4 43 9 3 6 1 10 -5 10 -6 0 -8 15 -4 43 4 23 8
43 9 45 4 5 290 -31 298 -38 5 -4 5 -24 1 -44 -4 -27 -11 -36 -21 -32 -8 3
-11 1 -8 -4 3 -6 21 -10 38 -10 24 0 28 -3 17 -10 -8 -5 -52 -10 -96 -10 -80
0 -473 30 -649 50 -342 39 -387 42 -411 29 -32 -17 -30 -26 11 -50 19 -12 35
-23 35 -25 0 -2 -43 -4 -95 -4 -107 0 -115 7 -65 55 16 15 27 32 23 38 -3 6
-43 7 -102 4 -53 -4 -123 -2 -156 2 l-60 8 55 3 c30 2 45 5 33 7 -20 4 -23 11
-23 54 l0 49 136 -1 c75 0 138 2 142 5 8 9 135 7 149 -2z m349 -120 c-11 -10
-13 3 -7 48 l6 45 3 -44 c2 -23 1 -46 -2 -49z m-2096 63 c0 -12 -14 -15 -64
-15 -74 0 -89 -11 -89 -70 0 -38 -1 -39 -41 -45 -62 -11 -99 -29 -135 -66 -28
-30 -214 -394 -366 -717 -45 -95 -51 -103 -72 -97 -22 5 -27 -2 -63 -80 l-39
-85 -81 0 -82 0 20 33 c10 17 28 48 39 67 12 19 103 185 202 368 345 632 338
621 429 670 78 42 116 50 240 51 84 1 102 -2 102 -14z m86 -62 c-3 -21 -6 -46
-6 -55 0 -9 -8 -19 -17 -21 -14 -4 -13 -5 4 -6 20 -1 23 5 29 61 8 71 17 58
28 -38 6 -58 6 -62 -16 -68 -32 -8 -88 -7 -88 2 0 4 -3 17 -6 30 -5 17 -2 22
12 22 9 0 15 2 12 5 -3 3 -35 1 -72 -5 -85 -13 -106 -4 -106 48 0 21 5 43 12
50 8 8 49 12 116 12 l105 0 -7 -37z m1430 -24 c-21 -5 -59 -23 -83 -40 -40
-26 -52 -30 -107 -27 l-61 3 60 30 c59 29 112 41 190 42 l40 1 -39 -9z m305
-35 c27 -13 49 -28 49 -33 0 -19 -135 -4 -180 19 -42 21 -43 23 -25 36 25 19
90 9 156 -22z m-300 -9 c-15 -32 -19 -34 -65 -35 -43 0 -47 2 -35 16 16 19 79
53 100 54 15 0 15 -3 0 -35z m433 16 c17 -4 32 -16 37 -29 8 -21 6 -22 -37
-22 -42 0 -69 13 -127 61 -9 7 84 0 127 -10z m311 -31 c169 -16 223 -24 235
-36 14 -15 8 -16 -60 -10 -41 3 -151 11 -245 17 -191 12 -195 12 -195 34 0 19
-1 19 265 -5z m-2360 -9 c22 -6 55 -11 73 -11 24 0 32 -4 32 -18 0 -13 -13
-20 -50 -29 -61 -15 -101 -42 -129 -86 -45 -74 -167 -473 -215 -707 l-23 -115
-129 -3 -129 -3 -37 50 c-36 48 -37 51 -23 78 9 15 91 184 184 374 181 372
214 430 264 456 62 32 101 35 182 14z m510 -11 c22 -6 8 -8 -55 -9 -47 -1
-115 -4 -152 -8 -64 -6 -68 -5 -68 15 0 19 4 20 123 15 67 -3 136 -9 152 -13z
m1755 -21 c445 -26 824 -87 895 -144 20 -16 20 -16 0 -11 -49 13 -210 36 -315
46 -231 20 -656 8 -683 -19 -18 -18 6 -51 139 -196 71 -77 226 -252 344 -388
118 -137 223 -258 232 -269 17 -19 24 -19 108 -11 83 8 92 7 108 -10 9 -11 35
-28 56 -39 44 -23 92 -28 536 -58 316 -22 721 -65 991 -105 363 -53 568 -111
707 -199 24 -15 46 -25 49 -23 10 11 -138 88 -233 120 -138 48 -290 81 -539
116 -390 56 -786 95 -1230 121 -99 6 -193 13 -210 16 -38 8 -98 38 -113 57
-11 12 -2 16 55 21 38 4 83 10 101 13 25 4 32 2 32 -10 0 -45 51 -54 110 -20
16 9 18 12 5 8 -11 -4 -37 -9 -57 -12 -29 -4 -39 -2 -44 11 -9 22 4 34 17 16
8 -12 9 -12 7 4 -2 15 22 32 112 82 63 35 130 66 150 69 19 3 42 11 50 16 12
8 11 9 -5 5 -11 -3 -69 -15 -130 -26 -120 -23 -155 -34 -155 -50 0 -5 14 -10
32 -10 32 0 32 0 -22 -34 -53 -33 -62 -34 -255 -55 l-200 -21 -60 63 c-33 34
-156 173 -272 307 -117 135 -256 292 -308 349 -52 58 -95 110 -95 117 0 6 7
15 16 18 38 15 322 28 475 22 224 -8 507 -44 535 -67 7 -5 22 -12 34 -14 25
-5 54 -26 200 -144 254 -206 577 -494 561 -499 -6 -2 -55 36 -108 85 -179 164
-636 553 -650 553 -4 0 -3 -4 3 -8 5 -5 38 -33 74 -63 397 -336 645 -555 645
-572 0 -5 -16 -17 -35 -26 -19 -10 -34 -22 -33 -28 2 -7 -35 -14 -100 -18 -56
-4 -151 -13 -212 -21 -90 -10 -96 -12 -35 -9 41 2 134 9 205 16 313 28 1202
-38 1775 -132 526 -86 918 -187 1010 -259 l25 -20 -65 1 c-42 0 -72 5 -84 14
-12 9 -42 15 -73 15 -43 0 -59 -5 -77 -23 -13 -13 -25 -29 -28 -37 -3 -11 -41
-16 -161 -22 -106 -5 -167 -12 -186 -22 -27 -14 -30 -14 -51 9 -112 119 -598
237 -1295 314 -418 47 -1029 93 -1015 78 3 -3 84 -10 180 -17 1148 -74 1923
-214 2125 -384 l30 -25 -274 0 c-269 0 -275 0 -320 -23 -26 -14 -59 -42 -76
-67 -30 -42 -30 -44 -33 -195 -3 -122 -1 -160 12 -190 9 -21 16 -42 16 -47 0
-5 -51 -9 -112 -9 l-113 0 -70 78 c-242 269 -428 343 -855 344 -509 2 -753
-104 -951 -412 l-64 -99 -108 -1 -108 0 8 108 c4 59 8 225 8 369 l0 263 75 0
c275 0 1307 -60 1814 -105 93 -9 171 -14 173 -11 20 20 -1049 93 -1752 119
l-310 12 2 35 c0 19 3 87 5 150 5 111 6 115 29 121 23 6 22 6 -7 10 -26 3 -59
37 -213 219 -315 370 -544 612 -639 675 -42 28 -137 61 -127 45 4 -6 13 -10
21 -10 8 0 38 -12 67 -26 76 -38 345 -313 625 -639 l231 -270 0 -90 c1 -49 -2
-119 -5 -155 l-6 -65 -252 6 c-756 20 -1906 36 -1906 28 0 -3 228 -9 508 -12
730 -8 1630 -29 1644 -39 15 -8 17 -458 4 -631 -7 -88 -10 -99 -29 -107 l-22
-9 23 0 c18 -1 21 -5 17 -23 -3 -13 -19 -117 -34 -231 -16 -114 -31 -211 -34
-214 -8 -8 -2093 33 -2107 42 -17 10 -43 455 -27 471 4 4 476 -3 1050 -15 573
-13 1058 -21 1077 -19 19 3 -14 5 -75 6 -60 1 -396 9 -745 17 -349 9 -786 19
-970 23 l-335 7 -8 90 c-10 113 0 403 18 532 17 119 21 140 45 223 11 36 31
139 45 230 63 408 161 806 221 898 9 13 14 26 11 28 -8 8 -34 -40 -60 -113
-62 -171 -132 -484 -186 -828 -17 -104 -40 -219 -52 -254 l-22 -64 -461 5
c-254 2 -409 1 -346 -2 63 -4 268 -8 456 -9 187 0 343 -3 345 -6 3 -2 -1 -46
-9 -97 -10 -62 -15 -199 -18 -413 -2 -290 1 -391 22 -638 l7 -78 -434 5 -434
4 430 -10 c237 -5 433 -13 437 -16 3 -4 8 -20 10 -36 l3 -29 -130 2 c-71 1
-272 6 -445 11 -173 5 -322 10 -331 10 -9 0 -20 8 -24 18 -13 34 -45 289 -51
407 l-7 120 459 -1 459 -2 -452 7 c-249 4 -455 10 -458 12 -3 3 -8 97 -11 210
-8 245 6 449 40 581 13 51 27 127 31 168 10 106 49 305 90 456 44 159 121 397
146 445 23 46 69 85 117 99 58 16 344 40 597 49 290 10 1392 4 1625 -10z m498
-6 c17 -23 15 -35 -5 -29 -10 2 -43 7 -74 11 -39 4 -63 13 -75 27 l-19 21 80
-7 c57 -5 84 -12 93 -23z m742 -828 c0 -11 -75 -35 -108 -35 -50 0 -32 11 41
26 34 7 63 12 65 13 1 1 2 -1 2 -4z m588 -18 c2 -12 -3 -17 -20 -17 -13 0 -33
-1 -46 -1 -13 0 -38 -9 -55 -20 -37 -22 -67 -25 -67 -6 0 18 133 68 170 64 8
-1 16 -10 18 -20z m-4720 -34 c21 -27 47 -60 57 -75 l17 -28 -105 0 -106 0 15
28 c8 15 23 48 34 75 11 26 26 47 34 47 8 0 32 -21 54 -47z m4672 -3 c0 14 42
9 47 -6 2 -7 -21 -11 -64 -12 -63 -1 -66 0 -43 12 17 10 30 11 42 5 12 -7 18
-6 18 1z m-4940 -6 c0 -3 -12 -25 -26 -50 l-26 -44 -1501 -3 -1502 -2 1768 -3
c972 -1 1767 -5 1767 -9 0 -5 -3 -19 -7 -32 l-6 -24 -601 6 c-331 3 -1128 12
-1773 18 l-1171 13 -6 29 c-8 41 -7 59 4 77 8 13 115 16 832 20 1379 9 2248
10 2248 4z m580 -74 c0 -11 -5 -20 -11 -20 -5 0 -7 -5 -3 -12 13 -20 4 -97
-22 -196 -39 -153 -47 -282 -40 -647 7 -308 15 -415 52 -672 l7 -43 -36 0 -35
0 -12 68 c-40 230 -45 304 -45 707 0 418 4 474 46 603 11 34 29 68 39 75 10 7
17 23 16 37 -1 14 1 37 5 53 l8 27 -99 0 c-89 0 -100 2 -110 20 -10 20 -8 20
115 20 118 0 125 -1 125 -20z m-59 -47 c8 -9 9 -14 3 -10 -7 4 -11 -8 -10 -36
l1 -42 -195 -3 c-107 -2 -625 4 -1150 12 -525 9 -1229 18 -1565 21 -335 3
-623 8 -640 11 -17 2 -25 1 -20 -5 6 -5 443 -14 985 -20 536 -7 1205 -16 1485
-21 281 -5 637 -10 793 -10 155 0 282 -2 282 -4 0 -2 -3 -11 -6 -20 -5 -14
-38 -16 -253 -18 l-246 -3 244 -2 243 -3 -7 -28 c-4 -15 -8 -29 -11 -31 -3 -4
-746 8 -1819 29 -264 5 -705 12 -980 15 -275 3 -537 8 -583 10 -45 3 -82 1
-82 -4 0 -4 105 -9 232 -10 128 -1 476 -6 773 -11 297 -6 803 -14 1125 -20
1426 -24 1332 -21 1326 -44 -20 -76 -28 -266 -23 -597 4 -354 15 -481 53 -666
l7 -33 -75 0 c-42 0 -96 3 -121 6 l-45 6 -7 152 c-3 83 -9 159 -11 169 -13 43
-55 50 -352 61 -263 10 -284 12 -294 30 -19 35 -28 94 -18 121 l10 25 192 -5
c488 -13 651 -15 645 -9 -3 4 -201 10 -439 15 -238 4 -447 11 -464 14 -25 4
-46 23 -95 88 -168 216 -321 316 -569 368 -151 31 -420 31 -569 0 -333 -70
-530 -290 -645 -721 -25 -91 -48 -182 -52 -202 -4 -24 -12 -38 -21 -38 -43 0
-621 71 -638 79 -34 14 -98 311 -107 496 l-3 60 100 5 c112 7 131 12 139 43
10 39 7 437 -4 457 -14 27 -44 41 -125 60 -63 16 -70 19 -67 40 4 26 57 167
71 189 8 13 158 13 1143 2 623 -6 1418 -15 1766 -18 348 -3 635 -10 638 -15
10 -15 22 -8 17 10 -4 16 12 72 21 72 2 0 10 -8 17 -17z m-3558 -284 c21 -6
47 -19 58 -30 19 -19 20 -31 17 -244 -2 -167 -6 -227 -16 -237 -8 -8 -48 -14
-111 -16 -115 -4 -106 -14 -117 132 l-7 86 116 0 116 0 4 -57 c2 -32 4 -11 4
47 l1 106 -32 -4 c-17 -1 -58 1 -91 5 -58 8 -60 9 -63 41 l-3 32 83 0 c46 0
89 -5 94 -10 7 -7 10 -4 8 12 -1 13 -3 31 -3 41 -1 24 -45 67 -68 67 -11 -1
-6 -6 13 -14 32 -14 44 -33 44 -67 0 -17 -8 -19 -83 -19 -46 0 -87 4 -92 10
-7 6 -9 -9 -7 -40 3 -41 1 -50 -12 -50 -19 0 -21 39 -5 124 19 104 23 109 72
102 23 -4 59 -11 80 -17z m10331 -30 c36 -17 47 -54 67 -213 9 -77 17 -133 18
-123 1 11 9 17 24 17 28 0 53 -25 62 -62 8 -33 -26 -73 -56 -65 -18 5 -19 1
-12 -76 5 -45 8 -224 8 -397 0 -349 -4 -373 -68 -471 -33 -52 -102 -98 -119
-81 -7 7 -3 14 11 21 20 11 81 106 80 126 0 6 -9 -8 -21 -30 -25 -50 -77 -105
-97 -105 -24 0 -22 88 1 96 22 7 58 52 58 73 0 9 -8 0 -18 -19 -11 -23 -28
-39 -49 -46 -24 -7 -30 -13 -22 -21 6 -6 9 -26 7 -44 -4 -40 23 -25 -423 -235
-170 -80 -295 -143 -276 -140 18 3 40 6 47 6 8 0 13 4 12 10 -5 16 620 310
658 310 30 0 8 -25 -47 -53 -151 -77 -480 -228 -514 -236 -69 -16 -18 -12 98
8 62 11 158 27 215 36 57 9 119 23 139 31 19 8 37 13 40 11 2 -3 -1 -25 -8
-51 -10 -41 -15 -46 -39 -46 -15 0 -27 -6 -27 -13 0 -9 10 -12 29 -9 32 5 35
-5 12 -49 -10 -21 -22 -30 -37 -29 -35 3 -44 -1 -22 -10 19 -8 19 -9 -2 -9
-13 -1 -23 -6 -23 -12 0 -7 11 -8 31 -4 l31 7 -24 -41 c-19 -33 -29 -41 -53
-42 -26 0 -27 -2 -10 -9 18 -8 17 -9 -7 -9 -15 -1 -30 -6 -34 -13 -5 -8 2 -9
24 -5 19 4 32 2 32 -4 0 -20 -61 -68 -94 -75 -20 -3 -41 -13 -48 -22 -11 -13
-10 -15 9 -10 36 10 36 -8 1 -33 -18 -13 -36 -28 -40 -34 -5 -6 -8 -6 -8 2 0
10 -6 10 -26 0 -27 -11 -27 -12 -5 -17 21 -5 20 -7 -18 -32 -23 -15 -39 -23
-36 -18 4 6 -6 10 -22 9 -15 0 -22 -3 -15 -6 6 -2 12 -8 12 -13 0 -10 -79 -42
-90 -35 -4 2 -13 -1 -19 -8 -6 -8 -30 -19 -53 -26 -24 -7 -56 -17 -73 -22 -49
-17 -214 -22 -306 -11 -94 12 -239 55 -271 82 -20 16 -20 16 13 65 36 53 101
198 117 261 15 56 23 109 31 189 l6 70 115 17 c63 9 131 19 151 22 34 5 35 5
31 -22 -4 -29 48 -112 71 -112 9 0 9 2 -1 8 -23 15 -62 76 -62 96 0 16 21 32
88 67 48 25 192 101 320 169 l233 123 58 -13 c33 -7 65 -10 71 -8 7 2 -18 10
-55 17 -66 13 -68 13 -125 -14 l-58 -28 -254 88 c-139 48 -284 101 -323 117
-38 16 -78 32 -88 35 -10 3 -16 11 -13 18 3 9 -27 14 -117 19 -67 4 -155 9
-194 13 l-73 6 -40 74 c-37 69 -148 224 -170 238 -62 38 183 105 383 105 83
-1 117 -4 131 -15 15 -11 49 -15 137 -15 70 0 120 -4 124 -10 5 -9 34 -330 35
-392 0 -15 -13 -18 -97 -21 -54 -1 21 -3 167 -3 146 0 192 2 104 3 l-162 3 -6
83 c-4 45 -9 112 -12 150 l-6 67 358 1 c198 0 379 4 404 7 25 4 -135 5 -355 4
l-400 -4 -11 56 -10 56 331 1 c181 1 345 2 363 3 l34 1 -3 170 c-1 94 -3 195
-3 225 l-1 55 52 3 c41 2 55 8 64 23 19 36 7 72 -30 91 l-34 17 52 7 c58 7 66
14 57 49 -6 24 -51 55 -78 55 -7 -1 1 -7 19 -15 33 -14 61 -52 46 -64 -4 -4
-30 -13 -58 -19 -27 -6 -58 -14 -67 -17 -15 -6 -18 -2 -18 21 1 82 84 129 164
93z m405 2 c26 -15 44 -62 128 -351 l78 -265 0 -271 0 -271 -37 -74 c-47 -95
-92 -149 -109 -132 -9 9 -5 20 21 50 61 69 82 132 91 272 4 69 8 183 9 252 0
122 -2 133 -49 300 -95 336 -130 443 -152 464 l-21 20 21 -35 c11 -19 58 -167
106 -329 l85 -294 0 -121 c-1 -66 -5 -179 -9 -251 -7 -109 -13 -139 -35 -186
-32 -66 -85 -130 -92 -111 -3 6 -10 12 -15 12 -5 0 9 -23 31 -51 22 -28 40
-62 40 -75 0 -33 -34 -64 -71 -64 -41 0 -66 15 -84 50 -14 27 -21 30 -60 30
-25 0 -45 3 -45 6 0 3 18 29 40 56 22 28 40 54 40 58 0 4 17 11 38 15 79 14
133 27 130 31 -2 1 -76 -10 -163 -26 -88 -17 -173 -31 -190 -31 -27 -2 -28 -2
-5 -6 33 -6 48 -19 71 -64 26 -51 24 -74 -7 -98 -35 -27 -83 -27 -125 2 -41
27 -46 46 -21 73 11 11 23 30 26 42 9 28 21 28 40 0 23 -32 21 -68 -3 -68 -11
0 -22 5 -24 10 -3 6 -4 5 -3 -2 2 -7 14 -13 27 -13 33 0 37 39 9 78 -22 29
-22 30 -5 109 9 44 17 113 16 153 -1 87 -13 79 152 96 64 7 115 14 113 17 -3
2 -58 -1 -123 -8 -141 -15 -137 -15 -141 4 -3 11 5 16 25 17 l28 2 -27 4 c-39
6 -35 23 5 25 l32 1 -32 4 c-35 4 -47 32 -15 34 14 0 15 1 2 7 -9 4 -16 18
-15 32 0 22 5 26 45 31 l45 6 -47 1 c-63 2 -67 28 -5 37 83 11 223 25 255 25
37 0 47 -29 10 -31 l-23 -2 23 -4 c26 -5 30 -32 5 -34 -17 -1 -17 -2 0 -6 32
-8 17 -23 -25 -25 l-43 -1 43 -4 c49 -5 53 -24 6 -34 -29 -7 -29 -7 6 -9 19
-1 30 -4 24 -6 -6 -3 -9 -16 -6 -29 4 -21 0 -25 -19 -26 -24 -2 -24 -2 -1 -6
12 -2 22 -11 22 -19 0 -8 8 -17 18 -21 9 -3 33 -13 52 -21 l35 -15 -35 -8 -35
-7 34 1 c53 3 48 24 -9 44 l-52 18 6 50 c3 28 6 85 6 128 0 72 1 77 22 77 12
0 19 2 16 5 -3 3 -74 -1 -158 -10 -84 -8 -168 -15 -186 -15 -33 0 -34 1 -34
44 l0 44 139 7 139 7 -5 42 c-6 53 -59 316 -77 381 -21 73 -18 33 3 -57 10
-43 16 -78 12 -78 -20 1 -29 23 -34 85 -3 39 -15 97 -27 129 l-22 59 -92 -6
-92 -5 -11 51 c-6 29 -10 53 -9 54 5 6 273 4 288 -2 21 -8 32 -38 23 -64 -4
-14 -19 -22 -49 -26 l-44 -7 17 -38 c19 -44 28 -45 13 -1 -10 28 -9 30 21 37
42 8 57 22 57 49 0 33 -39 78 -61 72 -11 -3 -19 -1 -19 4 0 12 86 12 109 0z
m-579 -91 l0 -30 -138 0 c-97 0 -142 4 -151 13 -11 10 -13 10 -7 0 5 -10 -3
-13 -31 -13 -35 1 -37 2 -19 15 25 19 54 24 211 34 72 4 131 9 133 10 1 0 2
-12 2 -29z m92 -46 c22 -6 35 -51 21 -73 -9 -14 -64 -16 -514 -17 -277 0 -509
-1 -515 -2 -21 -4 -32 -57 -39 -184 -6 -139 -6 -141 52 -217 18 -24 33 -48 33
-52 0 -5 -22 -9 -48 -9 -56 0 -88 26 -121 100 -17 37 -21 66 -21 170 0 69 5
142 10 162 14 50 55 97 105 120 38 18 62 19 530 13 270 -4 498 -9 507 -11z
m345 -41 c26 -69 27 -326 0 -366 -21 -32 -64 -56 -108 -59 -46 -4 -48 19 -2
31 21 6 48 18 61 26 25 18 30 52 7 52 -11 0 -12 -4 -5 -11 16 -16 12 -29 -9
-23 -14 3 -18 1 -14 -9 9 -24 -23 -16 -35 9 -7 14 -11 17 -11 6 -1 -8 4 -20
11 -27 9 -9 6 -12 -13 -12 -21 0 -25 5 -27 35 -2 32 0 36 26 41 22 4 28 11 25
23 -6 22 12 37 57 48 32 9 57 43 30 43 -6 0 -8 -5 -5 -10 3 -6 -6 -15 -20 -20
-37 -14 -45 -13 -45 8 0 10 -7 28 -16 40 -19 28 -18 29 26 33 27 3 34 0 32
-11 -3 -12 -1 -12 8 -3 23 22 0 30 -75 25 -64 -4 -75 -2 -75 11 0 11 11 17 38
19 l39 3 -30 40 c-17 23 -27 32 -25 21 1 -10 -3 -21 -9 -23 -19 -7 -29 27 -12
38 10 6 10 9 2 9 -7 0 -13 5 -13 10 0 15 50 12 51 -2 0 -10 2 -10 6 0 2 7 22
12 45 12 29 0 39 -4 35 -13 -3 -8 1 -14 9 -14 17 0 18 9 2 25 -7 7 -42 12 -85
12 -40 0 -73 4 -73 9 0 10 42 17 127 19 l51 2 19 -47z m-8667 -36 c218 -58
356 -151 500 -340 67 -89 91 -107 140 -107 27 0 28 -1 18 -28 -8 -21 -7 -41 5
-82 15 -52 15 -55 -3 -75 -11 -12 -20 -27 -20 -33 0 -9 -31 -12 -106 -12 -70
0 -103 -3 -99 -10 4 -6 35 -10 73 -8 37 1 124 2 195 0 l127 -2 2 -117 2 -118
3 118 4 117 114 0 115 0 2 -152 2 -153 6 155 6 155 3 -120 c2 -66 7 -160 11
-210 6 -61 7 -23 3 120 -3 141 -1 220 7 239 l11 29 77 -7 c126 -10 125 -10
135 -211 7 -134 6 -170 -5 -181 -7 -7 -64 -31 -125 -53 l-113 -40 -2 37 -1 37
-4 -38 c-4 -34 -7 -38 -26 -33 -12 3 -132 6 -267 6 -135 0 -251 4 -258 8 -7 5
-17 36 -22 69 -19 114 -60 237 -122 363 -56 113 -70 134 -152 216 -101 101
-168 139 -303 175 -100 27 -366 38 -481 19 -150 -23 -295 -102 -365 -197 -90
-124 -170 -344 -185 -512 l-7 -76 -68 3 c-95 5 -141 22 -145 55 -7 59 107 466
160 570 71 141 171 261 276 331 80 53 141 78 242 100 114 24 121 24 340 21
182 -2 215 -5 300 -28z m-1937 16 l67 -6 0 -33 0 -34 -115 0 -115 0 2 40 1 40
46 0 c25 0 76 -3 114 -7z m8242 -48 c188 -28 306 -76 432 -177 74 -58 215
-210 205 -220 -4 -3 -54 -16 -111 -27 -58 -12 -116 -28 -129 -37 -23 -15 -25
-14 -78 36 -99 94 -224 137 -469 161 -318 31 -616 -34 -763 -166 -115 -104
-226 -341 -265 -571 -8 -45 -17 -87 -21 -93 -12 -19 -223 -7 -244 14 -10 10
41 213 95 378 107 321 246 504 468 612 101 49 174 70 320 89 139 19 436 19
560 1z m1160 3 c1 -2 5 -25 9 -53 4 -34 3 -43 -3 -30 -15 32 -12 10 8 -68 21
-77 38 -192 22 -147 -9 24 -9 24 -10 3 -1 -22 -4 -23 -102 -23 l-100 0 3 151
c4 182 5 184 107 175 35 -3 65 -7 66 -8z m442 -58 c38 -63 45 -56 8 9 -28 48
-26 64 4 37 28 -25 68 -131 87 -230 21 -104 39 -137 93 -163 l41 -20 -47 -7
c-25 -3 -69 -5 -97 -4 l-51 1 60 8 c41 4 25 5 -50 3 -60 -2 -216 -7 -345 -10
l-235 -6 -38 54 -38 53 338 12 c247 10 339 16 345 25 10 15 4 54 -18 128 -23
79 -25 55 -2 -28 11 -41 17 -79 15 -87 -4 -9 -50 -14 -184 -19 -98 -3 -199 -8
-224 -11 l-47 -4 -6 42 c-3 23 -8 74 -12 112 -4 39 -10 62 -13 53 -3 -10 -7
12 -7 48 l-2 64 197 -2 196 -3 32 -55z m188 -86 c45 -157 63 -191 106 -207 24
-9 29 -17 29 -44 0 -20 -5 -33 -12 -33 -7 0 -24 -3 -38 -5 -22 -5 -22 -4 -5 4
l20 10 -20 0 c-11 1 -43 12 -71 25 -56 26 -66 42 -84 141 -15 79 -37 149 -67
208 l-24 48 63 -3 62 -3 41 -141z m443 128 c3 -10 -4 -13 -24 -10 -36 4 -42
24 -7 23 14 0 28 -6 31 -13z m-423 -2 c3 -5 -3 -10 -14 -10 -12 0 -21 5 -21
10 0 6 6 10 14 10 8 0 18 -4 21 -10z m65 0 c0 -5 -11 -10 -25 -10 -14 0 -25 5
-25 10 0 6 11 10 25 10 14 0 25 -4 25 -10z m40 0 c0 -5 -7 -10 -15 -10 -8 0
-15 5 -15 10 0 6 7 10 15 10 8 0 15 -4 15 -10z m-2 -47 c2 -14 -2 -23 -10 -23
-8 0 -6 -4 5 -11 9 -5 17 -17 17 -24 0 -12 -15 -15 -65 -15 -51 0 -65 3 -65
15 0 14 36 21 78 16 6 -1 12 3 12 8 0 5 -21 9 -47 8 -31 -1 -48 2 -48 10 0 6
-3 15 -7 19 -18 17 -4 22 60 21 61 -2 67 -4 70 -24z m-26 -96 c6 -9 8 -9 8 1
0 6 5 12 11 12 5 0 9 -8 7 -17 -1 -10 1 -24 5 -30 9 -15 1 -33 -15 -33 -5 0
-8 7 -4 15 3 8 1 15 -4 15 -6 0 -10 -6 -10 -13 0 -19 -57 -20 -64 -2 -7 19 14
31 25 14 6 -9 9 -10 9 -2 0 6 8 13 18 16 9 2 3 4 -14 4 -33 0 -54 9 -54 22 0
13 74 11 82 -2z m546 1 c12 -15 33 -90 27 -96 -2 -2 -17 -1 -34 3 -29 6 -31 9
-31 56 0 50 15 64 38 37z m-184 -57 c3 -5 -5 -11 -19 -13 -28 -6 -35 8 -7 15
9 3 18 5 19 6 1 0 4 -3 7 -8z m-324 -35 c0 -8 -5 -18 -11 -22 -8 -4 -7 -9 2
-15 12 -8 11 -11 -1 -19 -10 -6 -11 -10 -2 -10 6 0 12 -7 12 -15 0 -8 -7 -15
-16 -15 -8 0 -13 4 -10 9 3 5 -3 11 -13 14 -16 4 -51 57 -51 79 0 4 20 8 45 8
33 0 45 -4 45 -14z m542 -29 c4 -7 8 -22 8 -33 0 -20 -3 -21 -47 -13 -25 5
-47 10 -49 12 -1 1 0 15 3 30 5 27 8 28 42 22 20 -4 39 -12 43 -18z m-117 -80
c-16 -25 -45 -40 -97 -51 -23 -5 -28 -3 -28 14 0 12 7 20 18 20 9 0 40 11 67
24 28 13 51 22 53 20 2 -1 -4 -13 -13 -27z m118 16 c12 -3 17 -15 17 -42 l0
-38 -126 -7 c-123 -7 -166 -3 -108 9 54 12 92 34 110 64 16 28 22 30 54 25 19
-3 43 -8 53 -11z m-1568 -63 c4 -6 -37 -9 -117 -8 l-123 2 115 6 c63 3 116 7
117 8 1 1 5 -2 8 -8z m-2190 -107 c-49 -117 -95 -255 -135 -410 l-11 -43 -65
0 c-64 0 -66 1 -61 23 4 12 18 110 32 217 14 107 28 203 31 213 5 15 19 17
111 17 96 0 105 -1 98 -17z m-7107 -20 c-16 -2 -40 -2 -55 0 -16 2 -3 4 27 4
30 0 43 -2 28 -4z m10 -22 c7 -4 19 -34 26 -65 l14 -58 -112 7 c-61 4 -114 9
-118 12 -9 5 -11 75 -2 97 5 13 23 16 93 16 47 0 92 -4 99 -9z m2870 -58 c-2
-13 4 -18 22 -20 21 -1 21 -1 3 3 -32 8 -17 34 19 34 23 0 29 -4 24 -16 -3 -9
-6 -20 -6 -25 0 -5 -45 -9 -100 -9 -55 0 -100 3 -100 6 0 3 5 14 10 25 9 15
22 19 71 19 51 0 59 -2 57 -17z m249 7 c47 0 64 -3 61 -12 -6 -17 -238 -28
-238 -12 0 24 26 36 69 30 24 -3 73 -6 108 -6z m-927 -79 c-25 -22 -47 -37
-49 -35 -8 8 63 74 78 74 10 0 -2 -16 -29 -39z m958 32 c-16 -2 -40 -2 -55 0
-16 2 -3 4 27 4 30 0 43 -2 28 -4z m-3108 -44 c9 -14 53 -199 49 -203 -2 -3
-31 2 -64 9 -33 7 -85 18 -116 25 -62 12 -66 17 -89 110 -6 25 -14 54 -17 64
-5 18 0 19 113 12 65 -4 121 -11 124 -17z m1290 -33 c0 -18 -17 8 -24 34 l-7
25 15 -25 c9 -14 15 -29 16 -34z m962 -29 c-6 -7 -25 -21 -44 -31 l-33 -19 40
42 c22 23 41 37 43 31 2 -6 -1 -16 -6 -23z m-2092 -97 c41 -5 78 -10 83 -10 4
0 7 -6 7 -14 0 -10 -24 -15 -86 -20 -48 -4 -90 -4 -95 1 -4 4 -11 21 -15 37
-6 25 -4 27 13 22 10 -3 52 -10 93 -16z m9080 -20 c67 -6 104 -16 175 -48 50
-22 206 -80 347 -129 142 -48 258 -90 258 -93 0 -5 -305 -170 -314 -170 -3 0
-24 13 -48 29 -84 56 -345 148 -468 165 -25 3 11 -10 80 -28 202 -55 367 -121
400 -160 16 -20 19 -16 -60 -56 -52 -27 -94 -38 -215 -56 -211 -33 -189 -40
-203 69 -20 160 -69 289 -164 429 -21 31 -38 59 -38 62 0 6 102 0 250 -14z
m-8125 -30 c10 -11 14 -20 8 -20 -5 0 -18 9 -28 20 -10 11 -14 20 -8 20 5 0
18 -9 28 -20z m4455 -50 c267 -5 644 -13 838 -16 267 -5 352 -10 352 -19 0 -7
-3 -27 -7 -45 l-6 -33 -236 7 c-130 3 -429 11 -666 16 -829 19 -1170 32 -1177
44 -4 6 -8 24 -8 39 l0 28 213 -6 c116 -3 430 -10 697 -15z m-5233 -65 c40
-41 78 -75 83 -75 21 0 8 -21 -28 -45 -35 -23 -47 -25 -140 -24 -116 1 -142
13 -162 74 -28 85 26 142 135 144 36 1 45 -5 112 -74z m6562 23 c-1 -13 -4
-34 -8 -47 -6 -23 -10 -25 -66 -22 -33 1 -61 4 -63 6 -2 2 2 21 8 44 l11 41
59 0 c56 0 60 -2 59 -22z m-772 -67 c166 -3 305 -9 308 -13 4 -4 4 -39 0 -77
l-7 -71 -107 1 c-191 1 -940 24 -944 29 -2 3 -8 38 -11 78 l-7 73 233 -6 c128
-4 369 -10 535 -14z m-2037 -5 c0 -2 -7 -20 -15 -39 -8 -20 -15 -49 -14 -64 1
-21 3 -17 10 16 5 24 15 54 24 67 15 23 19 24 161 24 135 0 146 -1 140 -17 -6
-17 -5 -17 8 0 7 9 21 17 31 17 17 0 17 -1 1 -19 -47 -52 -60 -184 -27 -271
21 -56 11 -67 -16 -17 -19 34 -25 184 -10 242 6 27 6 28 -5 10 -21 -32 -17
-212 5 -253 l18 -32 -148 6 c-81 4 -150 9 -153 11 -3 2 -10 19 -17 36 l-12 32
6 -39 c4 -30 3 -38 -8 -34 -25 8 -40 88 -36 183 4 92 20 145 44 145 7 0 13 -2
13 -4z m441 -6 c43 -12 75 -45 84 -85 6 -30 6 -30 -14 6 -42 76 -83 79 -119 9
-38 -74 -21 -212 30 -243 12 -8 24 -4 52 17 20 15 36 23 36 17 0 -5 -12 -19
-26 -30 -35 -27 -114 -29 -136 -3 -54 62 -50 241 7 298 27 27 35 28 86 14z
m6209 -7 c-18 -32 -80 -98 -80 -87 0 6 -11 28 -25 48 l-24 36 22 5 c12 2 31 6
42 8 11 3 33 5 48 6 24 1 26 -1 17 -16z m-4160 -65 c-1 -96 -9 -106 -91 -111
-35 -2 15 -3 111 -3 143 0 156 1 70 5 -59 4 -100 10 -92 14 8 5 12 35 12 88 0
50 4 79 11 79 7 0 9 -27 7 -79 l-3 -79 210 -6 c116 -4 217 -9 226 -12 23 -6
43 -58 35 -89 -3 -13 -18 -33 -33 -42 -37 -25 -265 -29 -778 -14 -220 6 -571
16 -780 22 -940 26 -874 23 -895 45 -55 56 -22 120 68 131 41 4 56 3 63 -8 6
-10 9 -10 9 -1 0 9 32 12 128 12 160 0 312 -10 312 -21 0 -5 -37 -10 -82 -12
-46 -1 -10 -4 80 -5 129 -2 162 1 162 11 0 11 22 13 103 10 376 -12 789 -23
888 -23 l116 0 7 46 c3 26 6 62 6 80 l0 34 65 0 65 0 0 -72z m-1996 2 l19 -35
-27 -39 c-30 -45 -30 -46 -12 -91 14 -33 14 -35 -11 -55 -36 -28 -41 -26 -63
23 -60 131 29 317 94 197z m4571 -73 c4 -17 9 -40 11 -49 3 -11 0 -18 -9 -18
-15 0 -27 40 -27 87 0 33 17 20 25 -20z m1605 14 c0 -7 -89 -51 -103 -51 -3 0
0 14 6 30 10 27 16 30 54 30 24 0 43 -4 43 -9z m-5440 -11 c0 -6 -30 -10 -70
-10 -40 0 -70 4 -70 10 0 6 30 10 70 10 40 0 70 -4 70 -10z m5154 -32 c-3 -5
-46 -28 -95 -50 -49 -23 -88 -43 -86 -45 3 -2 48 17 102 42 85 39 103 44 129
36 17 -6 42 -11 55 -13 16 -2 -41 -29 -163 -77 -209 -82 -249 -95 -321 -105
-44 -7 -48 -6 -30 6 11 8 64 34 117 58 54 24 96 45 94 47 -4 4 -182 -75 -221
-98 -30 -19 -172 -55 -181 -47 -4 5 128 69 416 203 80 38 149 72 155 77 11 10
37 -20 29 -34z m-94 -162 c0 -43 -12 -86 -24 -86 -7 0 -18 -22 -25 -48 -6 -26
-18 -60 -26 -75 -12 -24 -12 -27 1 -27 8 0 12 -5 9 -11 -4 -6 -14 -8 -21 -5
-10 4 -23 -8 -37 -31 l-22 -37 -8 41 c-6 34 -4 47 15 79 l23 39 6 -35 5 -35
18 40 c20 45 34 145 20 145 -5 0 -9 -21 -9 -47 0 -27 -4 -57 -8 -68 -8 -19
-10 -18 -24 9 -32 60 29 174 95 176 6 0 12 -11 12 -24z m-4112 -1 c2 -2 -23
-18 -55 -36 -81 -46 -153 -45 -253 6 -38 19 -70 38 -70 40 0 6 372 -5 378 -10z
m-2118 -45 c0 -6 -7 -13 -15 -16 -8 -4 -13 -10 -10 -14 3 -5 2 -16 -1 -25 -6
-15 -8 -14 -25 1 -19 17 -25 45 -12 57 10 11 63 8 63 -3z m45 0 c4 -6 2 -16
-3 -23 -14 -16 -82 -153 -82 -164 0 -4 9 6 19 24 17 27 56 52 66 41 2 -2 -11
-22 -28 -45 -32 -39 -34 -40 -60 -27 -33 18 -33 20 -4 64 13 19 32 59 42 88
18 49 36 65 50 42z m4989 -104 c-4 -36 -11 -66 -15 -66 -13 0 -11 98 2 122 17
31 20 16 13 -56z m1166 -11 c-16 -43 -23 -22 -8 27 9 29 14 37 16 22 2 -11 -2
-33 -8 -49z m-6240 21 c0 -6 -9 -21 -18 -34 -16 -20 -20 -21 -30 -9 -17 20 16
81 35 65 7 -6 13 -16 13 -22z m4998 -304 c-12 -29 -28 -52 -35 -52 -18 0 -16
14 7 59 16 33 38 54 47 46 2 -1 -7 -25 -19 -53z m-5295 -26 c7 -18 -7 -29 -52
-45 -42 -14 -71 -14 -71 -1 0 6 8 10 18 10 10 0 33 11 52 25 41 28 46 30 53
11z m5061 -68 c41 -3 49 -18 11 -18 -25 0 -105 35 -105 45 0 3 13 -1 29 -10
17 -8 46 -16 65 -17z m-5194 12 c0 -5 -6 -10 -12 -10 -7 0 -24 -3 -38 -5 -22
-5 -21 -3 5 9 36 18 45 19 45 6z m5350 -54 c-32 -48 -40 -54 -40 -33 0 15 60
90 67 83 3 -2 -9 -25 -27 -50z m-335 -174 c-3 -3 -20 9 -38 27 l-32 34 38 -28
c21 -15 35 -30 32 -33z m161 37 c3 -6 -9 -27 -27 -47 -34 -37 -34 -37 -2 -8
36 32 66 27 36 -6 -29 -32 -74 -52 -83 -37 -10 16 5 58 32 87 24 25 34 27 44
11z"/>
<path d="M6400 6110 c0 -17 -7 -20 -47 -20 -25 0 -44 -2 -42 -4 2 -3 87 -7
189 -11 102 -3 238 -13 302 -21 65 -9 126 -13 135 -8 25 11 -44 18 -308 35
-200 12 -216 14 -211 31 2 10 -1 18 -7 18 -6 0 -11 -9 -11 -20z"/>
<path d="M7005 6040 l-60 -7 60 0 c33 -1 71 3 85 7 l25 8 -25 -1 c-14 0 -52
-3 -85 -7z"/>
<path d="M7135 6030 l-50 -7 45 0 c25 -1 56 3 70 7 31 10 8 10 -65 0z"/>
<path d="M7438 6003 c12 -2 32 -2 45 0 12 2 2 4 -23 4 -25 0 -35 -2 -22 -4z"/>
<path d="M7550 5990 l-25 -8 25 0 c14 0 39 4 55 8 l30 8 -30 0 c-16 0 -41 -4
-55 -8z"/>
<path d="M4830 6030 l-45 -7 48 -1 c26 -1 47 3 47 8 0 6 -1 9 -2 8 -2 0 -23
-4 -48 -8z"/>
<path d="M5050 5791 c-70 -8 -95 -23 -119 -69 -37 -73 -110 -356 -156 -605
-32 -174 -32 -218 -2 -252 30 -35 122 -47 327 -43 228 4 216 -10 276 318 19
107 53 275 75 373 46 210 47 236 16 265 -22 21 -31 22 -193 21 -93 -1 -194 -5
-224 -8z m394 -11 c39 -15 42 -49 12 -189 -38 -174 -111 -541 -125 -628 -15
-86 -40 -118 -103 -126 -22 -3 -125 -3 -227 0 l-186 6 -27 28 c-34 34 -35 52
-8 212 42 243 119 544 161 628 27 54 44 63 133 70 133 10 343 10 370 -1z"/>
<path d="M4880 5483 c0 -5 -9 -54 -20 -108 -12 -53 -19 -102 -17 -108 2 -6 14
40 26 102 12 62 20 115 17 119 -3 3 -6 1 -6 -5z"/>
<path d="M5390 5427 c0 -3 -18 -96 -41 -207 -22 -111 -38 -212 -36 -224 4 -18
4 -18 6 4 0 14 19 115 41 224 22 109 38 201 35 204 -3 3 -5 3 -5 -1z"/>
<path d="M5199 5263 l54 -4 -6 -58 c-10 -89 -10 -90 -85 -94 l-67 -3 67 -2
c81 -2 89 7 91 101 l2 62 -55 1 -55 1 54 -4z"/>
<path d="M4812 5132 c-38 -204 -39 -216 -9 -246 l26 -26 211 0 212 0 29 29
c19 20 29 39 28 58 -1 26 -2 26 -9 -7 -16 -67 -27 -70 -261 -70 -280 0 -267
-12 -224 225 14 75 24 142 22 148 -1 5 -13 -44 -25 -111z"/>
<path d="M5098 5233 c12 -2 30 -2 40 0 9 3 -1 5 -23 4 -22 0 -30 -2 -17 -4z"/>
<path d="M5209 5175 c-4 -29 -6 -30 -69 -36 l-65 -6 67 -1 c64 -2 68 -1 74 23
3 13 4 30 1 37 -2 7 -6 0 -8 -17z"/>
<path d="M5064 5175 c11 -8 22 -12 25 -9 6 6 -19 24 -34 24 -5 -1 -1 -7 9 -15z"/>
<path d="M4951 5143 c-1 -25 3 -33 17 -33 11 0 13 3 6 8 -7 4 -14 18 -17 32
-4 21 -4 20 -6 -7z"/>
<path d="M5853 5781 c-70 -32 -93 -99 -138 -396 -33 -219 -57 -442 -53 -489 2
-28 10 -44 29 -59 26 -19 54 -20 665 -29 352 -5 739 -8 862 -6 210 3 225 4
238 23 25 34 27 64 9 112 -21 54 -192 285 -291 393 -38 41 -89 98 -113 125
-89 101 -226 238 -269 267 -73 50 -118 59 -357 68 -378 15 -533 13 -582 -9z
m775 -11 c101 -13 159 -47 267 -155 121 -121 265 -289 265 -309 0 -31 -19 -16
-101 82 -124 146 -276 293 -339 327 l-55 29 -387 10 c-357 8 -389 8 -413 -8
-30 -20 -41 -45 -61 -139 -38 -181 -95 -665 -82 -699 4 -8 21 -18 40 -21 18
-3 251 -9 518 -13 290 -4 490 -10 497 -16 7 -6 94 -14 194 -19 176 -8 200 -12
186 -25 -3 -4 -329 -2 -723 4 -815 13 -764 7 -764 92 0 60 42 397 71 569 35
211 61 271 129 301 30 12 643 4 758 -10z m-688 -30 c0 -5 -11 -10 -25 -10 -14
0 -25 5 -25 10 0 6 11 10 25 10 14 0 25 -4 25 -10z m50 0 c0 -5 -9 -10 -20
-10 -11 0 -20 5 -20 10 0 6 9 10 20 10 11 0 20 -4 20 -10z m60 0 c0 -5 -12
-10 -26 -10 -14 0 -23 4 -19 10 3 6 15 10 26 10 10 0 19 -4 19 -10z m55 0 c4
-6 -5 -10 -20 -10 -15 0 -24 4 -20 10 3 6 12 10 20 10 8 0 17 -4 20 -10z m55
0 c0 -5 -9 -10 -20 -10 -11 0 -20 5 -20 10 0 6 9 10 20 10 11 0 20 -4 20 -10z
m55 0 c4 -6 -5 -10 -20 -10 -15 0 -24 4 -20 10 3 6 12 10 20 10 8 0 17 -4 20
-10z m153 -35 c2 -31 0 -35 -23 -35 -17 0 -25 6 -26 18 -1 16 -2 16 -6 0 -2
-10 -13 -18 -24 -18 -11 0 -19 7 -20 18 -1 16 -2 16 -6 0 -2 -10 -13 -18 -24
-18 -14 0 -19 7 -19 25 0 25 2 25 58 23 41 -2 56 0 55 10 -2 6 5 12 15 12 13
0 19 -9 20 -35z m62 25 c0 -5 -9 -10 -20 -10 -11 0 -20 5 -20 10 0 6 9 10 20
10 11 0 20 -4 20 -10z m60 0 c0 -5 -12 -10 -26 -10 -14 0 -23 4 -19 10 3 6 15
10 26 10 10 0 19 -4 19 -10z m50 0 c0 -5 -9 -10 -21 -10 -11 0 -17 5 -14 10 3
6 13 10 21 10 8 0 14 -4 14 -10z m105 -10 l-20 -9 20 -1 c11 -1 30 -1 43 0 15
1 22 -4 22 -17 0 -12 3 -14 8 -6 11 17 36 -1 29 -21 -4 -9 -2 -16 3 -16 6 0
10 5 10 11 0 11 59 -31 59 -43 1 -5 -15 -8 -34 -8 -26 0 -35 4 -36 18 -1 16
-2 16 -6 0 -5 -20 -43 -25 -44 -5 0 10 -2 10 -6 0 -2 -7 -14 -13 -25 -13 -18
0 -19 5 -14 43 4 30 3 36 -3 22 -5 -11 -10 -30 -10 -42 -1 -20 -6 -22 -52 -21
l-50 0 6 41 c9 55 12 59 43 55 17 -2 26 2 25 10 -2 7 8 12 25 11 24 0 25 -1 7
-9z m-765 -25 c0 -18 -5 -25 -20 -25 -25 0 -27 37 -2 43 9 3 18 5 20 6 1 0 2
-10 2 -24z m110 -1 c0 -19 -5 -24 -25 -24 -17 0 -25 6 -26 18 -1 16 -2 16 -6
0 -7 -28 -43 -23 -43 6 0 22 4 24 50 24 46 0 50 -2 50 -24z m61 9 c1 -17 2
-17 6 0 7 27 43 22 43 -7 0 -23 -4 -25 -50 -24 -46 0 -50 2 -50 24 0 19 5 24
25 24 17 0 25 -6 26 -17z m159 -9 c0 -19 -5 -24 -25 -24 -14 0 -25 6 -26 13 0
10 -2 10 -6 0 -2 -7 -13 -13 -24 -13 -13 0 -19 7 -19 24 0 23 4 25 50 24 46 0
50 -2 50 -24z m220 4 c0 -10 2 -10 8 -1 4 6 29 11 56 11 l48 0 -6 -30 c-3 -17
-6 -39 -6 -49 0 -26 -49 -27 -51 -1 -1 16 -2 16 -6 0 -5 -21 -53 -25 -54 -5 0
10 -2 10 -6 0 -2 -7 -13 -13 -24 -13 -14 0 -19 7 -19 25 0 14 4 25 9 25 4 0 6
11 3 25 -4 22 -1 25 22 25 14 0 26 -6 26 -12z m-499 -50 c0 -10 2 -10 6 0 2 6
14 12 25 12 17 0 20 -5 15 -30 -4 -16 -2 -32 3 -35 6 -4 10 9 10 29 0 32 3 36
25 36 17 0 25 -6 26 -17 1 -17 2 -17 6 0 2 9 14 17 25 17 18 0 19 -5 14 -42
-3 -24 -5 -46 -5 -50 -1 -5 -11 -8 -22 -8 -19 0 -21 4 -15 30 3 17 1 30 -4 30
-6 0 -10 -13 -10 -29 0 -29 -1 -30 -51 -29 -51 0 -51 0 -45 29 3 16 1 29 -4
29 -6 0 -10 -13 -10 -29 0 -29 -1 -30 -50 -29 -42 0 -50 3 -50 18 0 11 4 21 9
24 4 3 6 17 3 31 -4 24 -2 25 47 25 34 0 51 -4 52 -12z m220 0 c0 -10 2 -10 6
0 2 6 14 12 25 12 17 0 20 -5 16 -30 -3 -16 -1 -30 4 -30 4 0 8 14 8 30 0 26
4 30 26 30 22 0 24 -3 19 -22 -8 -25 -8 -26 -6 -46 1 -10 4 -10 15 0 8 8 10
15 4 19 -6 4 -7 16 -4 27 6 17 15 20 52 20 41 0 45 -2 42 -21 -4 -28 -48 -38
-48 -11 0 31 -12 7 -13 -28 -2 -32 -3 -33 -49 -35 -39 -2 -48 1 -49 15 -1 16
-2 16 -6 0 -6 -25 -43 -23 -43 2 0 11 5 20 12 20 9 0 9 3 1 11 -17 17 -31 3
-25 -26 4 -22 1 -25 -23 -25 -23 0 -26 3 -21 23 3 12 6 34 6 50 0 22 4 27 25
27 14 0 25 -6 26 -12z m199 -68 c0 -14 -7 -20 -24 -20 -19 0 -23 4 -19 20 3
11 14 20 24 20 12 0 19 -7 19 -20z m60 8 c0 -10 2 -10 8 -2 4 7 39 12 85 13
67 1 77 -1 78 -16 1 -17 2 -17 6 0 3 13 15 17 54 17 32 0 49 -4 50 -12 0 -10
2 -10 6 0 5 14 43 17 43 3 0 -5 -3 -16 -6 -25 -7 -19 -44 -22 -45 -3 0 10 -2
10 -6 0 -7 -19 -41 -16 -45 5 -3 14 -5 13 -10 -5 -5 -20 -2 -23 24 -23 23 0
29 -4 26 -17 -5 -25 -48 -30 -49 -6 -1 17 -2 17 -6 1 -6 -25 -43 -23 -43 2 0
11 5 20 12 20 9 0 9 3 1 11 -13 13 -36 2 -27 -12 3 -6 3 -18 -1 -27 -8 -17
-10 -32 -13 -89 -2 -28 -6 -33 -27 -33 -14 0 -25 6 -26 13 0 10 -2 10 -6 0 -2
-7 -13 -13 -24 -13 -14 0 -19 7 -19 25 0 27 26 35 48 13 9 -9 12 -9 12 0 0 7
8 12 18 13 13 0 14 2 2 6 -8 3 -18 11 -22 17 -5 8 -8 7 -8 -1 0 -7 -10 -13
-21 -13 -18 0 -21 4 -16 30 4 16 2 32 -3 35 -6 4 -10 -9 -10 -29 0 -32 -3 -36
-26 -36 -23 0 -26 3 -22 30 3 17 1 30 -4 30 -4 0 -8 -13 -8 -30 0 -25 -4 -30
-25 -30 -14 0 -25 6 -26 13 0 10 -2 10 -6 0 -8 -21 -43 -16 -43 6 0 11 4 22 9
25 4 3 6 17 3 31 -3 20 0 25 17 25 14 0 21 -6 21 -20 0 -11 -5 -20 -10 -20 -6
0 -5 -6 2 -14 16 -18 21 -13 22 21 1 21 7 29 24 31 15 2 22 -2 23 -15 1 -17 2
-17 6 0 2 9 12 17 20 17 9 0 13 3 10 7 -4 3 -23 6 -42 5 -29 -1 -35 2 -35 18
0 15 7 20 25 20 14 0 25 -6 25 -12z m448 -1 c21 -14 14 -37 -13 -37 -17 0 -25
6 -26 18 -1 15 -2 15 -6 0 -3 -11 -14 -16 -36 -15 -18 1 -31 5 -29 10 1 4 2
14 2 22 0 11 11 14 48 12 26 -1 53 -6 60 -10z m-998 -57 c0 -13 -7 -20 -20
-20 -13 0 -20 7 -20 20 0 13 7 20 20 20 13 0 20 -7 20 -20z m110 -1 c0 -14 -7
-19 -25 -19 -14 0 -25 6 -26 13 0 10 -2 10 -6 0 -8 -21 -43 -16 -43 6 0 17 7
20 50 19 42 0 50 -3 50 -19z m111 9 c0 -10 2 -10 6 0 8 20 43 15 43 -7 0 -17
-7 -20 -50 -19 -39 0 -50 3 -51 16 -1 15 -2 15 -6 0 -6 -25 -43 -23 -43 2 0
17 7 20 50 20 33 0 50 -4 51 -12z m159 -9 c0 -14 -7 -19 -25 -19 -14 0 -25 6
-26 13 0 10 -2 10 -6 0 -8 -21 -43 -16 -43 6 0 17 7 20 50 19 42 0 50 -3 50
-19z m50 1 c0 -13 -7 -20 -20 -20 -13 0 -20 7 -20 20 0 13 7 20 20 20 13 0 20
-7 20 -20z m438 -7 c-5 -26 -38 -29 -38 -4 0 15 6 21 21 21 14 0 19 -5 17 -17z
m82 5 c0 -10 2 -10 8 -1 5 8 26 12 53 10 39 -2 44 -5 43 -24 0 -13 3 -23 8
-23 4 0 8 5 8 11 0 7 9 0 20 -14 11 -14 20 -27 20 -30 0 -3 -36 -6 -80 -6 -74
-1 -80 1 -80 19 0 27 50 29 51 3 0 -15 2 -15 8 2 5 11 7 22 5 25 -1 3 -32 4
-68 3 -60 -3 -66 -1 -66 17 0 16 7 20 35 20 21 0 35 -5 35 -12z m-953 -58 c-4
-17 -2 -30 3 -30 6 0 10 14 10 30 0 23 4 30 20 30 25 0 27 -35 3 -49 -14 -8
-9 -10 25 -11 33 0 42 -4 43 -17 1 -17 2 -17 6 0 6 24 43 22 43 -3 0 -17 -7
-20 -50 -20 -41 0 -50 3 -51 18 -1 16 -2 16 -6 0 -2 -10 -13 -18 -24 -18 -11
0 -19 7 -20 18 -1 16 -2 16 -6 0 -3 -13 -15 -18 -39 -18 -36 0 -40 5 -24 30 8
12 10 12 11 -5 1 -16 2 -16 8 5 10 32 2 58 -10 38 -7 -10 -9 -9 -9 4 0 16 16
25 54 27 15 1 18 -4 13 -29z m164 12 c1 -15 2 -15 6 1 7 27 43 22 43 -7 0 -22
-4 -24 -50 -24 -39 0 -50 4 -51 17 -1 14 -2 13 -6 -1 -7 -28 -43 -23 -43 6 0
23 4 25 50 24 39 0 50 -3 51 -16z m110 6 c0 -10 2 -10 6 0 2 6 14 12 25 12 14
0 19 -6 16 -22 -3 -26 -36 -37 -49 -16 -6 10 -9 10 -9 1 0 -7 -9 -13 -20 -13
-15 0 -20 7 -20 25 0 20 5 25 25 25 14 0 25 -6 26 -12z m99 -13 c0 -20 -5 -25
-24 -25 -19 0 -22 4 -18 25 3 16 11 25 23 25 14 0 19 -7 19 -25z m50 0 c0 -18
-5 -25 -20 -25 -15 0 -20 7 -20 25 0 18 5 25 20 25 15 0 20 -7 20 -25z m336
-7 c-3 -13 -6 -35 -6 -50 0 -23 -4 -28 -26 -28 -24 0 -26 3 -20 31 3 17 6 40
6 50 0 14 7 19 26 19 22 0 25 -3 20 -22z m54 2 c0 -14 -7 -20 -24 -20 -19 0
-23 4 -19 20 3 11 14 20 24 20 12 0 19 -7 19 -20z m47 -10 c-4 -17 -2 -30 3
-30 6 0 10 14 10 30 0 28 3 30 36 30 36 0 36 -1 30 -31 -3 -17 -6 -39 -6 -49
0 -24 -69 -27 -71 -2 -1 16 -2 16 -6 0 -2 -10 -14 -18 -25 -18 -18 0 -20 4
-14 31 3 17 6 40 6 50 0 13 7 19 21 19 19 0 21 -4 16 -30z m-657 -40 c0 -13
-7 -20 -20 -20 -13 0 -20 7 -20 20 0 13 7 20 20 20 13 0 20 -7 20 -20z m61 8
c0 -10 2 -10 6 0 2 6 14 12 24 12 18 0 20 -5 13 -47 -3 -27 -7 -52 -8 -58 0
-5 12 -8 27 -7 25 3 28 1 25 -20 -4 -29 -47 -39 -49 -11 -1 17 -2 17 -6 1 -2
-10 -12 -18 -21 -19 -14 0 -14 -2 -2 -6 8 -3 18 -11 22 -17 5 -8 8 -7 8 2 0 6
9 12 20 12 13 0 20 -7 20 -20 0 -17 -7 -20 -50 -20 -33 0 -50 4 -51 13 0 10
-2 10 -6 0 -2 -7 -13 -13 -24 -13 -25 0 -26 40 -1 41 10 0 12 3 5 6 -7 2 -13
16 -13 29 0 18 5 24 21 24 19 0 21 -4 16 -30 -4 -16 -3 -30 2 -30 4 0 12 29
17 65 l10 65 -28 0 c-21 0 -28 5 -28 20 0 15 7 20 25 20 14 0 25 -6 26 -12z
m211 -2 c6 -8 8 -7 8 2 0 6 9 12 21 12 19 0 20 -4 15 -42 -3 -24 -5 -46 -5
-50 -1 -5 -10 -8 -21 -8 -13 0 -20 7 -20 20 0 12 7 20 18 20 14 0 15 2 2 10
-24 16 -30 12 -30 -20 0 -22 -5 -30 -17 -31 -11 0 -13 -3 -5 -6 6 -2 12 -16
12 -29 0 -17 -6 -24 -20 -24 -19 0 -20 5 -16 68 3 38 2 52 -2 32 -7 -34 -9
-35 -56 -37 l-48 -2 6 31 c3 17 6 39 6 49 0 17 8 19 73 18 41 -1 75 -6 79 -13z
m108 -6 c0 -12 -10 -24 -22 -30 -18 -7 -19 -9 -5 -9 10 -1 17 -9 17 -21 0 -15
-7 -20 -25 -20 -24 0 -26 2 -20 38 10 57 13 62 35 62 13 0 20 -7 20 -20z m220
-5 c0 -18 -5 -25 -20 -25 -20 0 -28 28 -13 43 15 16 33 6 33 -18z m190 0 c0
-20 -5 -25 -25 -25 -18 0 -25 5 -25 18 0 10 3 22 7 25 3 4 15 7 25 7 13 0 18
-7 18 -25z m60 0 c0 -20 -5 -25 -25 -25 -20 0 -25 5 -25 25 0 20 5 25 25 25
20 0 25 -5 25 -25z m99 11 c6 -4 11 -14 11 -22 0 -17 -50 -19 -51 -1 0 10 -2
10 -6 0 -2 -7 -13 -13 -24 -13 -14 0 -19 7 -19 26 0 24 3 26 39 21 21 -2 43
-7 50 -11z m-1158 -53 c1 -17 2 -17 6 0 2 9 14 17 25 17 17 0 20 -4 15 -30 -4
-17 -2 -30 3 -30 6 0 10 14 10 30 0 23 4 30 20 30 17 0 20 -7 22 -42 l1 -43 4
43 c3 34 8 42 25 42 17 0 20 -5 16 -30 -3 -17 -1 -33 4 -36 4 -3 8 9 8 26 0
34 22 49 45 30 10 -9 15 -9 15 -1 0 6 9 11 20 11 15 0 20 -7 20 -25 0 -27 -26
-35 -48 -13 -9 9 -12 9 -13 -2 -1 -8 -2 -24 -3 -35 -1 -11 -3 -35 -4 -52 -2
-26 -6 -33 -23 -33 -18 0 -21 4 -16 28 3 15 2 34 -4 42 -6 11 -9 2 -9 -27 0
-37 -3 -43 -21 -43 -18 0 -21 4 -16 30 4 16 2 32 -3 35 -11 7 -13 -6 -10 -42
1 -21 -3 -23 -49 -23 -34 0 -51 4 -52 13 0 10 -2 10 -6 0 -2 -7 -14 -13 -25
-13 -14 0 -19 6 -16 23 2 17 10 22 30 22 23 -1 27 4 30 37 2 21 0 38 -4 38 -5
0 -8 -14 -8 -30 0 -29 -2 -30 -35 -28 -30 2 -35 6 -35 26 0 21 2 22 15 12 13
-11 15 -7 15 24 0 32 3 36 25 36 17 0 25 -6 26 -17z m637 -10 c-2 -10 -13 -19
-26 -21 -17 -3 -22 2 -22 17 0 16 6 21 26 21 19 0 25 -5 22 -17z m55 -3 c-3
-11 -14 -20 -24 -20 -12 0 -19 7 -19 20 0 14 7 20 24 20 19 0 23 -4 19 -20z
m57 0 c0 -15 -7 -20 -25 -20 -27 0 -28 1 -19 24 9 24 44 20 44 -4z m53 0 c-3
-11 -14 -20 -24 -20 -12 0 -19 7 -19 20 0 14 7 20 24 20 19 0 23 -4 19 -20z
m107 -1 c0 -14 -7 -19 -25 -19 -14 0 -25 6 -26 13 0 10 -2 10 -6 0 -6 -17 -43
-17 -43 0 0 21 9 25 56 25 37 0 44 -3 44 -19z m83 1 c-4 -16 -13 -20 -39 -18
-24 1 -34 7 -34 18 0 12 10 17 39 18 35 2 38 -1 34 -18z m57 0 c0 -15 -7 -20
-25 -20 -24 0 -34 18 -18 33 15 15 43 7 43 -13z m61 3 c1 -17 2 -17 6 0 3 10
14 17 29 17 19 0 25 -5 22 -17 -2 -14 -15 -19 -56 -21 -47 -3 -52 -1 -52 17 0
27 49 30 51 4z m97 5 c18 -18 15 -28 -8 -28 -13 0 -20 7 -20 20 0 23 10 26 28
8z m-800 -60 c-5 -34 -38 -37 -38 -4 0 20 5 26 21 26 15 0 20 -5 17 -22z m113
5 c1 -17 2 -17 6 0 7 27 43 22 43 -7 0 -23 -4 -25 -50 -24 -46 0 -50 2 -50 24
0 19 5 24 25 24 17 0 25 -6 26 -17z m110 0 c1 -17 2 -17 6 0 3 10 14 17 29 17
16 0 24 -6 25 -17 1 -17 2 -17 6 -1 3 13 15 17 51 16 26 0 50 -6 54 -12 6 -8
8 -7 8 2 0 19 40 14 41 -5 1 -17 2 -17 6 0 2 9 13 17 24 17 15 0 20 -6 17 -22
-3 -20 -10 -23 -48 -25 -25 -1 -48 4 -52 10 -6 9 -8 9 -8 0 0 -20 -40 -15 -41
5 -1 15 -2 15 -6 0 -3 -13 -18 -16 -84 -16 -76 1 -79 2 -79 25 0 18 5 23 25
23 17 0 25 -6 26 -17z m299 -3 c0 -11 -4 -20 -10 -20 -5 0 -10 9 -10 20 0 11
5 20 10 20 6 0 10 -9 10 -20z m61 8 c0 -10 2 -10 6 0 2 6 13 12 24 12 14 0 19
-7 19 -25 0 -23 -4 -25 -40 -23 -22 1 -43 -2 -47 -5 -3 -4 1 -7 10 -7 28 0 19
-27 -13 -39 -23 -7 -30 -16 -30 -35 0 -15 -4 -26 -8 -26 -5 0 -7 -13 -4 -30 3
-24 1 -30 -13 -30 -14 0 -16 6 -12 29 3 15 9 51 13 80 5 41 10 51 25 51 14 0
19 7 19 30 0 25 4 30 25 30 14 0 25 -6 26 -12z m107 -10 c-4 -30 -48 -39 -48
-10 0 10 3 22 7 25 3 4 15 7 25 7 14 0 19 -6 16 -22z m60 0 c-2 -15 -11 -24
-25 -26 -19 -3 -23 1 -23 22 0 21 5 26 26 26 21 0 25 -4 22 -22z m60 0 c-2
-15 -11 -24 -25 -26 -19 -3 -23 1 -23 22 0 21 5 26 26 26 21 0 25 -4 22 -22z
m52 -20 c0 -4 -9 -8 -20 -8 -15 0 -20 7 -20 27 0 25 0 26 20 8 11 -10 20 -22
20 -27z m213 -173 c135 -179 161 -250 104 -290 -31 -22 -262 -22 -271 0 -4 13
7 15 70 15 74 0 114 11 114 31 0 6 -7 3 -16 -5 -10 -10 -33 -16 -66 -16 l-51
0 22 24 c13 13 23 37 23 55 1 30 2 31 37 25 20 -3 42 -13 49 -22 11 -14 12
-14 12 1 0 19 -7 22 -61 31 l-35 6 -12 76 c-16 104 -43 162 -81 175 l-29 10
16 41 16 41 34 -39 c19 -21 75 -93 125 -159z m-1553 135 c0 -11 -4 -20 -10
-20 -5 0 -10 9 -10 20 0 11 5 20 10 20 6 0 10 -9 10 -20z m470 0 c0 -13 -7
-20 -20 -20 -13 0 -20 7 -20 20 0 13 7 20 20 20 13 0 20 -7 20 -20z m110 0 c0
-15 -7 -20 -25 -20 -14 0 -25 6 -26 13 0 10 -2 10 -6 0 -8 -21 -43 -15 -43 7
0 17 7 20 50 20 43 0 50 -3 50 -20z m110 0 c0 -11 -4 -20 -8 -20 -5 0 -7 -13
-4 -30 4 -27 1 -30 -22 -30 -14 0 -26 6 -27 13 0 10 -2 10 -6 0 -2 -7 -14 -13
-25 -13 -14 0 -19 6 -16 22 3 24 36 37 47 20 4 -6 11 -4 19 4 7 8 8 14 2 14
-5 0 -11 8 -11 18 -1 16 -2 16 -6 0 -6 -25 -43 -23 -43 2 0 17 7 20 50 20 43
0 50 -3 50 -20z m61 3 c1 -16 2 -16 6 -1 6 24 102 24 104 0 1 -15 2 -15 6 1 6
25 43 22 43 -4 0 -18 -5 -20 -60 -18 -67 3 -74 0 -54 -19 8 -7 14 -8 14 -2 0
5 9 10 20 10 15 0 20 -7 20 -25 0 -20 -5 -25 -25 -25 -14 0 -25 6 -26 13 0 10
-2 10 -6 0 -3 -8 -24 -13 -55 -13 -46 0 -49 2 -46 23 4 32 48 37 49 5 1 -20 2
-21 6 -3 3 11 10 23 17 27 6 4 -6 8 -26 8 -31 0 -38 4 -38 20 0 26 49 29 51 3z
m209 -3 c0 -13 -7 -20 -20 -20 -13 0 -20 7 -20 20 0 13 7 20 20 20 13 0 20 -7
20 -20z m200 4 c0 -10 -14 -14 -50 -14 -37 0 -50 4 -50 14 0 11 13 15 50 14
36 0 50 -4 50 -14z m60 1 c0 -9 -9 -15 -25 -15 -16 0 -25 6 -25 15 0 9 9 15
25 15 16 0 25 -6 25 -15z m60 0 c0 -9 -9 -15 -25 -15 -16 0 -25 6 -25 15 0 9
9 15 25 15 16 0 25 -6 25 -15z m70 0 c0 -10 -10 -15 -30 -15 -20 0 -30 5 -30
15 0 10 10 15 30 15 20 0 30 -5 30 -15z m-238 -57 l1 -33 4 33 4 32 97 -1
c118 -1 179 -15 204 -49 21 -29 48 -159 48 -234 0 -44 -4 -57 -26 -77 -25 -23
-30 -24 -153 -21 -69 1 -140 6 -156 11 l-30 8 1 149 c1 131 0 140 -8 79 -5
-38 -8 -107 -6 -153 l3 -82 -40 0 c-23 0 -49 8 -61 18 -21 16 -22 21 -13 132
10 129 25 201 42 212 7 4 29 8 50 8 35 0 37 -2 39 -32z m-1122 -3 c0 -14 -4
-25 -10 -25 -11 0 -14 33 -3 43 11 11 13 8 13 -18z m60 0 c0 -20 -5 -25 -25
-25 -18 0 -25 5 -25 18 0 10 3 22 7 25 3 4 15 7 25 7 13 0 18 -7 18 -25z m50
0 c0 -18 -5 -25 -20 -25 -15 0 -20 7 -20 25 0 18 5 25 20 25 15 0 20 -7 20
-25z m50 0 c0 -18 -5 -25 -20 -25 -15 0 -20 7 -20 25 0 18 5 25 20 25 15 0 20
-7 20 -25z m161 7 c1 -15 2 -15 6 1 7 27 43 22 43 -7 0 -23 -4 -25 -50 -24
-39 0 -50 3 -51 16 -1 15 -2 15 -6 0 -2 -10 -13 -18 -24 -18 -11 0 -19 7 -20
18 -1 16 -2 16 -6 0 -6 -24 -43 -24 -43 0 0 27 3 28 80 29 58 1 70 -2 71 -15z
m99 -7 c0 -18 -5 -25 -20 -25 -15 0 -20 7 -20 25 0 18 5 25 20 25 15 0 20 -7
20 -25z m61 13 c0 -10 2 -10 6 0 2 6 14 12 25 12 14 0 19 -6 16 -22 -3 -26
-36 -37 -49 -16 -6 10 -9 10 -9 1 0 -7 -9 -13 -20 -13 -20 0 -28 28 -13 43 11
12 43 8 44 -5z m99 -13 c0 -20 -5 -25 -24 -25 -19 0 -22 4 -18 25 3 16 11 25
23 25 14 0 19 -7 19 -25z m330 0 c0 -18 -5 -25 -20 -25 -15 0 -20 7 -20 25 0
18 5 25 20 25 15 0 20 -7 20 -25z m50 0 c0 -18 -5 -25 -20 -25 -20 0 -28 28
-13 43 15 16 33 6 33 -18z m-959 -52 c1 -17 2 -17 6 0 3 13 15 17 54 17 32 0
49 -4 50 -12 0 -10 2 -10 6 0 2 6 13 12 24 12 10 0 19 -6 20 -12 0 -10 2 -10
6 0 7 19 43 15 44 -5 1 -17 2 -17 6 0 5 19 43 24 44 5 0 -10 2 -10 6 0 2 6 13
12 24 12 18 0 19 -5 13 -52 -4 -29 -7 -55 -8 -58 -1 -6 9 -10 27 -10 9 0 9 2
-1 9 -10 6 -11 22 -6 59 l7 52 73 -1 c61 -1 74 -4 75 -18 1 -14 2 -13 6 2 2 9
14 17 25 17 17 0 20 -5 16 -30 -3 -16 -1 -30 4 -30 4 0 8 14 8 30 0 24 4 30
21 30 16 0 20 -6 19 -27 -3 -48 3 -60 9 -18 5 32 11 41 29 43 21 3 22 1 16
-40 -8 -62 -11 -68 -34 -68 -11 0 -20 6 -21 13 0 10 -2 10 -6 0 -9 -23 -43
-15 -44 10 l-2 22 -4 -22 c-3 -15 -12 -23 -25 -23 -18 0 -20 4 -15 35 3 19 2
35 -2 35 -5 0 -11 -27 -15 -60 -6 -51 -10 -60 -26 -60 -13 0 -20 7 -20 20 0
11 5 20 11 20 5 0 7 5 4 10 -3 6 -18 7 -32 4 -15 -4 -28 -2 -33 5 -11 19 -19
-9 -9 -34 6 -17 8 -17 8 -2 1 26 41 23 41 -4 0 -19 -5 -20 -57 -18 -57 3 -57
3 -58 -26 0 -20 -6 -31 -18 -33 -15 -3 -17 3 -15 32 1 19 -1 38 -5 42 -4 4 -7
2 -7 -5 0 -8 -22 -11 -77 -9 l-78 2 3 -31 3 -31 -51 0 c-46 0 -51 2 -48 22 3
22 36 35 47 18 4 -6 11 -4 19 4 7 8 8 14 2 14 -5 0 -10 9 -10 20 0 11 3 20 8
20 8 0 7 88 -2 97 -3 4 -6 0 -7 -8 0 -8 -2 -25 -3 -39 -1 -14 -3 -40 -4 -57
-2 -31 -4 -33 -41 -31 -32 1 -38 4 -33 20 5 20 22 25 22 6 0 -9 3 -10 8 -2 4
6 14 14 22 17 11 4 10 6 -4 6 -16 1 -18 7 -13 37 5 29 3 35 -8 30 -11 -4 -15
2 -15 19 0 28 19 35 21 8z m679 -8 c0 -20 -5 -25 -26 -25 -20 0 -25 4 -20 16
3 9 6 20 6 25 0 5 9 9 20 9 15 0 20 -7 20 -25z m60 0 c0 -20 -5 -25 -25 -25
-18 0 -25 5 -25 18 0 10 3 22 7 25 3 4 15 7 25 7 13 0 18 -7 18 -25z m60 16
c0 -23 -14 -41 -31 -41 -14 0 -19 7 -19 25 0 20 5 25 25 25 14 0 25 -4 25 -9z
m50 -16 c0 -20 -5 -25 -26 -25 -20 0 -25 4 -20 16 3 9 6 20 6 25 0 5 9 9 20 9
15 0 20 -7 20 -25z m100 -2 c0 -28 -39 -34 -41 -5 -1 16 -2 16 -6 0 -7 -28
-43 -23 -43 6 0 22 4 24 45 24 40 -1 45 -4 45 -25z m-960 -58 c0 -14 -4 -25
-10 -25 -5 0 -10 11 -10 25 0 14 5 25 10 25 6 0 10 -11 10 -25z m740 -1 c0
-19 -5 -24 -25 -24 -17 0 -25 6 -26 18 -1 16 -2 16 -6 0 -7 -28 -43 -23 -43 6
0 23 4 25 50 24 46 0 50 -2 50 -24z m61 9 c1 -17 2 -17 6 -1 4 15 18 17 100
17 81 0 94 -2 89 -15 -3 -9 -6 -20 -6 -25 0 -20 -30 -8 -31 14 l-2 22 -4 -22
c-5 -24 -42 -33 -44 -10 0 10 -2 10 -6 0 -9 -23 -43 -15 -44 10 l-2 22 -4 -22
c-4 -19 -11 -22 -54 -21 -45 0 -49 2 -49 24 0 19 5 24 25 24 17 0 25 -6 26
-17z m-230 -61 c1 -15 2 -15 6 1 2 9 14 17 25 17 18 0 20 -4 14 -31 -3 -17 -6
-40 -6 -50 0 -13 -7 -19 -21 -19 -19 0 -21 4 -15 30 3 17 1 30 -4 30 -6 0 -10
-13 -10 -30 0 -16 -5 -30 -11 -30 -5 0 -8 -4 -5 -8 3 -5 22 -8 43 -8 32 2 37
5 38 26 1 14 2 39 3 57 l2 31 80 1 c71 1 80 -1 80 -17 0 -10 -3 -21 -6 -25 -3
-3 -8 -27 -10 -52 -2 -25 -6 -50 -9 -55 -3 -5 -38 -7 -78 -4 -40 3 -83 6 -96
5 -14 -1 -28 5 -33 11 -6 10 -8 10 -8 1 0 -7 -9 -13 -21 -13 -16 0 -20 5 -17
28 3 23 0 27 -21 24 -13 -2 -28 2 -32 10 -7 10 -9 10 -9 1 0 -7 -9 -13 -20
-13 -11 0 -20 5 -20 10 0 6 -6 5 -14 -2 -17 -16 -3 -26 30 -20 18 3 24 0 25
-14 1 -17 2 -17 6 -1 6 25 43 22 43 -3 0 -19 -6 -20 -72 -19 -42 1 -76 6 -80
13 -6 8 -8 7 -8 -1 0 -7 -9 -13 -20 -13 -11 0 -20 6 -21 13 0 10 -2 10 -6 0
-2 -7 -13 -13 -24 -13 -10 0 -19 6 -20 13 0 10 -2 10 -6 0 -2 -7 -13 -13 -24
-13 -10 0 -19 6 -20 13 0 10 -2 10 -6 0 -2 -7 -13 -13 -24 -13 -10 0 -19 6
-20 13 0 10 -2 10 -6 0 -5 -14 -43 -18 -43 -4 0 4 -11 6 -25 3 -19 -3 -25 0
-25 13 0 12 7 16 28 13 24 -3 27 1 30 30 2 24 8 32 23 32 13 0 19 -7 19 -24 0
-13 -6 -27 -12 -29 -7 -3 5 -6 27 -7 40 -2 185 -2 196 -1 3 1 4 14 1 31 -4 28
-3 29 39 28 24 -1 49 -5 54 -9 6 -4 16 -1 23 7 7 8 8 14 2 14 -5 0 -10 9 -10
19 0 17 7 20 50 19 39 0 50 -3 51 -16z m329 5 c0 -9 2 -9 8 0 4 6 24 11 45 11
28 0 37 -4 37 -17 0 -10 -3 -21 -7 -25 -4 -4 -6 -31 -5 -61 1 -49 -1 -55 -18
-55 -22 0 -23 6 -11 67 4 23 4 48 0 55 -6 9 -9 9 -9 1 0 -7 -17 -11 -45 -11
-35 0 -45 3 -46 16 0 13 -2 13 -8 -3 -5 -11 -6 -27 -3 -34 4 -10 7 -11 10 -3
2 7 13 12 24 12 14 0 19 -6 16 -22 -3 -26 -36 -37 -49 -16 -6 10 -9 10 -9 1 0
-7 -9 -13 -20 -13 -27 0 -29 50 -2 51 10 0 12 3 5 6 -7 2 -13 15 -13 28 0 22
4 24 50 23 31 0 50 -4 50 -11z m-700 -62 c0 -18 -5 -25 -20 -25 -20 0 -28 28
-13 43 15 16 33 6 33 -18z m50 0 c0 -18 -5 -25 -20 -25 -15 0 -20 7 -20 25 0
18 5 25 20 25 15 0 20 -7 20 -25z m100 0 c0 -18 -5 -25 -20 -25 -15 0 -20 7
-20 25 0 18 5 25 20 25 15 0 20 -7 20 -25z m-360 0 c0 -8 -4 -15 -10 -15 -5 0
-10 7 -10 15 0 8 5 15 10 15 6 0 10 -7 10 -15z m946 -16 c-3 -17 -6 -40 -6
-50 0 -12 -7 -19 -20 -19 -26 0 -28 40 -2 41 10 0 12 3 5 6 -7 2 -13 16 -13
29 0 18 5 24 21 24 19 0 21 -4 15 -31z m-946 -34 c0 -8 -4 -15 -10 -15 -5 0
-10 7 -10 15 0 8 5 15 10 15 6 0 10 -7 10 -15z m50 0 c0 -8 -9 -15 -20 -15
-11 0 -20 7 -20 15 0 8 9 15 20 15 11 0 20 -7 20 -15z m791 -7 c0 -10 2 -10 6
0 8 20 43 15 43 -7 0 -17 -7 -20 -50 -19 -42 0 -50 3 -50 19 0 14 7 19 25 19
14 0 25 -6 26 -12z"/>
<path d="M6590 5658 c0 -23 3 -29 9 -19 8 12 4 51 -5 51 -2 0 -4 -15 -4 -32z"/>
<path d="M6695 5660 c-8 -13 9 -20 24 -11 10 6 9 10 -3 14 -8 3 -18 2 -21 -3z"/>
<path d="M6476 5674 c-8 -20 0 -32 14 -18 5 5 5 15 1 22 -6 11 -10 10 -15 -4z"/>
<path d="M6416 5672 c-2 -4 -1 -14 3 -21 6 -10 10 -9 14 3 6 16 -8 32 -17 18z"/>
<path d="M5873 5615 c0 -22 2 -30 4 -17 2 12 2 30 0 40 -3 9 -5 -1 -4 -23z"/>
<path d="M6518 5565 c-3 -14 -1 -25 3 -25 5 0 9 11 9 25 0 14 -2 25 -4 25 -2
0 -6 -11 -8 -25z"/>
<path d="M6456 5564 c-4 -9 -3 -21 2 -26 12 -12 23 15 12 31 -5 9 -9 8 -14 -5z"/>
<path d="M6507 5510 c-3 -11 -1 -23 4 -26 5 -3 9 6 9 20 0 31 -6 34 -13 6z"/>
<path d="M6217 5410 c-3 -14 -3 -28 2 -33 12 -12 20 14 11 37 -6 18 -7 18 -13
-4z"/>
<path d="M5891 5308 c-1 -10 -7 -18 -13 -18 -9 0 -10 -2 -2 -8 7 -4 14 -16 16
-27 3 -17 5 -16 9 6 3 14 2 34 -2 45 -7 17 -8 17 -8 2z"/>
<path d="M6128 5127 c-3 -15 -2 -30 3 -32 12 -8 16 8 9 35 l-6 25 -6 -28z"/>
<path d="M6178 5124 c-3 -10 -2 -28 2 -39 7 -19 7 -19 12 1 3 10 2 28 -2 39
-7 19 -7 19 -12 -1z"/>
<path d="M5918 5084 c-2 -25 0 -51 4 -57 6 -9 8 -9 8 1 0 6 9 12 20 12 11 0
20 -6 20 -12 0 -9 3 -9 9 1 5 8 18 12 29 9 11 -3 26 -2 33 3 12 7 12 9 0 9
-10 0 -12 9 -8 35 3 19 2 35 -4 35 -5 0 -9 -16 -9 -35 0 -29 -4 -35 -21 -35
-19 0 -21 4 -16 35 3 19 2 35 -4 35 -5 0 -9 -16 -9 -35 0 -29 -4 -35 -21 -35
-19 0 -21 4 -16 35 3 19 2 37 -3 40 -4 3 -10 -16 -12 -41z"/>
<path d="M5868 5080 c-3 -35 -1 -40 17 -40 15 0 17 2 6 9 -9 6 -12 19 -8 40 4
17 3 31 -2 31 -5 0 -11 -18 -13 -40z"/>
<path d="M6489 5007 c-7 -31 0 -40 21 -26 9 5 10 9 3 9 -6 0 -13 10 -15 23 -3
20 -4 19 -9 -6z"/>
<path d="M6266 5002 c-2 -4 -1 -14 3 -21 6 -10 10 -9 14 3 6 16 -8 32 -17 18z"/>
<path d="M6430 4986 c0 -31 6 -34 13 -6 3 11 1 23 -4 26 -5 3 -9 -6 -9 -20z"/>
<path d="M6477 4937 c-3 -7 -2 -19 3 -26 5 -10 8 -9 13 2 3 7 2 19 -3 26 -5
10 -8 9 -13 -2z"/>
<path d="M6416 4932 c-2 -4 -1 -14 3 -21 6 -9 10 -7 14 8 5 20 -7 29 -17 13z"/>
<path d="M8467 5134 c-3 -3 -1 -11 5 -18 7 -7 40 -10 94 -8 52 2 84 0 84 -7 0
-5 -19 -12 -42 -14 l-43 -4 45 1 c34 1 46 5 48 19 3 15 -6 17 -77 17 -47 0
-81 4 -81 10 0 11 -23 14 -33 4z"/>
<path d="M8404 5105 c-24 -18 -7 -19 26 0 16 9 19 14 9 15 -8 0 -24 -7 -35
-15z"/>
<path d="M8337 5070 c-17 -9 -58 -33 -89 -53 -31 -20 -62 -37 -68 -37 -5 0
-10 -4 -10 -10 0 -6 9 -6 26 0 14 6 37 11 52 11 25 2 26 2 3 6 -20 4 -15 10
40 44 62 38 67 39 159 40 106 1 103 6 -8 11 -52 3 -81 -1 -105 -12z"/>
<path d="M5644 4561 c-12 -5 -27 -26 -34 -45 -8 -24 -18 -36 -30 -36 -25 0
-36 20 -19 31 12 7 12 9 0 9 -20 0 6 30 28 31 9 0 11 3 4 5 -7 3 -21 0 -32 -6
-24 -12 -30 -76 -8 -78 6 -1 92 -5 190 -8 162 -6 177 -8 177 -25 0 -30 -33
-39 -137 -39 -100 0 -124 7 -136 40 -4 12 -6 12 -6 -2 -2 -38 25 -48 139 -48
132 0 150 10 157 86 7 78 -1 83 -147 89 -69 3 -135 1 -146 -4z m184 -7 l92 -7
0 -40 0 -40 -147 7 c-81 3 -148 8 -151 10 -10 10 11 65 26 69 27 7 82 7 180 1z"/>
<path d="M7752 4477 c-12 -13 -22 -32 -21 -43 0 -18 1 -18 9 1 7 16 9 16 9 4
1 -25 23 -29 134 -27 l102 2 -90 3 c-106 4 -138 10 -129 24 4 8 10 7 17 0 6
-6 22 -11 35 -11 21 0 22 2 12 15 -7 8 -20 15 -30 15 -9 0 -17 7 -17 15 0 24
48 19 54 -5 5 -20 43 -29 43 -10 0 6 10 11 23 11 17 1 18 2 4 6 -10 3 -25 -1
-34 -9 -14 -11 -16 -11 -11 3 5 13 -1 18 -24 23 -50 10 -63 7 -86 -17z"/>
<path d="M7903 4493 c9 -2 25 -2 35 0 9 3 1 5 -18 5 -19 0 -27 -2 -17 -5z"/>
<path d="M7951 4481 c-11 -7 -9 -10 8 -16 22 -7 41 0 41 16 0 11 -30 12 -49 0z"/>
<path d="M8002 4465 c-7 -15 -8 -25 -2 -25 6 0 10 8 11 18 0 12 3 11 10 -6 11
-29 3 -47 -15 -33 -8 7 -16 4 -24 -10 -12 -18 -22 -20 -115 -17 -56 2 -105 8
-109 13 -5 6 -8 5 -8 -3 0 -7 -4 -10 -10 -7 -5 3 -10 1 -10 -4 0 -7 44 -11
125 -11 105 0 130 3 160 20 19 11 40 18 47 16 7 -1 10 -1 6 1 -16 9 -7 23 15
24 12 1 4 5 -18 9 l-40 7 39 2 c26 1 43 -5 53 -16 13 -17 14 -17 11 2 -3 16
-12 21 -51 23 -26 2 -45 7 -42 13 4 5 0 9 -8 9 -7 0 -19 -11 -25 -25z"/>
<path d="M8098 4483 c51 -4 52 -5 52 -35 0 -27 -3 -30 -25 -26 -27 6 -34 -6
-10 -16 29 -11 45 5 45 45 l0 39 -57 -2 -58 -2 53 -3z"/>
<path d="M5540 4448 c0 -9 5 -20 11 -23 17 -11 18 -2 3 19 -12 17 -14 17 -14
4z"/>
<path d="M7920 4440 l-55 -7 52 -1 c28 -1 55 3 58 8 3 6 5 9 3 8 -2 -1 -28 -4
-58 -8z"/>
<path d="M1073 4813 c82 -2 212 -2 290 0 78 1 12 3 -148 3 -159 0 -223 -2
-142 -3z"/>
<path d="M1978 4803 c84 -2 219 -2 300 0 81 1 12 3 -153 3 -165 0 -231 -2
-147 -3z"/>
<path d="M2835 4790 c420 -8 1050 -12 1044 -6 -2 2 -321 6 -709 8 -460 4 -576
3 -335 -2z"/>
<path d="M793 4613 c9 -2 25 -2 35 0 9 3 1 5 -18 5 -19 0 -27 -2 -17 -5z"/>
<path d="M11293 4215 c0 -22 2 -30 4 -17 2 12 2 30 0 40 -3 9 -5 -1 -4 -23z"/>
<path d="M11125 3911 c42 -18 44 -30 48 -252 l3 -214 -1 226 0 226 35 -12 35
-12 5 -209 6 -209 -1 210 0 210 -37 18 c-20 10 -54 20 -75 23 -28 3 -33 2 -18
-5z"/>
<path d="M10590 3671 c0 -39 3 -72 8 -74 17 -10 97 8 98 23 0 9 -1 10 -3 3 -3
-8 -22 -13 -49 -13 -37 0 -44 3 -44 20 0 17 7 20 50 20 l50 0 0 39 c0 42 -13
51 -77 51 l-33 0 0 -69z m98 22 c3 -21 -1 -23 -42 -23 -43 0 -46 2 -46 26 0
23 3 25 43 22 35 -2 43 -7 45 -25z"/>
<path d="M10864 3722 c4 -7 -6 -12 -26 -15 l-33 -4 33 -1 c29 -2 32 -5 32 -32
0 -28 -3 -30 -34 -30 -28 0 -35 4 -39 23 -4 20 -4 19 -6 -4 -1 -23 4 -27 32
-32 17 -2 38 -2 45 0 15 6 16 89 0 99 -6 4 -8 3 -4 -4z"/>
<path d="M10762 3650 c0 -19 2 -27 5 -17 2 9 2 25 0 35 -3 9 -5 1 -5 -18z"/>
<path d="M10933 3625 c0 -33 2 -45 4 -27 2 18 2 45 0 60 -2 15 -4 0 -4 -33z"/>
<path d="M10713 3573 c37 -2 97 -2 135 0 37 2 6 3 -68 3 -74 0 -105 -1 -67 -3z"/>
<path d="M10765 3530 c40 -13 293 -60 319 -59 18 1 -194 43 -314 63 -34 6 -35
6 -5 -4z"/>
<path d="M10999 3519 c41 -10 76 -17 78 -15 5 5 -110 36 -133 35 -10 0 14 -9
55 -20z"/>
<path d="M11114 3488 c21 -8 25 -13 15 -19 -9 -6 -10 -9 -2 -9 6 0 14 4 18 9
6 11 -26 31 -47 30 -7 0 0 -5 16 -11z"/>
<path d="M11163 3385 c0 -27 2 -38 4 -22 2 15 2 37 0 50 -2 12 -4 0 -4 -28z"/>
<path d="M11233 3368 c-7 -34 -10 -64 -8 -66 5 -6 28 104 24 117 -3 7 -10 -16
-16 -51z"/>
<path d="M10913 3214 c-9 -24 10 -48 39 -52 30 -4 43 20 28 49 -13 23 -58 25
-67 3z m61 -10 c8 -21 -1 -34 -24 -34 -22 0 -34 15 -26 35 7 20 42 19 50 -1z"/>
<path d="M10340 2931 c-25 -47 36 -83 64 -38 8 12 8 22 0 35 -16 25 -51 27
-64 3z m55 -21 c0 -18 -6 -26 -21 -28 -23 -3 -37 18 -27 44 10 25 48 13 48
-16z"/>
<path d="M11680 3941 c52 -6 55 -8 58 -35 2 -16 -2 -33 -10 -38 -10 -8 -10 -9
2 -5 19 5 25 54 9 73 -7 9 -29 13 -63 12 l-51 -1 55 -6z"/>
<path d="M11515 3793 l-90 -12 90 6 c83 5 105 8 94 16 -2 1 -44 -3 -94 -10z"/>
<path d="M11553 3753 c9 -2 25 -2 35 0 9 3 1 5 -18 5 -19 0 -27 -2 -17 -5z"/>
<path d="M11378 3733 c12 -2 32 -2 45 0 12 2 2 4 -23 4 -25 0 -35 -2 -22 -4z"/>
<path d="M11503 3723 c15 -2 37 -2 50 0 12 2 0 4 -28 4 -27 0 -38 -2 -22 -4z"/>
<path d="M11393 3713 c15 -2 37 -2 50 0 12 2 0 4 -28 4 -27 0 -38 -2 -22 -4z"/>
<path d="M11533 3683 c9 -2 25 -2 35 0 9 3 1 5 -18 5 -19 0 -27 -2 -17 -5z"/>
<path d="M11568 3663 c12 -2 32 -2 45 0 12 2 2 4 -23 4 -25 0 -35 -2 -22 -4z"/>
<path d="M11493 3653 c9 -2 25 -2 35 0 9 3 1 5 -18 5 -19 0 -27 -2 -17 -5z"/>
<path d="M11408 3643 c12 -2 30 -2 40 0 9 3 -1 5 -23 4 -22 0 -30 -2 -17 -4z"/>
<path d="M11485 3504 c-77 -13 -111 -21 -75 -18 81 7 286 42 245 42 -16 0 -93
-11 -170 -24z"/>
<path d="M11580 3273 c0 -6 11 -22 25 -37 30 -33 33 -66 5 -66 -10 0 -24 8
-29 18 -6 9 -11 12 -11 5 0 -21 42 -44 57 -31 21 17 15 42 -17 83 -16 21 -30
33 -30 28z"/>
<path d="M11441 4378 c-1 -22 -6 -27 -33 -31 l-33 -4 33 -1 c35 -2 47 13 39
45 -3 12 -5 9 -6 -9z"/>
<path d="M11366 4371 c-3 -5 5 -8 19 -7 14 0 25 4 25 9 0 10 -38 9 -44 -2z"/>
<path d="M11412 4159 c-15 -5 -20 -13 -16 -21 6 -9 9 -9 12 0 5 16 29 15 35 0
3 -7 6 -3 6 10 1 24 -3 25 -37 11z"/>
<path d="M2225 4390 c-3 -5 -8 -33 -10 -62 l-4 -53 9 49 c13 70 33 86 26 21
-4 -37 -3 -42 3 -20 14 48 12 75 -3 75 -8 0 -18 -4 -21 -10z"/>
<path d="M2471 4338 c-14 -80 -6 -88 10 -9 12 63 29 86 21 29 -6 -42 3 -34 11
10 6 27 3 32 -12 32 -15 0 -21 -12 -30 -62z"/>
<path d="M3275 3951 c-22 -11 -35 -19 -30 -19 14 -1 93 36 80 37 -5 0 -28 -8
-50 -18z"/>
<path d="M3190 3915 c-14 -8 -20 -14 -15 -14 6 0 21 6 35 14 14 8 21 14 15 14
-5 0 -21 -6 -35 -14z"/>
<path d="M1613 3834 c4 -4 24 -16 45 -26 29 -14 32 -17 10 -13 -14 3 -34 7
-45 10 -10 3 -3 -2 16 -10 18 -9 41 -13 49 -10 20 7 7 20 -43 41 -22 9 -37 13
-32 8z"/>
<path d="M3390 3556 l0 -135 -27 -4 c-21 -4 -19 -4 7 -3 l35 1 3 138 c2 92 0
137 -7 137 -7 0 -11 -46 -11 -134z"/>
<path d="M1597 3634 c23 -9 44 -23 46 -32 4 -15 5 -15 6 1 1 18 -52 48 -81 46
-7 0 6 -7 29 -15z"/>
<path d="M3478 3413 c29 -2 74 -2 100 0 26 2 2 3 -53 3 -55 0 -76 -1 -47 -3z"/>
<path d="M3733 3403 c26 -2 67 -2 90 0 23 2 2 3 -48 3 -49 0 -68 -1 -42 -3z"/>
<path d="M758 4383 c23 -2 61 -2 85 0 23 2 4 4 -43 4 -47 0 -66 -2 -42 -4z"/>
<path d="M8656 4342 c7 -4 14 -16 17 -27 4 -15 5 -14 6 8 1 20 -4 27 -16 27
-12 0 -14 -3 -7 -8z"/>
<path d="M9015 4329 c-4 -11 -4 -23 -1 -26 3 -4 6 1 6 10 0 9 5 19 12 23 8 5
9 -3 5 -27 -16 -91 -15 -99 2 -39 10 36 16 68 14 73 -8 15 -32 6 -38 -14z"/>
<path d="M8447 4323 c-4 -3 -7 -11 -7 -17 0 -6 5 -4 10 4 7 11 10 1 10 -34 0
-60 6 -57 12 7 4 33 2 47 -7 47 -6 0 -15 -3 -18 -7z"/>
<path d="M8433 4245 c0 -27 2 -38 4 -22 2 15 2 37 0 50 -2 12 -4 0 -4 -28z"/>
<path d="M8632 4250 c0 -19 2 -27 5 -17 2 9 2 25 0 35 -3 9 -5 1 -5 -18z"/>
<path d="M7830 3835 c0 -2 18 -14 40 -25 22 -11 40 -18 40 -15 0 2 -18 14 -40
25 -22 11 -40 18 -40 15z"/>
<path d="M7805 3541 c33 -15 37 -19 20 -23 -19 -5 -19 -6 2 -7 38 -2 34 16 -7
33 -54 22 -65 19 -15 -3z"/>
<path d="M10222 4353 c9 -2 20 -13 23 -24 9 -27 16 -19 8 9 -3 15 -13 22 -27
21 -16 -1 -17 -2 -4 -6z"/>
<path d="M10140 4324 c-6 -14 -10 -31 -9 -37 0 -7 5 2 11 18 6 17 16 33 22 37
8 5 7 8 -2 8 -7 0 -17 -12 -22 -26z"/>
<path d="M10120 4187 c0 -100 7 -108 87 -105 46 1 46 2 8 5 -90 8 -87 4 -84
93 2 44 0 82 -4 86 -4 4 -7 -32 -7 -79z"/>
<path d="M10165 4250 c19 -8 93 -14 84 -6 -2 2 -26 6 -54 9 -32 4 -43 3 -30
-3z"/>
<path d="M10178 4213 c18 -2 45 -2 60 0 15 2 0 4 -33 4 -33 0 -45 -2 -27 -4z"/>
<path d="M10365 4329 c-37 -23 -26 -25 17 -3 31 16 33 16 50 -6 10 -12 18 -18
18 -13 0 12 -34 43 -46 42 -5 0 -22 -9 -39 -20z"/>
<path d="M10587 4305 c-10 -7 -17 -21 -15 -29 2 -11 8 -7 20 14 9 17 16 30 15
30 -1 0 -10 -7 -20 -15z"/>
<path d="M10669 4274 c9 -25 17 -38 19 -30 3 13 -24 76 -32 76 -2 0 4 -21 13
-46z"/>
<path d="M10531 4279 c-6 -18 -10 -48 -10 -68 1 -32 2 -30 9 14 4 28 11 58 15
68 4 9 5 17 2 17 -3 0 -10 -14 -16 -31z"/>
<path d="M10380 4228 c0 -4 4 -8 9 -8 5 0 17 -3 27 -7 11 -4 15 -2 12 7 -5 15
-48 22 -48 8z"/>
<path d="M10681 4209 c0 -8 -10 -34 -21 -57 -17 -34 -26 -42 -48 -42 -15 0
-39 8 -52 17 l-25 17 19 -22 c13 -15 31 -22 56 -22 35 0 39 3 59 46 12 25 20
53 18 63 -4 13 -5 14 -6 0z"/>
<path d="M10563 4184 c-3 -8 -1 -20 6 -27 8 -8 11 -4 11 16 0 30 -7 35 -17 11z"/>
<path d="M10689 4145 c-9 -25 -13 -42 -8 -40 9 6 33 75 27 80 -2 2 -11 -16
-19 -40z"/>
<path d="M10428 4093 c12 -2 32 -2 45 0 12 2 2 4 -23 4 -25 0 -35 -2 -22 -4z"/>
<path d="M10353 4083 c9 -2 25 -2 35 0 9 3 1 5 -18 5 -19 0 -27 -2 -17 -5z"/>
<path d="M949 3370 c39 -39 50 -94 27 -133 -11 -19 -12 -27 -4 -25 20 7 31 51
24 91 -7 36 -49 97 -68 97 -5 0 4 -14 21 -30z"/>
<path d="M4822 3080 c0 -19 2 -27 5 -17 2 9 2 25 0 35 -3 9 -5 1 -5 -18z"/>
<path d="M7241 3234 c-1 -26 21 -46 42 -38 20 7 30 35 18 47 -6 6 -9 2 -8 -9
3 -30 -40 -31 -46 -2 -4 21 -4 21 -6 2z"/>
<path d="M5563 3143 c37 -2 96 -2 130 0 34 2 4 3 -68 3 -71 0 -99 -1 -62 -3z"/>
<path d="M6172 3123 c37 -2 100 -2 140 0 40 1 10 3 -67 3 -77 0 -110 -1 -73
-3z"/>
<path d="M7263 3123 c9 -2 25 -2 35 0 9 3 1 5 -18 5 -19 0 -27 -2 -17 -5z"/>
<path d="M6570 3110 c203 -8 576 -12 569 -6 -2 2 -173 6 -379 8 -243 4 -310 3
-190 -2z"/>
<path d="M7568 3093 c12 -2 30 -2 40 0 9 3 -1 5 -23 4 -22 0 -30 -2 -17 -4z"/>
<path d="M11110 2946 c-15 -42 -11 -55 6 -17 8 19 12 36 9 39 -2 3 -9 -7 -15
-22z"/>
<path d="M8735 3850 c-16 -4 -25 -8 -18 -9 7 -1 9 -14 6 -40 -3 -23 -1 -41 6
-45 7 -5 11 6 11 32 0 50 12 60 80 65 l55 3 -55 1 c-30 0 -68 -3 -85 -7z"/>
<path d="M2615 3818 c-7 -18 -17 -51 -21 -73 -6 -36 -6 -39 9 -27 10 8 15 25
13 40 -2 15 -1 21 1 14 3 -8 11 0 21 20 11 20 26 34 40 36 35 5 25 22 -14 22
-30 0 -37 -4 -49 -32z"/>
<path d="M8620 3825 c-313 -89 -543 -334 -631 -673 -14 -53 -21 -118 -23 -207
-2 -71 -2 -110 1 -85 l4 45 47 -2 c26 -1 36 1 22 3 -70 13 -70 13 -70 52 0 71
8 83 49 77 l36 -5 -40 14 c-46 16 -27 21 24 6 19 -5 37 -8 39 -5 2 2 -17 9
-43 16 l-47 12 6 46 c3 25 10 48 14 52 4 4 33 -3 65 -16 31 -13 55 -20 53 -16
-3 4 -27 16 -53 26 -26 10 -51 21 -56 24 -8 8 21 101 32 101 3 0 23 -11 44
-25 20 -14 37 -22 37 -18 0 4 -14 16 -31 26 -18 10 -29 20 -25 24 3 3 1 12 -5
19 -7 9 -4 24 10 53 23 44 36 56 46 42 3 -6 20 -20 38 -32 31 -21 30 -20 -8
21 l-40 44 45 -33 45 -33 -39 36 -38 35 33 46 33 46 36 -43 c24 -28 39 -38 44
-30 4 7 5 13 2 13 -3 1 -9 2 -13 3 -15 3 -33 17 -33 27 0 6 6 7 13 3 6 -4 4 2
-5 13 -26 28 -22 45 15 81 36 35 47 39 47 18 0 -16 47 -76 60 -76 5 0 -1 22
-12 49 -24 57 -20 74 24 101 39 23 45 24 51 8 2 -7 3 -4 1 6 -5 30 14 5 21
-29 5 -24 4 -27 -5 -15 -10 13 -11 13 -7 0 2 -8 10 -14 16 -12 7 1 11 -5 9
-14 -2 -9 2 -19 9 -21 8 -3 6 14 -7 53 -11 31 -20 59 -20 60 0 5 72 40 99 49
19 6 23 4 18 -8 -3 -8 -2 -28 4 -44 l9 -28 -4 30 c-3 17 -1 37 5 45 6 11 9 5
10 -20 1 -19 5 -48 9 -65 5 -19 6 -5 3 36 -6 74 -6 75 66 94 25 7 37 13 26 13
-11 0 -40 -6 -65 -13z m-289 -217 c16 -31 17 -39 6 -30 -14 12 -41 72 -32 72
3 0 14 -19 26 -42z"/>
<path d="M9004 3795 c-7 -19 -14 -42 -13 -52 0 -10 5 -2 11 17 5 19 14 40 20
45 8 7 9 4 4 -8 -14 -42 -15 -69 0 -29 9 23 19 40 24 37 4 -3 13 2 20 10 11
13 8 15 -19 15 -27 0 -34 -5 -47 -35z"/>
<path d="M9160 3810 c34 -11 60 -11 35 0 -11 5 -29 8 -40 8 -16 0 -15 -2 5 -8z"/>
<path d="M2917 3789 c6 -6 17 -11 24 -12 8 -2 21 -7 29 -12 11 -6 10 -3 -2 11
-9 11 -27 20 -39 21 -15 1 -19 -1 -12 -8z"/>
<path d="M9188 3779 c-25 -10 -75 -76 -64 -86 2 -3 11 8 20 24 15 31 46 62 46
47 0 -5 -9 -20 -20 -34 -11 -14 -20 -29 -20 -34 0 -6 11 5 24 23 43 58 51 60
114 29 54 -27 77 -48 53 -48 -11 0 -81 -87 -81 -101 0 -17 15 -8 68 41 l54 48
-22 30 c-13 17 -28 28 -34 26 -7 -3 -29 7 -50 21 -40 27 -48 28 -88 14z m137
-129 c-21 -22 -41 -37 -44 -35 -6 7 60 75 73 75 6 0 -7 -18 -29 -40z"/>
<path d="M2998 3748 c10 -13 10 -17 0 -20 -8 -3 -6 -7 5 -11 23 -9 22 16 0 34
-16 13 -17 12 -5 -3z"/>
<path d="M2136 3725 c-7 -18 9 -55 24 -55 5 0 5 13 0 31 -12 40 -16 44 -24 24z"/>
<path d="M9380 3729 c40 -27 69 -39 65 -27 -6 13 -51 38 -69 38 -6 0 -4 -5 4
-11z"/>
<path d="M8981 3707 c-1 -21 21 -18 27 4 3 12 2 12 -6 0 -8 -11 -10 -11 -15 0
-4 10 -6 8 -6 -4z"/>
<path d="M9421 3671 c13 -11 26 -17 28 -15 5 5 -30 33 -43 34 -4 0 2 -9 15
-19z"/>
<path d="M9480 3666 c0 -9 70 -48 80 -44 6 2 4 11 -5 23 -15 18 -16 18 -11 2
5 -17 3 -16 -23 2 -28 20 -41 26 -41 17z"/>
<path d="M9402 3587 c-53 -54 -64 -71 -37 -61 8 4 13 10 10 14 -6 10 75 84 83
76 3 -3 -12 -22 -34 -42 -36 -32 -36 -34 -5 -12 18 13 39 27 46 32 17 12 73
-11 86 -35 7 -14 6 -19 -4 -19 -18 0 -83 -68 -73 -77 4 -4 17 -1 29 7 73 45
74 46 96 26 12 -11 21 -16 21 -12 0 5 -13 21 -30 36 -29 27 -43 69 -18 54 6
-4 8 -3 5 3 -4 6 -22 14 -41 17 -19 4 -45 15 -58 26 l-25 19 -51 -52z m128
-87 c-19 -17 -39 -30 -45 -30 -5 0 6 14 25 30 19 16 40 29 45 29 6 0 -6 -13
-25 -29z"/>
<path d="M3185 3580 c10 -11 20 -20 22 -20 2 0 -1 9 -7 20 -6 11 -16 20 -22
20 -6 0 -3 -9 7 -20z"/>
<path d="M3159 3558 c36 -39 51 -47 51 -26 0 6 -3 8 -7 4 -4 -3 -23 8 -42 26
l-36 33 34 -37z"/>
<path d="M9610 3572 c0 -8 -5 -10 -12 -6 -7 4 -3 -4 9 -17 27 -28 41 -19 19
13 -9 12 -16 17 -16 10z"/>
<path d="M2350 3494 c-102 -28 -212 -120 -263 -221 -78 -153 -76 -364 6 -517
42 -79 129 -166 203 -202 54 -27 68 -29 169 -29 102 0 114 2 168 30 71 35 152
120 189 197 146 298 3 668 -287 743 -72 18 -113 18 -185 -1z m256 -39 c161
-79 264 -255 264 -450 -1 -190 -91 -359 -232 -436 -61 -33 -67 -34 -173 -34
-106 0 -112 1 -173 34 -323 175 -340 693 -28 876 113 66 223 69 342 10z"/>
<path d="M2303 3410 c-134 -67 -225 -222 -222 -375 1 -27 3 -42 6 -32 2 9 10
17 16 18 131 6 220 18 228 30 28 44 7 67 -136 148 -39 22 -40 22 -12 1 21 -17
26 -28 21 -44 -6 -20 -5 -20 8 -2 14 18 17 18 66 -15 37 -24 52 -40 52 -56 0
-32 -22 -40 -139 -46 l-104 -6 6 52 c9 70 36 149 49 140 7 -3 8 -1 4 5 -12 21
3 33 26 21 16 -9 19 -8 15 3 -2 7 -10 12 -16 11 -14 -4 -14 10 1 25 9 9 16 8
32 -6 21 -17 21 -17 4 4 -10 11 -18 23 -18 27 0 4 23 25 52 48 l52 41 18 -22
c18 -22 17 -23 -28 -73 l-46 -51 29 -23 c15 -13 47 -33 70 -45 l43 -23 21 22
22 21 -38 69 c-21 37 -47 81 -58 97 -16 23 -17 30 -6 37 22 14 29 11 29 -11 0
-11 5 -20 10 -20 6 0 8 11 4 25 -4 18 -2 25 9 25 8 0 24 -22 36 -52 37 -92 78
-148 106 -148 23 0 25 3 23 48 l-1 47 -4 -42 c-6 -66 -33 -58 -78 20 -19 35
-35 67 -35 70 0 3 15 8 33 10 l32 4 -36 1 c-32 2 -49 15 -49 38 0 6 106 5 124
-2 22 -8 20 -34 -1 -34 -15 0 -16 -2 -3 -9 19 -13 30 -4 30 23 0 29 -21 36
-116 36 -59 0 -81 -5 -131 -30z m73 -135 c30 -54 34 -68 23 -81 -14 -17 -26
-14 -96 28 l-52 31 37 43 c20 24 40 43 44 44 4 0 23 -29 44 -65z"/>
<path d="M2616 3374 c-3 -9 -6 -50 -6 -93 0 -73 2 -79 30 -106 24 -23 33 -26
43 -16 9 10 9 11 -4 6 -11 -4 -24 3 -38 21 -17 22 -21 40 -21 99 0 39 3 75 6
78 12 12 44 -14 89 -71 l45 -56 -33 -35 -32 -34 37 29 c21 16 38 32 38 35 0
17 -103 134 -132 150 -11 6 -18 4 -22 -7z"/>
<path d="M2451 3186 c-16 -19 14 -45 31 -28 9 9 8 12 -5 12 -9 0 -17 5 -17 11
0 6 9 9 20 6 11 -3 18 -1 14 4 -8 13 -30 11 -43 -5z"/>
<path d="M2765 3190 c-3 -5 -3 -14 0 -20 8 -13 35 -13 35 0 0 5 -7 7 -15 4 -8
-4 -15 -2 -15 4 0 6 6 13 13 15 9 4 9 6 0 6 -6 1 -15 -3 -18 -9z"/>
<path d="M2396 3142 c-3 -5 0 -12 6 -15 11 -3 11 -9 0 -26 -14 -24 -1 -29 18
-6 7 8 17 15 22 15 5 0 -2 -14 -16 -31 -14 -17 -26 -41 -26 -54 0 -21 -26 -42
-37 -31 -9 9 8 26 19 20 7 -5 8 -2 3 5 -6 10 -11 9 -23 -3 -13 -12 -13 -18 -2
-31 9 -11 16 -12 25 -5 9 8 15 7 18 -2 3 -7 6 6 6 30 3 127 171 119 171 -8 0
-21 3 -41 8 -44 12 -7 5 70 -9 96 -24 47 -41 58 -88 58 -33 0 -42 3 -31 10 8
5 26 10 40 11 18 1 20 3 7 6 -10 3 -32 -1 -48 -7 -26 -11 -32 -10 -43 5 -8 12
-15 14 -20 7z"/>
<path d="M2751 3114 c-33 -29 -41 -41 -39 -67 l1 -32 4 32 c3 20 15 42 34 58
36 30 46 31 52 8 4 -14 5 -13 6 4 2 35 -14 35 -58 -3z"/>
<path d="M2578 3105 c19 -16 34 -41 41 -71 7 -26 14 -45 16 -42 18 18 -49 138
-78 138 -5 0 5 -11 21 -25z"/>
<path d="M2644 3098 c-4 -7 -4 -10 1 -6 4 4 14 0 22 -8 18 -18 26 -13 17 10
-7 19 -30 21 -40 4z"/>
<path d="M2812 3013 c-1 -46 -5 -83 -9 -83 -21 0 -72 42 -76 62 -4 17 -5 15
-4 -6 2 -24 10 -34 47 -52 l45 -23 3 45 c2 24 1 65 -1 92 -2 30 -4 18 -5 -35z"/>
<path d="M2637 3064 c6 -15 31 -26 37 -16 2 4 -6 12 -19 18 -18 9 -22 9 -18
-2z"/>
<path d="M2110 2985 c0 -8 8 -15 18 -14 10 0 12 3 4 6 -6 2 -10 9 -6 14 3 5 0
9 -5 9 -6 0 -11 -7 -11 -15z"/>
<path d="M2646 2964 c-4 -10 -1 -24 7 -31 19 -19 49 -5 45 21 -4 27 -43 34
-52 10z m44 -8 c0 -18 -16 -29 -30 -21 -13 8 -1 35 16 35 8 0 14 -6 14 -14z"/>
<path d="M2287 2943 c44 -4 69 -24 60 -47 -9 -22 -98 -79 -108 -69 -5 5 -15
26 -23 48 -8 22 -15 33 -15 25 -1 -9 7 -32 18 -53 l19 -36 -36 -27 c-33 -26
-35 -26 -48 -9 -17 23 -54 120 -54 140 0 12 14 15 65 14 36 -1 69 1 72 5 3 3
-29 6 -72 6 l-78 0 6 -36 c9 -53 59 -153 101 -201 33 -38 130 -103 152 -103 5
0 -14 14 -43 30 -67 39 -72 48 -38 76 l28 22 46 -35 c25 -19 48 -37 50 -38 1
-2 -4 -14 -13 -27 -20 -28 -20 -38 0 -38 8 0 13 4 10 9 -3 5 10 43 29 84 38
83 42 108 20 127 -24 20 -55 5 -137 -64 l-77 -65 -25 34 -26 34 78 54 c105 74
118 90 104 122 -10 22 -17 25 -59 23 l-48 -1 42 -4z m151 -159 c3 -23 -33
-114 -46 -114 -4 0 -27 14 -51 32 l-43 31 23 19 c75 60 112 70 117 32z"/>
<path d="M2553 2923 c-28 -29 -71 -30 -109 -1 l-29 22 20 -23 19 -22 -29 5
c-26 6 -27 5 -7 -3 24 -11 31 -27 7 -17 -8 3 -15 1 -15 -4 0 -13 15 -13 54 0
17 5 43 12 57 15 31 6 76 40 63 47 -5 2 -19 -6 -31 -19z"/>
<path d="M2590 2913 c-22 -23 -23 -25 -4 -15 12 6 24 18 28 27 7 20 5 19 -24
-12z"/>
<path d="M2782 2878 c2 -13 8 -23 13 -23 6 0 11 10 13 23 2 15 -2 22 -13 22
-11 0 -15 -7 -13 -22z"/>
<path d="M2535 2883 c-41 -11 -63 -73 -25 -73 23 0 41 31 22 38 -17 5 -15 22
2 22 8 0 18 5 21 10 3 6 5 9 3 9 -2 -1 -12 -4 -23 -6z m-5 -54 c0 -5 -7 -9
-15 -9 -15 0 -20 12 -9 23 8 8 24 -1 24 -14z"/>
<path d="M2590 2875 c-16 -19 -6 -45 17 -44 17 1 17 2 1 6 -10 2 -18 10 -18
18 0 19 28 27 33 9 4 -10 5 -9 3 2 -2 23 -20 28 -36 9z"/>
<path d="M2671 2854 c-12 -15 -21 -40 -20 -58 1 -30 1 -30 8 6 10 46 29 71 53
65 10 -3 16 -1 12 4 -10 17 -32 9 -53 -17z"/>
<path d="M2760 2842 l25 -21 -25 -27 c-14 -15 -19 -24 -12 -20 24 14 11 -12
-28 -55 -37 -42 -39 -43 -40 -19 -1 14 -5 34 -10 45 -6 13 -7 2 -3 -30 3 -27
8 -52 10 -55 8 -8 73 72 98 121 l24 46 -32 17 -32 18 25 -20z"/>
<path d="M2530 2760 c-13 -25 -60 -147 -60 -157 0 -4 7 2 15 13 8 11 15 14 15
7 0 -15 36 -17 45 -3 3 6 15 10 26 10 10 0 19 -4 19 -10 0 -5 -5 -10 -12 -10
-6 0 -9 -2 -6 -5 11 -11 37 7 35 25 -1 15 -7 18 -32 13 -16 -3 -33 -11 -37
-16 -4 -6 -13 -4 -23 6 -18 19 -15 37 16 99 21 41 40 45 51 13 6 -17 7 -16 5
5 -3 33 -41 40 -57 10z"/>
<path d="M2220 2745 c0 -10 7 -15 18 -13 21 4 19 22 -2 26 -10 2 -16 -3 -16
-13z"/>
<path d="M2633 2668 c-6 -7 -10 -21 -10 -30 0 -13 4 -15 19 -7 22 12 24 21 3
13 -18 -7 -20 7 -3 24 7 7 9 12 6 12 -3 0 -10 -6 -15 -12z"/>
<path d="M2428 2583 c17 -2 47 -2 65 0 17 2 3 4 -33 4 -36 0 -50 -2 -32 -4z"/>
<path d="M3216 3471 c-3 -4 6 -19 19 -31 21 -20 25 -21 25 -7 0 9 -6 16 -12
15 -7 -2 -12 5 -10 15 3 17 -13 24 -22 8z"/>
<path d="M9630 3452 c0 -5 -25 -26 -56 -46 -31 -21 -54 -40 -51 -43 3 -3 12
-1 19 3 7 4 21 9 31 9 10 1 32 12 49 25 l31 23 18 -24 c44 -57 36 -76 -47
-110 -30 -13 -54 -26 -54 -31 0 -5 32 8 70 27 39 19 70 31 70 26 0 -5 -19 -18
-42 -30 -27 -13 -36 -21 -23 -21 11 0 31 9 45 20 23 17 26 17 42 3 10 -9 18
-26 19 -37 0 -12 3 -15 6 -8 7 19 30 14 49 -10 14 -20 15 -20 9 -3 -4 11 -10
28 -13 38 -3 13 -7 15 -12 7 -11 -17 -77 44 -83 78 -3 15 -4 28 -2 30 6 7 45
-19 45 -29 0 -6 9 -22 20 -36 11 -14 20 -21 20 -14 0 6 7 11 16 11 8 0 12 5 9
10 -5 8 -11 8 -19 1 -10 -8 -18 0 -35 33 -18 34 -27 42 -42 39 -13 -4 -30 6
-54 31 -19 21 -35 33 -35 28z m5 -32 c-8 -13 -65 -43 -71 -37 -5 5 56 47 69
47 5 0 5 -5 2 -10z"/>
<path d="M8720 3434 c-93 -25 -161 -65 -235 -139 -332 -331 -122 -925 340
-962 247 -20 486 170 535 424 17 87 8 234 -18 307 -98 271 -375 436 -622 370z
m268 -25 c126 -42 251 -151 311 -273 108 -221 73 -472 -91 -642 -195 -204
-503 -201 -709 5 -220 220 -221 586 -2 797 135 130 313 171 491 113z"/>
<path d="M8738 3363 c-14 -4 -15 -8 -6 -28 6 -14 15 -22 21 -18 5 3 3 9 -4 14
-12 8 -12 11 1 18 17 12 11 19 -12 14z"/>
<path d="M8810 3290 c44 -120 55 -136 91 -144 34 -6 49 4 48 34 0 8 -4 5 -9
-8 -8 -18 -14 -21 -37 -16 -16 4 -29 8 -31 9 -4 3 -62 145 -62 151 0 1 24 5
53 7 l52 3 -57 2 c-46 2 -58 5 -58 18 0 15 10 16 73 12 41 -3 61 -2 47 2 -14
4 -51 8 -82 9 l-57 1 29 -80z"/>
<path d="M8695 3321 c15 -29 14 -30 -18 -52 -17 -12 -44 -33 -59 -47 -26 -24
-27 -24 -52 -6 -14 11 -26 22 -26 26 0 4 29 26 65 49 35 24 63 45 60 47 -9 9
-119 -74 -160 -122 -50 -60 -94 -147 -101 -203 -3 -29 0 -24 14 22 20 66 48
125 60 125 16 -1 52 -40 52 -57 0 -14 2 -15 9 -4 7 11 17 8 50 -18 23 -18 48
-42 56 -54 8 -12 15 -17 15 -10 0 14 -75 83 -129 118 -46 31 -49 40 -21 74
l20 23 87 -66 c49 -36 96 -66 106 -66 31 0 57 20 57 43 0 21 -1 21 -13 -3 -20
-39 -51 -37 -113 10 -30 22 -54 43 -54 45 0 2 25 23 56 46 45 35 57 40 65 28
15 -23 10 0 -6 32 -9 16 -13 34 -10 39 3 6 -1 10 -10 10 -14 0 -14 -3 0 -29z"/>
<path d="M8960 3340 c8 -5 22 -10 30 -10 13 0 13 1 0 10 -8 5 -22 10 -30 10
-13 0 -13 -1 0 -10z"/>
<path d="M8952 3313 c9 -2 19 -12 21 -21 3 -12 5 -10 6 6 1 17 -4 22 -21 21
-16 -1 -18 -3 -6 -6z"/>
<path d="M9005 3300 c-8 -13 15 -24 27 -12 6 6 4 11 -6 15 -8 3 -18 2 -21 -3z"/>
<path d="M9070 3291 c0 -5 -3 -18 -6 -28 -6 -16 -5 -16 9 2 14 19 17 17 76
-43 34 -34 61 -68 61 -74 0 -6 -8 -20 -17 -31 -18 -20 -18 -20 8 -4 14 10 29
14 34 10 30 -29 -26 48 -72 97 -56 61 -93 89 -93 71z"/>
<path d="M8956 3239 c-8 -42 0 -50 9 -9 4 17 5 34 2 36 -2 3 -7 -10 -11 -27z"/>
<path d="M9041 3196 c-6 -25 -11 -53 -10 -63 0 -10 7 9 15 41 8 33 13 61 10
63 -2 2 -9 -16 -15 -41z"/>
<path d="M8526 3193 c-11 -11 -6 -23 9 -23 8 0 15 4 15 9 0 13 -16 22 -24 14z"/>
<path d="M8797 3103 c-25 -25 9 -64 55 -62 18 1 19 2 5 6 -12 3 -16 10 -13 20
11 27 -28 56 -47 36z m33 -29 c0 -16 -16 -19 -25 -4 -8 13 4 32 16 25 5 -4 9
-13 9 -21z"/>
<path d="M8932 3083 c2 -20 8 -28 23 -28 31 0 28 49 -3 53 -20 3 -23 0 -20
-25z m36 0 c-4 -22 -22 -20 -26 1 -2 10 3 16 13 16 10 0 15 -7 13 -17z"/>
<path d="M9026 3097 c8 -21 59 -40 86 -34 13 4 32 13 43 22 18 15 17 15 -12 0
-43 -20 -65 -19 -97 6 -18 14 -24 16 -20 6z"/>
<path d="M9220 3078 c0 -4 9 -8 20 -8 11 0 20 4 20 8 0 4 -9 8 -20 8 -11 0
-20 -4 -20 -8z"/>
<path d="M8511 3049 c-6 -18 -11 -37 -10 -43 0 -6 7 7 15 28 8 22 12 41 10 43
-2 2 -9 -10 -15 -28z"/>
<path d="M8730 3050 c13 -9 7 -14 -12 -11 -13 2 -9 -6 9 -20 11 -10 14 -10 9
-1 -4 6 -2 12 3 12 6 0 11 7 11 15 0 8 -8 15 -17 15 -15 0 -16 -2 -3 -10z"/>
<path d="M9255 3050 c-3 -5 -28 -21 -54 -34 -69 -35 -75 -46 -65 -113 6 -35
15 -58 24 -61 12 -4 13 -3 2 10 -7 9 -13 39 -15 69 l-2 53 58 32 58 33 11 -27
c6 -15 11 -68 12 -118 0 -51 4 -87 8 -80 12 18 9 116 -6 179 -15 63 -21 74
-31 57z"/>
<path d="M8790 3030 c-8 -5 -11 -10 -6 -10 6 0 0 -9 -13 -21 -12 -11 -27 -32
-32 -46 -8 -21 -12 -23 -24 -13 -21 18 -45 5 -45 -25 0 -28 25 -44 43 -26 8 8
15 0 27 -31 l16 -43 -25 -5 c-31 -6 -37 -23 -15 -44 15 -16 18 -16 34 -1 16
15 21 14 55 -6 23 -14 32 -24 25 -29 -20 -12 -8 -55 16 -58 25 -4 41 25 24 42
-8 8 -9 6 -5 -5 8 -22 -13 -35 -28 -19 -9 10 -9 14 1 17 6 3 12 11 12 19 0 9
11 14 30 14 17 0 44 7 60 15 30 16 70 60 70 79 0 6 -9 -3 -20 -21 -10 -18 -33
-39 -49 -48 -34 -17 -99 -20 -121 -4 -11 8 -7 9 20 5 32 -4 33 -4 10 6 -58 25
-71 33 -85 55 -9 12 -18 42 -21 65 -7 61 20 102 83 123 48 15 48 15 8 10 -29
-4 -36 -3 -25 4 19 13 0 14 -20 1z m-80 -110 c0 -11 -7 -20 -15 -20 -15 0 -21
21 -8 33 12 13 23 7 23 -13z m43 -135 c-4 -15 -36 -12 -41 3 -3 9 3 13 19 10
13 -1 23 -7 22 -13z"/>
<path d="M8906 3001 c18 -11 39 -30 48 -42 9 -13 16 -18 16 -12 0 18 -59 73
-78 73 -11 0 -5 -7 14 -19z"/>
<path d="M8979 2991 c14 -19 27 -56 31 -90 7 -54 7 -54 9 -13 1 47 -20 102
-47 124 -9 7 -6 -2 7 -21z"/>
<path d="M9040 3005 c-19 -23 -8 -50 20 -50 16 0 26 6 28 18 4 18 -14 47 -28
47 -4 0 -13 -7 -20 -15z m35 -25 c0 -8 -8 -16 -17 -18 -13 -2 -18 3 -18 18 0
15 5 20 18 18 9 -2 17 -10 17 -18z"/>
<path d="M8635 2981 c-3 -12 -17 -21 -33 -24 l-27 -4 27 -2 c18 -1 31 6 38 20
7 11 9 23 7 26 -3 2 -8 -5 -12 -16z"/>
<path d="M8494 2965 c1 -16 8 -20 36 -21 34 -1 34 -1 3 3 -19 3 -33 11 -36 21
-3 12 -4 11 -3 -3z"/>
<path d="M8391 2898 c1 -40 5 -84 10 -98 7 -20 7 -17 3 13 l-5 37 40 0 c22 0
42 -5 44 -12 4 -10 6 -10 6 0 1 8 22 12 70 12 61 0 72 -3 85 -22 9 -12 16 -17
16 -11 0 6 -7 19 -16 27 -12 13 -39 16 -130 16 -107 0 -114 1 -114 20 0 13 7
20 20 20 11 0 20 5 20 11 0 7 -9 9 -21 6 -18 -5 -20 -2 -16 19 2 13 0 27 -4
30 -5 3 -9 -28 -8 -68z"/>
<path d="M8971 2895 c-2 -55 -20 -87 -61 -107 -19 -10 -27 -18 -18 -18 9 0 30
12 47 26 31 26 46 72 38 115 -3 16 -5 10 -6 -16z"/>
<path d="M9042 2858 c-15 -15 3 -48 27 -48 21 0 33 22 25 45 -7 18 -35 20 -52
3z m38 -18 c0 -11 -7 -20 -15 -20 -15 0 -21 21 -8 33 12 13 23 7 23 -13z"/>
<path d="M8647 2774 c-9 -13 -37 -37 -62 -54 -41 -28 -45 -29 -55 -13 -10 16
-10 15 -5 -3 4 -16 -2 -28 -21 -43 -15 -12 -31 -18 -36 -13 -4 4 -19 34 -32
67 -14 33 -25 53 -26 45 0 -26 56 -133 98 -186 37 -48 151 -134 175 -134 6 0
-11 14 -39 31 -59 37 -94 69 -94 83 0 6 12 19 25 29 24 17 25 17 83 -25 33
-24 67 -48 77 -53 25 -15 7 -71 -21 -67 -16 2 -17 1 -4 -7 20 -14 37 -14 37 2
1 6 10 50 22 97 11 47 21 94 21 106 0 26 -30 54 -56 54 -22 0 -98 -46 -160
-96 l-41 -34 -20 23 c-44 49 -48 42 70 123 37 26 73 56 78 66 15 29 7 30 -14
2z m123 -109 c11 -13 11 -29 1 -85 -7 -39 -15 -70 -18 -70 -23 0 -144 90 -137
102 11 18 100 68 120 68 12 0 27 -7 34 -15z"/>
<path d="M9253 2764 c-8 -22 19 -38 30 -18 5 8 6 20 3 27 -2 7 -5 4 -5 -5 -1
-10 -5 -18 -11 -18 -5 0 -7 7 -4 15 4 8 3 15 0 15 -4 0 -9 -7 -13 -16z"/>
<path d="M8964 2734 c-10 -41 27 -57 49 -22 14 21 2 48 -22 48 -14 0 -23 -9
-27 -26z m46 -10 c0 -8 -9 -14 -20 -14 -22 0 -26 10 -8 28 13 13 28 7 28 -14z"/>
<path d="M9081 2734 c-24 -31 -25 -48 -5 -89 8 -16 12 -21 8 -10 -17 61 -16
74 9 99 15 14 22 26 17 26 -5 0 -18 -12 -29 -26z"/>
<path d="M9210 2729 c24 -11 46 -22 48 -24 7 -6 -47 -100 -77 -135 l-31 -35
-17 21 c-10 12 -24 30 -31 40 -7 11 -2 -2 12 -28 l24 -48 -31 -22 c-53 -38
-95 -58 -154 -73 -86 -23 -103 -20 -103 13 0 43 11 51 75 55 l60 3 -62 2 -61
2 9 38 c20 74 29 90 61 96 19 4 37 1 47 -6 14 -12 14 -11 2 5 -15 19 -65 16
-88 -7 -15 -13 -53 -157 -53 -198 0 -33 15 -35 102 -17 119 25 236 114 296
226 17 34 32 63 32 67 0 7 -49 32 -80 40 -14 3 -5 -3 20 -15z"/>
<path d="M8524 2626 c-8 -22 -2 -27 16 -16 12 7 12 12 3 21 -10 10 -14 9 -19
-5z"/>
<path d="M9005 2509 c-19 -9 -18 -9 3 -5 13 3 26 -2 32 -12 11 -19 13 -12 4
12 -7 18 -11 18 -39 5z"/>
<path d="M9703 3433 c9 -9 19 -14 23 -11 10 10 -6 28 -24 28 -15 0 -15 -1 1
-17z"/>
<path d="M3248 3268 c7 -9 12 -34 10 -55 -3 -37 -4 -38 -65 -58 -62 -19 -85
-45 -40 -45 28 0 117 31 117 41 0 5 -19 -1 -42 -11 -24 -11 -54 -19 -68 -19
-23 0 -23 1 -5 9 11 4 41 16 68 25 44 15 47 19 47 51 0 39 2 40 35 18 21 -14
25 -25 26 -68 l1 -51 8 40 c8 40 -4 85 -23 85 -6 0 -26 12 -46 27 -20 15 -30
20 -23 11z"/>
<path d="M4017 3262 c-24 -26 -37 -69 -36 -115 2 -39 2 -38 9 14 4 33 17 70
29 88 24 34 23 41 -2 13z"/>
<path d="M5994 3265 c-7 -18 12 -45 32 -45 20 0 35 33 22 51 -8 11 -9 11 -5
-3 7 -20 -17 -43 -33 -33 -7 4 -10 16 -7 26 6 23 -1 25 -9 4z"/>
<path d="M4451 3173 c-1 -82 33 -191 63 -199 12 -2 73 -3 136 -2 l115 4 -128
2 -128 2 -21 47 c-12 27 -24 83 -28 128 l-7 80 -2 -62z"/>
<path d="M9749 3205 c-8 -8 -37 -24 -65 -35 -27 -10 -41 -19 -31 -20 10 0 35
9 57 20 45 23 50 24 50 10 0 -5 -12 -16 -27 -24 -16 -8 -24 -15 -20 -16 5 0
17 5 28 11 26 13 49 -4 49 -37 0 -16 -11 -31 -32 -45 -31 -20 -27 -21 13 -4
12 4 19 -2 27 -24 9 -26 9 -69 0 -76 -2 -1 -12 -7 -23 -14 -20 -12 -19 -12 1
-6 24 6 34 -15 34 -72 0 -18 4 -33 10 -33 5 0 7 14 3 33 l-6 32 27 -24 c23
-22 26 -31 25 -90 -1 -99 -10 -112 -37 -56 -14 29 -20 55 -16 70 6 26 -12 35
-31 16 -6 -5 -23 -12 -40 -14 -19 -3 -14 -4 13 -3 23 1 42 -2 42 -6 0 -11 -47
-21 -76 -15 -17 3 -22 1 -16 -5 10 -10 35 -12 76 -6 24 4 28 -19 10 -60 -14
-34 -55 -57 -86 -49 -10 3 -21 0 -25 -6 -4 -7 9 -8 43 -4 33 5 44 4 34 -3 -19
-12 -87 -13 -94 -1 -8 13 -46 21 -46 10 0 -14 49 -30 101 -33 67 -4 72 -11 36
-51 -35 -39 -65 -44 -132 -20 -48 18 -52 18 -38 4 6 -6 35 -17 64 -25 41 -10
45 -12 17 -9 -29 3 -35 1 -26 -8 15 -17 74 -15 70 2 -2 9 4 12 18 8 13 -3 20
0 20 9 0 8 11 26 25 40 21 21 23 28 13 49 -9 20 -8 31 8 60 10 19 22 35 26 35
14 0 30 -42 22 -58 -9 -22 -12 -62 -3 -57 13 9 38 113 42 177 4 67 4 68 -35
107 -40 41 -44 56 -29 108 7 24 6 35 -5 44 -16 13 -19 89 -4 89 15 0 43 -48
37 -65 -4 -8 -2 -17 3 -20 6 -4 10 -13 10 -21 0 -10 -5 -12 -12 -8 -10 6 -10
4 0 -8 7 -9 17 -35 22 -59 9 -44 9 -43 5 11 -3 30 -5 74 -5 97 0 39 -4 45 -42
70 -24 15 -45 28 -47 30 -2 1 -6 16 -10 33 -5 28 -7 29 -22 15z"/>
<path d="M4423 3130 c0 -25 2 -35 4 -22 2 12 2 32 0 45 -2 12 -4 2 -4 -23z"/>
<path d="M1770 3130 c34 -11 60 -11 35 0 -11 5 -29 8 -40 8 -16 0 -15 -2 5 -8z"/>
<path d="M3566 3120 c23 -86 74 -132 141 -129 27 2 27 2 3 6 -74 12 -89 23
-120 86 -17 34 -28 51 -24 37z"/>
<path d="M3272 3093 c-2 -20 -7 -42 -13 -49 -7 -8 -6 -14 3 -17 8 -3 -2 -12
-22 -21 l-35 -17 33 6 c24 5 34 3 38 -10 9 -23 -12 -64 -38 -76 -21 -8 -20 -9
5 -4 20 4 27 2 22 -6 -5 -7 -23 -9 -52 -4 -35 5 -44 4 -41 -7 3 -9 19 -12 53
-9 l48 3 -7 -28 c-4 -16 -14 -34 -22 -40 -7 -6 -14 -16 -14 -23 0 -7 -20 -11
-52 -11 -29 0 -48 4 -41 8 8 5 3 12 -17 19 -24 9 -30 9 -30 -2 0 -19 84 -49
114 -41 14 3 28 1 31 -5 10 -15 -44 -89 -64 -88 -12 0 -11 3 4 10 15 7 11 8
-20 6 -24 -2 -49 2 -62 11 -15 9 -23 10 -23 3 0 -19 50 -44 88 -45 30 -1 37
-5 37 -21 0 -13 -12 -26 -32 -36 -18 -9 -30 -19 -26 -23 3 -3 -5 -6 -18 -6
-17 0 -20 3 -11 9 11 6 9 9 -7 14 -11 2 -21 1 -23 -4 -2 -5 -20 2 -41 16 -20
14 -37 22 -37 18 0 -16 88 -63 119 -63 42 0 39 -26 -5 -52 -53 -31 -95 -27
-130 12 -12 14 -25 22 -29 18 -4 -4 9 -23 29 -42 27 -28 43 -36 71 -36 21 0
35 -5 35 -12 0 -14 -53 -48 -74 -48 -7 0 -13 -7 -13 -15 0 -20 1 -20 47 14 22
16 48 27 58 25 28 -8 78 37 77 68 -1 16 -6 33 -13 40 -7 7 -12 19 -12 28 0 19
40 60 58 60 17 0 15 -35 -3 -50 -8 -7 -15 -18 -15 -24 1 -13 50 41 50 55 0 5
-9 17 -20 26 -24 21 -26 46 -5 63 8 7 15 19 15 28 0 13 2 13 18 -1 31 -28 35
-19 8 14 -14 17 -26 34 -26 39 0 12 49 96 51 88 1 -5 2 -12 3 -18 0 -5 6 -10
11 -9 6 0 13 -10 16 -23 5 -19 7 -20 13 -6 5 11 -3 26 -29 50 -34 32 -35 34
-23 68 17 46 15 45 33 30 10 -8 14 -22 11 -35 -4 -16 -1 -21 14 -21 16 0 19 5
14 21 -8 24 -34 63 -34 51 0 -5 -9 -1 -20 9 -15 14 -20 31 -20 70 0 28 3 55 7
59 4 3 23 -8 42 -26 19 -18 29 -24 21 -13 -16 22 -62 64 -70 65 -3 0 -7 -17
-8 -37z m-100 -604 c-4 -26 -39 -62 -56 -56 -6 2 -12 14 -14 28 -2 17 5 29 25
41 35 22 49 18 45 -13z"/>
<path d="M3444 3120 c-15 -6 -28 -29 -42 -70 -15 -43 -17 -58 -8 -51 8 7 19
32 25 56 7 29 17 45 27 45 12 0 14 -11 12 -52 -3 -46 -6 -53 -28 -58 -20 -5
-26 -14 -31 -45 -3 -22 -9 -48 -14 -57 -4 -10 -5 -18 -2 -18 8 0 37 60 37 75
0 11 21 25 35 25 6 0 -2 -97 -9 -108 -4 -6 -20 -10 -36 -8 -20 2 -30 -1 -30
-10 0 -8 6 -11 17 -7 11 4 14 3 9 -5 -4 -7 -13 -12 -19 -12 -13 0 -52 -98 -43
-107 3 -3 17 2 30 11 33 21 38 20 32 -6 l-6 -23 12 23 c14 28 3 40 -23 23 -12
-7 -24 -9 -27 -5 -4 4 -2 8 3 10 38 14 75 47 81 71 10 46 13 53 24 53 5 0 10
-15 10 -34 0 -18 7 -39 15 -46 8 -7 15 -21 15 -31 0 -19 69 -103 77 -95 3 3
-12 21 -32 41 -23 23 -34 43 -30 53 3 8 -3 23 -15 34 -11 10 -20 32 -20 48 0
16 -4 31 -9 35 -8 4 -14 118 -12 238 0 9 -1 17 -2 16 -1 0 -12 -4 -23 -9z m-4
-289 c0 -13 -40 -61 -51 -61 -16 0 -10 22 14 45 24 25 37 30 37 16z"/>
<path d="M1717 2990 c6 -86 30 -217 43 -238 10 -15 10 -14 6 3 -2 11 -7 30
-11 42 -5 19 -1 23 22 29 46 10 53 13 53 24 0 14 -27 13 -32 -2 -4 -10 -10
-10 -30 -1 -27 12 -38 45 -38 112 0 37 0 37 38 33 28 -2 33 -1 22 7 -8 6 -27
11 -42 11 -19 0 -28 6 -31 23 -3 12 -3 -7 0 -43z"/>
<path d="M9730 3034 c-32 -12 -32 -13 -9 -13 14 -1 34 6 45 14 23 17 11 17
-36 -1z"/>
<path d="M9640 3028 c0 -4 9 -8 20 -8 11 0 20 4 20 9 0 6 -9 9 -20 8 -11 -1
-20 -5 -20 -9z"/>
<path d="M3167 3021 c-49 -6 -65 -24 -25 -28 22 -3 22 -2 3 6 -16 8 -10 10 25
10 25 1 52 6 60 11 17 11 19 11 -63 1z"/>
<path d="M3338 3002 c18 -15 32 -33 32 -41 0 -8 3 -11 7 -8 12 13 -31 77 -52
77 -17 0 -15 -4 13 -28z"/>
<path d="M3538 2983 c12 -2 30 -2 40 0 9 3 -1 5 -23 4 -22 0 -30 -2 -17 -4z"/>
<path d="M9655 2920 c3 -5 12 -10 20 -10 8 0 17 5 20 10 4 6 -5 10 -20 10 -15
0 -24 -4 -20 -10z"/>
<path d="M9735 2915 c-22 -7 -31 -13 -20 -14 11 0 34 6 50 14 38 17 22 17 -30
0z"/>
<path d="M7745 2810 c28 -5 74 -9 104 -9 36 -1 62 -7 75 -18 l21 -17 -20 21
c-17 18 -35 22 -125 26 -73 4 -90 3 -55 -3z"/>
<path d="M7969 2791 c-6 -17 30 -160 60 -241 31 -81 108 -210 173 -289 123
-148 322 -260 517 -292 91 -14 339 -12 449 5 100 15 138 29 56 21 l-49 -5 50
18 c28 9 68 29 90 43 47 31 85 44 85 31 0 -6 -7 -13 -16 -16 -9 -4 -14 -9 -10
-13 11 -11 46 28 36 41 -6 6 -30 37 -55 69 -26 31 -50 57 -55 57 -22 0 -17
-21 15 -63 19 -25 35 -51 35 -57 0 -5 -16 -18 -36 -28 l-36 -17 -34 40 c-40
47 -45 44 -9 -5 26 -36 31 -50 16 -50 -5 0 -20 22 -34 50 -13 27 -27 47 -30
44 -3 -3 8 -28 23 -55 16 -26 26 -50 22 -53 -4 -2 -30 -11 -58 -19 l-51 -15
-23 49 c-29 61 -37 58 -11 -5 24 -55 19 -61 -8 -8 -24 43 -27 36 -7 -13 l15
-34 -45 -7 c-57 -8 -71 -2 -79 35 -4 17 -11 33 -15 36 -5 3 -3 -12 5 -35 8
-22 10 -40 5 -40 -5 0 -15 21 -22 47 -6 26 -13 42 -15 36 -3 -7 0 -28 6 -47
l9 -36 -64 0 c-38 0 -64 4 -64 11 0 5 -4 8 -8 5 -5 -3 -10 20 -11 51 -2 80
-11 80 -11 0 l0 -67 -42 6 c-24 4 -45 11 -46 16 -2 4 -8 5 -14 2 -6 -4 -14 0
-19 7 -6 10 -9 10 -9 2 0 -11 -14 -8 -97 22 -9 3 -7 19 7 61 23 65 23 67 11
60 -5 -3 -14 -28 -21 -56 -7 -27 -16 -50 -21 -50 -16 0 -76 27 -82 37 -3 5 5
33 19 63 13 29 23 54 21 56 -2 2 -14 -20 -27 -49 -29 -62 -29 -62 -36 -55 -3
3 4 24 16 47 11 23 18 41 15 41 -2 0 -14 -18 -25 -40 -22 -43 -23 -43 -78 -3
-32 24 -33 26 -17 50 9 14 15 27 12 29 -2 2 -10 -7 -17 -21 -7 -14 -17 -25
-22 -25 -16 0 -8 16 23 48 17 18 27 32 21 32 -6 0 -22 -15 -36 -32 l-25 -33
-41 40 c-22 21 -40 45 -40 52 0 6 20 26 45 43 43 29 57 50 35 50 -5 0 -10 -5
-10 -11 0 -5 -4 -8 -9 -5 -5 3 -27 -8 -50 -24 l-41 -30 -34 52 c-19 28 -33 55
-30 59 2 5 22 18 44 30 22 13 40 30 39 38 0 10 -3 11 -5 4 -3 -7 -13 -9 -22
-6 -12 3 -13 2 -4 -4 9 -7 1 -16 -30 -33 -35 -19 -40 -20 -35 -6 4 10 3 15 -3
11 -9 -6 -41 48 -54 92 -5 16 -2 23 15 28 17 6 19 9 8 17 -10 7 -8 8 9 5 32
-7 59 2 40 14 -10 7 -8 9 6 9 11 0 17 3 13 6 -3 3 -27 -2 -52 -12 -32 -12 -42
-20 -33 -25 10 -7 10 -9 0 -9 -15 0 -54 86 -50 109 2 9 20 19 46 24 55 11 59
38 5 36 l-38 -2 35 -6 35 -7 -30 -7 c-16 -4 -38 -10 -48 -13 -12 -4 -17 -1
-16 8 1 7 -1 20 -4 28 -3 8 -7 26 -9 40 -2 16 -6 20 -9 11z m301 -444 c0 -2
-18 -18 -40 -36 -22 -17 -40 -28 -40 -23 0 5 17 21 37 35 38 27 43 30 43 24z
m1074 -183 c21 -24 36 -48 32 -52 -7 -6 -20 8 -67 71 -32 43 -8 30 35 -19z"/>
<path d="M3290 2758 c0 -22 16 -24 24 -2 8 21 8 21 -9 21 -8 0 -15 -9 -15 -19z"/>
<path d="M1813 2742 c-35 -14 -42 -20 -37 -37 11 -40 73 -161 104 -203 31 -43
32 -44 53 -25 l22 18 -19 -22 c-18 -22 -18 -23 14 -63 66 -83 240 -191 330
-205 32 -5 31 -4 -10 11 -25 9 -46 18 -48 19 -2 2 3 26 12 54 8 29 11 49 7 46
-5 -2 -14 -25 -20 -50 -6 -25 -13 -45 -16 -45 -2 0 -20 7 -39 17 -35 16 -35
16 -21 50 8 18 11 41 8 50 -4 11 -3 14 5 9 7 -4 12 -2 12 3 0 25 -21 8 -43
-34 l-23 -46 -42 31 c-25 18 -40 35 -36 42 4 7 3 8 -4 4 -7 -4 -12 -3 -12 2 0
13 25 33 32 27 3 -3 8 3 11 15 7 28 -8 25 -31 -7 l-21 -28 -30 29 c-17 17 -31
34 -31 40 0 6 17 27 37 48 55 56 35 58 -41 4 -26 -18 -27 -18 -42 0 -8 10 -21
31 -29 46 -15 27 -15 28 25 53 25 16 38 30 34 37 -6 9 -9 9 -12 0 -2 -7 -9 -9
-14 -6 -6 4 -8 2 -5 -3 4 -6 -4 -18 -18 -27 -31 -20 -41 -21 -25 -1 11 13 10
14 -3 9 -13 -5 -22 5 -37 41 -27 64 -26 70 20 89 22 9 40 18 40 21 0 7 -9 5
-57 -13z m323 -429 c-8 -15 -15 -25 -16 -21 0 12 23 58 27 54 3 -2 -2 -17 -11
-33z"/>
<path d="M3385 2671 c-4 -15 -15 -21 -34 -21 -30 0 -45 -13 -85 -77 -20 -33
-23 -43 -11 -43 8 0 21 13 30 30 8 16 29 37 46 45 l30 16 -12 -23 c-40 -76
-62 -98 -94 -98 -19 0 -38 -7 -46 -17 -10 -11 -10 -14 -1 -9 7 4 12 2 12 -5 0
-8 4 -8 15 1 28 24 25 4 -6 -33 -23 -28 -36 -36 -52 -32 -13 3 -34 -3 -52 -16
-17 -12 -21 -18 -10 -14 43 16 55 17 55 6 0 -17 -107 -84 -125 -78 -8 4 -14 1
-12 -5 1 -6 -4 -13 -12 -16 -8 -3 -11 0 -7 7 11 18 2 13 -52 -22 -51 -35 -156
-67 -214 -67 -30 1 -26 4 44 40 51 25 84 37 99 33 21 -6 21 -7 4 -20 -11 -7
-15 -13 -9 -13 12 1 44 25 44 34 0 4 -4 5 -8 2 -5 -3 -19 2 -31 11 l-23 15 37
38 c25 26 43 36 56 33 29 -8 23 15 -9 31 -15 8 -36 23 -46 35 -11 12 -23 21
-28 21 -5 0 7 -14 27 -31 20 -18 33 -34 30 -37 -3 -3 -20 8 -38 24 l-32 29 33
-36 33 -36 -41 -36 c-22 -21 -44 -37 -49 -37 -10 0 -44 45 -54 70 -3 10 -6 10
-6 2 -1 -7 10 -30 24 -52 14 -22 25 -42 25 -45 0 -12 -151 -76 -193 -81 l-45
-6 -16 43 c-9 24 -14 32 -11 17 3 -14 8 -33 11 -42 5 -14 -4 -16 -64 -16 l-71
0 -6 48 c-10 69 -16 76 -10 10 l5 -58 -32 -2 c-18 0 3 -4 47 -9 106 -10 323 6
419 31 121 31 260 108 339 187 80 81 155 178 164 213 3 14 13 35 21 48 8 12
12 25 9 28 -3 3 -8 -4 -12 -15z m-51 -46 c-25 -19 -40 -19 -24 0 7 8 20 15 28
15 13 0 12 -3 -4 -15z"/>
<path d="M3596 2625 c9 -14 21 -25 27 -25 6 0 0 11 -13 25 -13 14 -25 25 -27
25 -2 0 4 -11 13 -25z"/>
<path d="M3651 2589 c-2 -31 145 -134 219 -153 14 -4 -2 6 -35 22 -33 16 -70
38 -82 48 -12 11 -35 27 -52 36 -17 10 -36 28 -41 40 -5 14 -9 17 -9 7z"/>
<path d="M10920 2520 c-6 -11 -7 -20 -2 -20 10 0 32 21 32 32 0 16 -19 8 -30
-12z"/>
<path d="M3915 2420 c11 -5 27 -9 35 -9 9 0 8 4 -5 9 -11 5 -27 9 -35 9 -9 0
-8 -4 5 -9z"/>
<path d="M2820 2342 c12 -18 25 -31 28 -27 3 3 -7 18 -23 33 l-28 27 23 -33z"/>
<path d="M3066 2354 c-8 -22 -8 -39 2 -30 4 4 7 11 7 14 0 4 4 13 8 20 5 6 4
12 -1 12 -6 0 -13 -7 -16 -16z"/>
<path d="M2998 2343 c22 -9 2 -23 -26 -18 -27 5 -27 5 -3 -5 14 -6 31 -8 38
-6 19 8 16 36 -4 35 -11 0 -13 -3 -5 -6z"/>
<path d="M2663 2274 c16 -44 22 -53 28 -38 4 12 2 23 -6 30 -8 5 -17 22 -20
37 -4 15 -11 27 -15 27 -4 0 2 -25 13 -56z"/>
<path d="M9657 2282 c-16 -18 -16 -19 3 -17 11 1 23 5 27 10 5 4 2 4 -6 0 -11
-6 -13 -4 -8 8 8 22 4 21 -16 -1z"/>
<path d="M2320 2240 c0 -45 2 -50 23 -49 12 0 16 3 10 6 -8 3 -13 23 -13 49 0
24 -4 44 -10 44 -5 0 -10 -22 -10 -50z"/>
<path d="M9426 2125 c-11 -8 -15 -15 -10 -15 6 0 19 7 30 15 10 8 15 14 9 14
-5 0 -19 -6 -29 -14z"/>
<path d="M9044 2104 c3 -9 6 -21 7 -27 0 -7 4 -3 8 8 9 22 5 35 -11 35 -5 0
-7 -7 -4 -16z"/>
<path d="M8665 2070 c-4 -12 -5 -24 -2 -27 3 -2 8 5 12 17 4 12 5 24 2 27 -3
2 -8 -5 -12 -17z"/>
</g>
</svg>
