<?xml version="1.0" standalone="no"?>
<!DOCTYPE svg PUBLIC "-//W3C//DTD SVG 20010904//EN"
 "http://www.w3.org/TR/2001/REC-SVG-20010904/DTD/svg10.dtd">
<svg version="1.0" xmlns="http://www.w3.org/2000/svg"
 width="1248.000000pt" height="596.000000pt" viewBox="0 0 1248.000000 596.000000"
 preserveAspectRatio="xMidYMid meet">
<metadata>
Created by potrace 1.12, written by Peter Selinger 2001-2015
</metadata>
<g transform="translate(0.000000,717.000000) scale(0.100000,-0.100000)"
fill="#000000" stroke="none">
<path d="M3897 7152 c-16 -17 -17 -107 -17 -1089 0 -1023 1 -1071 18 -1086 17
-16 120 -17 1233 -19 l1214 -3 3 -104 3 -104 -508 6 c-279 4 -645 12 -813 17
-704 24 -1398 51 -1577 61 -106 6 -197 7 -203 4 -7 -4 -10 -240 -10 -686 l0
-679 -70 0 c-38 0 -70 1 -71 3 0 1 -3 373 -5 826 l-6 825 -55 74 c-31 40 -66
78 -77 82 -12 5 -129 21 -261 35 -132 14 -352 39 -488 55 l-248 30 -282 -45
c-357 -56 -1015 -163 -1044 -170 l-23 -5 0 -1295 c0 -1024 3 -1295 12 -1302 7
-4 56 -19 108 -33 90 -24 95 -27 100 -55 7 -38 27 -48 185 -87 l126 -31 55 23
c64 26 47 28 334 -40 118 -28 259 -61 312 -72 l97 -21 183 26 c101 15 190 27
199 27 10 0 21 -20 33 -60 10 -34 26 -70 35 -80 9 -11 70 -42 136 -69 66 -27
233 -96 371 -154 l250 -105 685 114 c376 63 784 130 906 149 122 18 231 38
242 45 16 8 21 20 21 50 l0 39 -67 20 c-38 11 -129 36 -203 56 -197 53 -605
166 -607 169 -4 3 -63 311 -63 327 0 15 21 18 183 23 259 10 1474 36 1645 36
l142 0 0 -65 c0 -64 0 -65 -27 -65 -70 0 -454 -32 -593 -50 -321 -40 -506 -85
-557 -136 -30 -31 -31 -79 -1 -95 48 -26 129 -40 253 -46 108 -4 170 0 370 26
465 59 558 65 1005 65 446 1 492 -2 950 -60 348 -43 522 -43 648 0 33 11 37
17 40 49 2 28 -3 42 -21 60 -77 78 -444 140 -1069 183 l-98 6 0 66 0 65 393
-7 c1129 -19 1981 -45 2745 -83 l132 -6 0 1031 0 1032 -77 0 c-43 0 -220 -7
-393 -15 -847 -40 -1796 -71 -2427 -81 l-443 -7 0 107 0 106 1248 0 c1197 0
1250 1 1265 18 16 17 17 107 17 1089 0 1024 -1 1071 -18 1086 -17 16 -222 17
-2739 17 -2622 0 -2720 -1 -2736 -18z m5462 -16 c8 -10 10 -298 9 -1072 l-3
-1059 -2730 0 -2730 0 -3 1059 c-1 774 1 1062 9 1072 10 12 451 14 2724 14
2273 0 2714 -2 2724 -14z m-7417 -1778 c-7 -7 -12 -31 -12 -55 0 -41 -1 -42
-37 -48 -21 -3 -50 -8 -65 -10 -24 -4 -28 -1 -28 20 0 14 -4 25 -10 25 -5 0
-10 -11 -10 -25 0 -17 -6 -26 -22 -29 -19 -4 -1062 -163 -1108 -169 -12 -2
-15 9 -15 47 l0 50 480 78 c870 143 851 140 827 116z m125 5 c-8 -7 -77 -6
-85 2 -3 3 16 5 43 5 27 0 45 -3 42 -7z m-27 -48 c37 -20 84 -51 104 -69 l36
-34 0 -880 c0 -773 -2 -881 -15 -886 -13 -5 -15 94 -15 852 0 471 -4 862 -8
869 -4 7 -49 33 -100 58 -88 44 -92 47 -92 79 0 30 6 46 18 46 2 0 34 -16 72
-35z m376 11 c109 -14 269 -32 354 -41 85 -9 163 -19 173 -22 10 -2 44 -40 76
-83 l58 -79 -4 -573 c-1 -315 -3 -683 -4 -818 -1 -135 -5 -228 -8 -208 -4 20
-8 390 -9 823 l-1 786 -30 48 c-58 90 -46 86 -341 121 -347 41 -532 67 -494
69 17 0 120 -10 230 -23z m-231 -6 c33 -5 179 -24 325 -40 146 -17 303 -35
349 -42 l84 -11 44 -61 c40 -54 43 -61 26 -64 -18 -3 -480 48 -720 79 -88 11
-92 13 -104 41 -7 17 -35 45 -66 65 -29 20 -53 37 -53 39 0 7 54 4 115 -6z
m-202 -93 l28 -12 0 -1430 0 -1430 -43 -32 c-44 -33 -45 -33 -130 -12 l-38 10
0 1449 0 1449 33 5 c107 18 116 18 150 3z m-203 -1455 c0 -791 -2 -1441 -5
-1444 -3 -3 -29 1 -58 8 -28 8 -225 55 -437 105 -212 50 -443 105 -515 123
l-130 32 -3 64 c-2 34 1 66 5 70 4 4 82 -10 173 -31 91 -21 171 -39 178 -39 9
0 12 40 12 169 0 170 -8 221 -33 221 -7 0 -37 7 -65 15 l-52 16 0 819 0 820
23 5 c37 8 293 55 300 55 4 0 7 -110 7 -244 l0 -244 -122 -23 -123 -24 2 -63
c1 -35 4 -66 7 -69 3 -3 72 26 153 64 l148 69 0 310 0 309 -29 0 c-16 0 -31
-6 -34 -13 -2 -8 5 -11 20 -10 l23 3 0 -294 0 -293 -132 -58 -133 -58 0 44 c0
37 3 44 23 48 12 3 64 12 115 22 51 9 95 21 99 27 7 12 5 509 -3 516 -5 5 -58
-3 -277 -43 -43 -8 -80 -16 -83 -18 -8 -9 -15 -1334 -7 -1502 l8 -169 64 -22
c41 -13 67 -28 72 -41 11 -27 11 -286 0 -303 -9 -15 -22 -13 -228 36 l-113 26
0 1137 0 1138 63 11 c34 6 251 40 482 75 231 36 447 69 480 74 33 5 75 10 93
11 l32 1 0 -1438z m305 1411 l35 -17 1 -845 c1 -1391 -2 -1916 -9 -1923 -4 -4
-22 -11 -40 -14 l-32 -6 0 1411 c0 776 2 1411 5 1411 2 0 20 -8 40 -17z m395
-47 c118 -14 283 -32 365 -41 83 -9 159 -18 171 -20 20 -4 20 -4 20 -802 l-1
-798 -56 -3 -57 -3 -7 38 c-16 85 -91 178 -173 215 -65 29 -166 26 -231 -6
-90 -46 -153 -127 -167 -215 l-7 -41 -68 0 -69 0 0 848 c0 467 3 852 7 856 4
4 19 4 33 2 14 -3 122 -17 240 -30z m3938 -231 c2 -27 1 -74 -3 -102 -5 -43
-10 -53 -26 -53 -18 0 -19 8 -19 106 0 104 0 105 23 102 19 -3 22 -10 25 -53z
m362 -50 l0 -105 -170 0 -170 0 0 105 0 105 170 0 170 0 0 -105z m60 0 c0 -85
-3 -105 -14 -105 -12 0 -15 21 -18 101 -2 55 -1 103 1 105 2 2 10 4 18 4 10 0
13 -24 13 -105z m3340 -931 c0 -720 -3 -905 -12 -901 -10 3 -13 191 -15 888
l-1 884 -43 3 c-24 2 -257 -6 -519 -17 -2314 -99 -3306 -104 -5450 -26 -371
14 -710 28 -752 31 -104 9 -110 3 -108 -95 7 -266 -1 -1221 -10 -1221 -7 0
-10 231 -10 672 l0 671 173 -6 c94 -4 343 -13 552 -22 1165 -46 1599 -55 2575
-55 834 0 1187 6 1875 30 438 16 1038 40 1340 54 149 7 300 14 338 15 l67 1 0
-906z m-50 -21 l0 -876 -252 6 c-453 12 -2095 37 -2873 45 -720 7 -1317 4
-2481 -13 l-511 -7 -6 21 c-3 12 -2 23 1 25 4 2 378 9 832 16 1263 20 3171 7
4768 -30 249 -6 457 -8 462 -5 6 4 10 303 10 816 0 735 -1 810 -16 816 -9 3
-152 1 -318 -6 -165 -6 -463 -18 -661 -26 -1900 -75 -3041 -75 -5038 1 -367
13 -672 22 -677 19 -6 -4 -10 -234 -10 -621 l0 -614 -24 0 -24 0 -4 638 c-3
431 0 640 7 648 7 7 54 8 150 3 132 -7 940 -37 1600 -59 515 -18 1895 -24
2505 -11 683 14 1514 43 2165 76 138 7 283 13 323 14 l72 1 0 -877z m-72 3 c1
-435 -1 -793 -5 -797 -5 -3 -156 -3 -338 2 -518 13 -1449 28 -2440 40 -716 9
-1125 8 -1920 -3 -555 -7 -1089 -13 -1185 -13 l-175 0 -31 145 c-34 162 -44
187 -76 192 -13 2 -132 2 -266 0 l-242 -5 2 609 3 609 60 -3 c33 -1 195 -7
360 -12 165 -6 408 -15 540 -20 1022 -42 2646 -57 3530 -31 401 11 1926 68
2015 74 25 2 72 3 105 3 l60 -1 3 -789z m-7310 -212 c28 -14 64 -40 78 -57 51
-61 93 -177 64 -177 -5 0 -10 8 -10 18 0 9 -13 45 -29 78 -102 215 -391 181
-462 -54 -13 -45 -29 -56 -29 -19 0 35 45 121 82 159 83 82 204 103 306 52z
m-120 -85 c-3 -64 -5 -72 -30 -86 -25 -16 -27 -16 -77 27 -29 23 -50 48 -48
54 5 18 109 76 134 76 23 0 24 -2 21 -71z m126 33 c59 -41 66 -59 36 -83 -52
-41 -75 -49 -104 -36 -24 11 -26 16 -26 86 l0 73 28 -6 c15 -4 45 -19 66 -34z
m-201 -168 c-6 -17 -153 -21 -153 -4 0 15 28 81 41 97 9 10 22 3 65 -33 33
-28 51 -51 47 -60z m296 45 c20 -57 17 -59 -59 -59 -87 0 -92 16 -17 59 28 17
55 31 59 31 3 0 11 -14 17 -31z m-165 -18 c26 -29 11 -41 -50 -41 -60 0 -72
16 -32 44 30 21 61 20 82 -3z m1221 -61 c8 -13 57 -240 111 -514 25 -127 55
-280 67 -341 l22 -109 80 -23 c44 -13 215 -60 380 -105 165 -44 306 -84 313
-88 8 -4 -26 -12 -75 -19 -48 -6 -198 -30 -333 -52 -556 -90 -739 -121 -815
-135 -194 -35 -445 -74 -474 -74 -18 0 -105 30 -194 66 -334 136 -502 207
-511 214 -4 5 22 11 58 15 80 9 112 0 305 -83 l135 -58 140 23 c78 12 245 38
371 58 206 31 563 87 765 118 41 7 74 17 73 22 -1 6 -64 30 -140 54 -76 24
-141 48 -145 54 -9 14 -159 -2 -1048 -114 -143 -17 -464 -53 -555 -61 -35 -3
-23 -45 -101 357 -30 160 -71 363 -90 453 -43 205 -52 280 -33 286 8 3 383 10
834 16 744 10 821 9 831 -5 11 -15 184 -869 184 -908 0 -9 5 -17 10 -17 6 0
10 10 10 22 0 34 -170 887 -182 914 -14 29 88 28 -918 13 -723 -10 -776 -12
-794 -29 -18 -18 -16 -31 89 -556 59 -297 108 -541 109 -544 0 -3 -4 -6 -9 -8
-6 -2 -18 37 -28 85 -106 532 -187 947 -192 988 -11 83 -30 79 424 85 748 10
1320 10 1326 0z m-1737 -278 c16 -71 17 -748 1 -757 -6 -4 -12 -5 -14 -3 -2 2
-7 190 -10 418 -4 243 -2 411 3 405 5 -5 14 -34 20 -63z m6102 -122 c294 -5
789 -14 1100 -20 311 -6 620 -13 688 -17 l122 -6 0 -94 0 -95 -92 6 c-547 36
-2112 81 -3208 93 -656 6 -2265 -19 -2717 -42 l-111 -6 -10 48 c-6 26 -13 64
-17 84 l-7 37 184 7 c627 24 2928 27 4068 5z m-6011 -330 c28 -140 51 -260 51
-267 0 -12 -10 -16 -77 -27 l-33 -5 0 281 c0 155 2 279 4 277 3 -2 28 -119 55
-259z m4639 172 c9 -6 12 -35 10 -108 l-3 -99 -405 -3 c-223 -1 -415 0 -427 3
-22 5 -23 10 -23 104 0 70 4 101 13 104 21 9 821 7 835 -1z m-868 -186 c0 -40
12 -45 110 -47 44 -1 25 -4 -60 -10 -353 -22 -646 -55 -807 -90 -161 -35 -421
-22 -378 20 52 50 612 134 1030 154 33 2 70 4 83 5 19 2 22 -3 22 -32z m1235
8 c222 -18 450 -47 588 -75 100 -20 202 -53 212 -69 10 -16 -67 -29 -185 -32
-95 -2 -136 2 -235 25 -146 33 -410 64 -679 82 -111 7 -171 13 -134 14 85 1
98 7 98 40 0 15 2 30 5 33 7 6 60 3 330 -18z m-485 -84 c359 -15 706 -52 928
-100 50 -11 52 -13 52 -46 0 -28 -4 -34 -20 -34 -12 0 -139 15 -283 34 -423
56 -511 61 -992 61 -467 -1 -577 -7 -970 -60 -99 -14 -207 -26 -240 -27 -58
-3 -60 -2 -63 24 -4 36 9 41 153 67 394 69 951 101 1435 81z m-1850 -101 c19
-5 81 -12 138 -15 l102 -7 0 -30 0 -30 -90 6 c-107 8 -220 34 -227 53 -9 24 5
47 25 39 9 -4 33 -11 52 -16z m3170 -8 c0 -10 -6 -23 -12 -29 -28 -22 -290
-53 -301 -35 -3 5 -4 19 -1 30 5 18 16 21 112 26 59 4 121 11 137 16 48 15 65
13 65 -8z m-7052 -36 c89 -22 162 -43 162 -46 0 -4 -10 -9 -22 -13 -47 -12
-116 -4 -223 27 -96 28 -110 35 -113 55 -4 28 -19 30 196 -23z m3100 -77 l127
-41 -380 -58 c-209 -31 -483 -73 -610 -94 -126 -20 -248 -39 -270 -42 -33 -4
-67 7 -188 55 -133 54 -144 60 -115 65 18 3 184 24 368 47 184 22 457 56 605
74 149 19 285 34 303 35 18 0 90 -18 160 -41z m-1825 -24 c2 -14 0 -27 -7 -29
-6 -2 -76 -13 -156 -25 -80 -11 -156 -23 -169 -26 -22 -5 -23 -3 -11 11 34 41
196 92 301 94 32 1 37 -2 42 -25z m423 -277 c355 -150 404 -173 404 -185 -1
-37 -22 -31 -266 71 -137 58 -300 126 -362 152 -99 42 -142 71 -142 97 0 5 6
8 13 8 7 0 166 -65 353 -143z m2104 123 c-52 -10 -266 -46 -475 -80 -209 -34
-454 -74 -545 -90 -91 -16 -268 -45 -395 -65 -126 -20 -236 -38 -242 -40 -7
-2 -13 -1 -13 3 0 5 62 18 138 30 75 12 322 53 547 91 226 38 489 82 585 97
96 15 231 37 300 49 69 12 141 22 160 23 19 0 -8 -9 -60 -18z m130 -20 c0 -25
-25 -35 -105 -44 -33 -4 -168 -25 -300 -46 -132 -22 -280 -46 -330 -54 -49 -8
-307 -51 -572 -95 -265 -45 -489 -81 -498 -81 -16 0 -21 25 -5 35 11 7 101 23
790 136 305 50 654 108 775 129 121 20 226 38 233 39 6 0 12 -8 12 -19z"/>
<path d="M4002 7072 c-10 -7 -12 -211 -10 -988 l3 -979 2635 0 2635 0 0 985 0
985 -2625 2 c-1444 2 -2631 -1 -2638 -5z m5248 -987 l0 -965 -2620 0 -2620 0
0 965 0 965 2620 0 2620 0 0 -965z"/>
<path d="M1338 4818 l-38 -10 -2 -306 -3 -306 -87 -43 -88 -43 0 -55 c0 -46 3
-55 18 -54 9 0 78 31 152 67 104 52 136 72 140 90 3 13 4 169 2 347 l-3 325
-27 -1 c-15 -1 -44 -6 -64 -11z m72 -338 l0 -331 -124 -59 c-69 -33 -130 -60
-136 -60 -7 0 -10 13 -8 33 3 29 10 36 90 77 l88 45 2 305 3 305 30 6 c17 4
36 7 43 8 9 1 12 -71 12 -329z"/>
<path d="M993 4733 l-63 -15 0 -198 c0 -110 4 -201 9 -204 5 -3 47 -1 95 6
l86 11 0 103 c0 101 -1 104 -22 105 l-23 1 23 6 c22 7 23 12 25 102 l2 95 -35
2 c-19 0 -63 -6 -97 -14z m107 -82 c0 -90 5 -85 -93 -97 l-58 -6 3 78 3 79 55
11 c95 20 90 24 90 -65z m0 -215 l0 -83 -31 -7 c-17 -3 -51 -6 -75 -6 l-44 0
0 80 c0 89 -3 86 90 93 25 2 48 4 53 5 4 1 7 -36 7 -82z"/>
<path d="M1270 3965 c-30 -12 -56 -27 -57 -32 -4 -11 401 -28 417 -18 14 9 12
55 -2 59 -7 3 -78 7 -158 9 -135 5 -149 4 -200 -18z m344 -16 c17 -16 -19 -18
-174 -11 -130 7 -151 10 -130 20 28 13 289 6 304 -9z"/>
<path d="M1014 3855 c-2 -5 -2 -68 -1 -140 l2 -130 273 -33 c151 -19 280 -31
287 -28 10 3 13 40 13 155 0 135 -1 151 -16 151 -9 0 -82 5 -162 11 -275 20
-392 24 -396 14z m311 -31 c121 -8 226 -17 233 -20 7 -2 12 -14 10 -26 -3 -22
-7 -23 -83 -20 -44 2 -156 10 -250 17 -93 8 -178 15 -187 15 -12 0 -18 8 -18
25 0 31 -4 31 295 9z m-30 -99 c284 -25 277 -23 273 -54 -2 -21 -8 -26 -28
-24 -532 51 -510 48 -510 74 0 24 31 24 265 4z m30 -103 c214 -24 240 -29 243
-46 2 -10 0 -22 -5 -27 -5 -5 -94 2 -203 15 -107 13 -225 27 -262 31 -63 6
-68 8 -68 31 0 30 -11 30 295 -4z"/>
<path d="M1002 3293 l3 -98 43 -13 42 -14 0 -273 0 -273 47 -16 c26 -9 53 -16
60 -16 11 0 13 70 11 387 l-3 388 -70 12 c-38 6 -85 12 -103 12 l-33 1 3 -97z
m148 58 l35 -7 3 -366 2 -367 -37 13 -38 13 -3 275 -2 276 -45 11 -45 11 0 81
0 80 48 -6 c26 -4 63 -10 82 -14z"/>
<path d="M1495 3125 c-183 -37 -165 -12 -165 -229 0 -112 4 -187 10 -191 12
-8 12 -15 11 185 -1 91 2 170 6 177 6 8 256 63 290 63 1 0 3 5 3 10 0 14 -17
12 -155 -15z"/>
<path d="M2495 4966 c-61 -29 -116 -83 -147 -145 -33 -65 -33 -197 0 -258 35
-66 78 -110 140 -140 47 -23 70 -28 132 -27 91 0 135 20 201 91 64 68 83 123
77 220 -7 124 -56 201 -160 252 -80 40 -168 43 -243 7z m233 -20 c45 -23 104
-84 127 -131 27 -55 28 -194 2 -247 -67 -135 -226 -190 -360 -124 -125 61
-186 205 -142 337 21 64 110 158 165 177 49 16 168 9 208 -12z"/>
<path d="M2533 4934 c-51 -19 -112 -76 -138 -129 -27 -55 -27 -175 -1 -228 64
-129 213 -178 337 -111 77 42 129 132 129 223 0 51 -30 136 -62 175 -56 68
-180 101 -265 70z m75 -76 c3 -66 2 -67 -28 -83 -30 -16 -32 -15 -69 14 -57
45 -66 58 -51 76 17 20 112 66 130 63 11 -2 16 -20 18 -70z m109 41 c45 -22
87 -65 77 -80 -3 -5 -28 -21 -55 -34 -46 -24 -50 -25 -74 -9 -22 15 -25 23
-25 80 0 74 6 77 77 43z m-180 -202 c-2 -41 -2 -41 -66 -64 -50 -18 -67 -20
-73 -11 -15 24 -8 122 12 166 l20 43 54 -47 c51 -43 55 -50 53 -87z m297 42
c10 -54 0 -139 -17 -139 -22 1 -112 55 -111 68 1 6 2 27 3 45 1 28 7 36 44 55
58 29 70 25 81 -29z m-169 6 c44 -43 27 -99 -31 -111 -45 -9 -76 23 -72 74 2
27 9 40 28 49 36 18 48 16 75 -12z m-90 -121 c23 -15 25 -23 25 -90 0 -81 -6
-87 -64 -64 -32 12 -116 88 -116 105 0 10 71 45 128 64 1 1 14 -6 27 -15z
m175 -19 c27 -13 51 -29 54 -34 16 -25 -78 -98 -146 -115 l-28 -6 0 78 c0 72
2 80 23 90 33 16 43 14 97 -13z"/>
<path d="M2505 4346 c-60 -28 -129 -100 -158 -164 -62 -140 13 -331 155 -392
74 -32 182 -26 257 16 211 114 194 443 -29 543 -64 29 -160 28 -225 -3z m231
-24 c139 -71 193 -254 118 -393 -48 -88 -133 -137 -239 -138 -196 -2 -329 213
-241 392 30 63 107 138 158 155 50 17 156 9 204 -16z"/>
<path d="M2580 4321 c-74 -15 -149 -75 -181 -146 -26 -57 -25 -165 2 -222 82
-169 310 -192 419 -42 35 48 54 134 45 198 -20 136 -156 238 -285 212z m40
-87 c0 -64 -1 -65 -32 -79 -36 -15 -45 -12 -98 33 l-35 30 20 22 c31 34 118
74 138 63 4 -2 7 -33 7 -69z m111 40 c27 -15 55 -37 64 -50 14 -21 13 -24 -13
-42 -57 -40 -72 -45 -103 -32 -16 7 -29 20 -30 29 0 9 -2 25 -4 36 -7 35 6 85
22 85 9 0 37 -12 64 -26z m-240 -116 c44 -37 49 -45 49 -83 l0 -41 -65 -21
c-45 -15 -67 -18 -72 -10 -20 32 7 197 32 197 4 0 29 -19 56 -42z m346 -15 c9
-34 9 -141 0 -150 -4 -3 -33 5 -64 18 -56 24 -58 26 -60 64 -2 38 1 42 45 67
60 34 70 34 79 1z m-173 -14 c35 -28 36 -82 2 -105 -33 -21 -65 -15 -89 17
-24 33 -13 78 24 96 31 17 32 16 63 -8z m-54 -221 c0 -89 -4 -92 -75 -59 -38
17 -115 91 -115 110 0 4 30 19 67 33 63 23 69 23 95 9 27 -15 28 -19 28 -93z
m150 82 c33 -17 60 -35 60 -40 0 -20 -66 -84 -105 -101 -70 -32 -75 -29 -75
53 0 67 2 74 28 95 15 12 28 22 30 23 1 0 29 -14 62 -30z"/>
<path d="M3290 3369 c-239 -4 -571 -10 -737 -14 l-303 -7 0 -31 c0 -17 36
-211 79 -431 44 -221 85 -434 92 -474 7 -41 18 -76 24 -78 6 -3 115 6 241 20
438 47 1319 148 1323 152 6 6 -11 102 -90 499 -51 254 -74 353 -86 363 -9 6
-37 11 -62 10 -25 -1 -242 -5 -481 -9z m535 -19 c12 -20 168 -820 161 -827 -2
-2 -86 -13 -187 -24 -101 -10 -301 -33 -444 -49 -228 -26 -893 -100 -900 -100
-2 0 -8 30 -14 68 -7 37 -48 253 -93 480 -46 238 -77 417 -72 422 5 4 340 15
744 23 404 8 749 15 767 16 17 0 34 -3 38 -9z"/>
<path d="M3847 2245 c-156 -28 -177 -33 -177 -43 0 -4 40 -28 89 -51 l89 -44
169 32 c175 33 205 43 188 60 -20 19 -166 71 -198 70 -17 0 -90 -11 -160 -24z
m252 -21 c72 -27 90 -44 48 -44 -13 0 -86 -12 -163 -26 l-139 -25 -67 32 c-37
18 -65 35 -62 38 6 7 245 48 286 50 15 0 59 -11 97 -25z"/>
<path d="M10892 3715 c-221 -48 -403 -218 -443 -414 -12 -57 -12 -64 4 -76 13
-9 17 -27 17 -68 0 -53 -2 -57 -26 -63 -25 -6 -26 -9 -21 -63 4 -49 1 -63 -24
-107 -128 -227 30 -537 286 -561 89 -8 147 10 202 63 l44 41 -3 -50 -3 -50
-89 -18 c-49 -10 -93 -22 -98 -27 -5 -5 -8 -31 -6 -58 l3 -49 155 -32 c85 -17
173 -32 195 -32 22 0 105 19 185 42 l145 43 5 43 c5 42 7 44 60 64 69 26 151
106 188 184 23 51 27 70 26 153 0 80 -4 104 -25 150 -22 48 -25 63 -19 120 5
48 4 69 -6 81 -18 20 -19 149 -3 149 18 0 3 128 -22 195 -45 120 -146 233
-260 291 -122 61 -315 82 -467 49z m310 -20 c156 -32 299 -134 366 -261 47
-91 47 -92 -50 -89 l-82 3 -41 64 c-56 84 -121 142 -208 184 -117 55 -227 68
-327 38 -103 -30 -212 -118 -281 -225 -27 -40 -36 -48 -53 -43 -12 4 -23 8
-26 11 -11 10 50 104 105 158 143 143 377 205 597 160z m-127 -80 c128 -33
248 -119 305 -219 33 -57 36 -66 18 -66 -7 0 -26 23 -43 51 -53 91 -146 159
-264 195 -26 8 -92 14 -160 14 -92 1 -112 3 -96 12 51 30 153 35 240 13z m-65
-85 l0 -40 -110 0 -110 0 0 33 c0 19 3 37 7 40 3 4 53 7 110 7 l103 0 0 -40z
m154 -2 c30 -16 0 -28 -71 -28 -62 0 -63 0 -63 28 0 16 3 31 6 35 6 6 97 -19
128 -35z m-394 -1 c0 -18 5 -38 11 -44 9 -9 -2 -27 -42 -73 l-54 -62 -48 5
c-56 5 -62 9 -48 35 27 51 148 172 172 172 5 0 9 -15 9 -33z m494 -67 c51 -45
105 -132 130 -208 19 -59 25 -67 54 -76 30 -8 32 -12 32 -52 0 -32 -4 -44 -15
-44 -8 0 -17 -10 -20 -23 -6 -23 -9 -24 -119 -23 l-113 1 -7 212 c-6 204 -4
243 15 243 4 0 24 -14 43 -30z m-164 -232 l0 -241 -53 -56 c-29 -31 -60 -67
-69 -81 l-16 -25 -11 27 c-6 17 -11 139 -11 320 l-1 293 73 5 c40 3 76 4 81 2
4 -2 7 -112 7 -244z m82 23 l-3 -228 -25 -12 c-14 -6 -27 -11 -29 -11 -3 0 -5
108 -5 240 l0 240 33 0 32 0 -3 -229z m-270 -43 c3 -145 4 -265 2 -267 -1 -2
-18 14 -36 35 -35 39 -117 84 -156 84 -14 0 -35 13 -50 30 -15 17 -36 30 -49
30 -20 0 -23 5 -23 39 0 36 2 39 35 45 30 6 36 12 46 49 17 64 46 115 96 168
41 44 50 49 88 49 l42 0 5 -262z m-385 134 c19 -12 -14 -115 -34 -108 -8 3
-19 6 -24 6 -12 0 -11 26 2 73 10 37 29 46 56 29z m147 -39 c-14 -58 -24 -73
-46 -74 -35 -2 -91 0 -95 4 -1 2 4 25 13 50 l16 47 59 0 59 0 -6 -27z m951
-39 c4 -31 4 -58 2 -61 -3 -3 -46 -7 -96 -9 -102 -4 -105 -2 -117 76 -6 37 -5
42 12 38 12 -2 23 -19 32 -51 7 -26 17 -47 23 -47 12 0 12 8 -5 63 l-14 47 78
0 78 0 7 -56z m-1047 -100 c3 -39 1 -42 -29 -48 -56 -11 -59 -9 -59 37 0 53 5
59 50 55 33 -3 35 -5 38 -44z m1026 -25 c3 -17 6 -43 6 -56 0 -24 -2 -25 -47
-18 -27 4 -51 9 -55 12 -5 2 -8 24 -8 49 l0 44 49 0 c46 0 49 -1 55 -31z
m-951 -53 c4 -10 -10 -17 -52 -25 -32 -6 -79 -25 -105 -41 -26 -17 -49 -30
-51 -30 -3 0 -5 17 -5 39 0 37 2 39 43 49 98 26 162 29 170 8z m847 -44 c0 -4
-9 -36 -21 -69 -18 -54 -27 -66 -70 -94 -94 -60 -163 -166 -175 -271 -8 -72
12 -121 63 -147 98 -52 120 -61 151 -61 140 -1 248 204 180 340 -29 57 -99 96
-153 86 -50 -10 -113 -63 -149 -125 -26 -48 -30 -65 -31 -133 0 -43 -3 -78 -6
-78 -19 0 -31 55 -27 117 8 105 57 185 158 253 48 32 61 48 74 86 9 26 16 61
16 77 0 28 1 29 36 22 20 -3 47 -11 61 -18 25 -11 25 -13 19 -84 -5 -65 -3
-77 21 -124 23 -44 27 -64 27 -138 1 -72 -4 -95 -26 -142 -67 -145 -209 -222
-321 -176 -42 18 -101 85 -117 132 -7 20 -11 68 -8 109 5 103 50 193 126 249
89 67 110 91 117 133 4 21 8 45 10 52 5 13 45 17 45 4z m-958 -49 c-75 -71
-97 -126 -97 -243 1 -133 25 -191 119 -287 40 -40 67 -73 61 -73 -23 0 -114
61 -149 100 -59 65 -90 141 -94 231 -7 139 37 229 142 289 72 42 76 37 18 -17z
m222 35 c102 -30 197 -183 174 -280 -5 -24 -8 -82 -5 -131 4 -82 3 -89 -24
-132 -71 -112 -196 -133 -290 -48 -106 96 -144 270 -93 425 26 78 126 176 183
178 7 0 32 -5 55 -12z m563 -28 c-108 -34 -197 -115 -250 -228 -29 -60 -32
-76 -32 -162 0 -85 3 -101 29 -154 22 -45 40 -65 77 -89 27 -16 49 -31 49 -33
0 -2 -24 7 -52 19 -80 32 -162 119 -183 192 -45 155 16 323 152 416 63 44 109
58 193 58 l75 0 -58 -19z m-775 -45 c-51 -65 -82 -214 -64 -307 5 -26 6 -45 1
-43 -15 10 -31 120 -26 176 6 65 32 130 72 177 32 38 47 36 17 -3z m858 -4 c0
-5 -22 -26 -50 -46 -74 -54 -136 -129 -160 -193 -27 -70 -30 -181 -8 -233 23
-53 77 -110 128 -133 l45 -21 -38 -3 c-26 -2 -52 5 -88 25 -104 56 -160 180
-139 308 20 120 84 213 192 274 50 29 118 42 118 22z m-230 -78 c-46 -53 -85
-123 -100 -180 l-10 -38 5 38 c6 55 42 125 93 180 25 26 47 47 49 47 3 0 -14
-21 -37 -47z m330 -70 c0 -5 -18 -15 -39 -24 -49 -21 -106 -97 -122 -162 -11
-46 -9 -108 5 -152 4 -11 -3 -2 -14 20 -51 103 -3 251 98 305 38 20 72 26 72
13z m82 -52 c32 -28 33 -32 33 -103 -1 -85 -23 -136 -79 -186 -68 -60 -141
-50 -172 23 -41 99 23 246 121 280 55 20 60 19 97 -14z m-525 -173 c-2 -13 -4
-3 -4 22 0 25 2 35 4 23 2 -13 2 -33 0 -45z m59 -159 c9 -11 15 -22 11 -25 -8
-8 -54 75 -62 111 -3 18 2 11 14 -19 11 -26 28 -57 37 -67z m-156 61 c0 -17
81 -100 113 -117 16 -8 27 -16 25 -18 -7 -7 -132 18 -145 28 -15 11 -18 117
-3 117 6 0 10 -5 10 -10z m155 -155 c33 -3 76 -9 95 -13 l35 -8 -56 -17 c-80
-24 -109 -24 -239 1 -142 28 -155 33 -115 43 27 7 118 5 280 -6z m-185 -53
l145 -27 3 -33 c2 -20 -2 -34 -10 -37 -13 -5 -301 49 -319 60 -5 4 -9 19 -9
36 0 36 1 36 190 1z m460 8 c0 -25 -14 -32 -147 -69 -143 -39 -145 -39 -141 2
3 32 3 32 108 59 131 34 180 36 180 8z"/>
<path d="M10666 2890 c-43 -39 -60 -86 -58 -171 1 -79 24 -140 64 -174 40 -34
70 -40 111 -21 88 43 116 222 50 323 -50 77 -110 92 -167 43z m102 -4 c15 -8
38 -34 52 -58 21 -36 25 -56 25 -124 0 -71 -3 -85 -27 -121 -73 -110 -188 -25
-188 139 0 80 16 126 55 156 32 26 46 27 83 8z"/>
<path d="M9388 2324 c-69 -16 -125 -44 -155 -76 -35 -37 -63 -109 -63 -161 0
-46 3 -52 54 -102 63 -61 170 -118 253 -135 76 -16 308 -7 388 14 33 9 78 29
100 44 36 25 40 33 43 74 9 137 -168 300 -371 342 -91 19 -172 19 -249 0z
m142 -14 c0 -12 -17 -12 -45 0 -17 7 -15 9 13 9 17 1 32 -3 32 -9z m0 -60 c35
-38 42 -41 82 -38 36 2 44 7 46 26 2 12 8 22 13 22 23 0 135 -65 174 -101 73
-68 119 -187 83 -217 -26 -21 -138 -35 -241 -30 -116 6 -184 28 -192 62 -3 11
-10 43 -15 70 -6 26 -17 60 -25 76 -21 41 -79 87 -135 107 -27 10 -50 21 -50
24 0 4 21 16 48 28 37 17 60 21 110 17 59 -4 66 -6 102 -46z m250 2 c149 -83
248 -238 195 -308 -13 -18 -14 -15 -15 31 0 105 -85 210 -230 286 -45 24 -63
37 -45 34 17 -4 59 -23 95 -43z m-167 24 c39 -9 38 -46 -1 -46 -37 0 -67 22
-59 43 3 9 12 15 19 13 7 -3 25 -7 41 -10z m-300 -67 c79 -22 137 -99 153
-203 8 -60 28 -80 95 -100 60 -18 209 -21 289 -6 70 13 74 6 8 -15 -71 -22
-293 -32 -371 -15 -82 17 -194 76 -251 133 -47 47 -48 50 -43 96 3 26 14 64
23 84 19 40 33 44 97 26z"/>
<path d="M5280 2291 c-5 -11 -37 -88 -70 -172 -40 -102 -60 -166 -60 -195 0
-81 -179 -73 1806 -73 l1775 0 21 21 c16 16 19 29 15 57 -4 30 -114 284 -155
359 l-13 22 -1654 0 c-1623 0 -1654 0 -1665 -19z m3387 -166 c39 -88 72 -163
73 -167 0 -5 -803 -8 -1785 -8 -982 0 -1785 2 -1785 4 0 2 23 61 50 130 28 69
50 130 50 134 0 4 9 22 20 40 l20 32 1642 -2 1642 -3 73 -160z m75 -201 c3 -3
4 -14 1 -25 -5 -19 -31 -19 -1784 -19 -1228 0 -1780 3 -1784 10 -4 6 -4 17 -1
25 5 13 238 15 1784 15 978 0 1781 -3 1784 -6z"/>
<path d="M5341 2256 c-6 -7 -22 -44 -35 -82 -13 -38 -33 -93 -45 -122 -11 -29
-21 -59 -21 -67 0 -13 150 -15 1170 -15 1116 0 1170 1 1170 18 0 32 -42 246
-51 264 -13 25 -166 27 -175 3 -6 -14 -8 -14 -18 0 -9 13 -28 15 -91 13 l-80
-3 -6 -30 -6 -30 -4 30 c-4 30 -4 30 -77 33 -46 2 -79 -2 -88 -9 -10 -8 -14
-8 -14 0 0 16 -186 15 -194 -1 -5 -10 -7 -10 -12 0 -4 8 -28 12 -70 12 -57 0
-66 -2 -73 -22 l-8 -22 -5 22 c-6 20 -13 22 -68 22 -48 0 -66 -4 -76 -17 -13
-17 -13 -17 -14 0 0 14 -10 17 -70 17 -66 0 -70 -1 -71 -22 l0 -23 -9 22 c-9
21 -14 22 -157 22 -104 0 -150 -3 -155 -12 -6 -9 -8 -9 -8 1 0 15 -131 17
-147 1 -8 -8 -13 -8 -17 0 -4 6 -36 11 -71 11 -48 0 -66 -4 -73 -16 -8 -15
-10 -15 -15 0 -9 24 -122 23 -136 -1 -9 -17 -10 -17 -16 0 -6 14 -20 17 -80
17 -49 0 -76 -4 -84 -14z m108 -12 c17 -4 31 -13 31 -20 0 -11 -17 -14 -65
-14 -66 0 -85 13 -42 30 28 11 37 12 76 4z m189 -16 c3 -15 -5 -18 -52 -18
-40 0 -56 4 -56 13 0 23 12 28 60 25 33 -2 46 -7 48 -20z m162 2 c0 -21 -17
-25 -85 -20 -36 2 -37 3 -29 24 5 12 19 16 60 16 47 0 54 -2 54 -20z m158 -2
c3 -15 -5 -18 -52 -18 -40 0 -56 4 -56 13 0 23 12 28 60 25 33 -2 46 -7 48
-20z m160 0 c3 -15 -5 -18 -52 -18 -50 0 -56 2 -56 21 0 18 5 20 52 17 41 -2
54 -7 56 -20z m152 2 c0 -17 -7 -20 -50 -20 -35 0 -50 4 -50 13 0 22 11 27 57
27 36 0 43 -3 43 -20z m160 16 c0 -2 3 -11 6 -20 5 -14 -3 -16 -54 -16 -55 0
-60 2 -55 20 4 17 14 20 54 20 27 0 49 -2 49 -4z m158 -18 c3 -15 -5 -18 -52
-18 -31 0 -56 2 -56 4 0 2 3 12 6 21 9 23 97 17 102 -7z m150 0 c3 -15 -4 -18
-47 -18 -36 0 -51 4 -51 13 0 23 12 28 55 25 29 -2 41 -8 43 -20z m212 2 c0
-18 -7 -20 -75 -20 -68 0 -75 2 -75 20 0 18 7 20 75 20 68 0 75 -2 75 -20z
m170 0 c0 -12 -7 -20 -17 -20 -10 0 -35 -3 -55 -6 -33 -6 -38 -4 -38 13 0 29
8 33 62 33 41 0 48 -3 48 -20z m197 4 c9 -24 -15 -34 -79 -34 -55 0 -58 1 -58
25 0 24 2 25 65 25 51 0 67 -4 72 -16z m191 -6 c3 -16 -6 -18 -72 -18 -57 0
-76 3 -76 13 0 24 13 28 79 25 53 -2 66 -6 69 -20z m-1968 -69 c0 -17 -9 -19
-110 -19 -60 0 -110 3 -110 8 1 24 22 31 105 34 106 4 115 2 115 -23z m158 4
c3 -22 0 -23 -57 -23 -52 0 -61 3 -61 18 0 26 3 28 62 27 47 0 53 -2 56 -22z
m102 3 c0 -19 -6 -25 -32 -29 -41 -6 -48 -2 -48 29 0 21 4 24 40 24 35 0 40
-3 40 -24z m103 14 c10 0 17 -8 17 -19 0 -15 -9 -20 -42 -23 -51 -6 -59 -1
-47 31 7 18 14 22 32 17 12 -3 30 -6 40 -6z m585 1 c15 -1 22 -7 22 -21 0 -18
-7 -20 -65 -20 -56 0 -65 2 -65 18 0 29 -1 29 108 23z m136 3 c9 -3 16 -15 16
-25 0 -16 -8 -19 -55 -19 -47 0 -55 3 -55 18 0 10 3 22 7 25 8 9 66 9 87 1z
m155 -36 c1 -5 -26 -8 -59 -8 -53 0 -60 2 -60 19 0 17 8 20 53 23 50 3 63 -4
66 -34z m-719 12 c0 -18 -7 -20 -59 -20 -54 0 -59 2 -54 20 5 17 14 20 59 20
47 0 54 -2 54 -20z m140 0 c0 -17 -7 -20 -50 -20 -43 0 -50 3 -50 20 0 17 7
20 50 20 43 0 50 -3 50 -20z m150 0 c0 -18 -7 -20 -60 -20 -53 0 -60 2 -60 20
0 18 7 20 60 20 53 0 60 -2 60 -20z m560 0 c0 -17 -7 -20 -45 -20 -38 0 -45 3
-45 20 0 17 7 20 45 20 38 0 45 -3 45 -20z m140 0 c0 -18 -7 -20 -55 -20 -48
0 -55 2 -55 20 0 18 7 20 55 20 48 0 55 -2 55 -20z m133 0 c-5 -17 -14 -20
-59 -20 -47 0 -54 2 -54 20 0 18 7 20 59 20 54 0 59 -2 54 -20z m345 -2 c3
-17 -9 -18 -152 -18 -150 0 -156 1 -156 20 0 20 5 20 152 18 136 -3 153 -5
156 -20z m-1950 -65 c3 -23 3 -23 -137 -23 -79 0 -141 4 -141 9 0 39 9 42 144
39 127 -3 131 -4 134 -25z m247 2 c0 -14 -10 -21 -32 -26 -30 -6 -33 -4 -33
17 0 16 7 24 23 27 33 6 42 2 42 -18z m133 -7 c3 -27 2 -28 -47 -28 -47 0 -51
2 -51 24 0 19 6 26 28 29 53 8 67 3 70 -25z m602 2 c0 -20 -19 -30 -55 -30
-36 0 -55 10 -55 29 0 25 3 26 59 23 41 -3 51 -7 51 -22z m270 -6 c0 -22 -4
-24 -50 -24 -36 0 -52 4 -56 15 -12 31 2 40 55 37 46 -4 51 -6 51 -28z m138 3
c3 -26 2 -27 -52 -27 -56 0 -56 0 -56 31 l0 30 53 -4 c48 -3 52 -5 55 -30z
m152 8 c0 -14 -3 -25 -7 -25 -5 0 -32 -3 -60 -6 -43 -5 -54 -3 -59 10 -13 35
3 46 66 46 57 0 60 -1 60 -25z m128 -1 c3 -18 -3 -22 -35 -26 -50 -6 -63 -1
-63 29 0 23 3 24 48 21 39 -3 47 -7 50 -24z m292 7 c5 -11 10 -22 10 -25 0 -3
-61 -6 -135 -6 l-135 0 0 25 0 25 125 0 c113 0 125 -2 135 -19z m-1820 -11 c0
-18 -7 -20 -55 -20 -48 0 -55 2 -55 20 0 18 7 20 55 20 48 0 55 -2 55 -20z
m398 -2 c-3 -21 -9 -23 -65 -26 -62 -3 -63 -2 -63 23 0 24 2 25 66 25 62 0 65
-1 62 -22z m150 0 c-3 -20 -10 -23 -57 -26 -58 -3 -75 5 -65 31 5 13 19 17 66
17 56 0 59 -1 56 -22z m152 3 c0 -21 -19 -31 -58 -31 -47 0 -72 11 -72 31 0
17 8 19 65 19 57 0 65 -2 65 -19z m270 -7 c0 -24 -2 -25 -47 -22 -41 3 -48 6
-51 26 -3 20 0 22 47 22 48 0 51 -2 51 -26z m-1240 -53 c0 -36 -12 -41 -96
-41 -75 0 -84 2 -84 18 0 10 3 22 7 25 10 11 173 8 173 -2z m178 -13 c-3 -21
-9 -23 -75 -26 -72 -3 -79 0 -67 32 5 13 22 16 76 16 66 0 69 -1 66 -22z m162
-3 c0 -24 -2 -25 -65 -25 -63 0 -65 1 -65 25 0 24 2 25 65 25 63 0 65 -1 65
-25z m163 13 c10 -29 -6 -38 -64 -38 -59 0 -65 4 -53 34 8 20 110 23 117 4z
m927 -13 l0 -25 -445 0 c-425 0 -445 1 -445 18 0 10 3 22 7 25 3 4 204 7 445
7 l438 0 0 -25z m210 0 c0 -25 -1 -25 -85 -25 -84 0 -85 0 -85 25 0 25 1 25
85 25 84 0 85 0 85 -25z m208 -2 c3 -22 1 -23 -82 -23 -85 0 -86 0 -86 25 0
26 0 26 83 23 76 -3 82 -5 85 -25z m260 0 c3 -23 2 -23 -107 -23 l-111 0 0 25
0 26 108 -3 c102 -3 107 -4 110 -25z"/>
<path d="M7613 2255 c-3 -9 1 -41 8 -73 l14 -57 178 -2 177 -3 0 28 c0 15 -6
47 -14 72 l-13 45 -172 2 c-145 2 -173 0 -178 -12z m157 -25 c0 -18 -7 -20
-65 -20 -58 0 -65 2 -65 20 0 18 7 20 65 20 58 0 65 -2 65 -20z m178 -2 c3
-16 -5 -18 -62 -18 -60 0 -66 2 -66 20 0 19 5 21 62 18 50 -2 63 -6 66 -20z
m-168 -69 c0 -17 -8 -19 -65 -19 -58 0 -65 2 -65 19 0 16 8 20 38 23 63 5 92
-2 92 -23z m188 4 c3 -22 0 -23 -67 -23 -69 0 -71 1 -71 25 0 26 1 26 68 23
61 -3 67 -5 70 -25z"/>
<path d="M8047 2254 c-13 -13 -8 -39 32 -160 l38 -119 277 -3 c223 -2 276 0
276 11 0 15 -63 175 -91 228 l-18 36 -158 6 c-239 9 -348 9 -356 1z m321 -26
c7 -7 12 -20 12 -30 0 -17 -7 -19 -62 -16 -56 3 -63 5 -66 25 -3 23 10 30 69
32 19 0 40 -4 47 -11z m-165 -19 c7 -26 -7 -31 -74 -27 -47 3 -54 6 -57 26 -3
21 0 22 61 22 57 0 65 -2 70 -21z m355 -6 c3 -22 0 -23 -62 -23 -36 0 -66 4
-66 9 0 5 -3 17 -6 26 -6 14 2 16 62 13 63 -3 69 -5 72 -25z m-325 -88 l16
-45 -69 0 c-67 0 -68 0 -79 31 -19 56 -17 59 53 59 l64 0 15 -45z m183 10 c7
-19 14 -39 14 -45 0 -6 -27 -10 -65 -10 -70 0 -68 -2 -89 68 -7 21 -5 22 59
22 66 0 66 0 81 -35z m200 -48 c19 -43 34 -80 34 -83 0 -3 -32 -4 -72 -2 l-72
3 -27 70 c-39 99 -40 96 37 93 l65 -3 35 -78z m-346 -46 c0 -5 3 -17 6 -26 6
-14 -2 -16 -66 -13 -65 3 -74 5 -81 26 -8 22 -7 22 66 22 41 0 75 -4 75 -9z
m184 -13 c8 -33 -4 -39 -69 -36 -54 3 -59 5 -66 31 l-7 27 68 0 c62 0 68 -2
74 -22z"/>
<path d="M7655 2048 c-3 -7 -3 -22 -1 -33 3 -11 5 -26 5 -32 1 -10 45 -13 186
-13 177 0 185 1 185 20 0 10 -5 31 -12 45 -11 24 -15 25 -94 25 -56 0 -84 -4
-87 -12 -4 -10 -6 -10 -6 0 -1 8 -25 12 -86 12 -60 0 -87 -4 -90 -12z m160
-29 c9 -28 4 -31 -65 -35 -55 -2 -62 0 -69 19 -5 12 -7 25 -4 30 2 4 33 7 68
7 56 0 64 -3 70 -21z m183 -6 c3 -22 0 -23 -61 -23 -56 0 -65 3 -70 19 -7 29
1 32 68 29 54 -3 60 -5 63 -25z"/>
<path d="M0 1430 c0 -6 64 -11 168 -12 92 -1 2900 -2 6239 -3 4852 0 6073 3
6073 13 0 9 -1255 12 -6240 12 -4153 0 -6240 -3 -6240 -10z"/>
<path d="M0 1220 c0 -7 2087 -10 6240 -10 4153 0 6240 3 6240 10 0 7 -2087 10
-6240 10 -4153 0 -6240 -3 -6240 -10z"/>
</g>
</svg>
